0
SECTION
2
HEADER
9
$ACADVER
1
AC1024
9
$INSUNITS
70
4
0
ENDSEC
0
SECTION
2
TABLES
0
TABLE
2
LAYER
70
1
0
LAYER
2
CUT_6MM
70
0
62
7
6
CONTINUOUS
0
ENDTAB
0
ENDSEC
0
SECTION
2
ENTITIES
0
LWPOLYLINE
100
AcDbEntity
8
CUT_6MM
100
AcDbPolyline
90
41
70
1
10
258
20
26
10
228
20
26
10
228
20
20
10
196
20
20
10
196
20
26
10
166
20
26
10
166
20
20
10
134
20
20
10
134
20
26
10
104
20
26
10
104
20
20
10
72
20
20
10
72
20
26
10
42
20
26
10
42
20
20
10
20
20
20
10
20
20
34.2
10
26
20
34.2
10
26
20
48.4
10
20
20
48.4
10
20
20
62.6
10
26
20
62.6
10
26
20
76.8
10
20
20
76.8
10
20
20
91
10
342
20
91
10
342
20
76.8
10
336
20
76.8
10
336
20
62.6
10
342
20
62.6
10
342
20
48.4
10
336
20
48.4
10
336
20
34.2
10
342
20
34.2
10
342
20
20
10
320
20
20
10
320
20
26
10
290
20
26
10
290
20
20
10
258
20
20
10
258
20
26
0
LWPOLYLINE
100
AcDbEntity
8
CUT_6MM
100
AcDbPolyline
90
41
70
1
10
593
20
26
10
563
20
26
10
563
20
20
10
531
20
20
10
531
20
26
10
501
20
26
10
501
20
20
10
469
20
20
10
469
20
26
10
439
20
26
10
439
20
20
10
407
20
20
10
407
20
26
10
377
20
26
10
377
20
20
10
355
20
20
10
355
20
34.2
10
361
20
34.2
10
361
20
48.4
10
355
20
48.4
10
355
20
62.6
10
361
20
62.6
10
361
20
76.8
10
355
20
76.8
10
355
20
91
10
677
20
91
10
677
20
76.8
10
671
20
76.8
10
671
20
62.6
10
677
20
62.6
10
677
20
48.4
10
671
20
48.4
10
671
20
34.2
10
677
20
34.2
10
677
20
20
10
655
20
20
10
655
20
26
10
625
20
26
10
625
20
20
10
593
20
20
10
593
20
26
0
LWPOLYLINE
100
AcDbEntity
8
CUT_6MM
100
AcDbPolyline
90
61
70
1
10
20
20
105
10
20
20
113
10
14
20
113
10
14
20
129
10
20
20
129
10
20
20
146
10
14
20
146
10
14
20
162
10
20
20
162
10
20
20
170
10
36
20
170
10
36
20
176
10
66
20
176
10
66
20
170
10
98
20
170
10
98
20
176
10
128
20
176
10
128
20
170
10
160
20
170
10
160
20
176
10
190
20
176
10
190
20
170
10
222
20
170
10
222
20
176
10
252
20
176
10
252
20
170
10
284
20
170
10
284
20
176
10
314
20
176
10
314
20
170
10
330
20
170
10
330
20
162
10
336
20
162
10
336
20
146
10
330
20
146
10
330
20
129
10
336
20
129
10
336
20
113
10
330
20
113
10
330
20
105
10
314
20
105
10
314
20
99
10
284
20
99
10
284
20
105
10
252
20
105
10
252
20
99
10
222
20
99
10
222
20
105
10
190
20
105
10
190
20
99
10
160
20
99
10
160
20
105
10
128
20
105
10
128
20
99
10
98
20
99
10
98
20
105
10
66
20
105
10
66
20
99
10
36
20
99
10
36
20
105
10
20
20
105
0
LWPOLYLINE
100
AcDbEntity
8
CUT_6MM
100
AcDbPolyline
90
29
70
1
10
350
20
119.2
10
350
20
133.4
10
356
20
133.4
10
356
20
147.6
10
350
20
147.6
10
350
20
161.8
10
356
20
161.8
10
356
20
176
10
421
20
176
10
421
20
161.8
10
427
20
161.8
10
427
20
147.6
10
421
20
147.6
10
421
20
133.4
10
427
20
133.4
10
427
20
119.2
10
421
20
119.2
10
421
20
105
10
413
20
105
10
413
20
111
10
397
20
111
10
397
20
105
10
380
20
105
10
380
20
111
10
364
20
111
10
364
20
105
10
356
20
105
10
356
20
119.2
10
350
20
119.2
0
LWPOLYLINE
100
AcDbEntity
8
CUT_6MM
100
AcDbPolyline
90
29
70
1
10
445
20
119.2
10
445
20
133.4
10
451
20
133.4
10
451
20
147.6
10
445
20
147.6
10
445
20
161.8
10
451
20
161.8
10
451
20
176
10
516
20
176
10
516
20
161.8
10
522
20
161.8
10
522
20
147.6
10
516
20
147.6
10
516
20
133.4
10
522
20
133.4
10
522
20
119.2
10
516
20
119.2
10
516
20
105
10
508
20
105
10
508
20
111
10
492
20
111
10
492
20
105
10
475
20
105
10
475
20
111
10
459
20
111
10
459
20
105
10
451
20
105
10
451
20
119.2
10
445
20
119.2
0
LWPOLYLINE
100
AcDbEntity
8
CUT_6MM
100
AcDbPolyline
90
579
70
1
10
540.270237882
20
104.747196034
10
540.150462379
20
104.612851497
10
540.0285048
20
104.480484678
10
539.904397796
20
104.350131015
10
539.778174593
20
104.221825407
10
539.649868985
20
104.095602204
10
539.519515322
20
103.9714952
10
539.387148503
20
103.849537621
10
539.252803966
20
103.729762118
10
539.116517678
20
103.612200757
10
538.978326126
20
103.496885013
10
538.838266307
20
103.383845758
10
538.696375719
20
103.273113257
10
538.552692349
20
103.164717154
10
538.407254666
20
103.058686469
10
538.260101605
20
102.955049591
10
538.111272563
20
102.853834265
10
537.960807386
20
102.755067588
10
537.808746357
20
102.658776003
10
537.655130186
20
102.56498529
10
537.5
20
102.473720558
10
537.343397331
20
102.385006242
10
537.185364105
20
102.298866092
10
537.025942632
20
102.21532317
10
536.865175592
20
102.134399843
10
536.703106028
20
102.056117776
10
536.539777328
20
101.980497926
10
536.37523322
20
101.907560539
10
536.209517756
20
101.837325142
10
536.042675303
20
101.769810539
10
535.874750527
20
101.705034806
10
535.705788387
20
101.643015283
10
535.535834118
20
101.583768576
10
535.364933221
20
101.527310545
10
535.19313145
20
101.473656307
10
535.0204748
20
101.422820225
10
534.847009496
20
101.374815911
10
534.672781979
20
101.329656215
10
534.497838893
20
101.287353228
10
534.322227076
20
101.247918276
10
534.145993542
20
101.211361916
10
533.969185474
20
101.177693935
10
533.791850207
20
101.146923347
10
533.614035219
20
101.11905839
10
533.435788114
20
101.094106525
10
533.257156615
20
101.072074431
10
533.078188544
20
101.052968007
10
532.898931815
20
101.036792368
10
532.719434422
20
101.023551844
10
532.539744418
20
101.013249982
10
532.359909911
20
101.005889538
10
532.179979048
20
101.001472483
10
532
20
101
10
531.820020952
20
101.001472483
10
531.640090089
20
101.005889538
10
531.460255582
20
101.013249982
10
531.280565578
20
101.023551844
10
531.101068185
20
101.036792368
10
530.921811456
20
101.052968007
10
530.742843385
20
101.072074431
10
530.564211886
20
101.094106525
10
530.385964781
20
101.11905839
10
530.208149793
20
101.146923347
10
530.030814526
20
101.177693935
10
529.854006458
20
101.211361916
10
529.677772924
20
101.247918276
10
529.502161107
20
101.287353228
10
529.327218021
20
101.329656215
10
529.152990504
20
101.374815911
10
528.9795252
20
101.422820225
10
528.80686855
20
101.473656307
10
528.635066779
20
101.527310545
10
528.464165882
20
101.583768576
10
528.294211613
20
101.643015283
10
528.125249473
20
101.705034806
10
527.957324697
20
101.769810539
10
527.790482244
20
101.837325142
10
527.62476678
20
101.907560539
10
527.460222672
20
101.980497926
10
527.296893972
20
102.056117776
10
527.134824408
20
102.134399843
10
526.974057368
20
102.21532317
10
526.814635895
20
102.298866092
10
526.656602669
20
102.385006242
10
526.5
20
102.473720558
10
526.344869814
20
102.56498529
10
526.191253643
20
102.658776003
10
526.039192614
20
102.755067588
10
525.888727437
20
102.853834265
10
525.739898395
20
102.955049591
10
525.592745334
20
103.058686469
10
525.447307651
20
103.164717154
10
525.303624281
20
103.273113257
10
525.161733693
20
103.383845758
10
525.021673874
20
103.496885013
10
524.883482322
20
103.612200757
10
524.747196034
20
103.729762118
10
524.612851497
20
103.849537621
10
524.480484678
20
103.9714952
10
524.350131015
20
104.095602204
10
524.221825407
20
104.221825407
10
524.095602204
20
104.350131015
10
523.9714952
20
104.480484678
10
523.849537621
20
104.612851497
10
523.729762118
20
104.747196034
10
523.612200757
20
104.883482322
10
523.496885013
20
105.021673874
10
523.383845758
20
105.161733693
10
523.273113257
20
105.303624281
10
523.164717154
20
105.447307651
10
523.058686469
20
105.592745334
10
522.955049591
20
105.739898395
10
522.853834265
20
105.888727437
10
522.755067588
20
106.039192614
10
522.658776003
20
106.191253643
10
522.56498529
20
106.344869814
10
522.473720558
20
106.5
10
522.385006242
20
106.656602669
10
522.298866092
20
106.814635895
10
522.21532317
20
106.974057368
10
522.134399843
20
107.134824408
10
522.056117776
20
107.296893972
10
521.980497926
20
107.460222672
10
521.907560539
20
107.62476678
10
521.837325142
20
107.790482244
10
521.769810539
20
107.957324697
10
521.705034806
20
108.125249473
10
521.643015283
20
108.294211613
10
521.583768576
20
108.464165882
10
521.527310545
20
108.635066779
10
521.473656307
20
108.80686855
10
521.422820225
20
108.9795252
10
521.374815911
20
109.152990504
10
521.329656215
20
109.327218021
10
521.287353228
20
109.502161107
10
521.247918276
20
109.677772924
10
521.211361916
20
109.854006458
10
521.177693935
20
110.030814526
10
521.146923347
20
110.208149793
10
521.11905839
20
110.385964781
10
521.094106525
20
110.564211886
10
521.072074431
20
110.742843385
10
521.052968007
20
110.921811456
10
521.036792368
20
111.101068185
10
521.023551844
20
111.280565578
10
521.013249982
20
111.460255582
10
521.005889538
20
111.640090089
10
521.001472483
20
111.820020952
10
521
20
112
10
521.001472483
20
112.179979048
10
521.005889538
20
112.359909911
10
521.013249982
20
112.539744418
10
521.023551844
20
112.719434422
10
521.036792368
20
112.898931815
10
521.052968007
20
113.078188544
10
521.072074431
20
113.257156615
10
521.094106525
20
113.435788114
10
521.11905839
20
113.614035219
10
521.146923347
20
113.791850207
10
521.177693935
20
113.969185474
10
521.211361916
20
114.145993542
10
521.247918276
20
114.322227076
10
521.287353228
20
114.497838893
10
521.329656215
20
114.672781979
10
521.374815911
20
114.847009496
10
521.422820225
20
115.0204748
10
521.473656307
20
115.19313145
10
521.527310545
20
115.364933221
10
521.583768576
20
115.535834118
10
521.643015283
20
115.705788387
10
521.705034806
20
115.874750527
10
521.769810539
20
116.042675303
10
521.837325142
20
116.209517756
10
521.907560539
20
116.37523322
10
521.980497926
20
116.539777328
10
522.056117776
20
116.703106028
10
522.134399843
20
116.865175592
10
522.21532317
20
117.025942632
10
522.298866092
20
117.185364105
10
522.385006242
20
117.343397331
10
522.473720558
20
117.5
10
522.56498529
20
117.655130186
10
522.658776003
20
117.808746357
10
522.755067588
20
117.960807386
10
522.853834265
20
118.111272563
10
522.955049591
20
118.260101605
10
523.058686469
20
118.407254666
10
523.164717154
20
118.552692349
10
523.273113257
20
118.696375719
10
523.383845758
20
118.838266307
10
523.496885013
20
118.978326126
10
523.612200757
20
119.116517678
10
523.729762118
20
119.252803966
10
523.849537621
20
119.387148503
10
523.9714952
20
119.519515322
10
524.095602204
20
119.649868985
10
524.221825407
20
119.778174593
10
524.350131015
20
119.904397796
10
524.480484678
20
120.0285048
10
524.612851497
20
120.150462379
10
524.747196034
20
120.270237882
10
524.883482322
20
120.387799243
10
525.021673874
20
120.503114987
10
525.161733693
20
120.616154242
10
525.303624281
20
120.726886743
10
525.447307651
20
120.835282846
10
525.592745334
20
120.941313531
10
525.739898395
20
121.044950409
10
525.888727437
20
121.146165735
10
526.039192614
20
121.244932412
10
526.191253643
20
121.341223997
10
526.344869814
20
121.43501471
10
526.5
20
121.526279442
10
526.656602669
20
121.614993758
10
526.814635895
20
121.701133908
10
526.974057368
20
121.78467683
10
527.134824408
20
121.865600157
10
527.296893972
20
121.943882224
10
527.460222672
20
122.019502074
10
527.62476678
20
122.092439461
10
527.790482244
20
122.162674858
10
527.957324697
20
122.230189461
10
528.125249473
20
122.294965194
10
528.294211613
20
122.356984717
10
528.464165882
20
122.416231424
10
528.635066779
20
122.472689455
10
528.80686855
20
122.526343693
10
528.9795252
20
122.577179775
10
529.152990504
20
122.625184089
10
529.327218021
20
122.670343785
10
529.502161107
20
122.712646772
10
529.677772924
20
122.752081724
10
529.854006458
20
122.788638084
10
530.030814526
20
122.822306065
10
530.208149793
20
122.853076653
10
530.385964781
20
122.88094161
10
530.564211886
20
122.905893475
10
530.742843385
20
122.927925569
10
530.921811456
20
122.947031993
10
531.101068185
20
122.963207632
10
531.280565578
20
122.976448156
10
531.460255582
20
122.986750018
10
531.640090089
20
122.994110462
10
531.820020952
20
122.998527517
10
532
20
123
10
532.179979048
20
122.998527517
10
532.359909911
20
122.994110462
10
532.539744418
20
122.986750018
10
532.719434422
20
122.976448156
10
532.898931815
20
122.963207632
10
533.078188544
20
122.947031993
10
533.257156615
20
122.927925569
10
533.435788114
20
122.905893475
10
533.614035219
20
122.88094161
10
533.791850207
20
122.853076653
10
533.969185474
20
122.822306065
10
534.145993542
20
122.788638084
10
534.322227076
20
122.752081724
10
534.497838893
20
122.712646772
10
534.672781979
20
122.670343785
10
534.847009496
20
122.625184089
10
535.0204748
20
122.577179775
10
535.19313145
20
122.526343693
10
535.364933221
20
122.472689455
10
535.535834118
20
122.416231424
10
535.705788387
20
122.356984717
10
535.874750527
20
122.294965194
10
536.042675303
20
122.230189461
10
536.209517756
20
122.162674858
10
536.37523322
20
122.092439461
10
536.539777328
20
122.019502074
10
536.703106028
20
121.943882224
10
536.865175592
20
121.865600157
10
537.025942632
20
121.78467683
10
537.185364105
20
121.701133908
10
537.343397331
20
121.614993758
10
537.5
20
121.526279442
10
537.655130186
20
121.43501471
10
537.808746357
20
121.341223997
10
537.960807386
20
121.244932412
10
538.111272563
20
121.146165735
10
538.260101605
20
121.044950409
10
538.407254666
20
120.941313531
10
538.552692349
20
120.835282846
10
538.696375719
20
120.726886743
10
538.838266307
20
120.616154242
10
538.978326126
20
120.503114987
10
539.116517678
20
120.387799243
10
539.252803966
20
120.270237882
10
539.387148503
20
120.150462379
10
539.519515322
20
120.0285048
10
539.649868985
20
119.904397796
10
539.778174593
20
119.778174593
10
539.904397796
20
119.649868985
10
540.0285048
20
119.519515322
10
540.150462379
20
119.387148503
10
540.270237882
20
119.252803966
10
540.387799243
20
119.116517678
10
540.503114987
20
118.978326126
10
540.616154242
20
118.838266307
10
540.726886743
20
118.696375719
10
540.835282846
20
118.552692349
10
540.941313531
20
118.407254666
10
541.044950409
20
118.260101605
10
541.146165735
20
118.111272563
10
541.244932412
20
117.960807386
10
541.341223997
20
117.808746357
10
541.43501471
20
117.655130186
10
541.5
20
117.544669333
10
541.5
20
118
10
550
20
118
10
550.293031742
20
118
10
550.445997767
20
118.130790822
10
550.672464134
20
118.321762825
10
550.900230469
20
118.511182512
10
551.12928613
20
118.699041037
10
551.359620418
20
118.885329622
10
551.591222573
20
119.070039566
10
551.824081775
20
119.253162239
10
552.058187146
20
119.434689087
10
552.29352775
20
119.614611629
10
552.530092593
20
119.792921462
10
552.767870623
20
119.969610255
10
553.006850734
20
120.144669753
10
553.24702176
20
120.31809178
10
553.488372483
20
120.489868233
10
553.730891627
20
120.659991088
10
553.974567864
20
120.828452398
10
554.219389809
20
120.995244293
10
554.465346027
20
121.160358982
10
554.712425027
20
121.32378875
10
554.960615266
20
121.485525964
10
555.209905151
20
121.645563067
10
555.460283036
20
121.803892584
10
555.711737225
20
121.960507118
10
555.96425597
20
122.115399353
10
556.217827476
20
122.268562054
10
556.472439896
20
122.419988064
10
556.728081337
20
122.569670311
10
556.984739856
20
122.717601801
10
557.242403464
20
122.863775625
10
557.501060122
20
123.008184953
10
557.76069775
20
123.15082304
10
558.021304216
20
123.291683222
10
558.282867348
20
123.430758918
10
558.545374926
20
123.568043633
10
558.808814686
20
123.703530952
10
559.073174324
20
123.837214547
10
559.338441488
20
123.969088172
10
559.604603786
20
124.099145667
10
559.871648786
20
124.227380956
10
560.139564012
20
124.353788049
10
560.408336948
20
124.47836104
10
560.677955039
20
124.60109411
10
560.948405688
20
124.721981526
10
561.219676263
20
124.84101764
10
561.491754091
20
124.958196891
10
561.764626461
20
125.073513806
10
562.038280626
20
125.186962997
10
562.312703803
20
125.298539165
10
562.587883172
20
125.408237098
10
562.863805877
20
125.51605167
10
563.140459029
20
125.621977845
10
563.417829705
20
125.726010675
10
563.695904946
20
125.8281453
10
563.974671762
20
125.928376949
10
564.254117131
20
126.026700939
10
564.534227998
20
126.123112677
10
564.814991279
20
126.21760766
10
565.096393856
20
126.310181472
10
565.378422584
20
126.40082979
10
565.661064289
20
126.489548378
10
565.944305767
20
126.576333093
10
566.228133785
20
126.661179879
10
566.512535086
20
126.744084774
10
566.797496382
20
126.825043905
10
567.083004363
20
126.904053488
10
567.36904569
20
126.981109835
10
567.655607001
20
127.056209344
10
567.942674909
20
127.129348508
10
568.230236004
20
127.200523909
10
568.518276853
20
127.269732223
10
568.806783999
20
127.336970217
10
569.095743965
20
127.40223475
10
569.385143252
20
127.465522773
10
569.674968341
20
127.526831329
10
569.965205693
20
127.586157554
10
570.255841749
20
127.643498678
10
570.546862931
20
127.69885202
10
570.838255646
20
127.752214996
10
571.13000628
20
127.803585113
10
571.422101204
20
127.85295997
10
571.714526773
20
127.900337261
10
572.007269326
20
127.945714774
10
572.300315189
20
127.989090387
10
572.59365067
20
128.030462076
10
572.887262068
20
128.069827906
10
573.181135665
20
128.10718604
10
573.475257733
20
128.142534732
10
573.769614533
20
128.17587233
10
574.064192314
20
128.207197278
10
574.358977314
20
128.236508112
10
574.653955763
20
128.263803462
10
574.94911388
20
128.289082054
10
575.244437877
20
128.312342707
10
575.539913958
20
128.333584334
10
575.83552832
20
128.352805942
10
576.131267153
20
128.370006635
10
576.427116642
20
128.385185607
10
576.723062966
20
128.398342151
10
577.0190923
20
128.409475652
10
577.315190814
20
128.418585589
10
577.611344677
20
128.425671537
10
577.907540054
20
128.430733165
10
578.203763108
20
128.433770236
10
578.5
20
128.434782609
10
578.796236892
20
128.433770236
10
579.092459946
20
128.430733165
10
579.388655323
20
128.425671537
10
579.684809186
20
128.418585589
10
579.9809077
20
128.409475652
10
580.276937034
20
128.398342151
10
580.572883358
20
128.385185607
10
580.868732847
20
128.370006635
10
581.16447168
20
128.352805942
10
581.460086042
20
128.333584334
10
581.755562123
20
128.312342707
10
582.05088612
20
128.289082054
10
582.346044237
20
128.263803462
10
582.641022686
20
128.236508112
10
582.935807686
20
128.207197278
10
583.230385467
20
128.17587233
10
583.524742267
20
128.142534732
10
583.818864335
20
128.10718604
10
584.112737932
20
128.069827906
10
584.40634933
20
128.030462076
10
584.699684811
20
127.989090387
10
584.992730674
20
127.945714774
10
585.285473227
20
127.900337261
10
585.577898796
20
127.85295997
10
585.86999372
20
127.803585113
10
586.161744354
20
127.752214996
10
586.453137069
20
127.69885202
10
586.744158251
20
127.643498678
10
587.034794307
20
127.586157554
10
587.325031659
20
127.526831329
10
587.614856748
20
127.465522773
10
587.904256035
20
127.40223475
10
588.193216001
20
127.336970217
10
588.481723147
20
127.269732223
10
588.769763996
20
127.200523909
10
589.057325091
20
127.129348508
10
589.344392999
20
127.056209344
10
589.63095431
20
126.981109835
10
589.916995637
20
126.904053488
10
590.202503618
20
126.825043905
10
590.487464914
20
126.744084774
10
590.771866215
20
126.661179879
10
591.055694233
20
126.576333093
10
591.338935711
20
126.489548378
10
591.621577416
20
126.40082979
10
591.903606144
20
126.310181472
10
592.185008721
20
126.21760766
10
592.465772002
20
126.123112677
10
592.745882869
20
126.026700939
10
593.025328238
20
125.928376949
10
593.304095054
20
125.8281453
10
593.582170295
20
125.726010675
10
593.859540971
20
125.621977845
10
594.136194123
20
125.51605167
10
594.412116828
20
125.408237098
10
594.687296197
20
125.298539165
10
594.961719374
20
125.186962997
10
595.235373539
20
125.073513806
10
595.508245909
20
124.958196891
10
595.780323737
20
124.84101764
10
596.051594312
20
124.721981526
10
596.322044961
20
124.60109411
10
596.591663052
20
124.47836104
10
596.860435988
20
124.353788049
10
597.128351214
20
124.227380956
10
597.395396214
20
124.099145667
10
597.661558512
20
123.969088172
10
597.926825676
20
123.837214547
10
598.191185314
20
123.703530952
10
598.454625074
20
123.568043633
10
598.717132652
20
123.430758918
10
598.978695784
20
123.291683222
10
599.23930225
20
123.15082304
10
599.498939878
20
123.008184953
10
599.757596536
20
122.863775625
10
600.015260144
20
122.717601801
10
600.271918663
20
122.569670311
10
600.527560104
20
122.419988064
10
600.782172524
20
122.268562054
10
601.03574403
20
122.115399353
10
601.288262775
20
121.960507118
10
601.539716964
20
121.803892584
10
601.790094849
20
121.645563067
10
602.039384734
20
121.485525964
10
602.287574973
20
121.32378875
10
602.534653973
20
121.160358982
10
602.780610191
20
120.995244293
10
603.025432136
20
120.828452398
10
603.269108373
20
120.659991088
10
603.511627517
20
120.489868233
10
603.75297824
20
120.31809178
10
603.993149266
20
120.144669753
10
604.232129377
20
119.969610255
10
604.469907407
20
119.792921462
10
604.70647225
20
119.614611629
10
604.941812854
20
119.434689087
10
605.175918225
20
119.253162239
10
605.408777427
20
119.070039566
10
605.640379582
20
118.885329622
10
605.87071387
20
118.699041037
10
606.099769531
20
118.511182512
10
606.327535866
20
118.321762825
10
606.554002233
20
118.130790822
10
606.779158054
20
117.938275426
10
607.00299281
20
117.744225631
10
607.225496045
20
117.5486505
10
607.446657364
20
117.351559171
10
607.666466436
20
117.15296085
10
607.884912993
20
116.952864815
10
608.10198683
20
116.751280415
10
608.317677806
20
116.548217064
10
608.531975845
20
116.343684251
10
608.744870936
20
116.137691529
10
608.956353134
20
115.930248522
10
609.166412559
20
115.72136492
10
609.375039398
20
115.511050481
10
609.582223906
20
115.299315031
10
609.787956404
20
115.08616846
10
609.99222728
20
114.871620725
10
610.195026993
20
114.65568185
10
610.396346068
20
114.438361922
10
610.596175101
20
114.219671093
10
610.794504757
20
113.999619578
10
610.99132577
20
113.778217659
10
611.186628947
20
113.555475678
10
611.380405164
20
113.331404039
10
611.572645368
20
113.106013211
10
611.763340579
20
112.879313723
10
611.952481888
20
112.651316166
10
612.14006046
20
112.422031189
10
612.326067532
20
112.191469504
10
612.510494415
20
111.959641883
10
612.693332493
20
111.726559154
10
612.874573224
20
111.492232206
10
613.054208143
20
111.256671986
10
613.232228857
20
111.019889498
10
613.408627051
20
110.781895804
10
613.583394483
20
110.54270202
10
613.756522989
20
110.302319322
10
613.928004483
20
110.060758939
10
614.097830952
20
109.818032155
10
614.265994464
20
109.57415031
10
614.432487162
20
109.329124796
10
614.597301269
20
109.082967059
10
614.760429087
20
108.835688599
10
614.921862993
20
108.587300968
10
615.081595446
20
108.33781577
10
615.239618986
20
108.087244658
10
615.395926229
20
107.835599338
10
615.550509874
20
107.582891566
10
615.7033627
20
107.329133147
10
615.854477565
20
107.074335936
10
616.003847411
20
106.818511836
10
616.15146526
20
106.561672797
10
616.297324215
20
106.303830817
10
616.441417463
20
106.044997942
10
616.583738272
20
105.785186263
10
616.724279994
20
105.524407918
10
616.863036064
20
105.262675088
10
617
20
105
10
540.48502894
20
105
10
540.387799243
20
104.883482322
10
540.270237882
20
104.747196034
0
LWPOLYLINE
100
AcDbEntity
8
CUT_6MM
100
AcDbPolyline
90
5
70
1
10
548
20
107
10
554
20
107
10
554
20
113
10
548
20
113
10
548
20
107
0
LWPOLYLINE
100
AcDbEntity
8
CUT_6MM
100
AcDbPolyline
90
5
70
1
10
603
20
107
10
609
20
107
10
609
20
113
10
603
20
113
10
603
20
107
0
LWPOLYLINE
100
AcDbEntity
8
CUT_6MM
100
AcDbPolyline
90
147
70
1
10
555.01009076
20
121.398431706
10
554.86833437
20
121.306322122
10
557.10895581
20
117.872721161
10
557.237271658
20
117.956097433
10
557.365912479
20
118.038971425
10
557.494876307
20
118.121341873
10
557.624161171
20
118.203207516
10
557.753765094
20
118.284567103
10
557.883686097
20
118.365419392
10
558.013922194
20
118.445763145
10
558.144471393
20
118.525597136
10
558.2753317
20
118.604920143
10
558.406501115
20
118.683730956
10
558.537977632
20
118.762028368
10
558.669759243
20
118.839811184
10
558.801843934
20
118.917078215
10
558.934229685
20
118.99382828
10
559.066914473
20
119.070060205
10
559.199896271
20
119.145772826
10
559.333173046
20
119.220964986
10
559.46674276
20
119.295635534
10
559.600603373
20
119.369783331
10
559.734752839
20
119.443407243
10
559.869189107
20
119.516506144
10
560.003910123
20
119.589078917
10
560.138913827
20
119.661124454
10
560.274198157
20
119.732641653
10
560.409761044
20
119.80362942
10
560.545600416
20
119.874086672
10
560.681714199
20
119.94401233
10
560.818100311
20
120.013405327
10
560.954756667
20
120.082264602
10
561.09168118
20
120.150589103
10
561.228871756
20
120.218377784
10
561.366326298
20
120.285629611
10
561.504042707
20
120.352343555
10
561.642018877
20
120.418518597
10
561.780252698
20
120.484153724
10
561.91874206
20
120.549247935
10
562.057484844
20
120.613800234
10
562.196478931
20
120.677809635
10
562.335722195
20
120.741275159
10
562.47521251
20
120.804195836
10
562.614947743
20
120.866570705
10
562.754925758
20
120.928398812
10
562.895144415
20
120.989679213
10
563.035601573
20
121.050410971
10
563.176295084
20
121.110593157
10
563.317222798
20
121.170224851
10
563.45838256
20
121.229305143
10
563.599772214
20
121.28783313
10
563.741389599
20
121.345807917
10
563.88323255
20
121.403228617
10
564.025298899
20
121.460094353
10
564.167586475
20
121.516404257
10
564.310093103
20
121.572157467
10
564.452816605
20
121.627353131
10
564.595754801
20
121.681990407
10
564.738905504
20
121.736068457
10
564.882266528
20
121.789586457
10
565.025835681
20
121.842543589
10
565.169610769
20
121.894939042
10
565.313589595
20
121.946772016
10
565.457769958
20
121.998041719
10
565.602149654
20
122.048747368
10
565.746726478
20
122.098888186
10
565.891498218
20
122.148463409
10
566.036462663
20
122.197472278
10
566.181617597
20
122.245914044
10
566.326960801
20
122.293787967
10
566.472490054
20
122.341093316
10
566.618203132
20
122.387829366
10
566.764097808
20
122.433995404
10
566.910171851
20
122.479590725
10
567.056423031
20
122.524614631
10
565.857756725
20
126.445481766
10
565.696186353
20
126.395741796
10
565.534811671
20
126.345370558
10
565.373635145
20
126.294368822
10
565.212659238
20
126.242737368
10
565.051886411
20
126.190476985
10
564.89131912
20
126.137588471
10
564.730959821
20
126.084072634
10
564.570810964
20
126.029930294
10
564.410874995
20
125.975162276
10
564.251154361
20
125.919769419
10
564.091651502
20
125.863752568
10
563.932368856
20
125.80711258
10
563.773308857
20
125.749850321
10
563.614473936
20
125.691966666
10
563.455866521
20
125.633462499
10
563.297489036
20
125.574338714
10
563.139343901
20
125.514596216
10
562.981433534
20
125.454235917
10
562.823760349
20
125.393258741
10
562.666326754
20
125.331665617
10
562.509135156
20
125.26945749
10
562.352187957
20
125.206635308
10
562.195487557
20
125.143200032
10
562.03903635
20
125.079152632
10
561.882836727
20
125.014494086
10
561.726891077
20
124.949225383
10
561.571201781
20
124.88334752
10
561.415771219
20
124.816861505
10
561.260601768
20
124.749768352
10
561.105695799
20
124.682069089
10
560.951055679
20
124.613764749
10
560.796683771
20
124.544856376
10
560.642582436
20
124.475345024
10
560.488754028
20
124.405231754
10
560.335200898
20
124.33451764
10
560.181925394
20
124.26320376
10
560.028929858
20
124.191291206
10
559.876216627
20
124.118781076
10
559.723788037
20
124.045674479
10
559.571646417
20
123.971972531
10
559.419794092
20
123.89767636
10
559.268233383
20
123.8227871
10
559.116966607
20
123.747305897
10
558.965996075
20
123.671233905
10
558.815324095
20
123.594572284
10
558.664952969
20
123.517322209
10
558.514884996
20
123.439484858
10
558.36512247
20
123.361061422
10
558.215667679
20
123.282053099
10
558.066522907
20
123.202461097
10
557.917690435
20
123.122286633
10
557.769172536
20
123.041530931
10
557.620971481
20
122.960195226
10
557.473089535
20
122.878280761
10
557.325528957
20
122.795788788
10
557.178292004
20
122.712720567
10
557.031380925
20
122.629077369
10
556.884797966
20
122.544860472
10
556.738545367
20
122.460071163
10
556.592625364
20
122.374710737
10
556.447040186
20
122.2887805
10
556.301792059
20
122.202281764
10
556.156883203
20
122.115215852
10
556.012315832
20
122.027584095
10
555.868092156
20
121.939387831
10
555.724214379
20
121.850628409
10
555.580684701
20
121.761307186
10
555.437505314
20
121.671425526
10
555.294678407
20
121.580984803
10
555.152206163
20
121.489986399
10
555.01009076
20
121.398431706
0
LWPOLYLINE
100
AcDbEntity
8
CUT_6MM
100
AcDbPolyline
90
147
70
1
10
591.465188329
20
126.345370558
10
591.303813647
20
126.395741796
10
591.142243275
20
126.445481766
10
589.943576969
20
122.524614631
10
590.089828149
20
122.479590725
10
590.235902192
20
122.433995404
10
590.381796868
20
122.387829366
10
590.527509946
20
122.341093316
10
590.673039199
20
122.293787967
10
590.818382403
20
122.245914044
10
590.963537337
20
122.197472278
10
591.108501782
20
122.148463409
10
591.253273522
20
122.098888186
10
591.397850346
20
122.048747368
10
591.542230042
20
121.998041719
10
591.686410405
20
121.946772016
10
591.830389231
20
121.894939042
10
591.974164319
20
121.842543589
10
592.117733472
20
121.789586457
10
592.261094496
20
121.736068457
10
592.404245199
20
121.681990407
10
592.547183395
20
121.627353131
10
592.689906897
20
121.572157467
10
592.832413525
20
121.516404257
10
592.974701101
20
121.460094353
10
593.11676745
20
121.403228617
10
593.258610401
20
121.345807917
10
593.400227786
20
121.28783313
10
593.54161744
20
121.229305143
10
593.682777202
20
121.170224851
10
593.823704916
20
121.110593157
10
593.964398427
20
121.050410971
10
594.104855585
20
120.989679213
10
594.245074242
20
120.928398812
10
594.385052257
20
120.866570705
10
594.52478749
20
120.804195836
10
594.664277805
20
120.741275159
10
594.803521069
20
120.677809635
10
594.942515156
20
120.613800234
10
595.08125794
20
120.549247935
10
595.219747302
20
120.484153724
10
595.357981123
20
120.418518597
10
595.495957293
20
120.352343555
10
595.633673702
20
120.285629611
10
595.771128244
20
120.218377784
10
595.90831882
20
120.150589103
10
596.045243333
20
120.082264602
10
596.181899689
20
120.013405327
10
596.318285801
20
119.94401233
10
596.454399584
20
119.874086672
10
596.590238956
20
119.80362942
10
596.725801843
20
119.732641653
10
596.861086173
20
119.661124454
10
596.996089877
20
119.589078917
10
597.130810893
20
119.516506144
10
597.265247161
20
119.443407243
10
597.399396627
20
119.369783331
10
597.53325724
20
119.295635534
10
597.666826954
20
119.220964986
10
597.800103729
20
119.145772826
10
597.933085527
20
119.070060205
10
598.065770315
20
118.99382828
10
598.198156066
20
118.917078215
10
598.330240757
20
118.839811184
10
598.462022368
20
118.762028368
10
598.593498885
20
118.683730956
10
598.7246683
20
118.604920143
10
598.855528607
20
118.525597136
10
598.986077806
20
118.445763145
10
599.116313903
20
118.365419392
10
599.246234906
20
118.284567103
10
599.375838829
20
118.203207516
10
599.505123693
20
118.121341873
10
599.634087521
20
118.038971425
10
599.762728342
20
117.956097433
10
599.89104419
20
117.872721161
10
602.13166563
20
121.306322122
10
601.98990924
20
121.398431706
10
601.847793837
20
121.489986399
10
601.705321593
20
121.580984803
10
601.562494686
20
121.671425526
10
601.419315299
20
121.761307186
10
601.275785621
20
121.850628409
10
601.131907844
20
121.939387831
10
600.987684168
20
122.027584095
10
600.843116797
20
122.115215852
10
600.698207941
20
122.202281764
10
600.552959814
20
122.2887805
10
600.407374636
20
122.374710737
10
600.261454633
20
122.460071163
10
600.115202034
20
122.544860472
10
599.968619075
20
122.629077369
10
599.821707996
20
122.712720567
10
599.674471043
20
122.795788788
10
599.526910465
20
122.878280761
10
599.379028519
20
122.960195226
10
599.230827464
20
123.041530931
10
599.082309565
20
123.122286633
10
598.933477093
20
123.202461097
10
598.784332321
20
123.282053099
10
598.63487753
20
123.361061422
10
598.485115004
20
123.439484858
10
598.335047031
20
123.517322209
10
598.184675905
20
123.594572284
10
598.034003925
20
123.671233905
10
597.883033393
20
123.747305897
10
597.731766617
20
123.8227871
10
597.580205908
20
123.89767636
10
597.428353583
20
123.971972531
10
597.276211963
20
124.045674479
10
597.123783373
20
124.118781076
10
596.971070142
20
124.191291206
10
596.818074606
20
124.26320376
10
596.664799102
20
124.33451764
10
596.511245972
20
124.405231754
10
596.357417564
20
124.475345024
10
596.203316229
20
124.544856376
10
596.048944321
20
124.613764749
10
595.894304201
20
124.682069089
10
595.739398232
20
124.749768352
10
595.584228781
20
124.816861505
10
595.428798219
20
124.88334752
10
595.273108923
20
124.949225383
10
595.117163273
20
125.014494086
10
594.96096365
20
125.079152632
10
594.804512443
20
125.143200032
10
594.647812043
20
125.206635308
10
594.490864844
20
125.26945749
10
594.333673246
20
125.331665617
10
594.176239651
20
125.393258741
10
594.018566466
20
125.454235917
10
593.860656099
20
125.514596216
10
593.702510964
20
125.574338714
10
593.544133479
20
125.633462499
10
593.385526064
20
125.691966666
10
593.226691143
20
125.749850321
10
593.067631144
20
125.80711258
10
592.908348498
20
125.863752568
10
592.748845639
20
125.919769419
10
592.589125005
20
125.975162276
10
592.429189036
20
126.029930294
10
592.269040179
20
126.084072634
10
592.10868088
20
126.137588471
10
591.948113589
20
126.190476985
10
591.787340762
20
126.242737368
10
591.626364855
20
126.294368822
10
591.465188329
20
126.345370558
0
LWPOLYLINE
100
AcDbEntity
8
CUT_6MM
100
AcDbPolyline
90
147
70
1
10
572.769091423
20
127.953341977
10
572.601573363
20
127.930609859
10
572.434145453
20
127.907223014
10
573.009275618
20
123.847761807
10
573.160828957
20
123.868931243
10
573.312463898
20
123.88950803
10
573.464178124
20
123.909491854
10
573.615969315
20
123.928882409
10
573.767835153
20
123.947679399
10
573.919773316
20
123.965882536
10
574.071781481
20
123.983491543
10
574.223857326
20
124.00050615
10
574.375998527
20
124.016926098
10
574.528202757
20
124.032751134
10
574.680467691
20
124.047981018
10
574.832791002
20
124.062615517
10
574.985170361
20
124.076654407
10
575.137603439
20
124.090097473
10
575.290087908
20
124.10294451
10
575.442621436
20
124.115195321
10
575.595201692
20
124.12684972
10
575.747826344
20
124.137907528
10
575.900493059
20
124.148368577
10
576.053199504
20
124.158232705
10
576.205943346
20
124.167499763
10
576.358722249
20
124.17616961
10
576.511533879
20
124.184242111
10
576.6643759
20
124.191717145
10
576.817245976
20
124.198594596
10
576.970141771
20
124.204874361
10
577.123060948
20
124.210556341
10
577.276001169
20
124.215640452
10
577.428960098
20
124.220126615
10
577.581935396
20
124.224014762
10
577.734924725
20
124.227304832
10
577.887925748
20
124.229996777
10
578.040936125
20
124.232090554
10
578.193953519
20
124.233586132
10
578.34697559
20
124.234483488
10
578.5
20
124.234782609
10
578.65302441
20
124.234483488
10
578.806046481
20
124.233586132
10
578.959063875
20
124.232090554
10
579.112074252
20
124.229996777
10
579.265075275
20
124.227304832
10
579.418064604
20
124.224014762
10
579.571039902
20
124.220126615
10
579.723998831
20
124.215640452
10
579.876939052
20
124.210556341
10
580.029858229
20
124.204874361
10
580.182754024
20
124.198594596
10
580.3356241
20
124.191717145
10
580.488466121
20
124.184242111
10
580.641277751
20
124.17616961
10
580.794056654
20
124.167499763
10
580.946800496
20
124.158232705
10
581.099506941
20
124.148368577
10
581.252173656
20
124.137907528
10
581.404798308
20
124.12684972
10
581.557378564
20
124.115195321
10
581.709912092
20
124.10294451
10
581.862396561
20
124.090097473
10
582.014829639
20
124.076654407
10
582.167208998
20
124.062615517
10
582.319532309
20
124.047981018
10
582.471797243
20
124.032751134
10
582.624001473
20
124.016926098
10
582.776142674
20
124.00050615
10
582.928218519
20
123.983491543
10
583.080226684
20
123.965882536
10
583.232164847
20
123.947679399
10
583.384030685
20
123.928882409
10
583.535821876
20
123.909491854
10
583.687536102
20
123.88950803
10
583.839171043
20
123.868931243
10
583.990724382
20
123.847761807
10
584.565854547
20
127.907223014
10
584.398426637
20
127.930609859
10
584.230908577
20
127.953341977
10
584.063302927
20
127.975419022
10
583.89561225
20
127.996840656
10
583.727839108
20
128.017606551
10
583.559986065
20
128.03771639
10
583.392055687
20
128.057169866
10
583.22405054
20
128.075966682
10
583.055973192
20
128.094106549
10
582.887826212
20
128.111589191
10
582.71961217
20
128.128414341
10
582.551333637
20
128.144581742
10
582.382993184
20
128.160091146
10
582.214593385
20
128.174942316
10
582.046136813
20
128.189135026
10
581.877626043
20
128.202669058
10
581.70906365
20
128.215544206
10
581.540452211
20
128.227760273
10
581.371794303
20
128.239317072
10
581.203092503
20
128.250214426
10
581.03434939
20
128.26045217
10
580.865567542
20
128.270030146
10
580.69674954
20
128.278948208
10
580.527897964
20
128.28720622
10
580.359015393
20
128.294804055
10
580.190104411
20
128.301741598
10
580.021167597
20
128.308018742
10
579.852207534
20
128.313635392
10
579.683226804
20
128.318591462
10
579.51422799
20
128.322886875
10
579.345213675
20
128.326521567
10
579.176186442
20
128.329495481
10
579.007148875
20
128.331808573
10
578.838103556
20
128.333460807
10
578.66905307
20
128.334452157
10
578.5
20
128.334782609
10
578.33094693
20
128.334452157
10
578.161896444
20
128.333460807
10
577.992851125
20
128.331808573
10
577.823813558
20
128.329495481
10
577.654786325
20
128.326521567
10
577.48577201
20
128.322886875
10
577.316773196
20
128.318591462
10
577.147792466
20
128.313635392
10
576.978832403
20
128.308018742
10
576.809895589
20
128.301741598
10
576.640984607
20
128.294804055
10
576.472102036
20
128.28720622
10
576.30325046
20
128.278948208
10
576.134432458
20
128.270030146
10
575.96565061
20
128.26045217
10
575.796907497
20
128.250214426
10
575.628205697
20
128.239317072
10
575.459547789
20
128.227760273
10
575.29093635
20
128.215544206
10
575.122373957
20
128.202669058
10
574.953863187
20
128.189135026
10
574.785406615
20
128.174942316
10
574.617006816
20
128.160091146
10
574.448666363
20
128.144581742
10
574.28038783
20
128.128414341
10
574.112173788
20
128.111589191
10
573.944026808
20
128.094106549
10
573.77594946
20
128.075966682
10
573.607944313
20
128.057169866
10
573.440013935
20
128.03771639
10
573.272160892
20
128.017606551
10
573.10438775
20
127.996840656
10
572.936697073
20
127.975419022
10
572.769091423
20
127.953341977
0
LWPOLYLINE
100
AcDbEntity
8
CUT_6MM
100
AcDbPolyline
90
330
70
1
10
650.136963936
20
105.262675088
10
650.275720006
20
105.524407918
10
650.416261728
20
105.785186263
10
650.558582537
20
106.044997942
10
650.702675785
20
106.303830817
10
650.84853474
20
106.561672797
10
650.996152589
20
106.818511836
10
651.145522435
20
107.074335936
10
651.2966373
20
107.329133147
10
651.449490126
20
107.582891566
10
651.604073771
20
107.835599338
10
651.760381014
20
108.087244658
10
651.918404554
20
108.33781577
10
652.078137007
20
108.587300968
10
652.239570913
20
108.835688599
10
652.402698731
20
109.082967059
10
652.567512838
20
109.329124796
10
652.734005536
20
109.57415031
10
652.902169048
20
109.818032155
10
653.071995517
20
110.060758939
10
653.243477011
20
110.302319322
10
653.416605517
20
110.54270202
10
653.591372949
20
110.781895804
10
653.767771143
20
111.019889498
10
653.945791857
20
111.256671986
10
654.125426776
20
111.492232206
10
654.306667507
20
111.726559154
10
654.489505585
20
111.959641883
10
654.673932468
20
112.191469504
10
654.85993954
20
112.422031189
10
655.047518112
20
112.651316166
10
655.236659421
20
112.879313723
10
655.427354632
20
113.106013211
10
655.619594836
20
113.331404039
10
655.813371053
20
113.555475678
10
656.00867423
20
113.778217659
10
656.205495243
20
113.999619578
10
656.403824899
20
114.219671093
10
656.603653932
20
114.438361922
10
656.804973007
20
114.65568185
10
657.00777272
20
114.871620725
10
657.212043596
20
115.08616846
10
657.417776094
20
115.299315031
10
657.624960602
20
115.511050481
10
657.833587441
20
115.72136492
10
658.043646866
20
115.930248522
10
658.255129064
20
116.137691529
10
658.468024155
20
116.343684251
10
658.682322194
20
116.548217064
10
658.89801317
20
116.751280415
10
659.115087007
20
116.952864815
10
659.333533564
20
117.15296085
10
659.553342636
20
117.351559171
10
659.774503955
20
117.5486505
10
659.99700719
20
117.744225631
10
660.220841946
20
117.938275426
10
660.445997767
20
118.130790822
10
660.672464134
20
118.321762825
10
660.900230469
20
118.511182512
10
661.12928613
20
118.699041037
10
661.359620418
20
118.885329622
10
661.591222573
20
119.070039566
10
661.824081775
20
119.253162239
10
662.058187146
20
119.434689087
10
662.29352775
20
119.614611629
10
662.530092593
20
119.792921462
10
662.767870623
20
119.969610255
10
663.006850734
20
120.144669753
10
663.24702176
20
120.31809178
10
663.488372483
20
120.489868233
10
663.730891627
20
120.659991088
10
663.974567864
20
120.828452398
10
664.219389809
20
120.995244293
10
664.465346027
20
121.160358982
10
664.712425027
20
121.32378875
10
664.960615266
20
121.485525964
10
665.209905151
20
121.645563067
10
665.460283036
20
121.803892584
10
665.711737225
20
121.960507118
10
665.96425597
20
122.115399353
10
666.217827476
20
122.268562054
10
666.472439896
20
122.419988064
10
666.728081337
20
122.569670311
10
666.984739856
20
122.717601801
10
667.242403464
20
122.863775625
10
667.501060122
20
123.008184953
10
667.76069775
20
123.15082304
10
668.021304216
20
123.291683222
10
668.282867348
20
123.430758918
10
668.545374926
20
123.568043633
10
668.808814686
20
123.703530952
10
669.073174324
20
123.837214547
10
669.338441488
20
123.969088172
10
669.604603786
20
124.099145667
10
669.871648786
20
124.227380956
10
670.139564012
20
124.353788049
10
670.408336948
20
124.47836104
10
670.677955039
20
124.60109411
10
670.948405688
20
124.721981526
10
671.219676263
20
124.84101764
10
671.491754091
20
124.958196891
10
671.764626461
20
125.073513806
10
672.038280626
20
125.186962997
10
672.312703803
20
125.298539165
10
672.587883172
20
125.408237098
10
672.863805877
20
125.51605167
10
673.140459029
20
125.621977845
10
673.417829705
20
125.726010675
10
673.695904946
20
125.8281453
10
673.974671762
20
125.928376949
10
674.254117131
20
126.026700939
10
674.534227998
20
126.123112677
10
674.814991279
20
126.21760766
10
675.096393856
20
126.310181472
10
675.378422584
20
126.40082979
10
675.661064289
20
126.489548378
10
675.944305767
20
126.576333093
10
676.228133785
20
126.661179879
10
676.512535086
20
126.744084774
10
676.797496382
20
126.825043905
10
677.083004363
20
126.904053488
10
677.36904569
20
126.981109835
10
677.655607001
20
127.056209344
10
677.942674909
20
127.129348508
10
678.230236004
20
127.200523909
10
678.518276853
20
127.269732223
10
678.806783999
20
127.336970217
10
679.095743965
20
127.40223475
10
679.385143252
20
127.465522773
10
679.674968341
20
127.526831329
10
679.965205693
20
127.586157554
10
680.255841749
20
127.643498678
10
680.546862931
20
127.69885202
10
680.838255646
20
127.752214996
10
681.13000628
20
127.803585113
10
681.422101204
20
127.85295997
10
681.714526773
20
127.900337261
10
682.007269326
20
127.945714774
10
682.300315189
20
127.989090387
10
682.59365067
20
128.030462076
10
682.887262068
20
128.069827906
10
683.181135665
20
128.10718604
10
683.475257733
20
128.142534732
10
683.769614533
20
128.17587233
10
684.064192314
20
128.207197278
10
684.358977314
20
128.236508112
10
684.653955763
20
128.263803462
10
684.94911388
20
128.289082054
10
685.244437877
20
128.312342707
10
685.539913958
20
128.333584334
10
685.83552832
20
128.352805942
10
686.131267153
20
128.370006635
10
686.427116642
20
128.385185607
10
686.723062966
20
128.398342151
10
687.0190923
20
128.409475652
10
687.315190814
20
128.418585589
10
687.611344677
20
128.425671537
10
687.907540054
20
128.430733165
10
688.203763108
20
128.433770236
10
688.5
20
128.434782609
10
688.796236892
20
128.433770236
10
689.092459946
20
128.430733165
10
689.388655323
20
128.425671537
10
689.684809186
20
128.418585589
10
689.9809077
20
128.409475652
10
690.276937034
20
128.398342151
10
690.572883358
20
128.385185607
10
690.868732847
20
128.370006635
10
691.16447168
20
128.352805942
10
691.460086042
20
128.333584334
10
691.755562123
20
128.312342707
10
692.05088612
20
128.289082054
10
692.346044237
20
128.263803462
10
692.641022686
20
128.236508112
10
692.935807686
20
128.207197278
10
693.230385467
20
128.17587233
10
693.524742267
20
128.142534732
10
693.818864335
20
128.10718604
10
694.112737932
20
128.069827906
10
694.40634933
20
128.030462076
10
694.699684811
20
127.989090387
10
694.992730674
20
127.945714774
10
695.285473227
20
127.900337261
10
695.577898796
20
127.85295997
10
695.86999372
20
127.803585113
10
696.161744354
20
127.752214996
10
696.453137069
20
127.69885202
10
696.744158251
20
127.643498678
10
697.034794307
20
127.586157554
10
697.325031659
20
127.526831329
10
697.614856748
20
127.465522773
10
697.904256035
20
127.40223475
10
698.193216001
20
127.336970217
10
698.481723147
20
127.269732223
10
698.769763996
20
127.200523909
10
699.057325091
20
127.129348508
10
699.344392999
20
127.056209344
10
699.63095431
20
126.981109835
10
699.916995637
20
126.904053488
10
700.202503618
20
126.825043905
10
700.487464914
20
126.744084774
10
700.771866215
20
126.661179879
10
701.055694233
20
126.576333093
10
701.338935711
20
126.489548378
10
701.621577416
20
126.40082979
10
701.903606144
20
126.310181472
10
702.185008721
20
126.21760766
10
702.465772002
20
126.123112677
10
702.745882869
20
126.026700939
10
703.025328238
20
125.928376949
10
703.304095054
20
125.8281453
10
703.582170295
20
125.726010675
10
703.859540971
20
125.621977845
10
704.136194123
20
125.51605167
10
704.412116828
20
125.408237098
10
704.687296197
20
125.298539165
10
704.961719374
20
125.186962997
10
705.235373539
20
125.073513806
10
705.508245909
20
124.958196891
10
705.780323737
20
124.84101764
10
706.051594312
20
124.721981526
10
706.322044961
20
124.60109411
10
706.591663052
20
124.47836104
10
706.860435988
20
124.353788049
10
707.128351214
20
124.227380956
10
707.395396214
20
124.099145667
10
707.661558512
20
123.969088172
10
707.926825676
20
123.837214547
10
708.191185314
20
123.703530952
10
708.454625074
20
123.568043633
10
708.717132652
20
123.430758918
10
708.978695784
20
123.291683222
10
709.23930225
20
123.15082304
10
709.498939878
20
123.008184953
10
709.757596536
20
122.863775625
10
710.015260144
20
122.717601801
10
710.271918663
20
122.569670311
10
710.527560104
20
122.419988064
10
710.782172524
20
122.268562054
10
711.03574403
20
122.115399353
10
711.288262775
20
121.960507118
10
711.539716964
20
121.803892584
10
711.790094849
20
121.645563067
10
712.039384734
20
121.485525964
10
712.287574973
20
121.32378875
10
712.534653973
20
121.160358982
10
712.780610191
20
120.995244293
10
713.025432136
20
120.828452398
10
713.269108373
20
120.659991088
10
713.511627517
20
120.489868233
10
713.75297824
20
120.31809178
10
713.993149266
20
120.144669753
10
714.232129377
20
119.969610255
10
714.469907407
20
119.792921462
10
714.70647225
20
119.614611629
10
714.941812854
20
119.434689087
10
715.175918225
20
119.253162239
10
715.408777427
20
119.070039566
10
715.640379582
20
118.885329622
10
715.87071387
20
118.699041037
10
716.099769531
20
118.511182512
10
716.327535866
20
118.321762825
10
716.554002233
20
118.130790822
10
716.779158054
20
117.938275426
10
717.00299281
20
117.744225631
10
717.225496045
20
117.5486505
10
717.446657364
20
117.351559171
10
717.666466436
20
117.15296085
10
717.884912993
20
116.952864815
10
718.10198683
20
116.751280415
10
718.317677806
20
116.548217064
10
718.531975845
20
116.343684251
10
718.744870936
20
116.137691529
10
718.956353134
20
115.930248522
10
719.166412559
20
115.72136492
10
719.375039398
20
115.511050481
10
719.582223906
20
115.299315031
10
719.787956404
20
115.08616846
10
719.99222728
20
114.871620725
10
720.195026993
20
114.65568185
10
720.396346068
20
114.438361922
10
720.596175101
20
114.219671093
10
720.794504757
20
113.999619578
10
720.99132577
20
113.778217659
10
721.186628947
20
113.555475678
10
721.380405164
20
113.331404039
10
721.572645368
20
113.106013211
10
721.763340579
20
112.879313723
10
721.952481888
20
112.651316166
10
722.14006046
20
112.422031189
10
722.326067532
20
112.191469504
10
722.510494415
20
111.959641883
10
722.693332493
20
111.726559154
10
722.874573224
20
111.492232206
10
723.054208143
20
111.256671986
10
723.232228857
20
111.019889498
10
723.408627051
20
110.781895804
10
723.583394483
20
110.54270202
10
723.756522989
20
110.302319322
10
723.928004483
20
110.060758939
10
724.097830952
20
109.818032155
10
724.265994464
20
109.57415031
10
724.432487162
20
109.329124796
10
724.597301269
20
109.082967059
10
724.760429087
20
108.835688599
10
724.921862993
20
108.587300968
10
725.081595446
20
108.33781577
10
725.239618986
20
108.087244658
10
725.395926229
20
107.835599338
10
725.550509874
20
107.582891566
10
725.7033627
20
107.329133147
10
725.854477565
20
107.074335936
10
726.003847411
20
106.818511836
10
726.15146526
20
106.561672797
10
726.297324215
20
106.303830817
10
726.441417463
20
106.044997942
10
726.583738272
20
105.785186263
10
726.724279994
20
105.524407918
10
726.863036064
20
105.262675088
10
727
20
105
10
719
20
105
10
719
20
110
10
713
20
110
10
713
20
105
10
664
20
105
10
664
20
110
10
658
20
110
10
658
20
105
10
650
20
105
10
650.136963936
20
105.262675088
0
LWPOLYLINE
100
AcDbEntity
8
CUT_6MM
100
AcDbPolyline
90
579
70
1
10
540.270237882
20
194.747196034
10
540.150462379
20
194.612851497
10
540.0285048
20
194.480484678
10
539.904397796
20
194.350131015
10
539.778174593
20
194.221825407
10
539.649868985
20
194.095602204
10
539.519515322
20
193.9714952
10
539.387148503
20
193.849537621
10
539.252803966
20
193.729762118
10
539.116517678
20
193.612200757
10
538.978326126
20
193.496885013
10
538.838266307
20
193.383845758
10
538.696375719
20
193.273113257
10
538.552692349
20
193.164717154
10
538.407254666
20
193.058686469
10
538.260101605
20
192.955049591
10
538.111272563
20
192.853834265
10
537.960807386
20
192.755067588
10
537.808746357
20
192.658776003
10
537.655130186
20
192.56498529
10
537.5
20
192.473720558
10
537.343397331
20
192.385006242
10
537.185364105
20
192.298866092
10
537.025942632
20
192.21532317
10
536.865175592
20
192.134399843
10
536.703106028
20
192.056117776
10
536.539777328
20
191.980497926
10
536.37523322
20
191.907560539
10
536.209517756
20
191.837325142
10
536.042675303
20
191.769810539
10
535.874750527
20
191.705034806
10
535.705788387
20
191.643015283
10
535.535834118
20
191.583768576
10
535.364933221
20
191.527310545
10
535.19313145
20
191.473656307
10
535.0204748
20
191.422820225
10
534.847009496
20
191.374815911
10
534.672781979
20
191.329656215
10
534.497838893
20
191.287353228
10
534.322227076
20
191.247918276
10
534.145993542
20
191.211361916
10
533.969185474
20
191.177693935
10
533.791850207
20
191.146923347
10
533.614035219
20
191.11905839
10
533.435788114
20
191.094106525
10
533.257156615
20
191.072074431
10
533.078188544
20
191.052968007
10
532.898931815
20
191.036792368
10
532.719434422
20
191.023551844
10
532.539744418
20
191.013249982
10
532.359909911
20
191.005889538
10
532.179979048
20
191.001472483
10
532
20
191
10
531.820020952
20
191.001472483
10
531.640090089
20
191.005889538
10
531.460255582
20
191.013249982
10
531.280565578
20
191.023551844
10
531.101068185
20
191.036792368
10
530.921811456
20
191.052968007
10
530.742843385
20
191.072074431
10
530.564211886
20
191.094106525
10
530.385964781
20
191.11905839
10
530.208149793
20
191.146923347
10
530.030814526
20
191.177693935
10
529.854006458
20
191.211361916
10
529.677772924
20
191.247918276
10
529.502161107
20
191.287353228
10
529.327218021
20
191.329656215
10
529.152990504
20
191.374815911
10
528.9795252
20
191.422820225
10
528.80686855
20
191.473656307
10
528.635066779
20
191.527310545
10
528.464165882
20
191.583768576
10
528.294211613
20
191.643015283
10
528.125249473
20
191.705034806
10
527.957324697
20
191.769810539
10
527.790482244
20
191.837325142
10
527.62476678
20
191.907560539
10
527.460222672
20
191.980497926
10
527.296893972
20
192.056117776
10
527.134824408
20
192.134399843
10
526.974057368
20
192.21532317
10
526.814635895
20
192.298866092
10
526.656602669
20
192.385006242
10
526.5
20
192.473720558
10
526.344869814
20
192.56498529
10
526.191253643
20
192.658776003
10
526.039192614
20
192.755067588
10
525.888727437
20
192.853834265
10
525.739898395
20
192.955049591
10
525.592745334
20
193.058686469
10
525.447307651
20
193.164717154
10
525.303624281
20
193.273113257
10
525.161733693
20
193.383845758
10
525.021673874
20
193.496885013
10
524.883482322
20
193.612200757
10
524.747196034
20
193.729762118
10
524.612851497
20
193.849537621
10
524.480484678
20
193.9714952
10
524.350131015
20
194.095602204
10
524.221825407
20
194.221825407
10
524.095602204
20
194.350131015
10
523.9714952
20
194.480484678
10
523.849537621
20
194.612851497
10
523.729762118
20
194.747196034
10
523.612200757
20
194.883482322
10
523.496885013
20
195.021673874
10
523.383845758
20
195.161733693
10
523.273113257
20
195.303624281
10
523.164717154
20
195.447307651
10
523.058686469
20
195.592745334
10
522.955049591
20
195.739898395
10
522.853834265
20
195.888727437
10
522.755067588
20
196.039192614
10
522.658776003
20
196.191253643
10
522.56498529
20
196.344869814
10
522.473720558
20
196.5
10
522.385006242
20
196.656602669
10
522.298866092
20
196.814635895
10
522.21532317
20
196.974057368
10
522.134399843
20
197.134824408
10
522.056117776
20
197.296893972
10
521.980497926
20
197.460222672
10
521.907560539
20
197.62476678
10
521.837325142
20
197.790482244
10
521.769810539
20
197.957324697
10
521.705034806
20
198.125249473
10
521.643015283
20
198.294211613
10
521.583768576
20
198.464165882
10
521.527310545
20
198.635066779
10
521.473656307
20
198.80686855
10
521.422820225
20
198.9795252
10
521.374815911
20
199.152990504
10
521.329656215
20
199.327218021
10
521.287353228
20
199.502161107
10
521.247918276
20
199.677772924
10
521.211361916
20
199.854006458
10
521.177693935
20
200.030814526
10
521.146923347
20
200.208149793
10
521.11905839
20
200.385964781
10
521.094106525
20
200.564211886
10
521.072074431
20
200.742843385
10
521.052968007
20
200.921811456
10
521.036792368
20
201.101068185
10
521.023551844
20
201.280565578
10
521.013249982
20
201.460255582
10
521.005889538
20
201.640090089
10
521.001472483
20
201.820020952
10
521
20
202
10
521.001472483
20
202.179979048
10
521.005889538
20
202.359909911
10
521.013249982
20
202.539744418
10
521.023551844
20
202.719434422
10
521.036792368
20
202.898931815
10
521.052968007
20
203.078188544
10
521.072074431
20
203.257156615
10
521.094106525
20
203.435788114
10
521.11905839
20
203.614035219
10
521.146923347
20
203.791850207
10
521.177693935
20
203.969185474
10
521.211361916
20
204.145993542
10
521.247918276
20
204.322227076
10
521.287353228
20
204.497838893
10
521.329656215
20
204.672781979
10
521.374815911
20
204.847009496
10
521.422820225
20
205.0204748
10
521.473656307
20
205.19313145
10
521.527310545
20
205.364933221
10
521.583768576
20
205.535834118
10
521.643015283
20
205.705788387
10
521.705034806
20
205.874750527
10
521.769810539
20
206.042675303
10
521.837325142
20
206.209517756
10
521.907560539
20
206.37523322
10
521.980497926
20
206.539777328
10
522.056117776
20
206.703106028
10
522.134399843
20
206.865175592
10
522.21532317
20
207.025942632
10
522.298866092
20
207.185364105
10
522.385006242
20
207.343397331
10
522.473720558
20
207.5
10
522.56498529
20
207.655130186
10
522.658776003
20
207.808746357
10
522.755067588
20
207.960807386
10
522.853834265
20
208.111272563
10
522.955049591
20
208.260101605
10
523.058686469
20
208.407254666
10
523.164717154
20
208.552692349
10
523.273113257
20
208.696375719
10
523.383845758
20
208.838266307
10
523.496885013
20
208.978326126
10
523.612200757
20
209.116517678
10
523.729762118
20
209.252803966
10
523.849537621
20
209.387148503
10
523.9714952
20
209.519515322
10
524.095602204
20
209.649868985
10
524.221825407
20
209.778174593
10
524.350131015
20
209.904397796
10
524.480484678
20
210.0285048
10
524.612851497
20
210.150462379
10
524.747196034
20
210.270237882
10
524.883482322
20
210.387799243
10
525.021673874
20
210.503114987
10
525.161733693
20
210.616154242
10
525.303624281
20
210.726886743
10
525.447307651
20
210.835282846
10
525.592745334
20
210.941313531
10
525.739898395
20
211.044950409
10
525.888727437
20
211.146165735
10
526.039192614
20
211.244932412
10
526.191253643
20
211.341223997
10
526.344869814
20
211.43501471
10
526.5
20
211.526279442
10
526.656602669
20
211.614993758
10
526.814635895
20
211.701133908
10
526.974057368
20
211.78467683
10
527.134824408
20
211.865600157
10
527.296893972
20
211.943882224
10
527.460222672
20
212.019502074
10
527.62476678
20
212.092439461
10
527.790482244
20
212.162674858
10
527.957324697
20
212.230189461
10
528.125249473
20
212.294965194
10
528.294211613
20
212.356984717
10
528.464165882
20
212.416231424
10
528.635066779
20
212.472689455
10
528.80686855
20
212.526343693
10
528.9795252
20
212.577179775
10
529.152990504
20
212.625184089
10
529.327218021
20
212.670343785
10
529.502161107
20
212.712646772
10
529.677772924
20
212.752081724
10
529.854006458
20
212.788638084
10
530.030814526
20
212.822306065
10
530.208149793
20
212.853076653
10
530.385964781
20
212.88094161
10
530.564211886
20
212.905893475
10
530.742843385
20
212.927925569
10
530.921811456
20
212.947031993
10
531.101068185
20
212.963207632
10
531.280565578
20
212.976448156
10
531.460255582
20
212.986750018
10
531.640090089
20
212.994110462
10
531.820020952
20
212.998527517
10
532
20
213
10
532.179979048
20
212.998527517
10
532.359909911
20
212.994110462
10
532.539744418
20
212.986750018
10
532.719434422
20
212.976448156
10
532.898931815
20
212.963207632
10
533.078188544
20
212.947031993
10
533.257156615
20
212.927925569
10
533.435788114
20
212.905893475
10
533.614035219
20
212.88094161
10
533.791850207
20
212.853076653
10
533.969185474
20
212.822306065
10
534.145993542
20
212.788638084
10
534.322227076
20
212.752081724
10
534.497838893
20
212.712646772
10
534.672781979
20
212.670343785
10
534.847009496
20
212.625184089
10
535.0204748
20
212.577179775
10
535.19313145
20
212.526343693
10
535.364933221
20
212.472689455
10
535.535834118
20
212.416231424
10
535.705788387
20
212.356984717
10
535.874750527
20
212.294965194
10
536.042675303
20
212.230189461
10
536.209517756
20
212.162674858
10
536.37523322
20
212.092439461
10
536.539777328
20
212.019502074
10
536.703106028
20
211.943882224
10
536.865175592
20
211.865600157
10
537.025942632
20
211.78467683
10
537.185364105
20
211.701133908
10
537.343397331
20
211.614993758
10
537.5
20
211.526279442
10
537.655130186
20
211.43501471
10
537.808746357
20
211.341223997
10
537.960807386
20
211.244932412
10
538.111272563
20
211.146165735
10
538.260101605
20
211.044950409
10
538.407254666
20
210.941313531
10
538.552692349
20
210.835282846
10
538.696375719
20
210.726886743
10
538.838266307
20
210.616154242
10
538.978326126
20
210.503114987
10
539.116517678
20
210.387799243
10
539.252803966
20
210.270237882
10
539.387148503
20
210.150462379
10
539.519515322
20
210.0285048
10
539.649868985
20
209.904397796
10
539.778174593
20
209.778174593
10
539.904397796
20
209.649868985
10
540.0285048
20
209.519515322
10
540.150462379
20
209.387148503
10
540.270237882
20
209.252803966
10
540.387799243
20
209.116517678
10
540.503114987
20
208.978326126
10
540.616154242
20
208.838266307
10
540.726886743
20
208.696375719
10
540.835282846
20
208.552692349
10
540.941313531
20
208.407254666
10
541.044950409
20
208.260101605
10
541.146165735
20
208.111272563
10
541.244932412
20
207.960807386
10
541.341223997
20
207.808746357
10
541.43501471
20
207.655130186
10
541.5
20
207.544669333
10
541.5
20
208
10
550
20
208
10
550.293031742
20
208
10
550.445997767
20
208.130790822
10
550.672464134
20
208.321762825
10
550.900230469
20
208.511182512
10
551.12928613
20
208.699041037
10
551.359620418
20
208.885329622
10
551.591222573
20
209.070039566
10
551.824081775
20
209.253162239
10
552.058187146
20
209.434689087
10
552.29352775
20
209.614611629
10
552.530092593
20
209.792921462
10
552.767870623
20
209.969610255
10
553.006850734
20
210.144669753
10
553.24702176
20
210.31809178
10
553.488372483
20
210.489868233
10
553.730891627
20
210.659991088
10
553.974567864
20
210.828452398
10
554.219389809
20
210.995244293
10
554.465346027
20
211.160358982
10
554.712425027
20
211.32378875
10
554.960615266
20
211.485525964
10
555.209905151
20
211.645563067
10
555.460283036
20
211.803892584
10
555.711737225
20
211.960507118
10
555.96425597
20
212.115399353
10
556.217827476
20
212.268562054
10
556.472439896
20
212.419988064
10
556.728081337
20
212.569670311
10
556.984739856
20
212.717601801
10
557.242403464
20
212.863775625
10
557.501060122
20
213.008184953
10
557.76069775
20
213.15082304
10
558.021304216
20
213.291683222
10
558.282867348
20
213.430758918
10
558.545374926
20
213.568043633
10
558.808814686
20
213.703530952
10
559.073174324
20
213.837214547
10
559.338441488
20
213.969088172
10
559.604603786
20
214.099145667
10
559.871648786
20
214.227380956
10
560.139564012
20
214.353788049
10
560.408336948
20
214.47836104
10
560.677955039
20
214.60109411
10
560.948405688
20
214.721981526
10
561.219676263
20
214.84101764
10
561.491754091
20
214.958196891
10
561.764626461
20
215.073513806
10
562.038280626
20
215.186962997
10
562.312703803
20
215.298539165
10
562.587883172
20
215.408237098
10
562.863805877
20
215.51605167
10
563.140459029
20
215.621977845
10
563.417829705
20
215.726010675
10
563.695904946
20
215.8281453
10
563.974671762
20
215.928376949
10
564.254117131
20
216.026700939
10
564.534227998
20
216.123112677
10
564.814991279
20
216.21760766
10
565.096393856
20
216.310181472
10
565.378422584
20
216.40082979
10
565.661064289
20
216.489548378
10
565.944305767
20
216.576333093
10
566.228133785
20
216.661179879
10
566.512535086
20
216.744084774
10
566.797496382
20
216.825043905
10
567.083004363
20
216.904053488
10
567.36904569
20
216.981109835
10
567.655607001
20
217.056209344
10
567.942674909
20
217.129348508
10
568.230236004
20
217.200523909
10
568.518276853
20
217.269732223
10
568.806783999
20
217.336970217
10
569.095743965
20
217.40223475
10
569.385143252
20
217.465522773
10
569.674968341
20
217.526831329
10
569.965205693
20
217.586157554
10
570.255841749
20
217.643498678
10
570.546862931
20
217.69885202
10
570.838255646
20
217.752214996
10
571.13000628
20
217.803585113
10
571.422101204
20
217.85295997
10
571.714526773
20
217.900337261
10
572.007269326
20
217.945714774
10
572.300315189
20
217.989090387
10
572.59365067
20
218.030462076
10
572.887262068
20
218.069827906
10
573.181135665
20
218.10718604
10
573.475257733
20
218.142534732
10
573.769614533
20
218.17587233
10
574.064192314
20
218.207197278
10
574.358977314
20
218.236508112
10
574.653955763
20
218.263803462
10
574.94911388
20
218.289082054
10
575.244437877
20
218.312342707
10
575.539913958
20
218.333584334
10
575.83552832
20
218.352805942
10
576.131267153
20
218.370006635
10
576.427116642
20
218.385185607
10
576.723062966
20
218.398342151
10
577.0190923
20
218.409475652
10
577.315190814
20
218.418585589
10
577.611344677
20
218.425671537
10
577.907540054
20
218.430733165
10
578.203763108
20
218.433770236
10
578.5
20
218.434782609
10
578.796236892
20
218.433770236
10
579.092459946
20
218.430733165
10
579.388655323
20
218.425671537
10
579.684809186
20
218.418585589
10
579.9809077
20
218.409475652
10
580.276937034
20
218.398342151
10
580.572883358
20
218.385185607
10
580.868732847
20
218.370006635
10
581.16447168
20
218.352805942
10
581.460086042
20
218.333584334
10
581.755562123
20
218.312342707
10
582.05088612
20
218.289082054
10
582.346044237
20
218.263803462
10
582.641022686
20
218.236508112
10
582.935807686
20
218.207197278
10
583.230385467
20
218.17587233
10
583.524742267
20
218.142534732
10
583.818864335
20
218.10718604
10
584.112737932
20
218.069827906
10
584.40634933
20
218.030462076
10
584.699684811
20
217.989090387
10
584.992730674
20
217.945714774
10
585.285473227
20
217.900337261
10
585.577898796
20
217.85295997
10
585.86999372
20
217.803585113
10
586.161744354
20
217.752214996
10
586.453137069
20
217.69885202
10
586.744158251
20
217.643498678
10
587.034794307
20
217.586157554
10
587.325031659
20
217.526831329
10
587.614856748
20
217.465522773
10
587.904256035
20
217.40223475
10
588.193216001
20
217.336970217
10
588.481723147
20
217.269732223
10
588.769763996
20
217.200523909
10
589.057325091
20
217.129348508
10
589.344392999
20
217.056209344
10
589.63095431
20
216.981109835
10
589.916995637
20
216.904053488
10
590.202503618
20
216.825043905
10
590.487464914
20
216.744084774
10
590.771866215
20
216.661179879
10
591.055694233
20
216.576333093
10
591.338935711
20
216.489548378
10
591.621577416
20
216.40082979
10
591.903606144
20
216.310181472
10
592.185008721
20
216.21760766
10
592.465772002
20
216.123112677
10
592.745882869
20
216.026700939
10
593.025328238
20
215.928376949
10
593.304095054
20
215.8281453
10
593.582170295
20
215.726010675
10
593.859540971
20
215.621977845
10
594.136194123
20
215.51605167
10
594.412116828
20
215.408237098
10
594.687296197
20
215.298539165
10
594.961719374
20
215.186962997
10
595.235373539
20
215.073513806
10
595.508245909
20
214.958196891
10
595.780323737
20
214.84101764
10
596.051594312
20
214.721981526
10
596.322044961
20
214.60109411
10
596.591663052
20
214.47836104
10
596.860435988
20
214.353788049
10
597.128351214
20
214.227380956
10
597.395396214
20
214.099145667
10
597.661558512
20
213.969088172
10
597.926825676
20
213.837214547
10
598.191185314
20
213.703530952
10
598.454625074
20
213.568043633
10
598.717132652
20
213.430758918
10
598.978695784
20
213.291683222
10
599.23930225
20
213.15082304
10
599.498939878
20
213.008184953
10
599.757596536
20
212.863775625
10
600.015260144
20
212.717601801
10
600.271918663
20
212.569670311
10
600.527560104
20
212.419988064
10
600.782172524
20
212.268562054
10
601.03574403
20
212.115399353
10
601.288262775
20
211.960507118
10
601.539716964
20
211.803892584
10
601.790094849
20
211.645563067
10
602.039384734
20
211.485525964
10
602.287574973
20
211.32378875
10
602.534653973
20
211.160358982
10
602.780610191
20
210.995244293
10
603.025432136
20
210.828452398
10
603.269108373
20
210.659991088
10
603.511627517
20
210.489868233
10
603.75297824
20
210.31809178
10
603.993149266
20
210.144669753
10
604.232129377
20
209.969610255
10
604.469907407
20
209.792921462
10
604.70647225
20
209.614611629
10
604.941812854
20
209.434689087
10
605.175918225
20
209.253162239
10
605.408777427
20
209.070039566
10
605.640379582
20
208.885329622
10
605.87071387
20
208.699041037
10
606.099769531
20
208.511182512
10
606.327535866
20
208.321762825
10
606.554002233
20
208.130790822
10
606.779158054
20
207.938275426
10
607.00299281
20
207.744225631
10
607.225496045
20
207.5486505
10
607.446657364
20
207.351559171
10
607.666466436
20
207.15296085
10
607.884912993
20
206.952864815
10
608.10198683
20
206.751280415
10
608.317677806
20
206.548217064
10
608.531975845
20
206.343684251
10
608.744870936
20
206.137691529
10
608.956353134
20
205.930248522
10
609.166412559
20
205.72136492
10
609.375039398
20
205.511050481
10
609.582223906
20
205.299315031
10
609.787956404
20
205.08616846
10
609.99222728
20
204.871620725
10
610.195026993
20
204.65568185
10
610.396346068
20
204.438361922
10
610.596175101
20
204.219671093
10
610.794504757
20
203.999619578
10
610.99132577
20
203.778217659
10
611.186628947
20
203.555475678
10
611.380405164
20
203.331404039
10
611.572645368
20
203.106013211
10
611.763340579
20
202.879313723
10
611.952481888
20
202.651316166
10
612.14006046
20
202.422031189
10
612.326067532
20
202.191469504
10
612.510494415
20
201.959641883
10
612.693332493
20
201.726559154
10
612.874573224
20
201.492232206
10
613.054208143
20
201.256671986
10
613.232228857
20
201.019889498
10
613.408627051
20
200.781895804
10
613.583394483
20
200.54270202
10
613.756522989
20
200.302319322
10
613.928004483
20
200.060758939
10
614.097830952
20
199.818032155
10
614.265994464
20
199.57415031
10
614.432487162
20
199.329124796
10
614.597301269
20
199.082967059
10
614.760429087
20
198.835688599
10
614.921862993
20
198.587300968
10
615.081595446
20
198.33781577
10
615.239618986
20
198.087244658
10
615.395926229
20
197.835599338
10
615.550509874
20
197.582891566
10
615.7033627
20
197.329133147
10
615.854477565
20
197.074335936
10
616.003847411
20
196.818511836
10
616.15146526
20
196.561672797
10
616.297324215
20
196.303830817
10
616.441417463
20
196.044997942
10
616.583738272
20
195.785186263
10
616.724279994
20
195.524407918
10
616.863036064
20
195.262675088
10
617
20
195
10
540.48502894
20
195
10
540.387799243
20
194.883482322
10
540.270237882
20
194.747196034
0
LWPOLYLINE
100
AcDbEntity
8
CUT_6MM
100
AcDbPolyline
90
5
70
1
10
548
20
197
10
554
20
197
10
554
20
203
10
548
20
203
10
548
20
197
0
LWPOLYLINE
100
AcDbEntity
8
CUT_6MM
100
AcDbPolyline
90
5
70
1
10
603
20
197
10
609
20
197
10
609
20
203
10
603
20
203
10
603
20
197
0
LWPOLYLINE
100
AcDbEntity
8
CUT_6MM
100
AcDbPolyline
90
147
70
1
10
555.01009076
20
211.398431706
10
554.86833437
20
211.306322122
10
557.10895581
20
207.872721161
10
557.237271658
20
207.956097433
10
557.365912479
20
208.038971425
10
557.494876307
20
208.121341873
10
557.624161171
20
208.203207516
10
557.753765094
20
208.284567103
10
557.883686097
20
208.365419392
10
558.013922194
20
208.445763145
10
558.144471393
20
208.525597136
10
558.2753317
20
208.604920143
10
558.406501115
20
208.683730956
10
558.537977632
20
208.762028368
10
558.669759243
20
208.839811184
10
558.801843934
20
208.917078215
10
558.934229685
20
208.99382828
10
559.066914473
20
209.070060205
10
559.199896271
20
209.145772826
10
559.333173046
20
209.220964986
10
559.46674276
20
209.295635534
10
559.600603373
20
209.369783331
10
559.734752839
20
209.443407243
10
559.869189107
20
209.516506144
10
560.003910123
20
209.589078917
10
560.138913827
20
209.661124454
10
560.274198157
20
209.732641653
10
560.409761044
20
209.80362942
10
560.545600416
20
209.874086672
10
560.681714199
20
209.94401233
10
560.818100311
20
210.013405327
10
560.954756667
20
210.082264602
10
561.09168118
20
210.150589103
10
561.228871756
20
210.218377784
10
561.366326298
20
210.285629611
10
561.504042707
20
210.352343555
10
561.642018877
20
210.418518597
10
561.780252698
20
210.484153724
10
561.91874206
20
210.549247935
10
562.057484844
20
210.613800234
10
562.196478931
20
210.677809635
10
562.335722195
20
210.741275159
10
562.47521251
20
210.804195836
10
562.614947743
20
210.866570705
10
562.754925758
20
210.928398812
10
562.895144415
20
210.989679213
10
563.035601573
20
211.050410971
10
563.176295084
20
211.110593157
10
563.317222798
20
211.170224851
10
563.45838256
20
211.229305143
10
563.599772214
20
211.28783313
10
563.741389599
20
211.345807917
10
563.88323255
20
211.403228617
10
564.025298899
20
211.460094353
10
564.167586475
20
211.516404257
10
564.310093103
20
211.572157467
10
564.452816605
20
211.627353131
10
564.595754801
20
211.681990407
10
564.738905504
20
211.736068457
10
564.882266528
20
211.789586457
10
565.025835681
20
211.842543589
10
565.169610769
20
211.894939042
10
565.313589595
20
211.946772016
10
565.457769958
20
211.998041719
10
565.602149654
20
212.048747368
10
565.746726478
20
212.098888186
10
565.891498218
20
212.148463409
10
566.036462663
20
212.197472278
10
566.181617597
20
212.245914044
10
566.326960801
20
212.293787967
10
566.472490054
20
212.341093316
10
566.618203132
20
212.387829366
10
566.764097808
20
212.433995404
10
566.910171851
20
212.479590725
10
567.056423031
20
212.524614631
10
565.857756725
20
216.445481766
10
565.696186353
20
216.395741796
10
565.534811671
20
216.345370558
10
565.373635145
20
216.294368822
10
565.212659238
20
216.242737368
10
565.051886411
20
216.190476985
10
564.89131912
20
216.137588471
10
564.730959821
20
216.084072634
10
564.570810964
20
216.029930294
10
564.410874995
20
215.975162276
10
564.251154361
20
215.919769419
10
564.091651502
20
215.863752568
10
563.932368856
20
215.80711258
10
563.773308857
20
215.749850321
10
563.614473936
20
215.691966666
10
563.455866521
20
215.633462499
10
563.297489036
20
215.574338714
10
563.139343901
20
215.514596216
10
562.981433534
20
215.454235917
10
562.823760349
20
215.393258741
10
562.666326754
20
215.331665617
10
562.509135156
20
215.26945749
10
562.352187957
20
215.206635308
10
562.195487557
20
215.143200032
10
562.03903635
20
215.079152632
10
561.882836727
20
215.014494086
10
561.726891077
20
214.949225383
10
561.571201781
20
214.88334752
10
561.415771219
20
214.816861505
10
561.260601768
20
214.749768352
10
561.105695799
20
214.682069089
10
560.951055679
20
214.613764749
10
560.796683771
20
214.544856376
10
560.642582436
20
214.475345024
10
560.488754028
20
214.405231754
10
560.335200898
20
214.33451764
10
560.181925394
20
214.26320376
10
560.028929858
20
214.191291206
10
559.876216627
20
214.118781076
10
559.723788037
20
214.045674479
10
559.571646417
20
213.971972531
10
559.419794092
20
213.89767636
10
559.268233383
20
213.8227871
10
559.116966607
20
213.747305897
10
558.965996075
20
213.671233905
10
558.815324095
20
213.594572284
10
558.664952969
20
213.517322209
10
558.514884996
20
213.439484858
10
558.36512247
20
213.361061422
10
558.215667679
20
213.282053099
10
558.066522907
20
213.202461097
10
557.917690435
20
213.122286633
10
557.769172536
20
213.041530931
10
557.620971481
20
212.960195226
10
557.473089535
20
212.878280761
10
557.325528957
20
212.795788788
10
557.178292004
20
212.712720567
10
557.031380925
20
212.629077369
10
556.884797966
20
212.544860472
10
556.738545367
20
212.460071163
10
556.592625364
20
212.374710737
10
556.447040186
20
212.2887805
10
556.301792059
20
212.202281764
10
556.156883203
20
212.115215852
10
556.012315832
20
212.027584095
10
555.868092156
20
211.939387831
10
555.724214379
20
211.850628409
10
555.580684701
20
211.761307186
10
555.437505314
20
211.671425526
10
555.294678407
20
211.580984803
10
555.152206163
20
211.489986399
10
555.01009076
20
211.398431706
0
LWPOLYLINE
100
AcDbEntity
8
CUT_6MM
100
AcDbPolyline
90
147
70
1
10
591.465188329
20
216.345370558
10
591.303813647
20
216.395741796
10
591.142243275
20
216.445481766
10
589.943576969
20
212.524614631
10
590.089828149
20
212.479590725
10
590.235902192
20
212.433995404
10
590.381796868
20
212.387829366
10
590.527509946
20
212.341093316
10
590.673039199
20
212.293787967
10
590.818382403
20
212.245914044
10
590.963537337
20
212.197472278
10
591.108501782
20
212.148463409
10
591.253273522
20
212.098888186
10
591.397850346
20
212.048747368
10
591.542230042
20
211.998041719
10
591.686410405
20
211.946772016
10
591.830389231
20
211.894939042
10
591.974164319
20
211.842543589
10
592.117733472
20
211.789586457
10
592.261094496
20
211.736068457
10
592.404245199
20
211.681990407
10
592.547183395
20
211.627353131
10
592.689906897
20
211.572157467
10
592.832413525
20
211.516404257
10
592.974701101
20
211.460094353
10
593.11676745
20
211.403228617
10
593.258610401
20
211.345807917
10
593.400227786
20
211.28783313
10
593.54161744
20
211.229305143
10
593.682777202
20
211.170224851
10
593.823704916
20
211.110593157
10
593.964398427
20
211.050410971
10
594.104855585
20
210.989679213
10
594.245074242
20
210.928398812
10
594.385052257
20
210.866570705
10
594.52478749
20
210.804195836
10
594.664277805
20
210.741275159
10
594.803521069
20
210.677809635
10
594.942515156
20
210.613800234
10
595.08125794
20
210.549247935
10
595.219747302
20
210.484153724
10
595.357981123
20
210.418518597
10
595.495957293
20
210.352343555
10
595.633673702
20
210.285629611
10
595.771128244
20
210.218377784
10
595.90831882
20
210.150589103
10
596.045243333
20
210.082264602
10
596.181899689
20
210.013405327
10
596.318285801
20
209.94401233
10
596.454399584
20
209.874086672
10
596.590238956
20
209.80362942
10
596.725801843
20
209.732641653
10
596.861086173
20
209.661124454
10
596.996089877
20
209.589078917
10
597.130810893
20
209.516506144
10
597.265247161
20
209.443407243
10
597.399396627
20
209.369783331
10
597.53325724
20
209.295635534
10
597.666826954
20
209.220964986
10
597.800103729
20
209.145772826
10
597.933085527
20
209.070060205
10
598.065770315
20
208.99382828
10
598.198156066
20
208.917078215
10
598.330240757
20
208.839811184
10
598.462022368
20
208.762028368
10
598.593498885
20
208.683730956
10
598.7246683
20
208.604920143
10
598.855528607
20
208.525597136
10
598.986077806
20
208.445763145
10
599.116313903
20
208.365419392
10
599.246234906
20
208.284567103
10
599.375838829
20
208.203207516
10
599.505123693
20
208.121341873
10
599.634087521
20
208.038971425
10
599.762728342
20
207.956097433
10
599.89104419
20
207.872721161
10
602.13166563
20
211.306322122
10
601.98990924
20
211.398431706
10
601.847793837
20
211.489986399
10
601.705321593
20
211.580984803
10
601.562494686
20
211.671425526
10
601.419315299
20
211.761307186
10
601.275785621
20
211.850628409
10
601.131907844
20
211.939387831
10
600.987684168
20
212.027584095
10
600.843116797
20
212.115215852
10
600.698207941
20
212.202281764
10
600.552959814
20
212.2887805
10
600.407374636
20
212.374710737
10
600.261454633
20
212.460071163
10
600.115202034
20
212.544860472
10
599.968619075
20
212.629077369
10
599.821707996
20
212.712720567
10
599.674471043
20
212.795788788
10
599.526910465
20
212.878280761
10
599.379028519
20
212.960195226
10
599.230827464
20
213.041530931
10
599.082309565
20
213.122286633
10
598.933477093
20
213.202461097
10
598.784332321
20
213.282053099
10
598.63487753
20
213.361061422
10
598.485115004
20
213.439484858
10
598.335047031
20
213.517322209
10
598.184675905
20
213.594572284
10
598.034003925
20
213.671233905
10
597.883033393
20
213.747305897
10
597.731766617
20
213.8227871
10
597.580205908
20
213.89767636
10
597.428353583
20
213.971972531
10
597.276211963
20
214.045674479
10
597.123783373
20
214.118781076
10
596.971070142
20
214.191291206
10
596.818074606
20
214.26320376
10
596.664799102
20
214.33451764
10
596.511245972
20
214.405231754
10
596.357417564
20
214.475345024
10
596.203316229
20
214.544856376
10
596.048944321
20
214.613764749
10
595.894304201
20
214.682069089
10
595.739398232
20
214.749768352
10
595.584228781
20
214.816861505
10
595.428798219
20
214.88334752
10
595.273108923
20
214.949225383
10
595.117163273
20
215.014494086
10
594.96096365
20
215.079152632
10
594.804512443
20
215.143200032
10
594.647812043
20
215.206635308
10
594.490864844
20
215.26945749
10
594.333673246
20
215.331665617
10
594.176239651
20
215.393258741
10
594.018566466
20
215.454235917
10
593.860656099
20
215.514596216
10
593.702510964
20
215.574338714
10
593.544133479
20
215.633462499
10
593.385526064
20
215.691966666
10
593.226691143
20
215.749850321
10
593.067631144
20
215.80711258
10
592.908348498
20
215.863752568
10
592.748845639
20
215.919769419
10
592.589125005
20
215.975162276
10
592.429189036
20
216.029930294
10
592.269040179
20
216.084072634
10
592.10868088
20
216.137588471
10
591.948113589
20
216.190476985
10
591.787340762
20
216.242737368
10
591.626364855
20
216.294368822
10
591.465188329
20
216.345370558
0
LWPOLYLINE
100
AcDbEntity
8
CUT_6MM
100
AcDbPolyline
90
147
70
1
10
572.769091423
20
217.953341977
10
572.601573363
20
217.930609859
10
572.434145453
20
217.907223014
10
573.009275618
20
213.847761807
10
573.160828957
20
213.868931243
10
573.312463898
20
213.88950803
10
573.464178124
20
213.909491854
10
573.615969315
20
213.928882409
10
573.767835153
20
213.947679399
10
573.919773316
20
213.965882536
10
574.071781481
20
213.983491543
10
574.223857326
20
214.00050615
10
574.375998527
20
214.016926098
10
574.528202757
20
214.032751134
10
574.680467691
20
214.047981018
10
574.832791002
20
214.062615517
10
574.985170361
20
214.076654407
10
575.137603439
20
214.090097473
10
575.290087908
20
214.10294451
10
575.442621436
20
214.115195321
10
575.595201692
20
214.12684972
10
575.747826344
20
214.137907528
10
575.900493059
20
214.148368577
10
576.053199504
20
214.158232705
10
576.205943346
20
214.167499763
10
576.358722249
20
214.17616961
10
576.511533879
20
214.184242111
10
576.6643759
20
214.191717145
10
576.817245976
20
214.198594596
10
576.970141771
20
214.204874361
10
577.123060948
20
214.210556341
10
577.276001169
20
214.215640452
10
577.428960098
20
214.220126615
10
577.581935396
20
214.224014762
10
577.734924725
20
214.227304832
10
577.887925748
20
214.229996777
10
578.040936125
20
214.232090554
10
578.193953519
20
214.233586132
10
578.34697559
20
214.234483488
10
578.5
20
214.234782609
10
578.65302441
20
214.234483488
10
578.806046481
20
214.233586132
10
578.959063875
20
214.232090554
10
579.112074252
20
214.229996777
10
579.265075275
20
214.227304832
10
579.418064604
20
214.224014762
10
579.571039902
20
214.220126615
10
579.723998831
20
214.215640452
10
579.876939052
20
214.210556341
10
580.029858229
20
214.204874361
10
580.182754024
20
214.198594596
10
580.3356241
20
214.191717145
10
580.488466121
20
214.184242111
10
580.641277751
20
214.17616961
10
580.794056654
20
214.167499763
10
580.946800496
20
214.158232705
10
581.099506941
20
214.148368577
10
581.252173656
20
214.137907528
10
581.404798308
20
214.12684972
10
581.557378564
20
214.115195321
10
581.709912092
20
214.10294451
10
581.862396561
20
214.090097473
10
582.014829639
20
214.076654407
10
582.167208998
20
214.062615517
10
582.319532309
20
214.047981018
10
582.471797243
20
214.032751134
10
582.624001473
20
214.016926098
10
582.776142674
20
214.00050615
10
582.928218519
20
213.983491543
10
583.080226684
20
213.965882536
10
583.232164847
20
213.947679399
10
583.384030685
20
213.928882409
10
583.535821876
20
213.909491854
10
583.687536102
20
213.88950803
10
583.839171043
20
213.868931243
10
583.990724382
20
213.847761807
10
584.565854547
20
217.907223014
10
584.398426637
20
217.930609859
10
584.230908577
20
217.953341977
10
584.063302927
20
217.975419022
10
583.89561225
20
217.996840656
10
583.727839108
20
218.017606551
10
583.559986065
20
218.03771639
10
583.392055687
20
218.057169866
10
583.22405054
20
218.075966682
10
583.055973192
20
218.094106549
10
582.887826212
20
218.111589191
10
582.71961217
20
218.128414341
10
582.551333637
20
218.144581742
10
582.382993184
20
218.160091146
10
582.214593385
20
218.174942316
10
582.046136813
20
218.189135026
10
581.877626043
20
218.202669058
10
581.70906365
20
218.215544206
10
581.540452211
20
218.227760273
10
581.371794303
20
218.239317072
10
581.203092503
20
218.250214426
10
581.03434939
20
218.26045217
10
580.865567542
20
218.270030146
10
580.69674954
20
218.278948208
10
580.527897964
20
218.28720622
10
580.359015393
20
218.294804055
10
580.190104411
20
218.301741598
10
580.021167597
20
218.308018742
10
579.852207534
20
218.313635392
10
579.683226804
20
218.318591462
10
579.51422799
20
218.322886875
10
579.345213675
20
218.326521567
10
579.176186442
20
218.329495481
10
579.007148875
20
218.331808573
10
578.838103556
20
218.333460807
10
578.66905307
20
218.334452157
10
578.5
20
218.334782609
10
578.33094693
20
218.334452157
10
578.161896444
20
218.333460807
10
577.992851125
20
218.331808573
10
577.823813558
20
218.329495481
10
577.654786325
20
218.326521567
10
577.48577201
20
218.322886875
10
577.316773196
20
218.318591462
10
577.147792466
20
218.313635392
10
576.978832403
20
218.308018742
10
576.809895589
20
218.301741598
10
576.640984607
20
218.294804055
10
576.472102036
20
218.28720622
10
576.30325046
20
218.278948208
10
576.134432458
20
218.270030146
10
575.96565061
20
218.26045217
10
575.796907497
20
218.250214426
10
575.628205697
20
218.239317072
10
575.459547789
20
218.227760273
10
575.29093635
20
218.215544206
10
575.122373957
20
218.202669058
10
574.953863187
20
218.189135026
10
574.785406615
20
218.174942316
10
574.617006816
20
218.160091146
10
574.448666363
20
218.144581742
10
574.28038783
20
218.128414341
10
574.112173788
20
218.111589191
10
573.944026808
20
218.094106549
10
573.77594946
20
218.075966682
10
573.607944313
20
218.057169866
10
573.440013935
20
218.03771639
10
573.272160892
20
218.017606551
10
573.10438775
20
217.996840656
10
572.936697073
20
217.975419022
10
572.769091423
20
217.953341977
0
LWPOLYLINE
100
AcDbEntity
8
CUT_6MM
100
AcDbPolyline
90
17
70
1
10
20
20
298
10
26
20
298
10
26
20
300
10
178
20
300
10
178
20
295
10
184
20
295
10
184
20
300
10
336
20
300
10
336
20
298
10
342
20
298
10
342
20
292
10
336
20
292
10
336
20
290
10
26
20
290
10
26
20
292
10
20
20
292
10
20
20
298
0
LWPOLYLINE
100
AcDbEntity
8
CUT_6MM
100
AcDbPolyline
90
17
70
1
10
355
20
298
10
361
20
298
10
361
20
300
10
513
20
300
10
513
20
295
10
519
20
295
10
519
20
300
10
671
20
300
10
671
20
298
10
677
20
298
10
677
20
292
10
671
20
292
10
671
20
290
10
361
20
290
10
361
20
292
10
355
20
292
10
355
20
298
0
LWPOLYLINE
100
AcDbEntity
8
CUT_6MM
100
AcDbPolyline
90
354
70
1
10
754
20
300
10
732
20
300
10
732
20
307.511203006
10
731.967402042
20
307.488244934
10
731.777983262
20
307.359425428
10
731.586482128
20
307.233722385
10
731.392949909
20
307.111169459
10
731.197438419
20
306.99179946
10
731
20
306.875644347
10
730.800687512
20
306.762735217
10
730.599554316
20
306.653102299
10
730.396654259
20
306.546774944
10
730.192041663
20
306.443781619
10
729.985771308
20
306.344149896
10
729.777898417
20
306.247906451
10
729.568478643
20
306.15507705
10
729.357568053
20
306.065686545
10
729.145223112
20
305.979758868
10
728.931500671
20
305.897317025
10
728.716457947
20
305.818383087
10
728.500152514
20
305.742978187
10
728.282642281
20
305.671122512
10
728.063985482
20
305.6028353
10
727.844240655
20
305.538134832
10
727.623466631
20
305.477038432
10
727.401722519
20
305.419562455
10
727.179067682
20
305.36572229
10
726.955561733
20
305.315532351
10
726.731264508
20
305.269006074
10
726.506236058
20
305.226155917
10
726.280536628
20
305.186993351
10
726.054226642
20
305.15152886
10
725.827366691
20
305.119771941
10
725.60001751
20
305.091731094
10
725.372239965
20
305.067413827
10
725.144095038
20
305.04682665
10
724.915643809
20
305.029975075
10
724.686947441
20
305.016863613
10
724.45806716
20
305.007495775
10
724.229064243
20
305.001874069
10
724
20
305
10
723.770935757
20
305.001874069
10
723.54193284
20
305.007495775
10
723.313052559
20
305.016863613
10
723.084356191
20
305.029975075
10
722.855904962
20
305.04682665
10
722.627760035
20
305.067413827
10
722.39998249
20
305.091731094
10
722.172633309
20
305.119771941
10
721.945773358
20
305.15152886
10
721.719463372
20
305.186993351
10
721.493763942
20
305.226155917
10
721.268735492
20
305.269006074
10
721.044438267
20
305.315532351
10
720.820932318
20
305.36572229
10
720.598277481
20
305.419562455
10
720.376533369
20
305.477038432
10
720.155759345
20
305.538134832
10
719.936014518
20
305.6028353
10
719.717357719
20
305.671122512
10
719.499847486
20
305.742978187
10
719.283542053
20
305.818383087
10
719.068499329
20
305.897317025
10
718.854776888
20
305.979758868
10
718.642431947
20
306.065686545
10
718.431521357
20
306.15507705
10
718.222101583
20
306.247906451
10
718.014228692
20
306.344149896
10
717.807958337
20
306.443781619
10
717.603345741
20
306.546774944
10
717.400445684
20
306.653102299
10
717.199312488
20
306.762735217
10
717
20
306.875644347
10
716.802561581
20
306.99179946
10
716.607050091
20
307.111169459
10
716.413517872
20
307.233722385
10
716.222016738
20
307.359425428
10
716.032597958
20
307.488244934
10
715.845312244
20
307.620146416
10
715.660209737
20
307.755094559
10
715.477339994
20
307.893053236
10
715.296751973
20
308.033985511
10
715.118494022
20
308.177853653
10
714.942613865
20
308.324619145
10
714.769158589
20
308.474242695
10
714.598174632
20
308.626684245
10
714.429707772
20
308.781902982
10
714.26380311
20
308.939857351
10
714.100505063
20
309.100505063
10
713.939857351
20
309.26380311
10
713.781902982
20
309.429707772
10
713.626684245
20
309.598174632
10
713.474242695
20
309.769158589
10
713.324619145
20
309.942613865
10
713.177853653
20
310.118494022
10
713.033985511
20
310.296751973
10
712.893053236
20
310.477339994
10
712.755094559
20
310.660209737
10
712.620146416
20
310.845312244
10
712.488244934
20
311.032597958
10
712.359425428
20
311.222016738
10
712.233722385
20
311.413517872
10
712.111169459
20
311.607050091
10
711.99179946
20
311.802561581
10
711.875644347
20
312
10
711.762735217
20
312.199312488
10
711.653102299
20
312.400445684
10
711.546774944
20
312.603345741
10
711.443781619
20
312.807958337
10
711.344149896
20
313.014228692
10
711.247906451
20
313.222101583
10
711.15507705
20
313.431521357
10
711.065686545
20
313.642431947
10
710.979758868
20
313.854776888
10
710.897317025
20
314.068499329
10
710.818383087
20
314.283542053
10
710.742978187
20
314.499847486
10
710.671122512
20
314.717357719
10
710.6028353
20
314.936014518
10
710.538134832
20
315.155759345
10
710.477038432
20
315.376533369
10
710.419562455
20
315.598277481
10
710.36572229
20
315.820932318
10
710.315532351
20
316.044438267
10
710.269006074
20
316.268735492
10
710.226155917
20
316.493763942
10
710.186993351
20
316.719463372
10
710.15152886
20
316.945773358
10
710.119771941
20
317.172633309
10
710.091731094
20
317.39998249
10
710.067413827
20
317.627760035
10
710.04682665
20
317.855904962
10
710.029975075
20
318.084356191
10
710.016863613
20
318.313052559
10
710.007495775
20
318.54193284
10
710.001874069
20
318.770935757
10
710
20
319
10
710.001874069
20
319.229064243
10
710.007495775
20
319.45806716
10
710.016863613
20
319.686947441
10
710.029975075
20
319.915643809
10
710.04682665
20
320.144095038
10
710.067413827
20
320.372239965
10
710.091731094
20
320.60001751
10
710.119771941
20
320.827366691
10
710.15152886
20
321.054226642
10
710.186993351
20
321.280536628
10
710.226155917
20
321.506236058
10
710.269006074
20
321.731264508
10
710.315532351
20
321.955561733
10
710.36572229
20
322.179067682
10
710.419562455
20
322.401722519
10
710.477038432
20
322.623466631
10
710.538134832
20
322.844240655
10
710.6028353
20
323.063985482
10
710.671122512
20
323.282642281
10
710.742978187
20
323.500152514
10
710.818383087
20
323.716457947
10
710.897317025
20
323.931500671
10
710.979758868
20
324.145223112
10
711.065686545
20
324.357568053
10
711.15507705
20
324.568478643
10
711.247906451
20
324.777898417
10
711.344149896
20
324.985771308
10
711.443781619
20
325.192041663
10
711.546774944
20
325.396654259
10
711.653102299
20
325.599554316
10
711.762735217
20
325.800687512
10
711.875644347
20
326
10
711.99179946
20
326.197438419
10
712.111169459
20
326.392949909
10
712.233722385
20
326.586482128
10
712.359425428
20
326.777983262
10
712.488244934
20
326.967402042
10
712.620146416
20
327.154687756
10
712.755094559
20
327.339790263
10
712.893053236
20
327.522660006
10
713.033985511
20
327.703248027
10
713.177853653
20
327.881505978
10
713.324619145
20
328.057386135
10
713.474242695
20
328.230841411
10
713.626684245
20
328.401825368
10
713.781902982
20
328.570292228
10
713.939857351
20
328.73619689
10
714.100505063
20
328.899494937
10
714.26380311
20
329.060142649
10
714.429707772
20
329.218097018
10
714.598174632
20
329.373315755
10
714.769158589
20
329.525757305
10
714.942613865
20
329.675380855
10
715.118494022
20
329.822146347
10
715.296751973
20
329.966014489
10
715.477339994
20
330.106946764
10
715.660209737
20
330.244905441
10
715.845312244
20
330.379853584
10
716.032597958
20
330.511755066
10
716.222016738
20
330.640574572
10
716.413517872
20
330.766277615
10
716.607050091
20
330.888830541
10
716.802561581
20
331.00820054
10
717
20
331.124355653
10
717.199312488
20
331.237264783
10
717.400445684
20
331.346897701
10
717.603345741
20
331.453225056
10
717.807958337
20
331.556218381
10
718.014228692
20
331.655850104
10
718.222101583
20
331.752093549
10
718.431521357
20
331.84492295
10
718.642431947
20
331.934313455
10
718.854776888
20
332.020241132
10
719.068499329
20
332.102682975
10
719.283542053
20
332.181616913
10
719.499847486
20
332.257021813
10
719.717357719
20
332.328877488
10
719.936014518
20
332.3971647
10
720.155759345
20
332.461865168
10
720.376533369
20
332.522961568
10
720.598277481
20
332.580437545
10
720.820932318
20
332.63427771
10
721.044438267
20
332.684467649
10
721.268735492
20
332.730993926
10
721.493763942
20
332.773844083
10
721.719463372
20
332.813006649
10
721.945773358
20
332.84847114
10
722.172633309
20
332.880228059
10
722.39998249
20
332.908268906
10
722.627760035
20
332.932586173
10
722.855904962
20
332.95317335
10
723.084356191
20
332.970024925
10
723.313052559
20
332.983136387
10
723.54193284
20
332.992504225
10
723.770935757
20
332.998125931
10
724
20
333
10
724.229064243
20
332.998125931
10
724.45806716
20
332.992504225
10
724.686947441
20
332.983136387
10
724.915643809
20
332.970024925
10
725.144095038
20
332.95317335
10
725.372239965
20
332.932586173
10
725.60001751
20
332.908268906
10
725.827366691
20
332.880228059
10
726.054226642
20
332.84847114
10
726.280536628
20
332.813006649
10
726.506236058
20
332.773844083
10
726.731264508
20
332.730993926
10
726.955561733
20
332.684467649
10
727.179067682
20
332.63427771
10
727.401722519
20
332.580437545
10
727.623466631
20
332.522961568
10
727.844240655
20
332.461865168
10
728.063985482
20
332.3971647
10
728.282642281
20
332.328877488
10
728.500152514
20
332.257021813
10
728.716457947
20
332.181616913
10
728.931500671
20
332.102682975
10
729.145223112
20
332.020241132
10
729.357568053
20
331.934313455
10
729.568478643
20
331.84492295
10
729.777898417
20
331.752093549
10
729.985771308
20
331.655850104
10
730.192041663
20
331.556218381
10
730.396654259
20
331.453225056
10
730.599554316
20
331.346897701
10
730.800687512
20
331.237264783
10
731
20
331.124355653
10
731.197438419
20
331.00820054
10
731.392949909
20
330.888830541
10
731.586482128
20
330.766277615
10
731.777983262
20
330.640574572
10
731.967402042
20
330.511755066
10
732.154687756
20
330.379853584
10
732.339790263
20
330.244905441
10
732.522660006
20
330.106946764
10
732.703248027
20
329.966014489
10
732.881505978
20
329.822146347
10
733.057386135
20
329.675380855
10
733.230841411
20
329.525757305
10
733.401825368
20
329.373315755
10
733.570292228
20
329.218097018
10
733.73619689
20
329.060142649
10
733.899494937
20
328.899494937
10
734.060142649
20
328.73619689
10
734.218097018
20
328.570292228
10
734.373315755
20
328.401825368
10
734.525757305
20
328.230841411
10
734.675380855
20
328.057386135
10
734.822146347
20
327.881505978
10
734.966014489
20
327.703248027
10
735.106946764
20
327.522660006
10
735.244905441
20
327.339790263
10
735.379853584
20
327.154687756
10
735.511755066
20
326.967402042
10
735.640574572
20
326.777983262
10
735.766277615
20
326.586482128
10
735.888830541
20
326.392949909
10
736.00820054
20
326.197438419
10
736.124355653
20
326
10
736.237264783
20
325.800687512
10
736.346897701
20
325.599554316
10
736.453225056
20
325.396654259
10
736.556218381
20
325.192041663
10
736.655850104
20
324.985771308
10
736.752093549
20
324.777898417
10
736.84492295
20
324.568478643
10
736.934313455
20
324.357568053
10
737.020241132
20
324.145223112
10
737.102682975
20
323.931500671
10
737.181616913
20
323.716457947
10
737.257021813
20
323.500152514
10
737.328877488
20
323.282642281
10
737.3971647
20
323.063985482
10
737.461865168
20
322.844240655
10
737.522961568
20
322.623466631
10
737.580437545
20
322.401722519
10
737.63427771
20
322.179067682
10
737.684467649
20
321.955561733
10
737.730993926
20
321.731264508
10
737.773844083
20
321.506236058
10
737.813006649
20
321.280536628
10
737.84847114
20
321.054226642
10
737.880228059
20
320.827366691
10
737.908268906
20
320.60001751
10
737.932586173
20
320.372239965
10
737.95317335
20
320.144095038
10
737.970024925
20
319.915643809
10
737.983136387
20
319.686947441
10
737.992504225
20
319.45806716
10
737.998125931
20
319.229064243
10
738
20
319
10
737.998125931
20
318.770935757
10
737.992504225
20
318.54193284
10
737.983136387
20
318.313052559
10
737.970024925
20
318.084356191
10
737.95317335
20
317.855904962
10
737.932586173
20
317.627760035
10
737.908268906
20
317.39998249
10
737.880228059
20
317.172633309
10
737.84847114
20
316.945773358
10
737.813006649
20
316.719463372
10
737.773844083
20
316.493763942
10
737.730993926
20
316.268735492
10
737.684467649
20
316.044438267
10
737.63427771
20
315.820932318
10
737.580437545
20
315.598277481
10
737.522961568
20
315.376533369
10
737.461865168
20
315.155759345
10
737.3971647
20
314.936014518
10
737.328877488
20
314.717357719
10
737.257021813
20
314.499847486
10
737.181616913
20
314.283542053
10
737.102682975
20
314.068499329
10
737.076259868
20
314
10
754
20
314
10
754
20
300
0
LWPOLYLINE
100
AcDbEntity
8
CUT_6MM
100
AcDbPolyline
90
385
70
1
10
731.299022807
20
319.119440641
10
731.296091489
20
319.238849305
10
731.29120683
20
319.358194023
10
731.28437014
20
319.477442843
10
731.275583247
20
319.596563841
10
731.264848505
20
319.715525124
10
731.252168787
20
319.834294844
10
731.237547488
20
319.952841203
10
731.220988523
20
320.071132464
10
731.202496324
20
320.189136956
10
731.182075843
20
320.306823087
10
731.159732547
20
320.424159351
10
731.135472417
20
320.541114332
10
731.109301949
20
320.65765672
10
731.081228148
20
320.773755313
10
731.051258532
20
320.889379029
10
731.019401123
20
321.004496913
10
730.985664451
20
321.119078144
10
730.950057547
20
321.233092047
10
730.912589945
20
321.346508097
10
730.873271676
20
321.45929593
10
730.832113265
20
321.57142535
10
730.789125733
20
321.682866337
10
730.744320587
20
321.793589056
10
730.697709824
20
321.903563864
10
730.649305922
20
322.012761318
10
730.59912184
20
322.121152182
10
730.547171013
20
322.228707439
10
730.493467351
20
322.335398292
10
730.43802523
20
322.441196179
10
730.380859494
20
322.546072774
10
730.321985448
20
322.65
10
730.261418853
20
322.752950033
10
730.199175925
20
322.85489531
10
730.135273328
20
322.955808538
10
730.06972817
20
323.055662701
10
730.002557999
20
323.154431065
10
729.933780798
20
323.252087187
10
729.86341498
20
323.348604923
10
729.791479384
20
323.443958432
10
729.717993269
20
323.538122186
10
729.64297631
20
323.631070974
10
729.566448589
20
323.722779914
10
729.488430595
20
323.81322445
10
729.408943215
20
323.90238037
10
729.328007731
20
323.990223805
10
729.24564581
20
324.076731236
10
729.161879503
20
324.161879503
10
729.076731236
20
324.24564581
10
728.990223805
20
324.328007731
10
728.90238037
20
324.408943215
10
728.81322445
20
324.488430595
10
728.722779914
20
324.566448589
10
728.631070974
20
324.64297631
10
728.538122186
20
324.717993269
10
728.443958432
20
324.791479384
10
728.348604923
20
324.86341498
10
728.252087187
20
324.933780798
10
728.154431065
20
325.002557999
10
728.055662701
20
325.06972817
10
727.955808538
20
325.135273328
10
727.85489531
20
325.199175925
10
727.752950033
20
325.261418853
10
727.65
20
325.321985448
10
727.546072774
20
325.380859494
10
727.441196179
20
325.43802523
10
727.335398292
20
325.493467351
10
727.228707439
20
325.547171013
10
727.121152182
20
325.59912184
10
727.012761318
20
325.649305922
10
726.903563864
20
325.697709824
10
726.793589056
20
325.744320587
10
726.682866337
20
325.789125733
10
726.57142535
20
325.832113265
10
726.45929593
20
325.873271676
10
726.346508097
20
325.912589945
10
726.233092047
20
325.950057547
10
726.119078144
20
325.985664451
10
726.004496913
20
326.019401123
10
725.889379029
20
326.051258532
10
725.773755313
20
326.081228148
10
725.65765672
20
326.109301949
10
725.541114332
20
326.135472417
10
725.424159351
20
326.159732547
10
725.306823087
20
326.182075843
10
725.189136956
20
326.202496324
10
725.071132464
20
326.220988523
10
724.952841203
20
326.237547488
10
724.834294844
20
326.252168787
10
724.715525124
20
326.264848505
10
724.596563841
20
326.275583247
10
724.477442843
20
326.28437014
10
724.358194023
20
326.29120683
10
724.238849305
20
326.296091489
10
724.119440641
20
326.299022807
10
724
20
326.3
10
723.880559359
20
326.299022807
10
723.761150695
20
326.296091489
10
723.641805977
20
326.29120683
10
723.522557157
20
326.28437014
10
723.403436159
20
326.275583247
10
723.284474876
20
326.264848505
10
723.165705156
20
326.252168787
10
723.047158797
20
326.237547488
10
722.928867536
20
326.220988523
10
722.810863044
20
326.202496324
10
722.693176913
20
326.182075843
10
722.575840649
20
326.159732547
10
722.458885668
20
326.135472417
10
722.34234328
20
326.109301949
10
722.226244687
20
326.081228148
10
722.110620971
20
326.051258532
10
721.995503087
20
326.019401123
10
721.880921856
20
325.985664451
10
721.766907953
20
325.950057547
10
721.653491903
20
325.912589945
10
721.54070407
20
325.873271676
10
721.42857465
20
325.832113265
10
721.317133663
20
325.789125733
10
721.206410944
20
325.744320587
10
721.096436136
20
325.697709824
10
720.987238682
20
325.649305922
10
720.878847818
20
325.59912184
10
720.771292561
20
325.547171013
10
720.664601708
20
325.493467351
10
720.558803821
20
325.43802523
10
720.453927226
20
325.380859494
10
720.35
20
325.321985448
10
720.247049967
20
325.261418853
10
720.14510469
20
325.199175925
10
720.044191462
20
325.135273328
10
719.944337299
20
325.06972817
10
719.845568935
20
325.002557999
10
719.747912813
20
324.933780798
10
719.651395077
20
324.86341498
10
719.556041568
20
324.791479384
10
719.461877814
20
324.717993269
10
719.368929026
20
324.64297631
10
719.277220086
20
324.566448589
10
719.18677555
20
324.488430595
10
719.09761963
20
324.408943215
10
719.009776195
20
324.328007731
10
718.923268764
20
324.24564581
10
718.838120497
20
324.161879503
10
718.75435419
20
324.076731236
10
718.671992269
20
323.990223805
10
718.591056785
20
323.90238037
10
718.511569405
20
323.81322445
10
718.433551411
20
323.722779914
10
718.35702369
20
323.631070974
10
718.282006731
20
323.538122186
10
718.208520616
20
323.443958432
10
718.13658502
20
323.348604923
10
718.066219202
20
323.252087187
10
717.997442001
20
323.154431065
10
717.93027183
20
323.055662701
10
717.864726672
20
322.955808538
10
717.800824075
20
322.85489531
10
717.738581147
20
322.752950033
10
717.678014552
20
322.65
10
717.619140506
20
322.546072774
10
717.56197477
20
322.441196179
10
717.506532649
20
322.335398292
10
717.452828987
20
322.228707439
10
717.40087816
20
322.121152182
10
717.350694078
20
322.012761318
10
717.302290176
20
321.903563864
10
717.255679413
20
321.793589056
10
717.210874267
20
321.682866337
10
717.167886735
20
321.57142535
10
717.126728324
20
321.45929593
10
717.087410055
20
321.346508097
10
717.049942453
20
321.233092047
10
717.014335549
20
321.119078144
10
716.980598877
20
321.004496913
10
716.948741468
20
320.889379029
10
716.918771852
20
320.773755313
10
716.890698051
20
320.65765672
10
716.864527583
20
320.541114332
10
716.840267453
20
320.424159351
10
716.817924157
20
320.306823087
10
716.797503676
20
320.189136956
10
716.779011477
20
320.071132464
10
716.762452512
20
319.952841203
10
716.747831213
20
319.834294844
10
716.735151495
20
319.715525124
10
716.724416753
20
319.596563841
10
716.71562986
20
319.477442843
10
716.70879317
20
319.358194023
10
716.703908511
20
319.238849305
10
716.700977193
20
319.119440641
10
716.7
20
319
10
716.700977193
20
318.880559359
10
716.703908511
20
318.761150695
10
716.70879317
20
318.641805977
10
716.71562986
20
318.522557157
10
716.724416753
20
318.403436159
10
716.735151495
20
318.284474876
10
716.747831213
20
318.165705156
10
716.762452512
20
318.047158797
10
716.779011477
20
317.928867536
10
716.797503676
20
317.810863044
10
716.817924157
20
317.693176913
10
716.840267453
20
317.575840649
10
716.864527583
20
317.458885668
10
716.890698051
20
317.34234328
10
716.918771852
20
317.226244687
10
716.948741468
20
317.110620971
10
716.980598877
20
316.995503087
10
717.014335549
20
316.880921856
10
717.049942453
20
316.766907953
10
717.087410055
20
316.653491903
10
717.126728324
20
316.54070407
10
717.167886735
20
316.42857465
10
717.210874267
20
316.317133663
10
717.255679413
20
316.206410944
10
717.302290176
20
316.096436136
10
717.350694078
20
315.987238682
10
717.40087816
20
315.878847818
10
717.452828987
20
315.771292561
10
717.506532649
20
315.664601708
10
717.56197477
20
315.558803821
10
717.619140506
20
315.453927226
10
717.678014552
20
315.35
10
717.738581147
20
315.247049967
10
717.800824075
20
315.14510469
10
717.864726672
20
315.044191462
10
717.93027183
20
314.944337299
10
717.997442001
20
314.845568935
10
718.066219202
20
314.747912813
10
718.13658502
20
314.651395077
10
718.208520616
20
314.556041568
10
718.282006731
20
314.461877814
10
718.35702369
20
314.368929026
10
718.433551411
20
314.277220086
10
718.511569405
20
314.18677555
10
718.591056785
20
314.09761963
10
718.671992269
20
314.009776195
10
718.75435419
20
313.923268764
10
718.838120497
20
313.838120497
10
718.923268764
20
313.75435419
10
719.009776195
20
313.671992269
10
719.09761963
20
313.591056785
10
719.18677555
20
313.511569405
10
719.277220086
20
313.433551411
10
719.368929026
20
313.35702369
10
719.461877814
20
313.282006731
10
719.556041568
20
313.208520616
10
719.651395077
20
313.13658502
10
719.747912813
20
313.066219202
10
719.845568935
20
312.997442001
10
719.944337299
20
312.93027183
10
720.044191462
20
312.864726672
10
720.14510469
20
312.800824075
10
720.247049967
20
312.738581147
10
720.35
20
312.678014552
10
720.453927226
20
312.619140506
10
720.558803821
20
312.56197477
10
720.664601708
20
312.506532649
10
720.771292561
20
312.452828987
10
720.878847818
20
312.40087816
10
720.987238682
20
312.350694078
10
721.096436136
20
312.302290176
10
721.206410944
20
312.255679413
10
721.317133663
20
312.210874267
10
721.42857465
20
312.167886735
10
721.54070407
20
312.126728324
10
721.653491903
20
312.087410055
10
721.766907953
20
312.049942453
10
721.880921856
20
312.014335549
10
721.995503087
20
311.980598877
10
722.110620971
20
311.948741468
10
722.226244687
20
311.918771852
10
722.34234328
20
311.890698051
10
722.458885668
20
311.864527583
10
722.575840649
20
311.840267453
10
722.693176913
20
311.817924157
10
722.810863044
20
311.797503676
10
722.928867536
20
311.779011477
10
723.047158797
20
311.762452512
10
723.165705156
20
311.747831213
10
723.284474876
20
311.735151495
10
723.403436159
20
311.724416753
10
723.522557157
20
311.71562986
10
723.641805977
20
311.70879317
10
723.761150695
20
311.703908511
10
723.880559359
20
311.700977193
10
724
20
311.7
10
724.119440641
20
311.700977193
10
724.238849305
20
311.703908511
10
724.358194023
20
311.70879317
10
724.477442843
20
311.71562986
10
724.596563841
20
311.724416753
10
724.715525124
20
311.735151495
10
724.834294844
20
311.747831213
10
724.952841203
20
311.762452512
10
725.071132464
20
311.779011477
10
725.189136956
20
311.797503676
10
725.306823087
20
311.817924157
10
725.424159351
20
311.840267453
10
725.541114332
20
311.864527583
10
725.65765672
20
311.890698051
10
725.773755313
20
311.918771852
10
725.889379029
20
311.948741468
10
726.004496913
20
311.980598877
10
726.119078144
20
312.014335549
10
726.233092047
20
312.049942453
10
726.346508097
20
312.087410055
10
726.45929593
20
312.126728324
10
726.57142535
20
312.167886735
10
726.682866337
20
312.210874267
10
726.793589056
20
312.255679413
10
726.903563864
20
312.302290176
10
727.012761318
20
312.350694078
10
727.121152182
20
312.40087816
10
727.228707439
20
312.452828987
10
727.335398292
20
312.506532649
10
727.441196179
20
312.56197477
10
727.546072774
20
312.619140506
10
727.65
20
312.678014552
10
727.752950033
20
312.738581147
10
727.85489531
20
312.800824075
10
727.955808538
20
312.864726672
10
728.055662701
20
312.93027183
10
728.154431065
20
312.997442001
10
728.252087187
20
313.066219202
10
728.348604923
20
313.13658502
10
728.443958432
20
313.208520616
10
728.538122186
20
313.282006731
10
728.631070974
20
313.35702369
10
728.722779914
20
313.433551411
10
728.81322445
20
313.511569405
10
728.90238037
20
313.591056785
10
728.990223805
20
313.671992269
10
729.076731236
20
313.75435419
10
729.161879503
20
313.838120497
10
729.24564581
20
313.923268764
10
729.328007731
20
314.009776195
10
729.408943215
20
314.09761963
10
729.488430595
20
314.18677555
10
729.566448589
20
314.277220086
10
729.64297631
20
314.368929026
10
729.717993269
20
314.461877814
10
729.791479384
20
314.556041568
10
729.86341498
20
314.651395077
10
729.933780798
20
314.747912813
10
730.002557999
20
314.845568935
10
730.06972817
20
314.944337299
10
730.135273328
20
315.044191462
10
730.199175925
20
315.14510469
10
730.261418853
20
315.247049967
10
730.321985448
20
315.35
10
730.380859494
20
315.453927226
10
730.43802523
20
315.558803821
10
730.493467351
20
315.664601708
10
730.547171013
20
315.771292561
10
730.59912184
20
315.878847818
10
730.649305922
20
315.987238682
10
730.697709824
20
316.096436136
10
730.744320587
20
316.206410944
10
730.789125733
20
316.317133663
10
730.832113265
20
316.42857465
10
730.873271676
20
316.54070407
10
730.912589945
20
316.653491903
10
730.950057547
20
316.766907953
10
730.985664451
20
316.880921856
10
731.019401123
20
316.995503087
10
731.051258532
20
317.110620971
10
731.081228148
20
317.226244687
10
731.109301949
20
317.34234328
10
731.135472417
20
317.458885668
10
731.159732547
20
317.575840649
10
731.182075843
20
317.693176913
10
731.202496324
20
317.810863044
10
731.220988523
20
317.928867536
10
731.237547488
20
318.047158797
10
731.252168787
20
318.165705156
10
731.264848505
20
318.284474876
10
731.275583247
20
318.403436159
10
731.28437014
20
318.522557157
10
731.29120683
20
318.641805977
10
731.296091489
20
318.761150695
10
731.299022807
20
318.880559359
10
731.3
20
319
10
731.299022807
20
319.119440641
0
LWPOLYLINE
100
AcDbEntity
8
CUT_6MM
100
AcDbPolyline
90
354
70
1
10
806
20
300
10
784
20
300
10
784
20
307.511203006
10
783.967402042
20
307.488244934
10
783.777983262
20
307.359425428
10
783.586482128
20
307.233722385
10
783.392949909
20
307.111169459
10
783.197438419
20
306.99179946
10
783
20
306.875644347
10
782.800687512
20
306.762735217
10
782.599554316
20
306.653102299
10
782.396654259
20
306.546774944
10
782.192041663
20
306.443781619
10
781.985771308
20
306.344149896
10
781.777898417
20
306.247906451
10
781.568478643
20
306.15507705
10
781.357568053
20
306.065686545
10
781.145223112
20
305.979758868
10
780.931500671
20
305.897317025
10
780.716457947
20
305.818383087
10
780.500152514
20
305.742978187
10
780.282642281
20
305.671122512
10
780.063985482
20
305.6028353
10
779.844240655
20
305.538134832
10
779.623466631
20
305.477038432
10
779.401722519
20
305.419562455
10
779.179067682
20
305.36572229
10
778.955561733
20
305.315532351
10
778.731264508
20
305.269006074
10
778.506236058
20
305.226155917
10
778.280536628
20
305.186993351
10
778.054226642
20
305.15152886
10
777.827366691
20
305.119771941
10
777.60001751
20
305.091731094
10
777.372239965
20
305.067413827
10
777.144095038
20
305.04682665
10
776.915643809
20
305.029975075
10
776.686947441
20
305.016863613
10
776.45806716
20
305.007495775
10
776.229064243
20
305.001874069
10
776
20
305
10
775.770935757
20
305.001874069
10
775.54193284
20
305.007495775
10
775.313052559
20
305.016863613
10
775.084356191
20
305.029975075
10
774.855904962
20
305.04682665
10
774.627760035
20
305.067413827
10
774.39998249
20
305.091731094
10
774.172633309
20
305.119771941
10
773.945773358
20
305.15152886
10
773.719463372
20
305.186993351
10
773.493763942
20
305.226155917
10
773.268735492
20
305.269006074
10
773.044438267
20
305.315532351
10
772.820932318
20
305.36572229
10
772.598277481
20
305.419562455
10
772.376533369
20
305.477038432
10
772.155759345
20
305.538134832
10
771.936014518
20
305.6028353
10
771.717357719
20
305.671122512
10
771.499847486
20
305.742978187
10
771.283542053
20
305.818383087
10
771.068499329
20
305.897317025
10
770.854776888
20
305.979758868
10
770.642431947
20
306.065686545
10
770.431521357
20
306.15507705
10
770.222101583
20
306.247906451
10
770.014228692
20
306.344149896
10
769.807958337
20
306.443781619
10
769.603345741
20
306.546774944
10
769.400445684
20
306.653102299
10
769.199312488
20
306.762735217
10
769
20
306.875644347
10
768.802561581
20
306.99179946
10
768.607050091
20
307.111169459
10
768.413517872
20
307.233722385
10
768.222016738
20
307.359425428
10
768.032597958
20
307.488244934
10
767.845312244
20
307.620146416
10
767.660209737
20
307.755094559
10
767.477339994
20
307.893053236
10
767.296751973
20
308.033985511
10
767.118494022
20
308.177853653
10
766.942613865
20
308.324619145
10
766.769158589
20
308.474242695
10
766.598174632
20
308.626684245
10
766.429707772
20
308.781902982
10
766.26380311
20
308.939857351
10
766.100505063
20
309.100505063
10
765.939857351
20
309.26380311
10
765.781902982
20
309.429707772
10
765.626684245
20
309.598174632
10
765.474242695
20
309.769158589
10
765.324619145
20
309.942613865
10
765.177853653
20
310.118494022
10
765.033985511
20
310.296751973
10
764.893053236
20
310.477339994
10
764.755094559
20
310.660209737
10
764.620146416
20
310.845312244
10
764.488244934
20
311.032597958
10
764.359425428
20
311.222016738
10
764.233722385
20
311.413517872
10
764.111169459
20
311.607050091
10
763.99179946
20
311.802561581
10
763.875644347
20
312
10
763.762735217
20
312.199312488
10
763.653102299
20
312.400445684
10
763.546774944
20
312.603345741
10
763.443781619
20
312.807958337
10
763.344149896
20
313.014228692
10
763.247906451
20
313.222101583
10
763.15507705
20
313.431521357
10
763.065686545
20
313.642431947
10
762.979758868
20
313.854776888
10
762.897317025
20
314.068499329
10
762.818383087
20
314.283542053
10
762.742978187
20
314.499847486
10
762.671122512
20
314.717357719
10
762.6028353
20
314.936014518
10
762.538134832
20
315.155759345
10
762.477038432
20
315.376533369
10
762.419562455
20
315.598277481
10
762.36572229
20
315.820932318
10
762.315532351
20
316.044438267
10
762.269006074
20
316.268735492
10
762.226155917
20
316.493763942
10
762.186993351
20
316.719463372
10
762.15152886
20
316.945773358
10
762.119771941
20
317.172633309
10
762.091731094
20
317.39998249
10
762.067413827
20
317.627760035
10
762.04682665
20
317.855904962
10
762.029975075
20
318.084356191
10
762.016863613
20
318.313052559
10
762.007495775
20
318.54193284
10
762.001874069
20
318.770935757
10
762
20
319
10
762.001874069
20
319.229064243
10
762.007495775
20
319.45806716
10
762.016863613
20
319.686947441
10
762.029975075
20
319.915643809
10
762.04682665
20
320.144095038
10
762.067413827
20
320.372239965
10
762.091731094
20
320.60001751
10
762.119771941
20
320.827366691
10
762.15152886
20
321.054226642
10
762.186993351
20
321.280536628
10
762.226155917
20
321.506236058
10
762.269006074
20
321.731264508
10
762.315532351
20
321.955561733
10
762.36572229
20
322.179067682
10
762.419562455
20
322.401722519
10
762.477038432
20
322.623466631
10
762.538134832
20
322.844240655
10
762.6028353
20
323.063985482
10
762.671122512
20
323.282642281
10
762.742978187
20
323.500152514
10
762.818383087
20
323.716457947
10
762.897317025
20
323.931500671
10
762.979758868
20
324.145223112
10
763.065686545
20
324.357568053
10
763.15507705
20
324.568478643
10
763.247906451
20
324.777898417
10
763.344149896
20
324.985771308
10
763.443781619
20
325.192041663
10
763.546774944
20
325.396654259
10
763.653102299
20
325.599554316
10
763.762735217
20
325.800687512
10
763.875644347
20
326
10
763.99179946
20
326.197438419
10
764.111169459
20
326.392949909
10
764.233722385
20
326.586482128
10
764.359425428
20
326.777983262
10
764.488244934
20
326.967402042
10
764.620146416
20
327.154687756
10
764.755094559
20
327.339790263
10
764.893053236
20
327.522660006
10
765.033985511
20
327.703248027
10
765.177853653
20
327.881505978
10
765.324619145
20
328.057386135
10
765.474242695
20
328.230841411
10
765.626684245
20
328.401825368
10
765.781902982
20
328.570292228
10
765.939857351
20
328.73619689
10
766.100505063
20
328.899494937
10
766.26380311
20
329.060142649
10
766.429707772
20
329.218097018
10
766.598174632
20
329.373315755
10
766.769158589
20
329.525757305
10
766.942613865
20
329.675380855
10
767.118494022
20
329.822146347
10
767.296751973
20
329.966014489
10
767.477339994
20
330.106946764
10
767.660209737
20
330.244905441
10
767.845312244
20
330.379853584
10
768.032597958
20
330.511755066
10
768.222016738
20
330.640574572
10
768.413517872
20
330.766277615
10
768.607050091
20
330.888830541
10
768.802561581
20
331.00820054
10
769
20
331.124355653
10
769.199312488
20
331.237264783
10
769.400445684
20
331.346897701
10
769.603345741
20
331.453225056
10
769.807958337
20
331.556218381
10
770.014228692
20
331.655850104
10
770.222101583
20
331.752093549
10
770.431521357
20
331.84492295
10
770.642431947
20
331.934313455
10
770.854776888
20
332.020241132
10
771.068499329
20
332.102682975
10
771.283542053
20
332.181616913
10
771.499847486
20
332.257021813
10
771.717357719
20
332.328877488
10
771.936014518
20
332.3971647
10
772.155759345
20
332.461865168
10
772.376533369
20
332.522961568
10
772.598277481
20
332.580437545
10
772.820932318
20
332.63427771
10
773.044438267
20
332.684467649
10
773.268735492
20
332.730993926
10
773.493763942
20
332.773844083
10
773.719463372
20
332.813006649
10
773.945773358
20
332.84847114
10
774.172633309
20
332.880228059
10
774.39998249
20
332.908268906
10
774.627760035
20
332.932586173
10
774.855904962
20
332.95317335
10
775.084356191
20
332.970024925
10
775.313052559
20
332.983136387
10
775.54193284
20
332.992504225
10
775.770935757
20
332.998125931
10
776
20
333
10
776.229064243
20
332.998125931
10
776.45806716
20
332.992504225
10
776.686947441
20
332.983136387
10
776.915643809
20
332.970024925
10
777.144095038
20
332.95317335
10
777.372239965
20
332.932586173
10
777.60001751
20
332.908268906
10
777.827366691
20
332.880228059
10
778.054226642
20
332.84847114
10
778.280536628
20
332.813006649
10
778.506236058
20
332.773844083
10
778.731264508
20
332.730993926
10
778.955561733
20
332.684467649
10
779.179067682
20
332.63427771
10
779.401722519
20
332.580437545
10
779.623466631
20
332.522961568
10
779.844240655
20
332.461865168
10
780.063985482
20
332.3971647
10
780.282642281
20
332.328877488
10
780.500152514
20
332.257021813
10
780.716457947
20
332.181616913
10
780.931500671
20
332.102682975
10
781.145223112
20
332.020241132
10
781.357568053
20
331.934313455
10
781.568478643
20
331.84492295
10
781.777898417
20
331.752093549
10
781.985771308
20
331.655850104
10
782.192041663
20
331.556218381
10
782.396654259
20
331.453225056
10
782.599554316
20
331.346897701
10
782.800687512
20
331.237264783
10
783
20
331.124355653
10
783.197438419
20
331.00820054
10
783.392949909
20
330.888830541
10
783.586482128
20
330.766277615
10
783.777983262
20
330.640574572
10
783.967402042
20
330.511755066
10
784.154687756
20
330.379853584
10
784.339790263
20
330.244905441
10
784.522660006
20
330.106946764
10
784.703248027
20
329.966014489
10
784.881505978
20
329.822146347
10
785.057386135
20
329.675380855
10
785.230841411
20
329.525757305
10
785.401825368
20
329.373315755
10
785.570292228
20
329.218097018
10
785.73619689
20
329.060142649
10
785.899494937
20
328.899494937
10
786.060142649
20
328.73619689
10
786.218097018
20
328.570292228
10
786.373315755
20
328.401825368
10
786.525757305
20
328.230841411
10
786.675380855
20
328.057386135
10
786.822146347
20
327.881505978
10
786.966014489
20
327.703248027
10
787.106946764
20
327.522660006
10
787.244905441
20
327.339790263
10
787.379853584
20
327.154687756
10
787.511755066
20
326.967402042
10
787.640574572
20
326.777983262
10
787.766277615
20
326.586482128
10
787.888830541
20
326.392949909
10
788.00820054
20
326.197438419
10
788.124355653
20
326
10
788.237264783
20
325.800687512
10
788.346897701
20
325.599554316
10
788.453225056
20
325.396654259
10
788.556218381
20
325.192041663
10
788.655850104
20
324.985771308
10
788.752093549
20
324.777898417
10
788.84492295
20
324.568478643
10
788.934313455
20
324.357568053
10
789.020241132
20
324.145223112
10
789.102682975
20
323.931500671
10
789.181616913
20
323.716457947
10
789.257021813
20
323.500152514
10
789.328877488
20
323.282642281
10
789.3971647
20
323.063985482
10
789.461865168
20
322.844240655
10
789.522961568
20
322.623466631
10
789.580437545
20
322.401722519
10
789.63427771
20
322.179067682
10
789.684467649
20
321.955561733
10
789.730993926
20
321.731264508
10
789.773844083
20
321.506236058
10
789.813006649
20
321.280536628
10
789.84847114
20
321.054226642
10
789.880228059
20
320.827366691
10
789.908268906
20
320.60001751
10
789.932586173
20
320.372239965
10
789.95317335
20
320.144095038
10
789.970024925
20
319.915643809
10
789.983136387
20
319.686947441
10
789.992504225
20
319.45806716
10
789.998125931
20
319.229064243
10
790
20
319
10
789.998125931
20
318.770935757
10
789.992504225
20
318.54193284
10
789.983136387
20
318.313052559
10
789.970024925
20
318.084356191
10
789.95317335
20
317.855904962
10
789.932586173
20
317.627760035
10
789.908268906
20
317.39998249
10
789.880228059
20
317.172633309
10
789.84847114
20
316.945773358
10
789.813006649
20
316.719463372
10
789.773844083
20
316.493763942
10
789.730993926
20
316.268735492
10
789.684467649
20
316.044438267
10
789.63427771
20
315.820932318
10
789.580437545
20
315.598277481
10
789.522961568
20
315.376533369
10
789.461865168
20
315.155759345
10
789.3971647
20
314.936014518
10
789.328877488
20
314.717357719
10
789.257021813
20
314.499847486
10
789.181616913
20
314.283542053
10
789.102682975
20
314.068499329
10
789.076259868
20
314
10
806
20
314
10
806
20
300
0
LWPOLYLINE
100
AcDbEntity
8
CUT_6MM
100
AcDbPolyline
90
385
70
1
10
783.299022807
20
319.119440641
10
783.296091489
20
319.238849305
10
783.29120683
20
319.358194023
10
783.28437014
20
319.477442843
10
783.275583247
20
319.596563841
10
783.264848505
20
319.715525124
10
783.252168787
20
319.834294844
10
783.237547488
20
319.952841203
10
783.220988523
20
320.071132464
10
783.202496324
20
320.189136956
10
783.182075843
20
320.306823087
10
783.159732547
20
320.424159351
10
783.135472417
20
320.541114332
10
783.109301949
20
320.65765672
10
783.081228148
20
320.773755313
10
783.051258532
20
320.889379029
10
783.019401123
20
321.004496913
10
782.985664451
20
321.119078144
10
782.950057547
20
321.233092047
10
782.912589945
20
321.346508097
10
782.873271676
20
321.45929593
10
782.832113265
20
321.57142535
10
782.789125733
20
321.682866337
10
782.744320587
20
321.793589056
10
782.697709824
20
321.903563864
10
782.649305922
20
322.012761318
10
782.59912184
20
322.121152182
10
782.547171013
20
322.228707439
10
782.493467351
20
322.335398292
10
782.43802523
20
322.441196179
10
782.380859494
20
322.546072774
10
782.321985448
20
322.65
10
782.261418853
20
322.752950033
10
782.199175925
20
322.85489531
10
782.135273328
20
322.955808538
10
782.06972817
20
323.055662701
10
782.002557999
20
323.154431065
10
781.933780798
20
323.252087187
10
781.86341498
20
323.348604923
10
781.791479384
20
323.443958432
10
781.717993269
20
323.538122186
10
781.64297631
20
323.631070974
10
781.566448589
20
323.722779914
10
781.488430595
20
323.81322445
10
781.408943215
20
323.90238037
10
781.328007731
20
323.990223805
10
781.24564581
20
324.076731236
10
781.161879503
20
324.161879503
10
781.076731236
20
324.24564581
10
780.990223805
20
324.328007731
10
780.90238037
20
324.408943215
10
780.81322445
20
324.488430595
10
780.722779914
20
324.566448589
10
780.631070974
20
324.64297631
10
780.538122186
20
324.717993269
10
780.443958432
20
324.791479384
10
780.348604923
20
324.86341498
10
780.252087187
20
324.933780798
10
780.154431065
20
325.002557999
10
780.055662701
20
325.06972817
10
779.955808538
20
325.135273328
10
779.85489531
20
325.199175925
10
779.752950033
20
325.261418853
10
779.65
20
325.321985448
10
779.546072774
20
325.380859494
10
779.441196179
20
325.43802523
10
779.335398292
20
325.493467351
10
779.228707439
20
325.547171013
10
779.121152182
20
325.59912184
10
779.012761318
20
325.649305922
10
778.903563864
20
325.697709824
10
778.793589056
20
325.744320587
10
778.682866337
20
325.789125733
10
778.57142535
20
325.832113265
10
778.45929593
20
325.873271676
10
778.346508097
20
325.912589945
10
778.233092047
20
325.950057547
10
778.119078144
20
325.985664451
10
778.004496913
20
326.019401123
10
777.889379029
20
326.051258532
10
777.773755313
20
326.081228148
10
777.65765672
20
326.109301949
10
777.541114332
20
326.135472417
10
777.424159351
20
326.159732547
10
777.306823087
20
326.182075843
10
777.189136956
20
326.202496324
10
777.071132464
20
326.220988523
10
776.952841203
20
326.237547488
10
776.834294844
20
326.252168787
10
776.715525124
20
326.264848505
10
776.596563841
20
326.275583247
10
776.477442843
20
326.28437014
10
776.358194023
20
326.29120683
10
776.238849305
20
326.296091489
10
776.119440641
20
326.299022807
10
776
20
326.3
10
775.880559359
20
326.299022807
10
775.761150695
20
326.296091489
10
775.641805977
20
326.29120683
10
775.522557157
20
326.28437014
10
775.403436159
20
326.275583247
10
775.284474876
20
326.264848505
10
775.165705156
20
326.252168787
10
775.047158797
20
326.237547488
10
774.928867536
20
326.220988523
10
774.810863044
20
326.202496324
10
774.693176913
20
326.182075843
10
774.575840649
20
326.159732547
10
774.458885668
20
326.135472417
10
774.34234328
20
326.109301949
10
774.226244687
20
326.081228148
10
774.110620971
20
326.051258532
10
773.995503087
20
326.019401123
10
773.880921856
20
325.985664451
10
773.766907953
20
325.950057547
10
773.653491903
20
325.912589945
10
773.54070407
20
325.873271676
10
773.42857465
20
325.832113265
10
773.317133663
20
325.789125733
10
773.206410944
20
325.744320587
10
773.096436136
20
325.697709824
10
772.987238682
20
325.649305922
10
772.878847818
20
325.59912184
10
772.771292561
20
325.547171013
10
772.664601708
20
325.493467351
10
772.558803821
20
325.43802523
10
772.453927226
20
325.380859494
10
772.35
20
325.321985448
10
772.247049967
20
325.261418853
10
772.14510469
20
325.199175925
10
772.044191462
20
325.135273328
10
771.944337299
20
325.06972817
10
771.845568935
20
325.002557999
10
771.747912813
20
324.933780798
10
771.651395077
20
324.86341498
10
771.556041568
20
324.791479384
10
771.461877814
20
324.717993269
10
771.368929026
20
324.64297631
10
771.277220086
20
324.566448589
10
771.18677555
20
324.488430595
10
771.09761963
20
324.408943215
10
771.009776195
20
324.328007731
10
770.923268764
20
324.24564581
10
770.838120497
20
324.161879503
10
770.75435419
20
324.076731236
10
770.671992269
20
323.990223805
10
770.591056785
20
323.90238037
10
770.511569405
20
323.81322445
10
770.433551411
20
323.722779914
10
770.35702369
20
323.631070974
10
770.282006731
20
323.538122186
10
770.208520616
20
323.443958432
10
770.13658502
20
323.348604923
10
770.066219202
20
323.252087187
10
769.997442001
20
323.154431065
10
769.93027183
20
323.055662701
10
769.864726672
20
322.955808538
10
769.800824075
20
322.85489531
10
769.738581147
20
322.752950033
10
769.678014552
20
322.65
10
769.619140506
20
322.546072774
10
769.56197477
20
322.441196179
10
769.506532649
20
322.335398292
10
769.452828987
20
322.228707439
10
769.40087816
20
322.121152182
10
769.350694078
20
322.012761318
10
769.302290176
20
321.903563864
10
769.255679413
20
321.793589056
10
769.210874267
20
321.682866337
10
769.167886735
20
321.57142535
10
769.126728324
20
321.45929593
10
769.087410055
20
321.346508097
10
769.049942453
20
321.233092047
10
769.014335549
20
321.119078144
10
768.980598877
20
321.004496913
10
768.948741468
20
320.889379029
10
768.918771852
20
320.773755313
10
768.890698051
20
320.65765672
10
768.864527583
20
320.541114332
10
768.840267453
20
320.424159351
10
768.817924157
20
320.306823087
10
768.797503676
20
320.189136956
10
768.779011477
20
320.071132464
10
768.762452512
20
319.952841203
10
768.747831213
20
319.834294844
10
768.735151495
20
319.715525124
10
768.724416753
20
319.596563841
10
768.71562986
20
319.477442843
10
768.70879317
20
319.358194023
10
768.703908511
20
319.238849305
10
768.700977193
20
319.119440641
10
768.7
20
319
10
768.700977193
20
318.880559359
10
768.703908511
20
318.761150695
10
768.70879317
20
318.641805977
10
768.71562986
20
318.522557157
10
768.724416753
20
318.403436159
10
768.735151495
20
318.284474876
10
768.747831213
20
318.165705156
10
768.762452512
20
318.047158797
10
768.779011477
20
317.928867536
10
768.797503676
20
317.810863044
10
768.817924157
20
317.693176913
10
768.840267453
20
317.575840649
10
768.864527583
20
317.458885668
10
768.890698051
20
317.34234328
10
768.918771852
20
317.226244687
10
768.948741468
20
317.110620971
10
768.980598877
20
316.995503087
10
769.014335549
20
316.880921856
10
769.049942453
20
316.766907953
10
769.087410055
20
316.653491903
10
769.126728324
20
316.54070407
10
769.167886735
20
316.42857465
10
769.210874267
20
316.317133663
10
769.255679413
20
316.206410944
10
769.302290176
20
316.096436136
10
769.350694078
20
315.987238682
10
769.40087816
20
315.878847818
10
769.452828987
20
315.771292561
10
769.506532649
20
315.664601708
10
769.56197477
20
315.558803821
10
769.619140506
20
315.453927226
10
769.678014552
20
315.35
10
769.738581147
20
315.247049967
10
769.800824075
20
315.14510469
10
769.864726672
20
315.044191462
10
769.93027183
20
314.944337299
10
769.997442001
20
314.845568935
10
770.066219202
20
314.747912813
10
770.13658502
20
314.651395077
10
770.208520616
20
314.556041568
10
770.282006731
20
314.461877814
10
770.35702369
20
314.368929026
10
770.433551411
20
314.277220086
10
770.511569405
20
314.18677555
10
770.591056785
20
314.09761963
10
770.671992269
20
314.009776195
10
770.75435419
20
313.923268764
10
770.838120497
20
313.838120497
10
770.923268764
20
313.75435419
10
771.009776195
20
313.671992269
10
771.09761963
20
313.591056785
10
771.18677555
20
313.511569405
10
771.277220086
20
313.433551411
10
771.368929026
20
313.35702369
10
771.461877814
20
313.282006731
10
771.556041568
20
313.208520616
10
771.651395077
20
313.13658502
10
771.747912813
20
313.066219202
10
771.845568935
20
312.997442001
10
771.944337299
20
312.93027183
10
772.044191462
20
312.864726672
10
772.14510469
20
312.800824075
10
772.247049967
20
312.738581147
10
772.35
20
312.678014552
10
772.453927226
20
312.619140506
10
772.558803821
20
312.56197477
10
772.664601708
20
312.506532649
10
772.771292561
20
312.452828987
10
772.878847818
20
312.40087816
10
772.987238682
20
312.350694078
10
773.096436136
20
312.302290176
10
773.206410944
20
312.255679413
10
773.317133663
20
312.210874267
10
773.42857465
20
312.167886735
10
773.54070407
20
312.126728324
10
773.653491903
20
312.087410055
10
773.766907953
20
312.049942453
10
773.880921856
20
312.014335549
10
773.995503087
20
311.980598877
10
774.110620971
20
311.948741468
10
774.226244687
20
311.918771852
10
774.34234328
20
311.890698051
10
774.458885668
20
311.864527583
10
774.575840649
20
311.840267453
10
774.693176913
20
311.817924157
10
774.810863044
20
311.797503676
10
774.928867536
20
311.779011477
10
775.047158797
20
311.762452512
10
775.165705156
20
311.747831213
10
775.284474876
20
311.735151495
10
775.403436159
20
311.724416753
10
775.522557157
20
311.71562986
10
775.641805977
20
311.70879317
10
775.761150695
20
311.703908511
10
775.880559359
20
311.700977193
10
776
20
311.7
10
776.119440641
20
311.700977193
10
776.238849305
20
311.703908511
10
776.358194023
20
311.70879317
10
776.477442843
20
311.71562986
10
776.596563841
20
311.724416753
10
776.715525124
20
311.735151495
10
776.834294844
20
311.747831213
10
776.952841203
20
311.762452512
10
777.071132464
20
311.779011477
10
777.189136956
20
311.797503676
10
777.306823087
20
311.817924157
10
777.424159351
20
311.840267453
10
777.541114332
20
311.864527583
10
777.65765672
20
311.890698051
10
777.773755313
20
311.918771852
10
777.889379029
20
311.948741468
10
778.004496913
20
311.980598877
10
778.119078144
20
312.014335549
10
778.233092047
20
312.049942453
10
778.346508097
20
312.087410055
10
778.45929593
20
312.126728324
10
778.57142535
20
312.167886735
10
778.682866337
20
312.210874267
10
778.793589056
20
312.255679413
10
778.903563864
20
312.302290176
10
779.012761318
20
312.350694078
10
779.121152182
20
312.40087816
10
779.228707439
20
312.452828987
10
779.335398292
20
312.506532649
10
779.441196179
20
312.56197477
10
779.546072774
20
312.619140506
10
779.65
20
312.678014552
10
779.752950033
20
312.738581147
10
779.85489531
20
312.800824075
10
779.955808538
20
312.864726672
10
780.055662701
20
312.93027183
10
780.154431065
20
312.997442001
10
780.252087187
20
313.066219202
10
780.348604923
20
313.13658502
10
780.443958432
20
313.208520616
10
780.538122186
20
313.282006731
10
780.631070974
20
313.35702369
10
780.722779914
20
313.433551411
10
780.81322445
20
313.511569405
10
780.90238037
20
313.591056785
10
780.990223805
20
313.671992269
10
781.076731236
20
313.75435419
10
781.161879503
20
313.838120497
10
781.24564581
20
313.923268764
10
781.328007731
20
314.009776195
10
781.408943215
20
314.09761963
10
781.488430595
20
314.18677555
10
781.566448589
20
314.277220086
10
781.64297631
20
314.368929026
10
781.717993269
20
314.461877814
10
781.791479384
20
314.556041568
10
781.86341498
20
314.651395077
10
781.933780798
20
314.747912813
10
782.002557999
20
314.845568935
10
782.06972817
20
314.944337299
10
782.135273328
20
315.044191462
10
782.199175925
20
315.14510469
10
782.261418853
20
315.247049967
10
782.321985448
20
315.35
10
782.380859494
20
315.453927226
10
782.43802523
20
315.558803821
10
782.493467351
20
315.664601708
10
782.547171013
20
315.771292561
10
782.59912184
20
315.878847818
10
782.649305922
20
315.987238682
10
782.697709824
20
316.096436136
10
782.744320587
20
316.206410944
10
782.789125733
20
316.317133663
10
782.832113265
20
316.42857465
10
782.873271676
20
316.54070407
10
782.912589945
20
316.653491903
10
782.950057547
20
316.766907953
10
782.985664451
20
316.880921856
10
783.019401123
20
316.995503087
10
783.051258532
20
317.110620971
10
783.081228148
20
317.226244687
10
783.109301949
20
317.34234328
10
783.135472417
20
317.458885668
10
783.159732547
20
317.575840649
10
783.182075843
20
317.693176913
10
783.202496324
20
317.810863044
10
783.220988523
20
317.928867536
10
783.237547488
20
318.047158797
10
783.252168787
20
318.165705156
10
783.264848505
20
318.284474876
10
783.275583247
20
318.403436159
10
783.28437014
20
318.522557157
10
783.29120683
20
318.641805977
10
783.296091489
20
318.761150695
10
783.299022807
20
318.880559359
10
783.3
20
319
10
783.299022807
20
319.119440641
0
LWPOLYLINE
100
AcDbEntity
8
CUT_6MM
100
AcDbPolyline
90
385
70
1
10
724
20
357
10
723.999062965
20
356.885467879
10
723.996252112
20
356.77096642
10
723.991568193
20
356.65652628
10
723.985012463
20
356.542178095
10
723.976586675
20
356.427952481
10
723.966293087
20
356.313880018
10
723.954134453
20
356.199991245
10
723.94011403
20
356.086316654
10
723.92423557
20
355.972886679
10
723.906503325
20
355.859731686
10
723.886922041
20
355.746881971
10
723.865496963
20
355.634367746
10
723.842233825
20
355.522219133
10
723.817138855
20
355.410466159
10
723.790218772
20
355.299138741
10
723.761480784
20
355.188266684
10
723.730932584
20
355.077879673
10
723.69858235
20
354.968007259
10
723.664438744
20
354.858678859
10
723.628510906
20
354.749923743
10
723.590808456
20
354.641771026
10
723.551341487
20
354.534249665
10
723.510120566
20
354.427388444
10
723.467156728
20
354.321215973
10
723.422461475
20
354.215760678
10
723.376046774
20
354.111050791
10
723.327925052
20
354.007114346
10
723.278109191
20
353.903979168
10
723.226612528
20
353.801672871
10
723.17344885
20
353.700222842
10
723.118632391
20
353.599656244
10
723.062177826
20
353.5
10
723.00410027
20
353.401280791
10
722.944415271
20
353.303525045
10
722.883138808
20
353.206758936
10
722.820287286
20
353.111008369
10
722.755877533
20
353.016298979
10
722.689926792
20
352.922656122
10
722.62245272
20
352.830104869
10
722.553473382
20
352.738669997
10
722.483007245
20
352.648375986
10
722.411073174
20
352.559247011
10
722.337690427
20
352.471306932
10
722.262878652
20
352.384579294
10
722.186657877
20
352.299087316
10
722.109048509
20
352.214853886
10
722.030071324
20
352.131901555
10
721.949747468
20
352.050252532
10
721.868098445
20
351.969928676
10
721.785146114
20
351.890951491
10
721.700912684
20
351.813342123
10
721.615420706
20
351.737121348
10
721.528693068
20
351.662309573
10
721.440752989
20
351.588926826
10
721.351624014
20
351.516992755
10
721.261330003
20
351.446526618
10
721.169895131
20
351.37754728
10
721.077343878
20
351.310073208
10
720.983701021
20
351.244122467
10
720.888991631
20
351.179712714
10
720.793241064
20
351.116861192
10
720.696474955
20
351.055584729
10
720.598719209
20
350.99589973
10
720.5
20
350.937822174
10
720.400343756
20
350.881367609
10
720.299777158
20
350.82655115
10
720.198327129
20
350.773387472
10
720.096020832
20
350.721890809
10
719.992885654
20
350.672074948
10
719.888949209
20
350.623953226
10
719.784239322
20
350.577538525
10
719.678784027
20
350.532843272
10
719.572611556
20
350.489879434
10
719.465750335
20
350.448658513
10
719.358228974
20
350.409191544
10
719.250076257
20
350.371489094
10
719.141321141
20
350.335561256
10
719.031992741
20
350.30141765
10
718.922120327
20
350.269067416
10
718.811733316
20
350.238519216
10
718.700861259
20
350.209781228
10
718.589533841
20
350.182861145
10
718.477780867
20
350.157766175
10
718.365632254
20
350.134503037
10
718.253118029
20
350.113077959
10
718.140268314
20
350.093496675
10
718.027113321
20
350.07576443
10
717.913683346
20
350.05988597
10
717.800008755
20
350.045865547
10
717.686119982
20
350.033706913
10
717.572047519
20
350.023413325
10
717.457821905
20
350.014987537
10
717.34347372
20
350.008431807
10
717.22903358
20
350.003747888
10
717.114532121
20
350.000937035
10
717
20
350
10
716.885467879
20
350.000937035
10
716.77096642
20
350.003747888
10
716.65652628
20
350.008431807
10
716.542178095
20
350.014987537
10
716.427952481
20
350.023413325
10
716.313880018
20
350.033706913
10
716.199991245
20
350.045865547
10
716.086316654
20
350.05988597
10
715.972886679
20
350.07576443
10
715.859731686
20
350.093496675
10
715.746881971
20
350.113077959
10
715.634367746
20
350.134503037
10
715.522219133
20
350.157766175
10
715.410466159
20
350.182861145
10
715.299138741
20
350.209781228
10
715.188266684
20
350.238519216
10
715.077879673
20
350.269067416
10
714.968007259
20
350.30141765
10
714.858678859
20
350.335561256
10
714.749923743
20
350.371489094
10
714.641771026
20
350.409191544
10
714.534249665
20
350.448658513
10
714.427388444
20
350.489879434
10
714.321215973
20
350.532843272
10
714.215760678
20
350.577538525
10
714.111050791
20
350.623953226
10
714.007114346
20
350.672074948
10
713.903979168
20
350.721890809
10
713.801672871
20
350.773387472
10
713.700222842
20
350.82655115
10
713.599656244
20
350.881367609
10
713.5
20
350.937822174
10
713.401280791
20
350.99589973
10
713.303525045
20
351.055584729
10
713.206758936
20
351.116861192
10
713.111008369
20
351.179712714
10
713.016298979
20
351.244122467
10
712.922656122
20
351.310073208
10
712.830104869
20
351.37754728
10
712.738669997
20
351.446526618
10
712.648375986
20
351.516992755
10
712.559247011
20
351.588926826
10
712.471306932
20
351.662309573
10
712.384579294
20
351.737121348
10
712.299087316
20
351.813342123
10
712.214853886
20
351.890951491
10
712.131901555
20
351.969928676
10
712.050252532
20
352.050252532
10
711.969928676
20
352.131901555
10
711.890951491
20
352.214853886
10
711.813342123
20
352.299087316
10
711.737121348
20
352.384579294
10
711.662309573
20
352.471306932
10
711.588926826
20
352.559247011
10
711.516992755
20
352.648375986
10
711.446526618
20
352.738669997
10
711.37754728
20
352.830104869
10
711.310073208
20
352.922656122
10
711.244122467
20
353.016298979
10
711.179712714
20
353.111008369
10
711.116861192
20
353.206758936
10
711.055584729
20
353.303525045
10
710.99589973
20
353.401280791
10
710.937822174
20
353.5
10
710.881367609
20
353.599656244
10
710.82655115
20
353.700222842
10
710.773387472
20
353.801672871
10
710.721890809
20
353.903979168
10
710.672074948
20
354.007114346
10
710.623953226
20
354.111050791
10
710.577538525
20
354.215760678
10
710.532843272
20
354.321215973
10
710.489879434
20
354.427388444
10
710.448658513
20
354.534249665
10
710.409191544
20
354.641771026
10
710.371489094
20
354.749923743
10
710.335561256
20
354.858678859
10
710.30141765
20
354.968007259
10
710.269067416
20
355.077879673
10
710.238519216
20
355.188266684
10
710.209781228
20
355.299138741
10
710.182861145
20
355.410466159
10
710.157766175
20
355.522219133
10
710.134503037
20
355.634367746
10
710.113077959
20
355.746881971
10
710.093496675
20
355.859731686
10
710.07576443
20
355.972886679
10
710.05988597
20
356.086316654
10
710.045865547
20
356.199991245
10
710.033706913
20
356.313880018
10
710.023413325
20
356.427952481
10
710.014987537
20
356.542178095
10
710.008431807
20
356.65652628
10
710.003747888
20
356.77096642
10
710.000937035
20
356.885467879
10
710
20
357
10
710.000937035
20
357.114532121
10
710.003747888
20
357.22903358
10
710.008431807
20
357.34347372
10
710.014987537
20
357.457821905
10
710.023413325
20
357.572047519
10
710.033706913
20
357.686119982
10
710.045865547
20
357.800008755
10
710.05988597
20
357.913683346
10
710.07576443
20
358.027113321
10
710.093496675
20
358.140268314
10
710.113077959
20
358.253118029
10
710.134503037
20
358.365632254
10
710.157766175
20
358.477780867
10
710.182861145
20
358.589533841
10
710.209781228
20
358.700861259
10
710.238519216
20
358.811733316
10
710.269067416
20
358.922120327
10
710.30141765
20
359.031992741
10
710.335561256
20
359.141321141
10
710.371489094
20
359.250076257
10
710.409191544
20
359.358228974
10
710.448658513
20
359.465750335
10
710.489879434
20
359.572611556
10
710.532843272
20
359.678784027
10
710.577538525
20
359.784239322
10
710.623953226
20
359.888949209
10
710.672074948
20
359.992885654
10
710.721890809
20
360.096020832
10
710.773387472
20
360.198327129
10
710.82655115
20
360.299777158
10
710.881367609
20
360.400343756
10
710.937822174
20
360.5
10
710.99589973
20
360.598719209
10
711.055584729
20
360.696474955
10
711.116861192
20
360.793241064
10
711.179712714
20
360.888991631
10
711.244122467
20
360.983701021
10
711.310073208
20
361.077343878
10
711.37754728
20
361.169895131
10
711.446526618
20
361.261330003
10
711.516992755
20
361.351624014
10
711.588926826
20
361.440752989
10
711.662309573
20
361.528693068
10
711.737121348
20
361.615420706
10
711.813342123
20
361.700912684
10
711.890951491
20
361.785146114
10
711.969928676
20
361.868098445
10
712.050252532
20
361.949747468
10
712.131901555
20
362.030071324
10
712.214853886
20
362.109048509
10
712.299087316
20
362.186657877
10
712.384579294
20
362.262878652
10
712.471306932
20
362.337690427
10
712.559247011
20
362.411073174
10
712.648375986
20
362.483007245
10
712.738669997
20
362.553473382
10
712.830104869
20
362.62245272
10
712.922656122
20
362.689926792
10
713.016298979
20
362.755877533
10
713.111008369
20
362.820287286
10
713.206758936
20
362.883138808
10
713.303525045
20
362.944415271
10
713.401280791
20
363.00410027
10
713.5
20
363.062177826
10
713.599656244
20
363.118632391
10
713.700222842
20
363.17344885
10
713.801672871
20
363.226612528
10
713.903979168
20
363.278109191
10
714.007114346
20
363.327925052
10
714.111050791
20
363.376046774
10
714.215760678
20
363.422461475
10
714.321215973
20
363.467156728
10
714.427388444
20
363.510120566
10
714.534249665
20
363.551341487
10
714.641771026
20
363.590808456
10
714.749923743
20
363.628510906
10
714.858678859
20
363.664438744
10
714.968007259
20
363.69858235
10
715.077879673
20
363.730932584
10
715.188266684
20
363.761480784
10
715.299138741
20
363.790218772
10
715.410466159
20
363.817138855
10
715.522219133
20
363.842233825
10
715.634367746
20
363.865496963
10
715.746881971
20
363.886922041
10
715.859731686
20
363.906503325
10
715.972886679
20
363.92423557
10
716.086316654
20
363.94011403
10
716.199991245
20
363.954134453
10
716.313880018
20
363.966293087
10
716.427952481
20
363.976586675
10
716.542178095
20
363.985012463
10
716.65652628
20
363.991568193
10
716.77096642
20
363.996252112
10
716.885467879
20
363.999062965
10
717
20
364
10
717.114532121
20
363.999062965
10
717.22903358
20
363.996252112
10
717.34347372
20
363.991568193
10
717.457821905
20
363.985012463
10
717.572047519
20
363.976586675
10
717.686119982
20
363.966293087
10
717.800008755
20
363.954134453
10
717.913683346
20
363.94011403
10
718.027113321
20
363.92423557
10
718.140268314
20
363.906503325
10
718.253118029
20
363.886922041
10
718.365632254
20
363.865496963
10
718.477780867
20
363.842233825
10
718.589533841
20
363.817138855
10
718.700861259
20
363.790218772
10
718.811733316
20
363.761480784
10
718.922120327
20
363.730932584
10
719.031992741
20
363.69858235
10
719.141321141
20
363.664438744
10
719.250076257
20
363.628510906
10
719.358228974
20
363.590808456
10
719.465750335
20
363.551341487
10
719.572611556
20
363.510120566
10
719.678784027
20
363.467156728
10
719.784239322
20
363.422461475
10
719.888949209
20
363.376046774
10
719.992885654
20
363.327925052
10
720.096020832
20
363.278109191
10
720.198327129
20
363.226612528
10
720.299777158
20
363.17344885
10
720.400343756
20
363.118632391
10
720.5
20
363.062177826
10
720.598719209
20
363.00410027
10
720.696474955
20
362.944415271
10
720.793241064
20
362.883138808
10
720.888991631
20
362.820287286
10
720.983701021
20
362.755877533
10
721.077343878
20
362.689926792
10
721.169895131
20
362.62245272
10
721.261330003
20
362.553473382
10
721.351624014
20
362.483007245
10
721.440752989
20
362.411073174
10
721.528693068
20
362.337690427
10
721.615420706
20
362.262878652
10
721.700912684
20
362.186657877
10
721.785146114
20
362.109048509
10
721.868098445
20
362.030071324
10
721.949747468
20
361.949747468
10
722.030071324
20
361.868098445
10
722.109048509
20
361.785146114
10
722.186657877
20
361.700912684
10
722.262878652
20
361.615420706
10
722.337690427
20
361.528693068
10
722.411073174
20
361.440752989
10
722.483007245
20
361.351624014
10
722.553473382
20
361.261330003
10
722.62245272
20
361.169895131
10
722.689926792
20
361.077343878
10
722.755877533
20
360.983701021
10
722.820287286
20
360.888991631
10
722.883138808
20
360.793241064
10
722.944415271
20
360.696474955
10
723.00410027
20
360.598719209
10
723.062177826
20
360.5
10
723.118632391
20
360.400343756
10
723.17344885
20
360.299777158
10
723.226612528
20
360.198327129
10
723.278109191
20
360.096020832
10
723.327925052
20
359.992885654
10
723.376046774
20
359.888949209
10
723.422461475
20
359.784239322
10
723.467156728
20
359.678784027
10
723.510120566
20
359.572611556
10
723.551341487
20
359.465750335
10
723.590808456
20
359.358228974
10
723.628510906
20
359.250076257
10
723.664438744
20
359.141321141
10
723.69858235
20
359.031992741
10
723.730932584
20
358.922120327
10
723.761480784
20
358.811733316
10
723.790218772
20
358.700861259
10
723.817138855
20
358.589533841
10
723.842233825
20
358.477780867
10
723.865496963
20
358.365632254
10
723.886922041
20
358.253118029
10
723.906503325
20
358.140268314
10
723.92423557
20
358.027113321
10
723.94011403
20
357.913683346
10
723.954134453
20
357.800008755
10
723.966293087
20
357.686119982
10
723.976586675
20
357.572047519
10
723.985012463
20
357.457821905
10
723.991568193
20
357.34347372
10
723.996252112
20
357.22903358
10
723.999062965
20
357.114532121
10
724
20
357
0
LWPOLYLINE
100
AcDbEntity
8
CUT_6MM
100
AcDbPolyline
90
385
70
1
10
752
20
357
10
751.999062965
20
356.885467879
10
751.996252112
20
356.77096642
10
751.991568193
20
356.65652628
10
751.985012463
20
356.542178095
10
751.976586675
20
356.427952481
10
751.966293087
20
356.313880018
10
751.954134453
20
356.199991245
10
751.94011403
20
356.086316654
10
751.92423557
20
355.972886679
10
751.906503325
20
355.859731686
10
751.886922041
20
355.746881971
10
751.865496963
20
355.634367746
10
751.842233825
20
355.522219133
10
751.817138855
20
355.410466159
10
751.790218772
20
355.299138741
10
751.761480784
20
355.188266684
10
751.730932584
20
355.077879673
10
751.69858235
20
354.968007259
10
751.664438744
20
354.858678859
10
751.628510906
20
354.749923743
10
751.590808456
20
354.641771026
10
751.551341487
20
354.534249665
10
751.510120566
20
354.427388444
10
751.467156728
20
354.321215973
10
751.422461475
20
354.215760678
10
751.376046774
20
354.111050791
10
751.327925052
20
354.007114346
10
751.278109191
20
353.903979168
10
751.226612528
20
353.801672871
10
751.17344885
20
353.700222842
10
751.118632391
20
353.599656244
10
751.062177826
20
353.5
10
751.00410027
20
353.401280791
10
750.944415271
20
353.303525045
10
750.883138808
20
353.206758936
10
750.820287286
20
353.111008369
10
750.755877533
20
353.016298979
10
750.689926792
20
352.922656122
10
750.62245272
20
352.830104869
10
750.553473382
20
352.738669997
10
750.483007245
20
352.648375986
10
750.411073174
20
352.559247011
10
750.337690427
20
352.471306932
10
750.262878652
20
352.384579294
10
750.186657877
20
352.299087316
10
750.109048509
20
352.214853886
10
750.030071324
20
352.131901555
10
749.949747468
20
352.050252532
10
749.868098445
20
351.969928676
10
749.785146114
20
351.890951491
10
749.700912684
20
351.813342123
10
749.615420706
20
351.737121348
10
749.528693068
20
351.662309573
10
749.440752989
20
351.588926826
10
749.351624014
20
351.516992755
10
749.261330003
20
351.446526618
10
749.169895131
20
351.37754728
10
749.077343878
20
351.310073208
10
748.983701021
20
351.244122467
10
748.888991631
20
351.179712714
10
748.793241064
20
351.116861192
10
748.696474955
20
351.055584729
10
748.598719209
20
350.99589973
10
748.5
20
350.937822174
10
748.400343756
20
350.881367609
10
748.299777158
20
350.82655115
10
748.198327129
20
350.773387472
10
748.096020832
20
350.721890809
10
747.992885654
20
350.672074948
10
747.888949209
20
350.623953226
10
747.784239322
20
350.577538525
10
747.678784027
20
350.532843272
10
747.572611556
20
350.489879434
10
747.465750335
20
350.448658513
10
747.358228974
20
350.409191544
10
747.250076257
20
350.371489094
10
747.141321141
20
350.335561256
10
747.031992741
20
350.30141765
10
746.922120327
20
350.269067416
10
746.811733316
20
350.238519216
10
746.700861259
20
350.209781228
10
746.589533841
20
350.182861145
10
746.477780867
20
350.157766175
10
746.365632254
20
350.134503037
10
746.253118029
20
350.113077959
10
746.140268314
20
350.093496675
10
746.027113321
20
350.07576443
10
745.913683346
20
350.05988597
10
745.800008755
20
350.045865547
10
745.686119982
20
350.033706913
10
745.572047519
20
350.023413325
10
745.457821905
20
350.014987537
10
745.34347372
20
350.008431807
10
745.22903358
20
350.003747888
10
745.114532121
20
350.000937035
10
745
20
350
10
744.885467879
20
350.000937035
10
744.77096642
20
350.003747888
10
744.65652628
20
350.008431807
10
744.542178095
20
350.014987537
10
744.427952481
20
350.023413325
10
744.313880018
20
350.033706913
10
744.199991245
20
350.045865547
10
744.086316654
20
350.05988597
10
743.972886679
20
350.07576443
10
743.859731686
20
350.093496675
10
743.746881971
20
350.113077959
10
743.634367746
20
350.134503037
10
743.522219133
20
350.157766175
10
743.410466159
20
350.182861145
10
743.299138741
20
350.209781228
10
743.188266684
20
350.238519216
10
743.077879673
20
350.269067416
10
742.968007259
20
350.30141765
10
742.858678859
20
350.335561256
10
742.749923743
20
350.371489094
10
742.641771026
20
350.409191544
10
742.534249665
20
350.448658513
10
742.427388444
20
350.489879434
10
742.321215973
20
350.532843272
10
742.215760678
20
350.577538525
10
742.111050791
20
350.623953226
10
742.007114346
20
350.672074948
10
741.903979168
20
350.721890809
10
741.801672871
20
350.773387472
10
741.700222842
20
350.82655115
10
741.599656244
20
350.881367609
10
741.5
20
350.937822174
10
741.401280791
20
350.99589973
10
741.303525045
20
351.055584729
10
741.206758936
20
351.116861192
10
741.111008369
20
351.179712714
10
741.016298979
20
351.244122467
10
740.922656122
20
351.310073208
10
740.830104869
20
351.37754728
10
740.738669997
20
351.446526618
10
740.648375986
20
351.516992755
10
740.559247011
20
351.588926826
10
740.471306932
20
351.662309573
10
740.384579294
20
351.737121348
10
740.299087316
20
351.813342123
10
740.214853886
20
351.890951491
10
740.131901555
20
351.969928676
10
740.050252532
20
352.050252532
10
739.969928676
20
352.131901555
10
739.890951491
20
352.214853886
10
739.813342123
20
352.299087316
10
739.737121348
20
352.384579294
10
739.662309573
20
352.471306932
10
739.588926826
20
352.559247011
10
739.516992755
20
352.648375986
10
739.446526618
20
352.738669997
10
739.37754728
20
352.830104869
10
739.310073208
20
352.922656122
10
739.244122467
20
353.016298979
10
739.179712714
20
353.111008369
10
739.116861192
20
353.206758936
10
739.055584729
20
353.303525045
10
738.99589973
20
353.401280791
10
738.937822174
20
353.5
10
738.881367609
20
353.599656244
10
738.82655115
20
353.700222842
10
738.773387472
20
353.801672871
10
738.721890809
20
353.903979168
10
738.672074948
20
354.007114346
10
738.623953226
20
354.111050791
10
738.577538525
20
354.215760678
10
738.532843272
20
354.321215973
10
738.489879434
20
354.427388444
10
738.448658513
20
354.534249665
10
738.409191544
20
354.641771026
10
738.371489094
20
354.749923743
10
738.335561256
20
354.858678859
10
738.30141765
20
354.968007259
10
738.269067416
20
355.077879673
10
738.238519216
20
355.188266684
10
738.209781228
20
355.299138741
10
738.182861145
20
355.410466159
10
738.157766175
20
355.522219133
10
738.134503037
20
355.634367746
10
738.113077959
20
355.746881971
10
738.093496675
20
355.859731686
10
738.07576443
20
355.972886679
10
738.05988597
20
356.086316654
10
738.045865547
20
356.199991245
10
738.033706913
20
356.313880018
10
738.023413325
20
356.427952481
10
738.014987537
20
356.542178095
10
738.008431807
20
356.65652628
10
738.003747888
20
356.77096642
10
738.000937035
20
356.885467879
10
738
20
357
10
738.000937035
20
357.114532121
10
738.003747888
20
357.22903358
10
738.008431807
20
357.34347372
10
738.014987537
20
357.457821905
10
738.023413325
20
357.572047519
10
738.033706913
20
357.686119982
10
738.045865547
20
357.800008755
10
738.05988597
20
357.913683346
10
738.07576443
20
358.027113321
10
738.093496675
20
358.140268314
10
738.113077959
20
358.253118029
10
738.134503037
20
358.365632254
10
738.157766175
20
358.477780867
10
738.182861145
20
358.589533841
10
738.209781228
20
358.700861259
10
738.238519216
20
358.811733316
10
738.269067416
20
358.922120327
10
738.30141765
20
359.031992741
10
738.335561256
20
359.141321141
10
738.371489094
20
359.250076257
10
738.409191544
20
359.358228974
10
738.448658513
20
359.465750335
10
738.489879434
20
359.572611556
10
738.532843272
20
359.678784027
10
738.577538525
20
359.784239322
10
738.623953226
20
359.888949209
10
738.672074948
20
359.992885654
10
738.721890809
20
360.096020832
10
738.773387472
20
360.198327129
10
738.82655115
20
360.299777158
10
738.881367609
20
360.400343756
10
738.937822174
20
360.5
10
738.99589973
20
360.598719209
10
739.055584729
20
360.696474955
10
739.116861192
20
360.793241064
10
739.179712714
20
360.888991631
10
739.244122467
20
360.983701021
10
739.310073208
20
361.077343878
10
739.37754728
20
361.169895131
10
739.446526618
20
361.261330003
10
739.516992755
20
361.351624014
10
739.588926826
20
361.440752989
10
739.662309573
20
361.528693068
10
739.737121348
20
361.615420706
10
739.813342123
20
361.700912684
10
739.890951491
20
361.785146114
10
739.969928676
20
361.868098445
10
740.050252532
20
361.949747468
10
740.131901555
20
362.030071324
10
740.214853886
20
362.109048509
10
740.299087316
20
362.186657877
10
740.384579294
20
362.262878652
10
740.471306932
20
362.337690427
10
740.559247011
20
362.411073174
10
740.648375986
20
362.483007245
10
740.738669997
20
362.553473382
10
740.830104869
20
362.62245272
10
740.922656122
20
362.689926792
10
741.016298979
20
362.755877533
10
741.111008369
20
362.820287286
10
741.206758936
20
362.883138808
10
741.303525045
20
362.944415271
10
741.401280791
20
363.00410027
10
741.5
20
363.062177826
10
741.599656244
20
363.118632391
10
741.700222842
20
363.17344885
10
741.801672871
20
363.226612528
10
741.903979168
20
363.278109191
10
742.007114346
20
363.327925052
10
742.111050791
20
363.376046774
10
742.215760678
20
363.422461475
10
742.321215973
20
363.467156728
10
742.427388444
20
363.510120566
10
742.534249665
20
363.551341487
10
742.641771026
20
363.590808456
10
742.749923743
20
363.628510906
10
742.858678859
20
363.664438744
10
742.968007259
20
363.69858235
10
743.077879673
20
363.730932584
10
743.188266684
20
363.761480784
10
743.299138741
20
363.790218772
10
743.410466159
20
363.817138855
10
743.522219133
20
363.842233825
10
743.634367746
20
363.865496963
10
743.746881971
20
363.886922041
10
743.859731686
20
363.906503325
10
743.972886679
20
363.92423557
10
744.086316654
20
363.94011403
10
744.199991245
20
363.954134453
10
744.313880018
20
363.966293087
10
744.427952481
20
363.976586675
10
744.542178095
20
363.985012463
10
744.65652628
20
363.991568193
10
744.77096642
20
363.996252112
10
744.885467879
20
363.999062965
10
745
20
364
10
745.114532121
20
363.999062965
10
745.22903358
20
363.996252112
10
745.34347372
20
363.991568193
10
745.457821905
20
363.985012463
10
745.572047519
20
363.976586675
10
745.686119982
20
363.966293087
10
745.800008755
20
363.954134453
10
745.913683346
20
363.94011403
10
746.027113321
20
363.92423557
10
746.140268314
20
363.906503325
10
746.253118029
20
363.886922041
10
746.365632254
20
363.865496963
10
746.477780867
20
363.842233825
10
746.589533841
20
363.817138855
10
746.700861259
20
363.790218772
10
746.811733316
20
363.761480784
10
746.922120327
20
363.730932584
10
747.031992741
20
363.69858235
10
747.141321141
20
363.664438744
10
747.250076257
20
363.628510906
10
747.358228974
20
363.590808456
10
747.465750335
20
363.551341487
10
747.572611556
20
363.510120566
10
747.678784027
20
363.467156728
10
747.784239322
20
363.422461475
10
747.888949209
20
363.376046774
10
747.992885654
20
363.327925052
10
748.096020832
20
363.278109191
10
748.198327129
20
363.226612528
10
748.299777158
20
363.17344885
10
748.400343756
20
363.118632391
10
748.5
20
363.062177826
10
748.598719209
20
363.00410027
10
748.696474955
20
362.944415271
10
748.793241064
20
362.883138808
10
748.888991631
20
362.820287286
10
748.983701021
20
362.755877533
10
749.077343878
20
362.689926792
10
749.169895131
20
362.62245272
10
749.261330003
20
362.553473382
10
749.351624014
20
362.483007245
10
749.440752989
20
362.411073174
10
749.528693068
20
362.337690427
10
749.615420706
20
362.262878652
10
749.700912684
20
362.186657877
10
749.785146114
20
362.109048509
10
749.868098445
20
362.030071324
10
749.949747468
20
361.949747468
10
750.030071324
20
361.868098445
10
750.109048509
20
361.785146114
10
750.186657877
20
361.700912684
10
750.262878652
20
361.615420706
10
750.337690427
20
361.528693068
10
750.411073174
20
361.440752989
10
750.483007245
20
361.351624014
10
750.553473382
20
361.261330003
10
750.62245272
20
361.169895131
10
750.689926792
20
361.077343878
10
750.755877533
20
360.983701021
10
750.820287286
20
360.888991631
10
750.883138808
20
360.793241064
10
750.944415271
20
360.696474955
10
751.00410027
20
360.598719209
10
751.062177826
20
360.5
10
751.118632391
20
360.400343756
10
751.17344885
20
360.299777158
10
751.226612528
20
360.198327129
10
751.278109191
20
360.096020832
10
751.327925052
20
359.992885654
10
751.376046774
20
359.888949209
10
751.422461475
20
359.784239322
10
751.467156728
20
359.678784027
10
751.510120566
20
359.572611556
10
751.551341487
20
359.465750335
10
751.590808456
20
359.358228974
10
751.628510906
20
359.250076257
10
751.664438744
20
359.141321141
10
751.69858235
20
359.031992741
10
751.730932584
20
358.922120327
10
751.761480784
20
358.811733316
10
751.790218772
20
358.700861259
10
751.817138855
20
358.589533841
10
751.842233825
20
358.477780867
10
751.865496963
20
358.365632254
10
751.886922041
20
358.253118029
10
751.906503325
20
358.140268314
10
751.92423557
20
358.027113321
10
751.94011403
20
357.913683346
10
751.954134453
20
357.800008755
10
751.966293087
20
357.686119982
10
751.976586675
20
357.572047519
10
751.985012463
20
357.457821905
10
751.991568193
20
357.34347372
10
751.996252112
20
357.22903358
10
751.999062965
20
357.114532121
10
752
20
357
0
LWPOLYLINE
100
AcDbEntity
8
CUT_6MM
100
AcDbPolyline
90
385
70
1
10
802
20
357
10
801.998527517
20
356.820020952
10
801.994110462
20
356.640090089
10
801.986750018
20
356.460255582
10
801.976448156
20
356.280565578
10
801.963207632
20
356.101068185
10
801.947031993
20
355.921811456
10
801.927925569
20
355.742843385
10
801.905893475
20
355.564211886
10
801.88094161
20
355.385964781
10
801.853076653
20
355.208149793
10
801.822306065
20
355.030814526
10
801.788638084
20
354.854006458
10
801.752081724
20
354.677772924
10
801.712646772
20
354.502161107
10
801.670343785
20
354.327218021
10
801.625184089
20
354.152990504
10
801.577179775
20
353.9795252
10
801.526343693
20
353.80686855
10
801.472689455
20
353.635066779
10
801.416231424
20
353.464165882
10
801.356984717
20
353.294211613
10
801.294965194
20
353.125249473
10
801.230189461
20
352.957324697
10
801.162674858
20
352.790482244
10
801.092439461
20
352.62476678
10
801.019502074
20
352.460222672
10
800.943882224
20
352.296893972
10
800.865600157
20
352.134824408
10
800.78467683
20
351.974057368
10
800.701133908
20
351.814635895
10
800.614993758
20
351.656602669
10
800.526279442
20
351.5
10
800.43501471
20
351.344869814
10
800.341223997
20
351.191253643
10
800.244932412
20
351.039192614
10
800.146165735
20
350.888727437
10
800.044950409
20
350.739898395
10
799.941313531
20
350.592745334
10
799.835282846
20
350.447307651
10
799.726886743
20
350.303624281
10
799.616154242
20
350.161733693
10
799.503114987
20
350.021673874
10
799.387799243
20
349.883482322
10
799.270237882
20
349.747196034
10
799.150462379
20
349.612851497
10
799.0285048
20
349.480484678
10
798.904397796
20
349.350131015
10
798.778174593
20
349.221825407
10
798.649868985
20
349.095602204
10
798.519515322
20
348.9714952
10
798.387148503
20
348.849537621
10
798.252803966
20
348.729762118
10
798.116517678
20
348.612200757
10
797.978326126
20
348.496885013
10
797.838266307
20
348.383845758
10
797.696375719
20
348.273113257
10
797.552692349
20
348.164717154
10
797.407254666
20
348.058686469
10
797.260101605
20
347.955049591
10
797.111272563
20
347.853834265
10
796.960807386
20
347.755067588
10
796.808746357
20
347.658776003
10
796.655130186
20
347.56498529
10
796.5
20
347.473720558
10
796.343397331
20
347.385006242
10
796.185364105
20
347.298866092
10
796.025942632
20
347.21532317
10
795.865175592
20
347.134399843
10
795.703106028
20
347.056117776
10
795.539777328
20
346.980497926
10
795.37523322
20
346.907560539
10
795.209517756
20
346.837325142
10
795.042675303
20
346.769810539
10
794.874750527
20
346.705034806
10
794.705788387
20
346.643015283
10
794.535834118
20
346.583768576
10
794.364933221
20
346.527310545
10
794.19313145
20
346.473656307
10
794.0204748
20
346.422820225
10
793.847009496
20
346.374815911
10
793.672781979
20
346.329656215
10
793.497838893
20
346.287353228
10
793.322227076
20
346.247918276
10
793.145993542
20
346.211361916
10
792.969185474
20
346.177693935
10
792.791850207
20
346.146923347
10
792.614035219
20
346.11905839
10
792.435788114
20
346.094106525
10
792.257156615
20
346.072074431
10
792.078188544
20
346.052968007
10
791.898931815
20
346.036792368
10
791.719434422
20
346.023551844
10
791.539744418
20
346.013249982
10
791.359909911
20
346.005889538
10
791.179979048
20
346.001472483
10
791
20
346
10
790.820020952
20
346.001472483
10
790.640090089
20
346.005889538
10
790.460255582
20
346.013249982
10
790.280565578
20
346.023551844
10
790.101068185
20
346.036792368
10
789.921811456
20
346.052968007
10
789.742843385
20
346.072074431
10
789.564211886
20
346.094106525
10
789.385964781
20
346.11905839
10
789.208149793
20
346.146923347
10
789.030814526
20
346.177693935
10
788.854006458
20
346.211361916
10
788.677772924
20
346.247918276
10
788.502161107
20
346.287353228
10
788.327218021
20
346.329656215
10
788.152990504
20
346.374815911
10
787.9795252
20
346.422820225
10
787.80686855
20
346.473656307
10
787.635066779
20
346.527310545
10
787.464165882
20
346.583768576
10
787.294211613
20
346.643015283
10
787.125249473
20
346.705034806
10
786.957324697
20
346.769810539
10
786.790482244
20
346.837325142
10
786.62476678
20
346.907560539
10
786.460222672
20
346.980497926
10
786.296893972
20
347.056117776
10
786.134824408
20
347.134399843
10
785.974057368
20
347.21532317
10
785.814635895
20
347.298866092
10
785.656602669
20
347.385006242
10
785.5
20
347.473720558
10
785.344869814
20
347.56498529
10
785.191253643
20
347.658776003
10
785.039192614
20
347.755067588
10
784.888727437
20
347.853834265
10
784.739898395
20
347.955049591
10
784.592745334
20
348.058686469
10
784.447307651
20
348.164717154
10
784.303624281
20
348.273113257
10
784.161733693
20
348.383845758
10
784.021673874
20
348.496885013
10
783.883482322
20
348.612200757
10
783.747196034
20
348.729762118
10
783.612851497
20
348.849537621
10
783.480484678
20
348.9714952
10
783.350131015
20
349.095602204
10
783.221825407
20
349.221825407
10
783.095602204
20
349.350131015
10
782.9714952
20
349.480484678
10
782.849537621
20
349.612851497
10
782.729762118
20
349.747196034
10
782.612200757
20
349.883482322
10
782.496885013
20
350.021673874
10
782.383845758
20
350.161733693
10
782.273113257
20
350.303624281
10
782.164717154
20
350.447307651
10
782.058686469
20
350.592745334
10
781.955049591
20
350.739898395
10
781.853834265
20
350.888727437
10
781.755067588
20
351.039192614
10
781.658776003
20
351.191253643
10
781.56498529
20
351.344869814
10
781.473720558
20
351.5
10
781.385006242
20
351.656602669
10
781.298866092
20
351.814635895
10
781.21532317
20
351.974057368
10
781.134399843
20
352.134824408
10
781.056117776
20
352.296893972
10
780.980497926
20
352.460222672
10
780.907560539
20
352.62476678
10
780.837325142
20
352.790482244
10
780.769810539
20
352.957324697
10
780.705034806
20
353.125249473
10
780.643015283
20
353.294211613
10
780.583768576
20
353.464165882
10
780.527310545
20
353.635066779
10
780.473656307
20
353.80686855
10
780.422820225
20
353.9795252
10
780.374815911
20
354.152990504
10
780.329656215
20
354.327218021
10
780.287353228
20
354.502161107
10
780.247918276
20
354.677772924
10
780.211361916
20
354.854006458
10
780.177693935
20
355.030814526
10
780.146923347
20
355.208149793
10
780.11905839
20
355.385964781
10
780.094106525
20
355.564211886
10
780.072074431
20
355.742843385
10
780.052968007
20
355.921811456
10
780.036792368
20
356.101068185
10
780.023551844
20
356.280565578
10
780.013249982
20
356.460255582
10
780.005889538
20
356.640090089
10
780.001472483
20
356.820020952
10
780
20
357
10
780.001472483
20
357.179979048
10
780.005889538
20
357.359909911
10
780.013249982
20
357.539744418
10
780.023551844
20
357.719434422
10
780.036792368
20
357.898931815
10
780.052968007
20
358.078188544
10
780.072074431
20
358.257156615
10
780.094106525
20
358.435788114
10
780.11905839
20
358.614035219
10
780.146923347
20
358.791850207
10
780.177693935
20
358.969185474
10
780.211361916
20
359.145993542
10
780.247918276
20
359.322227076
10
780.287353228
20
359.497838893
10
780.329656215
20
359.672781979
10
780.374815911
20
359.847009496
10
780.422820225
20
360.0204748
10
780.473656307
20
360.19313145
10
780.527310545
20
360.364933221
10
780.583768576
20
360.535834118
10
780.643015283
20
360.705788387
10
780.705034806
20
360.874750527
10
780.769810539
20
361.042675303
10
780.837325142
20
361.209517756
10
780.907560539
20
361.37523322
10
780.980497926
20
361.539777328
10
781.056117776
20
361.703106028
10
781.134399843
20
361.865175592
10
781.21532317
20
362.025942632
10
781.298866092
20
362.185364105
10
781.385006242
20
362.343397331
10
781.473720558
20
362.5
10
781.56498529
20
362.655130186
10
781.658776003
20
362.808746357
10
781.755067588
20
362.960807386
10
781.853834265
20
363.111272563
10
781.955049591
20
363.260101605
10
782.058686469
20
363.407254666
10
782.164717154
20
363.552692349
10
782.273113257
20
363.696375719
10
782.383845758
20
363.838266307
10
782.496885013
20
363.978326126
10
782.612200757
20
364.116517678
10
782.729762118
20
364.252803966
10
782.849537621
20
364.387148503
10
782.9714952
20
364.519515322
10
783.095602204
20
364.649868985
10
783.221825407
20
364.778174593
10
783.350131015
20
364.904397796
10
783.480484678
20
365.0285048
10
783.612851497
20
365.150462379
10
783.747196034
20
365.270237882
10
783.883482322
20
365.387799243
10
784.021673874
20
365.503114987
10
784.161733693
20
365.616154242
10
784.303624281
20
365.726886743
10
784.447307651
20
365.835282846
10
784.592745334
20
365.941313531
10
784.739898395
20
366.044950409
10
784.888727437
20
366.146165735
10
785.039192614
20
366.244932412
10
785.191253643
20
366.341223997
10
785.344869814
20
366.43501471
10
785.5
20
366.526279442
10
785.656602669
20
366.614993758
10
785.814635895
20
366.701133908
10
785.974057368
20
366.78467683
10
786.134824408
20
366.865600157
10
786.296893972
20
366.943882224
10
786.460222672
20
367.019502074
10
786.62476678
20
367.092439461
10
786.790482244
20
367.162674858
10
786.957324697
20
367.230189461
10
787.125249473
20
367.294965194
10
787.294211613
20
367.356984717
10
787.464165882
20
367.416231424
10
787.635066779
20
367.472689455
10
787.80686855
20
367.526343693
10
787.9795252
20
367.577179775
10
788.152990504
20
367.625184089
10
788.327218021
20
367.670343785
10
788.502161107
20
367.712646772
10
788.677772924
20
367.752081724
10
788.854006458
20
367.788638084
10
789.030814526
20
367.822306065
10
789.208149793
20
367.853076653
10
789.385964781
20
367.88094161
10
789.564211886
20
367.905893475
10
789.742843385
20
367.927925569
10
789.921811456
20
367.947031993
10
790.101068185
20
367.963207632
10
790.280565578
20
367.976448156
10
790.460255582
20
367.986750018
10
790.640090089
20
367.994110462
10
790.820020952
20
367.998527517
10
791
20
368
10
791.179979048
20
367.998527517
10
791.359909911
20
367.994110462
10
791.539744418
20
367.986750018
10
791.719434422
20
367.976448156
10
791.898931815
20
367.963207632
10
792.078188544
20
367.947031993
10
792.257156615
20
367.927925569
10
792.435788114
20
367.905893475
10
792.614035219
20
367.88094161
10
792.791850207
20
367.853076653
10
792.969185474
20
367.822306065
10
793.145993542
20
367.788638084
10
793.322227076
20
367.752081724
10
793.497838893
20
367.712646772
10
793.672781979
20
367.670343785
10
793.847009496
20
367.625184089
10
794.0204748
20
367.577179775
10
794.19313145
20
367.526343693
10
794.364933221
20
367.472689455
10
794.535834118
20
367.416231424
10
794.705788387
20
367.356984717
10
794.874750527
20
367.294965194
10
795.042675303
20
367.230189461
10
795.209517756
20
367.162674858
10
795.37523322
20
367.092439461
10
795.539777328
20
367.019502074
10
795.703106028
20
366.943882224
10
795.865175592
20
366.865600157
10
796.025942632
20
366.78467683
10
796.185364105
20
366.701133908
10
796.343397331
20
366.614993758
10
796.5
20
366.526279442
10
796.655130186
20
366.43501471
10
796.808746357
20
366.341223997
10
796.960807386
20
366.244932412
10
797.111272563
20
366.146165735
10
797.260101605
20
366.044950409
10
797.407254666
20
365.941313531
10
797.552692349
20
365.835282846
10
797.696375719
20
365.726886743
10
797.838266307
20
365.616154242
10
797.978326126
20
365.503114987
10
798.116517678
20
365.387799243
10
798.252803966
20
365.270237882
10
798.387148503
20
365.150462379
10
798.519515322
20
365.0285048
10
798.649868985
20
364.904397796
10
798.778174593
20
364.778174593
10
798.904397796
20
364.649868985
10
799.0285048
20
364.519515322
10
799.150462379
20
364.387148503
10
799.270237882
20
364.252803966
10
799.387799243
20
364.116517678
10
799.503114987
20
363.978326126
10
799.616154242
20
363.838266307
10
799.726886743
20
363.696375719
10
799.835282846
20
363.552692349
10
799.941313531
20
363.407254666
10
800.044950409
20
363.260101605
10
800.146165735
20
363.111272563
10
800.244932412
20
362.960807386
10
800.341223997
20
362.808746357
10
800.43501471
20
362.655130186
10
800.526279442
20
362.5
10
800.614993758
20
362.343397331
10
800.701133908
20
362.185364105
10
800.78467683
20
362.025942632
10
800.865600157
20
361.865175592
10
800.943882224
20
361.703106028
10
801.019502074
20
361.539777328
10
801.092439461
20
361.37523322
10
801.162674858
20
361.209517756
10
801.230189461
20
361.042675303
10
801.294965194
20
360.874750527
10
801.356984717
20
360.705788387
10
801.416231424
20
360.535834118
10
801.472689455
20
360.364933221
10
801.526343693
20
360.19313145
10
801.577179775
20
360.0204748
10
801.625184089
20
359.847009496
10
801.670343785
20
359.672781979
10
801.712646772
20
359.497838893
10
801.752081724
20
359.322227076
10
801.788638084
20
359.145993542
10
801.822306065
20
358.969185474
10
801.853076653
20
358.791850207
10
801.88094161
20
358.614035219
10
801.905893475
20
358.435788114
10
801.927925569
20
358.257156615
10
801.947031993
20
358.078188544
10
801.963207632
20
357.898931815
10
801.976448156
20
357.719434422
10
801.986750018
20
357.539744418
10
801.994110462
20
357.359909911
10
801.998527517
20
357.179979048
10
802
20
357
0
LWPOLYLINE
100
AcDbEntity
8
CUT_6MM
100
AcDbPolyline
90
385
70
1
10
836
20
357
10
835.998527517
20
356.820020952
10
835.994110462
20
356.640090089
10
835.986750018
20
356.460255582
10
835.976448156
20
356.280565578
10
835.963207632
20
356.101068185
10
835.947031993
20
355.921811456
10
835.927925569
20
355.742843385
10
835.905893475
20
355.564211886
10
835.88094161
20
355.385964781
10
835.853076653
20
355.208149793
10
835.822306065
20
355.030814526
10
835.788638084
20
354.854006458
10
835.752081724
20
354.677772924
10
835.712646772
20
354.502161107
10
835.670343785
20
354.327218021
10
835.625184089
20
354.152990504
10
835.577179775
20
353.9795252
10
835.526343693
20
353.80686855
10
835.472689455
20
353.635066779
10
835.416231424
20
353.464165882
10
835.356984717
20
353.294211613
10
835.294965194
20
353.125249473
10
835.230189461
20
352.957324697
10
835.162674858
20
352.790482244
10
835.092439461
20
352.62476678
10
835.019502074
20
352.460222672
10
834.943882224
20
352.296893972
10
834.865600157
20
352.134824408
10
834.78467683
20
351.974057368
10
834.701133908
20
351.814635895
10
834.614993758
20
351.656602669
10
834.526279442
20
351.5
10
834.43501471
20
351.344869814
10
834.341223997
20
351.191253643
10
834.244932412
20
351.039192614
10
834.146165735
20
350.888727437
10
834.044950409
20
350.739898395
10
833.941313531
20
350.592745334
10
833.835282846
20
350.447307651
10
833.726886743
20
350.303624281
10
833.616154242
20
350.161733693
10
833.503114987
20
350.021673874
10
833.387799243
20
349.883482322
10
833.270237882
20
349.747196034
10
833.150462379
20
349.612851497
10
833.0285048
20
349.480484678
10
832.904397796
20
349.350131015
10
832.778174593
20
349.221825407
10
832.649868985
20
349.095602204
10
832.519515322
20
348.9714952
10
832.387148503
20
348.849537621
10
832.252803966
20
348.729762118
10
832.116517678
20
348.612200757
10
831.978326126
20
348.496885013
10
831.838266307
20
348.383845758
10
831.696375719
20
348.273113257
10
831.552692349
20
348.164717154
10
831.407254666
20
348.058686469
10
831.260101605
20
347.955049591
10
831.111272563
20
347.853834265
10
830.960807386
20
347.755067588
10
830.808746357
20
347.658776003
10
830.655130186
20
347.56498529
10
830.5
20
347.473720558
10
830.343397331
20
347.385006242
10
830.185364105
20
347.298866092
10
830.025942632
20
347.21532317
10
829.865175592
20
347.134399843
10
829.703106028
20
347.056117776
10
829.539777328
20
346.980497926
10
829.37523322
20
346.907560539
10
829.209517756
20
346.837325142
10
829.042675303
20
346.769810539
10
828.874750527
20
346.705034806
10
828.705788387
20
346.643015283
10
828.535834118
20
346.583768576
10
828.364933221
20
346.527310545
10
828.19313145
20
346.473656307
10
828.0204748
20
346.422820225
10
827.847009496
20
346.374815911
10
827.672781979
20
346.329656215
10
827.497838893
20
346.287353228
10
827.322227076
20
346.247918276
10
827.145993542
20
346.211361916
10
826.969185474
20
346.177693935
10
826.791850207
20
346.146923347
10
826.614035219
20
346.11905839
10
826.435788114
20
346.094106525
10
826.257156615
20
346.072074431
10
826.078188544
20
346.052968007
10
825.898931815
20
346.036792368
10
825.719434422
20
346.023551844
10
825.539744418
20
346.013249982
10
825.359909911
20
346.005889538
10
825.179979048
20
346.001472483
10
825
20
346
10
824.820020952
20
346.001472483
10
824.640090089
20
346.005889538
10
824.460255582
20
346.013249982
10
824.280565578
20
346.023551844
10
824.101068185
20
346.036792368
10
823.921811456
20
346.052968007
10
823.742843385
20
346.072074431
10
823.564211886
20
346.094106525
10
823.385964781
20
346.11905839
10
823.208149793
20
346.146923347
10
823.030814526
20
346.177693935
10
822.854006458
20
346.211361916
10
822.677772924
20
346.247918276
10
822.502161107
20
346.287353228
10
822.327218021
20
346.329656215
10
822.152990504
20
346.374815911
10
821.9795252
20
346.422820225
10
821.80686855
20
346.473656307
10
821.635066779
20
346.527310545
10
821.464165882
20
346.583768576
10
821.294211613
20
346.643015283
10
821.125249473
20
346.705034806
10
820.957324697
20
346.769810539
10
820.790482244
20
346.837325142
10
820.62476678
20
346.907560539
10
820.460222672
20
346.980497926
10
820.296893972
20
347.056117776
10
820.134824408
20
347.134399843
10
819.974057368
20
347.21532317
10
819.814635895
20
347.298866092
10
819.656602669
20
347.385006242
10
819.5
20
347.473720558
10
819.344869814
20
347.56498529
10
819.191253643
20
347.658776003
10
819.039192614
20
347.755067588
10
818.888727437
20
347.853834265
10
818.739898395
20
347.955049591
10
818.592745334
20
348.058686469
10
818.447307651
20
348.164717154
10
818.303624281
20
348.273113257
10
818.161733693
20
348.383845758
10
818.021673874
20
348.496885013
10
817.883482322
20
348.612200757
10
817.747196034
20
348.729762118
10
817.612851497
20
348.849537621
10
817.480484678
20
348.9714952
10
817.350131015
20
349.095602204
10
817.221825407
20
349.221825407
10
817.095602204
20
349.350131015
10
816.9714952
20
349.480484678
10
816.849537621
20
349.612851497
10
816.729762118
20
349.747196034
10
816.612200757
20
349.883482322
10
816.496885013
20
350.021673874
10
816.383845758
20
350.161733693
10
816.273113257
20
350.303624281
10
816.164717154
20
350.447307651
10
816.058686469
20
350.592745334
10
815.955049591
20
350.739898395
10
815.853834265
20
350.888727437
10
815.755067588
20
351.039192614
10
815.658776003
20
351.191253643
10
815.56498529
20
351.344869814
10
815.473720558
20
351.5
10
815.385006242
20
351.656602669
10
815.298866092
20
351.814635895
10
815.21532317
20
351.974057368
10
815.134399843
20
352.134824408
10
815.056117776
20
352.296893972
10
814.980497926
20
352.460222672
10
814.907560539
20
352.62476678
10
814.837325142
20
352.790482244
10
814.769810539
20
352.957324697
10
814.705034806
20
353.125249473
10
814.643015283
20
353.294211613
10
814.583768576
20
353.464165882
10
814.527310545
20
353.635066779
10
814.473656307
20
353.80686855
10
814.422820225
20
353.9795252
10
814.374815911
20
354.152990504
10
814.329656215
20
354.327218021
10
814.287353228
20
354.502161107
10
814.247918276
20
354.677772924
10
814.211361916
20
354.854006458
10
814.177693935
20
355.030814526
10
814.146923347
20
355.208149793
10
814.11905839
20
355.385964781
10
814.094106525
20
355.564211886
10
814.072074431
20
355.742843385
10
814.052968007
20
355.921811456
10
814.036792368
20
356.101068185
10
814.023551844
20
356.280565578
10
814.013249982
20
356.460255582
10
814.005889538
20
356.640090089
10
814.001472483
20
356.820020952
10
814
20
357
10
814.001472483
20
357.179979048
10
814.005889538
20
357.359909911
10
814.013249982
20
357.539744418
10
814.023551844
20
357.719434422
10
814.036792368
20
357.898931815
10
814.052968007
20
358.078188544
10
814.072074431
20
358.257156615
10
814.094106525
20
358.435788114
10
814.11905839
20
358.614035219
10
814.146923347
20
358.791850207
10
814.177693935
20
358.969185474
10
814.211361916
20
359.145993542
10
814.247918276
20
359.322227076
10
814.287353228
20
359.497838893
10
814.329656215
20
359.672781979
10
814.374815911
20
359.847009496
10
814.422820225
20
360.0204748
10
814.473656307
20
360.19313145
10
814.527310545
20
360.364933221
10
814.583768576
20
360.535834118
10
814.643015283
20
360.705788387
10
814.705034806
20
360.874750527
10
814.769810539
20
361.042675303
10
814.837325142
20
361.209517756
10
814.907560539
20
361.37523322
10
814.980497926
20
361.539777328
10
815.056117776
20
361.703106028
10
815.134399843
20
361.865175592
10
815.21532317
20
362.025942632
10
815.298866092
20
362.185364105
10
815.385006242
20
362.343397331
10
815.473720558
20
362.5
10
815.56498529
20
362.655130186
10
815.658776003
20
362.808746357
10
815.755067588
20
362.960807386
10
815.853834265
20
363.111272563
10
815.955049591
20
363.260101605
10
816.058686469
20
363.407254666
10
816.164717154
20
363.552692349
10
816.273113257
20
363.696375719
10
816.383845758
20
363.838266307
10
816.496885013
20
363.978326126
10
816.612200757
20
364.116517678
10
816.729762118
20
364.252803966
10
816.849537621
20
364.387148503
10
816.9714952
20
364.519515322
10
817.095602204
20
364.649868985
10
817.221825407
20
364.778174593
10
817.350131015
20
364.904397796
10
817.480484678
20
365.0285048
10
817.612851497
20
365.150462379
10
817.747196034
20
365.270237882
10
817.883482322
20
365.387799243
10
818.021673874
20
365.503114987
10
818.161733693
20
365.616154242
10
818.303624281
20
365.726886743
10
818.447307651
20
365.835282846
10
818.592745334
20
365.941313531
10
818.739898395
20
366.044950409
10
818.888727437
20
366.146165735
10
819.039192614
20
366.244932412
10
819.191253643
20
366.341223997
10
819.344869814
20
366.43501471
10
819.5
20
366.526279442
10
819.656602669
20
366.614993758
10
819.814635895
20
366.701133908
10
819.974057368
20
366.78467683
10
820.134824408
20
366.865600157
10
820.296893972
20
366.943882224
10
820.460222672
20
367.019502074
10
820.62476678
20
367.092439461
10
820.790482244
20
367.162674858
10
820.957324697
20
367.230189461
10
821.125249473
20
367.294965194
10
821.294211613
20
367.356984717
10
821.464165882
20
367.416231424
10
821.635066779
20
367.472689455
10
821.80686855
20
367.526343693
10
821.9795252
20
367.577179775
10
822.152990504
20
367.625184089
10
822.327218021
20
367.670343785
10
822.502161107
20
367.712646772
10
822.677772924
20
367.752081724
10
822.854006458
20
367.788638084
10
823.030814526
20
367.822306065
10
823.208149793
20
367.853076653
10
823.385964781
20
367.88094161
10
823.564211886
20
367.905893475
10
823.742843385
20
367.927925569
10
823.921811456
20
367.947031993
10
824.101068185
20
367.963207632
10
824.280565578
20
367.976448156
10
824.460255582
20
367.986750018
10
824.640090089
20
367.994110462
10
824.820020952
20
367.998527517
10
825
20
368
10
825.179979048
20
367.998527517
10
825.359909911
20
367.994110462
10
825.539744418
20
367.986750018
10
825.719434422
20
367.976448156
10
825.898931815
20
367.963207632
10
826.078188544
20
367.947031993
10
826.257156615
20
367.927925569
10
826.435788114
20
367.905893475
10
826.614035219
20
367.88094161
10
826.791850207
20
367.853076653
10
826.969185474
20
367.822306065
10
827.145993542
20
367.788638084
10
827.322227076
20
367.752081724
10
827.497838893
20
367.712646772
10
827.672781979
20
367.670343785
10
827.847009496
20
367.625184089
10
828.0204748
20
367.577179775
10
828.19313145
20
367.526343693
10
828.364933221
20
367.472689455
10
828.535834118
20
367.416231424
10
828.705788387
20
367.356984717
10
828.874750527
20
367.294965194
10
829.042675303
20
367.230189461
10
829.209517756
20
367.162674858
10
829.37523322
20
367.092439461
10
829.539777328
20
367.019502074
10
829.703106028
20
366.943882224
10
829.865175592
20
366.865600157
10
830.025942632
20
366.78467683
10
830.185364105
20
366.701133908
10
830.343397331
20
366.614993758
10
830.5
20
366.526279442
10
830.655130186
20
366.43501471
10
830.808746357
20
366.341223997
10
830.960807386
20
366.244932412
10
831.111272563
20
366.146165735
10
831.260101605
20
366.044950409
10
831.407254666
20
365.941313531
10
831.552692349
20
365.835282846
10
831.696375719
20
365.726886743
10
831.838266307
20
365.616154242
10
831.978326126
20
365.503114987
10
832.116517678
20
365.387799243
10
832.252803966
20
365.270237882
10
832.387148503
20
365.150462379
10
832.519515322
20
365.0285048
10
832.649868985
20
364.904397796
10
832.778174593
20
364.778174593
10
832.904397796
20
364.649868985
10
833.0285048
20
364.519515322
10
833.150462379
20
364.387148503
10
833.270237882
20
364.252803966
10
833.387799243
20
364.116517678
10
833.503114987
20
363.978326126
10
833.616154242
20
363.838266307
10
833.726886743
20
363.696375719
10
833.835282846
20
363.552692349
10
833.941313531
20
363.407254666
10
834.044950409
20
363.260101605
10
834.146165735
20
363.111272563
10
834.244932412
20
362.960807386
10
834.341223997
20
362.808746357
10
834.43501471
20
362.655130186
10
834.526279442
20
362.5
10
834.614993758
20
362.343397331
10
834.701133908
20
362.185364105
10
834.78467683
20
362.025942632
10
834.865600157
20
361.865175592
10
834.943882224
20
361.703106028
10
835.019502074
20
361.539777328
10
835.092439461
20
361.37523322
10
835.162674858
20
361.209517756
10
835.230189461
20
361.042675303
10
835.294965194
20
360.874750527
10
835.356984717
20
360.705788387
10
835.416231424
20
360.535834118
10
835.472689455
20
360.364933221
10
835.526343693
20
360.19313145
10
835.577179775
20
360.0204748
10
835.625184089
20
359.847009496
10
835.670343785
20
359.672781979
10
835.712646772
20
359.497838893
10
835.752081724
20
359.322227076
10
835.788638084
20
359.145993542
10
835.822306065
20
358.969185474
10
835.853076653
20
358.791850207
10
835.88094161
20
358.614035219
10
835.905893475
20
358.435788114
10
835.927925569
20
358.257156615
10
835.947031993
20
358.078188544
10
835.963207632
20
357.898931815
10
835.976448156
20
357.719434422
10
835.986750018
20
357.539744418
10
835.994110462
20
357.359909911
10
835.998527517
20
357.179979048
10
836
20
357
0
ENDSEC
0
EOF