0
SECTION
2
HEADER
9
$ACADVER
1
AC1024
9
$INSUNITS
70
4
0
ENDSEC
0
SECTION
2
TABLES
0
TABLE
2
LAYER
70
2
0
LAYER
2
CUT_4MM
70
0
62
7
6
CONTINUOUS
0
LAYER
2
LIVING_HINGE_CUTS
70
0
62
7
6
CONTINUOUS
0
ENDTAB
0
ENDSEC
0
SECTION
2
ENTITIES
0
LWPOLYLINE
100
AcDbEntity
8
CUT_4MM
100
AcDbPolyline
90
29
70
1
10
10
20
44.4389630832
10
16
20
44.4389630832
10
16
20
51.3982718053
10
10
20
51.3982718053
10
10
20
63.3982718053
10
16
20
63.3982718053
10
16
20
70.3575805275
10
10
20
70.3575805275
10
10
20
82.3575805275
10
16
20
82.3575805275
10
16
20
104.796543611
10
326
20
104.796543611
10
326
20
82.3575805275
10
332
20
82.3575805275
10
332
20
70.3575805275
10
326
20
70.3575805275
10
326
20
63.3982718053
10
332
20
63.3982718053
10
332
20
51.3982718053
10
326
20
51.3982718053
10
326
20
44.4389630832
10
332
20
44.4389630832
10
332
20
32.4389630832
10
326
20
32.4389630832
10
326
20
10
10
16
20
10
10
16
20
32.4389630832
10
10
20
32.4389630832
10
10
20
44.4389630832
0
LINE
100
AcDbEntity
8
LIVING_HINGE_CUTS
100
AcDbLine
10
28
20
20
30
0
11
56
21
20
31
0
0
LINE
100
AcDbEntity
8
LIVING_HINGE_CUTS
100
AcDbLine
10
60
20
20
30
0
11
88
21
20
31
0
0
LINE
100
AcDbEntity
8
LIVING_HINGE_CUTS
100
AcDbLine
10
92
20
20
30
0
11
120
21
20
31
0
0
LINE
100
AcDbEntity
8
LIVING_HINGE_CUTS
100
AcDbLine
10
124
20
20
30
0
11
152
21
20
31
0
0
LINE
100
AcDbEntity
8
LIVING_HINGE_CUTS
100
AcDbLine
10
156
20
20
30
0
11
164
21
20
31
0
0
LINE
100
AcDbEntity
8
LIVING_HINGE_CUTS
100
AcDbLine
10
178
20
20
30
0
11
206
21
20
31
0
0
LINE
100
AcDbEntity
8
LIVING_HINGE_CUTS
100
AcDbLine
10
210
20
20
30
0
11
238
21
20
31
0
0
LINE
100
AcDbEntity
8
LIVING_HINGE_CUTS
100
AcDbLine
10
242
20
20
30
0
11
270
21
20
31
0
0
LINE
100
AcDbEntity
8
LIVING_HINGE_CUTS
100
AcDbLine
10
274
20
20
30
0
11
302
21
20
31
0
0
LINE
100
AcDbEntity
8
LIVING_HINGE_CUTS
100
AcDbLine
10
306
20
20
30
0
11
314
21
20
31
0
0
LINE
100
AcDbEntity
8
LIVING_HINGE_CUTS
100
AcDbLine
10
28
20
24
30
0
11
40
21
24
31
0
0
LINE
100
AcDbEntity
8
LIVING_HINGE_CUTS
100
AcDbLine
10
44
20
24
30
0
11
72
21
24
31
0
0
LINE
100
AcDbEntity
8
LIVING_HINGE_CUTS
100
AcDbLine
10
76
20
24
30
0
11
104
21
24
31
0
0
LINE
100
AcDbEntity
8
LIVING_HINGE_CUTS
100
AcDbLine
10
108
20
24
30
0
11
136
21
24
31
0
0
LINE
100
AcDbEntity
8
LIVING_HINGE_CUTS
100
AcDbLine
10
140
20
24
30
0
11
164
21
24
31
0
0
LINE
100
AcDbEntity
8
LIVING_HINGE_CUTS
100
AcDbLine
10
178
20
24
30
0
11
190
21
24
31
0
0
LINE
100
AcDbEntity
8
LIVING_HINGE_CUTS
100
AcDbLine
10
194
20
24
30
0
11
222
21
24
31
0
0
LINE
100
AcDbEntity
8
LIVING_HINGE_CUTS
100
AcDbLine
10
226
20
24
30
0
11
254
21
24
31
0
0
LINE
100
AcDbEntity
8
LIVING_HINGE_CUTS
100
AcDbLine
10
258
20
24
30
0
11
286
21
24
31
0
0
LINE
100
AcDbEntity
8
LIVING_HINGE_CUTS
100
AcDbLine
10
290
20
24
30
0
11
314
21
24
31
0
0
LINE
100
AcDbEntity
8
LIVING_HINGE_CUTS
100
AcDbLine
10
28
20
28
30
0
11
56
21
28
31
0
0
LINE
100
AcDbEntity
8
LIVING_HINGE_CUTS
100
AcDbLine
10
60
20
28
30
0
11
88
21
28
31
0
0
LINE
100
AcDbEntity
8
LIVING_HINGE_CUTS
100
AcDbLine
10
92
20
28
30
0
11
120
21
28
31
0
0
LINE
100
AcDbEntity
8
LIVING_HINGE_CUTS
100
AcDbLine
10
124
20
28
30
0
11
152
21
28
31
0
0
LINE
100
AcDbEntity
8
LIVING_HINGE_CUTS
100
AcDbLine
10
156
20
28
30
0
11
164
21
28
31
0
0
LINE
100
AcDbEntity
8
LIVING_HINGE_CUTS
100
AcDbLine
10
178
20
28
30
0
11
206
21
28
31
0
0
LINE
100
AcDbEntity
8
LIVING_HINGE_CUTS
100
AcDbLine
10
210
20
28
30
0
11
238
21
28
31
0
0
LINE
100
AcDbEntity
8
LIVING_HINGE_CUTS
100
AcDbLine
10
242
20
28
30
0
11
270
21
28
31
0
0
LINE
100
AcDbEntity
8
LIVING_HINGE_CUTS
100
AcDbLine
10
274
20
28
30
0
11
302
21
28
31
0
0
LINE
100
AcDbEntity
8
LIVING_HINGE_CUTS
100
AcDbLine
10
306
20
28
30
0
11
314
21
28
31
0
0
LINE
100
AcDbEntity
8
LIVING_HINGE_CUTS
100
AcDbLine
10
28
20
32
30
0
11
40
21
32
31
0
0
LINE
100
AcDbEntity
8
LIVING_HINGE_CUTS
100
AcDbLine
10
44
20
32
30
0
11
72
21
32
31
0
0
LINE
100
AcDbEntity
8
LIVING_HINGE_CUTS
100
AcDbLine
10
76
20
32
30
0
11
104
21
32
31
0
0
LINE
100
AcDbEntity
8
LIVING_HINGE_CUTS
100
AcDbLine
10
108
20
32
30
0
11
136
21
32
31
0
0
LINE
100
AcDbEntity
8
LIVING_HINGE_CUTS
100
AcDbLine
10
140
20
32
30
0
11
164
21
32
31
0
0
LINE
100
AcDbEntity
8
LIVING_HINGE_CUTS
100
AcDbLine
10
178
20
32
30
0
11
190
21
32
31
0
0
LINE
100
AcDbEntity
8
LIVING_HINGE_CUTS
100
AcDbLine
10
194
20
32
30
0
11
222
21
32
31
0
0
LINE
100
AcDbEntity
8
LIVING_HINGE_CUTS
100
AcDbLine
10
226
20
32
30
0
11
254
21
32
31
0
0
LINE
100
AcDbEntity
8
LIVING_HINGE_CUTS
100
AcDbLine
10
258
20
32
30
0
11
286
21
32
31
0
0
LINE
100
AcDbEntity
8
LIVING_HINGE_CUTS
100
AcDbLine
10
290
20
32
30
0
11
314
21
32
31
0
0
LINE
100
AcDbEntity
8
LIVING_HINGE_CUTS
100
AcDbLine
10
28
20
36
30
0
11
56
21
36
31
0
0
LINE
100
AcDbEntity
8
LIVING_HINGE_CUTS
100
AcDbLine
10
60
20
36
30
0
11
88
21
36
31
0
0
LINE
100
AcDbEntity
8
LIVING_HINGE_CUTS
100
AcDbLine
10
92
20
36
30
0
11
120
21
36
31
0
0
LINE
100
AcDbEntity
8
LIVING_HINGE_CUTS
100
AcDbLine
10
124
20
36
30
0
11
152
21
36
31
0
0
LINE
100
AcDbEntity
8
LIVING_HINGE_CUTS
100
AcDbLine
10
156
20
36
30
0
11
164
21
36
31
0
0
LINE
100
AcDbEntity
8
LIVING_HINGE_CUTS
100
AcDbLine
10
178
20
36
30
0
11
206
21
36
31
0
0
LINE
100
AcDbEntity
8
LIVING_HINGE_CUTS
100
AcDbLine
10
210
20
36
30
0
11
238
21
36
31
0
0
LINE
100
AcDbEntity
8
LIVING_HINGE_CUTS
100
AcDbLine
10
242
20
36
30
0
11
270
21
36
31
0
0
LINE
100
AcDbEntity
8
LIVING_HINGE_CUTS
100
AcDbLine
10
274
20
36
30
0
11
302
21
36
31
0
0
LINE
100
AcDbEntity
8
LIVING_HINGE_CUTS
100
AcDbLine
10
306
20
36
30
0
11
314
21
36
31
0
0
LINE
100
AcDbEntity
8
LIVING_HINGE_CUTS
100
AcDbLine
10
28
20
40
30
0
11
40
21
40
31
0
0
LINE
100
AcDbEntity
8
LIVING_HINGE_CUTS
100
AcDbLine
10
44
20
40
30
0
11
72
21
40
31
0
0
LINE
100
AcDbEntity
8
LIVING_HINGE_CUTS
100
AcDbLine
10
76
20
40
30
0
11
104
21
40
31
0
0
LINE
100
AcDbEntity
8
LIVING_HINGE_CUTS
100
AcDbLine
10
108
20
40
30
0
11
136
21
40
31
0
0
LINE
100
AcDbEntity
8
LIVING_HINGE_CUTS
100
AcDbLine
10
140
20
40
30
0
11
164
21
40
31
0
0
LINE
100
AcDbEntity
8
LIVING_HINGE_CUTS
100
AcDbLine
10
178
20
40
30
0
11
190
21
40
31
0
0
LINE
100
AcDbEntity
8
LIVING_HINGE_CUTS
100
AcDbLine
10
194
20
40
30
0
11
222
21
40
31
0
0
LINE
100
AcDbEntity
8
LIVING_HINGE_CUTS
100
AcDbLine
10
226
20
40
30
0
11
254
21
40
31
0
0
LINE
100
AcDbEntity
8
LIVING_HINGE_CUTS
100
AcDbLine
10
258
20
40
30
0
11
286
21
40
31
0
0
LINE
100
AcDbEntity
8
LIVING_HINGE_CUTS
100
AcDbLine
10
290
20
40
30
0
11
314
21
40
31
0
0
LINE
100
AcDbEntity
8
LIVING_HINGE_CUTS
100
AcDbLine
10
28
20
44
30
0
11
56
21
44
31
0
0
LINE
100
AcDbEntity
8
LIVING_HINGE_CUTS
100
AcDbLine
10
60
20
44
30
0
11
88
21
44
31
0
0
LINE
100
AcDbEntity
8
LIVING_HINGE_CUTS
100
AcDbLine
10
92
20
44
30
0
11
120
21
44
31
0
0
LINE
100
AcDbEntity
8
LIVING_HINGE_CUTS
100
AcDbLine
10
124
20
44
30
0
11
152
21
44
31
0
0
LINE
100
AcDbEntity
8
LIVING_HINGE_CUTS
100
AcDbLine
10
156
20
44
30
0
11
164
21
44
31
0
0
LINE
100
AcDbEntity
8
LIVING_HINGE_CUTS
100
AcDbLine
10
178
20
44
30
0
11
206
21
44
31
0
0
LINE
100
AcDbEntity
8
LIVING_HINGE_CUTS
100
AcDbLine
10
210
20
44
30
0
11
238
21
44
31
0
0
LINE
100
AcDbEntity
8
LIVING_HINGE_CUTS
100
AcDbLine
10
242
20
44
30
0
11
270
21
44
31
0
0
LINE
100
AcDbEntity
8
LIVING_HINGE_CUTS
100
AcDbLine
10
274
20
44
30
0
11
302
21
44
31
0
0
LINE
100
AcDbEntity
8
LIVING_HINGE_CUTS
100
AcDbLine
10
306
20
44
30
0
11
314
21
44
31
0
0
LINE
100
AcDbEntity
8
LIVING_HINGE_CUTS
100
AcDbLine
10
28
20
48
30
0
11
40
21
48
31
0
0
LINE
100
AcDbEntity
8
LIVING_HINGE_CUTS
100
AcDbLine
10
44
20
48
30
0
11
72
21
48
31
0
0
LINE
100
AcDbEntity
8
LIVING_HINGE_CUTS
100
AcDbLine
10
76
20
48
30
0
11
104
21
48
31
0
0
LINE
100
AcDbEntity
8
LIVING_HINGE_CUTS
100
AcDbLine
10
108
20
48
30
0
11
136
21
48
31
0
0
LINE
100
AcDbEntity
8
LIVING_HINGE_CUTS
100
AcDbLine
10
140
20
48
30
0
11
164
21
48
31
0
0
LINE
100
AcDbEntity
8
LIVING_HINGE_CUTS
100
AcDbLine
10
178
20
48
30
0
11
190
21
48
31
0
0
LINE
100
AcDbEntity
8
LIVING_HINGE_CUTS
100
AcDbLine
10
194
20
48
30
0
11
222
21
48
31
0
0
LINE
100
AcDbEntity
8
LIVING_HINGE_CUTS
100
AcDbLine
10
226
20
48
30
0
11
254
21
48
31
0
0
LINE
100
AcDbEntity
8
LIVING_HINGE_CUTS
100
AcDbLine
10
258
20
48
30
0
11
286
21
48
31
0
0
LINE
100
AcDbEntity
8
LIVING_HINGE_CUTS
100
AcDbLine
10
290
20
48
30
0
11
314
21
48
31
0
0
LINE
100
AcDbEntity
8
LIVING_HINGE_CUTS
100
AcDbLine
10
28
20
52
30
0
11
56
21
52
31
0
0
LINE
100
AcDbEntity
8
LIVING_HINGE_CUTS
100
AcDbLine
10
60
20
52
30
0
11
88
21
52
31
0
0
LINE
100
AcDbEntity
8
LIVING_HINGE_CUTS
100
AcDbLine
10
92
20
52
30
0
11
120
21
52
31
0
0
LINE
100
AcDbEntity
8
LIVING_HINGE_CUTS
100
AcDbLine
10
124
20
52
30
0
11
152
21
52
31
0
0
LINE
100
AcDbEntity
8
LIVING_HINGE_CUTS
100
AcDbLine
10
156
20
52
30
0
11
164
21
52
31
0
0
LINE
100
AcDbEntity
8
LIVING_HINGE_CUTS
100
AcDbLine
10
178
20
52
30
0
11
206
21
52
31
0
0
LINE
100
AcDbEntity
8
LIVING_HINGE_CUTS
100
AcDbLine
10
210
20
52
30
0
11
238
21
52
31
0
0
LINE
100
AcDbEntity
8
LIVING_HINGE_CUTS
100
AcDbLine
10
242
20
52
30
0
11
270
21
52
31
0
0
LINE
100
AcDbEntity
8
LIVING_HINGE_CUTS
100
AcDbLine
10
274
20
52
30
0
11
302
21
52
31
0
0
LINE
100
AcDbEntity
8
LIVING_HINGE_CUTS
100
AcDbLine
10
306
20
52
30
0
11
314
21
52
31
0
0
LINE
100
AcDbEntity
8
LIVING_HINGE_CUTS
100
AcDbLine
10
28
20
56
30
0
11
40
21
56
31
0
0
LINE
100
AcDbEntity
8
LIVING_HINGE_CUTS
100
AcDbLine
10
44
20
56
30
0
11
72
21
56
31
0
0
LINE
100
AcDbEntity
8
LIVING_HINGE_CUTS
100
AcDbLine
10
76
20
56
30
0
11
104
21
56
31
0
0
LINE
100
AcDbEntity
8
LIVING_HINGE_CUTS
100
AcDbLine
10
108
20
56
30
0
11
136
21
56
31
0
0
LINE
100
AcDbEntity
8
LIVING_HINGE_CUTS
100
AcDbLine
10
140
20
56
30
0
11
164
21
56
31
0
0
LINE
100
AcDbEntity
8
LIVING_HINGE_CUTS
100
AcDbLine
10
178
20
56
30
0
11
190
21
56
31
0
0
LINE
100
AcDbEntity
8
LIVING_HINGE_CUTS
100
AcDbLine
10
194
20
56
30
0
11
222
21
56
31
0
0
LINE
100
AcDbEntity
8
LIVING_HINGE_CUTS
100
AcDbLine
10
226
20
56
30
0
11
254
21
56
31
0
0
LINE
100
AcDbEntity
8
LIVING_HINGE_CUTS
100
AcDbLine
10
258
20
56
30
0
11
286
21
56
31
0
0
LINE
100
AcDbEntity
8
LIVING_HINGE_CUTS
100
AcDbLine
10
290
20
56
30
0
11
314
21
56
31
0
0
LINE
100
AcDbEntity
8
LIVING_HINGE_CUTS
100
AcDbLine
10
28
20
60
30
0
11
56
21
60
31
0
0
LINE
100
AcDbEntity
8
LIVING_HINGE_CUTS
100
AcDbLine
10
60
20
60
30
0
11
88
21
60
31
0
0
LINE
100
AcDbEntity
8
LIVING_HINGE_CUTS
100
AcDbLine
10
92
20
60
30
0
11
120
21
60
31
0
0
LINE
100
AcDbEntity
8
LIVING_HINGE_CUTS
100
AcDbLine
10
124
20
60
30
0
11
152
21
60
31
0
0
LINE
100
AcDbEntity
8
LIVING_HINGE_CUTS
100
AcDbLine
10
156
20
60
30
0
11
164
21
60
31
0
0
LINE
100
AcDbEntity
8
LIVING_HINGE_CUTS
100
AcDbLine
10
178
20
60
30
0
11
206
21
60
31
0
0
LINE
100
AcDbEntity
8
LIVING_HINGE_CUTS
100
AcDbLine
10
210
20
60
30
0
11
238
21
60
31
0
0
LINE
100
AcDbEntity
8
LIVING_HINGE_CUTS
100
AcDbLine
10
242
20
60
30
0
11
270
21
60
31
0
0
LINE
100
AcDbEntity
8
LIVING_HINGE_CUTS
100
AcDbLine
10
274
20
60
30
0
11
302
21
60
31
0
0
LINE
100
AcDbEntity
8
LIVING_HINGE_CUTS
100
AcDbLine
10
306
20
60
30
0
11
314
21
60
31
0
0
LINE
100
AcDbEntity
8
LIVING_HINGE_CUTS
100
AcDbLine
10
28
20
64
30
0
11
40
21
64
31
0
0
LINE
100
AcDbEntity
8
LIVING_HINGE_CUTS
100
AcDbLine
10
44
20
64
30
0
11
72
21
64
31
0
0
LINE
100
AcDbEntity
8
LIVING_HINGE_CUTS
100
AcDbLine
10
76
20
64
30
0
11
104
21
64
31
0
0
LINE
100
AcDbEntity
8
LIVING_HINGE_CUTS
100
AcDbLine
10
108
20
64
30
0
11
136
21
64
31
0
0
LINE
100
AcDbEntity
8
LIVING_HINGE_CUTS
100
AcDbLine
10
140
20
64
30
0
11
164
21
64
31
0
0
LINE
100
AcDbEntity
8
LIVING_HINGE_CUTS
100
AcDbLine
10
178
20
64
30
0
11
190
21
64
31
0
0
LINE
100
AcDbEntity
8
LIVING_HINGE_CUTS
100
AcDbLine
10
194
20
64
30
0
11
222
21
64
31
0
0
LINE
100
AcDbEntity
8
LIVING_HINGE_CUTS
100
AcDbLine
10
226
20
64
30
0
11
254
21
64
31
0
0
LINE
100
AcDbEntity
8
LIVING_HINGE_CUTS
100
AcDbLine
10
258
20
64
30
0
11
286
21
64
31
0
0
LINE
100
AcDbEntity
8
LIVING_HINGE_CUTS
100
AcDbLine
10
290
20
64
30
0
11
314
21
64
31
0
0
LINE
100
AcDbEntity
8
LIVING_HINGE_CUTS
100
AcDbLine
10
28
20
68
30
0
11
56
21
68
31
0
0
LINE
100
AcDbEntity
8
LIVING_HINGE_CUTS
100
AcDbLine
10
60
20
68
30
0
11
88
21
68
31
0
0
LINE
100
AcDbEntity
8
LIVING_HINGE_CUTS
100
AcDbLine
10
92
20
68
30
0
11
120
21
68
31
0
0
LINE
100
AcDbEntity
8
LIVING_HINGE_CUTS
100
AcDbLine
10
124
20
68
30
0
11
152
21
68
31
0
0
LINE
100
AcDbEntity
8
LIVING_HINGE_CUTS
100
AcDbLine
10
156
20
68
30
0
11
164
21
68
31
0
0
LINE
100
AcDbEntity
8
LIVING_HINGE_CUTS
100
AcDbLine
10
178
20
68
30
0
11
206
21
68
31
0
0
LINE
100
AcDbEntity
8
LIVING_HINGE_CUTS
100
AcDbLine
10
210
20
68
30
0
11
238
21
68
31
0
0
LINE
100
AcDbEntity
8
LIVING_HINGE_CUTS
100
AcDbLine
10
242
20
68
30
0
11
270
21
68
31
0
0
LINE
100
AcDbEntity
8
LIVING_HINGE_CUTS
100
AcDbLine
10
274
20
68
30
0
11
302
21
68
31
0
0
LINE
100
AcDbEntity
8
LIVING_HINGE_CUTS
100
AcDbLine
10
306
20
68
30
0
11
314
21
68
31
0
0
LINE
100
AcDbEntity
8
LIVING_HINGE_CUTS
100
AcDbLine
10
28
20
72
30
0
11
40
21
72
31
0
0
LINE
100
AcDbEntity
8
LIVING_HINGE_CUTS
100
AcDbLine
10
44
20
72
30
0
11
72
21
72
31
0
0
LINE
100
AcDbEntity
8
LIVING_HINGE_CUTS
100
AcDbLine
10
76
20
72
30
0
11
104
21
72
31
0
0
LINE
100
AcDbEntity
8
LIVING_HINGE_CUTS
100
AcDbLine
10
108
20
72
30
0
11
136
21
72
31
0
0
LINE
100
AcDbEntity
8
LIVING_HINGE_CUTS
100
AcDbLine
10
140
20
72
30
0
11
164
21
72
31
0
0
LINE
100
AcDbEntity
8
LIVING_HINGE_CUTS
100
AcDbLine
10
178
20
72
30
0
11
190
21
72
31
0
0
LINE
100
AcDbEntity
8
LIVING_HINGE_CUTS
100
AcDbLine
10
194
20
72
30
0
11
222
21
72
31
0
0
LINE
100
AcDbEntity
8
LIVING_HINGE_CUTS
100
AcDbLine
10
226
20
72
30
0
11
254
21
72
31
0
0
LINE
100
AcDbEntity
8
LIVING_HINGE_CUTS
100
AcDbLine
10
258
20
72
30
0
11
286
21
72
31
0
0
LINE
100
AcDbEntity
8
LIVING_HINGE_CUTS
100
AcDbLine
10
290
20
72
30
0
11
314
21
72
31
0
0
LINE
100
AcDbEntity
8
LIVING_HINGE_CUTS
100
AcDbLine
10
28
20
76
30
0
11
56
21
76
31
0
0
LINE
100
AcDbEntity
8
LIVING_HINGE_CUTS
100
AcDbLine
10
60
20
76
30
0
11
88
21
76
31
0
0
LINE
100
AcDbEntity
8
LIVING_HINGE_CUTS
100
AcDbLine
10
92
20
76
30
0
11
120
21
76
31
0
0
LINE
100
AcDbEntity
8
LIVING_HINGE_CUTS
100
AcDbLine
10
124
20
76
30
0
11
152
21
76
31
0
0
LINE
100
AcDbEntity
8
LIVING_HINGE_CUTS
100
AcDbLine
10
156
20
76
30
0
11
164
21
76
31
0
0
LINE
100
AcDbEntity
8
LIVING_HINGE_CUTS
100
AcDbLine
10
178
20
76
30
0
11
206
21
76
31
0
0
LINE
100
AcDbEntity
8
LIVING_HINGE_CUTS
100
AcDbLine
10
210
20
76
30
0
11
238
21
76
31
0
0
LINE
100
AcDbEntity
8
LIVING_HINGE_CUTS
100
AcDbLine
10
242
20
76
30
0
11
270
21
76
31
0
0
LINE
100
AcDbEntity
8
LIVING_HINGE_CUTS
100
AcDbLine
10
274
20
76
30
0
11
302
21
76
31
0
0
LINE
100
AcDbEntity
8
LIVING_HINGE_CUTS
100
AcDbLine
10
306
20
76
30
0
11
314
21
76
31
0
0
LINE
100
AcDbEntity
8
LIVING_HINGE_CUTS
100
AcDbLine
10
28
20
80
30
0
11
40
21
80
31
0
0
LINE
100
AcDbEntity
8
LIVING_HINGE_CUTS
100
AcDbLine
10
44
20
80
30
0
11
72
21
80
31
0
0
LINE
100
AcDbEntity
8
LIVING_HINGE_CUTS
100
AcDbLine
10
76
20
80
30
0
11
104
21
80
31
0
0
LINE
100
AcDbEntity
8
LIVING_HINGE_CUTS
100
AcDbLine
10
108
20
80
30
0
11
136
21
80
31
0
0
LINE
100
AcDbEntity
8
LIVING_HINGE_CUTS
100
AcDbLine
10
140
20
80
30
0
11
164
21
80
31
0
0
LINE
100
AcDbEntity
8
LIVING_HINGE_CUTS
100
AcDbLine
10
178
20
80
30
0
11
190
21
80
31
0
0
LINE
100
AcDbEntity
8
LIVING_HINGE_CUTS
100
AcDbLine
10
194
20
80
30
0
11
222
21
80
31
0
0
LINE
100
AcDbEntity
8
LIVING_HINGE_CUTS
100
AcDbLine
10
226
20
80
30
0
11
254
21
80
31
0
0
LINE
100
AcDbEntity
8
LIVING_HINGE_CUTS
100
AcDbLine
10
258
20
80
30
0
11
286
21
80
31
0
0
LINE
100
AcDbEntity
8
LIVING_HINGE_CUTS
100
AcDbLine
10
290
20
80
30
0
11
314
21
80
31
0
0
LINE
100
AcDbEntity
8
LIVING_HINGE_CUTS
100
AcDbLine
10
28
20
84
30
0
11
56
21
84
31
0
0
LINE
100
AcDbEntity
8
LIVING_HINGE_CUTS
100
AcDbLine
10
60
20
84
30
0
11
88
21
84
31
0
0
LINE
100
AcDbEntity
8
LIVING_HINGE_CUTS
100
AcDbLine
10
92
20
84
30
0
11
120
21
84
31
0
0
LINE
100
AcDbEntity
8
LIVING_HINGE_CUTS
100
AcDbLine
10
124
20
84
30
0
11
152
21
84
31
0
0
LINE
100
AcDbEntity
8
LIVING_HINGE_CUTS
100
AcDbLine
10
156
20
84
30
0
11
164
21
84
31
0
0
LINE
100
AcDbEntity
8
LIVING_HINGE_CUTS
100
AcDbLine
10
178
20
84
30
0
11
206
21
84
31
0
0
LINE
100
AcDbEntity
8
LIVING_HINGE_CUTS
100
AcDbLine
10
210
20
84
30
0
11
238
21
84
31
0
0
LINE
100
AcDbEntity
8
LIVING_HINGE_CUTS
100
AcDbLine
10
242
20
84
30
0
11
270
21
84
31
0
0
LINE
100
AcDbEntity
8
LIVING_HINGE_CUTS
100
AcDbLine
10
274
20
84
30
0
11
302
21
84
31
0
0
LINE
100
AcDbEntity
8
LIVING_HINGE_CUTS
100
AcDbLine
10
306
20
84
30
0
11
314
21
84
31
0
0
LINE
100
AcDbEntity
8
LIVING_HINGE_CUTS
100
AcDbLine
10
28
20
88
30
0
11
40
21
88
31
0
0
LINE
100
AcDbEntity
8
LIVING_HINGE_CUTS
100
AcDbLine
10
44
20
88
30
0
11
72
21
88
31
0
0
LINE
100
AcDbEntity
8
LIVING_HINGE_CUTS
100
AcDbLine
10
76
20
88
30
0
11
104
21
88
31
0
0
LINE
100
AcDbEntity
8
LIVING_HINGE_CUTS
100
AcDbLine
10
108
20
88
30
0
11
136
21
88
31
0
0
LINE
100
AcDbEntity
8
LIVING_HINGE_CUTS
100
AcDbLine
10
140
20
88
30
0
11
164
21
88
31
0
0
LINE
100
AcDbEntity
8
LIVING_HINGE_CUTS
100
AcDbLine
10
178
20
88
30
0
11
190
21
88
31
0
0
LINE
100
AcDbEntity
8
LIVING_HINGE_CUTS
100
AcDbLine
10
194
20
88
30
0
11
222
21
88
31
0
0
LINE
100
AcDbEntity
8
LIVING_HINGE_CUTS
100
AcDbLine
10
226
20
88
30
0
11
254
21
88
31
0
0
LINE
100
AcDbEntity
8
LIVING_HINGE_CUTS
100
AcDbLine
10
258
20
88
30
0
11
286
21
88
31
0
0
LINE
100
AcDbEntity
8
LIVING_HINGE_CUTS
100
AcDbLine
10
290
20
88
30
0
11
314
21
88
31
0
0
LINE
100
AcDbEntity
8
LIVING_HINGE_CUTS
100
AcDbLine
10
28
20
92
30
0
11
56
21
92
31
0
0
LINE
100
AcDbEntity
8
LIVING_HINGE_CUTS
100
AcDbLine
10
60
20
92
30
0
11
88
21
92
31
0
0
LINE
100
AcDbEntity
8
LIVING_HINGE_CUTS
100
AcDbLine
10
92
20
92
30
0
11
120
21
92
31
0
0
LINE
100
AcDbEntity
8
LIVING_HINGE_CUTS
100
AcDbLine
10
124
20
92
30
0
11
152
21
92
31
0
0
LINE
100
AcDbEntity
8
LIVING_HINGE_CUTS
100
AcDbLine
10
156
20
92
30
0
11
164
21
92
31
0
0
LINE
100
AcDbEntity
8
LIVING_HINGE_CUTS
100
AcDbLine
10
178
20
92
30
0
11
206
21
92
31
0
0
LINE
100
AcDbEntity
8
LIVING_HINGE_CUTS
100
AcDbLine
10
210
20
92
30
0
11
238
21
92
31
0
0
LINE
100
AcDbEntity
8
LIVING_HINGE_CUTS
100
AcDbLine
10
242
20
92
30
0
11
270
21
92
31
0
0
LINE
100
AcDbEntity
8
LIVING_HINGE_CUTS
100
AcDbLine
10
274
20
92
30
0
11
302
21
92
31
0
0
LINE
100
AcDbEntity
8
LIVING_HINGE_CUTS
100
AcDbLine
10
306
20
92
30
0
11
314
21
92
31
0
0
ENDSEC
0
EOF