0
SECTION
2
ENTITIES
0
LWPOLYLINE
100
AcDbEntity
8
CUT
100
AcDbPolyline
90
21
70
1
10
16
20
10
10
864
20
10
10
864
20
22
10
870
20
22
10
870
20
40
10
864
20
40
10
864
20
50
10
870
20
50
10
870
20
68
10
864
20
68
10
864
20
80
10
16
20
80
10
16
20
68
10
10
20
68
10
10
20
50
10
16
20
50
10
16
20
40
10
10
20
40
10
10
20
22
10
16
20
22
10
16
20
10
0
LWPOLYLINE
100
AcDbEntity
8
CUT
100
AcDbPolyline
90
4
70
1
10
293.666667
20
45
10
299.666667
20
45
10
299.666667
20
80
10
293.666667
20
80
0
LWPOLYLINE
100
AcDbEntity
8
CUT
100
AcDbPolyline
90
4
70
1
10
580.333333
20
45
10
586.333333
20
45
10
586.333333
20
80
10
580.333333
20
80
0
ENDSEC
0
EOF
