0
SECTION
2
ENTITIES
0
LWPOLYLINE
100
AcDbEntity
8
CUT
100
AcDbPolyline
90
207
70
1
10
42
20
154
10
42
20
322
10
42.043825
20
322.836228
10
42.174819
20
323.663294
10
42.391548
20
324.472136
10
42.691636
20
325.253893
10
43.071797
20
326
10
43.527864
20
326.702282
10
44.054841
20
327.353045
10
44.646955
20
327.945159
10
45.297718
20
328.472136
10
46
20
328.928203
10
46.746107
20
329.308364
10
47.527864
20
329.608452
10
48.336706
20
329.825181
10
49.163772
20
329.956175
10
50
20
330
10
98
20
330
10
98.623178
20
329.996164
10
99.267546
20
329.983706
10
99.92869
20
329.961196
10
100.602195
20
329.927207
10
101.283646
20
329.880311
10
101.968629
20
329.819081
10
102.652729
20
329.742087
10
103.331531
20
329.647903
10
104.000621
20
329.5351
10
104.655583
20
329.402251
10
105.292004
20
329.247926
10
105.905469
20
329.0707
10
106.491562
20
328.869143
10
107.04587
20
328.641828
10
107.563977
20
328.387326
10
108.041469
20
328.10421
10
108.473931
20
327.791052
10
108.856949
20
327.446424
10
109.186107
20
327.068898
10
109.456992
20
326.657046
10
109.665188
20
326.20944
10
109.806281
20
325.724652
10
109.875856
20
325.201254
10
109.869498
20
324.637819
10
109.782794
20
324.032918
10
109.611327
20
323.385124
10
109.350684
20
322.693008
10
109.045591
20
321.978773
10
108.730493
20
321.234777
10
108.405586
20
320.461491
10
108.071063
20
319.659389
10
107.727118
20
318.828942
10
107.373945
20
317.970624
10
107.011739
20
317.084907
10
106.640694
20
316.172263
10
106.261004
20
315.233165
10
105.872863
20
314.268086
10
105.476465
20
313.277498
10
105.072005
20
312.261874
10
104.659677
20
311.221686
10
104.239674
20
310.157406
10
103.812192
20
309.069508
10
103.377423
20
307.958464
10
102.935563
20
306.824746
10
102.486806
20
305.668827
10
102.031345
20
304.491179
10
101.569376
20
303.292276
10
101.101091
20
302.072589
10
100.626685
20
300.832591
10
100.146353
20
299.572755
10
99.660289
20
298.293553
10
99.168686
20
296.995458
10
98.671739
20
295.678942
10
98.169643
20
294.344478
10
97.66259
20
292.992538
10
97.150776
20
291.623596
10
96.634395
20
290.238122
10
96.11364
20
288.836591
10
95.588707
20
287.419475
10
95.059789
20
285.987245
10
94.527079
20
284.540375
10
93.990774
20
283.079338
10
93.451066
20
281.604605
10
92.90815
20
280.116649
10
92.36222
20
278.615944
10
91.81347
20
277.10296
10
91.262095
20
275.578172
10
90.708288
20
274.042051
10
90.152243
20
272.49507
10
89.594156
20
270.937702
10
89.03422
20
269.370419
10
88.472629
20
267.793693
10
87.909577
20
266.207998
10
87.345259
20
264.613806
10
86.779868
20
263.011589
10
86.2136
20
261.401819
10
85.646648
20
259.78497
10
85.079206
20
258.161514
10
84.511468
20
256.531924
10
83.943629
20
254.896672
10
83.375883
20
253.25623
10
82.808424
20
251.611071
10
82.241446
20
249.961668
10
81.675143
20
248.308493
10
81.109709
20
246.652019
10
80.54534
20
244.992719
10
79.982228
20
243.331064
10
79.420568
20
241.667527
10
78.860555
20
240.002582
10
78.302381
20
238.3367
10
77.746243
20
236.670354
10
77.192332
20
235.004017
10
76.640845
20
233.33816
10
76.091975
20
231.673258
10
75.545916
20
230.009782
10
75.002863
20
228.348204
10
74.463009
20
226.688998
10
73.926549
20
225.032636
10
73.393676
20
223.37959
10
72.864586
20
221.730333
10
72.339472
20
220.085337
10
71.818529
20
218.445076
10
71.30195
20
216.810021
10
70.789929
20
215.180645
10
70.282662
20
213.557421
10
69.780342
20
211.940822
10
69.283163
20
210.331319
10
68.79132
20
208.729385
10
68.305006
20
207.135493
10
67.824417
20
205.550116
10
67.349745
20
203.973726
10
66.881185
20
202.406795
10
66.418932
20
200.849796
10
65.963179
20
199.303202
10
65.514121
20
197.767485
10
65.071952
20
196.243117
10
64.636865
20
194.730572
10
64.209056
20
193.230322
10
63.788719
20
191.742839
10
63.376047
20
190.268596
10
62.971234
20
188.808065
10
62.574476
20
187.361719
10
62.185965
20
185.930031
10
61.805897
20
184.513473
10
61.434466
20
183.112517
10
61.071865
20
181.727637
10
60.718288
20
180.359304
10
60.373931
20
179.007992
10
60.038986
20
177.674172
10
59.713649
20
176.358318
10
59.398114
20
175.060902
10
59.092574
20
173.782396
10
58.797224
20
172.523273
10
58.512258
20
171.284005
10
58.23787
20
170.065066
10
57.974254
20
168.866927
10
57.721605
20
167.690061
10
57.480117
20
166.534941
10
57.249983
20
165.402039
10
57.031398
20
164.291829
10
56.824557
20
163.204781
10
56.629653
20
162.141369
10
56.446881
20
161.102066
10
56.276434
20
160.087344
10
56.118507
20
159.097675
10
55.973294
20
158.133532
10
55.84099
20
157.195388
10
55.721788
20
156.283716
10
55.615882
20
155.398986
10
55.523467
20
154.541673
10
55.484966
20
154.256563
10
55.431783
20
153.97711
10
55.364328
20
153.703716
10
55.283009
20
153.43678
10
55.188234
20
153.176702
10
55.080413
20
152.923883
10
54.959955
20
152.678722
10
54.827267
20
152.44162
10
54.682759
20
152.212977
10
54.52684
20
151.993193
10
54.359918
20
151.782668
10
54.182402
20
151.581803
10
53.9947
20
151.390996
10
53.797222
20
151.210649
10
53.590377
20
151.041162
10
53.374572
20
150.882934
10
53.150216
20
150.736366
10
52.91772
20
150.601858
10
52.67749
20
150.47981
10
52.429936
20
150.370622
10
52.175467
20
150.274695
10
51.91449
20
150.192427
10
51.647417
20
150.12422
10
51.374653
20
150.070474
10
51.09661
20
150.031589
10
50.813694
20
150.007964
10
50.526316
20
150
10
46
20
150
10
45.430741
20
150.040714
10
44.87307
20
150.162028
10
44.33834
20
150.361472
10
43.837437
20
150.634986
10
43.380557
20
150.977002
10
42.977002
20
151.380557
10
42.634986
20
151.837437
10
42.361472
20
152.33834
10
42.162028
20
152.87307
10
42.040714
20
153.430741
10
42
20
154
0
LWPOLYLINE
100
AcDbEntity
8
CUT
100
AcDbPolyline
90
229
70
1
10
16
20
10
10
16
20
30
10
10
20
30
10
10
20
50
10
16
20
50
10
16
20
70
10
10
20
70
10
10
20
90
10
16
20
90
10
16
20
110
10
10
20
110
10
10
20
130
10
16
20
130
10
16
20
150
10
10
20
150
10
10
20
170
10
16
20
170
10
16
20
190
10
10
20
190
10
10
20
210
10
16
20
210
10
16
20
230
10
10
20
230
10
10
20
250
10
16
20
250
10
16
20
270
10
10
20
270
10
10
20
290
10
16
20
290
10
16
20
310
10
10
20
310
10
10
20
330
10
16
20
330
10
16
20
350
10
10
20
350
10
10
20
370
10
16
20
370
10
16
20
390
10
31
20
390
10
31
20
396
10
51
20
396
10
51
20
390
10
66
20
390
10
66
20
396
10
86
20
396
10
86
20
390
10
101
20
390
10
101
20
396
10
121
20
396
10
121
20
390
10
136
20
390
10
136
20
396
10
156
20
396
10
156
20
390
10
166
20
390
10
165.864399
20
389.958276
10
165.699479
20
389.83377
10
165.505651
20
389.627479
10
165.283324
20
389.340401
10
165.032908
20
388.973533
10
164.754814
20
388.527873
10
164.449451
20
388.004419
10
164.117229
20
387.404168
10
163.758557
20
386.728118
10
163.373847
20
385.977266
10
162.963508
20
385.15261
10
162.527949
20
384.255147
10
162.067581
20
383.285876
10
161.582813
20
382.245793
10
161.074056
20
381.135897
10
160.54172
20
379.957185
10
159.986214
20
378.710654
10
159.407948
20
377.397303
10
158.807332
20
376.018128
10
158.184777
20
374.574127
10
157.540691
20
373.066299
10
156.875486
20
371.49564
10
156.18957
20
369.863148
10
155.483354
20
368.169821
10
154.757248
20
366.416656
10
154.011662
20
364.604651
10
153.247005
20
362.734803
10
152.463687
20
360.808111
10
151.662119
20
358.825571
10
150.842711
20
356.788182
10
150.005871
20
354.696941
10
149.152011
20
352.552845
10
148.28154
20
350.356892
10
147.394868
20
348.11008
10
146.492405
20
345.813406
10
145.574561
20
343.467868
10
144.641745
20
341.074463
10
143.694368
20
338.63419
10
142.73284
20
336.148045
10
141.757571
20
333.617027
10
140.76897
20
331.042132
10
139.767447
20
328.424359
10
138.753412
20
325.764705
10
137.727276
20
323.064168
10
136.689448
20
320.323744
10
135.640338
20
317.544433
10
134.580357
20
314.727231
10
133.509913
20
311.873136
10
132.429417
20
308.983146
10
131.339278
20
306.058258
10
130.239908
20
303.09947
10
129.131715
20
300.10778
10
128.015109
20
297.084184
10
126.890501
20
294.029681
10
125.7583
20
290.945269
10
124.618917
20
287.831944
10
123.472761
20
284.690704
10
122.320242
20
281.522548
10
121.16177
20
278.328472
10
119.997755
20
275.109474
10
118.828607
20
271.866552
10
117.654736
20
268.600704
10
116.476551
20
265.312927
10
115.294464
20
262.004218
10
114.108883
20
258.675575
10
112.920218
20
255.327996
10
111.72888
20
251.962479
10
110.535278
20
248.58002
10
109.339822
20
245.181619
10
108.142923
20
241.768271
10
106.94499
20
238.340975
10
105.746433
20
234.900729
10
104.547661
20
231.448529
10
103.349086
20
227.985374
10
102.151117
20
224.512261
10
100.954163
20
221.030188
10
99.758635
20
217.540153
10
98.564942
20
214.043152
10
97.373495
20
210.540184
10
96.184704
20
207.032246
10
94.998977
20
203.520335
10
93.816726
20
200.005451
10
92.638361
20
196.488589
10
91.46429
20
192.970747
10
90.294924
20
189.452924
10
89.130673
20
185.936116
10
87.971948
20
182.421322
10
86.819157
20
178.909539
10
85.67271
20
175.401764
10
84.533018
20
171.898995
10
83.400491
20
168.402231
10
82.275539
20
164.912467
10
81.15857
20
161.430702
10
80.049997
20
157.957934
10
78.950227
20
154.49516
10
77.859671
20
151.043378
10
76.77874
20
147.603585
10
75.707843
20
144.176778
10
74.647389
20
140.763957
10
73.597789
20
137.366117
10
72.559454
20
133.984257
10
71.532791
20
130.619375
10
70.518213
20
127.272467
10
69.516128
20
123.944532
10
68.526946
20
120.636567
10
67.551078
20
117.349569
10
66.588934
20
114.084537
10
65.640922
20
110.842468
10
64.707453
20
107.624359
10
63.788938
20
104.431208
10
62.885786
20
101.264013
10
61.998406
20
98.123771
10
61.12721
20
95.01148
10
60.272606
20
91.928137
10
59.435005
20
88.874741
10
58.614816
20
85.852288
10
57.81245
20
82.861776
10
57.028316
20
79.904203
10
56.262825
20
76.980567
10
55.516386
20
74.091865
10
54.789409
20
71.239094
10
54.082305
20
68.423253
10
53.395482
20
65.645338
10
52.729352
20
62.906348
10
52.084323
20
60.207279
10
51.460806
20
57.549131
10
50.859211
20
54.9329
10
50.279947
20
52.359583
10
49.723426
20
49.830179
10
49.190055
20
47.345685
10
48.680246
20
44.907098
10
48.194409
20
42.515417
10
47.732952
20
40.171638
10
47.296287
20
37.87676
10
46.884823
20
35.63178
10
46.49897
20
33.437695
10
46.139138
20
31.295504
10
45.805737
20
29.206203
10
45.499177
20
27.170791
10
45.219867
20
25.190264
10
44.968218
20
23.265622
10
44.74464
20
21.39786
10
44.549542
20
19.587977
10
44.468261
20
18.986077
10
44.355987
20
18.396121
10
44.213581
20
17.818955
10
44.041907
20
17.255423
10
43.841828
20
16.70637
10
43.614206
20
16.172641
10
43.359904
20
15.65508
10
43.079786
20
15.154531
10
42.774714
20
14.671841
10
42.445551
20
14.207852
10
42.09316
20
13.763411
10
41.718404
20
13.339361
10
41.322145
20
12.936547
10
40.905247
20
12.555815
10
40.468573
20
12.198008
10
40.012985
20
11.863972
10
39.539346
20
11.554551
10
39.048519
20
11.270589
10
38.541367
20
11.012933
10
38.018754
20
10.782425
10
37.48154
20
10.579911
10
36.930591
20
10.406235
10
36.366768
20
10.262243
10
35.790935
20
10.148779
10
35.203954
20
10.066687
10
34.606688
20
10.016813
10
34
20
10
10
28
20
10
10
28
20
16
10
22
20
16
10
22
20
10
0
ENDSEC
0
EOF
