0
SECTION
2
ENTITIES
0
LWPOLYLINE
100
AcDbEntity
8
CUT
100
AcDbPolyline
90
4
70
1
10
247
20
22
10
253
20
22
10
253
20
40
10
247
20
40
0
LWPOLYLINE
100
AcDbEntity
8
CUT
100
AcDbPolyline
90
4
70
1
10
247
20
50
10
253
20
50
10
253
20
68
10
247
20
68
0
LWPOLYLINE
100
AcDbEntity
8
CUT
100
AcDbPolyline
90
183
70
1
10
480
20
10
10
480
20
16
10
460
20
16
10
460
20
10
10
445
20
10
10
445
20
16
10
425
20
16
10
425
20
10
10
410
20
10
10
410
20
16
10
390
20
16
10
390
20
10
10
375
20
10
10
375
20
16
10
355
20
16
10
355
20
10
10
354.513255
20
10.145666
10
354.264823
20
10.217014
10
353.886
20
10.322198
10
353.369664
20
10.459045
10
353.106801
20
10.526027
10
352.706791
20
10.624715
10
352.163057
20
10.753003
10
351.886861
20
10.815748
10
351.467308
20
10.908136
10
350.898371
20
11.028124
10
350.609939
20
11.086762
10
350.172488
20
11.173044
10
349.580541
20
11.284991
10
348.827268
20
11.420023
10
348.059962
20
11.549702
10
347.27947
20
11.674128
10
346.646151
20
11.769953
10
345.844057
20
11.885175
10
345.031148
20
11.995424
10
344.208268
20
12.100801
10
343.376266
20
12.201405
10
342.535987
20
12.297337
10
341.688277
20
12.388696
10
340.833983
20
12.475583
10
339.973952
20
12.558098
10
338.935533
20
12.651486
10
338.065858
20
12.724735
10
337.018325
20
12.807294
10
336.143103
20
12.871762
10
335.091372
20
12.944075
10
334.039422
20
13.011043
10
332.988717
20
13.072841
10
331.940719
20
13.12964
10
330.896891
20
13.181614
10
329.858696
20
13.228937
10
328.656537
20
13.278497
10
327.635563
20
13.316334
10
326.457501
20
13.355302
10
325.460613
20
13.384465
10
324.314658
20
13.413787
10
323.189308
20
13.438308
10
322.086887
20
13.458303
10
321.009718
20
13.474047
10
319.960121
20
13.485814
10
318.940421
20
13.493878
10
317.814637
20
13.498914
10
313.322692
20
13.503665
10
311.297014
20
13.508697
10
308.882783
20
13.517331
10
304.900018
20
13.537426
10
300.579506
20
13.566679
10
295.940591
20
13.605546
10
290.629633
20
13.657712
10
285.431092
20
13.714493
10
272.605519
20
13.861597
10
268.849392
20
13.901363
10
265.835144
20
13.930336
10
262.224645
20
13.960205
10
258.696771
20
13.982669
10
255.562826
20
13.995493
10
254.022438
20
13.998851
10
252.5
20
14
10
250.977562
20
13.998851
10
249.437174
20
13.995493
10
246.303229
20
13.982669
10
242.775355
20
13.960205
10
239.164856
20
13.930336
10
236.150608
20
13.901363
10
232.394481
20
13.861597
10
219.568908
20
13.714493
10
214.370367
20
13.657712
10
209.059409
20
13.605546
10
204.420494
20
13.566679
10
200.099982
20
13.537426
10
196.117217
20
13.517331
10
193.702986
20
13.508697
10
191.677308
20
13.503665
10
187.185363
20
13.498914
10
186.059579
20
13.493878
10
185.039879
20
13.485814
10
183.990282
20
13.474047
10
182.913113
20
13.458303
10
181.810692
20
13.438308
10
180.685342
20
13.413787
10
179.539387
20
13.384465
10
178.542499
20
13.355302
10
177.364437
20
13.316334
10
176.343463
20
13.278497
10
175.141304
20
13.228937
10
174.103109
20
13.181614
10
173.059281
20
13.12964
10
172.011283
20
13.072841
10
170.960578
20
13.011043
10
169.908628
20
12.944075
10
168.856897
20
12.871762
10
167.981675
20
12.807294
10
166.934142
20
12.724735
10
166.064467
20
12.651486
10
165.026048
20
12.558098
10
164.166017
20
12.475583
10
163.311723
20
12.388696
10
162.464013
20
12.297337
10
161.623734
20
12.201405
10
160.791732
20
12.100801
10
159.968852
20
11.995424
10
159.155943
20
11.885175
10
158.353849
20
11.769953
10
157.72053
20
11.674128
10
156.940038
20
11.549702
10
156.172732
20
11.420023
10
155.419459
20
11.284991
10
154.827512
20
11.173044
10
154.390061
20
11.086762
10
154.101629
20
11.028124
10
153.532692
20
10.908136
10
153.113139
20
10.815748
10
152.836943
20
10.753003
10
152.293209
20
10.624715
10
151.893199
20
10.526027
10
151.630336
20
10.459045
10
151.114
20
10.322198
10
150.735177
20
10.217014
10
150.486745
20
10.145666
10
150
20
10
10
150
20
16
10
130
20
16
10
130
20
10
10
115
20
10
10
115
20
16
10
95
20
16
10
95
20
10
10
80
20
10
10
80
20
16
10
60
20
16
10
60
20
10
10
45
20
10
10
45
20
16
10
25
20
16
10
25
20
10
10
16
20
10
10
16
20
20
10
10
20
20
10
10
20
30
10
16
20
30
10
16
20
40
10
10
20
40
10
10
20
50
10
16
20
50
10
16
20
60
10
10
20
60
10
10
20
70
10
16
20
70
10
16
20
80
10
484
20
80
10
484
20
70
10
490
20
70
10
490
20
60
10
484
20
60
10
484
20
50
10
490
20
50
10
490
20
40
10
484
20
40
10
484
20
30
10
490
20
30
10
490
20
20
10
484
20
20
10
484
20
10
0
ENDSEC
0
EOF
