0
SECTION
2
ENTITIES
0
LWPOLYLINE
100
AcDbEntity
8
CUT
100
AcDbPolyline
90
61
70
1
10
0
20
0
10
6
20
0
10
6
20
-6
10
12
20
-6
10
12
20
0
10
15.5
20
0
10
15.492649
20
0.477323
10
15.470602
20
0.954194
10
15.43388
20
1.43016
10
15.382518
20
1.904769
10
15.316565
20
2.377571
10
15.236083
20
2.848118
10
15.141149
20
3.315963
10
15.031853
20
3.780663
10
14.908297
20
4.241776
10
14.770601
20
4.698866
10
14.618894
20
5.151499
10
14.45332
20
5.599246
10
14.274036
20
6.041681
10
14.081212
20
6.478385
10
13.875031
20
6.908945
10
13.655689
20
7.33295
10
13.423394
20
7.75
10
13.178366
20
8.159699
10
12.920837
20
8.561657
10
12.651052
20
8.955494
10
12.369267
20
9.340837
10
12.075749
20
9.717319
10
11.770776
20
10.084584
10
11.454638
20
10.442282
10
11.127635
20
10.790076
10
10.790076
20
11.127635
10
10.442282
20
11.454638
10
10.084584
20
11.770776
10
9.717319
20
12.075749
10
9.340837
20
12.369267
10
8.955494
20
12.651052
10
8.561657
20
12.920837
10
8.159699
20
13.178366
10
7.75
20
13.423394
10
7.33295
20
13.655689
10
6.908945
20
13.875031
10
6.478385
20
14.081212
10
6.041681
20
14.274036
10
5.599246
20
14.45332
10
5.151499
20
14.618894
10
4.698866
20
14.770601
10
4.241776
20
14.908297
10
3.780663
20
15.031853
10
3.315963
20
15.141149
10
2.848118
20
15.236083
10
2.377571
20
15.316565
10
1.904769
20
15.382518
10
1.43016
20
15.43388
10
0.954194
20
15.470602
10
0.477323
20
15.492649
10
0
20
15.5
10
0
20
12
10
-6
20
12
10
-6
20
6
10
0
20
6
0
ENDSEC
0
EOF
