0
SECTION
2
ENTITIES
0
LWPOLYLINE
100
AcDbEntity
8
CUT
100
AcDbPolyline
90
4
70
1
10
293.666667
20
22
10
299.666667
20
22
10
299.666667
20
40
10
293.666667
20
40
0
LWPOLYLINE
100
AcDbEntity
8
CUT
100
AcDbPolyline
90
4
70
1
10
293.666667
20
50
10
299.666667
20
50
10
299.666667
20
68
10
293.666667
20
68
0
LWPOLYLINE
100
AcDbEntity
8
CUT
100
AcDbPolyline
90
4
70
1
10
580.333333
20
22
10
586.333333
20
22
10
586.333333
20
40
10
580.333333
20
40
0
LWPOLYLINE
100
AcDbEntity
8
CUT
100
AcDbPolyline
90
4
70
1
10
580.333333
20
50
10
586.333333
20
50
10
586.333333
20
68
10
580.333333
20
68
0
LWPOLYLINE
100
AcDbEntity
8
CUT
100
AcDbPolyline
90
201
70
1
10
870
20
10
10
860
20
10
10
860
20
16
10
840
20
16
10
840
20
10
10
825
20
10
10
825
20
16
10
805
20
16
10
805
20
10
10
790
20
10
10
790
20
16
10
770
20
16
10
770
20
10
10
755
20
10
10
755
20
16
10
735
20
16
10
735
20
10
10
734.756526
20
10.07333
10
734.378238
20
10.181463
10
734.11748
20
10.25232
10
733.713749
20
10.356772
10
733.436351
20
10.425195
10
733.008144
20
10.526027
10
732.71475
20
10.592056
10
732.263033
20
10.689327
10
731.954288
20
10.753003
10
731.480028
20
10.846774
10
731.156577
20
10.908136
10
730.66074
20
10.998467
10
730.323227
20
11.057555
10
729.806781
20
11.144506
10
729.278433
20
11.229457
10
728.738531
20
11.312431
10
728.372349
20
11.366659
10
727.813964
20
11.446384
10
727.244954
20
11.52419
10
726.665665
20
11.600097
10
726.273935
20
11.649658
10
725.67829
20
11.722449
10
725.073295
20
11.7934
10
724.459298
20
11.862532
10
723.416912
20
11.973768
10
722.780611
20
12.038154
10
722.136586
20
12.100801
10
721.485182
20
12.16173
10
720.826748
20
12.220962
10
720.161633
20
12.278519
10
719.490184
20
12.334423
10
718.812749
20
12.388696
10
718.129676
20
12.441358
10
716.748009
20
12.54194
10
715.347968
20
12.636341
10
714.641926
20
12.681278
10
713.695076
20
12.738895
10
712.264772
20
12.820499
10
710.584198
20
12.908597
10
709.136702
20
12.978216
10
707.443694
20
13.052805
10
705.750306
20
13.120513
10
704.06096
20
13.181614
10
702.380076
20
13.236384
10
700.475099
20
13.291576
10
698.593548
20
13.339268
10
696.742022
20
13.379868
10
694.927121
20
13.413787
10
692.937352
20
13.444471
10
691.222189
20
13.465555
10
689.564273
20
13.48124
10
687.775763
20
13.492942
10
686.077454
20
13.498914
10
674.233899
20
13.502234
10
666.599283
20
13.50644
10
657.499751
20
13.514151
10
646.97051
20
13.526535
10
638.021168
20
13.539795
10
627.670149
20
13.558034
10
617.417583
20
13.578912
10
605.823151
20
13.605546
10
591.518095
20
13.642211
10
576.029445
20
13.685705
10
527.229422
20
13.834392
10
511.634926
20
13.880188
10
498.907037
20
13.914688
10
486.427765
20
13.944742
10
474.202183
20
13.969304
10
463.420258
20
13.985849
10
452.851631
20
13.996335
10
442.5
20
14
10
432.148369
20
13.996335
10
421.579742
20
13.985849
10
410.797817
20
13.969304
10
398.572235
20
13.944742
10
386.092963
20
13.914688
10
373.365074
20
13.880188
10
357.770578
20
13.834392
10
308.970555
20
13.685705
10
293.481905
20
13.642211
10
279.176849
20
13.605546
10
267.582417
20
13.578912
10
257.329851
20
13.558034
10
246.978832
20
13.539795
10
238.02949
20
13.526535
10
227.500249
20
13.514151
10
218.400717
20
13.50644
10
210.766101
20
13.502234
10
198.922546
20
13.498914
10
197.224237
20
13.492942
10
195.435727
20
13.48124
10
193.777811
20
13.465555
10
192.062648
20
13.444471
10
190.072879
20
13.413787
10
188.257978
20
13.379868
10
186.406452
20
13.339268
10
184.524901
20
13.291576
10
182.619924
20
13.236384
10
180.93904
20
13.181614
10
179.249694
20
13.120513
10
177.556306
20
13.052805
10
175.863298
20
12.978216
10
174.415802
20
12.908597
10
172.735228
20
12.820499
10
171.304924
20
12.738895
10
170.358074
20
12.681278
10
169.652032
20
12.636341
10
168.251991
20
12.54194
10
166.870324
20
12.441358
10
166.187251
20
12.388696
10
165.509816
20
12.334423
10
164.838367
20
12.278519
10
164.173252
20
12.220962
10
163.514818
20
12.16173
10
162.863414
20
12.100801
10
162.219389
20
12.038154
10
161.583088
20
11.973768
10
160.540702
20
11.862532
10
159.926705
20
11.7934
10
159.32171
20
11.722449
10
158.726065
20
11.649658
10
158.334335
20
11.600097
10
157.755046
20
11.52419
10
157.186036
20
11.446384
10
156.627651
20
11.366659
10
156.261469
20
11.312431
10
155.721567
20
11.229457
10
155.193219
20
11.144506
10
154.676773
20
11.057555
10
154.33926
20
10.998467
10
153.843423
20
10.908136
10
153.519972
20
10.846774
10
153.045712
20
10.753003
10
152.736967
20
10.689327
10
152.28525
20
10.592056
10
151.991856
20
10.526027
10
151.563649
20
10.425195
10
151.286251
20
10.356772
10
150.88252
20
10.25232
10
150.621762
20
10.181463
10
150.243474
20
10.07333
10
150
20
10
10
150
20
16
10
130
20
16
10
130
20
10
10
115
20
10
10
115
20
16
10
95
20
16
10
95
20
10
10
80
20
10
10
80
20
16
10
60
20
16
10
60
20
10
10
45
20
10
10
45
20
16
10
25
20
16
10
25
20
10
10
10
20
10
10
10
20
20
10
16
20
20
10
16
20
30
10
10
20
30
10
10
20
40
10
16
20
40
10
16
20
50
10
10
20
50
10
10
20
60
10
16
20
60
10
16
20
70
10
10
20
70
10
10
20
80
10
870
20
80
10
870
20
70
10
864
20
70
10
864
20
60
10
870
20
60
10
870
20
50
10
864
20
50
10
864
20
40
10
870
20
40
10
870
20
30
10
864
20
30
10
864
20
20
10
870
20
20
0
ENDSEC
0
EOF
