  0
SECTION
  2
HEADER
  9
$ACADVER
  1
AC1024
  9
$ACADMAINTVER
 70
6
  9
$DWGCODEPAGE
  3
ANSI_1252
  9
$LASTSAVEDBY
  1
ezdxf
  9
$INSBASE
 10
0.0
 20
0.0
 30
0.0
  9
$EXTMIN
 10
1e+20
 20
1e+20
 30
1e+20
  9
$EXTMAX
 10
-1e+20
 20
-1e+20
 30
-1e+20
  9
$LIMMIN
 10
0.0
 20
0.0
  9
$LIMMAX
 10
420.0
 20
297.0
  9
$ORTHOMODE
 70
0
  9
$REGENMODE
 70
1
  9
$FILLMODE
 70
1
  9
$QTEXTMODE
 70
0
  9
$MIRRTEXT
 70
1
  9
$LTSCALE
 40
1.0
  9
$ATTMODE
 70
1
  9
$TEXTSIZE
 40
2.5
  9
$TRACEWID
 40
1.0
  9
$TEXTSTYLE
  7
Standard
  9
$CLAYER
  8
0
  9
$CELTYPE
  6
ByLayer
  9
$CECOLOR
 62
256
  9
$CELTSCALE
 40
1.0
  9
$DISPSILH
 70
0
  9
$DIMSCALE
 40
1.0
  9
$DIMASZ
 40
2.5
  9
$DIMEXO
 40
0.625
  9
$DIMDLI
 40
3.75
  9
$DIMRND
 40
0.0
  9
$DIMDLE
 40
0.0
  9
$DIMEXE
 40
1.25
  9
$DIMTP
 40
0.0
  9
$DIMTM
 40
0.0
  9
$DIMTXT
 40
2.5
  9
$DIMCEN
 40
2.5
  9
$DIMTSZ
 40
0.0
  9
$DIMTOL
 70
0
  9
$DIMLIM
 70
0
  9
$DIMTIH
 70
0
  9
$DIMTOH
 70
0
  9
$DIMSE1
 70
0
  9
$DIMSE2
 70
0
  9
$DIMTAD
 70
1
  9
$DIMZIN
 70
8
  9
$DIMBLK
  1

  9
$DIMASO
 70
1
  9
$DIMSHO
 70
1
  9
$DIMPOST
  1

  9
$DIMAPOST
  1

  9
$DIMALT
 70
0
  9
$DIMALTD
 70
3
  9
$DIMALTF
 40
0.03937007874
  9
$DIMLFAC
 40
1.0
  9
$DIMTOFL
 70
1
  9
$DIMTVP
 40
0.0
  9
$DIMTIX
 70
0
  9
$DIMSOXD
 70
0
  9
$DIMSAH
 70
0
  9
$DIMBLK1
  1

  9
$DIMBLK2
  1

  9
$DIMSTYLE
  2
ISO-25
  9
$DIMCLRD
 70
0
  9
$DIMCLRE
 70
0
  9
$DIMCLRT
 70
0
  9
$DIMTFAC
 40
1.0
  9
$DIMGAP
 40
0.625
  9
$DIMJUST
 70
0
  9
$DIMSD1
 70
0
  9
$DIMSD2
 70
0
  9
$DIMTOLJ
 70
0
  9
$DIMTZIN
 70
8
  9
$DIMALTZ
 70
0
  9
$DIMALTTZ
 70
0
  9
$DIMUPT
 70
0
  9
$DIMDEC
 70
2
  9
$DIMTDEC
 70
2
  9
$DIMALTU
 70
2
  9
$DIMALTTD
 70
3
  9
$DIMTXSTY
  7
Standard
  9
$DIMAUNIT
 70
0
  9
$DIMADEC
 70
0
  9
$DIMALTRND
 40
0.0
  9
$DIMAZIN
 70
0
  9
$DIMDSEP
 70
44
  9
$DIMATFIT
 70
3
  9
$DIMFRAC
 70
0
  9
$DIMLDRBLK
  1

  9
$DIMLUNIT
 70
2
  9
$DIMLWD
 70
-2
  9
$DIMLWE
 70
-2
  9
$DIMTMOVE
 70
0
  9
$DIMFXL
 40
1.0
  9
$DIMFXLON
 70
0
  9
$DIMJOGANG
 40
0.785398163397
  9
$DIMTFILL
 70
0
  9
$DIMTFILLCLR
 70
0
  9
$DIMARCSYM
 70
0
  9
$DIMLTYPE
  6

  9
$DIMLTEX1
  6

  9
$DIMLTEX2
  6

  9
$DIMTXTDIRECTION
 70
0
  9
$LUNITS
 70
2
  9
$LUPREC
 70
4
  9
$SKETCHINC
 40
1.0
  9
$FILLETRAD
 40
10.0
  9
$AUNITS
 70
0
  9
$AUPREC
 70
2
  9
$MENU
  1
.
  9
$ELEVATION
 40
0.0
  9
$PELEVATION
 40
0.0
  9
$THICKNESS
 40
0.0
  9
$LIMCHECK
 70
0
  9
$CHAMFERA
 40
0.0
  9
$CHAMFERB
 40
0.0
  9
$CHAMFERC
 40
0.0
  9
$CHAMFERD
 40
0.0
  9
$SKPOLY
 70
0
  9
$TDCREATE
 40
2461319.269201389
  9
$TDUCREATE
 40
2458532.153996898
  9
$TDUPDATE
 40
2461319.269201389
  9
$TDUUPDATE
 40
2458532.1544311
  9
$TDINDWG
 40
0.0
  9
$TDUSRTIMER
 40
0.0
  9
$USRTIMER
 70
1
  9
$ANGBASE
 50
0.0
  9
$ANGDIR
 70
0
  9
$PDMODE
 70
0
  9
$PDSIZE
 40
0.0
  9
$PLINEWID
 40
0.0
  9
$SPLFRAME
 70
0
  9
$SPLINETYPE
 70
6
  9
$SPLINESEGS
 70
8
  9
$HANDSEED
  5
35
  9
$SURFTAB1
 70
6
  9
$SURFTAB2
 70
6
  9
$SURFTYPE
 70
6
  9
$SURFU
 70
6
  9
$SURFV
 70
6
  9
$UCSBASE
  2

  9
$UCSNAME
  2

  9
$UCSORG
 10
0.0
 20
0.0
 30
0.0
  9
$UCSXDIR
 10
1.0
 20
0.0
 30
0.0
  9
$UCSYDIR
 10
0.0
 20
1.0
 30
0.0
  9
$UCSORTHOREF
  2

  9
$UCSORTHOVIEW
 70
0
  9
$UCSORGTOP
 10
0.0
 20
0.0
 30
0.0
  9
$UCSORGBOTTOM
 10
0.0
 20
0.0
 30
0.0
  9
$UCSORGLEFT
 10
0.0
 20
0.0
 30
0.0
  9
$UCSORGRIGHT
 10
0.0
 20
0.0
 30
0.0
  9
$UCSORGFRONT
 10
0.0
 20
0.0
 30
0.0
  9
$UCSORGBACK
 10
0.0
 20
0.0
 30
0.0
  9
$PUCSBASE
  2

  9
$PUCSNAME
  2

  9
$PUCSORG
 10
0.0
 20
0.0
 30
0.0
  9
$PUCSXDIR
 10
1.0
 20
0.0
 30
0.0
  9
$PUCSYDIR
 10
0.0
 20
1.0
 30
0.0
  9
$PUCSORTHOREF
  2

  9
$PUCSORTHOVIEW
 70
0
  9
$PUCSORGTOP
 10
0.0
 20
0.0
 30
0.0
  9
$PUCSORGBOTTOM
 10
0.0
 20
0.0
 30
0.0
  9
$PUCSORGLEFT
 10
0.0
 20
0.0
 30
0.0
  9
$PUCSORGRIGHT
 10
0.0
 20
0.0
 30
0.0
  9
$PUCSORGFRONT
 10
0.0
 20
0.0
 30
0.0
  9
$PUCSORGBACK
 10
0.0
 20
0.0
 30
0.0
  9
$USERI1
 70
0
  9
$USERI2
 70
0
  9
$USERI3
 70
0
  9
$USERI4
 70
0
  9
$USERI5
 70
0
  9
$USERR1
 40
0.0
  9
$USERR2
 40
0.0
  9
$USERR3
 40
0.0
  9
$USERR4
 40
0.0
  9
$USERR5
 40
0.0
  9
$WORLDVIEW
 70
1
  9
$SHADEDGE
 70
3
  9
$SHADEDIF
 70
70
  9
$TILEMODE
 70
1
  9
$MAXACTVP
 70
64
  9
$PINSBASE
 10
0.0
 20
0.0
 30
0.0
  9
$PLIMCHECK
 70
0
  9
$PEXTMIN
 10
1e+20
 20
1e+20
 30
1e+20
  9
$PEXTMAX
 10
-1e+20
 20
-1e+20
 30
-1e+20
  9
$PLIMMIN
 10
0.0
 20
0.0
  9
$PLIMMAX
 10
420.0
 20
297.0
  9
$UNITMODE
 70
0
  9
$VISRETAIN
 70
1
  9
$PLINEGEN
 70
0
  9
$PSLTSCALE
 70
1
  9
$TREEDEPTH
 70
3020
  9
$CMLSTYLE
  2
Standard
  9
$CMLJUST
 70
0
  9
$CMLSCALE
 40
20.0
  9
$PROXYGRAPHICS
 70
1
  9
$MEASUREMENT
 70
1
  9
$CELWEIGHT
370
-1
  9
$ENDCAPS
280
0
  9
$JOINSTYLE
280
0
  9
$LWDISPLAY
290
0
  9
$INSUNITS
 70
4
  9
$HYPERLINKBASE
  1

  9
$STYLESHEET
  1

  9
$XEDIT
290
1
  9
$CEPSNTYPE
380
0
  9
$PSTYLEMODE
290
1
  9
$FINGERPRINTGUID
  2
{1A980E39-0BC8-4B9D-80FD-AEBFDF8E9825}
  9
$VERSIONGUID
  2
{E351525D-8994-400D-B4CC-150B0F3B5FC0}
  9
$EXTNAMES
290
1
  9
$PSVPSCALE
 40
0.0
  9
$OLESTARTUP
290
0
  9
$SORTENTS
280
127
  9
$INDEXCTL
280
0
  9
$HIDETEXT
280
1
  9
$XCLIPFRAME
280
1
  9
$HALOGAP
280
0
  9
$OBSCOLOR
 70
257
  9
$OBSLTYPE
280
0
  9
$INTERSECTIONDISPLAY
280
0
  9
$INTERSECTIONCOLOR
 70
257
  9
$DIMASSOC
280
2
  9
$PROJECTNAME
  1

  9
$CAMERADISPLAY
290
0
  9
$LENSLENGTH
 40
50.0
  9
$CAMERAHEIGHT
 40
0.0
  9
$STEPSPERSEC
 40
24.0
  9
$STEPSIZE
 40
100.0
  9
$3DDWFPREC
 40
2.0
  9
$PSOLWIDTH
 40
0.005
  9
$PSOLHEIGHT
 40
0.08
  9
$LOFTANG1
 40
1.570796326795
  9
$LOFTANG2
 40
1.570796326795
  9
$LOFTMAG1
 40
0.0
  9
$LOFTMAG2
 40
0.0
  9
$LOFTPARAM
 70
7
  9
$LOFTNORMALS
280
1
  9
$LATITUDE
 40
37.795
  9
$LONGITUDE
 40
-122.394
  9
$NORTHDIRECTION
 40
0.0
  9
$TIMEZONE
 70
-8000
  9
$LIGHTGLYPHDISPLAY
280
1
  9
$TILEMODELIGHTSYNCH
280
1
  9
$CMATERIAL
347
20
  9
$SOLIDHIST
280
0
  9
$SHOWHIST
280
1
  9
$DWFFRAME
280
2
  9
$DGNFRAME
280
2
  9
$REALWORLDSCALE
290
1
  9
$INTERFERECOLOR
 62
256
  9
$CSHADOW
280
0
  9
$SHADOWPLANELOCATION
 40
0.0
  0
ENDSEC
  0
SECTION
  2
CLASSES
  0
CLASS
  1
ACDBDICTIONARYWDFLT
  2
AcDbDictionaryWithDefault
  3
ObjectDBX Classes
 90
0
 91
0
280
0
281
0
  0
CLASS
  1
SUN
  2
AcDbSun
  3
SCENEOE
 90
1153
 91
0
280
0
281
0
  0
CLASS
  1
VISUALSTYLE
  2
AcDbVisualStyle
  3
ObjectDBX Classes
 90
4095
 91
0
280
0
281
0
  0
CLASS
  1
MATERIAL
  2
AcDbMaterial
  3
ObjectDBX Classes
 90
1153
 91
0
280
0
281
0
  0
CLASS
  1
SCALE
  2
AcDbScale
  3
ObjectDBX Classes
 90
1153
 91
0
280
0
281
0
  0
CLASS
  1
TABLESTYLE
  2
AcDbTableStyle
  3
ObjectDBX Classes
 90
4095
 91
0
280
0
281
0
  0
CLASS
  1
MLEADERSTYLE
  2
AcDbMLeaderStyle
  3
ACDB_MLEADERSTYLE_CLASS
 90
4095
 91
0
280
0
281
0
  0
CLASS
  1
DICTIONARYVAR
  2
AcDbDictionaryVar
  3
ObjectDBX Classes
 90
0
 91
0
280
0
281
0
  0
CLASS
  1
CELLSTYLEMAP
  2
AcDbCellStyleMap
  3
ObjectDBX Classes
 90
1152
 91
0
280
0
281
0
  0
CLASS
  1
MENTALRAYRENDERSETTINGS
  2
AcDbMentalRayRenderSettings
  3
SCENEOE
 90
1024
 91
0
280
0
281
0
  0
CLASS
  1
ACDBDETAILVIEWSTYLE
  2
AcDbDetailViewStyle
  3
ObjectDBX Classes
 90
1025
 91
0
280
0
281
0
  0
CLASS
  1
ACDBSECTIONVIEWSTYLE
  2
AcDbSectionViewStyle
  3
ObjectDBX Classes
 90
1025
 91
0
280
0
281
0
  0
CLASS
  1
RASTERVARIABLES
  2
AcDbRasterVariables
  3
ISM
 90
0
 91
0
280
0
281
0
  0
CLASS
  1
ACDBPLACEHOLDER
  2
AcDbPlaceHolder
  3
ObjectDBX Classes
 90
0
 91
0
280
0
281
0
  0
CLASS
  1
LAYOUT
  2
AcDbLayout
  3
ObjectDBX Classes
 90
0
 91
0
280
0
281
0
  0
ENDSEC
  0
SECTION
  2
TABLES
  0
TABLE
  2
VPORT
  5
8
330
0
100
AcDbSymbolTable
 70
1
  0
VPORT
  5
23
330
8
100
AcDbSymbolTableRecord
100
AcDbViewportTableRecord
  2
*Active
 70
0
 10
0.0
 20
0.0
 11
1.0
 21
1.0
 12
0.0
 22
0.0
 13
0.0
 23
0.0
 14
0.5
 24
0.5
 15
0.5
 25
0.5
 16
0.0
 26
0.0
 36
1.0
 17
0.0
 27
0.0
 37
0.0
 40
1000.0
 41
1.34
 42
50.0
 43
0.0
 44
0.0
 50
0.0
 51
0.0
 71
0
 72
1000
 73
1
 74
3
 75
0
 76
0
 77
0
 78
0
281
0
 65
0
146
0.0
  0
ENDTAB
  0
TABLE
  2
LTYPE
  5
2
330
0
100
AcDbSymbolTable
 70
3
  0
LTYPE
  5
24
330
2
100
AcDbSymbolTableRecord
100
AcDbLinetypeTableRecord
  2
ByBlock
 70
0
  3

 72
65
 73
0
 40
0.0
  0
LTYPE
  5
25
330
2
100
AcDbSymbolTableRecord
100
AcDbLinetypeTableRecord
  2
ByLayer
 70
0
  3

 72
65
 73
0
 40
0.0
  0
LTYPE
  5
26
330
2
100
AcDbSymbolTableRecord
100
AcDbLinetypeTableRecord
  2
Continuous
 70
0
  3

 72
65
 73
0
 40
0.0
  0
ENDTAB
  0
TABLE
  2
LAYER
  5
1
330
0
100
AcDbSymbolTable
 70
3
  0
LAYER
  5
27
330
1
100
AcDbSymbolTableRecord
100
AcDbLayerTableRecord
  2
0
 70
0
 62
7
  6
Continuous
370
-3
390
13
347
21
  0
LAYER
  5
28
330
1
100
AcDbSymbolTableRecord
100
AcDbLayerTableRecord
  2
Defpoints
 70
0
 62
7
  6
Continuous
290
0
370
-3
390
13
347
21
  0
LAYER
  5
2F
330
1
100
AcDbSymbolTableRecord
100
AcDbLayerTableRecord
  2
CUT
 70
0
 62
7
  6
Continuous
370
-3
390
13
347
21
  0
ENDTAB
  0
TABLE
  2
STYLE
  5
5
330
0
100
AcDbSymbolTable
 70
1
  0
STYLE
  5
29
330
5
100
AcDbSymbolTableRecord
100
AcDbTextStyleTableRecord
  2
Standard
 70
0
 40
0.0
 41
1.0
 50
0.0
 71
0
 42
2.5
  3
txt
  4

  0
ENDTAB
  0
TABLE
  2
VIEW
  5
7
330
0
100
AcDbSymbolTable
 70
0
  0
ENDTAB
  0
TABLE
  2
UCS
  5
6
330
0
100
AcDbSymbolTable
 70
0
  0
ENDTAB
  0
TABLE
  2
APPID
  5
3
330
0
100
AcDbSymbolTable
 70
3
  0
APPID
  5
2A
330
3
100
AcDbSymbolTableRecord
100
AcDbRegAppTableRecord
  2
ACAD
 70
0
  0
APPID
  5
32
330
3
100
AcDbSymbolTableRecord
100
AcDbRegAppTableRecord
  2
HATCHBACKGROUNDCOLOR
 70
0
  0
APPID
  5
33
330
3
100
AcDbSymbolTableRecord
100
AcDbRegAppTableRecord
  2
EZDXF
 70
0
  0
ENDTAB
  0
TABLE
  2
DIMSTYLE
  5
4
330
0
100
AcDbSymbolTable
 70
1
100
AcDbDimStyleTable
  0
DIMSTYLE
105
2B
330
4
100
AcDbSymbolTableRecord
100
AcDbDimStyleTableRecord
  2
Standard
 70
0
 40
1.0
 41
2.5
 42
0.625
 43
3.75
 44
1.25
 45
0.0
 46
0.0
 47
0.0
 48
0.0
 49
2.5
140
2.5
141
2.5
142
0.0
143
0.03937007874
144
1.0
145
0.0
146
1.0
147
0.625
148
0.0
 69
0
 70
0
 71
0
 72
0
 73
0
 74
0
 75
0
 76
0
 77
1
 78
8
 79
3
170
0
171
3
172
1
173
0
174
0
175
0
176
0
177
0
178
0
179
2
271
2
272
2
273
2
274
3
275
0
276
0
277
2
278
44
279
0
280
0
281
0
282
0
283
0
284
8
285
0
286
0
288
0
289
3
290
0
371
-2
372
-2
  0
ENDTAB
  0
TABLE
  2
BLOCK_RECORD
  5
9
330
0
100
AcDbSymbolTable
 70
2
  0
BLOCK_RECORD
  5
17
330
9
100
AcDbSymbolTableRecord
100
AcDbBlockTableRecord
  2
*Model_Space
340
1A
 70
0
280
1
281
0
  0
BLOCK_RECORD
  5
1B
330
9
100
AcDbSymbolTableRecord
100
AcDbBlockTableRecord
  2
*Paper_Space
340
1E
 70
0
280
1
281
0
  0
ENDTAB
  0
ENDSEC
  0
SECTION
  2
BLOCKS
  0
BLOCK
  5
18
330
17
100
AcDbEntity
  8
0
100
AcDbBlockBegin
  2
*Model_Space
 70
0
 10
0.0
 20
0.0
 30
0.0
  3
*Model_Space
  1

  0
ENDBLK
  5
19
330
17
100
AcDbEntity
  8
0
100
AcDbBlockEnd
  0
BLOCK
  5
1C
330
1B
100
AcDbEntity
  8
0
100
AcDbBlockBegin
  2
*Paper_Space
 70
0
 10
0.0
 20
0.0
 30
0.0
  3
*Paper_Space
  1

  0
ENDBLK
  5
1D
330
1B
100
AcDbEntity
  8
0
100
AcDbBlockEnd
  0
ENDSEC
  0
SECTION
  2
ENTITIES
  0
LWPOLYLINE
  5
30
330
17
100
AcDbEntity
  8
CUT
100
AcDbPolyline
 90
354
 70
1
 10
34.0
 20
0.0
 10
22.0
 20
0.0
 10
22.0
 20
7.511203006214188
 10
21.967402042304577
 20
7.488244934143154
 10
21.777983262274432
 20
7.359425427764364
 10
21.586482128046526
 20
7.233722384677861
 10
21.392949909105155
 20
7.111169458627899
 10
21.197438418705104
 20
6.991799459996187
 10
21.0
 20
6.875644347017854
 10
20.800687512028762
 20
6.762735217225384
 10
20.59955431556397
 20
6.653102299123034
 10
20.39665425882589
 20
6.546774944094011
 10
20.19204166306602
 20
6.44378161854236
 10
19.98577130802395
 20
6.344149896271787
 10
19.77789841726153
 20
6.247906451103546
 10
19.568478643378157
 20
6.155077049735127
 10
19.357568053111258
 20
6.065686544841981
 10
19.14522311232585
 20
5.979758868423829
 10
18.93150067089727
 20
5.897317025397442
 10
18.716457947491083
 20
5.818383087437709
 10
18.500152514244263
 20
5.742978187068516
 10
18.282642281351748
 20
5.671122512005056
 10
18.063985481562476
 20
5.602835299749074
 10
17.844240654589054
 20
5.53813483243853
 10
17.623466631435292
 20
5.477038431953048
 10
17.401722518645695
 20
5.4195624552763775
 10
17.17906768248123
 20
5.365722290117333
 10
16.955561733025515
 20
5.315532350789994
 10
16.7312645082258
 20
5.2690060743547775
 10
16.50623605787286
 20
5.226155917020918
 10
16.280536627524242
 20
5.18699335081169
 10
16.054226642375067
 20
5.151528860493073
 10
15.827366691080723
 20
5.119771940766654
 10
15.600017509535853
 20
5.091731093727773
 10
15.37223996461385
 20
5.067413826589245
 10
15.144095037871356
 20
5.046826649671473
 10
14.915643809222006
 20
5.029975074659546
 10
14.686947440583854
 20
5.016863613127583
 10
14.45806715950487
 20
5.007495775330881
 10
14.229064242770818
 20
5.001874069266137
 10
14.0
 20
5.0
 10
13.770935757229188
 20
5.001874069266137
 10
13.541932840495136
 20
5.007495775330881
 10
13.313052559416152
 20
5.016863613127583
 10
13.084356190778
 20
5.029975074659546
 10
12.855904962128648
 20
5.046826649671473
 10
12.627760035386155
 20
5.067413826589245
 10
12.39998249046415
 20
5.091731093727773
 10
12.17263330891928
 20
5.119771940766654
 10
11.945773357624937
 20
5.151528860493073
 10
11.719463372475762
 20
5.18699335081169
 10
11.493763942127146
 20
5.226155917020918
 10
11.268735491774208
 20
5.2690060743547775
 10
11.04443826697449
 20
5.315532350789994
 10
10.820932317518777
 20
5.365722290117333
 10
10.598277481354309
 20
5.4195624552763775
 10
10.376533368564711
 20
5.477038431953048
 10
10.155759345410951
 20
5.53813483243853
 10
9.93601451843753
 20
5.602835299749074
 10
9.717357718648255
 20
5.671122512005056
 10
9.49984748575574
 20
5.742978187068516
 10
9.28354205250892
 20
5.818383087437709
 10
9.068499329102735
 20
5.897317025397442
 10
8.854776887674152
 20
5.979758868423829
 10
8.642431946888747
 20
6.065686544841981
 10
8.431521356621849
 20
6.155077049735127
 10
8.222101582738475
 20
6.247906451103532
 10
8.014228691976054
 20
6.344149896271787
 10
7.807958336933984
 20
6.44378161854236
 10
7.603345741174111
 20
6.546774944094011
 10
7.400445684436038
 20
6.65310229912302
 10
7.199312487971245
 20
6.762735217225369
 10
7.0000000000000036
 20
6.875644347017854
 10
6.802561581294896
 20
6.991799459996187
 10
6.607050090894848
 20
7.111169458627899
 10
6.413517871953481
 20
7.233722384677861
 10
6.222016737725573
 20
7.359425427764364
 10
6.032597957695428
 20
7.488244934143154
 10
5.8453122438507705
 20
7.620146415717386
 10
5.660209737105934
 20
7.755094559270972
 10
5.477339993877916
 20
7.893053235922707
 10
5.296751972818917
 20
8.033985510798885
 10
5.118494021708965
 20
8.177853652921684
 10
4.942613864511998
 20
8.324619145310564
 10
4.769158588599041
 20
8.474242695294308
 10
4.598174632141749
 20
8.626684245030575
 10
4.429707771679805
 20
8.781902982230292
 10
4.263803109865439
 20
8.939857351084228
 10
4.100505063388336
 20
9.10050506338834
 10
3.939857351084232
 20
9.263803109865435
 10
3.7819029822303065
 20
9.429707771679801
 10
3.6266842450305745
 20
9.598174632141735
 10
3.4742426952943184
 20
9.76915858859904
 10
3.3246191453105673
 20
9.942613864511998
 10
3.177853652921687
 20
10.118494021708955
 10
3.0339855107988996
 20
10.29675197281891
 10
2.8930532359227072
 20
10.477339993877905
 10
2.7550945592709724
 20
10.66020973710593
 10
2.620146415717386
 20
10.84531224385077
 10
2.488244934143154
 20
11.032597957695415
 10
2.3594254277643714
 20
11.222016737725568
 10
2.2337223846778684
 20
11.413517871953474
 10
2.1111694586278986
 20
11.607050090894845
 10
1.9917994599961943
 20
11.802561581294896
 10
1.875644347017861
 20
12.0
 10
1.7627352172253765
 20
12.199312487971241
 10
1.6531022991230309
 20
12.400445684436036
 10
1.5467749440940182
 20
12.60334574117411
 10
1.443781618542367
 20
12.807958336933979
 10
1.3441498962717944
 20
13.014228691976044
 10
1.247906451103539
 20
13.222101582738475
 10
1.155077049735123
 20
13.431521356621843
 10
1.0656865448419879
 20
13.642431946888735
 10
0.9797588684238328
 20
13.854776887674149
 10
0.8973170253974416
 20
14.068499329102721
 10
0.8183830874377094
 20
14.28354205250892
 10
0.7429781870685233
 20
14.499847485755737
 10
0.6711225120050592
 20
14.717357718648245
 10
0.6028352997490778
 20
14.936014518437517
 10
0.5381348324385336
 20
15.155759345410942
 10
0.4770384319530443
 20
15.376533368564708
 10
0.4195624552763846
 20
15.598277481354302
 10
0.3657222901173327
 20
15.820932317518768
 10
0.31553235078999364
 20
16.04443826697448
 10
0.26900607435477397
 20
16.268735491774194
 10
0.2261559170209182
 20
16.493763942127146
 10
0.18699335081169366
 20
16.719463372475758
 10
0.15152886049306602
 20
16.94577335762493
 10
0.11977194076665398
 20
17.172633308919274
 10
0.09173109372778043
 20
17.39998249046414
 10
0.06741382658924522
 20
17.627760035386146
 10
0.04682664967147332
 20
17.855904962128648
 10
0.029975074659553513
 20
18.084356190777996
 10
0.016863613127586774
 20
18.313052559416136
 10
0.0074957753308808606
 20
18.541932840495136
 10
0.0018740692661367575
 20
18.770935757229182
 10
0.0
 20
19.0
 10
0.0018740692661367575
 20
19.229064242770804
 10
0.0074957753308808606
 20
19.458067159504864
 10
0.016863613127586774
 20
19.68694744058385
 10
0.029975074659553513
 20
19.915643809222004
 10
0.04682664967147332
 20
20.144095037871352
 10
0.06741382658924522
 20
20.37223996461384
 10
0.09173109372777688
 20
20.600017509535846
 10
0.11977194076665398
 20
20.827366691080712
 10
0.15152886049306602
 20
21.054226642375056
 10
0.18699335081169366
 20
21.280536627524242
 10
0.22615591702091464
 20
21.506236057872854
 10
0.2690060743547704
 20
21.73126450822579
 10
0.31553235078999364
 20
21.955561733025505
 10
0.36572229011732915
 20
22.179067682481218
 10
0.4195624552763846
 20
22.401722518645684
 10
0.47703843195304074
 20
22.623466631435292
 10
0.53813483243853
 20
22.844240654589044
 10
0.6028352997490742
 20
23.06398548156247
 10
0.6711225120050592
 20
23.28264228135174
 10
0.7429781870685197
 20
23.50015251424425
 10
0.8183830874377094
 20
23.71645794749108
 10
0.8973170253974381
 20
23.931500670897265
 10
0.9797588684238292
 20
24.14522311232585
 10
1.0656865448419808
 20
24.35756805311125
 10
1.1550770497351195
 20
24.568478643378143
 10
1.2479064511035354
 20
24.777898417261525
 10
1.3441498962717908
 20
24.985771308023942
 10
1.4437816185423635
 20
25.19204166306602
 10
1.546774944094011
 20
25.396654258825876
 10
1.6531022991230273
 20
25.599554315563964
 10
1.762735217225373
 20
25.80068751202876
 10
1.8756443470178574
 20
26.0
 10
1.9917994599961908
 20
26.197438418705104
 10
2.1111694586278915
 20
26.39294990910514
 10
2.2337223846778613
 20
26.586482128046512
 10
2.3594254277643643
 20
26.777983262274432
 10
2.4882449341431467
 20
26.96740204230457
 10
2.6201464157173824
 20
27.15468775614923
 10
2.7550945592709652
 20
27.339790262894056
 10
2.8930532359227037
 20
27.52266000612208
 10
3.0339855107988924
 20
27.703248027181075
 10
3.17785365292168
 20
27.88150597829103
 10
3.3246191453105602
 20
28.057386135488002
 10
3.4742426952943113
 20
28.23084141140096
 10
3.6266842450305674
 20
28.40182536785825
 10
3.7819029822302994
 20
28.5702922283202
 10
3.9398573510842247
 20
28.736196890134565
 10
4.100505063388329
 20
28.89949493661166
 10
4.263803109865432
 20
29.06014264891577
 10
4.429707771679798
 20
29.218097017769693
 10
4.598174632141738
 20
29.373315754969425
 10
4.7691585885990335
 20
29.525757304705678
 10
4.942613864511994
 20
29.675380854689436
 10
5.118494021708955
 20
29.822146347078316
 10
5.296751972818907
 20
29.9660144892011
 10
5.477339993877909
 20
30.106946764077293
 10
5.660209737105923
 20
30.244905440729028
 10
5.8453122438507705
 20
30.379853584282614
 10
6.032597957695419
 20
30.511755065856846
 10
6.222016737725559
 20
30.64057457223562
 10
6.413517871953474
 20
30.766277615322124
 10
6.607050090894841
 20
30.8888305413721
 10
6.802561581294896
 20
31.008200540003813
 10
6.999999999999993
 20
31.124355652982132
 10
7.1993124879712305
 20
31.237264782774616
 10
7.400445684436029
 20
31.346897700876966
 10
7.603345741174103
 20
31.453225055905975
 10
7.807958336933982
 20
31.55621838145764
 10
8.014228691976045
 20
31.6558501037282
 10
8.222101582738464
 20
31.752093548896454
 10
8.431521356621843
 20
31.844922950264873
 10
8.642431946888735
 20
31.93431345515802
 10
8.854776887674149
 20
32.02024113157617
 10
9.068499329102725
 20
32.10268297460256
 10
9.28354205250891
 20
32.18161691256229
 10
9.499847485755735
 20
32.257021812931484
 10
9.717357718648245
 20
32.32887748799493
 10
9.936014518437526
 20
32.397164700250926
 10
10.155759345410942
 20
32.46186516756147
 10
10.376533368564699
 20
32.52296156804695
 10
10.598277481354302
 20
32.58043754472362
 10
10.820932317518768
 20
32.63427770988267
 10
11.044438266974474
 20
32.684467649210006
 10
11.268735491774198
 20
32.73099392564522
 10
11.493763942127131
 20
32.77384408297908
 10
11.719463372475754
 20
32.81300664918831
 10
11.945773357624928
 20
32.84847113950693
 10
12.172633308919265
 20
32.880228059233346
 10
12.399982490464145
 20
32.90826890627223
 10
12.62776003538614
 20
32.932586173410755
 10
12.855904962128642
 20
32.95317335032853
 10
13.084356190777989
 20
32.970024925340454
 10
13.313052559416136
 20
32.98313638687242
 10
13.541932840495129
 20
32.99250422466912
 10
13.770935757229175
 20
32.99812593073386
 10
14.0
 20
33.0
 10
14.229064242770807
 20
32.99812593073386
 10
14.458067159504854
 20
32.99250422466912
 10
14.686947440583847
 20
32.98313638687242
 10
14.915643809221994
 20
32.970024925340454
 10
15.144095037871352
 20
32.95317335032853
 10
15.372239964613842
 20
32.932586173410755
 10
15.600017509535837
 20
32.90826890627223
 10
15.827366691080718
 20
32.880228059233346
 10
16.054226642375056
 20
32.84847113950694
 10
16.280536627524242
 20
32.81300664918831
 10
16.50623605787285
 20
32.77384408297908
 10
16.731264508225784
 20
32.73099392564524
 10
16.955561733025508
 20
32.684467649210006
 10
17.179067682481218
 20
32.63427770988267
 10
17.40172251864569
 20
32.58043754472362
 10
17.623466631435285
 20
32.52296156804695
 10
17.844240654589044
 20
32.46186516756147
 10
18.06398548156247
 20
32.397164700250926
 10
18.28264228135174
 20
32.328877487994944
 10
18.50015251424426
 20
32.257021812931484
 10
18.716457947491072
 20
32.18161691256229
 10
18.931500670897258
 20
32.10268297460256
 10
19.145223112325844
 20
32.02024113157617
 10
19.357568053111248
 20
31.93431345515802
 10
19.568478643378143
 20
31.844922950264888
 10
19.77789841726152
 20
31.752093548896468
 10
19.98577130802394
 20
31.655850103728213
 10
20.192041663066014
 20
31.55621838145764
 10
20.396654258825883
 20
31.45322505590599
 10
20.599554315563957
 20
31.34689770087698
 10
20.800687512028755
 20
31.23726478277463
 10
20.999999999999993
 20
31.124355652982146
 10
21.1974384187051
 20
31.008200540003813
 10
21.392949909105145
 20
30.8888305413721
 10
21.586482128046512
 20
30.76627761532214
 10
21.777983262274425
 20
30.640574572235636
 10
21.967402042304567
 20
30.51175506585686
 10
22.15468775614923
 20
30.379853584282614
 10
22.339790262894063
 20
30.244905440729042
 10
22.52266000612208
 20
30.106946764077293
 10
22.70324802718108
 20
29.966014489201115
 10
22.88150597829103
 20
29.82214634707833
 10
23.057386135488002
 20
29.675380854689436
 10
23.23084141140096
 20
29.525757304705692
 10
23.401825367858248
 20
29.37331575496944
 10
23.570292228320195
 20
29.218097017769708
 10
23.736196890134558
 20
29.060142648915786
 10
23.899494936611664
 20
28.89949493661166
 10
24.060142648915765
 20
28.736196890134565
 10
24.21809701776969
 20
28.570292228320213
 10
24.373315754969425
 20
28.401825367858265
 10
24.525757304705678
 20
28.230841411400974
 10
24.67538085468943
 20
28.057386135488002
 10
24.822146347078313
 20
27.881505978291045
 10
24.966014489201097
 20
27.70324802718109
 10
25.10694676407729
 20
27.522660006122095
 10
25.24490544072902
 20
27.33979026289407
 10
25.379853584282614
 20
27.15468775614923
 10
25.511755065856846
 20
26.967402042304585
 10
25.64057457223563
 20
26.777983262274446
 10
25.76627761532213
 20
26.586482128046526
 10
25.8888305413721
 20
26.392949909105155
 10
26.008200540003802
 20
26.19743841870512
 10
26.12435565298214
 20
26.0
 10
26.237264782774616
 20
25.800687512028773
 10
26.346897700876966
 20
25.599554315563978
 10
26.453225055905982
 20
25.396654258825905
 10
26.55621838145763
 20
25.192041663066036
 10
26.655850103728206
 20
24.985771308023956
 10
26.752093548896454
 20
24.77789841726154
 10
26.844922950264877
 20
24.568478643378157
 10
26.934313455158012
 20
24.357568053111265
 10
27.020241131576164
 20
24.145223112325866
 10
27.10268297460256
 20
23.93150067089728
 10
27.181616912562287
 20
23.716457947491094
 10
27.257021812931477
 20
23.500152514244263
 10
27.328877487994937
 20
23.282642281351755
 10
27.39716470025092
 20
23.063985481562483
 10
27.461865167561463
 20
22.844240654589058
 10
27.522961568046952
 20
22.623466631435306
 10
27.580437544723615
 20
22.4017225186457
 10
27.634277709882667
 20
22.179067682481232
 10
27.684467649210003
 20
21.95556173302552
 10
27.730993925645222
 20
21.731264508225806
 10
27.773844082979082
 20
21.50623605787287
 10
27.813006649188306
 20
21.280536627524242
 10
27.848471139506934
 20
21.05422664237507
 10
27.880228059233346
 20
20.82736669108074
 10
27.90826890627222
 20
20.60001750953586
 10
27.932586173410755
 20
20.372239964613854
 10
27.953173350328527
 20
20.144095037871352
 10
27.970024925340446
 20
19.91564380922202
 10
27.98313638687241
 20
19.686947440583864
 10
27.99250422466912
 20
19.45806715950488
 10
27.998125930733863
 20
19.229064242770832
 10
28.0
 20
19.0
 10
27.998125930733863
 20
18.770935757229182
 10
27.99250422466912
 20
18.541932840495136
 10
27.983136386872413
 20
18.31305255941615
 10
27.970024925340446
 20
18.084356190777996
 10
27.953173350328527
 20
17.855904962128648
 10
27.932586173410755
 20
17.627760035386146
 10
27.90826890627222
 20
17.399982490464154
 10
27.880228059233346
 20
17.172633308919274
 10
27.848471139506934
 20
16.94577335762493
 10
27.813006649188306
 20
16.719463372475758
 10
27.773844082979082
 20
16.493763942127146
 10
27.730993925645226
 20
16.26873549177421
 10
27.684467649210006
 20
16.04443826697448
 10
27.63427770988267
 20
15.820932317518782
 10
27.580437544723615
 20
15.598277481354302
 10
27.522961568046956
 20
15.376533368564708
 10
27.461865167561466
 20
15.155759345410942
 10
27.397164700250926
 20
14.936014518437531
 10
27.32887748799494
 20
14.717357718648259
 10
27.25702181293148
 20
14.499847485755737
 10
27.18161691256229
 20
14.28354205250892
 10
27.10268297460256
 20
14.068499329102735
 10
27.076259867606623
 20
14.0
 10
34.0
 20
14.0
 10
34.0
 20
0.0
  0
LWPOLYLINE
  5
31
330
17
100
AcDbEntity
  8
CUT
100
AcDbPolyline
 90
385
 70
1
 10
21.2990228067398
 20
19.119440640873364
 10
21.29609148857747
 20
19.238849304598972
 10
21.291206830297757
 20
19.358194022590155
 10
21.284370139641805
 20
19.477442843380047
 10
21.275583246957016
 20
19.59656384117578
 10
21.264848504707036
 20
19.7155251244058
 10
21.252168786841942
 20
19.834294844257983
 10
21.237547488028817
 20
19.95284120320639
 10
21.2209885227429
 20
20.07113246352415
 10
21.202496324219616
 20
20.189136955780498
 10
21.182075843267665
 20
20.30682308731943
 10
21.15973254694358
 20
20.424159350717744
 10
21.135472417088074
 20
20.54111433222046
 10
21.109301948724536
 20
20.657656720150925
 10
21.08122814832017
 20
20.773755313293833
 10
21.051258531910197
 20
20.889379029248403
 10
21.019401123085622
 20
21.004496912750014
 10
20.98566445084512
 20
21.11907814395758
 10
20.950057547311644
 20
21.23309204670484
 10
20.91258994531427
 20
21.34650809671308
 10
20.87327167583605
 20
21.459295929763215
 10
20.832113265328477
 20
21.571425349825006
 10
20.789125732893286
 20
21.68286633714135
 10
20.744320587332393
 20
21.793589056265162
 10
20.697709824066685
 20
21.903563864047186
 10
20.64930592192458
 20
22.012761317572085
 10
20.599121839801136
 20
22.121152182041058
 10
20.54717101318862
 20
22.22870743859872
 10
20.493467350579547
 20
22.33539829210207
 10
20.43802522974299
 20
22.441196178829784
 10
20.380859493875338
 20
22.546072774129286
 10
20.3219854476264
 20
22.650000000000006
 10
20.26141885300198
 20
22.752950032610528
 10
20.199175925144022
 20
22.85489530974769
 10
20.135273327989395
 20
22.955808538195697
 10
20.069728169808577
 20
23.055662701043104
 10
20.002557998625356
 20
23.154431064915954
 10
19.93378079751879
 20
23.25208718713496
 10
19.863414979808706
 20
23.348604922794763
 10
19.791479384126013
 20
23.44395843176366
 10
19.717993269369146
 20
23.538122185601566
 10
19.642976309547976
 20
23.631070974394618
 10
19.566448588516632
 20
23.722779913504453
 10
19.48843059459653
 20
23.813224450230507
 10
19.4089432150912
 20
23.90238037038324
 10
19.328007730694196
 20
23.99022380476697
 10
19.245645809791792
 20
24.076731235570165
 10
19.161879502661797
 20
24.161879502661805
 10
19.07673123557016
 20
24.245645809791796
 10
18.99022380476696
 20
24.328007730694196
 10
18.902380370383227
 20
24.4089432150912
 10
18.8132244502305
 20
24.488430594596537
 10
18.722779913504457
 20
24.566448588516636
 10
18.631070974394607
 20
24.642976309547976
 10
18.538122185601562
 20
24.717993269369146
 10
18.443958431763654
 20
24.79147938412602
 10
18.34860492279476
 20
24.86341497980871
 10
18.252087187134954
 20
24.933780797518793
 10
18.154431064915954
 20
25.002557998625363
 10
18.055662701043094
 20
25.069728169808585
 10
17.955808538195683
 20
25.135273327989395
 10
17.854895309747683
 20
25.199175925144033
 10
17.752950032610517
 20
25.261418853001985
 10
17.649999999999995
 20
25.321985447626403
 10
17.54607277412928
 20
25.380859493875334
 10
17.441196178829777
 20
25.43802522974299
 10
17.335398292102067
 20
25.49346735057955
 10
17.228707438598708
 20
25.54717101318863
 10
17.121152182041055
 20
25.599121839801143
 10
17.012761317572078
 20
25.64930592192458
 10
16.90356386404717
 20
25.697709824066692
 10
16.79358905626515
 20
25.744320587332396
 10
16.682866337141334
 20
25.789125732893282
 10
16.571425349825
 20
25.832113265328474
 10
16.4592959297632
 20
25.87327167583605
 10
16.34650809671308
 20
25.912589945314267
 10
16.233092046704837
 20
25.950057547311644
 10
16.119078143957573
 20
25.98566445084512
 10
16.00449691275
 20
26.01940112308563
 10
15.8893790292484
 20
26.051258531910193
 10
15.773755313293826
 20
26.081228148320164
 10
15.65765672015092
 20
26.109301948724536
 10
15.541114332220443
 20
26.135472417088067
 10
15.42415935071773
 20
26.159732546943587
 10
15.306823087319415
 20
26.18207584326767
 10
15.189136955780498
 20
26.202496324219624
 10
15.071132463524137
 20
26.2209885227429
 10
14.952841203206374
 20
26.23754748802881
 10
14.834294844257972
 20
26.25216878684195
 10
14.715525124405788
 20
26.264848504707032
 10
14.596563841175776
 20
26.275583246957012
 10
14.47744284338004
 20
26.28437013964181
 10
14.358194022590148
 20
26.291206830297753
 10
14.23884930459896
 20
26.296091488577474
 10
14.11944064087335
 20
26.2990228067398
 10
14.0
 20
26.299999999999997
 10
13.880559359126641
 20
26.2990228067398
 10
13.761150695401032
 20
26.296091488577474
 10
13.641805977409842
 20
26.291206830297753
 10
13.522557156619952
 20
26.28437013964181
 10
13.40343615882422
 20
26.275583246957012
 10
13.284474875594203
 20
26.264848504707032
 10
13.16570515574202
 20
26.25216878684195
 10
13.047158796793617
 20
26.23754748802881
 10
12.928867536475856
 20
26.2209885227429
 10
12.8108630442195
 20
26.202496324219624
 10
12.693176912680576
 20
26.18207584326767
 10
12.575840649282261
 20
26.159732546943587
 10
12.458885667779548
 20
26.135472417088067
 10
12.342343279849072
 20
26.109301948724536
 10
12.226244686706172
 20
26.081228148320164
 10
12.110620970751594
 20
26.051258531910193
 10
11.995503087249991
 20
26.019401123085615
 10
11.880921856042423
 20
25.98566445084512
 10
11.766907953295156
 20
25.950057547311644
 10
11.65349190328692
 20
25.912589945314267
 10
11.540704070236789
 20
25.87327167583605
 10
11.428574650174992
 20
25.832113265328474
 10
11.317133662858662
 20
25.789125732893282
 10
11.206410943734841
 20
25.744320587332396
 10
11.096436135952818
 20
25.697709824066692
 10
10.987238682427913
 20
25.64930592192458
 10
10.878847817958938
 20
25.59912183980113
 10
10.77129256140129
 20
25.54717101318863
 10
10.664601707897924
 20
25.49346735057955
 10
10.558803821170216
 20
25.43802522974299
 10
10.453927225870713
 20
25.380859493875334
 10
10.349999999999998
 20
25.321985447626403
 10
10.247049967389481
 20
25.261418853001985
 10
10.14510469025231
 20
25.19917592514402
 10
10.04419146180431
 20
25.135273327989395
 10
9.9443372989569
 20
25.06972816980857
 10
9.84556893508404
 20
25.00255799862535
 10
9.747912812865042
 20
24.933780797518793
 10
9.651395077205233
 20
24.86341497980871
 10
9.556041568236338
 20
24.79147938412602
 10
9.46187781439843
 20
24.717993269369146
 10
9.368929025605386
 20
24.642976309547976
 10
9.27722008649554
 20
24.566448588516636
 10
9.186775549769497
 20
24.488430594596537
 10
9.097619629616764
 20
24.4089432150912
 10
9.009776195233037
 20
24.328007730694196
 10
8.923268764429832
 20
24.245645809791796
 10
8.8381204973382
 20
24.16187950266179
 10
8.754354190208204
 20
24.076731235570165
 10
8.671992269305797
 20
23.990223804766956
 10
8.591056784908798
 20
23.902380370383227
 10
8.511569405403463
 20
23.813224450230507
 10
8.433551411483364
 20
23.722779913504453
 10
8.357023690452019
 20
23.631070974394618
 10
8.282006730630851
 20
23.538122185601566
 10
8.208520615873983
 20
23.44395843176366
 10
8.13658502019129
 20
23.348604922794763
 10
8.066219202481207
 20
23.252087187134947
 10
7.99744200137464
 20
23.154431064915954
 10
7.930271830191419
 20
23.05566270104309
 10
7.864726672010601
 20
22.955808538195683
 10
7.800824074855971
 20
22.85489530974769
 10
7.738581146998014
 20
22.752950032610514
 10
7.678014552373597
 20
22.64999999999999
 10
7.619140506124658
 20
22.546072774129286
 10
7.561974770257006
 20
22.441196178829784
 10
7.50653264942045
 20
22.33539829210207
 10
7.452828986811376
 20
22.228707438598704
 10
7.400878160198863
 20
22.121152182041058
 10
7.350694078075415
 20
22.012761317572085
 10
7.302290175933312
 20
21.90356386404717
 10
7.255679412667606
 20
21.793589056265148
 10
7.2108742671067105
 20
21.682866337141334
 10
7.167886734671521
 20
21.571425349825006
 10
7.126728324163947
 20
21.4592959297632
 10
7.087410054685728
 20
21.34650809671308
 10
7.049942452688352
 20
21.23309204670484
 10
7.014335549154875
 20
21.11907814395758
 10
6.980598876914378
 20
21.00449691275
 10
6.9487414680898
 20
20.889379029248403
 10
6.918771851679828
 20
20.77375531329382
 10
6.890698051275464
 20
20.657656720150925
 10
6.864527582911926
 20
20.541114332220445
 10
6.840267453056416
 20
20.42415935071773
 10
6.817924156732335
 20
20.306823087319415
 10
6.7975036757803835
 20
20.189136955780498
 10
6.779011477257098
 20
20.071132463524137
 10
6.762452511971183
 20
19.952841203206376
 10
6.7478312131580545
 20
19.834294844257983
 10
6.735151495292962
 20
19.715525124405787
 10
6.724416753042984
 20
19.59656384117578
 10
6.715629860358195
 20
19.477442843380047
 10
6.708793169702242
 20
19.358194022590155
 10
6.703908511422529
 20
19.238849304598958
 10
6.700977193260199
 20
19.11944064087335
 10
6.699999999999999
 20
19.0
 10
6.700977193260199
 20
18.88055935912665
 10
6.703908511422529
 20
18.761150695401028
 10
6.708793169702242
 20
18.641805977409845
 10
6.715629860358195
 20
18.522557156619953
 10
6.724416753042984
 20
18.40343615882422
 10
6.735151495292964
 20
18.2844748755942
 10
6.747831213158056
 20
18.165705155742017
 10
6.762452511971183
 20
18.047158796793624
 10
6.7790114772571
 20
17.92886753647585
 10
6.7975036757803835
 20
17.810863044219502
 10
6.817924156732335
 20
17.693176912680585
 10
6.840267453056418
 20
17.575840649282256
 10
6.864527582911926
 20
17.458885667779555
 10
6.890698051275464
 20
17.342343279849075
 10
6.918771851679828
 20
17.226244686706167
 10
6.948741468089803
 20
17.110620970751597
 10
6.980598876914378
 20
16.995503087249986
 10
7.014335549154875
 20
16.88092185604242
 10
7.049942452688352
 20
16.76690795329516
 10
7.08741005468573
 20
16.65349190328692
 10
7.126728324163949
 20
16.540704070236785
 10
7.167886734671523
 20
16.428574650174994
 10
7.210874267106714
 20
16.317133662858666
 10
7.255679412667607
 20
16.206410943734838
 10
7.302290175933315
 20
16.096436135952814
 10
7.350694078075417
 20
15.987238682427915
 10
7.4008781601988645
 20
15.878847817958942
 10
7.452828986811376
 20
15.771292561401282
 10
7.506532649420452
 20
15.66460170789793
 10
7.5619747702570095
 20
15.558803821170216
 10
7.619140506124662
 20
15.453927225870714
 10
7.6780145523736
 20
15.349999999999994
 10
7.7385811469980155
 20
15.247049967389472
 10
7.800824074855974
 20
15.14510469025231
 10
7.864726672010605
 20
15.044191461804317
 10
7.930271830191423
 20
14.944337298956896
 10
7.997442001374644
 20
14.845568935084046
 10
8.06621920248121
 20
14.747912812865039
 10
8.136585020191294
 20
14.651395077205237
 10
8.208520615873983
 20
14.556041568236338
 10
8.282006730630854
 20
14.461877814398434
 10
8.357023690452023
 20
14.368929025605382
 10
8.433551411483368
 20
14.277220086495547
 10
8.511569405403467
 20
14.186775549769493
 10
8.591056784908801
 20
14.097619629616759
 10
8.671992269305802
 20
14.00977619523303
 10
8.754354190208208
 20
13.923268764429835
 10
8.838120497338203
 20
13.838120497338195
 10
8.923268764429835
 20
13.754354190208204
 10
9.00977619523304
 20
13.671992269305804
 10
9.097619629616768
 20
13.591056784908801
 10
9.1867755497695
 20
13.511569405403463
 10
9.277220086495543
 20
13.433551411483364
 10
9.36892902560539
 20
13.357023690452024
 10
9.461877814398438
 20
13.282006730630854
 10
9.556041568236342
 20
13.20852061587398
 10
9.651395077205237
 20
13.13658502019129
 10
9.747912812865046
 20
13.066219202481207
 10
9.845568935084046
 20
12.997442001374637
 10
9.944337298956906
 20
12.930271830191415
 10
10.044191461804315
 20
12.864726672010605
 10
10.145104690252314
 20
12.800824074855967
 10
10.247049967389483
 20
12.738581146998015
 10
10.350000000000001
 20
12.678014552373597
 10
10.45392722587072
 20
12.619140506124666
 10
10.558803821170219
 20
12.56197477025701
 10
10.66460170789793
 20
12.50653264942045
 10
10.771292561401292
 20
12.452828986811369
 10
10.878847817958942
 20
12.400878160198857
 10
10.98723868242792
 20
12.35069407807542
 10
11.096436135952821
 20
12.302290175933308
 10
11.206410943734847
 20
12.255679412667604
 10
11.317133662858666
 20
12.210874267106718
 10
11.428574650174998
 20
12.167886734671526
 10
11.540704070236794
 20
12.126728324163949
 10
11.653491903286922
 20
12.087410054685733
 10
11.766907953295162
 20
12.049942452688356
 10
11.880921856042427
 20
12.014335549154879
 10
11.995503087249997
 20
11.980598876914371
 10
12.110620970751599
 20
11.948741468089807
 10
12.226244686706176
 20
11.918771851679821
 10
12.342343279849077
 20
11.890698051275464
 10
12.458885667779555
 20
11.864527582911933
 10
12.575840649282267
 20
11.840267453056413
 10
12.693176912680583
 20
11.817924156732332
 10
12.810863044219504
 20
11.797503675780376
 10
12.92886753647586
 20
11.7790114772571
 10
13.047158796793624
 20
11.76245251197119
 10
13.165705155742021
 20
11.747831213158051
 10
13.284474875594208
 20
11.735151495292968
 10
13.403436158824224
 20
11.724416753042988
 10
13.522557156619957
 20
11.715629860358192
 10
13.64180597740985
 20
11.708793169702247
 10
13.761150695401035
 20
11.703908511422526
 10
13.880559359126648
 20
11.7009771932602
 10
14.0
 20
11.700000000000003
 10
14.119440640873353
 20
11.7009771932602
 10
14.238849304598968
 20
11.703908511422526
 10
14.358194022590151
 20
11.708793169702247
 10
14.477442843380047
 20
11.715629860358192
 10
14.59656384117578
 20
11.724416753042988
 10
14.715525124405794
 20
11.735151495292968
 10
14.83429484425798
 20
11.747831213158051
 10
14.952841203206377
 20
11.76245251197119
 10
15.071132463524142
 20
11.7790114772571
 10
15.189136955780498
 20
11.797503675780376
 10
15.306823087319419
 20
11.817924156732332
 10
15.424159350717737
 20
11.840267453056413
 10
15.541114332220447
 20
11.864527582911933
 10
15.657656720150927
 20
11.890698051275464
 10
15.773755313293826
 20
11.918771851679836
 10
15.889379029248403
 20
11.948741468089807
 10
16.004496912750007
 20
11.980598876914371
 10
16.119078143957577
 20
12.014335549154879
 10
16.23309204670484
 20
12.049942452688356
 10
16.34650809671308
 20
12.087410054685733
 10
16.459295929763208
 20
12.126728324163949
 10
16.571425349825006
 20
12.167886734671526
 10
16.682866337141338
 20
12.210874267106718
 10
16.793589056265155
 20
12.255679412667604
 10
16.903563864047182
 20
12.302290175933308
 10
17.012761317572085
 20
12.35069407807542
 10
17.121152182041058
 20
12.400878160198857
 10
17.22870743859871
 20
12.452828986811369
 10
17.33539829210207
 20
12.50653264942045
 10
17.441196178829784
 20
12.56197477025701
 10
17.546072774129282
 20
12.619140506124666
 10
17.65
 20
12.678014552373597
 10
17.75295003261052
 20
12.738581146998015
 10
17.854895309747686
 20
12.800824074855967
 10
17.955808538195686
 20
12.864726672010605
 10
18.055662701043097
 20
12.930271830191415
 10
18.154431064915958
 20
12.997442001374637
 10
18.252087187134958
 20
13.066219202481207
 10
18.348604922794763
 20
13.13658502019129
 10
18.44395843176366
 20
13.20852061587398
 10
18.538122185601566
 20
13.282006730630854
 10
18.63107097439461
 20
13.357023690452024
 10
18.72277991350446
 20
13.433551411483364
 10
18.813224450230503
 20
13.511569405403463
 10
18.902380370383234
 20
13.591056784908801
 10
18.990223804766963
 20
13.671992269305804
 10
19.076731235570165
 20
13.754354190208204
 10
19.161879502661797
 20
13.83812049733821
 10
19.245645809791796
 20
13.923268764429835
 10
19.3280077306942
 20
14.009776195233044
 10
19.408943215091202
 20
14.097619629616773
 10
19.488430594596537
 20
14.186775549769493
 10
19.566448588516636
 20
14.277220086495547
 10
19.64297630954798
 20
14.368929025605382
 10
19.71799326936915
 20
14.461877814398434
 10
19.791479384126017
 20
14.556041568236338
 10
19.86341497980871
 20
14.651395077205237
 10
19.933780797518793
 20
14.747912812865039
 10
20.002557998625356
 20
14.845568935084046
 10
20.06972816980858
 20
14.94433729895691
 10
20.1352733279894
 20
15.044191461804317
 10
20.199175925144026
 20
15.14510469025231
 10
20.261418853001985
 20
15.247049967389486
 10
20.321985447626403
 20
15.349999999999994
 10
20.38085949387534
 20
15.453927225870714
 10
20.43802522974299
 20
15.558803821170216
 10
20.49346735057955
 20
15.66460170789793
 10
20.547171013188624
 20
15.771292561401296
 10
20.599121839801136
 20
15.878847817958942
 10
20.649305921924583
 20
15.987238682427915
 10
20.697709824066685
 20
16.096436135952814
 10
20.744320587332393
 20
16.206410943734838
 10
20.78912573289329
 20
16.317133662858666
 10
20.832113265328477
 20
16.428574650174994
 10
20.87327167583605
 20
16.5407040702368
 10
20.91258994531427
 20
16.65349190328692
 10
20.950057547311648
 20
16.76690795329516
 10
20.985664450845125
 20
16.88092185604242
 10
21.019401123085622
 20
16.99550308725
 10
21.0512585319102
 20
17.110620970751597
 10
21.08122814832017
 20
17.226244686706167
 10
21.109301948724536
 20
17.342343279849075
 10
21.135472417088074
 20
17.458885667779555
 10
21.15973254694358
 20
17.57584064928227
 10
21.182075843267665
 20
17.693176912680585
 10
21.202496324219616
 20
17.810863044219502
 10
21.2209885227429
 20
17.928867536475863
 10
21.237547488028817
 20
18.047158796793624
 10
21.252168786841942
 20
18.165705155742017
 10
21.26484850470704
 20
18.284474875594213
 10
21.275583246957016
 20
18.40343615882422
 10
21.284370139641805
 20
18.522557156619953
 10
21.29120683029776
 20
18.641805977409845
 10
21.29609148857747
 20
18.761150695401028
 10
21.2990228067398
 20
18.88055935912665
 10
21.3
 20
19.0
 10
21.2990228067398
 20
19.119440640873364
  0
ENDSEC
  0
SECTION
  2
OBJECTS
  0
DICTIONARY
  5
A
330
0
100
AcDbDictionary
281
1
  3
ACAD_COLOR
350
B
  3
ACAD_GROUP
350
C
  3
ACAD_LAYOUT
350
D
  3
ACAD_MATERIAL
350
E
  3
ACAD_MLEADERSTYLE
350
F
  3
ACAD_MLINESTYLE
350
10
  3
ACAD_PLOTSETTINGS
350
11
  3
ACAD_PLOTSTYLENAME
350
12
  3
ACAD_SCALELIST
350
14
  3
ACAD_TABLESTYLE
350
15
  3
ACAD_VISUALSTYLE
350
16
  3
EZDXF_META
350
2D
  0
DICTIONARY
  5
B
330
A
100
AcDbDictionary
281
1
  0
DICTIONARY
  5
C
330
A
100
AcDbDictionary
281
1
  0
DICTIONARY
  5
D
330
A
100
AcDbDictionary
281
1
  3
Model
350
1A
  3
Layout1
350
1E
  0
DICTIONARY
  5
E
330
A
100
AcDbDictionary
281
1
  3
ByBlock
350
1F
  3
ByLayer
350
20
  3
Global
350
21
  0
DICTIONARY
  5
F
330
A
100
AcDbDictionary
281
1
  3
Standard
350
2C
  0
DICTIONARY
  5
10
330
A
100
AcDbDictionary
281
1
  3
Standard
350
22
  0
DICTIONARY
  5
11
330
A
100
AcDbDictionary
281
1
  0
ACDBDICTIONARYWDFLT
  5
12
330
A
100
AcDbDictionary
281
1
  3
Normal
350
13
100
AcDbDictionaryWithDefault
340
13
  0
ACDBPLACEHOLDER
  5
13
330
12
  0
DICTIONARY
  5
14
330
A
100
AcDbDictionary
281
1
  0
DICTIONARY
  5
15
330
A
100
AcDbDictionary
281
1
  0
DICTIONARY
  5
16
330
A
100
AcDbDictionary
281
1
  0
LAYOUT
  5
1A
330
D
100
AcDbPlotSettings
  1

  4
A3
  6

 40
7.5
 41
20.0
 42
7.5
 43
20.0
 44
420.0
 45
297.0
 46
0.0
 47
0.0
 48
0.0
 49
0.0
140
0.0
141
0.0
142
1.0
143
1.0
 70
1024
 72
1
 73
0
 74
5
  7

 75
16
 76
0
 77
2
 78
300
147
1.0
148
0.0
149
0.0
100
AcDbLayout
  1
Model
 70
1
 71
0
 10
0.0
 20
0.0
 11
420.0
 21
297.0
 12
0.0
 22
0.0
 32
0.0
 14
1e+20
 24
1e+20
 34
1e+20
 15
-1e+20
 25
-1e+20
 35
-1e+20
146
0.0
 13
0.0
 23
0.0
 33
0.0
 16
1.0
 26
0.0
 36
0.0
 17
0.0
 27
1.0
 37
0.0
 76
1
330
17
  0
LAYOUT
  5
1E
330
D
100
AcDbPlotSettings
  1

  4
A3
  6

 40
7.5
 41
20.0
 42
7.5
 43
20.0
 44
420.0
 45
297.0
 46
0.0
 47
0.0
 48
0.0
 49
0.0
140
0.0
141
0.0
142
1.0
143
1.0
 70
0
 72
1
 73
0
 74
5
  7

 75
16
 76
0
 77
2
 78
300
147
1.0
148
0.0
149
0.0
100
AcDbLayout
  1
Layout1
 70
1
 71
1
 10
0.0
 20
0.0
 11
420.0
 21
297.0
 12
0.0
 22
0.0
 32
0.0
 14
1e+20
 24
1e+20
 34
1e+20
 15
-1e+20
 25
-1e+20
 35
-1e+20
146
0.0
 13
0.0
 23
0.0
 33
0.0
 16
1.0
 26
0.0
 36
0.0
 17
0.0
 27
1.0
 37
0.0
 76
1
330
1B
  0
MATERIAL
  5
1F
102
{ACAD_REACTORS
330
E
102
}
330
E
100
AcDbMaterial
  1
ByBlock
  2

 70
0
 40
1.0
 71
1
 41
1.0
 91
-1023410177
 42
1.0
 72
1
  3

 73
1
 74
1
 75
1
 44
0.5
 73
0
 45
1.0
 46
1.0
 77
1
  4

 78
1
 79
1
170
1
 48
1.0
171
1
  6

172
1
173
1
174
1
140
1.0
141
1.0
175
1
  7

176
1
177
1
178
1
143
1.0
179
1
  8

270
1
271
1
272
1
145
1.0
146
1.0
273
1
  9

274
1
275
1
276
1
 42
1.0
 72
1
  3

 73
1
 74
1
 75
1
 94
63
  0
MATERIAL
  5
20
102
{ACAD_REACTORS
330
E
102
}
330
E
100
AcDbMaterial
  1
ByLayer
  2

 70
0
 40
1.0
 71
1
 41
1.0
 91
-1023410177
 42
1.0
 72
1
  3

 73
1
 74
1
 75
1
 44
0.5
 73
0
 45
1.0
 46
1.0
 77
1
  4

 78
1
 79
1
170
1
 48
1.0
171
1
  6

172
1
173
1
174
1
140
1.0
141
1.0
175
1
  7

176
1
177
1
178
1
143
1.0
179
1
  8

270
1
271
1
272
1
145
1.0
146
1.0
273
1
  9

274
1
275
1
276
1
 42
1.0
 72
1
  3

 73
1
 74
1
 75
1
 94
63
  0
MATERIAL
  5
21
102
{ACAD_REACTORS
330
E
102
}
330
E
100
AcDbMaterial
  1
Global
  2

 70
0
 40
1.0
 71
1
 41
1.0
 91
-1023410177
 42
1.0
 72
1
  3

 73
1
 74
1
 75
1
 44
0.5
 73
0
 45
1.0
 46
1.0
 77
1
  4

 78
1
 79
1
170
1
 48
1.0
171
1
  6

172
1
173
1
174
1
140
1.0
141
1.0
175
1
  7

176
1
177
1
178
1
143
1.0
179
1
  8

270
1
271
1
272
1
145
1.0
146
1.0
273
1
  9

274
1
275
1
276
1
 42
1.0
 72
1
  3

 73
1
 74
1
 75
1
 94
63
  0
MLINESTYLE
  5
22
102
{ACAD_REACTORS
330
10
102
}
330
10
100
AcDbMlineStyle
  2
Standard
 70
0
  3

 62
256
 51
90.0
 52
90.0
 71
2
 49
0.5
 62
256
  6
BYLAYER
 49
-0.5
 62
256
  6
BYLAYER
  0
MLEADERSTYLE
  5
2C
102
{ACAD_REACTORS
330
F
102
}
330
F
100
AcDbMLeaderStyle
179
2
170
2
171
1
172
0
 90
2
 40
0.0
 41
0.0
173
1
 91
-1056964608
 92
-2
290
1
 42
2.0
291
1
 43
8.0
  3
Standard
 44
4.0
300

342
29
174
1
175
1
176
0
178
1
 93
-1056964608
 45
4.0
292
0
297
0
 46
4.0
 94
-1056964608
 47
1.0
 49
1.0
140
1.0
294
1
141
0.0
177
0
142
1.0
295
0
296
0
143
3.75
271
0
272
9
273
9
  0
DICTIONARY
  5
2D
330
A
100
AcDbDictionary
280
1
281
1
  3
CREATED_BY_EZDXF
350
2E
  3
WRITTEN_BY_EZDXF
350
34
  0
DICTIONARYVAR
  5
2E
330
2D
100
DictionaryVariables
280
0
  1
1.4.4 @ 2026-10-05T06:27:39.447166+00:00
  0
DICTIONARYVAR
  5
34
330
2D
100
DictionaryVariables
280
0
  1
1.4.4 @ 2026-10-05T06:27:39.450819+00:00
  0
ENDSEC
  0
EOF
