  0
SECTION
  2
HEADER
  9
$ACADVER
  1
AC1024
  9
$ACADMAINTVER
 70
6
  9
$DWGCODEPAGE
  3
ANSI_1252
  9
$LASTSAVEDBY
  1
ezdxf
  9
$INSBASE
 10
0.0
 20
0.0
 30
0.0
  9
$EXTMIN
 10
1e+20
 20
1e+20
 30
1e+20
  9
$EXTMAX
 10
-1e+20
 20
-1e+20
 30
-1e+20
  9
$LIMMIN
 10
0.0
 20
0.0
  9
$LIMMAX
 10
420.0
 20
297.0
  9
$ORTHOMODE
 70
0
  9
$REGENMODE
 70
1
  9
$FILLMODE
 70
1
  9
$QTEXTMODE
 70
0
  9
$MIRRTEXT
 70
1
  9
$LTSCALE
 40
1.0
  9
$ATTMODE
 70
1
  9
$TEXTSIZE
 40
2.5
  9
$TRACEWID
 40
1.0
  9
$TEXTSTYLE
  7
Standard
  9
$CLAYER
  8
0
  9
$CELTYPE
  6
ByLayer
  9
$CECOLOR
 62
256
  9
$CELTSCALE
 40
1.0
  9
$DISPSILH
 70
0
  9
$DIMSCALE
 40
1.0
  9
$DIMASZ
 40
2.5
  9
$DIMEXO
 40
0.625
  9
$DIMDLI
 40
3.75
  9
$DIMRND
 40
0.0
  9
$DIMDLE
 40
0.0
  9
$DIMEXE
 40
1.25
  9
$DIMTP
 40
0.0
  9
$DIMTM
 40
0.0
  9
$DIMTXT
 40
2.5
  9
$DIMCEN
 40
2.5
  9
$DIMTSZ
 40
0.0
  9
$DIMTOL
 70
0
  9
$DIMLIM
 70
0
  9
$DIMTIH
 70
0
  9
$DIMTOH
 70
0
  9
$DIMSE1
 70
0
  9
$DIMSE2
 70
0
  9
$DIMTAD
 70
1
  9
$DIMZIN
 70
8
  9
$DIMBLK
  1

  9
$DIMASO
 70
1
  9
$DIMSHO
 70
1
  9
$DIMPOST
  1

  9
$DIMAPOST
  1

  9
$DIMALT
 70
0
  9
$DIMALTD
 70
3
  9
$DIMALTF
 40
0.03937007874
  9
$DIMLFAC
 40
1.0
  9
$DIMTOFL
 70
1
  9
$DIMTVP
 40
0.0
  9
$DIMTIX
 70
0
  9
$DIMSOXD
 70
0
  9
$DIMSAH
 70
0
  9
$DIMBLK1
  1

  9
$DIMBLK2
  1

  9
$DIMSTYLE
  2
ISO-25
  9
$DIMCLRD
 70
0
  9
$DIMCLRE
 70
0
  9
$DIMCLRT
 70
0
  9
$DIMTFAC
 40
1.0
  9
$DIMGAP
 40
0.625
  9
$DIMJUST
 70
0
  9
$DIMSD1
 70
0
  9
$DIMSD2
 70
0
  9
$DIMTOLJ
 70
0
  9
$DIMTZIN
 70
8
  9
$DIMALTZ
 70
0
  9
$DIMALTTZ
 70
0
  9
$DIMUPT
 70
0
  9
$DIMDEC
 70
2
  9
$DIMTDEC
 70
2
  9
$DIMALTU
 70
2
  9
$DIMALTTD
 70
3
  9
$DIMTXSTY
  7
Standard
  9
$DIMAUNIT
 70
0
  9
$DIMADEC
 70
0
  9
$DIMALTRND
 40
0.0
  9
$DIMAZIN
 70
0
  9
$DIMDSEP
 70
44
  9
$DIMATFIT
 70
3
  9
$DIMFRAC
 70
0
  9
$DIMLDRBLK
  1

  9
$DIMLUNIT
 70
2
  9
$DIMLWD
 70
-2
  9
$DIMLWE
 70
-2
  9
$DIMTMOVE
 70
0
  9
$DIMFXL
 40
1.0
  9
$DIMFXLON
 70
0
  9
$DIMJOGANG
 40
0.785398163397
  9
$DIMTFILL
 70
0
  9
$DIMTFILLCLR
 70
0
  9
$DIMARCSYM
 70
0
  9
$DIMLTYPE
  6

  9
$DIMLTEX1
  6

  9
$DIMLTEX2
  6

  9
$DIMTXTDIRECTION
 70
0
  9
$LUNITS
 70
2
  9
$LUPREC
 70
4
  9
$SKETCHINC
 40
1.0
  9
$FILLETRAD
 40
10.0
  9
$AUNITS
 70
0
  9
$AUPREC
 70
2
  9
$MENU
  1
.
  9
$ELEVATION
 40
0.0
  9
$PELEVATION
 40
0.0
  9
$THICKNESS
 40
0.0
  9
$LIMCHECK
 70
0
  9
$CHAMFERA
 40
0.0
  9
$CHAMFERB
 40
0.0
  9
$CHAMFERC
 40
0.0
  9
$CHAMFERD
 40
0.0
  9
$SKPOLY
 70
0
  9
$TDCREATE
 40
2461319.269201389
  9
$TDUCREATE
 40
2458532.153996898
  9
$TDUPDATE
 40
2461319.269201389
  9
$TDUUPDATE
 40
2458532.1544311
  9
$TDINDWG
 40
0.0
  9
$TDUSRTIMER
 40
0.0
  9
$USRTIMER
 70
1
  9
$ANGBASE
 50
0.0
  9
$ANGDIR
 70
0
  9
$PDMODE
 70
0
  9
$PDSIZE
 40
0.0
  9
$PLINEWID
 40
0.0
  9
$SPLFRAME
 70
0
  9
$SPLINETYPE
 70
6
  9
$SPLINESEGS
 70
8
  9
$HANDSEED
  5
39
  9
$SURFTAB1
 70
6
  9
$SURFTAB2
 70
6
  9
$SURFTYPE
 70
6
  9
$SURFU
 70
6
  9
$SURFV
 70
6
  9
$UCSBASE
  2

  9
$UCSNAME
  2

  9
$UCSORG
 10
0.0
 20
0.0
 30
0.0
  9
$UCSXDIR
 10
1.0
 20
0.0
 30
0.0
  9
$UCSYDIR
 10
0.0
 20
1.0
 30
0.0
  9
$UCSORTHOREF
  2

  9
$UCSORTHOVIEW
 70
0
  9
$UCSORGTOP
 10
0.0
 20
0.0
 30
0.0
  9
$UCSORGBOTTOM
 10
0.0
 20
0.0
 30
0.0
  9
$UCSORGLEFT
 10
0.0
 20
0.0
 30
0.0
  9
$UCSORGRIGHT
 10
0.0
 20
0.0
 30
0.0
  9
$UCSORGFRONT
 10
0.0
 20
0.0
 30
0.0
  9
$UCSORGBACK
 10
0.0
 20
0.0
 30
0.0
  9
$PUCSBASE
  2

  9
$PUCSNAME
  2

  9
$PUCSORG
 10
0.0
 20
0.0
 30
0.0
  9
$PUCSXDIR
 10
1.0
 20
0.0
 30
0.0
  9
$PUCSYDIR
 10
0.0
 20
1.0
 30
0.0
  9
$PUCSORTHOREF
  2

  9
$PUCSORTHOVIEW
 70
0
  9
$PUCSORGTOP
 10
0.0
 20
0.0
 30
0.0
  9
$PUCSORGBOTTOM
 10
0.0
 20
0.0
 30
0.0
  9
$PUCSORGLEFT
 10
0.0
 20
0.0
 30
0.0
  9
$PUCSORGRIGHT
 10
0.0
 20
0.0
 30
0.0
  9
$PUCSORGFRONT
 10
0.0
 20
0.0
 30
0.0
  9
$PUCSORGBACK
 10
0.0
 20
0.0
 30
0.0
  9
$USERI1
 70
0
  9
$USERI2
 70
0
  9
$USERI3
 70
0
  9
$USERI4
 70
0
  9
$USERI5
 70
0
  9
$USERR1
 40
0.0
  9
$USERR2
 40
0.0
  9
$USERR3
 40
0.0
  9
$USERR4
 40
0.0
  9
$USERR5
 40
0.0
  9
$WORLDVIEW
 70
1
  9
$SHADEDGE
 70
3
  9
$SHADEDIF
 70
70
  9
$TILEMODE
 70
1
  9
$MAXACTVP
 70
64
  9
$PINSBASE
 10
0.0
 20
0.0
 30
0.0
  9
$PLIMCHECK
 70
0
  9
$PEXTMIN
 10
1e+20
 20
1e+20
 30
1e+20
  9
$PEXTMAX
 10
-1e+20
 20
-1e+20
 30
-1e+20
  9
$PLIMMIN
 10
0.0
 20
0.0
  9
$PLIMMAX
 10
420.0
 20
297.0
  9
$UNITMODE
 70
0
  9
$VISRETAIN
 70
1
  9
$PLINEGEN
 70
0
  9
$PSLTSCALE
 70
1
  9
$TREEDEPTH
 70
3020
  9
$CMLSTYLE
  2
Standard
  9
$CMLJUST
 70
0
  9
$CMLSCALE
 40
20.0
  9
$PROXYGRAPHICS
 70
1
  9
$MEASUREMENT
 70
1
  9
$CELWEIGHT
370
-1
  9
$ENDCAPS
280
0
  9
$JOINSTYLE
280
0
  9
$LWDISPLAY
290
0
  9
$INSUNITS
 70
4
  9
$HYPERLINKBASE
  1

  9
$STYLESHEET
  1

  9
$XEDIT
290
1
  9
$CEPSNTYPE
380
0
  9
$PSTYLEMODE
290
1
  9
$FINGERPRINTGUID
  2
{8B68F1C0-E653-42D6-897A-878109053A2D}
  9
$VERSIONGUID
  2
{7ECE414C-8967-4586-BDBC-A5A44D96B582}
  9
$EXTNAMES
290
1
  9
$PSVPSCALE
 40
0.0
  9
$OLESTARTUP
290
0
  9
$SORTENTS
280
127
  9
$INDEXCTL
280
0
  9
$HIDETEXT
280
1
  9
$XCLIPFRAME
280
1
  9
$HALOGAP
280
0
  9
$OBSCOLOR
 70
257
  9
$OBSLTYPE
280
0
  9
$INTERSECTIONDISPLAY
280
0
  9
$INTERSECTIONCOLOR
 70
257
  9
$DIMASSOC
280
2
  9
$PROJECTNAME
  1

  9
$CAMERADISPLAY
290
0
  9
$LENSLENGTH
 40
50.0
  9
$CAMERAHEIGHT
 40
0.0
  9
$STEPSPERSEC
 40
24.0
  9
$STEPSIZE
 40
100.0
  9
$3DDWFPREC
 40
2.0
  9
$PSOLWIDTH
 40
0.005
  9
$PSOLHEIGHT
 40
0.08
  9
$LOFTANG1
 40
1.570796326795
  9
$LOFTANG2
 40
1.570796326795
  9
$LOFTMAG1
 40
0.0
  9
$LOFTMAG2
 40
0.0
  9
$LOFTPARAM
 70
7
  9
$LOFTNORMALS
280
1
  9
$LATITUDE
 40
37.795
  9
$LONGITUDE
 40
-122.394
  9
$NORTHDIRECTION
 40
0.0
  9
$TIMEZONE
 70
-8000
  9
$LIGHTGLYPHDISPLAY
280
1
  9
$TILEMODELIGHTSYNCH
280
1
  9
$CMATERIAL
347
20
  9
$SOLIDHIST
280
0
  9
$SHOWHIST
280
1
  9
$DWFFRAME
280
2
  9
$DGNFRAME
280
2
  9
$REALWORLDSCALE
290
1
  9
$INTERFERECOLOR
 62
256
  9
$CSHADOW
280
0
  9
$SHADOWPLANELOCATION
 40
0.0
  0
ENDSEC
  0
SECTION
  2
CLASSES
  0
CLASS
  1
ACDBDICTIONARYWDFLT
  2
AcDbDictionaryWithDefault
  3
ObjectDBX Classes
 90
0
 91
0
280
0
281
0
  0
CLASS
  1
SUN
  2
AcDbSun
  3
SCENEOE
 90
1153
 91
0
280
0
281
0
  0
CLASS
  1
VISUALSTYLE
  2
AcDbVisualStyle
  3
ObjectDBX Classes
 90
4095
 91
0
280
0
281
0
  0
CLASS
  1
MATERIAL
  2
AcDbMaterial
  3
ObjectDBX Classes
 90
1153
 91
0
280
0
281
0
  0
CLASS
  1
SCALE
  2
AcDbScale
  3
ObjectDBX Classes
 90
1153
 91
0
280
0
281
0
  0
CLASS
  1
TABLESTYLE
  2
AcDbTableStyle
  3
ObjectDBX Classes
 90
4095
 91
0
280
0
281
0
  0
CLASS
  1
MLEADERSTYLE
  2
AcDbMLeaderStyle
  3
ACDB_MLEADERSTYLE_CLASS
 90
4095
 91
0
280
0
281
0
  0
CLASS
  1
DICTIONARYVAR
  2
AcDbDictionaryVar
  3
ObjectDBX Classes
 90
0
 91
0
280
0
281
0
  0
CLASS
  1
CELLSTYLEMAP
  2
AcDbCellStyleMap
  3
ObjectDBX Classes
 90
1152
 91
0
280
0
281
0
  0
CLASS
  1
MENTALRAYRENDERSETTINGS
  2
AcDbMentalRayRenderSettings
  3
SCENEOE
 90
1024
 91
0
280
0
281
0
  0
CLASS
  1
ACDBDETAILVIEWSTYLE
  2
AcDbDetailViewStyle
  3
ObjectDBX Classes
 90
1025
 91
0
280
0
281
0
  0
CLASS
  1
ACDBSECTIONVIEWSTYLE
  2
AcDbSectionViewStyle
  3
ObjectDBX Classes
 90
1025
 91
0
280
0
281
0
  0
CLASS
  1
RASTERVARIABLES
  2
AcDbRasterVariables
  3
ISM
 90
0
 91
0
280
0
281
0
  0
CLASS
  1
ACDBPLACEHOLDER
  2
AcDbPlaceHolder
  3
ObjectDBX Classes
 90
0
 91
0
280
0
281
0
  0
CLASS
  1
LAYOUT
  2
AcDbLayout
  3
ObjectDBX Classes
 90
0
 91
0
280
0
281
0
  0
ENDSEC
  0
SECTION
  2
TABLES
  0
TABLE
  2
VPORT
  5
8
330
0
100
AcDbSymbolTable
 70
1
  0
VPORT
  5
23
330
8
100
AcDbSymbolTableRecord
100
AcDbViewportTableRecord
  2
*Active
 70
0
 10
0.0
 20
0.0
 11
1.0
 21
1.0
 12
0.0
 22
0.0
 13
0.0
 23
0.0
 14
0.5
 24
0.5
 15
0.5
 25
0.5
 16
0.0
 26
0.0
 36
1.0
 17
0.0
 27
0.0
 37
0.0
 40
1000.0
 41
1.34
 42
50.0
 43
0.0
 44
0.0
 50
0.0
 51
0.0
 71
0
 72
1000
 73
1
 74
3
 75
0
 76
0
 77
0
 78
0
281
0
 65
0
146
0.0
  0
ENDTAB
  0
TABLE
  2
LTYPE
  5
2
330
0
100
AcDbSymbolTable
 70
3
  0
LTYPE
  5
24
330
2
100
AcDbSymbolTableRecord
100
AcDbLinetypeTableRecord
  2
ByBlock
 70
0
  3

 72
65
 73
0
 40
0.0
  0
LTYPE
  5
25
330
2
100
AcDbSymbolTableRecord
100
AcDbLinetypeTableRecord
  2
ByLayer
 70
0
  3

 72
65
 73
0
 40
0.0
  0
LTYPE
  5
26
330
2
100
AcDbSymbolTableRecord
100
AcDbLinetypeTableRecord
  2
Continuous
 70
0
  3

 72
65
 73
0
 40
0.0
  0
ENDTAB
  0
TABLE
  2
LAYER
  5
1
330
0
100
AcDbSymbolTable
 70
3
  0
LAYER
  5
27
330
1
100
AcDbSymbolTableRecord
100
AcDbLayerTableRecord
  2
0
 70
0
 62
7
  6
Continuous
370
-3
390
13
347
21
  0
LAYER
  5
28
330
1
100
AcDbSymbolTableRecord
100
AcDbLayerTableRecord
  2
Defpoints
 70
0
 62
7
  6
Continuous
290
0
370
-3
390
13
347
21
  0
LAYER
  5
2F
330
1
100
AcDbSymbolTableRecord
100
AcDbLayerTableRecord
  2
CUT
 70
0
 62
7
  6
Continuous
370
-3
390
13
347
21
  0
ENDTAB
  0
TABLE
  2
STYLE
  5
5
330
0
100
AcDbSymbolTable
 70
1
  0
STYLE
  5
29
330
5
100
AcDbSymbolTableRecord
100
AcDbTextStyleTableRecord
  2
Standard
 70
0
 40
0.0
 41
1.0
 50
0.0
 71
0
 42
2.5
  3
txt
  4

  0
ENDTAB
  0
TABLE
  2
VIEW
  5
7
330
0
100
AcDbSymbolTable
 70
0
  0
ENDTAB
  0
TABLE
  2
UCS
  5
6
330
0
100
AcDbSymbolTable
 70
0
  0
ENDTAB
  0
TABLE
  2
APPID
  5
3
330
0
100
AcDbSymbolTable
 70
3
  0
APPID
  5
2A
330
3
100
AcDbSymbolTableRecord
100
AcDbRegAppTableRecord
  2
ACAD
 70
0
  0
APPID
  5
36
330
3
100
AcDbSymbolTableRecord
100
AcDbRegAppTableRecord
  2
HATCHBACKGROUNDCOLOR
 70
0
  0
APPID
  5
37
330
3
100
AcDbSymbolTableRecord
100
AcDbRegAppTableRecord
  2
EZDXF
 70
0
  0
ENDTAB
  0
TABLE
  2
DIMSTYLE
  5
4
330
0
100
AcDbSymbolTable
 70
1
100
AcDbDimStyleTable
  0
DIMSTYLE
105
2B
330
4
100
AcDbSymbolTableRecord
100
AcDbDimStyleTableRecord
  2
Standard
 70
0
 40
1.0
 41
2.5
 42
0.625
 43
3.75
 44
1.25
 45
0.0
 46
0.0
 47
0.0
 48
0.0
 49
2.5
140
2.5
141
2.5
142
0.0
143
0.03937007874
144
1.0
145
0.0
146
1.0
147
0.625
148
0.0
 69
0
 70
0
 71
0
 72
0
 73
0
 74
0
 75
0
 76
0
 77
1
 78
8
 79
3
170
0
171
3
172
1
173
0
174
0
175
0
176
0
177
0
178
0
179
2
271
2
272
2
273
2
274
3
275
0
276
0
277
2
278
44
279
0
280
0
281
0
282
0
283
0
284
8
285
0
286
0
288
0
289
3
290
0
371
-2
372
-2
  0
ENDTAB
  0
TABLE
  2
BLOCK_RECORD
  5
9
330
0
100
AcDbSymbolTable
 70
2
  0
BLOCK_RECORD
  5
17
330
9
100
AcDbSymbolTableRecord
100
AcDbBlockTableRecord
  2
*Model_Space
340
1A
 70
0
280
1
281
0
  0
BLOCK_RECORD
  5
1B
330
9
100
AcDbSymbolTableRecord
100
AcDbBlockTableRecord
  2
*Paper_Space
340
1E
 70
0
280
1
281
0
  0
ENDTAB
  0
ENDSEC
  0
SECTION
  2
BLOCKS
  0
BLOCK
  5
18
330
17
100
AcDbEntity
  8
0
100
AcDbBlockBegin
  2
*Model_Space
 70
0
 10
0.0
 20
0.0
 30
0.0
  3
*Model_Space
  1

  0
ENDBLK
  5
19
330
17
100
AcDbEntity
  8
0
100
AcDbBlockEnd
  0
BLOCK
  5
1C
330
1B
100
AcDbEntity
  8
0
100
AcDbBlockBegin
  2
*Paper_Space
 70
0
 10
0.0
 20
0.0
 30
0.0
  3
*Paper_Space
  1

  0
ENDBLK
  5
1D
330
1B
100
AcDbEntity
  8
0
100
AcDbBlockEnd
  0
ENDSEC
  0
SECTION
  2
ENTITIES
  0
LWPOLYLINE
  5
30
330
17
100
AcDbEntity
  8
CUT
100
AcDbPolyline
 90
520
 70
1
 10
19.270237882268752
 20
3.747196033899243
 10
19.15046237890455
 20
3.612851496682798
 10
19.028504799676192
 20
3.480484677748416
 10
18.904397795576678
 20
3.3501310148942727
 10
18.77817459305202
 20
3.2218254069479784
 10
18.649868985105726
 20
3.0956022044233222
 10
18.519515322251586
 20
2.971495200323808
 10
18.387148503317203
 20
2.8495376210954504
 10
18.252803966100757
 20
2.7297621177312497
 10
18.116517677883433
 20
2.612200757029731
 10
17.978326125800102
 20
2.4968850130098943
 10
17.838266307070853
 20
2.3838457584848456
 10
17.696375719095926
 20
2.273113256796414
 10
17.552692349416766
 20
2.164717153712907
 10
17.407254665545825
 20
2.0586864694922333
 10
17.26010160466788
 20
1.9550495911124752
 10
17.11127256321563
 20
1.8538342646720043
 10
16.96080738632227
 20
1.7550675879611823
 10
16.80874635715405
 20
1.6587760032076329
 10
16.65513018612544
 20
1.5649852899970078
 10
16.5
 20
1.4737205583711752
 10
16.34339733087974
 20
1.3850062421056535
 10
16.185364105085977
 20
1.2988660921680957
 10
16.025942631934626
 20
1.215323170359584
 10
15.865175592409017
 20
1.1343998431404287
 10
15.703106027733103
 20
1.0561177756421234
 10
15.539777327848345
 20
0.9804979258670681
 10
15.375233219797124
 20
0.9075605390775969
 10
15.209517756015988
 20
0.8373251423758461
 10
15.042675302541742
 20
0.7698105394758663
 10
14.87475052713357
 20
0.7050348056694187
 10
14.705788387314422
 20
0.6430152829867719
 10
14.53583411833478
 20
0.5837685755538384
 10
14.364933221062088
 20
0.5273105451468325
 10
14.193131449799088
 20
0.4736563069457027
 10
14.020474800034258
 20
0.4228202254874187
 10
13.84700949612773
 20
0.37481591082024934
 10
13.672781978935904
 20
0.32965621486001595
 10
13.497838893378109
 20
0.28735322794933005
 10
13.322227075948618
 20
0.24791827562071056
 10
13.145993542177411
 20
0.21136191556446526
 10
12.96918547404296
 20
0.17769393480214823
 10
12.791850207340477
 20
0.14692334706633048
 10
12.614035219008983
 20
0.11905839038741028
 10
12.435788114420568
 20
0.09410652488808502
 10
12.257156614635313
 20
0.07207443078611142
 10
12.078188543625169
 20
0.05296800660583578
 10
11.898931815470352
 20
0.036792367599016274
 10
11.719434421531576
 20
0.023551844375361952
 10
11.5397444176016
 20
0.013249981743102879
 10
11.35990991103954
 20
0.005889537759976804
 10
11.179979047891356
 20
0.001472482994820723
 10
11.0
 20
0.0
 10
10.820020952108647
 20
0.001472482994820723
 10
10.640090088960463
 20
0.005889537759976804
 10
10.460255582398405
 20
0.013249981743102879
 10
10.280565578468428
 20
0.023551844375361952
 10
10.101068184529652
 20
0.036792367599016274
 10
9.921811456374835
 20
0.052968006605834006
 10
9.74284338536469
 20
0.07207443078611142
 10
9.564211885579436
 20
0.09410652488808502
 10
9.385964780991022
 20
0.11905839038740851
 10
9.208149792659526
 20
0.14692334706633048
 10
9.030814525957043
 20
0.17769393480214823
 10
8.854006457822592
 20
0.2113619155644635
 10
8.677772924051386
 20
0.24791827562070878
 10
8.502161106621896
 20
0.28735322794933005
 10
8.3272180210641
 20
0.32965621486001595
 10
8.152990503872273
 20
0.37481591082024934
 10
7.979525199965748
 20
0.42282022548741693
 10
7.806868550200916
 20
0.47365630694570093
 10
7.635066778937915
 20
0.5273105451468325
 10
7.464165881665224
 20
0.5837685755538367
 10
7.294211612685581
 20
0.6430152829867719
 10
7.125249472866434
 20
0.7050348056694169
 10
6.957324697458262
 20
0.7698105394758663
 10
6.790482243984016
 20
0.8373251423758443
 10
6.624766780202881
 20
0.9075605390775952
 10
6.460222672151659
 20
0.9804979258670645
 10
6.296893972266901
 20
1.0561177756421216
 10
6.134824407590987
 20
1.1343998431404287
 10
5.974057368065374
 20
1.215323170359584
 10
5.81463589491403
 20
1.2988660921680921
 10
5.656602669120263
 20
1.38500624210565
 10
5.5000000000000036
 20
1.4737205583711734
 10
5.344869813874562
 20
1.564985289997006
 10
5.191253642845952
 20
1.6587760032076329
 10
5.039192613677734
 20
1.7550675879611806
 10
4.888727436784379
 20
1.8538342646720007
 10
4.739898395332123
 20
1.9550495911124735
 10
4.592745334454177
 20
2.0586864694922316
 10
4.447307650583234
 20
2.164717153712905
 10
4.303624280904076
 20
2.2731132567964103
 10
4.16173369292915
 20
2.383845758484844
 10
4.021673874199902
 20
2.4968850130098925
 10
3.8834823221165706
 20
2.612200757029729
 10
3.7471960338992467
 20
2.7297621177312443
 10
3.6128514966828007
 20
2.849537621095447
 10
3.480484677748418
 20
2.9714952003238064
 10
3.3501310148942736
 20
3.0956022044233196
 10
3.2218254069479784
 20
3.2218254069479766
 10
3.095602204423326
 20
3.3501310148942682
 10
2.9714952003238118
 20
3.4804846777484126
 10
2.8495376210954504
 20
3.6128514966827963
 10
2.729762117731248
 20
3.7471960338992414
 10
2.6122007570297328
 20
3.883482322116569
 10
2.4968850130098943
 20
4.021673874199896
 10
2.383845758484849
 20
4.161733692929146
 10
2.273113256796414
 20
4.303624280904071
 10
2.164717153712907
 20
4.447307650583232
 10
2.0586864694922333
 20
4.592745334454176
 10
1.955049591112477
 20
4.739898395332116
 10
1.8538342646720025
 20
4.8887274367843725
 10
1.755067587961186
 20
5.039192613677729
 10
1.6587760032076346
 20
5.191253642845951
 10
1.5649852899970114
 20
5.344869813874557
 10
1.473720558371177
 20
5.4999999999999964
 10
1.3850062421056535
 20
5.656602669120256
 10
1.2988660921680975
 20
5.814635894914024
 10
1.2153231703595822
 20
5.974057368065371
 10
1.1343998431404287
 20
6.1348244075909815
 10
1.0561177756421252
 20
6.2968939722668935
 10
0.9804979258670699
 20
6.460222672151655
 10
0.9075605390775969
 20
6.624766780202877
 10
0.8373251423758461
 20
6.790482243984012
 10
0.7698105394758699
 20
6.957324697458256
 10
0.7050348056694205
 20
7.125249472866427
 10
0.6430152829867737
 20
7.294211612685576
 10
0.5837685755538402
 20
7.46416588166522
 10
0.5273105451468325
 20
7.635066778937911
 10
0.47365630694570626
 20
7.806868550200909
 10
0.4228202254874205
 20
7.979525199965741
 10
0.37481591082024934
 20
8.15299050387227
 10
0.32965621486001595
 20
8.327218021064095
 10
0.2873532279493318
 20
8.50216110662189
 10
0.24791827562071234
 20
8.677772924051379
 10
0.21136191556446704
 20
8.854006457822585
 10
0.17769393480215
 20
9.030814525957037
 10
0.14692334706633048
 20
9.208149792659523
 10
0.11905839038740851
 20
9.385964780991015
 10
0.09410652488808324
 20
9.564211885579429
 10
0.07207443078610964
 20
9.742843385364687
 10
0.05296800660583756
 20
9.921811456374831
 10
0.036792367599016274
 20
10.101068184529648
 10
0.023551844375361952
 20
10.280565578468421
 10
0.013249981743101102
 20
10.460255582398396
 10
0.005889537759976804
 20
10.64009008896046
 10
0.001472482994820723
 20
10.820020952108642
 10
0.0
 20
11.0
 10
0.001472482994820723
 20
11.179979047891349
 10
0.005889537759976804
 20
11.359909911039534
 10
0.013249981743101102
 20
11.539744417601595
 10
0.023551844375361952
 20
11.719434421531572
 10
0.036792367599016274
 20
11.898931815470345
 10
0.052968006605834006
 20
12.078188543625162
 10
0.07207443078610964
 20
12.257156614635306
 10
0.09410652488808324
 20
12.435788114420564
 10
0.11905839038740851
 20
12.614035219008978
 10
0.14692334706633048
 20
12.79185020734047
 10
0.17769393480215
 20
12.969185474042956
 10
0.2113619155644635
 20
13.145993542177408
 10
0.24791827562070878
 20
13.322227075948614
 10
0.2873532279493318
 20
13.497838893378104
 10
0.32965621486001595
 20
13.672781978935898
 10
0.3748159108202458
 20
13.847009496127724
 10
0.42282022548741693
 20
14.020474800034252
 10
0.47365630694569916
 20
14.193131449799083
 10
0.5273105451468325
 20
14.364933221062081
 10
0.5837685755538367
 20
14.535834118334773
 10
0.6430152829867701
 20
14.705788387314417
 10
0.7050348056694133
 20
14.874750527133566
 10
0.7698105394758663
 20
15.042675302541737
 10
0.8373251423758425
 20
15.20951775601598
 10
0.9075605390775934
 20
15.375233219797117
 10
0.9804979258670627
 20
15.539777327848338
 10
1.0561177756421216
 20
15.7031060277331
 10
1.1343998431404287
 20
15.865175592409011
 10
1.2153231703595822
 20
16.025942631934623
 10
1.2988660921680903
 20
16.18536410508597
 10
1.38500624210565
 20
16.343397330879736
 10
1.4737205583711734
 20
16.499999999999996
 10
1.5649852899970043
 20
16.655130186125437
 10
1.6587760032076275
 20
16.808746357154043
 10
1.7550675879611788
 20
16.960807386322266
 10
1.8538342646720025
 20
17.11127256321562
 10
1.95504959111247
 20
17.260101604667877
 10
2.0586864694922298
 20
17.407254665545818
 10
2.1647171537128997
 20
17.552692349416763
 10
2.2731132567964103
 20
17.696375719095926
 10
2.3838457584848456
 20
17.83826630707085
 10
2.4968850130098943
 20
17.9783261258001
 10
2.6122007570297257
 20
18.116517677883426
 10
2.7297621177312443
 20
18.252803966100753
 10
2.849537621095447
 20
18.3871485033172
 10
2.9714952003238047
 20
18.519515322251582
 10
3.0956022044233187
 20
18.649868985105726
 10
3.221825406947973
 20
18.778174593052018
 10
3.3501310148942682
 20
18.904397795576674
 10
3.4804846777484126
 20
19.02850479967619
 10
3.6128514966827936
 20
19.15046237890455
 10
3.7471960338992396
 20
19.270237882268752
 10
3.883482322116567
 20
19.387799242970267
 10
4.0216738741998945
 20
19.503114986990106
 10
4.1617336929291415
 20
19.616154241515147
 10
4.303624280904071
 20
19.726886743203586
 10
4.447307650583227
 20
19.83528284628709
 10
4.592745334454175
 20
19.941313530507767
 10
4.739898395332116
 20
20.044950408887523
 10
4.888727436784368
 20
20.14616573532799
 10
5.039192613677729
 20
20.244932412038814
 10
5.191253642845947
 20
20.341223996792365
 10
5.34486981387456
 20
20.435014710002992
 10
5.499999999999995
 20
20.526279441628823
 10
5.656602669120252
 20
20.614993757894343
 10
5.814635894914023
 20
20.701133907831903
 10
5.974057368065367
 20
20.78467682964041
 10
6.134824407590985
 20
20.86560015685957
 10
6.2968939722668935
 20
20.943882224357875
 10
6.46022267215165
 20
21.01950207413293
 10
6.624766780202876
 20
21.092439460922403
 10
6.790482243984005
 20
21.162674857624154
 10
6.95732469745826
 20
21.230189460524134
 10
7.125249472866427
 20
21.29496519433058
 10
7.294211612685572
 20
21.356984717013226
 10
7.46416588166522
 20
21.41623142444616
 10
7.635066778937906
 20
21.472689454853164
 10
7.806868550200914
 20
21.526343693054297
 10
7.979525199965739
 20
21.57717977451258
 10
8.152990503872264
 20
21.625184089179747
 10
8.327218021064095
 20
21.670343785139984
 10
8.502161106621887
 20
21.712646772050668
 10
8.677772924051373
 20
21.752081724379288
 10
8.854006457822585
 20
21.788638084435533
 10
9.030814525957032
 20
21.82230606519785
 10
9.20814979265952
 20
21.85307665293367
 10
9.385964780991015
 20
21.88094160961259
 10
9.564211885579423
 20
21.905893475111913
 10
9.742843385364685
 20
21.92792556921389
 10
9.921811456374826
 20
21.947031993394162
 10
10.101068184529648
 20
21.963207632400984
 10
10.280565578468421
 20
21.976448155624638
 10
10.460255582398393
 20
21.986750018256895
 10
10.64009008896046
 20
21.994110462240023
 10
10.820020952108637
 20
21.99852751700518
 10
11.0
 20
22.0
 10
11.179979047891349
 20
21.99852751700518
 10
11.359909911039527
 20
21.994110462240023
 10
11.539744417601593
 20
21.9867500182569
 10
11.719434421531567
 20
21.976448155624638
 10
11.898931815470348
 20
21.963207632400984
 10
12.07818854362516
 20
21.947031993394166
 10
12.257156614635301
 20
21.92792556921389
 10
12.435788114420564
 20
21.905893475111917
 10
12.614035219008972
 20
21.88094160961259
 10
12.791850207340474
 20
21.85307665293367
 10
12.969185474042954
 20
21.82230606519785
 10
13.1459935421774
 20
21.788638084435537
 10
13.322227075948614
 20
21.75208172437929
 10
13.497838893378098
 20
21.71264677205067
 10
13.672781978935902
 20
21.670343785139984
 10
13.847009496127724
 20
21.625184089179754
 10
14.020474800034247
 20
21.577179774512583
 10
14.193131449799083
 20
21.5263436930543
 10
14.364933221062081
 20
21.472689454853167
 10
14.535834118334776
 20
21.416231424446163
 10
14.705788387314415
 20
21.35698471701323
 10
14.87475052713356
 20
21.294965194330587
 10
15.042675302541735
 20
21.230189460524134
 10
15.20951775601598
 20
21.162674857624157
 10
15.375233219797112
 20
21.092439460922407
 10
15.539777327848338
 20
21.019502074132937
 10
15.703106027733096
 20
20.94388222435788
 10
15.865175592409011
 20
20.86560015685957
 10
16.025942631934623
 20
20.784676829640418
 10
16.185364105085966
 20
20.70113390783191
 10
16.343397330879736
 20
20.61499375789435
 10
16.499999999999993
 20
20.52627944162883
 10
16.655130186125437
 20
20.435014710002996
 10
16.808746357154043
 20
20.341223996792372
 10
16.96080738632226
 20
20.24493241203882
 10
17.11127256321562
 20
20.146165735327997
 10
17.260101604667874
 20
20.04495040888753
 10
17.40725466554582
 20
19.94131353050777
 10
17.552692349416763
 20
19.8352828462871
 10
17.69637571909592
 20
19.726886743203593
 10
17.838266307070846
 20
19.616154241515154
 10
17.978326125800095
 20
19.503114986990113
 10
18.11651767788343
 20
19.38779924297027
 10
18.252803966100753
 20
19.270237882268756
 10
18.387148503317192
 20
19.150462378904557
 10
18.519515322251582
 20
19.028504799676195
 10
18.649868985105723
 20
18.904397795576685
 10
18.77817459305202
 20
18.778174593052025
 10
18.904397795576674
 20
18.649868985105734
 10
19.028504799676185
 20
18.519515322251593
 10
19.15046237890455
 20
18.387148503317206
 10
19.270237882268745
 20
18.252803966100764
 10
19.387799242970267
 20
18.116517677883433
 10
19.503114986990106
 20
17.978326125800105
 10
19.616154241515147
 20
17.83826630707086
 10
19.726886743203586
 20
17.69637571909593
 10
19.83528284628709
 20
17.552692349416773
 10
19.941313530507767
 20
17.407254665545825
 10
20.044950408887523
 20
17.260101604667884
 10
20.14616573532799
 20
17.111272563215632
 10
20.244932412038814
 20
16.960807386322273
 10
20.341223996792365
 20
16.808746357154053
 10
20.43501471000299
 20
16.655130186125447
 10
20.5
 20
16.544669332813754
 10
20.5
 20
17.0
 10
28.551092864381864
 20
17.0
 10
28.778856258510274
 20
17.224945667061107
 10
29.117639250302084
 20
17.553492871243016
 10
29.459402231959565
 20
17.87893909609705
 10
29.804116820449913
 20
18.20125731367878
 10
30.15175438761272
 20
18.52042075582134
 10
30.502286062537436
 20
18.836402916358338
 10
30.855682733961096
 20
19.149177553325295
 10
31.211915052686052
 20
19.45871869113899
 10
31.57095343401724
 20
19.765000622754677
 10
31.932768060219274
 20
20.067997911800994
 10
32.29732888299277
 20
20.36768539469253
 10
32.66460562596976
 20
20.664038182719516
 10
33.03456778722814
 20
20.957031664114872
 10
33.40718464182487
 20
21.24664150609818
 10
33.78242524434755
 20
21.532843656896482
 10
34.16025843148446
 20
21.81561434774173
 10
34.54065282461269
 20
22.094930094844834
 10
34.92357683240398
 20
22.370767701345855
 10
35.308998653448405
 20
22.643104259240552
 10
35.696886278895505
 20
22.911917151282893
 10
36.087207495112466
 20
23.177184052863296
 10
36.47992988635951
 20
23.438882933862708
 10
36.87502083748198
 20
23.696992060482245
 10
37.27244753661894
 20
23.951489997048043
 10
37.67217697792821
 20
24.20235560779156
 10
38.07417596432748
 20
24.449568058604854
 10
38.47841111025123
 20
24.693106818770794
 10
38.88484884442338
 20
24.932951662668145
 10
39.293455412645436
 20
25.1690826714513
 10
39.70419688059959
 20
25.401480234704493
 10
40.11703913666702
 20
25.630125052070404
 10
40.53194789476085
 20
25.854998134853105
 10
40.94888869717347
 20
26.07608080759494
 10
41.36782691743827
 20
26.2933547096276
 10
41.78872776320539
 20
26.506801796596903
 10
42.21155627913102
 20
26.716404341961372
 10
42.6362773497806
 20
26.92214493846442
 10
43.06285570254495
 20
27.12400649957997
 10
43.49125591056973
 20
27.32197226093149
 10
43.921442395697525
 20
27.51602578168424
 10
44.35337943142264
 20
27.706150945910707
 10
44.78703114585812
 20
27.89233196392899
 10
45.222361524714835
 20
28.074553373614073
 10
45.65933441429246
 20
28.252800041682022
 10
46.09791352448201
 20
28.427057164946717
 10
46.53806243177968
 20
28.59731027154927
 10
46.97974458231176
 20
28.763545222159877
 10
47.4229232948704
 20
28.925748211152133
 10
47.867561763959955
 20
29.083905767749457
 10
48.313623062853665
 20
29.238004757143976
 10
48.761070146660316
 20
29.388032381587216
 10
49.209865855400786
 20
29.533976181453028
 10
49.659972917094244
 20
29.67582403627233
 10
50.1113539508534
 20
29.813564165739663
 10
50.563971469989
 20
29.947185130691565
 10
51.01778788512311
 20
30.076675834056573
 10
51.47276550731082
 20
30.20202552177684
 10
51.928866551170245
 20
30.323223783701202
 10
52.38605313802063
 20
30.44026055444978
 10
52.84428729902804
 20
30.55312611424985
 10
53.30353097835871
 20
30.66181108974311
 10
53.763746036339526
 20
30.766306454764106
 10
54.22489425262543
 20
30.866603531089794
 10
54.68693732937363
 20
30.962693989160364
 10
55.149836894424155
 20
31.05456984877089
 10
55.61355450448669
 20
31.14222347973417
 10
56.078051648333144
 20
31.22564760251432
 10
56.543289749996035
 20
31.304835288831406
 10
57.009230171972185
 20
31.379779962236775
 10
57.47583421843147
 20
31.450475398659258
 10
57.94306313843053
 20
31.51691572692205
 10
58.41087812913093
 20
31.579095429230314
 10
58.87924033902169
 20
31.63700934162943
 10
59.348110871146
 20
31.69065265443384
 10
59.817450786331335
 20
31.740020912626505
 10
60.287221106423466
 20
31.785110016228884
 10
60.75738281752359
 20
31.82591622064143
 10
61.22789687322823
 20
31.862436136954592
 10
61.69872419787213
 20
31.894666732230206
 10
62.16982568977338
 20
31.92260532975346
 10
62.641162224480794
 20
31.946249609255098
 10
63.112694658023166
 20
31.965597607104222
 10
63.58438383016006
 20
31.980647716471267
 10
64.0561905676341
 20
31.99139868746152
 10
64.5280756874243
 20
31.997849627218862
 10
65.0
 20
32.0
 10
65.47192431257571
 20
31.997849627218862
 10
65.9438094323659
 20
31.99139868746152
 10
66.41561616983995
 20
31.980647716471267
 10
66.88730534197684
 20
31.965597607104222
 10
67.35883777551919
 20
31.946249609255098
 10
67.83017431022662
 20
31.92260532975346
 10
68.30127580212788
 20
31.894666732230206
 10
68.77210312677178
 20
31.862436136954592
 10
69.24261718247641
 20
31.82591622064143
 10
69.71277889357654
 20
31.785110016228884
 10
70.1825492136687
 20
31.7400209126265
 10
70.65188912885402
 20
31.690652654433833
 10
71.12075966097831
 20
31.63700934162943
 10
71.58912187086908
 20
31.579095429230314
 10
72.05693686156948
 20
31.51691572692205
 10
72.52416578156853
 20
31.450475398659258
 10
72.99076982802782
 20
31.379779962236775
 10
73.45671025000397
 20
31.304835288831406
 10
73.92194835166687
 20
31.225647602514314
 10
74.38644549551331
 20
31.14222347973417
 10
74.85016310557585
 20
31.05456984877089
 10
75.31306267062638
 20
30.962693989160357
 10
75.77510574737458
 20
30.866603531089794
 10
76.23625396366049
 20
30.7663064547641
 10
76.69646902164129
 20
30.66181108974311
 10
77.15571270097197
 20
30.55312611424985
 10
77.61394686197937
 20
30.44026055444978
 10
78.07113344882976
 20
30.323223783701202
 10
78.52723449268917
 20
30.20202552177684
 10
78.98221211487689
 20
30.076675834056573
 10
79.43602853001101
 20
29.947185130691558
 10
79.88864604914662
 20
29.813564165739656
 10
80.34002708290576
 20
29.675824036272324
 10
80.79013414459922
 20
29.533976181453028
 10
81.2389298533397
 20
29.388032381587216
 10
81.68637693714633
 20
29.238004757143976
 10
82.13243823604004
 20
29.083905767749464
 10
82.5770767051296
 20
28.925748211152126
 10
83.02025541768825
 20
28.763545222159877
 10
83.46193756822032
 20
28.59731027154927
 10
83.90208647551799
 20
28.427057164946717
 10
84.34066558570754
 20
28.252800041682022
 10
84.77763847528519
 20
28.074553373614073
 10
85.21296885414189
 20
27.89233196392898
 10
85.64662056857736
 20
27.706150945910707
 10
86.07855760430249
 20
27.51602578168424
 10
86.50874408943028
 20
27.32197226093148
 10
86.93714429745505
 20
27.12400649957997
 10
87.3637226502194
 20
26.922144938464427
 10
87.78844372086898
 20
26.71640434196138
 10
88.21127223679463
 20
26.506801796596903
 10
88.63217308256172
 20
26.2933547096276
 10
89.05111130282654
 20
26.07608080759494
 10
89.46805210523917
 20
25.854998134853098
 10
89.88296086333298
 20
25.63012505207041
 10
90.29580311940043
 20
25.401480234704486
 10
90.70654458735457
 20
25.1690826714513
 10
91.11515115557663
 20
24.93295166266814
 10
91.52158888974878
 20
24.69310681877078
 10
91.92582403567253
 20
24.449568058604846
 10
92.32782302207178
 20
24.202355607791567
 10
92.72755246338106
 20
23.951489997048043
 10
93.12497916251803
 20
23.696992060482238
 10
93.52007011364049
 20
23.438882933862715
 10
93.91279250488755
 20
23.177184052863282
 10
94.3031137211045
 20
22.911917151282893
 10
94.6910013465516
 20
22.643104259240552
 10
95.07642316759602
 20
22.370767701345848
 10
95.45934717538731
 20
22.094930094844827
 10
95.83974156851554
 20
21.81561434774173
 10
96.21757475565246
 20
21.532843656896468
 10
96.59281535817513
 20
21.24664150609818
 10
96.96543221277184
 20
20.957031664114872
 10
97.33539437403024
 20
20.66403818271951
 10
97.70267111700723
 20
20.36768539469253
 10
98.06723193978073
 20
20.067997911800987
 10
98.42904656598276
 20
19.765000622754677
 10
98.78808494731396
 20
19.45871869113899
 10
99.1443172660389
 20
19.149177553325295
 10
99.49771393746258
 20
18.836402916358324
 10
99.84824561238727
 20
18.520420755821334
 10
100.1958831795501
 20
18.20125731367878
 10
100.54059776804044
 20
17.878939096097035
 10
100.88236074969791
 20
17.553492871243016
 10
101.22114374148973
 20
17.224945667061114
 10
101.55691860786789
 20
16.893324769028624
 10
101.88965746310589
 20
16.558657717889645
 10
102.2193326736145
 20
16.220972307367894
 10
102.54591686023684
 20
15.880296581858445
 10
102.86938290052197
 20
15.536658834098695
 10
103.18970393097766
 20
15.190087602818636
 10
103.50685334930107
 20
14.840611670370834
 10
103.82080481658832
 20
14.488260060339982
 10
104.13153225952172
 20
14.13306203513261
 10
104.43900987253521
 20
13.77504709354681
 10
104.74321211995743
 20
13.414244968322464
 10
105.04411373813255
 20
13.050685623671903
 10
105.3416897375182
 20
12.684399252791422
 10
105.63591540476096
 20
12.315416275353861
 10
105.92676630474878
 20
11.943767334982148
 10
106.21421828264022
 20
11.569483296704451
 10
106.49824746587049
 20
11.192595244390908
 10
106.77883026613411
 20
10.813134478172067
 10
107.05594338134378
 20
10.43113251183954
 10
107.32956379756575
 20
10.04662107022866
 10
107.59966879093093
 20
9.659632086583969
 10
107.86623592952219
 20
9.270197699907051
 10
108.12924307523724
 20
8.878350252287508
 10
108.38866838562731
 20
8.484122286216909
 10
108.64449031571093
 20
8.087546541886208
 10
108.89668761976337
 20
7.6886559544667605
 10
109.14523935308105
 20
7.28748365137502
 10
109.39012487372094
 20
6.88406294952139
 10
109.63132384421485
 20
6.478427352543228
 10
109.86881623325849
 20
6.0706105480224934
 10
110.10258231737494
 20
5.660646404687991
 10
110.33260268255282
 20
5.248568969602559
 10
110.55885822585844
 20
4.834412465335596
 10
110.78133015702241
 20
4.418211287120858
 10
111.0
 20
4.0
 10
19.485028939822428
 20
4.0
 10
19.38779924297027
 20
3.8834823221165697
 10
19.270237882268752
 20
3.747196033899243
  0
LWPOLYLINE
  5
31
330
17
100
AcDbEntity
  8
CUT
100
AcDbPolyline
 90
5
 70
1
 10
27.0
 20
6.0
 10
33.0
 20
6.0
 10
33.0
 20
12.0
 10
27.0
 20
12.0
 10
27.0
 20
6.0
  0
LWPOLYLINE
  5
32
330
17
100
AcDbEntity
  8
CUT
100
AcDbPolyline
 90
5
 70
1
 10
97.0
 20
6.0
 10
103.0
 20
6.0
 10
103.0
 20
12.0
 10
97.0
 20
12.0
 10
97.0
 20
6.0
  0
LWPOLYLINE
  5
33
330
17
100
AcDbEntity
  8
CUT
100
AcDbPolyline
 90
75
 70
1
 10
91.79028184243978
 20
24.414894986411497
 10
91.50045876890489
 20
24.58926454540248
 10
89.39829412913825
 20
21.069192979750042
 10
89.66512681513734
 20
20.908655389645297
 10
89.93090322730416
 20
20.746375080026873
 10
90.19561198387404
 20
20.58235900048176
 10
90.45924174880422
 20
20.416614174930587
 10
90.72178123225925
 20
20.249147701326812
 10
90.9832191910946
 20
20.079966751352735
 10
91.24354442933806
 20
19.909078570112435
 10
91.50274579866917
 20
19.736490475821427
 10
91.76081219889673
 20
19.56220985949333
 10
92.01773257843415
 20
19.386244184623266
 10
92.27349593477265
 20
19.208600986868355
 10
92.5280913149525
 20
19.029287873724904
 10
92.7815078160321
 20
18.84831252420264
 10
93.0337345855548
 20
18.665682688495913
 10
93.28476082201375
 20
18.48140618765173
 10
93.53457577531444
 20
18.295490913234858
 10
93.78316874723501
 20
18.107944826989858
 10
94.03052909188452
 20
17.91877596050014
 10
94.27664621615871
 20
17.72799241484401
 10
94.52150958019377
 20
17.535602360247715
 10
94.7651086978176
 20
17.341614035735617
 10
95.00743313699897
 20
17.146035748777287
 10
95.24847252029424
 20
16.948875874931808
 10
95.48821652529169
 20
16.75014285748906
 10
95.7266548850537
 20
16.549845207108127
 10
95.96377738855637
 20
16.347991501452874
 10
96.19957388112674
 20
16.144590384824575
 10
96.43403426487775
 20
15.939650567791745
 10
96.66714849914067
 20
15.733180826817097
 10
96.89890660089502
 20
15.525190003881704
 10
97.12929864519617
 20
15.315687006106351
 10
97.35831476560033
 20
15.10468080537008
 10
97.58594515458705
 20
14.89218043792598
 10
97.81218006397927
 20
14.6781950040142
 10
98.0370098053608
 20
14.462733667472243
 10
98.26042475049113
 20
14.245805655342565
 10
101.12615333151513
 20
17.17797203873593
 10
100.88348888495807
 20
17.413590636119665
 10
100.6392877428631
 20
17.647616188689092
 10
100.39356036304291
 20
17.880038674396943
 10
100.14631726867066
 20
18.11084813984658
 10
99.8975690478294
 20
18.340034700718334
 10
99.64732635305859
 20
18.567588542192738
 10
99.3955999008979
 20
18.793499919370838
 10
99.14240047142832
 20
19.017759157691543
 10
98.88773890781043
 20
19.24035665334594
 10
98.63162611582015
 20
19.46128287368854
 10
98.37407306338167
 20
19.68052835764552
 10
98.11509078009767
 20
19.898083716119913
 10
97.85469035677711
 20
20.113939632393667
 10
97.59288294496017
 20
20.32808686252664
 10
97.32967975644073
 20
20.540516235752463
 10
97.06509206278625
 20
20.75121865487128
 10
96.79913119485506
 20
20.960185096639336
 10
96.53180854231107
 20
21.16740661215536
 10
96.26313555313608
 20
21.372874327243863
 10
95.99312373313948
 20
21.576579442835097
 10
95.72178464546556
 20
21.778513235341926
 10
95.44912991009824
 20
21.978667057033384
 10
95.17517120336359
 20
22.177032336405027
 10
94.89992025742966
 20
22.37360057854599
 10
94.6233888598041
 20
22.568363365502762
 10
94.34558885282941
 20
22.761312356639742
 10
94.06653213317574
 20
22.952439288996352
 10
93.78623065133144
 20
23.141735977640927
 10
93.50469641109129
 20
23.32919431602125
 10
93.22194146904242
 20
23.51480627631168
 10
92.93797793404804
 20
23.69856390975695
 10
92.6528179667288
 20
23.880459347012568
 10
92.36647377894215
 20
24.060484798481838
 10
92.07895763325922
 20
24.23863255464942
 10
91.79028184243978
 20
24.414894986411497
  0
LWPOLYLINE
  5
34
330
17
100
AcDbEntity
  8
CUT
100
AcDbPolyline
 90
75
 70
1
 10
29.360712257136882
 20
17.647616188689092
 10
29.116511115041916
 20
17.413590636119658
 10
28.873846668484873
 20
17.17797203873593
 10
31.739575249508874
 20
14.245805655342565
 10
31.962990194639197
 20
14.462733667472243
 10
32.187819936020716
 20
14.678195004014192
 10
32.41405484541296
 20
14.892180437925987
 10
32.64168523439968
 20
15.104680805370087
 10
32.87070135480383
 20
15.315687006106351
 10
33.10109339910498
 20
15.525190003881704
 10
33.332851500859334
 20
15.73318082681709
 10
33.56596573512225
 20
15.939650567791738
 10
33.80042611887326
 20
16.144590384824575
 10
34.036222611443634
 20
16.34799150145288
 10
34.27334511494629
 20
16.549845207108135
 10
34.51178347470831
 20
16.75014285748906
 10
34.75152747970577
 20
16.948875874931808
 10
34.99256686300103
 20
17.146035748777287
 10
35.23489130218242
 20
17.341614035735624
 10
35.478490419806256
 20
17.53560236024773
 10
35.7233537838413
 20
17.727992414844017
 10
35.96947090811548
 20
17.91877596050015
 10
36.21683125276499
 20
18.107944826989865
 10
36.46542422468557
 20
18.295490913234858
 10
36.71523917798625
 20
18.48140618765173
 10
36.96626541444522
 20
18.665682688495927
 10
37.218492183967925
 20
18.848312524202647
 10
37.4719086850475
 20
19.029287873724904
 10
37.72650406522736
 20
19.208600986868362
 10
37.98226742156585
 20
19.386244184623273
 10
38.239187801103284
 20
19.562209859493336
 10
38.49725420133086
 20
19.73649047582144
 10
38.75645557066197
 20
19.90907857011245
 10
39.01678080890541
 20
20.07996675135275
 10
39.27821876774076
 20
20.249147701326812
 10
39.5407582511958
 20
20.416614174930594
 10
39.804388016125955
 20
20.582359000481766
 10
40.069096772695865
 20
20.746375080026887
 10
40.33487318486269
 20
20.90865538964531
 10
40.601705870861764
 20
21.069192979750056
 10
38.49954123109513
 20
24.5892645454025
 10
38.20971815756025
 20
24.41489498641151
 10
37.92104236674081
 20
24.238632554649442
 10
37.633526221057856
 20
24.060484798481852
 10
37.3471820332712
 20
23.880459347012582
 10
37.062022065951986
 20
23.698563909756956
 10
36.7780585309576
 20
23.514806276311695
 10
36.49530358890874
 20
23.329194316021265
 10
36.213769348668585
 20
23.14173597764095
 10
35.93346786682429
 20
22.952439288996366
 10
35.65441114717059
 20
22.76131235663975
 10
35.376611140195905
 20
22.568363365502776
 10
35.10007974257036
 20
22.373600578545997
 10
34.824828796636424
 20
22.17703233640504
 10
34.55087008990178
 20
21.978667057033405
 10
34.27821535453445
 20
21.778513235341926
 10
34.006876266860516
 20
21.576579442835104
 10
33.736864446863926
 20
21.37287432724387
 10
33.46819145768893
 20
21.167406612155368
 10
33.20086880514495
 20
20.960185096639343
 10
32.93490793721376
 20
20.751218654871295
 10
32.670320243559296
 20
20.540516235752477
 10
32.40711705503984
 20
20.32808686252664
 10
32.145309643222895
 20
20.113939632393667
 10
31.884909219902333
 20
19.898083716119913
 10
31.625926936618335
 20
19.68052835764552
 10
31.368373884179846
 20
19.46128287368854
 10
31.11226109218957
 20
19.240356653345934
 10
30.85759952857169
 20
19.017759157691543
 10
30.604400099102094
 20
18.79349991937083
 10
30.352673646941405
 20
18.567588542192738
 10
30.102430952170593
 20
18.34003470071834
 10
29.853682731329336
 20
18.11084813984659
 10
29.6064396369571
 20
17.880038674396943
 10
29.360712257136882
 20
17.647616188689092
  0
LWPOLYLINE
  5
35
330
17
100
AcDbEntity
  8
CUT
100
AcDbPolyline
 90
75
 70
1
 10
59.59813114927463
 20
31.61694006349275
 10
59.261867095397655
 20
31.580489506211094
 10
58.9258487746839
 20
31.541839212543167
 10
59.40768443020234
 20
27.470250529845572
 10
59.717047897946266
 20
27.50583486600032
 10
60.0266376059242
 20
27.53939396116482
 10
60.33644029608523
 20
27.570926378184744
 10
60.64644270125754
 20
27.60043076669738
 10
60.95663154571665
 20
27.62790586318954
 10
61.266993545753834
 20
27.65335049105159
 10
61.577515410245105
 20
27.676763560627897
 10
61.88818384122033
 20
27.698144069263464
 10
62.19898553443273
 20
27.717491101346866
 10
62.50990717992859
 20
27.73480382834947
 10
62.82093546261734
 20
27.750081508860916
 10
63.132057062841696
 20
27.763323488620884
 10
63.443258656948075
 20
27.774529200547065
 10
63.754526917857206
 20
27.7836981647595
 10
64.06584851563483
 20
27.79082998860109
 10
64.37721011806258
 20
27.795924366654432
 10
64.68859839120887
 20
27.798981080754906
 10
65.0
 20
27.799999999999997
 10
65.31140160879112
 20
27.798981080754906
 10
65.62278988193741
 20
27.795924366654432
 10
65.93415148436515
 20
27.79082998860109
 10
66.2454730821428
 20
27.7836981647595
 10
66.55674134305193
 20
27.774529200547065
 10
66.86794293715829
 20
27.763323488620884
 10
67.17906453738266
 20
27.750081508860916
 10
67.4900928200714
 20
27.73480382834947
 10
67.80101446556726
 20
27.717491101346866
 10
68.11181615877966
 20
27.698144069263464
 10
68.42248458975489
 20
27.676763560627897
 10
68.73300645424615
 20
27.65335049105159
 10
69.04336845428335
 20
27.62790586318954
 10
69.35355729874246
 20
27.60043076669738
 10
69.66355970391476
 20
27.570926378184744
 10
69.97336239407579
 20
27.539393961164826
 10
70.28295210205373
 20
27.50583486600032
 10
70.59231556979765
 20
27.470250529845572
 10
71.0741512253161
 20
31.541839212543167
 10
70.73813290460234
 20
31.580489506211094
 10
70.40186885072536
 20
31.61694006349275
 10
70.06537346405392
 20
31.651189323408104
 10
69.72866115486346
 20
31.68323581924681
 10
69.39174634271906
 20
31.713078178630965
 10
69.05464345585789
 20
31.7407151235739
 10
68.71736693057136
 20
31.766145470534894
 10
68.37993121058685
 20
31.78936813046989
 10
68.04235074644922
 20
31.810382108878102
 10
67.70463999490192
 20
31.829186505844604
 10
67.36681341826792
 20
31.845780516078896
 10
67.0288854838303
 20
31.86016342894937
 10
66.6908706632128
 20
31.872334628513748
 10
66.35278343176002
 20
31.88229359354544
 10
66.01463826791748
 20
31.89003989755591
 10
65.6764496526117
 20
31.89557320881289
 10
65.33823206862992
 20
31.89889329035463
 10
65.0
 20
31.9
 10
64.66176793137006
 20
31.89889329035463
 10
64.3235503473883
 20
31.89557320881289
 10
63.98536173208252
 20
31.89003989755591
 10
63.647216568239976
 20
31.88229359354544
 10
63.309129336787194
 20
31.872334628513748
 10
62.9711145161697
 20
31.86016342894937
 10
62.633186581732076
 20
31.845780516078896
 10
62.29536000509806
 20
31.829186505844604
 10
61.95764925355077
 20
31.810382108878102
 10
61.62006878941314
 20
31.78936813046989
 10
61.28263306942864
 20
31.766145470534894
 10
60.945356544142115
 20
31.7407151235739
 10
60.60825365728094
 20
31.713078178630965
 10
60.271338845136526
 20
31.68323581924681
 10
59.93462653594607
 20
31.651189323408104
 10
59.59813114927463
 20
31.61694006349275
  0
ENDSEC
  0
SECTION
  2
OBJECTS
  0
DICTIONARY
  5
A
330
0
100
AcDbDictionary
281
1
  3
ACAD_COLOR
350
B
  3
ACAD_GROUP
350
C
  3
ACAD_LAYOUT
350
D
  3
ACAD_MATERIAL
350
E
  3
ACAD_MLEADERSTYLE
350
F
  3
ACAD_MLINESTYLE
350
10
  3
ACAD_PLOTSETTINGS
350
11
  3
ACAD_PLOTSTYLENAME
350
12
  3
ACAD_SCALELIST
350
14
  3
ACAD_TABLESTYLE
350
15
  3
ACAD_VISUALSTYLE
350
16
  3
EZDXF_META
350
2D
  0
DICTIONARY
  5
B
330
A
100
AcDbDictionary
281
1
  0
DICTIONARY
  5
C
330
A
100
AcDbDictionary
281
1
  0
DICTIONARY
  5
D
330
A
100
AcDbDictionary
281
1
  3
Model
350
1A
  3
Layout1
350
1E
  0
DICTIONARY
  5
E
330
A
100
AcDbDictionary
281
1
  3
ByBlock
350
1F
  3
ByLayer
350
20
  3
Global
350
21
  0
DICTIONARY
  5
F
330
A
100
AcDbDictionary
281
1
  3
Standard
350
2C
  0
DICTIONARY
  5
10
330
A
100
AcDbDictionary
281
1
  3
Standard
350
22
  0
DICTIONARY
  5
11
330
A
100
AcDbDictionary
281
1
  0
ACDBDICTIONARYWDFLT
  5
12
330
A
100
AcDbDictionary
281
1
  3
Normal
350
13
100
AcDbDictionaryWithDefault
340
13
  0
ACDBPLACEHOLDER
  5
13
330
12
  0
DICTIONARY
  5
14
330
A
100
AcDbDictionary
281
1
  0
DICTIONARY
  5
15
330
A
100
AcDbDictionary
281
1
  0
DICTIONARY
  5
16
330
A
100
AcDbDictionary
281
1
  0
LAYOUT
  5
1A
330
D
100
AcDbPlotSettings
  1

  4
A3
  6

 40
7.5
 41
20.0
 42
7.5
 43
20.0
 44
420.0
 45
297.0
 46
0.0
 47
0.0
 48
0.0
 49
0.0
140
0.0
141
0.0
142
1.0
143
1.0
 70
1024
 72
1
 73
0
 74
5
  7

 75
16
 76
0
 77
2
 78
300
147
1.0
148
0.0
149
0.0
100
AcDbLayout
  1
Model
 70
1
 71
0
 10
0.0
 20
0.0
 11
420.0
 21
297.0
 12
0.0
 22
0.0
 32
0.0
 14
1e+20
 24
1e+20
 34
1e+20
 15
-1e+20
 25
-1e+20
 35
-1e+20
146
0.0
 13
0.0
 23
0.0
 33
0.0
 16
1.0
 26
0.0
 36
0.0
 17
0.0
 27
1.0
 37
0.0
 76
1
330
17
  0
LAYOUT
  5
1E
330
D
100
AcDbPlotSettings
  1

  4
A3
  6

 40
7.5
 41
20.0
 42
7.5
 43
20.0
 44
420.0
 45
297.0
 46
0.0
 47
0.0
 48
0.0
 49
0.0
140
0.0
141
0.0
142
1.0
143
1.0
 70
0
 72
1
 73
0
 74
5
  7

 75
16
 76
0
 77
2
 78
300
147
1.0
148
0.0
149
0.0
100
AcDbLayout
  1
Layout1
 70
1
 71
1
 10
0.0
 20
0.0
 11
420.0
 21
297.0
 12
0.0
 22
0.0
 32
0.0
 14
1e+20
 24
1e+20
 34
1e+20
 15
-1e+20
 25
-1e+20
 35
-1e+20
146
0.0
 13
0.0
 23
0.0
 33
0.0
 16
1.0
 26
0.0
 36
0.0
 17
0.0
 27
1.0
 37
0.0
 76
1
330
1B
  0
MATERIAL
  5
1F
102
{ACAD_REACTORS
330
E
102
}
330
E
100
AcDbMaterial
  1
ByBlock
  2

 70
0
 40
1.0
 71
1
 41
1.0
 91
-1023410177
 42
1.0
 72
1
  3

 73
1
 74
1
 75
1
 44
0.5
 73
0
 45
1.0
 46
1.0
 77
1
  4

 78
1
 79
1
170
1
 48
1.0
171
1
  6

172
1
173
1
174
1
140
1.0
141
1.0
175
1
  7

176
1
177
1
178
1
143
1.0
179
1
  8

270
1
271
1
272
1
145
1.0
146
1.0
273
1
  9

274
1
275
1
276
1
 42
1.0
 72
1
  3

 73
1
 74
1
 75
1
 94
63
  0
MATERIAL
  5
20
102
{ACAD_REACTORS
330
E
102
}
330
E
100
AcDbMaterial
  1
ByLayer
  2

 70
0
 40
1.0
 71
1
 41
1.0
 91
-1023410177
 42
1.0
 72
1
  3

 73
1
 74
1
 75
1
 44
0.5
 73
0
 45
1.0
 46
1.0
 77
1
  4

 78
1
 79
1
170
1
 48
1.0
171
1
  6

172
1
173
1
174
1
140
1.0
141
1.0
175
1
  7

176
1
177
1
178
1
143
1.0
179
1
  8

270
1
271
1
272
1
145
1.0
146
1.0
273
1
  9

274
1
275
1
276
1
 42
1.0
 72
1
  3

 73
1
 74
1
 75
1
 94
63
  0
MATERIAL
  5
21
102
{ACAD_REACTORS
330
E
102
}
330
E
100
AcDbMaterial
  1
Global
  2

 70
0
 40
1.0
 71
1
 41
1.0
 91
-1023410177
 42
1.0
 72
1
  3

 73
1
 74
1
 75
1
 44
0.5
 73
0
 45
1.0
 46
1.0
 77
1
  4

 78
1
 79
1
170
1
 48
1.0
171
1
  6

172
1
173
1
174
1
140
1.0
141
1.0
175
1
  7

176
1
177
1
178
1
143
1.0
179
1
  8

270
1
271
1
272
1
145
1.0
146
1.0
273
1
  9

274
1
275
1
276
1
 42
1.0
 72
1
  3

 73
1
 74
1
 75
1
 94
63
  0
MLINESTYLE
  5
22
102
{ACAD_REACTORS
330
10
102
}
330
10
100
AcDbMlineStyle
  2
Standard
 70
0
  3

 62
256
 51
90.0
 52
90.0
 71
2
 49
0.5
 62
256
  6
BYLAYER
 49
-0.5
 62
256
  6
BYLAYER
  0
MLEADERSTYLE
  5
2C
102
{ACAD_REACTORS
330
F
102
}
330
F
100
AcDbMLeaderStyle
179
2
170
2
171
1
172
0
 90
2
 40
0.0
 41
0.0
173
1
 91
-1056964608
 92
-2
290
1
 42
2.0
291
1
 43
8.0
  3
Standard
 44
4.0
300

342
29
174
1
175
1
176
0
178
1
 93
-1056964608
 45
4.0
292
0
297
0
 46
4.0
 94
-1056964608
 47
1.0
 49
1.0
140
1.0
294
1
141
0.0
177
0
142
1.0
295
0
296
0
143
3.75
271
0
272
9
273
9
  0
DICTIONARY
  5
2D
330
A
100
AcDbDictionary
280
1
281
1
  3
CREATED_BY_EZDXF
350
2E
  3
WRITTEN_BY_EZDXF
350
38
  0
DICTIONARYVAR
  5
2E
330
2D
100
DictionaryVariables
280
0
  1
1.4.4 @ 2026-10-05T06:27:39.425527+00:00
  0
DICTIONARYVAR
  5
38
330
2D
100
DictionaryVariables
280
0
  1
1.4.4 @ 2026-10-05T06:27:39.429475+00:00
  0
ENDSEC
  0
EOF
