  0
SECTION
  2
HEADER
  9
$ACADVER
  1
AC1024
  9
$ACADMAINTVER
 70
6
  9
$DWGCODEPAGE
  3
ANSI_1252
  9
$LASTSAVEDBY
  1
ezdxf
  9
$INSBASE
 10
0.0
 20
0.0
 30
0.0
  9
$EXTMIN
 10
1e+20
 20
1e+20
 30
1e+20
  9
$EXTMAX
 10
-1e+20
 20
-1e+20
 30
-1e+20
  9
$LIMMIN
 10
0.0
 20
0.0
  9
$LIMMAX
 10
420.0
 20
297.0
  9
$ORTHOMODE
 70
0
  9
$REGENMODE
 70
1
  9
$FILLMODE
 70
1
  9
$QTEXTMODE
 70
0
  9
$MIRRTEXT
 70
1
  9
$LTSCALE
 40
1.0
  9
$ATTMODE
 70
1
  9
$TEXTSIZE
 40
2.5
  9
$TRACEWID
 40
1.0
  9
$TEXTSTYLE
  7
Standard
  9
$CLAYER
  8
0
  9
$CELTYPE
  6
ByLayer
  9
$CECOLOR
 62
256
  9
$CELTSCALE
 40
1.0
  9
$DISPSILH
 70
0
  9
$DIMSCALE
 40
1.0
  9
$DIMASZ
 40
2.5
  9
$DIMEXO
 40
0.625
  9
$DIMDLI
 40
3.75
  9
$DIMRND
 40
0.0
  9
$DIMDLE
 40
0.0
  9
$DIMEXE
 40
1.25
  9
$DIMTP
 40
0.0
  9
$DIMTM
 40
0.0
  9
$DIMTXT
 40
2.5
  9
$DIMCEN
 40
2.5
  9
$DIMTSZ
 40
0.0
  9
$DIMTOL
 70
0
  9
$DIMLIM
 70
0
  9
$DIMTIH
 70
0
  9
$DIMTOH
 70
0
  9
$DIMSE1
 70
0
  9
$DIMSE2
 70
0
  9
$DIMTAD
 70
1
  9
$DIMZIN
 70
8
  9
$DIMBLK
  1

  9
$DIMASO
 70
1
  9
$DIMSHO
 70
1
  9
$DIMPOST
  1

  9
$DIMAPOST
  1

  9
$DIMALT
 70
0
  9
$DIMALTD
 70
3
  9
$DIMALTF
 40
0.03937007874
  9
$DIMLFAC
 40
1.0
  9
$DIMTOFL
 70
1
  9
$DIMTVP
 40
0.0
  9
$DIMTIX
 70
0
  9
$DIMSOXD
 70
0
  9
$DIMSAH
 70
0
  9
$DIMBLK1
  1

  9
$DIMBLK2
  1

  9
$DIMSTYLE
  2
ISO-25
  9
$DIMCLRD
 70
0
  9
$DIMCLRE
 70
0
  9
$DIMCLRT
 70
0
  9
$DIMTFAC
 40
1.0
  9
$DIMGAP
 40
0.625
  9
$DIMJUST
 70
0
  9
$DIMSD1
 70
0
  9
$DIMSD2
 70
0
  9
$DIMTOLJ
 70
0
  9
$DIMTZIN
 70
8
  9
$DIMALTZ
 70
0
  9
$DIMALTTZ
 70
0
  9
$DIMUPT
 70
0
  9
$DIMDEC
 70
2
  9
$DIMTDEC
 70
2
  9
$DIMALTU
 70
2
  9
$DIMALTTD
 70
3
  9
$DIMTXSTY
  7
Standard
  9
$DIMAUNIT
 70
0
  9
$DIMADEC
 70
0
  9
$DIMALTRND
 40
0.0
  9
$DIMAZIN
 70
0
  9
$DIMDSEP
 70
44
  9
$DIMATFIT
 70
3
  9
$DIMFRAC
 70
0
  9
$DIMLDRBLK
  1

  9
$DIMLUNIT
 70
2
  9
$DIMLWD
 70
-2
  9
$DIMLWE
 70
-2
  9
$DIMTMOVE
 70
0
  9
$DIMFXL
 40
1.0
  9
$DIMFXLON
 70
0
  9
$DIMJOGANG
 40
0.785398163397
  9
$DIMTFILL
 70
0
  9
$DIMTFILLCLR
 70
0
  9
$DIMARCSYM
 70
0
  9
$DIMLTYPE
  6

  9
$DIMLTEX1
  6

  9
$DIMLTEX2
  6

  9
$DIMTXTDIRECTION
 70
0
  9
$LUNITS
 70
2
  9
$LUPREC
 70
4
  9
$SKETCHINC
 40
1.0
  9
$FILLETRAD
 40
10.0
  9
$AUNITS
 70
0
  9
$AUPREC
 70
2
  9
$MENU
  1
.
  9
$ELEVATION
 40
0.0
  9
$PELEVATION
 40
0.0
  9
$THICKNESS
 40
0.0
  9
$LIMCHECK
 70
0
  9
$CHAMFERA
 40
0.0
  9
$CHAMFERB
 40
0.0
  9
$CHAMFERC
 40
0.0
  9
$CHAMFERD
 40
0.0
  9
$SKPOLY
 70
0
  9
$TDCREATE
 40
2461319.269201389
  9
$TDUCREATE
 40
2458532.153996898
  9
$TDUPDATE
 40
2461319.269201389
  9
$TDUUPDATE
 40
2458532.1544311
  9
$TDINDWG
 40
0.0
  9
$TDUSRTIMER
 40
0.0
  9
$USRTIMER
 70
1
  9
$ANGBASE
 50
0.0
  9
$ANGDIR
 70
0
  9
$PDMODE
 70
0
  9
$PDSIZE
 40
0.0
  9
$PLINEWID
 40
0.0
  9
$SPLFRAME
 70
0
  9
$SPLINETYPE
 70
6
  9
$SPLINESEGS
 70
8
  9
$HANDSEED
  5
34
  9
$SURFTAB1
 70
6
  9
$SURFTAB2
 70
6
  9
$SURFTYPE
 70
6
  9
$SURFU
 70
6
  9
$SURFV
 70
6
  9
$UCSBASE
  2

  9
$UCSNAME
  2

  9
$UCSORG
 10
0.0
 20
0.0
 30
0.0
  9
$UCSXDIR
 10
1.0
 20
0.0
 30
0.0
  9
$UCSYDIR
 10
0.0
 20
1.0
 30
0.0
  9
$UCSORTHOREF
  2

  9
$UCSORTHOVIEW
 70
0
  9
$UCSORGTOP
 10
0.0
 20
0.0
 30
0.0
  9
$UCSORGBOTTOM
 10
0.0
 20
0.0
 30
0.0
  9
$UCSORGLEFT
 10
0.0
 20
0.0
 30
0.0
  9
$UCSORGRIGHT
 10
0.0
 20
0.0
 30
0.0
  9
$UCSORGFRONT
 10
0.0
 20
0.0
 30
0.0
  9
$UCSORGBACK
 10
0.0
 20
0.0
 30
0.0
  9
$PUCSBASE
  2

  9
$PUCSNAME
  2

  9
$PUCSORG
 10
0.0
 20
0.0
 30
0.0
  9
$PUCSXDIR
 10
1.0
 20
0.0
 30
0.0
  9
$PUCSYDIR
 10
0.0
 20
1.0
 30
0.0
  9
$PUCSORTHOREF
  2

  9
$PUCSORTHOVIEW
 70
0
  9
$PUCSORGTOP
 10
0.0
 20
0.0
 30
0.0
  9
$PUCSORGBOTTOM
 10
0.0
 20
0.0
 30
0.0
  9
$PUCSORGLEFT
 10
0.0
 20
0.0
 30
0.0
  9
$PUCSORGRIGHT
 10
0.0
 20
0.0
 30
0.0
  9
$PUCSORGFRONT
 10
0.0
 20
0.0
 30
0.0
  9
$PUCSORGBACK
 10
0.0
 20
0.0
 30
0.0
  9
$USERI1
 70
0
  9
$USERI2
 70
0
  9
$USERI3
 70
0
  9
$USERI4
 70
0
  9
$USERI5
 70
0
  9
$USERR1
 40
0.0
  9
$USERR2
 40
0.0
  9
$USERR3
 40
0.0
  9
$USERR4
 40
0.0
  9
$USERR5
 40
0.0
  9
$WORLDVIEW
 70
1
  9
$SHADEDGE
 70
3
  9
$SHADEDIF
 70
70
  9
$TILEMODE
 70
1
  9
$MAXACTVP
 70
64
  9
$PINSBASE
 10
0.0
 20
0.0
 30
0.0
  9
$PLIMCHECK
 70
0
  9
$PEXTMIN
 10
1e+20
 20
1e+20
 30
1e+20
  9
$PEXTMAX
 10
-1e+20
 20
-1e+20
 30
-1e+20
  9
$PLIMMIN
 10
0.0
 20
0.0
  9
$PLIMMAX
 10
420.0
 20
297.0
  9
$UNITMODE
 70
0
  9
$VISRETAIN
 70
1
  9
$PLINEGEN
 70
0
  9
$PSLTSCALE
 70
1
  9
$TREEDEPTH
 70
3020
  9
$CMLSTYLE
  2
Standard
  9
$CMLJUST
 70
0
  9
$CMLSCALE
 40
20.0
  9
$PROXYGRAPHICS
 70
1
  9
$MEASUREMENT
 70
1
  9
$CELWEIGHT
370
-1
  9
$ENDCAPS
280
0
  9
$JOINSTYLE
280
0
  9
$LWDISPLAY
290
0
  9
$INSUNITS
 70
4
  9
$HYPERLINKBASE
  1

  9
$STYLESHEET
  1

  9
$XEDIT
290
1
  9
$CEPSNTYPE
380
0
  9
$PSTYLEMODE
290
1
  9
$FINGERPRINTGUID
  2
{579F6656-1ACD-4414-8F9B-43292E6CE3D5}
  9
$VERSIONGUID
  2
{717F7136-B0B1-4EDF-8D1A-FBE8C6053411}
  9
$EXTNAMES
290
1
  9
$PSVPSCALE
 40
0.0
  9
$OLESTARTUP
290
0
  9
$SORTENTS
280
127
  9
$INDEXCTL
280
0
  9
$HIDETEXT
280
1
  9
$XCLIPFRAME
280
1
  9
$HALOGAP
280
0
  9
$OBSCOLOR
 70
257
  9
$OBSLTYPE
280
0
  9
$INTERSECTIONDISPLAY
280
0
  9
$INTERSECTIONCOLOR
 70
257
  9
$DIMASSOC
280
2
  9
$PROJECTNAME
  1

  9
$CAMERADISPLAY
290
0
  9
$LENSLENGTH
 40
50.0
  9
$CAMERAHEIGHT
 40
0.0
  9
$STEPSPERSEC
 40
24.0
  9
$STEPSIZE
 40
100.0
  9
$3DDWFPREC
 40
2.0
  9
$PSOLWIDTH
 40
0.005
  9
$PSOLHEIGHT
 40
0.08
  9
$LOFTANG1
 40
1.570796326795
  9
$LOFTANG2
 40
1.570796326795
  9
$LOFTMAG1
 40
0.0
  9
$LOFTMAG2
 40
0.0
  9
$LOFTPARAM
 70
7
  9
$LOFTNORMALS
280
1
  9
$LATITUDE
 40
37.795
  9
$LONGITUDE
 40
-122.394
  9
$NORTHDIRECTION
 40
0.0
  9
$TIMEZONE
 70
-8000
  9
$LIGHTGLYPHDISPLAY
280
1
  9
$TILEMODELIGHTSYNCH
280
1
  9
$CMATERIAL
347
20
  9
$SOLIDHIST
280
0
  9
$SHOWHIST
280
1
  9
$DWFFRAME
280
2
  9
$DGNFRAME
280
2
  9
$REALWORLDSCALE
290
1
  9
$INTERFERECOLOR
 62
256
  9
$CSHADOW
280
0
  9
$SHADOWPLANELOCATION
 40
0.0
  0
ENDSEC
  0
SECTION
  2
CLASSES
  0
CLASS
  1
ACDBDICTIONARYWDFLT
  2
AcDbDictionaryWithDefault
  3
ObjectDBX Classes
 90
0
 91
0
280
0
281
0
  0
CLASS
  1
SUN
  2
AcDbSun
  3
SCENEOE
 90
1153
 91
0
280
0
281
0
  0
CLASS
  1
VISUALSTYLE
  2
AcDbVisualStyle
  3
ObjectDBX Classes
 90
4095
 91
0
280
0
281
0
  0
CLASS
  1
MATERIAL
  2
AcDbMaterial
  3
ObjectDBX Classes
 90
1153
 91
0
280
0
281
0
  0
CLASS
  1
SCALE
  2
AcDbScale
  3
ObjectDBX Classes
 90
1153
 91
0
280
0
281
0
  0
CLASS
  1
TABLESTYLE
  2
AcDbTableStyle
  3
ObjectDBX Classes
 90
4095
 91
0
280
0
281
0
  0
CLASS
  1
MLEADERSTYLE
  2
AcDbMLeaderStyle
  3
ACDB_MLEADERSTYLE_CLASS
 90
4095
 91
0
280
0
281
0
  0
CLASS
  1
DICTIONARYVAR
  2
AcDbDictionaryVar
  3
ObjectDBX Classes
 90
0
 91
0
280
0
281
0
  0
CLASS
  1
CELLSTYLEMAP
  2
AcDbCellStyleMap
  3
ObjectDBX Classes
 90
1152
 91
0
280
0
281
0
  0
CLASS
  1
MENTALRAYRENDERSETTINGS
  2
AcDbMentalRayRenderSettings
  3
SCENEOE
 90
1024
 91
0
280
0
281
0
  0
CLASS
  1
ACDBDETAILVIEWSTYLE
  2
AcDbDetailViewStyle
  3
ObjectDBX Classes
 90
1025
 91
0
280
0
281
0
  0
CLASS
  1
ACDBSECTIONVIEWSTYLE
  2
AcDbSectionViewStyle
  3
ObjectDBX Classes
 90
1025
 91
0
280
0
281
0
  0
CLASS
  1
RASTERVARIABLES
  2
AcDbRasterVariables
  3
ISM
 90
0
 91
0
280
0
281
0
  0
CLASS
  1
ACDBPLACEHOLDER
  2
AcDbPlaceHolder
  3
ObjectDBX Classes
 90
0
 91
0
280
0
281
0
  0
CLASS
  1
LAYOUT
  2
AcDbLayout
  3
ObjectDBX Classes
 90
0
 91
0
280
0
281
0
  0
ENDSEC
  0
SECTION
  2
TABLES
  0
TABLE
  2
VPORT
  5
8
330
0
100
AcDbSymbolTable
 70
1
  0
VPORT
  5
23
330
8
100
AcDbSymbolTableRecord
100
AcDbViewportTableRecord
  2
*Active
 70
0
 10
0.0
 20
0.0
 11
1.0
 21
1.0
 12
0.0
 22
0.0
 13
0.0
 23
0.0
 14
0.5
 24
0.5
 15
0.5
 25
0.5
 16
0.0
 26
0.0
 36
1.0
 17
0.0
 27
0.0
 37
0.0
 40
1000.0
 41
1.34
 42
50.0
 43
0.0
 44
0.0
 50
0.0
 51
0.0
 71
0
 72
1000
 73
1
 74
3
 75
0
 76
0
 77
0
 78
0
281
0
 65
0
146
0.0
  0
ENDTAB
  0
TABLE
  2
LTYPE
  5
2
330
0
100
AcDbSymbolTable
 70
3
  0
LTYPE
  5
24
330
2
100
AcDbSymbolTableRecord
100
AcDbLinetypeTableRecord
  2
ByBlock
 70
0
  3

 72
65
 73
0
 40
0.0
  0
LTYPE
  5
25
330
2
100
AcDbSymbolTableRecord
100
AcDbLinetypeTableRecord
  2
ByLayer
 70
0
  3

 72
65
 73
0
 40
0.0
  0
LTYPE
  5
26
330
2
100
AcDbSymbolTableRecord
100
AcDbLinetypeTableRecord
  2
Continuous
 70
0
  3

 72
65
 73
0
 40
0.0
  0
ENDTAB
  0
TABLE
  2
LAYER
  5
1
330
0
100
AcDbSymbolTable
 70
3
  0
LAYER
  5
27
330
1
100
AcDbSymbolTableRecord
100
AcDbLayerTableRecord
  2
0
 70
0
 62
7
  6
Continuous
370
-3
390
13
347
21
  0
LAYER
  5
28
330
1
100
AcDbSymbolTableRecord
100
AcDbLayerTableRecord
  2
Defpoints
 70
0
 62
7
  6
Continuous
290
0
370
-3
390
13
347
21
  0
LAYER
  5
2F
330
1
100
AcDbSymbolTableRecord
100
AcDbLayerTableRecord
  2
CUT
 70
0
 62
7
  6
Continuous
370
-3
390
13
347
21
  0
ENDTAB
  0
TABLE
  2
STYLE
  5
5
330
0
100
AcDbSymbolTable
 70
1
  0
STYLE
  5
29
330
5
100
AcDbSymbolTableRecord
100
AcDbTextStyleTableRecord
  2
Standard
 70
0
 40
0.0
 41
1.0
 50
0.0
 71
0
 42
2.5
  3
txt
  4

  0
ENDTAB
  0
TABLE
  2
VIEW
  5
7
330
0
100
AcDbSymbolTable
 70
0
  0
ENDTAB
  0
TABLE
  2
UCS
  5
6
330
0
100
AcDbSymbolTable
 70
0
  0
ENDTAB
  0
TABLE
  2
APPID
  5
3
330
0
100
AcDbSymbolTable
 70
3
  0
APPID
  5
2A
330
3
100
AcDbSymbolTableRecord
100
AcDbRegAppTableRecord
  2
ACAD
 70
0
  0
APPID
  5
31
330
3
100
AcDbSymbolTableRecord
100
AcDbRegAppTableRecord
  2
HATCHBACKGROUNDCOLOR
 70
0
  0
APPID
  5
32
330
3
100
AcDbSymbolTableRecord
100
AcDbRegAppTableRecord
  2
EZDXF
 70
0
  0
ENDTAB
  0
TABLE
  2
DIMSTYLE
  5
4
330
0
100
AcDbSymbolTable
 70
1
100
AcDbDimStyleTable
  0
DIMSTYLE
105
2B
330
4
100
AcDbSymbolTableRecord
100
AcDbDimStyleTableRecord
  2
Standard
 70
0
 40
1.0
 41
2.5
 42
0.625
 43
3.75
 44
1.25
 45
0.0
 46
0.0
 47
0.0
 48
0.0
 49
2.5
140
2.5
141
2.5
142
0.0
143
0.03937007874
144
1.0
145
0.0
146
1.0
147
0.625
148
0.0
 69
0
 70
0
 71
0
 72
0
 73
0
 74
0
 75
0
 76
0
 77
1
 78
8
 79
3
170
0
171
3
172
1
173
0
174
0
175
0
176
0
177
0
178
0
179
2
271
2
272
2
273
2
274
3
275
0
276
0
277
2
278
44
279
0
280
0
281
0
282
0
283
0
284
8
285
0
286
0
288
0
289
3
290
0
371
-2
372
-2
  0
ENDTAB
  0
TABLE
  2
BLOCK_RECORD
  5
9
330
0
100
AcDbSymbolTable
 70
2
  0
BLOCK_RECORD
  5
17
330
9
100
AcDbSymbolTableRecord
100
AcDbBlockTableRecord
  2
*Model_Space
340
1A
 70
0
280
1
281
0
  0
BLOCK_RECORD
  5
1B
330
9
100
AcDbSymbolTableRecord
100
AcDbBlockTableRecord
  2
*Paper_Space
340
1E
 70
0
280
1
281
0
  0
ENDTAB
  0
ENDSEC
  0
SECTION
  2
BLOCKS
  0
BLOCK
  5
18
330
17
100
AcDbEntity
  8
0
100
AcDbBlockBegin
  2
*Model_Space
 70
0
 10
0.0
 20
0.0
 30
0.0
  3
*Model_Space
  1

  0
ENDBLK
  5
19
330
17
100
AcDbEntity
  8
0
100
AcDbBlockEnd
  0
BLOCK
  5
1C
330
1B
100
AcDbEntity
  8
0
100
AcDbBlockBegin
  2
*Paper_Space
 70
0
 10
0.0
 20
0.0
 30
0.0
  3
*Paper_Space
  1

  0
ENDBLK
  5
1D
330
1B
100
AcDbEntity
  8
0
100
AcDbBlockEnd
  0
ENDSEC
  0
SECTION
  2
ENTITIES
  0
LWPOLYLINE
  5
30
330
17
100
AcDbEntity
  8
CUT
100
AcDbPolyline
 90
250
 70
1
 10
0.2186698429776044
 20
0.41821128712088296
 10
0.4411417741415491
 20
0.8344124653355998
 10
0.6673973174471826
 20
1.248568969602566
 10
0.8974176826250684
 20
1.660646404687995
 10
1.1311837667415219
 20
2.070610548022497
 10
1.3686761557851597
 20
2.478427352543232
 10
1.6098751262790785
 20
2.8840629495213967
 10
1.8547606469189475
 20
3.2874836513750267
 10
2.1033123802366305
 20
3.6886559544667676
 10
2.355509684289082
 20
4.087546541886212
 10
2.6113316143726877
 20
4.484122286216898
 10
2.870756924762752
 20
4.878350252287515
 10
3.133764070477824
 20
5.270197699907076
 10
3.4003312090690727
 20
5.659632086583969
 10
3.670436202434253
 20
6.046621070228667
 10
3.9440566186562194
 20
6.4311325118395395
 10
4.221169733865899
 20
6.813134478172074
 10
4.5017525341295155
 20
7.192595244390912
 10
4.7857817173597965
 20
7.569483296704458
 10
5.0732336952512185
 20
7.943767334982134
 10
5.364084595239042
 20
8.315416275353861
 10
5.6583102624818125
 20
8.684399252791437
 10
5.955886261867455
 20
9.050685623671896
 10
6.256787880042566
 20
9.414244968322471
 10
6.560990127464805
 20
9.775047093546831
 10
6.86846774047828
 20
10.133062035132603
 10
7.179195183411693
 20
10.48826006033999
 10
7.493146650698947
 20
10.84061167037084
 10
7.810296069022357
 20
11.190087602818636
 10
8.13061709947803
 20
11.536658834098702
 10
8.454083139763178
 20
11.88029658185846
 10
8.780667326385483
 20
12.220972307367894
 10
9.110342536894123
 20
12.558657717889645
 10
9.443081392132122
 20
12.89332476902863
 10
9.778856258510274
 20
13.224945667061107
 10
10.117639250302084
 20
13.553492871243016
 10
10.459402231959565
 20
13.87893909609705
 10
10.804116820449913
 20
14.20125731367878
 10
11.15175438761272
 20
14.520420755821341
 10
11.502286062537436
 20
14.836402916358338
 10
11.855682733961096
 20
15.149177553325295
 10
12.211915052686052
 20
15.45871869113899
 10
12.570953434017241
 20
15.765000622754677
 10
12.932768060219274
 20
16.067997911800994
 10
13.297328882992772
 20
16.36768539469253
 10
13.664605625969763
 20
16.664038182719516
 10
14.034567787228141
 20
16.957031664114872
 10
14.40718464182487
 20
17.24664150609818
 10
14.78242524434755
 20
17.532843656896482
 10
15.160258431484458
 20
17.81561434774173
 10
15.540652824612692
 20
18.094930094844834
 10
15.923576832403977
 20
18.370767701345855
 10
16.308998653448405
 20
18.643104259240552
 10
16.696886278895505
 20
18.911917151282893
 10
17.08720749511247
 20
19.177184052863296
 10
17.479929886359507
 20
19.438882933862708
 10
17.87502083748198
 20
19.696992060482245
 10
18.272447536618944
 20
19.951489997048043
 10
18.67217697792821
 20
20.20235560779156
 10
19.074175964327484
 20
20.449568058604854
 10
19.47841111025123
 20
20.693106818770794
 10
19.88484884442338
 20
20.932951662668145
 10
20.293455412645436
 20
21.1690826714513
 10
20.70419688059959
 20
21.401480234704493
 10
21.117039136667014
 20
21.630125052070404
 10
21.531947894760847
 20
21.854998134853105
 10
21.94888869717347
 20
22.07608080759494
 10
22.367826917438272
 20
22.2933547096276
 10
22.788727763205387
 20
22.506801796596903
 10
23.211556279131017
 20
22.716404341961372
 10
23.636277349780595
 20
22.92214493846442
 10
24.06285570254495
 20
23.12400649957997
 10
24.491255910569727
 20
23.32197226093149
 10
24.921442395697525
 20
23.51602578168424
 10
25.353379431422642
 20
23.706150945910707
 10
25.787031145858126
 20
23.89233196392899
 10
26.222361524714835
 20
24.074553373614073
 10
26.65933441429246
 20
24.252800041682022
 10
27.097913524482014
 20
24.427057164946717
 10
27.53806243177968
 20
24.59731027154927
 10
27.97974458231176
 20
24.763545222159877
 10
28.4229232948704
 20
24.925748211152133
 10
28.86756176395995
 20
25.083905767749457
 10
29.31362306285366
 20
25.238004757143976
 10
29.761070146660312
 20
25.388032381587216
 10
30.209865855400786
 20
25.533976181453028
 10
30.659972917094244
 20
25.67582403627233
 10
31.111353950853395
 20
25.813564165739663
 10
31.563971469989
 20
25.947185130691565
 10
32.01778788512311
 20
26.076675834056573
 10
32.47276550731082
 20
26.20202552177684
 10
32.928866551170245
 20
26.323223783701202
 10
33.38605313802063
 20
26.44026055444978
 10
33.84428729902804
 20
26.55312611424985
 10
34.30353097835871
 20
26.66181108974311
 10
34.763746036339526
 20
26.766306454764106
 10
35.22489425262543
 20
26.866603531089794
 10
35.68693732937363
 20
26.962693989160364
 10
36.149836894424155
 20
27.05456984877089
 10
36.61355450448669
 20
27.14222347973417
 10
37.078051648333144
 20
27.22564760251432
 10
37.543289749996035
 20
27.304835288831406
 10
38.009230171972185
 20
27.379779962236775
 10
38.47583421843147
 20
27.450475398659258
 10
38.94306313843053
 20
27.51691572692205
 10
39.41087812913093
 20
27.579095429230314
 10
39.87924033902169
 20
27.63700934162943
 10
40.348110871146
 20
27.69065265443384
 10
40.817450786331335
 20
27.740020912626505
 10
41.287221106423466
 20
27.785110016228884
 10
41.75738281752359
 20
27.82591622064143
 10
42.22789687322823
 20
27.862436136954592
 10
42.69872419787213
 20
27.894666732230206
 10
43.16982568977338
 20
27.92260532975346
 10
43.641162224480794
 20
27.946249609255098
 10
44.112694658023166
 20
27.965597607104222
 10
44.58438383016006
 20
27.980647716471267
 10
45.05619056763411
 20
27.99139868746152
 10
45.528075687424305
 20
27.997849627218862
 10
46.0
 20
28.0
 10
46.4719243125757
 20
27.997849627218862
 10
46.943809432365896
 20
27.99139868746152
 10
47.41561616983995
 20
27.980647716471267
 10
47.88730534197684
 20
27.965597607104222
 10
48.3588377755192
 20
27.946249609255098
 10
48.830174310226624
 20
27.92260532975346
 10
49.301275802127876
 20
27.894666732230206
 10
49.772103126771775
 20
27.862436136954592
 10
50.242617182476415
 20
27.82591622064143
 10
50.71277889357654
 20
27.785110016228884
 10
51.182549213668686
 20
27.7400209126265
 10
51.65188912885402
 20
27.690652654433833
 10
52.1207596609783
 20
27.63700934162943
 10
52.58912187086908
 20
27.579095429230314
 10
53.056936861569476
 20
27.51691572692205
 10
53.52416578156853
 20
27.450475398659258
 10
53.99076982802782
 20
27.379779962236775
 10
54.45671025000397
 20
27.304835288831406
 10
54.92194835166687
 20
27.225647602514314
 10
55.386445495513314
 20
27.14222347973417
 10
55.850163105575845
 20
27.05456984877089
 10
56.31306267062638
 20
26.962693989160357
 10
56.77510574737458
 20
26.866603531089794
 10
57.23625396366048
 20
26.7663064547641
 10
57.696469021641285
 20
26.66181108974311
 10
58.155712700971975
 20
26.55312611424985
 10
58.61394686197938
 20
26.44026055444978
 10
59.07113344882976
 20
26.323223783701202
 10
59.527234492689175
 20
26.20202552177684
 10
59.98221211487689
 20
26.076675834056573
 10
60.43602853001101
 20
25.947185130691558
 10
60.88864604914662
 20
25.813564165739656
 10
61.34002708290576
 20
25.675824036272324
 10
61.79013414459922
 20
25.533976181453028
 10
62.238929853339705
 20
25.388032381587216
 10
62.686376937146335
 20
25.238004757143976
 10
63.132438236040045
 20
25.083905767749464
 10
63.5770767051296
 20
24.925748211152126
 10
64.02025541768825
 20
24.763545222159877
 10
64.46193756822032
 20
24.59731027154927
 10
64.90208647551799
 20
24.427057164946717
 10
65.34066558570754
 20
24.252800041682022
 10
65.77763847528519
 20
24.074553373614073
 10
66.21296885414189
 20
23.89233196392898
 10
66.64662056857736
 20
23.706150945910707
 10
67.07855760430249
 20
23.51602578168424
 10
67.50874408943028
 20
23.32197226093148
 10
67.93714429745505
 20
23.12400649957997
 10
68.3637226502194
 20
22.922144938464427
 10
68.78844372086898
 20
22.71640434196138
 10
69.21127223679463
 20
22.506801796596903
 10
69.63217308256172
 20
22.2933547096276
 10
70.05111130282654
 20
22.07608080759494
 10
70.46805210523917
 20
21.854998134853098
 10
70.88296086333298
 20
21.63012505207041
 10
71.29580311940043
 20
21.401480234704486
 10
71.70654458735457
 20
21.1690826714513
 10
72.11515115557663
 20
20.93295166266814
 10
72.52158888974878
 20
20.69310681877078
 10
72.92582403567253
 20
20.449568058604846
 10
73.32782302207178
 20
20.202355607791567
 10
73.72755246338106
 20
19.951489997048043
 10
74.12497916251803
 20
19.696992060482238
 10
74.52007011364049
 20
19.438882933862715
 10
74.91279250488755
 20
19.177184052863282
 10
75.3031137211045
 20
18.911917151282893
 10
75.6910013465516
 20
18.643104259240552
 10
76.07642316759602
 20
18.370767701345848
 10
76.45934717538731
 20
18.094930094844827
 10
76.83974156851554
 20
17.81561434774173
 10
77.21757475565246
 20
17.532843656896468
 10
77.59281535817513
 20
17.24664150609818
 10
77.96543221277184
 20
16.957031664114872
 10
78.33539437403024
 20
16.66403818271951
 10
78.70267111700723
 20
16.36768539469253
 10
79.06723193978073
 20
16.067997911800987
 10
79.42904656598276
 20
15.765000622754677
 10
79.78808494731396
 20
15.45871869113899
 10
80.1443172660389
 20
15.149177553325295
 10
80.49771393746258
 20
14.836402916358324
 10
80.84824561238727
 20
14.520420755821334
 10
81.1958831795501
 20
14.20125731367878
 10
81.54059776804044
 20
13.878939096097035
 10
81.88236074969791
 20
13.553492871243016
 10
82.22114374148973
 20
13.224945667061114
 10
82.55691860786789
 20
12.893324769028624
 10
82.88965746310589
 20
12.558657717889645
 10
83.2193326736145
 20
12.220972307367894
 10
83.54591686023684
 20
11.880296581858445
 10
83.86938290052197
 20
11.536658834098695
 10
84.18970393097766
 20
11.190087602818636
 10
84.50685334930107
 20
10.840611670370834
 10
84.82080481658832
 20
10.488260060339982
 10
85.13153225952172
 20
10.13306203513261
 10
85.43900987253521
 20
9.77504709354681
 10
85.74321211995743
 20
9.414244968322464
 10
86.04411373813255
 20
9.050685623671903
 10
86.3416897375182
 20
8.684399252791422
 10
86.63591540476096
 20
8.315416275353861
 10
86.92676630474878
 20
7.943767334982148
 10
87.21421828264022
 20
7.569483296704451
 10
87.49824746587049
 20
7.192595244390908
 10
87.77883026613411
 20
6.813134478172067
 10
88.05594338134378
 20
6.4311325118395395
 10
88.32956379756575
 20
6.04662107022866
 10
88.59966879093093
 20
5.659632086583969
 10
88.86623592952219
 20
5.270197699907051
 10
89.12924307523724
 20
4.8783502522875075
 10
89.38866838562731
 20
4.484122286216909
 10
89.64449031571093
 20
4.0875465418862085
 10
89.89668761976337
 20
3.6886559544667605
 10
90.14523935308105
 20
3.2874836513750196
 10
90.39012487372094
 20
2.8840629495213896
 10
90.63132384421485
 20
2.4784273525432283
 10
90.86881623325849
 20
2.0706105480224934
 10
91.10258231737494
 20
1.6606464046879914
 10
91.33260268255282
 20
1.2485689696025588
 10
91.55885822585844
 20
0.8344124653355962
 10
91.78133015702241
 20
0.4182112871208581
 10
92.0
 20
0.0
 10
84.0
 20
0.0
 10
84.0
 20
10.0
 10
78.0
 20
10.0
 10
78.0
 20
0.0
 10
14.0
 20
0.0
 10
14.0
 20
10.0
 10
8.0
 20
10.0
 10
8.0
 20
0.0
 10
0.0
 20
0.0
 10
0.2186698429776044
 20
0.41821128712088296
  0
ENDSEC
  0
SECTION
  2
OBJECTS
  0
DICTIONARY
  5
A
330
0
100
AcDbDictionary
281
1
  3
ACAD_COLOR
350
B
  3
ACAD_GROUP
350
C
  3
ACAD_LAYOUT
350
D
  3
ACAD_MATERIAL
350
E
  3
ACAD_MLEADERSTYLE
350
F
  3
ACAD_MLINESTYLE
350
10
  3
ACAD_PLOTSETTINGS
350
11
  3
ACAD_PLOTSTYLENAME
350
12
  3
ACAD_SCALELIST
350
14
  3
ACAD_TABLESTYLE
350
15
  3
ACAD_VISUALSTYLE
350
16
  3
EZDXF_META
350
2D
  0
DICTIONARY
  5
B
330
A
100
AcDbDictionary
281
1
  0
DICTIONARY
  5
C
330
A
100
AcDbDictionary
281
1
  0
DICTIONARY
  5
D
330
A
100
AcDbDictionary
281
1
  3
Model
350
1A
  3
Layout1
350
1E
  0
DICTIONARY
  5
E
330
A
100
AcDbDictionary
281
1
  3
ByBlock
350
1F
  3
ByLayer
350
20
  3
Global
350
21
  0
DICTIONARY
  5
F
330
A
100
AcDbDictionary
281
1
  3
Standard
350
2C
  0
DICTIONARY
  5
10
330
A
100
AcDbDictionary
281
1
  3
Standard
350
22
  0
DICTIONARY
  5
11
330
A
100
AcDbDictionary
281
1
  0
ACDBDICTIONARYWDFLT
  5
12
330
A
100
AcDbDictionary
281
1
  3
Normal
350
13
100
AcDbDictionaryWithDefault
340
13
  0
ACDBPLACEHOLDER
  5
13
330
12
  0
DICTIONARY
  5
14
330
A
100
AcDbDictionary
281
1
  0
DICTIONARY
  5
15
330
A
100
AcDbDictionary
281
1
  0
DICTIONARY
  5
16
330
A
100
AcDbDictionary
281
1
  0
LAYOUT
  5
1A
330
D
100
AcDbPlotSettings
  1

  4
A3
  6

 40
7.5
 41
20.0
 42
7.5
 43
20.0
 44
420.0
 45
297.0
 46
0.0
 47
0.0
 48
0.0
 49
0.0
140
0.0
141
0.0
142
1.0
143
1.0
 70
1024
 72
1
 73
0
 74
5
  7

 75
16
 76
0
 77
2
 78
300
147
1.0
148
0.0
149
0.0
100
AcDbLayout
  1
Model
 70
1
 71
0
 10
0.0
 20
0.0
 11
420.0
 21
297.0
 12
0.0
 22
0.0
 32
0.0
 14
1e+20
 24
1e+20
 34
1e+20
 15
-1e+20
 25
-1e+20
 35
-1e+20
146
0.0
 13
0.0
 23
0.0
 33
0.0
 16
1.0
 26
0.0
 36
0.0
 17
0.0
 27
1.0
 37
0.0
 76
1
330
17
  0
LAYOUT
  5
1E
330
D
100
AcDbPlotSettings
  1

  4
A3
  6

 40
7.5
 41
20.0
 42
7.5
 43
20.0
 44
420.0
 45
297.0
 46
0.0
 47
0.0
 48
0.0
 49
0.0
140
0.0
141
0.0
142
1.0
143
1.0
 70
0
 72
1
 73
0
 74
5
  7

 75
16
 76
0
 77
2
 78
300
147
1.0
148
0.0
149
0.0
100
AcDbLayout
  1
Layout1
 70
1
 71
1
 10
0.0
 20
0.0
 11
420.0
 21
297.0
 12
0.0
 22
0.0
 32
0.0
 14
1e+20
 24
1e+20
 34
1e+20
 15
-1e+20
 25
-1e+20
 35
-1e+20
146
0.0
 13
0.0
 23
0.0
 33
0.0
 16
1.0
 26
0.0
 36
0.0
 17
0.0
 27
1.0
 37
0.0
 76
1
330
1B
  0
MATERIAL
  5
1F
102
{ACAD_REACTORS
330
E
102
}
330
E
100
AcDbMaterial
  1
ByBlock
  2

 70
0
 40
1.0
 71
1
 41
1.0
 91
-1023410177
 42
1.0
 72
1
  3

 73
1
 74
1
 75
1
 44
0.5
 73
0
 45
1.0
 46
1.0
 77
1
  4

 78
1
 79
1
170
1
 48
1.0
171
1
  6

172
1
173
1
174
1
140
1.0
141
1.0
175
1
  7

176
1
177
1
178
1
143
1.0
179
1
  8

270
1
271
1
272
1
145
1.0
146
1.0
273
1
  9

274
1
275
1
276
1
 42
1.0
 72
1
  3

 73
1
 74
1
 75
1
 94
63
  0
MATERIAL
  5
20
102
{ACAD_REACTORS
330
E
102
}
330
E
100
AcDbMaterial
  1
ByLayer
  2

 70
0
 40
1.0
 71
1
 41
1.0
 91
-1023410177
 42
1.0
 72
1
  3

 73
1
 74
1
 75
1
 44
0.5
 73
0
 45
1.0
 46
1.0
 77
1
  4

 78
1
 79
1
170
1
 48
1.0
171
1
  6

172
1
173
1
174
1
140
1.0
141
1.0
175
1
  7

176
1
177
1
178
1
143
1.0
179
1
  8

270
1
271
1
272
1
145
1.0
146
1.0
273
1
  9

274
1
275
1
276
1
 42
1.0
 72
1
  3

 73
1
 74
1
 75
1
 94
63
  0
MATERIAL
  5
21
102
{ACAD_REACTORS
330
E
102
}
330
E
100
AcDbMaterial
  1
Global
  2

 70
0
 40
1.0
 71
1
 41
1.0
 91
-1023410177
 42
1.0
 72
1
  3

 73
1
 74
1
 75
1
 44
0.5
 73
0
 45
1.0
 46
1.0
 77
1
  4

 78
1
 79
1
170
1
 48
1.0
171
1
  6

172
1
173
1
174
1
140
1.0
141
1.0
175
1
  7

176
1
177
1
178
1
143
1.0
179
1
  8

270
1
271
1
272
1
145
1.0
146
1.0
273
1
  9

274
1
275
1
276
1
 42
1.0
 72
1
  3

 73
1
 74
1
 75
1
 94
63
  0
MLINESTYLE
  5
22
102
{ACAD_REACTORS
330
10
102
}
330
10
100
AcDbMlineStyle
  2
Standard
 70
0
  3

 62
256
 51
90.0
 52
90.0
 71
2
 49
0.5
 62
256
  6
BYLAYER
 49
-0.5
 62
256
  6
BYLAYER
  0
MLEADERSTYLE
  5
2C
102
{ACAD_REACTORS
330
F
102
}
330
F
100
AcDbMLeaderStyle
179
2
170
2
171
1
172
0
 90
2
 40
0.0
 41
0.0
173
1
 91
-1056964608
 92
-2
290
1
 42
2.0
291
1
 43
8.0
  3
Standard
 44
4.0
300

342
29
174
1
175
1
176
0
178
1
 93
-1056964608
 45
4.0
292
0
297
0
 46
4.0
 94
-1056964608
 47
1.0
 49
1.0
140
1.0
294
1
141
0.0
177
0
142
1.0
295
0
296
0
143
3.75
271
0
272
9
273
9
  0
DICTIONARY
  5
2D
330
A
100
AcDbDictionary
280
1
281
1
  3
CREATED_BY_EZDXF
350
2E
  3
WRITTEN_BY_EZDXF
350
33
  0
DICTIONARYVAR
  5
2E
330
2D
100
DictionaryVariables
280
0
  1
1.4.4 @ 2026-10-05T06:27:39.435389+00:00
  0
DICTIONARYVAR
  5
33
330
2D
100
DictionaryVariables
280
0
  1
1.4.4 @ 2026-10-05T06:27:39.436845+00:00
  0
ENDSEC
  0
EOF
