  0
SECTION
  2
HEADER
  9
$ACADVER
  1
AC1024
  9
$ACADMAINTVER
 70
6
  9
$DWGCODEPAGE
  3
ANSI_1252
  9
$LASTSAVEDBY
  1
ezdxf
  9
$INSBASE
 10
0.0
 20
0.0
 30
0.0
  9
$EXTMIN
 10
1e+20
 20
1e+20
 30
1e+20
  9
$EXTMAX
 10
-1e+20
 20
-1e+20
 30
-1e+20
  9
$LIMMIN
 10
0.0
 20
0.0
  9
$LIMMAX
 10
420.0
 20
297.0
  9
$ORTHOMODE
 70
0
  9
$REGENMODE
 70
1
  9
$FILLMODE
 70
1
  9
$QTEXTMODE
 70
0
  9
$MIRRTEXT
 70
1
  9
$LTSCALE
 40
1.0
  9
$ATTMODE
 70
1
  9
$TEXTSIZE
 40
2.5
  9
$TRACEWID
 40
1.0
  9
$TEXTSTYLE
  7
Standard
  9
$CLAYER
  8
0
  9
$CELTYPE
  6
ByLayer
  9
$CECOLOR
 62
256
  9
$CELTSCALE
 40
1.0
  9
$DISPSILH
 70
0
  9
$DIMSCALE
 40
1.0
  9
$DIMASZ
 40
2.5
  9
$DIMEXO
 40
0.625
  9
$DIMDLI
 40
3.75
  9
$DIMRND
 40
0.0
  9
$DIMDLE
 40
0.0
  9
$DIMEXE
 40
1.25
  9
$DIMTP
 40
0.0
  9
$DIMTM
 40
0.0
  9
$DIMTXT
 40
2.5
  9
$DIMCEN
 40
2.5
  9
$DIMTSZ
 40
0.0
  9
$DIMTOL
 70
0
  9
$DIMLIM
 70
0
  9
$DIMTIH
 70
0
  9
$DIMTOH
 70
0
  9
$DIMSE1
 70
0
  9
$DIMSE2
 70
0
  9
$DIMTAD
 70
1
  9
$DIMZIN
 70
8
  9
$DIMBLK
  1

  9
$DIMASO
 70
1
  9
$DIMSHO
 70
1
  9
$DIMPOST
  1

  9
$DIMAPOST
  1

  9
$DIMALT
 70
0
  9
$DIMALTD
 70
3
  9
$DIMALTF
 40
0.03937007874
  9
$DIMLFAC
 40
1.0
  9
$DIMTOFL
 70
1
  9
$DIMTVP
 40
0.0
  9
$DIMTIX
 70
0
  9
$DIMSOXD
 70
0
  9
$DIMSAH
 70
0
  9
$DIMBLK1
  1

  9
$DIMBLK2
  1

  9
$DIMSTYLE
  2
ISO-25
  9
$DIMCLRD
 70
0
  9
$DIMCLRE
 70
0
  9
$DIMCLRT
 70
0
  9
$DIMTFAC
 40
1.0
  9
$DIMGAP
 40
0.625
  9
$DIMJUST
 70
0
  9
$DIMSD1
 70
0
  9
$DIMSD2
 70
0
  9
$DIMTOLJ
 70
0
  9
$DIMTZIN
 70
8
  9
$DIMALTZ
 70
0
  9
$DIMALTTZ
 70
0
  9
$DIMUPT
 70
0
  9
$DIMDEC
 70
2
  9
$DIMTDEC
 70
2
  9
$DIMALTU
 70
2
  9
$DIMALTTD
 70
3
  9
$DIMTXSTY
  7
Standard
  9
$DIMAUNIT
 70
0
  9
$DIMADEC
 70
0
  9
$DIMALTRND
 40
0.0
  9
$DIMAZIN
 70
0
  9
$DIMDSEP
 70
44
  9
$DIMATFIT
 70
3
  9
$DIMFRAC
 70
0
  9
$DIMLDRBLK
  1

  9
$DIMLUNIT
 70
2
  9
$DIMLWD
 70
-2
  9
$DIMLWE
 70
-2
  9
$DIMTMOVE
 70
0
  9
$DIMFXL
 40
1.0
  9
$DIMFXLON
 70
0
  9
$DIMJOGANG
 40
0.785398163397
  9
$DIMTFILL
 70
0
  9
$DIMTFILLCLR
 70
0
  9
$DIMARCSYM
 70
0
  9
$DIMLTYPE
  6

  9
$DIMLTEX1
  6

  9
$DIMLTEX2
  6

  9
$DIMTXTDIRECTION
 70
0
  9
$LUNITS
 70
2
  9
$LUPREC
 70
4
  9
$SKETCHINC
 40
1.0
  9
$FILLETRAD
 40
10.0
  9
$AUNITS
 70
0
  9
$AUPREC
 70
2
  9
$MENU
  1
.
  9
$ELEVATION
 40
0.0
  9
$PELEVATION
 40
0.0
  9
$THICKNESS
 40
0.0
  9
$LIMCHECK
 70
0
  9
$CHAMFERA
 40
0.0
  9
$CHAMFERB
 40
0.0
  9
$CHAMFERC
 40
0.0
  9
$CHAMFERD
 40
0.0
  9
$SKPOLY
 70
0
  9
$TDCREATE
 40
2461319.269201389
  9
$TDUCREATE
 40
2458532.153996898
  9
$TDUPDATE
 40
2461319.269201389
  9
$TDUUPDATE
 40
2458532.1544311
  9
$TDINDWG
 40
0.0
  9
$TDUSRTIMER
 40
0.0
  9
$USRTIMER
 70
1
  9
$ANGBASE
 50
0.0
  9
$ANGDIR
 70
0
  9
$PDMODE
 70
0
  9
$PDSIZE
 40
0.0
  9
$PLINEWID
 40
0.0
  9
$SPLFRAME
 70
0
  9
$SPLINETYPE
 70
6
  9
$SPLINESEGS
 70
8
  9
$HANDSEED
  5
34
  9
$SURFTAB1
 70
6
  9
$SURFTAB2
 70
6
  9
$SURFTYPE
 70
6
  9
$SURFU
 70
6
  9
$SURFV
 70
6
  9
$UCSBASE
  2

  9
$UCSNAME
  2

  9
$UCSORG
 10
0.0
 20
0.0
 30
0.0
  9
$UCSXDIR
 10
1.0
 20
0.0
 30
0.0
  9
$UCSYDIR
 10
0.0
 20
1.0
 30
0.0
  9
$UCSORTHOREF
  2

  9
$UCSORTHOVIEW
 70
0
  9
$UCSORGTOP
 10
0.0
 20
0.0
 30
0.0
  9
$UCSORGBOTTOM
 10
0.0
 20
0.0
 30
0.0
  9
$UCSORGLEFT
 10
0.0
 20
0.0
 30
0.0
  9
$UCSORGRIGHT
 10
0.0
 20
0.0
 30
0.0
  9
$UCSORGFRONT
 10
0.0
 20
0.0
 30
0.0
  9
$UCSORGBACK
 10
0.0
 20
0.0
 30
0.0
  9
$PUCSBASE
  2

  9
$PUCSNAME
  2

  9
$PUCSORG
 10
0.0
 20
0.0
 30
0.0
  9
$PUCSXDIR
 10
1.0
 20
0.0
 30
0.0
  9
$PUCSYDIR
 10
0.0
 20
1.0
 30
0.0
  9
$PUCSORTHOREF
  2

  9
$PUCSORTHOVIEW
 70
0
  9
$PUCSORGTOP
 10
0.0
 20
0.0
 30
0.0
  9
$PUCSORGBOTTOM
 10
0.0
 20
0.0
 30
0.0
  9
$PUCSORGLEFT
 10
0.0
 20
0.0
 30
0.0
  9
$PUCSORGRIGHT
 10
0.0
 20
0.0
 30
0.0
  9
$PUCSORGFRONT
 10
0.0
 20
0.0
 30
0.0
  9
$PUCSORGBACK
 10
0.0
 20
0.0
 30
0.0
  9
$USERI1
 70
0
  9
$USERI2
 70
0
  9
$USERI3
 70
0
  9
$USERI4
 70
0
  9
$USERI5
 70
0
  9
$USERR1
 40
0.0
  9
$USERR2
 40
0.0
  9
$USERR3
 40
0.0
  9
$USERR4
 40
0.0
  9
$USERR5
 40
0.0
  9
$WORLDVIEW
 70
1
  9
$SHADEDGE
 70
3
  9
$SHADEDIF
 70
70
  9
$TILEMODE
 70
1
  9
$MAXACTVP
 70
64
  9
$PINSBASE
 10
0.0
 20
0.0
 30
0.0
  9
$PLIMCHECK
 70
0
  9
$PEXTMIN
 10
1e+20
 20
1e+20
 30
1e+20
  9
$PEXTMAX
 10
-1e+20
 20
-1e+20
 30
-1e+20
  9
$PLIMMIN
 10
0.0
 20
0.0
  9
$PLIMMAX
 10
420.0
 20
297.0
  9
$UNITMODE
 70
0
  9
$VISRETAIN
 70
1
  9
$PLINEGEN
 70
0
  9
$PSLTSCALE
 70
1
  9
$TREEDEPTH
 70
3020
  9
$CMLSTYLE
  2
Standard
  9
$CMLJUST
 70
0
  9
$CMLSCALE
 40
20.0
  9
$PROXYGRAPHICS
 70
1
  9
$MEASUREMENT
 70
1
  9
$CELWEIGHT
370
-1
  9
$ENDCAPS
280
0
  9
$JOINSTYLE
280
0
  9
$LWDISPLAY
290
0
  9
$INSUNITS
 70
4
  9
$HYPERLINKBASE
  1

  9
$STYLESHEET
  1

  9
$XEDIT
290
1
  9
$CEPSNTYPE
380
0
  9
$PSTYLEMODE
290
1
  9
$FINGERPRINTGUID
  2
{63F5AAFB-BB50-480A-AA16-8A89643EE320}
  9
$VERSIONGUID
  2
{56DCFF34-0DA7-452E-AD54-A54B900FC32C}
  9
$EXTNAMES
290
1
  9
$PSVPSCALE
 40
0.0
  9
$OLESTARTUP
290
0
  9
$SORTENTS
280
127
  9
$INDEXCTL
280
0
  9
$HIDETEXT
280
1
  9
$XCLIPFRAME
280
1
  9
$HALOGAP
280
0
  9
$OBSCOLOR
 70
257
  9
$OBSLTYPE
280
0
  9
$INTERSECTIONDISPLAY
280
0
  9
$INTERSECTIONCOLOR
 70
257
  9
$DIMASSOC
280
2
  9
$PROJECTNAME
  1

  9
$CAMERADISPLAY
290
0
  9
$LENSLENGTH
 40
50.0
  9
$CAMERAHEIGHT
 40
0.0
  9
$STEPSPERSEC
 40
24.0
  9
$STEPSIZE
 40
100.0
  9
$3DDWFPREC
 40
2.0
  9
$PSOLWIDTH
 40
0.005
  9
$PSOLHEIGHT
 40
0.08
  9
$LOFTANG1
 40
1.570796326795
  9
$LOFTANG2
 40
1.570796326795
  9
$LOFTMAG1
 40
0.0
  9
$LOFTMAG2
 40
0.0
  9
$LOFTPARAM
 70
7
  9
$LOFTNORMALS
280
1
  9
$LATITUDE
 40
37.795
  9
$LONGITUDE
 40
-122.394
  9
$NORTHDIRECTION
 40
0.0
  9
$TIMEZONE
 70
-8000
  9
$LIGHTGLYPHDISPLAY
280
1
  9
$TILEMODELIGHTSYNCH
280
1
  9
$CMATERIAL
347
20
  9
$SOLIDHIST
280
0
  9
$SHOWHIST
280
1
  9
$DWFFRAME
280
2
  9
$DGNFRAME
280
2
  9
$REALWORLDSCALE
290
1
  9
$INTERFERECOLOR
 62
256
  9
$CSHADOW
280
0
  9
$SHADOWPLANELOCATION
 40
0.0
  0
ENDSEC
  0
SECTION
  2
CLASSES
  0
CLASS
  1
ACDBDICTIONARYWDFLT
  2
AcDbDictionaryWithDefault
  3
ObjectDBX Classes
 90
0
 91
0
280
0
281
0
  0
CLASS
  1
SUN
  2
AcDbSun
  3
SCENEOE
 90
1153
 91
0
280
0
281
0
  0
CLASS
  1
VISUALSTYLE
  2
AcDbVisualStyle
  3
ObjectDBX Classes
 90
4095
 91
0
280
0
281
0
  0
CLASS
  1
MATERIAL
  2
AcDbMaterial
  3
ObjectDBX Classes
 90
1153
 91
0
280
0
281
0
  0
CLASS
  1
SCALE
  2
AcDbScale
  3
ObjectDBX Classes
 90
1153
 91
0
280
0
281
0
  0
CLASS
  1
TABLESTYLE
  2
AcDbTableStyle
  3
ObjectDBX Classes
 90
4095
 91
0
280
0
281
0
  0
CLASS
  1
MLEADERSTYLE
  2
AcDbMLeaderStyle
  3
ACDB_MLEADERSTYLE_CLASS
 90
4095
 91
0
280
0
281
0
  0
CLASS
  1
DICTIONARYVAR
  2
AcDbDictionaryVar
  3
ObjectDBX Classes
 90
0
 91
0
280
0
281
0
  0
CLASS
  1
CELLSTYLEMAP
  2
AcDbCellStyleMap
  3
ObjectDBX Classes
 90
1152
 91
0
280
0
281
0
  0
CLASS
  1
MENTALRAYRENDERSETTINGS
  2
AcDbMentalRayRenderSettings
  3
SCENEOE
 90
1024
 91
0
280
0
281
0
  0
CLASS
  1
ACDBDETAILVIEWSTYLE
  2
AcDbDetailViewStyle
  3
ObjectDBX Classes
 90
1025
 91
0
280
0
281
0
  0
CLASS
  1
ACDBSECTIONVIEWSTYLE
  2
AcDbSectionViewStyle
  3
ObjectDBX Classes
 90
1025
 91
0
280
0
281
0
  0
CLASS
  1
RASTERVARIABLES
  2
AcDbRasterVariables
  3
ISM
 90
0
 91
0
280
0
281
0
  0
CLASS
  1
ACDBPLACEHOLDER
  2
AcDbPlaceHolder
  3
ObjectDBX Classes
 90
0
 91
0
280
0
281
0
  0
CLASS
  1
LAYOUT
  2
AcDbLayout
  3
ObjectDBX Classes
 90
0
 91
0
280
0
281
0
  0
ENDSEC
  0
SECTION
  2
TABLES
  0
TABLE
  2
VPORT
  5
8
330
0
100
AcDbSymbolTable
 70
1
  0
VPORT
  5
23
330
8
100
AcDbSymbolTableRecord
100
AcDbViewportTableRecord
  2
*Active
 70
0
 10
0.0
 20
0.0
 11
1.0
 21
1.0
 12
0.0
 22
0.0
 13
0.0
 23
0.0
 14
0.5
 24
0.5
 15
0.5
 25
0.5
 16
0.0
 26
0.0
 36
1.0
 17
0.0
 27
0.0
 37
0.0
 40
1000.0
 41
1.34
 42
50.0
 43
0.0
 44
0.0
 50
0.0
 51
0.0
 71
0
 72
1000
 73
1
 74
3
 75
0
 76
0
 77
0
 78
0
281
0
 65
0
146
0.0
  0
ENDTAB
  0
TABLE
  2
LTYPE
  5
2
330
0
100
AcDbSymbolTable
 70
3
  0
LTYPE
  5
24
330
2
100
AcDbSymbolTableRecord
100
AcDbLinetypeTableRecord
  2
ByBlock
 70
0
  3

 72
65
 73
0
 40
0.0
  0
LTYPE
  5
25
330
2
100
AcDbSymbolTableRecord
100
AcDbLinetypeTableRecord
  2
ByLayer
 70
0
  3

 72
65
 73
0
 40
0.0
  0
LTYPE
  5
26
330
2
100
AcDbSymbolTableRecord
100
AcDbLinetypeTableRecord
  2
Continuous
 70
0
  3

 72
65
 73
0
 40
0.0
  0
ENDTAB
  0
TABLE
  2
LAYER
  5
1
330
0
100
AcDbSymbolTable
 70
3
  0
LAYER
  5
27
330
1
100
AcDbSymbolTableRecord
100
AcDbLayerTableRecord
  2
0
 70
0
 62
7
  6
Continuous
370
-3
390
13
347
21
  0
LAYER
  5
28
330
1
100
AcDbSymbolTableRecord
100
AcDbLayerTableRecord
  2
Defpoints
 70
0
 62
7
  6
Continuous
290
0
370
-3
390
13
347
21
  0
LAYER
  5
2F
330
1
100
AcDbSymbolTableRecord
100
AcDbLayerTableRecord
  2
CUT
 70
0
 62
7
  6
Continuous
370
-3
390
13
347
21
  0
ENDTAB
  0
TABLE
  2
STYLE
  5
5
330
0
100
AcDbSymbolTable
 70
1
  0
STYLE
  5
29
330
5
100
AcDbSymbolTableRecord
100
AcDbTextStyleTableRecord
  2
Standard
 70
0
 40
0.0
 41
1.0
 50
0.0
 71
0
 42
2.5
  3
txt
  4

  0
ENDTAB
  0
TABLE
  2
VIEW
  5
7
330
0
100
AcDbSymbolTable
 70
0
  0
ENDTAB
  0
TABLE
  2
UCS
  5
6
330
0
100
AcDbSymbolTable
 70
0
  0
ENDTAB
  0
TABLE
  2
APPID
  5
3
330
0
100
AcDbSymbolTable
 70
3
  0
APPID
  5
2A
330
3
100
AcDbSymbolTableRecord
100
AcDbRegAppTableRecord
  2
ACAD
 70
0
  0
APPID
  5
31
330
3
100
AcDbSymbolTableRecord
100
AcDbRegAppTableRecord
  2
HATCHBACKGROUNDCOLOR
 70
0
  0
APPID
  5
32
330
3
100
AcDbSymbolTableRecord
100
AcDbRegAppTableRecord
  2
EZDXF
 70
0
  0
ENDTAB
  0
TABLE
  2
DIMSTYLE
  5
4
330
0
100
AcDbSymbolTable
 70
1
100
AcDbDimStyleTable
  0
DIMSTYLE
105
2B
330
4
100
AcDbSymbolTableRecord
100
AcDbDimStyleTableRecord
  2
Standard
 70
0
 40
1.0
 41
2.5
 42
0.625
 43
3.75
 44
1.25
 45
0.0
 46
0.0
 47
0.0
 48
0.0
 49
2.5
140
2.5
141
2.5
142
0.0
143
0.03937007874
144
1.0
145
0.0
146
1.0
147
0.625
148
0.0
 69
0
 70
0
 71
0
 72
0
 73
0
 74
0
 75
0
 76
0
 77
1
 78
8
 79
3
170
0
171
3
172
1
173
0
174
0
175
0
176
0
177
0
178
0
179
2
271
2
272
2
273
2
274
3
275
0
276
0
277
2
278
44
279
0
280
0
281
0
282
0
283
0
284
8
285
0
286
0
288
0
289
3
290
0
371
-2
372
-2
  0
ENDTAB
  0
TABLE
  2
BLOCK_RECORD
  5
9
330
0
100
AcDbSymbolTable
 70
2
  0
BLOCK_RECORD
  5
17
330
9
100
AcDbSymbolTableRecord
100
AcDbBlockTableRecord
  2
*Model_Space
340
1A
 70
0
280
1
281
0
  0
BLOCK_RECORD
  5
1B
330
9
100
AcDbSymbolTableRecord
100
AcDbBlockTableRecord
  2
*Paper_Space
340
1E
 70
0
280
1
281
0
  0
ENDTAB
  0
ENDSEC
  0
SECTION
  2
BLOCKS
  0
BLOCK
  5
18
330
17
100
AcDbEntity
  8
0
100
AcDbBlockBegin
  2
*Model_Space
 70
0
 10
0.0
 20
0.0
 30
0.0
  3
*Model_Space
  1

  0
ENDBLK
  5
19
330
17
100
AcDbEntity
  8
0
100
AcDbBlockEnd
  0
BLOCK
  5
1C
330
1B
100
AcDbEntity
  8
0
100
AcDbBlockBegin
  2
*Paper_Space
 70
0
 10
0.0
 20
0.0
 30
0.0
  3
*Paper_Space
  1

  0
ENDBLK
  5
1D
330
1B
100
AcDbEntity
  8
0
100
AcDbBlockEnd
  0
ENDSEC
  0
SECTION
  2
ENTITIES
  0
LWPOLYLINE
  5
30
330
17
100
AcDbEntity
  8
CUT
100
AcDbPolyline
 90
385
 70
1
 10
22.0
 20
11.0
 10
21.99852751700518
 20
10.820020952108646
 10
21.994110462240023
 20
10.640090088960463
 10
21.9867500182569
 20
10.460255582398402
 10
21.976448155624638
 20
10.280565578468426
 10
21.963207632400984
 20
10.10106818452965
 10
21.947031993394166
 20
9.921811456374833
 10
21.92792556921389
 20
9.74284338536469
 10
21.905893475111917
 20
9.564211885579432
 10
21.88094160961259
 20
9.38596478099102
 10
21.85307665293367
 20
9.208149792659524
 10
21.82230606519785
 20
9.030814525957041
 10
21.788638084435533
 20
8.854006457822589
 10
21.75208172437929
 20
8.677772924051384
 10
21.712646772050668
 20
8.502161106621895
 10
21.670343785139984
 20
8.327218021064098
 10
21.62518408917975
 20
8.152990503872271
 10
21.57717977451258
 20
7.979525199965744
 10
21.526343693054297
 20
7.806868550200914
 10
21.472689454853167
 20
7.635066778937912
 10
21.416231424446163
 20
7.464165881665223
 10
21.356984717013226
 20
7.294211612685579
 10
21.294965194330583
 20
7.1252494728664315
 10
21.230189460524134
 20
6.957324697458262
 10
21.162674857624154
 20
6.7904822439840125
 10
21.092439460922407
 20
6.624766780202879
 10
21.019502074132934
 20
6.460222672151659
 10
20.94388222435788
 20
6.296893972266898
 10
20.86560015685957
 20
6.134824407590986
 10
20.784676829640418
 20
5.974057368065373
 10
20.701133907831906
 20
5.814635894914026
 10
20.614993757894347
 20
5.65660266912026
 10
20.526279441628827
 20
5.500000000000001
 10
20.435014710002996
 20
5.344869813874562
 10
20.341223996792365
 20
5.191253642845953
 10
20.24493241203882
 20
5.0391926136777325
 10
20.146165735327997
 20
4.888727436784376
 10
20.044950408887527
 20
4.739898395332119
 10
19.94131353050777
 20
4.592745334454176
 10
19.835282846287093
 20
4.447307650583234
 10
19.726886743203586
 20
4.303624280904074
 10
19.616154241515154
 20
4.1617336929291495
 10
19.503114986990106
 20
4.0216738741999
 10
19.38779924297027
 20
3.8834823221165697
 10
19.270237882268752
 20
3.747196033899243
 10
19.15046237890455
 20
3.612851496682798
 10
19.028504799676192
 20
3.480484677748416
 10
18.904397795576678
 20
3.3501310148942727
 10
18.77817459305202
 20
3.2218254069479784
 10
18.649868985105726
 20
3.0956022044233222
 10
18.519515322251586
 20
2.971495200323808
 10
18.387148503317203
 20
2.8495376210954504
 10
18.252803966100757
 20
2.7297621177312497
 10
18.116517677883433
 20
2.612200757029731
 10
17.978326125800102
 20
2.4968850130098943
 10
17.838266307070853
 20
2.3838457584848456
 10
17.696375719095926
 20
2.273113256796414
 10
17.552692349416766
 20
2.164717153712907
 10
17.407254665545825
 20
2.0586864694922333
 10
17.26010160466788
 20
1.9550495911124752
 10
17.11127256321563
 20
1.8538342646720043
 10
16.96080738632227
 20
1.7550675879611823
 10
16.80874635715405
 20
1.6587760032076329
 10
16.65513018612544
 20
1.5649852899970078
 10
16.5
 20
1.4737205583711752
 10
16.34339733087974
 20
1.3850062421056535
 10
16.185364105085977
 20
1.2988660921680957
 10
16.025942631934626
 20
1.215323170359584
 10
15.865175592409017
 20
1.1343998431404287
 10
15.703106027733103
 20
1.0561177756421234
 10
15.539777327848345
 20
0.9804979258670681
 10
15.375233219797124
 20
0.9075605390775969
 10
15.209517756015988
 20
0.8373251423758461
 10
15.042675302541742
 20
0.7698105394758663
 10
14.87475052713357
 20
0.7050348056694187
 10
14.705788387314422
 20
0.6430152829867719
 10
14.53583411833478
 20
0.5837685755538384
 10
14.364933221062088
 20
0.5273105451468325
 10
14.193131449799088
 20
0.4736563069457027
 10
14.020474800034258
 20
0.4228202254874187
 10
13.84700949612773
 20
0.37481591082024934
 10
13.672781978935904
 20
0.32965621486001595
 10
13.497838893378109
 20
0.28735322794933005
 10
13.322227075948618
 20
0.24791827562071056
 10
13.145993542177411
 20
0.21136191556446526
 10
12.96918547404296
 20
0.17769393480214823
 10
12.791850207340477
 20
0.14692334706633048
 10
12.614035219008981
 20
0.11905839038741028
 10
12.43578811442057
 20
0.09410652488808502
 10
12.257156614635313
 20
0.07207443078611142
 10
12.078188543625169
 20
0.05296800660583578
 10
11.898931815470352
 20
0.036792367599016274
 10
11.719434421531576
 20
0.023551844375361952
 10
11.5397444176016
 20
0.013249981743102879
 10
11.35990991103954
 20
0.005889537759976804
 10
11.179979047891356
 20
0.001472482994820723
 10
11.0
 20
0.0
 10
10.820020952108647
 20
0.001472482994820723
 10
10.640090088960463
 20
0.005889537759976804
 10
10.460255582398405
 20
0.013249981743102879
 10
10.280565578468428
 20
0.023551844375361952
 10
10.101068184529652
 20
0.036792367599016274
 10
9.921811456374835
 20
0.052968006605834006
 10
9.74284338536469
 20
0.07207443078611142
 10
9.564211885579436
 20
0.09410652488808502
 10
9.385964780991022
 20
0.11905839038740851
 10
9.208149792659526
 20
0.14692334706633048
 10
9.030814525957043
 20
0.17769393480214823
 10
8.854006457822592
 20
0.2113619155644635
 10
8.677772924051386
 20
0.24791827562070878
 10
8.502161106621896
 20
0.28735322794933005
 10
8.3272180210641
 20
0.32965621486001595
 10
8.152990503872273
 20
0.37481591082024934
 10
7.979525199965748
 20
0.42282022548741693
 10
7.806868550200916
 20
0.47365630694570093
 10
7.635066778937915
 20
0.5273105451468325
 10
7.464165881665225
 20
0.5837685755538367
 10
7.294211612685581
 20
0.6430152829867719
 10
7.125249472866434
 20
0.7050348056694169
 10
6.9573246974582625
 20
0.7698105394758663
 10
6.790482243984015
 20
0.8373251423758443
 10
6.624766780202881
 20
0.9075605390775952
 10
6.46022267215166
 20
0.9804979258670645
 10
6.2968939722669
 20
1.0561177756421216
 10
6.134824407590988
 20
1.1343998431404287
 10
5.974057368065373
 20
1.215323170359584
 10
5.81463589491403
 20
1.2988660921680921
 10
5.656602669120263
 20
1.38500624210565
 10
5.500000000000003
 20
1.4737205583711734
 10
5.344869813874562
 20
1.564985289997006
 10
5.191253642845952
 20
1.6587760032076329
 10
5.039192613677734
 20
1.7550675879611806
 10
4.888727436784379
 20
1.8538342646720007
 10
4.739898395332122
 20
1.9550495911124735
 10
4.592745334454177
 20
2.0586864694922316
 10
4.447307650583233
 20
2.164717153712905
 10
4.303624280904076
 20
2.2731132567964103
 10
4.161733692929151
 20
2.383845758484844
 10
4.021673874199901
 20
2.4968850130098925
 10
3.8834823221165697
 20
2.612200757029729
 10
3.7471960338992467
 20
2.7297621177312443
 10
3.6128514966828007
 20
2.849537621095447
 10
3.480484677748418
 20
2.9714952003238064
 10
3.3501310148942727
 20
3.0956022044233196
 10
3.2218254069479784
 20
3.2218254069479766
 10
3.095602204423325
 20
3.3501310148942682
 10
2.9714952003238118
 20
3.4804846777484126
 10
2.849537621095452
 20
3.6128514966827963
 10
2.7297621177312497
 20
3.7471960338992414
 10
2.612200757029731
 20
3.883482322116569
 10
2.496885013009896
 20
4.021673874199896
 10
2.383845758484849
 20
4.161733692929146
 10
2.273113256796414
 20
4.303624280904071
 10
2.164717153712907
 20
4.447307650583232
 10
2.0586864694922333
 20
4.592745334454176
 10
1.955049591112477
 20
4.739898395332116
 10
1.8538342646720043
 20
4.8887274367843725
 10
1.7550675879611841
 20
5.039192613677729
 10
1.6587760032076329
 20
5.191253642845951
 10
1.5649852899970096
 20
5.344869813874557
 10
1.473720558371177
 20
5.4999999999999964
 10
1.3850062421056535
 20
5.656602669120256
 10
1.2988660921680957
 20
5.814635894914024
 10
1.215323170359584
 20
5.974057368065371
 10
1.1343998431404305
 20
6.1348244075909815
 10
1.0561177756421252
 20
6.2968939722668935
 10
0.9804979258670681
 20
6.460222672151655
 10
0.9075605390775969
 20
6.624766780202877
 10
0.8373251423758461
 20
6.790482243984012
 10
0.7698105394758681
 20
6.957324697458256
 10
0.7050348056694187
 20
7.125249472866427
 10
0.6430152829867719
 20
7.294211612685576
 10
0.5837685755538384
 20
7.46416588166522
 10
0.5273105451468325
 20
7.635066778937911
 10
0.4736563069457045
 20
7.806868550200909
 10
0.4228202254874187
 20
7.979525199965741
 10
0.37481591082024934
 20
8.15299050387227
 10
0.32965621486001595
 20
8.327218021064095
 10
0.2873532279493318
 20
8.50216110662189
 10
0.24791827562071056
 20
8.677772924051379
 10
0.21136191556446526
 20
8.854006457822585
 10
0.17769393480214823
 20
9.030814525957037
 10
0.14692334706633048
 20
9.208149792659523
 10
0.11905839038741028
 20
9.385964780991015
 10
0.09410652488808502
 20
9.564211885579429
 10
0.07207443078611142
 20
9.742843385364687
 10
0.05296800660583578
 20
9.921811456374831
 10
0.036792367599016274
 20
10.101068184529648
 10
0.023551844375361952
 20
10.280565578468421
 10
0.013249981743102879
 20
10.460255582398398
 10
0.005889537759976804
 20
10.64009008896046
 10
0.001472482994820723
 20
10.820020952108644
 10
0.0
 20
11.0
 10
0.001472482994820723
 20
11.179979047891349
 10
0.005889537759976804
 20
11.359909911039534
 10
0.013249981743102879
 20
11.539744417601595
 10
0.023551844375361952
 20
11.719434421531572
 10
0.036792367599016274
 20
11.898931815470345
 10
0.052968006605834006
 20
12.078188543625162
 10
0.07207443078611142
 20
12.257156614635306
 10
0.09410652488808502
 20
12.435788114420564
 10
0.11905839038740851
 20
12.614035219008978
 10
0.14692334706633048
 20
12.79185020734047
 10
0.17769393480214823
 20
12.969185474042956
 10
0.2113619155644635
 20
13.145993542177408
 10
0.24791827562070878
 20
13.322227075948614
 10
0.28735322794933005
 20
13.497838893378104
 10
0.32965621486001595
 20
13.672781978935898
 10
0.37481591082024757
 20
13.847009496127724
 10
0.42282022548741693
 20
14.020474800034252
 10
0.47365630694570093
 20
14.193131449799083
 10
0.5273105451468325
 20
14.364933221062081
 10
0.5837685755538367
 20
14.535834118334773
 10
0.6430152829867701
 20
14.705788387314417
 10
0.7050348056694151
 20
14.874750527133566
 10
0.7698105394758663
 20
15.042675302541737
 10
0.8373251423758425
 20
15.20951775601598
 10
0.9075605390775934
 20
15.375233219797117
 10
0.9804979258670645
 20
15.539777327848338
 10
1.0561177756421216
 20
15.7031060277331
 10
1.1343998431404287
 20
15.865175592409011
 10
1.2153231703595804
 20
16.025942631934623
 10
1.2988660921680921
 20
16.18536410508597
 10
1.38500624210565
 20
16.343397330879736
 10
1.4737205583711734
 20
16.499999999999996
 10
1.564985289997006
 20
16.655130186125437
 10
1.6587760032076293
 20
16.808746357154043
 10
1.7550675879611788
 20
16.960807386322266
 10
1.8538342646720007
 20
17.11127256321562
 10
1.9550495911124717
 20
17.260101604667877
 10
2.058686469492228
 20
17.407254665545818
 10
2.1647171537129015
 20
17.552692349416763
 10
2.2731132567964103
 20
17.696375719095926
 10
2.383845758484844
 20
17.83826630707085
 10
2.4968850130098925
 20
17.9783261258001
 10
2.6122007570297257
 20
18.116517677883426
 10
2.7297621177312443
 20
18.252803966100753
 10
2.849537621095447
 20
18.3871485033172
 10
2.9714952003238047
 20
18.519515322251582
 10
3.0956022044233196
 20
18.649868985105726
 10
3.221825406947973
 20
18.778174593052018
 10
3.3501310148942682
 20
18.904397795576674
 10
3.4804846777484126
 20
19.02850479967619
 10
3.6128514966827945
 20
19.15046237890455
 10
3.7471960338992405
 20
19.270237882268752
 10
3.883482322116567
 20
19.387799242970267
 10
4.0216738741998945
 20
19.503114986990106
 10
4.1617336929291415
 20
19.616154241515147
 10
4.303624280904071
 20
19.726886743203586
 10
4.447307650583227
 20
19.83528284628709
 10
4.592745334454175
 20
19.941313530507767
 10
4.739898395332116
 20
20.044950408887523
 10
4.888727436784367
 20
20.14616573532799
 10
5.039192613677729
 20
20.244932412038814
 10
5.191253642845946
 20
20.341223996792365
 10
5.344869813874561
 20
20.435014710002992
 10
5.499999999999995
 20
20.526279441628823
 10
5.656602669120252
 20
20.614993757894343
 10
5.814635894914024
 20
20.701133907831903
 10
5.974057368065367
 20
20.78467682964041
 10
6.134824407590985
 20
20.86560015685957
 10
6.296893972266893
 20
20.943882224357875
 10
6.46022267215165
 20
21.01950207413293
 10
6.624766780202876
 20
21.092439460922403
 10
6.790482243984006
 20
21.162674857624154
 10
6.95732469745826
 20
21.230189460524134
 10
7.125249472866427
 20
21.29496519433058
 10
7.294211612685571
 20
21.356984717013226
 10
7.46416588166522
 20
21.41623142444616
 10
7.635066778937906
 20
21.472689454853164
 10
7.806868550200913
 20
21.526343693054297
 10
7.97952519996574
 20
21.57717977451258
 10
8.152990503872264
 20
21.625184089179747
 10
8.327218021064095
 20
21.670343785139984
 10
8.502161106621887
 20
21.712646772050668
 10
8.677772924051373
 20
21.752081724379288
 10
8.854006457822585
 20
21.788638084435533
 10
9.030814525957032
 20
21.82230606519785
 10
9.20814979265952
 20
21.85307665293367
 10
9.385964780991015
 20
21.88094160961259
 10
9.564211885579423
 20
21.905893475111913
 10
9.742843385364685
 20
21.92792556921389
 10
9.921811456374826
 20
21.947031993394162
 10
10.101068184529648
 20
21.963207632400984
 10
10.280565578468421
 20
21.976448155624638
 10
10.460255582398393
 20
21.986750018256895
 10
10.64009008896046
 20
21.994110462240023
 10
10.820020952108637
 20
21.99852751700518
 10
11.0
 20
22.0
 10
11.179979047891349
 20
21.99852751700518
 10
11.359909911039528
 20
21.994110462240023
 10
11.539744417601595
 20
21.9867500182569
 10
11.719434421531567
 20
21.976448155624638
 10
11.898931815470348
 20
21.963207632400984
 10
12.078188543625162
 20
21.947031993394166
 10
12.257156614635301
 20
21.92792556921389
 10
12.435788114420564
 20
21.905893475111917
 10
12.614035219008972
 20
21.88094160961259
 10
12.791850207340474
 20
21.85307665293367
 10
12.969185474042954
 20
21.82230606519785
 10
13.1459935421774
 20
21.788638084435537
 10
13.322227075948614
 20
21.75208172437929
 10
13.497838893378098
 20
21.71264677205067
 10
13.672781978935902
 20
21.670343785139984
 10
13.847009496127724
 20
21.625184089179754
 10
14.020474800034247
 20
21.577179774512583
 10
14.193131449799083
 20
21.5263436930543
 10
14.364933221062081
 20
21.472689454853167
 10
14.535834118334776
 20
21.416231424446163
 10
14.705788387314415
 20
21.35698471701323
 10
14.87475052713356
 20
21.294965194330587
 10
15.042675302541735
 20
21.230189460524134
 10
15.20951775601598
 20
21.162674857624157
 10
15.375233219797112
 20
21.092439460922407
 10
15.539777327848338
 20
21.019502074132937
 10
15.703106027733096
 20
20.94388222435788
 10
15.865175592409011
 20
20.86560015685957
 10
16.025942631934623
 20
20.784676829640418
 10
16.185364105085966
 20
20.70113390783191
 10
16.343397330879736
 20
20.61499375789435
 10
16.499999999999993
 20
20.52627944162883
 10
16.655130186125437
 20
20.435014710002996
 10
16.808746357154043
 20
20.341223996792372
 10
16.96080738632226
 20
20.24493241203882
 10
17.11127256321562
 20
20.146165735327997
 10
17.260101604667874
 20
20.04495040888753
 10
17.40725466554582
 20
19.94131353050777
 10
17.552692349416763
 20
19.8352828462871
 10
17.69637571909592
 20
19.726886743203593
 10
17.838266307070846
 20
19.616154241515154
 10
17.978326125800095
 20
19.503114986990113
 10
18.11651767788343
 20
19.38779924297027
 10
18.252803966100753
 20
19.270237882268756
 10
18.387148503317192
 20
19.150462378904557
 10
18.519515322251582
 20
19.028504799676195
 10
18.649868985105723
 20
18.904397795576685
 10
18.77817459305202
 20
18.778174593052025
 10
18.904397795576674
 20
18.649868985105734
 10
19.028504799676185
 20
18.519515322251593
 10
19.15046237890455
 20
18.387148503317206
 10
19.270237882268745
 20
18.252803966100764
 10
19.387799242970267
 20
18.116517677883433
 10
19.503114986990106
 20
17.978326125800105
 10
19.616154241515147
 20
17.83826630707086
 10
19.726886743203586
 20
17.69637571909593
 10
19.83528284628709
 20
17.552692349416773
 10
19.941313530507767
 20
17.407254665545825
 10
20.044950408887523
 20
17.260101604667884
 10
20.14616573532799
 20
17.111272563215632
 10
20.244932412038814
 20
16.960807386322273
 10
20.341223996792365
 20
16.808746357154053
 10
20.43501471000299
 20
16.655130186125447
 10
20.526279441628823
 20
16.500000000000007
 10
20.614993757894343
 20
16.34339733087975
 10
20.701133907831903
 20
16.185364105085977
 10
20.78467682964041
 20
16.025942631934633
 10
20.865600156859564
 20
15.865175592409024
 10
20.943882224357875
 20
15.703106027733108
 10
21.01950207413293
 20
15.53977732784835
 10
21.092439460922403
 20
15.375233219797124
 10
21.162674857624154
 20
15.209517756015995
 10
21.23018946052413
 20
15.042675302541749
 10
21.29496519433058
 20
14.874750527133575
 10
21.356984717013226
 20
14.70578838731443
 10
21.41623142444616
 20
14.53583411833478
 10
21.472689454853164
 20
14.364933221062095
 10
21.526343693054294
 20
14.193131449799097
 10
21.57717977451258
 20
14.020474800034261
 10
21.625184089179747
 20
13.847009496127738
 10
21.670343785139984
 20
13.672781978935905
 10
21.712646772050668
 20
13.497838893378113
 10
21.752081724379288
 20
13.322227075948629
 10
21.788638084435533
 20
13.145993542177417
 10
21.82230606519785
 20
12.969185474042968
 10
21.85307665293367
 20
12.79185020734048
 10
21.88094160961259
 20
12.614035219008986
 10
21.905893475111913
 20
12.435788114420578
 10
21.92792556921389
 20
12.257156614635315
 10
21.947031993394162
 20
12.078188543625176
 10
21.963207632400984
 20
11.898931815470354
 10
21.976448155624638
 20
11.71943442153158
 10
21.986750018256895
 20
11.539744417601609
 10
21.994110462240023
 20
11.359909911039543
 10
21.99852751700518
 20
11.179979047891363
 10
22.0
 20
11.0
  0
ENDSEC
  0
SECTION
  2
OBJECTS
  0
DICTIONARY
  5
A
330
0
100
AcDbDictionary
281
1
  3
ACAD_COLOR
350
B
  3
ACAD_GROUP
350
C
  3
ACAD_LAYOUT
350
D
  3
ACAD_MATERIAL
350
E
  3
ACAD_MLEADERSTYLE
350
F
  3
ACAD_MLINESTYLE
350
10
  3
ACAD_PLOTSETTINGS
350
11
  3
ACAD_PLOTSTYLENAME
350
12
  3
ACAD_SCALELIST
350
14
  3
ACAD_TABLESTYLE
350
15
  3
ACAD_VISUALSTYLE
350
16
  3
EZDXF_META
350
2D
  0
DICTIONARY
  5
B
330
A
100
AcDbDictionary
281
1
  0
DICTIONARY
  5
C
330
A
100
AcDbDictionary
281
1
  0
DICTIONARY
  5
D
330
A
100
AcDbDictionary
281
1
  3
Model
350
1A
  3
Layout1
350
1E
  0
DICTIONARY
  5
E
330
A
100
AcDbDictionary
281
1
  3
ByBlock
350
1F
  3
ByLayer
350
20
  3
Global
350
21
  0
DICTIONARY
  5
F
330
A
100
AcDbDictionary
281
1
  3
Standard
350
2C
  0
DICTIONARY
  5
10
330
A
100
AcDbDictionary
281
1
  3
Standard
350
22
  0
DICTIONARY
  5
11
330
A
100
AcDbDictionary
281
1
  0
ACDBDICTIONARYWDFLT
  5
12
330
A
100
AcDbDictionary
281
1
  3
Normal
350
13
100
AcDbDictionaryWithDefault
340
13
  0
ACDBPLACEHOLDER
  5
13
330
12
  0
DICTIONARY
  5
14
330
A
100
AcDbDictionary
281
1
  0
DICTIONARY
  5
15
330
A
100
AcDbDictionary
281
1
  0
DICTIONARY
  5
16
330
A
100
AcDbDictionary
281
1
  0
LAYOUT
  5
1A
330
D
100
AcDbPlotSettings
  1

  4
A3
  6

 40
7.5
 41
20.0
 42
7.5
 43
20.0
 44
420.0
 45
297.0
 46
0.0
 47
0.0
 48
0.0
 49
0.0
140
0.0
141
0.0
142
1.0
143
1.0
 70
1024
 72
1
 73
0
 74
5
  7

 75
16
 76
0
 77
2
 78
300
147
1.0
148
0.0
149
0.0
100
AcDbLayout
  1
Model
 70
1
 71
0
 10
0.0
 20
0.0
 11
420.0
 21
297.0
 12
0.0
 22
0.0
 32
0.0
 14
1e+20
 24
1e+20
 34
1e+20
 15
-1e+20
 25
-1e+20
 35
-1e+20
146
0.0
 13
0.0
 23
0.0
 33
0.0
 16
1.0
 26
0.0
 36
0.0
 17
0.0
 27
1.0
 37
0.0
 76
1
330
17
  0
LAYOUT
  5
1E
330
D
100
AcDbPlotSettings
  1

  4
A3
  6

 40
7.5
 41
20.0
 42
7.5
 43
20.0
 44
420.0
 45
297.0
 46
0.0
 47
0.0
 48
0.0
 49
0.0
140
0.0
141
0.0
142
1.0
143
1.0
 70
0
 72
1
 73
0
 74
5
  7

 75
16
 76
0
 77
2
 78
300
147
1.0
148
0.0
149
0.0
100
AcDbLayout
  1
Layout1
 70
1
 71
1
 10
0.0
 20
0.0
 11
420.0
 21
297.0
 12
0.0
 22
0.0
 32
0.0
 14
1e+20
 24
1e+20
 34
1e+20
 15
-1e+20
 25
-1e+20
 35
-1e+20
146
0.0
 13
0.0
 23
0.0
 33
0.0
 16
1.0
 26
0.0
 36
0.0
 17
0.0
 27
1.0
 37
0.0
 76
1
330
1B
  0
MATERIAL
  5
1F
102
{ACAD_REACTORS
330
E
102
}
330
E
100
AcDbMaterial
  1
ByBlock
  2

 70
0
 40
1.0
 71
1
 41
1.0
 91
-1023410177
 42
1.0
 72
1
  3

 73
1
 74
1
 75
1
 44
0.5
 73
0
 45
1.0
 46
1.0
 77
1
  4

 78
1
 79
1
170
1
 48
1.0
171
1
  6

172
1
173
1
174
1
140
1.0
141
1.0
175
1
  7

176
1
177
1
178
1
143
1.0
179
1
  8

270
1
271
1
272
1
145
1.0
146
1.0
273
1
  9

274
1
275
1
276
1
 42
1.0
 72
1
  3

 73
1
 74
1
 75
1
 94
63
  0
MATERIAL
  5
20
102
{ACAD_REACTORS
330
E
102
}
330
E
100
AcDbMaterial
  1
ByLayer
  2

 70
0
 40
1.0
 71
1
 41
1.0
 91
-1023410177
 42
1.0
 72
1
  3

 73
1
 74
1
 75
1
 44
0.5
 73
0
 45
1.0
 46
1.0
 77
1
  4

 78
1
 79
1
170
1
 48
1.0
171
1
  6

172
1
173
1
174
1
140
1.0
141
1.0
175
1
  7

176
1
177
1
178
1
143
1.0
179
1
  8

270
1
271
1
272
1
145
1.0
146
1.0
273
1
  9

274
1
275
1
276
1
 42
1.0
 72
1
  3

 73
1
 74
1
 75
1
 94
63
  0
MATERIAL
  5
21
102
{ACAD_REACTORS
330
E
102
}
330
E
100
AcDbMaterial
  1
Global
  2

 70
0
 40
1.0
 71
1
 41
1.0
 91
-1023410177
 42
1.0
 72
1
  3

 73
1
 74
1
 75
1
 44
0.5
 73
0
 45
1.0
 46
1.0
 77
1
  4

 78
1
 79
1
170
1
 48
1.0
171
1
  6

172
1
173
1
174
1
140
1.0
141
1.0
175
1
  7

176
1
177
1
178
1
143
1.0
179
1
  8

270
1
271
1
272
1
145
1.0
146
1.0
273
1
  9

274
1
275
1
276
1
 42
1.0
 72
1
  3

 73
1
 74
1
 75
1
 94
63
  0
MLINESTYLE
  5
22
102
{ACAD_REACTORS
330
10
102
}
330
10
100
AcDbMlineStyle
  2
Standard
 70
0
  3

 62
256
 51
90.0
 52
90.0
 71
2
 49
0.5
 62
256
  6
BYLAYER
 49
-0.5
 62
256
  6
BYLAYER
  0
MLEADERSTYLE
  5
2C
102
{ACAD_REACTORS
330
F
102
}
330
F
100
AcDbMLeaderStyle
179
2
170
2
171
1
172
0
 90
2
 40
0.0
 41
0.0
173
1
 91
-1056964608
 92
-2
290
1
 42
2.0
291
1
 43
8.0
  3
Standard
 44
4.0
300

342
29
174
1
175
1
176
0
178
1
 93
-1056964608
 45
4.0
292
0
297
0
 46
4.0
 94
-1056964608
 47
1.0
 49
1.0
140
1.0
294
1
141
0.0
177
0
142
1.0
295
0
296
0
143
3.75
271
0
272
9
273
9
  0
DICTIONARY
  5
2D
330
A
100
AcDbDictionary
280
1
281
1
  3
CREATED_BY_EZDXF
350
2E
  3
WRITTEN_BY_EZDXF
350
33
  0
DICTIONARYVAR
  5
2E
330
2D
100
DictionaryVariables
280
0
  1
1.4.4 @ 2026-10-05T06:27:39.463402+00:00
  0
DICTIONARYVAR
  5
33
330
2D
100
DictionaryVariables
280
0
  1
1.4.4 @ 2026-10-05T06:27:39.465301+00:00
  0
ENDSEC
  0
EOF
