  0
SECTION
  2
HEADER
  9
$ACADVER
  1
AC1024
  9
$ACADMAINTVER
 70
6
  9
$DWGCODEPAGE
  3
ANSI_1252
  9
$LASTSAVEDBY
  1
ezdxf
  9
$INSBASE
 10
0.0
 20
0.0
 30
0.0
  9
$EXTMIN
 10
1e+20
 20
1e+20
 30
1e+20
  9
$EXTMAX
 10
-1e+20
 20
-1e+20
 30
-1e+20
  9
$LIMMIN
 10
0.0
 20
0.0
  9
$LIMMAX
 10
420.0
 20
297.0
  9
$ORTHOMODE
 70
0
  9
$REGENMODE
 70
1
  9
$FILLMODE
 70
1
  9
$QTEXTMODE
 70
0
  9
$MIRRTEXT
 70
1
  9
$LTSCALE
 40
1.0
  9
$ATTMODE
 70
1
  9
$TEXTSIZE
 40
2.5
  9
$TRACEWID
 40
1.0
  9
$TEXTSTYLE
  7
Standard
  9
$CLAYER
  8
0
  9
$CELTYPE
  6
ByLayer
  9
$CECOLOR
 62
256
  9
$CELTSCALE
 40
1.0
  9
$DISPSILH
 70
0
  9
$DIMSCALE
 40
1.0
  9
$DIMASZ
 40
2.5
  9
$DIMEXO
 40
0.625
  9
$DIMDLI
 40
3.75
  9
$DIMRND
 40
0.0
  9
$DIMDLE
 40
0.0
  9
$DIMEXE
 40
1.25
  9
$DIMTP
 40
0.0
  9
$DIMTM
 40
0.0
  9
$DIMTXT
 40
2.5
  9
$DIMCEN
 40
2.5
  9
$DIMTSZ
 40
0.0
  9
$DIMTOL
 70
0
  9
$DIMLIM
 70
0
  9
$DIMTIH
 70
0
  9
$DIMTOH
 70
0
  9
$DIMSE1
 70
0
  9
$DIMSE2
 70
0
  9
$DIMTAD
 70
1
  9
$DIMZIN
 70
8
  9
$DIMBLK
  1

  9
$DIMASO
 70
1
  9
$DIMSHO
 70
1
  9
$DIMPOST
  1

  9
$DIMAPOST
  1

  9
$DIMALT
 70
0
  9
$DIMALTD
 70
3
  9
$DIMALTF
 40
0.03937007874
  9
$DIMLFAC
 40
1.0
  9
$DIMTOFL
 70
1
  9
$DIMTVP
 40
0.0
  9
$DIMTIX
 70
0
  9
$DIMSOXD
 70
0
  9
$DIMSAH
 70
0
  9
$DIMBLK1
  1

  9
$DIMBLK2
  1

  9
$DIMSTYLE
  2
ISO-25
  9
$DIMCLRD
 70
0
  9
$DIMCLRE
 70
0
  9
$DIMCLRT
 70
0
  9
$DIMTFAC
 40
1.0
  9
$DIMGAP
 40
0.625
  9
$DIMJUST
 70
0
  9
$DIMSD1
 70
0
  9
$DIMSD2
 70
0
  9
$DIMTOLJ
 70
0
  9
$DIMTZIN
 70
8
  9
$DIMALTZ
 70
0
  9
$DIMALTTZ
 70
0
  9
$DIMUPT
 70
0
  9
$DIMDEC
 70
2
  9
$DIMTDEC
 70
2
  9
$DIMALTU
 70
2
  9
$DIMALTTD
 70
3
  9
$DIMTXSTY
  7
Standard
  9
$DIMAUNIT
 70
0
  9
$DIMADEC
 70
0
  9
$DIMALTRND
 40
0.0
  9
$DIMAZIN
 70
0
  9
$DIMDSEP
 70
44
  9
$DIMATFIT
 70
3
  9
$DIMFRAC
 70
0
  9
$DIMLDRBLK
  1

  9
$DIMLUNIT
 70
2
  9
$DIMLWD
 70
-2
  9
$DIMLWE
 70
-2
  9
$DIMTMOVE
 70
0
  9
$DIMFXL
 40
1.0
  9
$DIMFXLON
 70
0
  9
$DIMJOGANG
 40
0.785398163397
  9
$DIMTFILL
 70
0
  9
$DIMTFILLCLR
 70
0
  9
$DIMARCSYM
 70
0
  9
$DIMLTYPE
  6

  9
$DIMLTEX1
  6

  9
$DIMLTEX2
  6

  9
$DIMTXTDIRECTION
 70
0
  9
$LUNITS
 70
2
  9
$LUPREC
 70
4
  9
$SKETCHINC
 40
1.0
  9
$FILLETRAD
 40
10.0
  9
$AUNITS
 70
0
  9
$AUPREC
 70
2
  9
$MENU
  1
.
  9
$ELEVATION
 40
0.0
  9
$PELEVATION
 40
0.0
  9
$THICKNESS
 40
0.0
  9
$LIMCHECK
 70
0
  9
$CHAMFERA
 40
0.0
  9
$CHAMFERB
 40
0.0
  9
$CHAMFERC
 40
0.0
  9
$CHAMFERD
 40
0.0
  9
$SKPOLY
 70
0
  9
$TDCREATE
 40
2461319.269201389
  9
$TDUCREATE
 40
2458532.153996898
  9
$TDUPDATE
 40
2461319.269201389
  9
$TDUUPDATE
 40
2458532.1544311
  9
$TDINDWG
 40
0.0
  9
$TDUSRTIMER
 40
0.0
  9
$USRTIMER
 70
1
  9
$ANGBASE
 50
0.0
  9
$ANGDIR
 70
0
  9
$PDMODE
 70
0
  9
$PDSIZE
 40
0.0
  9
$PLINEWID
 40
0.0
  9
$SPLFRAME
 70
0
  9
$SPLINETYPE
 70
6
  9
$SPLINESEGS
 70
8
  9
$HANDSEED
  5
34
  9
$SURFTAB1
 70
6
  9
$SURFTAB2
 70
6
  9
$SURFTYPE
 70
6
  9
$SURFU
 70
6
  9
$SURFV
 70
6
  9
$UCSBASE
  2

  9
$UCSNAME
  2

  9
$UCSORG
 10
0.0
 20
0.0
 30
0.0
  9
$UCSXDIR
 10
1.0
 20
0.0
 30
0.0
  9
$UCSYDIR
 10
0.0
 20
1.0
 30
0.0
  9
$UCSORTHOREF
  2

  9
$UCSORTHOVIEW
 70
0
  9
$UCSORGTOP
 10
0.0
 20
0.0
 30
0.0
  9
$UCSORGBOTTOM
 10
0.0
 20
0.0
 30
0.0
  9
$UCSORGLEFT
 10
0.0
 20
0.0
 30
0.0
  9
$UCSORGRIGHT
 10
0.0
 20
0.0
 30
0.0
  9
$UCSORGFRONT
 10
0.0
 20
0.0
 30
0.0
  9
$UCSORGBACK
 10
0.0
 20
0.0
 30
0.0
  9
$PUCSBASE
  2

  9
$PUCSNAME
  2

  9
$PUCSORG
 10
0.0
 20
0.0
 30
0.0
  9
$PUCSXDIR
 10
1.0
 20
0.0
 30
0.0
  9
$PUCSYDIR
 10
0.0
 20
1.0
 30
0.0
  9
$PUCSORTHOREF
  2

  9
$PUCSORTHOVIEW
 70
0
  9
$PUCSORGTOP
 10
0.0
 20
0.0
 30
0.0
  9
$PUCSORGBOTTOM
 10
0.0
 20
0.0
 30
0.0
  9
$PUCSORGLEFT
 10
0.0
 20
0.0
 30
0.0
  9
$PUCSORGRIGHT
 10
0.0
 20
0.0
 30
0.0
  9
$PUCSORGFRONT
 10
0.0
 20
0.0
 30
0.0
  9
$PUCSORGBACK
 10
0.0
 20
0.0
 30
0.0
  9
$USERI1
 70
0
  9
$USERI2
 70
0
  9
$USERI3
 70
0
  9
$USERI4
 70
0
  9
$USERI5
 70
0
  9
$USERR1
 40
0.0
  9
$USERR2
 40
0.0
  9
$USERR3
 40
0.0
  9
$USERR4
 40
0.0
  9
$USERR5
 40
0.0
  9
$WORLDVIEW
 70
1
  9
$SHADEDGE
 70
3
  9
$SHADEDIF
 70
70
  9
$TILEMODE
 70
1
  9
$MAXACTVP
 70
64
  9
$PINSBASE
 10
0.0
 20
0.0
 30
0.0
  9
$PLIMCHECK
 70
0
  9
$PEXTMIN
 10
1e+20
 20
1e+20
 30
1e+20
  9
$PEXTMAX
 10
-1e+20
 20
-1e+20
 30
-1e+20
  9
$PLIMMIN
 10
0.0
 20
0.0
  9
$PLIMMAX
 10
420.0
 20
297.0
  9
$UNITMODE
 70
0
  9
$VISRETAIN
 70
1
  9
$PLINEGEN
 70
0
  9
$PSLTSCALE
 70
1
  9
$TREEDEPTH
 70
3020
  9
$CMLSTYLE
  2
Standard
  9
$CMLJUST
 70
0
  9
$CMLSCALE
 40
20.0
  9
$PROXYGRAPHICS
 70
1
  9
$MEASUREMENT
 70
1
  9
$CELWEIGHT
370
-1
  9
$ENDCAPS
280
0
  9
$JOINSTYLE
280
0
  9
$LWDISPLAY
290
0
  9
$INSUNITS
 70
4
  9
$HYPERLINKBASE
  1

  9
$STYLESHEET
  1

  9
$XEDIT
290
1
  9
$CEPSNTYPE
380
0
  9
$PSTYLEMODE
290
1
  9
$FINGERPRINTGUID
  2
{BF4C75B4-DC40-4F0C-9E54-5A458BC04DF6}
  9
$VERSIONGUID
  2
{713D676A-D2B0-453B-8E02-9686FFC3A5CD}
  9
$EXTNAMES
290
1
  9
$PSVPSCALE
 40
0.0
  9
$OLESTARTUP
290
0
  9
$SORTENTS
280
127
  9
$INDEXCTL
280
0
  9
$HIDETEXT
280
1
  9
$XCLIPFRAME
280
1
  9
$HALOGAP
280
0
  9
$OBSCOLOR
 70
257
  9
$OBSLTYPE
280
0
  9
$INTERSECTIONDISPLAY
280
0
  9
$INTERSECTIONCOLOR
 70
257
  9
$DIMASSOC
280
2
  9
$PROJECTNAME
  1

  9
$CAMERADISPLAY
290
0
  9
$LENSLENGTH
 40
50.0
  9
$CAMERAHEIGHT
 40
0.0
  9
$STEPSPERSEC
 40
24.0
  9
$STEPSIZE
 40
100.0
  9
$3DDWFPREC
 40
2.0
  9
$PSOLWIDTH
 40
0.005
  9
$PSOLHEIGHT
 40
0.08
  9
$LOFTANG1
 40
1.570796326795
  9
$LOFTANG2
 40
1.570796326795
  9
$LOFTMAG1
 40
0.0
  9
$LOFTMAG2
 40
0.0
  9
$LOFTPARAM
 70
7
  9
$LOFTNORMALS
280
1
  9
$LATITUDE
 40
37.795
  9
$LONGITUDE
 40
-122.394
  9
$NORTHDIRECTION
 40
0.0
  9
$TIMEZONE
 70
-8000
  9
$LIGHTGLYPHDISPLAY
280
1
  9
$TILEMODELIGHTSYNCH
280
1
  9
$CMATERIAL
347
20
  9
$SOLIDHIST
280
0
  9
$SHOWHIST
280
1
  9
$DWFFRAME
280
2
  9
$DGNFRAME
280
2
  9
$REALWORLDSCALE
290
1
  9
$INTERFERECOLOR
 62
256
  9
$CSHADOW
280
0
  9
$SHADOWPLANELOCATION
 40
0.0
  0
ENDSEC
  0
SECTION
  2
CLASSES
  0
CLASS
  1
ACDBDICTIONARYWDFLT
  2
AcDbDictionaryWithDefault
  3
ObjectDBX Classes
 90
0
 91
0
280
0
281
0
  0
CLASS
  1
SUN
  2
AcDbSun
  3
SCENEOE
 90
1153
 91
0
280
0
281
0
  0
CLASS
  1
VISUALSTYLE
  2
AcDbVisualStyle
  3
ObjectDBX Classes
 90
4095
 91
0
280
0
281
0
  0
CLASS
  1
MATERIAL
  2
AcDbMaterial
  3
ObjectDBX Classes
 90
1153
 91
0
280
0
281
0
  0
CLASS
  1
SCALE
  2
AcDbScale
  3
ObjectDBX Classes
 90
1153
 91
0
280
0
281
0
  0
CLASS
  1
TABLESTYLE
  2
AcDbTableStyle
  3
ObjectDBX Classes
 90
4095
 91
0
280
0
281
0
  0
CLASS
  1
MLEADERSTYLE
  2
AcDbMLeaderStyle
  3
ACDB_MLEADERSTYLE_CLASS
 90
4095
 91
0
280
0
281
0
  0
CLASS
  1
DICTIONARYVAR
  2
AcDbDictionaryVar
  3
ObjectDBX Classes
 90
0
 91
0
280
0
281
0
  0
CLASS
  1
CELLSTYLEMAP
  2
AcDbCellStyleMap
  3
ObjectDBX Classes
 90
1152
 91
0
280
0
281
0
  0
CLASS
  1
MENTALRAYRENDERSETTINGS
  2
AcDbMentalRayRenderSettings
  3
SCENEOE
 90
1024
 91
0
280
0
281
0
  0
CLASS
  1
ACDBDETAILVIEWSTYLE
  2
AcDbDetailViewStyle
  3
ObjectDBX Classes
 90
1025
 91
0
280
0
281
0
  0
CLASS
  1
ACDBSECTIONVIEWSTYLE
  2
AcDbSectionViewStyle
  3
ObjectDBX Classes
 90
1025
 91
0
280
0
281
0
  0
CLASS
  1
RASTERVARIABLES
  2
AcDbRasterVariables
  3
ISM
 90
0
 91
0
280
0
281
0
  0
CLASS
  1
ACDBPLACEHOLDER
  2
AcDbPlaceHolder
  3
ObjectDBX Classes
 90
0
 91
0
280
0
281
0
  0
CLASS
  1
LAYOUT
  2
AcDbLayout
  3
ObjectDBX Classes
 90
0
 91
0
280
0
281
0
  0
ENDSEC
  0
SECTION
  2
TABLES
  0
TABLE
  2
VPORT
  5
8
330
0
100
AcDbSymbolTable
 70
1
  0
VPORT
  5
23
330
8
100
AcDbSymbolTableRecord
100
AcDbViewportTableRecord
  2
*Active
 70
0
 10
0.0
 20
0.0
 11
1.0
 21
1.0
 12
0.0
 22
0.0
 13
0.0
 23
0.0
 14
0.5
 24
0.5
 15
0.5
 25
0.5
 16
0.0
 26
0.0
 36
1.0
 17
0.0
 27
0.0
 37
0.0
 40
1000.0
 41
1.34
 42
50.0
 43
0.0
 44
0.0
 50
0.0
 51
0.0
 71
0
 72
1000
 73
1
 74
3
 75
0
 76
0
 77
0
 78
0
281
0
 65
0
146
0.0
  0
ENDTAB
  0
TABLE
  2
LTYPE
  5
2
330
0
100
AcDbSymbolTable
 70
3
  0
LTYPE
  5
24
330
2
100
AcDbSymbolTableRecord
100
AcDbLinetypeTableRecord
  2
ByBlock
 70
0
  3

 72
65
 73
0
 40
0.0
  0
LTYPE
  5
25
330
2
100
AcDbSymbolTableRecord
100
AcDbLinetypeTableRecord
  2
ByLayer
 70
0
  3

 72
65
 73
0
 40
0.0
  0
LTYPE
  5
26
330
2
100
AcDbSymbolTableRecord
100
AcDbLinetypeTableRecord
  2
Continuous
 70
0
  3

 72
65
 73
0
 40
0.0
  0
ENDTAB
  0
TABLE
  2
LAYER
  5
1
330
0
100
AcDbSymbolTable
 70
3
  0
LAYER
  5
27
330
1
100
AcDbSymbolTableRecord
100
AcDbLayerTableRecord
  2
0
 70
0
 62
7
  6
Continuous
370
-3
390
13
347
21
  0
LAYER
  5
28
330
1
100
AcDbSymbolTableRecord
100
AcDbLayerTableRecord
  2
Defpoints
 70
0
 62
7
  6
Continuous
290
0
370
-3
390
13
347
21
  0
LAYER
  5
2F
330
1
100
AcDbSymbolTableRecord
100
AcDbLayerTableRecord
  2
CUT
 70
0
 62
7
  6
Continuous
370
-3
390
13
347
21
  0
ENDTAB
  0
TABLE
  2
STYLE
  5
5
330
0
100
AcDbSymbolTable
 70
1
  0
STYLE
  5
29
330
5
100
AcDbSymbolTableRecord
100
AcDbTextStyleTableRecord
  2
Standard
 70
0
 40
0.0
 41
1.0
 50
0.0
 71
0
 42
2.5
  3
txt
  4

  0
ENDTAB
  0
TABLE
  2
VIEW
  5
7
330
0
100
AcDbSymbolTable
 70
0
  0
ENDTAB
  0
TABLE
  2
UCS
  5
6
330
0
100
AcDbSymbolTable
 70
0
  0
ENDTAB
  0
TABLE
  2
APPID
  5
3
330
0
100
AcDbSymbolTable
 70
3
  0
APPID
  5
2A
330
3
100
AcDbSymbolTableRecord
100
AcDbRegAppTableRecord
  2
ACAD
 70
0
  0
APPID
  5
31
330
3
100
AcDbSymbolTableRecord
100
AcDbRegAppTableRecord
  2
HATCHBACKGROUNDCOLOR
 70
0
  0
APPID
  5
32
330
3
100
AcDbSymbolTableRecord
100
AcDbRegAppTableRecord
  2
EZDXF
 70
0
  0
ENDTAB
  0
TABLE
  2
DIMSTYLE
  5
4
330
0
100
AcDbSymbolTable
 70
1
100
AcDbDimStyleTable
  0
DIMSTYLE
105
2B
330
4
100
AcDbSymbolTableRecord
100
AcDbDimStyleTableRecord
  2
Standard
 70
0
 40
1.0
 41
2.5
 42
0.625
 43
3.75
 44
1.25
 45
0.0
 46
0.0
 47
0.0
 48
0.0
 49
2.5
140
2.5
141
2.5
142
0.0
143
0.03937007874
144
1.0
145
0.0
146
1.0
147
0.625
148
0.0
 69
0
 70
0
 71
0
 72
0
 73
0
 74
0
 75
0
 76
0
 77
1
 78
8
 79
3
170
0
171
3
172
1
173
0
174
0
175
0
176
0
177
0
178
0
179
2
271
2
272
2
273
2
274
3
275
0
276
0
277
2
278
44
279
0
280
0
281
0
282
0
283
0
284
8
285
0
286
0
288
0
289
3
290
0
371
-2
372
-2
  0
ENDTAB
  0
TABLE
  2
BLOCK_RECORD
  5
9
330
0
100
AcDbSymbolTable
 70
2
  0
BLOCK_RECORD
  5
17
330
9
100
AcDbSymbolTableRecord
100
AcDbBlockTableRecord
  2
*Model_Space
340
1A
 70
0
280
1
281
0
  0
BLOCK_RECORD
  5
1B
330
9
100
AcDbSymbolTableRecord
100
AcDbBlockTableRecord
  2
*Paper_Space
340
1E
 70
0
280
1
281
0
  0
ENDTAB
  0
ENDSEC
  0
SECTION
  2
BLOCKS
  0
BLOCK
  5
18
330
17
100
AcDbEntity
  8
0
100
AcDbBlockBegin
  2
*Model_Space
 70
0
 10
0.0
 20
0.0
 30
0.0
  3
*Model_Space
  1

  0
ENDBLK
  5
19
330
17
100
AcDbEntity
  8
0
100
AcDbBlockEnd
  0
BLOCK
  5
1C
330
1B
100
AcDbEntity
  8
0
100
AcDbBlockBegin
  2
*Paper_Space
 70
0
 10
0.0
 20
0.0
 30
0.0
  3
*Paper_Space
  1

  0
ENDBLK
  5
1D
330
1B
100
AcDbEntity
  8
0
100
AcDbBlockEnd
  0
ENDSEC
  0
SECTION
  2
ENTITIES
  0
LWPOLYLINE
  5
30
330
17
100
AcDbEntity
  8
CUT
100
AcDbPolyline
 90
385
 70
1
 10
14.0
 20
7.0
 10
13.999062965366932
 20
6.885467878614593
 10
13.99625211233456
 20
6.770966420247567
 10
13.991568193436207
 20
6.656526279708074
 10
13.985012462670223
 20
6.542178095388999
 10
13.976586675164263
 20
6.427952481064323
 10
13.966293086705377
 20
6.313880017693076
 10
13.95413445313611
 20
6.199991245232075
 10
13.940114029616673
 20
6.0863166544596385
 10
13.924235569753467
 20
5.9728866788124675
 10
13.906503324594153
 20
5.859731686237879
 10
13.886922041489541
 20
5.746881971063571
 10
13.865496962822613
 20
5.634367745887102
 10
13.842233824605003
 20
5.522219133487244
 10
13.817138854941335
 20
5.410466158759387
 10
13.790218772361808
 20
5.299138740677153
 10
13.761480784023478
 20
5.188266684282355
 10
13.730932583780733
 20
5.077879672705474
 10
13.698582350125463
 20
4.968007259218764
 10
13.66443874399747
 20
4.858678859324126
 10
13.62851090646574
 20
4.749923742877869
 10
13.590808456281145
 20
4.64177102625446
 10
13.55134148730128
 20
4.534249664551366
 10
13.510120565788085
 20
4.427388443837076
 10
13.467156727579006
 20
4.321215973444371
 10
13.42246147513244
 20
4.215760678310923
 10
13.37604677444823
 20
4.111050791369237
 10
13.327925051864103
 20
4.007114345988025
 10
13.278109190728818
 20
3.903979168466991
 10
13.226612527952993
 20
3.8016728705870557
 10
13.173448850438486
 20
3.700222842218017
 10
13.118632391387312
 20
3.5996562439856197
 10
13.062177826491071
 20
3.5000000000000004
 10
13.004100270001905
 20
3.4012807906474483
 10
12.944415270686052
 20
3.303525045447425
 10
12.883138807661066
 20
3.2067589359767386
 10
12.820287286117818
 20
3.1110083688627848
 10
12.755877532928427
 20
3.016298978847712
 10
12.689926792141307
 20
2.9226561219253853
 10
12.622452720364514
 20
2.830104868552967
 10
12.553473382038646
 20
2.738669996938956
 10
12.483007244600554
 20
2.6483759864094587
 10
12.411073173539158
 20
2.559247010854482
 10
12.337690427344718
 20
2.471306932255999
 10
12.262878652352843
 20
2.3845792942995185
 10
12.186657877484713
 20
2.299087316070872
 10
12.10904850888485
 20
2.2148538858399016
 10
12.030071324457886
 20
2.1319015549327194
 10
11.949747468305834
 20
2.050252531694168
 10
11.868098445067282
 20
1.9699286755421141
 10
11.7851461141601
 20
1.8909514911151506
 10
11.700912683929129
 20
1.8133421225152873
 10
11.615420705700483
 20
1.7371213476471592
 10
11.528693067744003
 20
1.6623095726552837
 10
11.440752989145519
 20
1.5889268264608418
 10
11.351624013590541
 20
1.5169927553994471
 10
11.261330003061044
 20
1.4465266179613536
 10
11.169895131447035
 20
1.3775472796354862
 10
11.077343878074615
 20
1.3100732078586939
 10
10.983701021152289
 20
1.2441224670715751
 10
10.888991631137216
 20
1.179712713882184
 10
10.793241064023263
 20
1.1168611923389342
 10
10.696474954552578
 20
1.0555847293139475
 10
10.598719209352552
 20
0.9958997299980963
 10
10.5
 20
0.9378221735089296
 10
10.400343756014381
 20
0.8813676086126883
 10
10.299777157781985
 20
0.8265511495615154
 10
10.198327129412945
 20
0.7733874720470082
 10
10.09602083153301
 20
0.7218908092711818
 10
9.992885654011975
 20
0.6720749481358963
 10
9.888949208630764
 20
0.6239532255517704
 10
9.784239321689078
 20
0.5775385248675615
 10
9.678784026555629
 20
0.532843272420993
 10
9.572611556162926
 20
0.4898794342119155
 10
9.465750335448636
 20
0.4486585126987208
 10
9.358228973745542
 20
0.4091915437188547
 10
9.250076257122132
 20
0.37148909353426074
 10
9.141321140675874
 20
0.3355612560025296
 10
9.031992740781238
 20
0.301417649874538
 10
8.922120327294527
 20
0.2690674162192668
 10
8.811733315717646
 20
0.23851921597652215
 10
8.700861259322847
 20
0.2097812276381923
 10
8.589533841240614
 20
0.18286114505866458
 10
8.477780866512758
 20
0.1577661753949977
 10
8.365632254112898
 20
0.13450303717738699
 10
8.25311802893643
 20
0.11307795851045821
 10
8.140268313762121
 20
0.09349667540584683
 10
8.027113321187533
 20
0.0757644302465339
 10
7.913683345540362
 20
0.05988597038332699
 10
7.800008754767926
 20
0.04586554686388933
 10
7.686119982306925
 20
0.03370691329462261
 10
7.572047518935678
 20
0.023413324835737548
 10
7.457821904611003
 20
0.014987537329775868
 10
7.343473720291927
 20
0.008431806563793387
 10
7.229033579752435
 20
0.0037478876654404303
 10
7.114532121385409
 20
0.0009370346330674906
 10
7.0
 20
0.0
 10
6.885467878614594
 20
0.0009370346330674906
 10
6.770966420247568
 20
0.0037478876654404303
 10
6.656526279708076
 20
0.008431806563793387
 10
6.542178095389
 20
0.014987537329775868
 10
6.427952481064324
 20
0.023413324835737548
 10
6.313880017693077
 20
0.03370691329462172
 10
6.199991245232075
 20
0.04586554686388933
 10
6.08631665445964
 20
0.05988597038332699
 10
5.972886678812468
 20
0.07576443024653301
 10
5.859731686237881
 20
0.09349667540584683
 10
5.746881971063573
 20
0.11307795851045732
 10
5.634367745887104
 20
0.1345030371773861
 10
5.522219133487245
 20
0.15776617539499682
 10
5.410466158759388
 20
0.18286114505866458
 10
5.299138740677154
 20
0.2097812276381914
 10
5.188266684282356
 20
0.23851921597652215
 10
5.077879672705476
 20
0.2690674162192659
 10
4.968007259218765
 20
0.3014176498745371
 10
4.858678859324128
 20
0.3355612560025296
 10
4.74992374287787
 20
0.37148909353425985
 10
4.64177102625446
 20
0.4091915437188547
 10
4.534249664551368
 20
0.4486585126987199
 10
4.427388443837076
 20
0.4898794342119146
 10
4.321215973444374
 20
0.5328432724209922
 10
4.215760678310924
 20
0.5775385248675606
 10
4.111050791369237
 20
0.6239532255517686
 10
4.007114345988027
 20
0.6720749481358954
 10
3.903979168466992
 20
0.7218908092711818
 10
3.8016728705870557
 20
0.7733874720470073
 10
3.700222842218019
 20
0.8265511495615128
 10
3.599656243985622
 20
0.8813676086126865
 10
3.5000000000000018
 20
0.9378221735089287
 10
3.4012807906474483
 20
0.9958997299980954
 10
3.303525045447424
 20
1.0555847293139475
 10
3.2067589359767403
 20
1.1168611923389324
 10
3.1110083688627865
 20
1.1797127138821821
 10
3.016298978847714
 20
1.2441224670715734
 10
2.9226561219253853
 20
1.310073207858693
 10
2.830104868552967
 20
1.3775472796354853
 10
2.738669996938958
 20
1.4465266179613518
 10
2.6483759864094596
 20
1.5169927553994462
 10
2.5592470108544827
 20
1.58892682646084
 10
2.471306932255999
 20
1.6623095726552828
 10
2.3845792942995203
 20
1.7371213476471556
 10
2.2990873160708736
 20
1.8133421225152846
 10
2.2148538858399025
 20
1.8909514911151497
 10
2.1319015549327194
 20
1.9699286755421124
 10
2.050252531694168
 20
2.0502525316941673
 10
1.969928675542116
 20
2.131901554932716
 10
1.8909514911151524
 20
2.214853885839899
 10
1.8133421225152881
 20
2.29908731607087
 10
1.7371213476471592
 20
2.3845792942995176
 10
1.6623095726552837
 20
2.471306932255998
 10
1.5889268264608436
 20
2.559247010854479
 10
1.5169927553994489
 20
2.648375986409457
 10
1.4465266179613545
 20
2.7386699969389543
 10
1.3775472796354862
 20
2.830104868552966
 10
1.3100732078586939
 20
2.9226561219253853
 10
1.244122467071576
 20
3.01629897884771
 10
1.1797127138821848
 20
3.1110083688627825
 10
1.116861192338935
 20
3.2067589359767363
 10
1.0555847293139484
 20
3.303525045447423
 10
0.9958997299980972
 20
3.401280790647445
 10
0.9378221735089305
 20
3.499999999999998
 10
0.8813676086126891
 20
3.599656243985618
 10
0.8265511495615154
 20
3.700222842218015
 10
0.7733874720470082
 20
3.8016728705870544
 10
0.7218908092711827
 20
3.903979168466988
 10
0.6720749481358981
 20
4.007114345988024
 10
0.6239532255517704
 20
4.111050791369236
 10
0.5775385248675615
 20
4.215760678310922
 10
0.532843272420993
 20
4.321215973444371
 10
0.4898794342119164
 20
4.4273884438370725
 10
0.4486585126987208
 20
4.534249664551362
 10
0.4091915437188547
 20
4.641771026254458
 10
0.37148909353426074
 20
4.749923742877868
 10
0.3355612560025296
 20
4.858678859324125
 10
0.3014176498745389
 20
4.96800725921876
 10
0.2690674162192668
 20
5.077879672705471
 10
0.23851921597652215
 20
5.188266684282353
 10
0.2097812276381923
 20
5.299138740677152
 10
0.18286114505866546
 20
5.410466158759384
 10
0.1577661753949977
 20
5.522219133487241
 10
0.13450303717738699
 20
5.6343677458871
 10
0.11307795851045821
 20
5.746881971063569
 10
0.09349667540584683
 20
5.859731686237877
 10
0.0757644302465339
 20
5.972886678812465
 10
0.05988597038332699
 20
6.086316654459636
 10
0.04586554686388933
 20
6.199991245232073
 10
0.03370691329462261
 20
6.313880017693075
 10
0.023413324835737548
 20
6.427952481064321
 10
0.014987537329775868
 20
6.542178095388995
 10
0.008431806563793387
 20
6.656526279708071
 10
0.0037478876654404303
 20
6.770966420247565
 10
0.0009370346330674906
 20
6.885467878614591
 10
0.0
 20
7.0
 10
0.0009370346330674906
 20
7.1145321213854045
 10
0.0037478876654404303
 20
7.22903357975243
 10
0.008431806563793387
 20
7.343473720291924
 10
0.014987537329775868
 20
7.457821904611
 10
0.023413324835737548
 20
7.5720475189356735
 10
0.03370691329462172
 20
7.686119982306921
 10
0.04586554686388844
 20
7.800008754767922
 10
0.05988597038332699
 20
7.91368334554036
 10
0.07576443024653301
 20
8.027113321187532
 10
0.09349667540584683
 20
8.140268313762117
 10
0.11307795851045732
 20
8.253118028936425
 10
0.1345030371773861
 20
8.365632254112896
 10
0.15776617539499682
 20
8.477780866512754
 10
0.18286114505866458
 20
8.58953384124061
 10
0.2097812276381914
 20
8.700861259322844
 10
0.23851921597652126
 20
8.811733315717643
 10
0.2690674162192659
 20
8.922120327294524
 10
0.3014176498745371
 20
9.031992740781234
 10
0.3355612560025296
 20
9.14132114067587
 10
0.37148909353425985
 20
9.250076257122128
 10
0.4091915437188538
 20
9.358228973745538
 10
0.44865851269871904
 20
9.465750335448632
 10
0.4898794342119146
 20
9.572611556162924
 10
0.5328432724209913
 20
9.678784026555626
 10
0.5775385248675597
 20
9.784239321689075
 10
0.6239532255517677
 20
9.88894920863076
 10
0.6720749481358954
 20
9.992885654011973
 10
0.7218908092711818
 20
10.096020831533007
 10
0.7733874720470055
 20
10.198327129412942
 10
0.8265511495615128
 20
10.299777157781982
 10
0.8813676086126865
 20
10.400343756014378
 10
0.9378221735089287
 20
10.499999999999998
 10
0.9958997299980954
 20
10.59871920935255
 10
1.0555847293139458
 20
10.696474954552572
 10
1.1168611923389316
 20
10.79324106402326
 10
1.1797127138821821
 20
10.888991631137213
 10
1.2441224670715725
 20
10.983701021152285
 10
1.3100732078586912
 20
11.077343878074611
 10
1.3775472796354826
 20
11.169895131447031
 10
1.4465266179613518
 20
11.261330003061042
 10
1.5169927553994462
 20
11.351624013590541
 10
1.58892682646084
 20
11.440752989145517
 10
1.6623095726552801
 20
11.528693067743998
 10
1.7371213476471556
 20
11.61542070570048
 10
1.8133421225152846
 20
11.700912683929126
 10
1.8909514911151488
 20
11.785146114160097
 10
1.9699286755421124
 20
11.86809844506728
 10
2.0502525316941647
 20
11.94974746830583
 10
2.131901554932716
 20
12.030071324457884
 10
2.214853885839899
 20
12.109048508884847
 10
2.299087316070869
 20
12.186657877484713
 10
2.3845792942995168
 20
12.26287865235284
 10
2.471306932255997
 20
12.337690427344716
 10
2.5592470108544783
 20
12.411073173539156
 10
2.6483759864094534
 20
12.483007244600548
 10
2.7386699969389543
 20
12.553473382038645
 10
2.8301048685529624
 20
12.62245272036451
 10
2.9226561219253844
 20
12.689926792141307
 10
3.01629897884771
 20
12.755877532928423
 10
3.1110083688627794
 20
12.820287286117814
 10
3.2067589359767363
 20
12.883138807661066
 10
3.30352504544742
 20
12.94441527068605
 10
3.401280790647448
 20
13.004100270001903
 10
3.499999999999997
 20
13.06217782649107
 10
3.599656243985615
 20
13.118632391387308
 10
3.700222842218015
 20
13.173448850438485
 10
3.8016728705870513
 20
13.226612527952991
 10
3.9039791684669907
 20
13.278109190728818
 10
4.007114345988023
 20
13.327925051864103
 10
4.111050791369232
 20
13.376046774448227
 10
4.215760678310922
 20
13.422461475132438
 10
4.321215973444367
 20
13.467156727579006
 10
4.427388443837074
 20
13.510120565788085
 10
4.534249664551362
 20
13.55134148730128
 10
4.641771026254455
 20
13.590808456281144
 10
4.749923742877868
 20
13.628510906465738
 10
4.858678859324122
 20
13.664438743997469
 10
4.968007259218763
 20
13.698582350125463
 10
5.077879672705471
 20
13.730932583780731
 10
5.1882666842823495
 20
13.761480784023476
 10
5.299138740677151
 20
13.790218772361808
 10
5.410466158759384
 20
13.817138854941334
 10
5.522219133487237
 20
13.842233824605001
 10
5.634367745887099
 20
13.865496962822611
 10
5.746881971063566
 20
13.886922041489541
 10
5.859731686237877
 20
13.906503324594153
 10
5.972886678812464
 20
13.924235569753467
 10
6.086316654459632
 20
13.940114029616673
 10
6.199991245232073
 20
13.95413445313611
 10
6.31388001769307
 20
13.966293086705377
 10
6.427952481064321
 20
13.976586675164263
 10
6.542178095388994
 20
13.985012462670223
 10
6.656526279708068
 20
13.991568193436205
 10
6.770966420247564
 20
13.99625211233456
 10
6.8854678786145875
 20
13.999062965366932
 10
7.0
 20
14.0
 10
7.114532121385404
 20
13.999062965366932
 10
7.229033579752427
 20
13.99625211233456
 10
7.343473720291923
 20
13.991568193436207
 10
7.457821904610997
 20
13.985012462670225
 10
7.572047518935676
 20
13.976586675164263
 10
7.686119982306921
 20
13.966293086705377
 10
7.800008754767918
 20
13.954134453136112
 10
7.913683345540359
 20
13.940114029616673
 10
8.027113321187528
 20
13.924235569753467
 10
8.140268313762121
 20
13.906503324594153
 10
8.253118028936425
 20
13.886922041489543
 10
8.365632254112892
 20
13.865496962822615
 10
8.477780866512754
 20
13.842233824605003
 10
8.589533841240607
 20
13.817138854941337
 10
8.700861259322846
 20
13.790218772361808
 10
8.811733315717643
 20
13.76148078402348
 10
8.92212032729452
 20
13.730932583780735
 10
9.031992740781234
 20
13.698582350125463
 10
9.14132114067587
 20
13.664438743997472
 10
9.25007625712213
 20
13.62851090646574
 10
9.358228973745536
 20
13.590808456281145
 10
9.465750335448629
 20
13.551341487301283
 10
9.572611556162922
 20
13.510120565788085
 10
9.678784026555624
 20
13.46715672757901
 10
9.784239321689071
 20
13.422461475132442
 10
9.88894920863076
 20
13.376046774448232
 10
9.99288565401197
 20
13.327925051864106
 10
10.096020831533007
 20
13.27810919072882
 10
10.198327129412942
 20
13.226612527952994
 10
10.299777157781978
 20
13.173448850438488
 10
10.400343756014378
 20
13.118632391387314
 10
10.499999999999996
 20
13.062177826491073
 10
10.59871920935255
 20
13.004100270001906
 10
10.696474954552572
 20
12.944415270686054
 10
10.793241064023256
 20
12.88313880766107
 10
10.888991631137213
 20
12.820287286117818
 10
10.983701021152283
 20
12.755877532928428
 10
11.077343878074615
 20
12.689926792141307
 10
11.169895131447031
 20
12.622452720364517
 10
11.26133000306104
 20
12.55347338203865
 10
11.35162401359054
 20
12.483007244600554
 10
11.440752989145516
 20
12.411073173539162
 10
11.528693067744001
 20
12.337690427344718
 10
11.61542070570048
 20
12.262878652352844
 10
11.700912683929124
 20
12.186657877484718
 10
11.785146114160097
 20
12.10904850888485
 10
11.868098445067279
 20
12.03007132445789
 10
11.949747468305832
 20
11.949747468305834
 10
12.030071324457882
 20
11.868098445067284
 10
12.109048508884845
 20
11.785146114160103
 10
12.186657877484713
 20
11.70091268392913
 10
12.262878652352839
 20
11.615420705700487
 10
12.337690427344715
 20
11.528693067744003
 10
12.411073173539156
 20
11.440752989145523
 10
12.483007244600548
 20
11.351624013590547
 10
12.553473382038645
 20
11.261330003061046
 10
12.62245272036451
 20
11.169895131447038
 10
12.689926792141307
 20
11.077343878074615
 10
12.755877532928423
 20
10.98370102115229
 10
12.820287286117814
 20
10.88899163113722
 10
12.883138807661066
 20
10.793241064023265
 10
12.94441527068605
 20
10.69647495455258
 10
13.004100270001901
 20
10.59871920935256
 10
13.06217782649107
 20
10.500000000000004
 10
13.118632391387308
 20
10.400343756014387
 10
13.173448850438483
 20
10.299777157781985
 10
13.226612527952991
 20
10.198327129412949
 10
13.278109190728815
 20
10.096020831533014
 10
13.327925051864103
 20
9.992885654011978
 10
13.376046774448227
 20
9.888949208630768
 10
13.422461475132438
 20
9.784239321689078
 10
13.467156727579006
 20
9.678784026555633
 10
13.510120565788082
 20
9.572611556162931
 10
13.55134148730128
 20
9.465750335448638
 10
13.590808456281144
 20
9.358228973745547
 10
13.628510906465738
 20
9.250076257122133
 10
13.664438743997469
 20
9.141321140675878
 10
13.69858235012546
 20
9.031992740781243
 10
13.730932583780731
 20
8.922120327294529
 10
13.761480784023476
 20
8.811733315717651
 10
13.790218772361808
 20
8.70086125932285
 10
13.817138854941334
 20
8.589533841240616
 10
13.842233824605001
 20
8.477780866512763
 10
13.865496962822611
 20
8.365632254112901
 10
13.886922041489541
 20
8.253118028936434
 10
13.906503324594153
 20
8.140268313762123
 10
13.924235569753467
 20
8.027113321187537
 10
13.940114029616673
 20
7.913683345540368
 10
13.95413445313611
 20
7.800008754767928
 10
13.966293086705377
 20
7.68611998230693
 10
13.976586675164263
 20
7.57204751893568
 10
13.985012462670223
 20
7.457821904611006
 10
13.991568193436205
 20
7.343473720291933
 10
13.99625211233456
 20
7.229033579752436
 10
13.999062965366932
 20
7.114532121385413
 10
14.0
 20
7.0
  0
ENDSEC
  0
SECTION
  2
OBJECTS
  0
DICTIONARY
  5
A
330
0
100
AcDbDictionary
281
1
  3
ACAD_COLOR
350
B
  3
ACAD_GROUP
350
C
  3
ACAD_LAYOUT
350
D
  3
ACAD_MATERIAL
350
E
  3
ACAD_MLEADERSTYLE
350
F
  3
ACAD_MLINESTYLE
350
10
  3
ACAD_PLOTSETTINGS
350
11
  3
ACAD_PLOTSTYLENAME
350
12
  3
ACAD_SCALELIST
350
14
  3
ACAD_TABLESTYLE
350
15
  3
ACAD_VISUALSTYLE
350
16
  3
EZDXF_META
350
2D
  0
DICTIONARY
  5
B
330
A
100
AcDbDictionary
281
1
  0
DICTIONARY
  5
C
330
A
100
AcDbDictionary
281
1
  0
DICTIONARY
  5
D
330
A
100
AcDbDictionary
281
1
  3
Model
350
1A
  3
Layout1
350
1E
  0
DICTIONARY
  5
E
330
A
100
AcDbDictionary
281
1
  3
ByBlock
350
1F
  3
ByLayer
350
20
  3
Global
350
21
  0
DICTIONARY
  5
F
330
A
100
AcDbDictionary
281
1
  3
Standard
350
2C
  0
DICTIONARY
  5
10
330
A
100
AcDbDictionary
281
1
  3
Standard
350
22
  0
DICTIONARY
  5
11
330
A
100
AcDbDictionary
281
1
  0
ACDBDICTIONARYWDFLT
  5
12
330
A
100
AcDbDictionary
281
1
  3
Normal
350
13
100
AcDbDictionaryWithDefault
340
13
  0
ACDBPLACEHOLDER
  5
13
330
12
  0
DICTIONARY
  5
14
330
A
100
AcDbDictionary
281
1
  0
DICTIONARY
  5
15
330
A
100
AcDbDictionary
281
1
  0
DICTIONARY
  5
16
330
A
100
AcDbDictionary
281
1
  0
LAYOUT
  5
1A
330
D
100
AcDbPlotSettings
  1

  4
A3
  6

 40
7.5
 41
20.0
 42
7.5
 43
20.0
 44
420.0
 45
297.0
 46
0.0
 47
0.0
 48
0.0
 49
0.0
140
0.0
141
0.0
142
1.0
143
1.0
 70
1024
 72
1
 73
0
 74
5
  7

 75
16
 76
0
 77
2
 78
300
147
1.0
148
0.0
149
0.0
100
AcDbLayout
  1
Model
 70
1
 71
0
 10
0.0
 20
0.0
 11
420.0
 21
297.0
 12
0.0
 22
0.0
 32
0.0
 14
1e+20
 24
1e+20
 34
1e+20
 15
-1e+20
 25
-1e+20
 35
-1e+20
146
0.0
 13
0.0
 23
0.0
 33
0.0
 16
1.0
 26
0.0
 36
0.0
 17
0.0
 27
1.0
 37
0.0
 76
1
330
17
  0
LAYOUT
  5
1E
330
D
100
AcDbPlotSettings
  1

  4
A3
  6

 40
7.5
 41
20.0
 42
7.5
 43
20.0
 44
420.0
 45
297.0
 46
0.0
 47
0.0
 48
0.0
 49
0.0
140
0.0
141
0.0
142
1.0
143
1.0
 70
0
 72
1
 73
0
 74
5
  7

 75
16
 76
0
 77
2
 78
300
147
1.0
148
0.0
149
0.0
100
AcDbLayout
  1
Layout1
 70
1
 71
1
 10
0.0
 20
0.0
 11
420.0
 21
297.0
 12
0.0
 22
0.0
 32
0.0
 14
1e+20
 24
1e+20
 34
1e+20
 15
-1e+20
 25
-1e+20
 35
-1e+20
146
0.0
 13
0.0
 23
0.0
 33
0.0
 16
1.0
 26
0.0
 36
0.0
 17
0.0
 27
1.0
 37
0.0
 76
1
330
1B
  0
MATERIAL
  5
1F
102
{ACAD_REACTORS
330
E
102
}
330
E
100
AcDbMaterial
  1
ByBlock
  2

 70
0
 40
1.0
 71
1
 41
1.0
 91
-1023410177
 42
1.0
 72
1
  3

 73
1
 74
1
 75
1
 44
0.5
 73
0
 45
1.0
 46
1.0
 77
1
  4

 78
1
 79
1
170
1
 48
1.0
171
1
  6

172
1
173
1
174
1
140
1.0
141
1.0
175
1
  7

176
1
177
1
178
1
143
1.0
179
1
  8

270
1
271
1
272
1
145
1.0
146
1.0
273
1
  9

274
1
275
1
276
1
 42
1.0
 72
1
  3

 73
1
 74
1
 75
1
 94
63
  0
MATERIAL
  5
20
102
{ACAD_REACTORS
330
E
102
}
330
E
100
AcDbMaterial
  1
ByLayer
  2

 70
0
 40
1.0
 71
1
 41
1.0
 91
-1023410177
 42
1.0
 72
1
  3

 73
1
 74
1
 75
1
 44
0.5
 73
0
 45
1.0
 46
1.0
 77
1
  4

 78
1
 79
1
170
1
 48
1.0
171
1
  6

172
1
173
1
174
1
140
1.0
141
1.0
175
1
  7

176
1
177
1
178
1
143
1.0
179
1
  8

270
1
271
1
272
1
145
1.0
146
1.0
273
1
  9

274
1
275
1
276
1
 42
1.0
 72
1
  3

 73
1
 74
1
 75
1
 94
63
  0
MATERIAL
  5
21
102
{ACAD_REACTORS
330
E
102
}
330
E
100
AcDbMaterial
  1
Global
  2

 70
0
 40
1.0
 71
1
 41
1.0
 91
-1023410177
 42
1.0
 72
1
  3

 73
1
 74
1
 75
1
 44
0.5
 73
0
 45
1.0
 46
1.0
 77
1
  4

 78
1
 79
1
170
1
 48
1.0
171
1
  6

172
1
173
1
174
1
140
1.0
141
1.0
175
1
  7

176
1
177
1
178
1
143
1.0
179
1
  8

270
1
271
1
272
1
145
1.0
146
1.0
273
1
  9

274
1
275
1
276
1
 42
1.0
 72
1
  3

 73
1
 74
1
 75
1
 94
63
  0
MLINESTYLE
  5
22
102
{ACAD_REACTORS
330
10
102
}
330
10
100
AcDbMlineStyle
  2
Standard
 70
0
  3

 62
256
 51
90.0
 52
90.0
 71
2
 49
0.5
 62
256
  6
BYLAYER
 49
-0.5
 62
256
  6
BYLAYER
  0
MLEADERSTYLE
  5
2C
102
{ACAD_REACTORS
330
F
102
}
330
F
100
AcDbMLeaderStyle
179
2
170
2
171
1
172
0
 90
2
 40
0.0
 41
0.0
173
1
 91
-1056964608
 92
-2
290
1
 42
2.0
291
1
 43
8.0
  3
Standard
 44
4.0
300

342
29
174
1
175
1
176
0
178
1
 93
-1056964608
 45
4.0
292
0
297
0
 46
4.0
 94
-1056964608
 47
1.0
 49
1.0
140
1.0
294
1
141
0.0
177
0
142
1.0
295
0
296
0
143
3.75
271
0
272
9
273
9
  0
DICTIONARY
  5
2D
330
A
100
AcDbDictionary
280
1
281
1
  3
CREATED_BY_EZDXF
350
2E
  3
WRITTEN_BY_EZDXF
350
33
  0
DICTIONARYVAR
  5
2E
330
2D
100
DictionaryVariables
280
0
  1
1.4.4 @ 2026-10-05T06:27:39.456715+00:00
  0
DICTIONARYVAR
  5
33
330
2D
100
DictionaryVariables
280
0
  1
1.4.4 @ 2026-10-05T06:27:39.458955+00:00
  0
ENDSEC
  0
EOF
