0
SECTION
2
HEADER
9
$ACADVER
1
AC1024
9
$INSUNITS
70
4
0
ENDSEC
0
SECTION
2
TABLES
0
TABLE
2
LAYER
70
1
0
LAYER
2
CUT
70
0
62
7
6
CONTINUOUS
0
ENDTAB
0
ENDSEC
0
SECTION
2
ENTITIES
0
LWPOLYLINE
100
AcDbEntity
8
CUT
100
AcDbPolyline
90
354
70
1
10
44
20
0
10
22
20
0
10
22
20
7.51120300621
10
21.9674020423
20
7.48824493414
10
21.7779832623
20
7.35942542776
10
21.586482128
20
7.23372238468
10
21.3929499091
20
7.11116945863
10
21.1974384187
20
6.99179946
10
21
20
6.87564434702
10
20.800687512
20
6.76273521723
10
20.5995543156
20
6.65310229912
10
20.3966542588
20
6.54677494409
10
20.1920416631
20
6.44378161854
10
19.985771308
20
6.34414989627
10
19.7778984173
20
6.2479064511
10
19.5684786434
20
6.15507704974
10
19.3575680531
20
6.06568654484
10
19.1452231123
20
5.97975886842
10
18.9315006709
20
5.8973170254
10
18.7164579475
20
5.81838308744
10
18.5001525142
20
5.74297818707
10
18.2826422814
20
5.67112251201
10
18.0639854816
20
5.60283529975
10
17.8442406546
20
5.53813483244
10
17.6234666314
20
5.47703843195
10
17.4017225186
20
5.41956245528
10
17.1790676825
20
5.36572229012
10
16.955561733
20
5.31553235079
10
16.7312645082
20
5.26900607435
10
16.5062360579
20
5.22615591702
10
16.2805366275
20
5.18699335081
10
16.0542266424
20
5.15152886049
10
15.8273666911
20
5.11977194077
10
15.6000175095
20
5.09173109373
10
15.3722399646
20
5.06741382659
10
15.1440950379
20
5.04682664967
10
14.9156438092
20
5.02997507466
10
14.6869474406
20
5.01686361313
10
14.4580671595
20
5.00749577533
10
14.2290642428
20
5.00187406927
10
14
20
5
10
13.7709357572
20
5.00187406927
10
13.5419328405
20
5.00749577533
10
13.3130525594
20
5.01686361313
10
13.0843561908
20
5.02997507466
10
12.8559049621
20
5.04682664967
10
12.6277600354
20
5.06741382659
10
12.3999824905
20
5.09173109373
10
12.1726333089
20
5.11977194077
10
11.9457733576
20
5.15152886049
10
11.7194633725
20
5.18699335081
10
11.4937639421
20
5.22615591702
10
11.2687354918
20
5.26900607435
10
11.044438267
20
5.31553235079
10
10.8209323175
20
5.36572229012
10
10.5982774814
20
5.41956245528
10
10.3765333686
20
5.47703843195
10
10.1557593454
20
5.53813483244
10
9.93601451844
20
5.60283529975
10
9.71735771865
20
5.67112251201
10
9.49984748576
20
5.74297818707
10
9.28354205251
20
5.81838308744
10
9.0684993291
20
5.8973170254
10
8.85477688767
20
5.97975886842
10
8.64243194689
20
6.06568654484
10
8.43152135662
20
6.15507704974
10
8.22210158274
20
6.2479064511
10
8.01422869198
20
6.34414989627
10
7.80795833693
20
6.44378161854
10
7.60334574117
20
6.54677494409
10
7.40044568444
20
6.65310229912
10
7.19931248797
20
6.76273521723
10
7
20
6.87564434702
10
6.80256158129
20
6.99179946
10
6.60705009089
20
7.11116945863
10
6.41351787195
20
7.23372238468
10
6.22201673773
20
7.35942542776
10
6.0325979577
20
7.48824493414
10
5.84531224385
20
7.62014641572
10
5.66020973711
20
7.75509455927
10
5.47733999388
20
7.89305323592
10
5.29675197282
20
8.0339855108
10
5.11849402171
20
8.17785365292
10
4.94261386451
20
8.32461914531
10
4.7691585886
20
8.47424269529
10
4.59817463214
20
8.62668424503
10
4.42970777168
20
8.78190298223
10
4.26380310987
20
8.93985735108
10
4.10050506339
20
9.10050506339
10
3.93985735108
20
9.26380310987
10
3.78190298223
20
9.42970777168
10
3.62668424503
20
9.59817463214
10
3.47424269529
20
9.7691585886
10
3.32461914531
20
9.94261386451
10
3.17785365292
20
10.1184940217
10
3.0339855108
20
10.2967519728
10
2.89305323592
20
10.4773399939
10
2.75509455927
20
10.6602097371
10
2.62014641572
20
10.8453122439
10
2.48824493414
20
11.0325979577
10
2.35942542776
20
11.2220167377
10
2.23372238468
20
11.413517872
10
2.11116945863
20
11.6070500909
10
1.99179946
20
11.8025615813
10
1.87564434702
20
12
10
1.76273521723
20
12.199312488
10
1.65310229912
20
12.4004456844
10
1.54677494409
20
12.6033457412
10
1.44378161854
20
12.8079583369
10
1.34414989627
20
13.014228692
10
1.2479064511
20
13.2221015827
10
1.15507704974
20
13.4315213566
10
1.06568654484
20
13.6424319469
10
0.979758868424
20
13.8547768877
10
0.897317025397
20
14.0684993291
10
0.818383087438
20
14.2835420525
10
0.742978187069
20
14.4998474858
10
0.671122512005
20
14.7173577186
10
0.602835299749
20
14.9360145184
10
0.538134832439
20
15.1557593454
10
0.477038431953
20
15.3765333686
10
0.419562455276
20
15.5982774814
10
0.365722290117
20
15.8209323175
10
0.31553235079
20
16.044438267
10
0.269006074355
20
16.2687354918
10
0.226155917021
20
16.4937639421
10
0.186993350812
20
16.7194633725
10
0.151528860493
20
16.9457733576
10
0.119771940767
20
17.1726333089
10
0.0917310937278
20
17.3999824905
10
0.0674138265892
20
17.6277600354
10
0.0468266496715
20
17.8559049621
10
0.0299750746596
20
18.0843561908
10
0.0168636131276
20
18.3130525594
10
0.00749577533088
20
18.5419328405
10
0.00187406926614
20
18.7709357572
10
0
20
19
10
0.00187406926614
20
19.2290642428
10
0.00749577533088
20
19.4580671595
10
0.0168636131276
20
19.6869474406
10
0.0299750746596
20
19.9156438092
10
0.0468266496715
20
20.1440950379
10
0.0674138265892
20
20.3722399646
10
0.0917310937278
20
20.6000175095
10
0.119771940767
20
20.8273666911
10
0.151528860493
20
21.0542266424
10
0.186993350812
20
21.2805366275
10
0.226155917021
20
21.5062360579
10
0.269006074355
20
21.7312645082
10
0.31553235079
20
21.955561733
10
0.365722290117
20
22.1790676825
10
0.419562455276
20
22.4017225186
10
0.477038431953
20
22.6234666314
10
0.538134832439
20
22.8442406546
10
0.602835299749
20
23.0639854816
10
0.671122512005
20
23.2826422814
10
0.742978187069
20
23.5001525142
10
0.818383087438
20
23.7164579475
10
0.897317025397
20
23.9315006709
10
0.979758868424
20
24.1452231123
10
1.06568654484
20
24.3575680531
10
1.15507704974
20
24.5684786434
10
1.2479064511
20
24.7778984173
10
1.34414989627
20
24.985771308
10
1.44378161854
20
25.1920416631
10
1.54677494409
20
25.3966542588
10
1.65310229912
20
25.5995543156
10
1.76273521723
20
25.800687512
10
1.87564434702
20
26
10
1.99179946
20
26.1974384187
10
2.11116945863
20
26.3929499091
10
2.23372238468
20
26.586482128
10
2.35942542776
20
26.7779832623
10
2.48824493414
20
26.9674020423
10
2.62014641572
20
27.1546877561
10
2.75509455927
20
27.3397902629
10
2.89305323592
20
27.5226600061
10
3.0339855108
20
27.7032480272
10
3.17785365292
20
27.8815059783
10
3.32461914531
20
28.0573861355
10
3.47424269529
20
28.2308414114
10
3.62668424503
20
28.4018253679
10
3.78190298223
20
28.5702922283
10
3.93985735108
20
28.7361968901
10
4.10050506339
20
28.8994949366
10
4.26380310987
20
29.0601426489
10
4.42970777168
20
29.2180970178
10
4.59817463214
20
29.373315755
10
4.7691585886
20
29.5257573047
10
4.94261386451
20
29.6753808547
10
5.11849402171
20
29.8221463471
10
5.29675197282
20
29.9660144892
10
5.47733999388
20
30.1069467641
10
5.66020973711
20
30.2449054407
10
5.84531224385
20
30.3798535843
10
6.0325979577
20
30.5117550659
10
6.22201673773
20
30.6405745722
10
6.41351787195
20
30.7662776153
10
6.60705009089
20
30.8888305414
10
6.80256158129
20
31.00820054
10
7
20
31.124355653
10
7.19931248797
20
31.2372647828
10
7.40044568444
20
31.3468977009
10
7.60334574117
20
31.4532250559
10
7.80795833693
20
31.5562183815
10
8.01422869198
20
31.6558501037
10
8.22210158274
20
31.7520935489
10
8.43152135662
20
31.8449229503
10
8.64243194689
20
31.9343134552
10
8.85477688767
20
32.0202411316
10
9.0684993291
20
32.1026829746
10
9.28354205251
20
32.1816169126
10
9.49984748576
20
32.2570218129
10
9.71735771865
20
32.328877488
10
9.93601451844
20
32.3971647003
10
10.1557593454
20
32.4618651676
10
10.3765333686
20
32.522961568
10
10.5982774814
20
32.5804375447
10
10.8209323175
20
32.6342777099
10
11.044438267
20
32.6844676492
10
11.2687354918
20
32.7309939256
10
11.4937639421
20
32.773844083
10
11.7194633725
20
32.8130066492
10
11.9457733576
20
32.8484711395
10
12.1726333089
20
32.8802280592
10
12.3999824905
20
32.9082689063
10
12.6277600354
20
32.9325861734
10
12.8559049621
20
32.9531733503
10
13.0843561908
20
32.9700249253
10
13.3130525594
20
32.9831363869
10
13.5419328405
20
32.9925042247
10
13.7709357572
20
32.9981259307
10
14
20
33
10
14.2290642428
20
32.9981259307
10
14.4580671595
20
32.9925042247
10
14.6869474406
20
32.9831363869
10
14.9156438092
20
32.9700249253
10
15.1440950379
20
32.9531733503
10
15.3722399646
20
32.9325861734
10
15.6000175095
20
32.9082689063
10
15.8273666911
20
32.8802280592
10
16.0542266424
20
32.8484711395
10
16.2805366275
20
32.8130066492
10
16.5062360579
20
32.773844083
10
16.7312645082
20
32.7309939256
10
16.955561733
20
32.6844676492
10
17.1790676825
20
32.6342777099
10
17.4017225186
20
32.5804375447
10
17.6234666314
20
32.522961568
10
17.8442406546
20
32.4618651676
10
18.0639854816
20
32.3971647003
10
18.2826422814
20
32.328877488
10
18.5001525142
20
32.2570218129
10
18.7164579475
20
32.1816169126
10
18.9315006709
20
32.1026829746
10
19.1452231123
20
32.0202411316
10
19.3575680531
20
31.9343134552
10
19.5684786434
20
31.8449229503
10
19.7778984173
20
31.7520935489
10
19.985771308
20
31.6558501037
10
20.1920416631
20
31.5562183815
10
20.3966542588
20
31.4532250559
10
20.5995543156
20
31.3468977009
10
20.800687512
20
31.2372647828
10
21
20
31.124355653
10
21.1974384187
20
31.00820054
10
21.3929499091
20
30.8888305414
10
21.586482128
20
30.7662776153
10
21.7779832623
20
30.6405745722
10
21.9674020423
20
30.5117550659
10
22.1546877561
20
30.3798535843
10
22.3397902629
20
30.2449054407
10
22.5226600061
20
30.1069467641
10
22.7032480272
20
29.9660144892
10
22.8815059783
20
29.8221463471
10
23.0573861355
20
29.6753808547
10
23.2308414114
20
29.5257573047
10
23.4018253679
20
29.373315755
10
23.5702922283
20
29.2180970178
10
23.7361968901
20
29.0601426489
10
23.8994949366
20
28.8994949366
10
24.0601426489
20
28.7361968901
10
24.2180970178
20
28.5702922283
10
24.373315755
20
28.4018253679
10
24.5257573047
20
28.2308414114
10
24.6753808547
20
28.0573861355
10
24.8221463471
20
27.8815059783
10
24.9660144892
20
27.7032480272
10
25.1069467641
20
27.5226600061
10
25.2449054407
20
27.3397902629
10
25.3798535843
20
27.1546877561
10
25.5117550659
20
26.9674020423
10
25.6405745722
20
26.7779832623
10
25.7662776153
20
26.586482128
10
25.8888305414
20
26.3929499091
10
26.00820054
20
26.1974384187
10
26.124355653
20
26
10
26.2372647828
20
25.800687512
10
26.3468977009
20
25.5995543156
10
26.4532250559
20
25.3966542588
10
26.5562183815
20
25.1920416631
10
26.6558501037
20
24.985771308
10
26.7520935489
20
24.7778984173
10
26.8449229503
20
24.5684786434
10
26.9343134552
20
24.3575680531
10
27.0202411316
20
24.1452231123
10
27.1026829746
20
23.9315006709
10
27.1816169126
20
23.7164579475
10
27.2570218129
20
23.5001525142
10
27.328877488
20
23.2826422814
10
27.3971647003
20
23.0639854816
10
27.4618651676
20
22.8442406546
10
27.522961568
20
22.6234666314
10
27.5804375447
20
22.4017225186
10
27.6342777099
20
22.1790676825
10
27.6844676492
20
21.955561733
10
27.7309939256
20
21.7312645082
10
27.773844083
20
21.5062360579
10
27.8130066492
20
21.2805366275
10
27.8484711395
20
21.0542266424
10
27.8802280592
20
20.8273666911
10
27.9082689063
20
20.6000175095
10
27.9325861734
20
20.3722399646
10
27.9531733503
20
20.1440950379
10
27.9700249253
20
19.9156438092
10
27.9831363869
20
19.6869474406
10
27.9925042247
20
19.4580671595
10
27.9981259307
20
19.2290642428
10
28
20
19
10
27.9981259307
20
18.7709357572
10
27.9925042247
20
18.5419328405
10
27.9831363869
20
18.3130525594
10
27.9700249253
20
18.0843561908
10
27.9531733503
20
17.8559049621
10
27.9325861734
20
17.6277600354
10
27.9082689063
20
17.3999824905
10
27.8802280592
20
17.1726333089
10
27.8484711395
20
16.9457733576
10
27.8130066492
20
16.7194633725
10
27.773844083
20
16.4937639421
10
27.7309939256
20
16.2687354918
10
27.6844676492
20
16.044438267
10
27.6342777099
20
15.8209323175
10
27.5804375447
20
15.5982774814
10
27.522961568
20
15.3765333686
10
27.4618651676
20
15.1557593454
10
27.3971647003
20
14.9360145184
10
27.328877488
20
14.7173577186
10
27.2570218129
20
14.4998474858
10
27.1816169126
20
14.2835420525
10
27.1026829746
20
14.0684993291
10
27.0762598676
20
14
10
44
20
14
10
44
20
0
0
LWPOLYLINE
100
AcDbEntity
8
CUT
100
AcDbPolyline
90
385
70
1
10
21.2990228067
20
19.1194406409
10
21.2960914886
20
19.2388493046
10
21.2912068303
20
19.3581940226
10
21.2843701396
20
19.4774428434
10
21.275583247
20
19.5965638412
10
21.2648485047
20
19.7155251244
10
21.2521687868
20
19.8342948443
10
21.237547488
20
19.9528412032
10
21.2209885227
20
20.0711324635
10
21.2024963242
20
20.1891369558
10
21.1820758433
20
20.3068230873
10
21.1597325469
20
20.4241593507
10
21.1354724171
20
20.5411143322
10
21.1093019487
20
20.6576567202
10
21.0812281483
20
20.7737553133
10
21.0512585319
20
20.8893790292
10
21.0194011231
20
21.0044969128
10
20.9856644508
20
21.119078144
10
20.9500575473
20
21.2330920467
10
20.9125899453
20
21.3465080967
10
20.8732716758
20
21.4592959298
10
20.8321132653
20
21.5714253498
10
20.7891257329
20
21.6828663371
10
20.7443205873
20
21.7935890563
10
20.6977098241
20
21.903563864
10
20.6493059219
20
22.0127613176
10
20.5991218398
20
22.121152182
10
20.5471710132
20
22.2287074386
10
20.4934673506
20
22.3353982921
10
20.4380252297
20
22.4411961788
10
20.3808594939
20
22.5460727741
10
20.3219854476
20
22.65
10
20.261418853
20
22.7529500326
10
20.1991759251
20
22.8548953097
10
20.135273328
20
22.9558085382
10
20.0697281698
20
23.055662701
10
20.0025579986
20
23.1544310649
10
19.9337807975
20
23.2520871871
10
19.8634149798
20
23.3486049228
10
19.7914793841
20
23.4439584318
10
19.7179932694
20
23.5381221856
10
19.6429763095
20
23.6310709744
10
19.5664485885
20
23.7227799135
10
19.4884305946
20
23.8132244502
10
19.4089432151
20
23.9023803704
10
19.3280077307
20
23.9902238048
10
19.2456458098
20
24.0767312356
10
19.1618795027
20
24.1618795027
10
19.0767312356
20
24.2456458098
10
18.9902238048
20
24.3280077307
10
18.9023803704
20
24.4089432151
10
18.8132244502
20
24.4884305946
10
18.7227799135
20
24.5664485885
10
18.6310709744
20
24.6429763095
10
18.5381221856
20
24.7179932694
10
18.4439584318
20
24.7914793841
10
18.3486049228
20
24.8634149798
10
18.2520871871
20
24.9337807975
10
18.1544310649
20
25.0025579986
10
18.055662701
20
25.0697281698
10
17.9558085382
20
25.135273328
10
17.8548953097
20
25.1991759251
10
17.7529500326
20
25.261418853
10
17.65
20
25.3219854476
10
17.5460727741
20
25.3808594939
10
17.4411961788
20
25.4380252297
10
17.3353982921
20
25.4934673506
10
17.2287074386
20
25.5471710132
10
17.121152182
20
25.5991218398
10
17.0127613176
20
25.6493059219
10
16.903563864
20
25.6977098241
10
16.7935890563
20
25.7443205873
10
16.6828663371
20
25.7891257329
10
16.5714253498
20
25.8321132653
10
16.4592959298
20
25.8732716758
10
16.3465080967
20
25.9125899453
10
16.2330920467
20
25.9500575473
10
16.119078144
20
25.9856644508
10
16.0044969127
20
26.0194011231
10
15.8893790292
20
26.0512585319
10
15.7737553133
20
26.0812281483
10
15.6576567202
20
26.1093019487
10
15.5411143322
20
26.1354724171
10
15.4241593507
20
26.1597325469
10
15.3068230873
20
26.1820758433
10
15.1891369558
20
26.2024963242
10
15.0711324635
20
26.2209885227
10
14.9528412032
20
26.237547488
10
14.8342948443
20
26.2521687868
10
14.7155251244
20
26.2648485047
10
14.5965638412
20
26.275583247
10
14.4774428434
20
26.2843701396
10
14.3581940226
20
26.2912068303
10
14.2388493046
20
26.2960914886
10
14.1194406409
20
26.2990228067
10
14
20
26.3
10
13.8805593591
20
26.2990228067
10
13.7611506954
20
26.2960914886
10
13.6418059774
20
26.2912068303
10
13.5225571566
20
26.2843701396
10
13.4034361588
20
26.275583247
10
13.2844748756
20
26.2648485047
10
13.1657051557
20
26.2521687868
10
13.0471587968
20
26.237547488
10
12.9288675365
20
26.2209885227
10
12.8108630442
20
26.2024963242
10
12.6931769127
20
26.1820758433
10
12.5758406493
20
26.1597325469
10
12.4588856678
20
26.1354724171
10
12.3423432798
20
26.1093019487
10
12.2262446867
20
26.0812281483
10
12.1106209708
20
26.0512585319
10
11.9955030872
20
26.0194011231
10
11.880921856
20
25.9856644508
10
11.7669079533
20
25.9500575473
10
11.6534919033
20
25.9125899453
10
11.5407040702
20
25.8732716758
10
11.4285746502
20
25.8321132653
10
11.3171336629
20
25.7891257329
10
11.2064109437
20
25.7443205873
10
11.096436136
20
25.6977098241
10
10.9872386824
20
25.6493059219
10
10.878847818
20
25.5991218398
10
10.7712925614
20
25.5471710132
10
10.6646017079
20
25.4934673506
10
10.5588038212
20
25.4380252297
10
10.4539272259
20
25.3808594939
10
10.35
20
25.3219854476
10
10.2470499674
20
25.261418853
10
10.1451046903
20
25.1991759251
10
10.0441914618
20
25.135273328
10
9.94433729896
20
25.0697281698
10
9.84556893508
20
25.0025579986
10
9.74791281287
20
24.9337807975
10
9.65139507721
20
24.8634149798
10
9.55604156824
20
24.7914793841
10
9.4618778144
20
24.7179932694
10
9.36892902561
20
24.6429763095
10
9.2772200865
20
24.5664485885
10
9.18677554977
20
24.4884305946
10
9.09761962962
20
24.4089432151
10
9.00977619523
20
24.3280077307
10
8.92326876443
20
24.2456458098
10
8.83812049734
20
24.1618795027
10
8.75435419021
20
24.0767312356
10
8.67199226931
20
23.9902238048
10
8.59105678491
20
23.9023803704
10
8.5115694054
20
23.8132244502
10
8.43355141148
20
23.7227799135
10
8.35702369045
20
23.6310709744
10
8.28200673063
20
23.5381221856
10
8.20852061587
20
23.4439584318
10
8.13658502019
20
23.3486049228
10
8.06621920248
20
23.2520871871
10
7.99744200137
20
23.1544310649
10
7.93027183019
20
23.055662701
10
7.86472667201
20
22.9558085382
10
7.80082407486
20
22.8548953097
10
7.738581147
20
22.7529500326
10
7.67801455237
20
22.65
10
7.61914050612
20
22.5460727741
10
7.56197477026
20
22.4411961788
10
7.50653264942
20
22.3353982921
10
7.45282898681
20
22.2287074386
10
7.4008781602
20
22.121152182
10
7.35069407808
20
22.0127613176
10
7.30229017593
20
21.903563864
10
7.25567941267
20
21.7935890563
10
7.21087426711
20
21.6828663371
10
7.16788673467
20
21.5714253498
10
7.12672832416
20
21.4592959298
10
7.08741005469
20
21.3465080967
10
7.04994245269
20
21.2330920467
10
7.01433554915
20
21.119078144
10
6.98059887691
20
21.0044969127
10
6.94874146809
20
20.8893790292
10
6.91877185168
20
20.7737553133
10
6.89069805128
20
20.6576567202
10
6.86452758291
20
20.5411143322
10
6.84026745306
20
20.4241593507
10
6.81792415673
20
20.3068230873
10
6.79750367578
20
20.1891369558
10
6.77901147726
20
20.0711324635
10
6.76245251197
20
19.9528412032
10
6.74783121316
20
19.8342948443
10
6.73515149529
20
19.7155251244
10
6.72441675304
20
19.5965638412
10
6.71562986036
20
19.4774428434
10
6.7087931697
20
19.3581940226
10
6.70390851142
20
19.2388493046
10
6.70097719326
20
19.1194406409
10
6.7
20
19
10
6.70097719326
20
18.8805593591
10
6.70390851142
20
18.7611506954
10
6.7087931697
20
18.6418059774
10
6.71562986036
20
18.5225571566
10
6.72441675304
20
18.4034361588
10
6.73515149529
20
18.2844748756
10
6.74783121316
20
18.1657051557
10
6.76245251197
20
18.0471587968
10
6.77901147726
20
17.9288675365
10
6.79750367578
20
17.8108630442
10
6.81792415673
20
17.6931769127
10
6.84026745306
20
17.5758406493
10
6.86452758291
20
17.4588856678
10
6.89069805128
20
17.3423432798
10
6.91877185168
20
17.2262446867
10
6.94874146809
20
17.1106209708
10
6.98059887691
20
16.9955030872
10
7.01433554915
20
16.880921856
10
7.04994245269
20
16.7669079533
10
7.08741005469
20
16.6534919033
10
7.12672832416
20
16.5407040702
10
7.16788673467
20
16.4285746502
10
7.21087426711
20
16.3171336629
10
7.25567941267
20
16.2064109437
10
7.30229017593
20
16.096436136
10
7.35069407808
20
15.9872386824
10
7.4008781602
20
15.878847818
10
7.45282898681
20
15.7712925614
10
7.50653264942
20
15.6646017079
10
7.56197477026
20
15.5588038212
10
7.61914050612
20
15.4539272259
10
7.67801455237
20
15.35
10
7.738581147
20
15.2470499674
10
7.80082407486
20
15.1451046903
10
7.86472667201
20
15.0441914618
10
7.93027183019
20
14.944337299
10
7.99744200137
20
14.8455689351
10
8.06621920248
20
14.7479128129
10
8.13658502019
20
14.6513950772
10
8.20852061587
20
14.5560415682
10
8.28200673063
20
14.4618778144
10
8.35702369045
20
14.3689290256
10
8.43355141148
20
14.2772200865
10
8.5115694054
20
14.1867755498
10
8.59105678491
20
14.0976196296
10
8.67199226931
20
14.0097761952
10
8.75435419021
20
13.9232687644
10
8.83812049734
20
13.8381204973
10
8.92326876443
20
13.7543541902
10
9.00977619523
20
13.6719922693
10
9.09761962962
20
13.5910567849
10
9.18677554977
20
13.5115694054
10
9.2772200865
20
13.4335514115
10
9.36892902561
20
13.3570236905
10
9.4618778144
20
13.2820067306
10
9.55604156824
20
13.2085206159
10
9.65139507721
20
13.1365850202
10
9.74791281287
20
13.0662192025
10
9.84556893508
20
12.9974420014
10
9.94433729896
20
12.9302718302
10
10.0441914618
20
12.864726672
10
10.1451046903
20
12.8008240749
10
10.2470499674
20
12.738581147
10
10.35
20
12.6780145524
10
10.4539272259
20
12.6191405061
10
10.5588038212
20
12.5619747703
10
10.6646017079
20
12.5065326494
10
10.7712925614
20
12.4528289868
10
10.878847818
20
12.4008781602
10
10.9872386824
20
12.3506940781
10
11.096436136
20
12.3022901759
10
11.2064109437
20
12.2556794127
10
11.3171336629
20
12.2108742671
10
11.4285746502
20
12.1678867347
10
11.5407040702
20
12.1267283242
10
11.6534919033
20
12.0874100547
10
11.7669079533
20
12.0499424527
10
11.880921856
20
12.0143355492
10
11.9955030872
20
11.9805988769
10
12.1106209708
20
11.9487414681
10
12.2262446867
20
11.9187718517
10
12.3423432798
20
11.8906980513
10
12.4588856678
20
11.8645275829
10
12.5758406493
20
11.8402674531
10
12.6931769127
20
11.8179241567
10
12.8108630442
20
11.7975036758
10
12.9288675365
20
11.7790114773
10
13.0471587968
20
11.762452512
10
13.1657051557
20
11.7478312132
10
13.2844748756
20
11.7351514953
10
13.4034361588
20
11.724416753
10
13.5225571566
20
11.7156298604
10
13.6418059774
20
11.7087931697
10
13.7611506954
20
11.7039085114
10
13.8805593591
20
11.7009771933
10
14
20
11.7
10
14.1194406409
20
11.7009771933
10
14.2388493046
20
11.7039085114
10
14.3581940226
20
11.7087931697
10
14.4774428434
20
11.7156298604
10
14.5965638412
20
11.724416753
10
14.7155251244
20
11.7351514953
10
14.8342948443
20
11.7478312132
10
14.9528412032
20
11.762452512
10
15.0711324635
20
11.7790114773
10
15.1891369558
20
11.7975036758
10
15.3068230873
20
11.8179241567
10
15.4241593507
20
11.8402674531
10
15.5411143322
20
11.8645275829
10
15.6576567202
20
11.8906980513
10
15.7737553133
20
11.9187718517
10
15.8893790292
20
11.9487414681
10
16.0044969128
20
11.9805988769
10
16.119078144
20
12.0143355492
10
16.2330920467
20
12.0499424527
10
16.3465080967
20
12.0874100547
10
16.4592959298
20
12.1267283242
10
16.5714253498
20
12.1678867347
10
16.6828663371
20
12.2108742671
10
16.7935890563
20
12.2556794127
10
16.903563864
20
12.3022901759
10
17.0127613176
20
12.3506940781
10
17.121152182
20
12.4008781602
10
17.2287074386
20
12.4528289868
10
17.3353982921
20
12.5065326494
10
17.4411961788
20
12.5619747703
10
17.5460727741
20
12.6191405061
10
17.65
20
12.6780145524
10
17.7529500326
20
12.738581147
10
17.8548953097
20
12.8008240749
10
17.9558085382
20
12.864726672
10
18.055662701
20
12.9302718302
10
18.1544310649
20
12.9974420014
10
18.2520871871
20
13.0662192025
10
18.3486049228
20
13.1365850202
10
18.4439584318
20
13.2085206159
10
18.5381221856
20
13.2820067306
10
18.6310709744
20
13.3570236905
10
18.7227799135
20
13.4335514115
10
18.8132244502
20
13.5115694054
10
18.9023803704
20
13.5910567849
10
18.9902238048
20
13.6719922693
10
19.0767312356
20
13.7543541902
10
19.1618795027
20
13.8381204973
10
19.2456458098
20
13.9232687644
10
19.3280077307
20
14.0097761952
10
19.4089432151
20
14.0976196296
10
19.4884305946
20
14.1867755498
10
19.5664485885
20
14.2772200865
10
19.6429763095
20
14.3689290256
10
19.7179932694
20
14.4618778144
10
19.7914793841
20
14.5560415682
10
19.8634149798
20
14.6513950772
10
19.9337807975
20
14.7479128129
10
20.0025579986
20
14.8455689351
10
20.0697281698
20
14.944337299
10
20.135273328
20
15.0441914618
10
20.1991759251
20
15.1451046903
10
20.261418853
20
15.2470499674
10
20.3219854476
20
15.35
10
20.3808594939
20
15.4539272259
10
20.4380252297
20
15.5588038212
10
20.4934673506
20
15.6646017079
10
20.5471710132
20
15.7712925614
10
20.5991218398
20
15.878847818
10
20.6493059219
20
15.9872386824
10
20.6977098241
20
16.096436136
10
20.7443205873
20
16.2064109437
10
20.7891257329
20
16.3171336629
10
20.8321132653
20
16.4285746502
10
20.8732716758
20
16.5407040702
10
20.9125899453
20
16.6534919033
10
20.9500575473
20
16.7669079533
10
20.9856644508
20
16.880921856
10
21.0194011231
20
16.9955030873
10
21.0512585319
20
17.1106209708
10
21.0812281483
20
17.2262446867
10
21.1093019487
20
17.3423432798
10
21.1354724171
20
17.4588856678
10
21.1597325469
20
17.5758406493
10
21.1820758433
20
17.6931769127
10
21.2024963242
20
17.8108630442
10
21.2209885227
20
17.9288675365
10
21.237547488
20
18.0471587968
10
21.2521687868
20
18.1657051557
10
21.2648485047
20
18.2844748756
10
21.275583247
20
18.4034361588
10
21.2843701396
20
18.5225571566
10
21.2912068303
20
18.6418059774
10
21.2960914886
20
18.7611506954
10
21.2990228067
20
18.8805593591
10
21.3
20
19
10
21.2990228067
20
19.1194406409
0
ENDSEC
0
EOF