0
SECTION
2
HEADER
9
$ACADVER
1
AC1024
9
$INSUNITS
70
4
0
ENDSEC
0
SECTION
2
TABLES
0
TABLE
2
LAYER
70
1
0
LAYER
2
CUT
70
0
62
7
6
CONTINUOUS
0
ENDTAB
0
ENDSEC
0
SECTION
2
ENTITIES
0
LWPOLYLINE
100
AcDbEntity
8
CUT
100
AcDbPolyline
90
61
70
1
10
6
20
6
10
6
20
14
10
0
20
14
10
0
20
30
10
6
20
30
10
6
20
47
10
0
20
47
10
0
20
63
10
6
20
63
10
6
20
71
10
22
20
71
10
22
20
77
10
52
20
77
10
52
20
71
10
84
20
71
10
84
20
77
10
114
20
77
10
114
20
71
10
146
20
71
10
146
20
77
10
176
20
77
10
176
20
71
10
208
20
71
10
208
20
77
10
238
20
77
10
238
20
71
10
270
20
71
10
270
20
77
10
300
20
77
10
300
20
71
10
316
20
71
10
316
20
63
10
322
20
63
10
322
20
47
10
316
20
47
10
316
20
30
10
322
20
30
10
322
20
14
10
316
20
14
10
316
20
6
10
300
20
6
10
300
20
0
10
270
20
0
10
270
20
6
10
238
20
6
10
238
20
0
10
208
20
0
10
208
20
6
10
176
20
6
10
176
20
0
10
146
20
0
10
146
20
6
10
114
20
6
10
114
20
0
10
84
20
0
10
84
20
6
10
52
20
6
10
52
20
0
10
22
20
0
10
22
20
6
10
6
20
6
0
ENDSEC
0
EOF