0
SECTION
2
HEADER
9
$ACADVER
1
AC1024
9
$INSUNITS
70
4
0
ENDSEC
0
SECTION
2
TABLES
0
TABLE
2
LAYER
70
1
0
LAYER
2
CUT
70
0
62
7
6
CONTINUOUS
0
ENDTAB
0
ENDSEC
0
SECTION
2
ENTITIES
0
LWPOLYLINE
100
AcDbEntity
8
CUT
100
AcDbPolyline
90
29
70
1
10
0
20
14.2
10
0
20
28.4
10
6
20
28.4
10
6
20
42.6
10
0
20
42.6
10
0
20
56.8
10
6
20
56.8
10
6
20
71
10
71
20
71
10
71
20
56.8
10
77
20
56.8
10
77
20
42.6
10
71
20
42.6
10
71
20
28.4
10
77
20
28.4
10
77
20
14.2
10
71
20
14.2
10
71
20
0
10
63
20
0
10
63
20
6
10
47
20
6
10
47
20
0
10
30
20
0
10
30
20
6
10
14
20
6
10
14
20
0
10
6
20
0
10
6
20
14.2
10
0
20
14.2
0
ENDSEC
0
EOF