0
SECTION
2
HEADER
9
$ACADVER
1
AC1024
9
$INSUNITS
70
4
0
ENDSEC
0
SECTION
2
TABLES
0
TABLE
2
LAYER
70
1
0
LAYER
2
CUT
70
0
62
7
6
CONTINUOUS
0
ENDTAB
0
ENDSEC
0
SECTION
2
ENTITIES
0
LWPOLYLINE
100
AcDbEntity
8
CUT
100
AcDbPolyline
90
41
70
1
10
238
20
6
10
208
20
6
10
208
20
0
10
176
20
0
10
176
20
6
10
146
20
6
10
146
20
0
10
114
20
0
10
114
20
6
10
84
20
6
10
84
20
0
10
52
20
0
10
52
20
6
10
22
20
6
10
22
20
0
10
0
20
0
10
0
20
14.2
10
6
20
14.2
10
6
20
28.4
10
0
20
28.4
10
0
20
42.6
10
6
20
42.6
10
6
20
56.8
10
0
20
56.8
10
0
20
71
10
322
20
71
10
322
20
56.8
10
316
20
56.8
10
316
20
42.6
10
322
20
42.6
10
322
20
28.4
10
316
20
28.4
10
316
20
14.2
10
322
20
14.2
10
322
20
0
10
300
20
0
10
300
20
6
10
270
20
6
10
270
20
0
10
238
20
0
10
238
20
6
0
ENDSEC
0
EOF