0
SECTION
2
HEADER
9
$ACADVER
1
AC1024
9
$INSUNITS
70
4
0
ENDSEC
0
SECTION
2
TABLES
0
TABLE
2
LAYER
70
2
0
LAYER
2
CUT
70
0
62
7
6
CONTINUOUS
0
LAYER
2
LIVING_HINGE
70
0
62
7
6
CONTINUOUS
0
ENDTAB
0
ENDSEC
0
SECTION
2
ENTITIES
0
LWPOLYLINE
100
AcDbEntity
8
CUT
100
AcDbPolyline
90
29
70
1
10
0
20
34.4389630832
10
6
20
34.4389630832
10
6
20
41.3982718053
10
0
20
41.3982718053
10
0
20
53.3982718053
10
6
20
53.3982718053
10
6
20
60.3575805275
10
0
20
60.3575805275
10
0
20
72.3575805275
10
6
20
72.3575805275
10
6
20
94.7965436107
10
316
20
94.7965436107
10
316
20
72.3575805275
10
322
20
72.3575805275
10
322
20
60.3575805275
10
316
20
60.3575805275
10
316
20
53.3982718053
10
322
20
53.3982718053
10
322
20
41.3982718053
10
316
20
41.3982718053
10
316
20
34.4389630832
10
322
20
34.4389630832
10
322
20
22.4389630832
10
316
20
22.4389630832
10
316
20
0
10
6
20
0
10
6
20
22.4389630832
10
0
20
22.4389630832
10
0
20
34.4389630832
0
LINE
100
AcDbEntity
8
LIVING_HINGE
100
AcDbLine
10
18
20
10
30
0
11
46
21
10
31
0
0
LINE
100
AcDbEntity
8
LIVING_HINGE
100
AcDbLine
10
50
20
10
30
0
11
78
21
10
31
0
0
LINE
100
AcDbEntity
8
LIVING_HINGE
100
AcDbLine
10
82
20
10
30
0
11
110
21
10
31
0
0
LINE
100
AcDbEntity
8
LIVING_HINGE
100
AcDbLine
10
114
20
10
30
0
11
142
21
10
31
0
0
LINE
100
AcDbEntity
8
LIVING_HINGE
100
AcDbLine
10
146
20
10
30
0
11
154
21
10
31
0
0
LINE
100
AcDbEntity
8
LIVING_HINGE
100
AcDbLine
10
168
20
10
30
0
11
196
21
10
31
0
0
LINE
100
AcDbEntity
8
LIVING_HINGE
100
AcDbLine
10
200
20
10
30
0
11
228
21
10
31
0
0
LINE
100
AcDbEntity
8
LIVING_HINGE
100
AcDbLine
10
232
20
10
30
0
11
260
21
10
31
0
0
LINE
100
AcDbEntity
8
LIVING_HINGE
100
AcDbLine
10
264
20
10
30
0
11
292
21
10
31
0
0
LINE
100
AcDbEntity
8
LIVING_HINGE
100
AcDbLine
10
296
20
10
30
0
11
304
21
10
31
0
0
LINE
100
AcDbEntity
8
LIVING_HINGE
100
AcDbLine
10
18
20
14
30
0
11
30
21
14
31
0
0
LINE
100
AcDbEntity
8
LIVING_HINGE
100
AcDbLine
10
34
20
14
30
0
11
62
21
14
31
0
0
LINE
100
AcDbEntity
8
LIVING_HINGE
100
AcDbLine
10
66
20
14
30
0
11
94
21
14
31
0
0
LINE
100
AcDbEntity
8
LIVING_HINGE
100
AcDbLine
10
98
20
14
30
0
11
126
21
14
31
0
0
LINE
100
AcDbEntity
8
LIVING_HINGE
100
AcDbLine
10
130
20
14
30
0
11
154
21
14
31
0
0
LINE
100
AcDbEntity
8
LIVING_HINGE
100
AcDbLine
10
168
20
14
30
0
11
180
21
14
31
0
0
LINE
100
AcDbEntity
8
LIVING_HINGE
100
AcDbLine
10
184
20
14
30
0
11
212
21
14
31
0
0
LINE
100
AcDbEntity
8
LIVING_HINGE
100
AcDbLine
10
216
20
14
30
0
11
244
21
14
31
0
0
LINE
100
AcDbEntity
8
LIVING_HINGE
100
AcDbLine
10
248
20
14
30
0
11
276
21
14
31
0
0
LINE
100
AcDbEntity
8
LIVING_HINGE
100
AcDbLine
10
280
20
14
30
0
11
304
21
14
31
0
0
LINE
100
AcDbEntity
8
LIVING_HINGE
100
AcDbLine
10
18
20
18
30
0
11
46
21
18
31
0
0
LINE
100
AcDbEntity
8
LIVING_HINGE
100
AcDbLine
10
50
20
18
30
0
11
78
21
18
31
0
0
LINE
100
AcDbEntity
8
LIVING_HINGE
100
AcDbLine
10
82
20
18
30
0
11
110
21
18
31
0
0
LINE
100
AcDbEntity
8
LIVING_HINGE
100
AcDbLine
10
114
20
18
30
0
11
142
21
18
31
0
0
LINE
100
AcDbEntity
8
LIVING_HINGE
100
AcDbLine
10
146
20
18
30
0
11
154
21
18
31
0
0
LINE
100
AcDbEntity
8
LIVING_HINGE
100
AcDbLine
10
168
20
18
30
0
11
196
21
18
31
0
0
LINE
100
AcDbEntity
8
LIVING_HINGE
100
AcDbLine
10
200
20
18
30
0
11
228
21
18
31
0
0
LINE
100
AcDbEntity
8
LIVING_HINGE
100
AcDbLine
10
232
20
18
30
0
11
260
21
18
31
0
0
LINE
100
AcDbEntity
8
LIVING_HINGE
100
AcDbLine
10
264
20
18
30
0
11
292
21
18
31
0
0
LINE
100
AcDbEntity
8
LIVING_HINGE
100
AcDbLine
10
296
20
18
30
0
11
304
21
18
31
0
0
LINE
100
AcDbEntity
8
LIVING_HINGE
100
AcDbLine
10
18
20
22
30
0
11
30
21
22
31
0
0
LINE
100
AcDbEntity
8
LIVING_HINGE
100
AcDbLine
10
34
20
22
30
0
11
62
21
22
31
0
0
LINE
100
AcDbEntity
8
LIVING_HINGE
100
AcDbLine
10
66
20
22
30
0
11
94
21
22
31
0
0
LINE
100
AcDbEntity
8
LIVING_HINGE
100
AcDbLine
10
98
20
22
30
0
11
126
21
22
31
0
0
LINE
100
AcDbEntity
8
LIVING_HINGE
100
AcDbLine
10
130
20
22
30
0
11
154
21
22
31
0
0
LINE
100
AcDbEntity
8
LIVING_HINGE
100
AcDbLine
10
168
20
22
30
0
11
180
21
22
31
0
0
LINE
100
AcDbEntity
8
LIVING_HINGE
100
AcDbLine
10
184
20
22
30
0
11
212
21
22
31
0
0
LINE
100
AcDbEntity
8
LIVING_HINGE
100
AcDbLine
10
216
20
22
30
0
11
244
21
22
31
0
0
LINE
100
AcDbEntity
8
LIVING_HINGE
100
AcDbLine
10
248
20
22
30
0
11
276
21
22
31
0
0
LINE
100
AcDbEntity
8
LIVING_HINGE
100
AcDbLine
10
280
20
22
30
0
11
304
21
22
31
0
0
LINE
100
AcDbEntity
8
LIVING_HINGE
100
AcDbLine
10
18
20
26
30
0
11
46
21
26
31
0
0
LINE
100
AcDbEntity
8
LIVING_HINGE
100
AcDbLine
10
50
20
26
30
0
11
78
21
26
31
0
0
LINE
100
AcDbEntity
8
LIVING_HINGE
100
AcDbLine
10
82
20
26
30
0
11
110
21
26
31
0
0
LINE
100
AcDbEntity
8
LIVING_HINGE
100
AcDbLine
10
114
20
26
30
0
11
142
21
26
31
0
0
LINE
100
AcDbEntity
8
LIVING_HINGE
100
AcDbLine
10
146
20
26
30
0
11
154
21
26
31
0
0
LINE
100
AcDbEntity
8
LIVING_HINGE
100
AcDbLine
10
168
20
26
30
0
11
196
21
26
31
0
0
LINE
100
AcDbEntity
8
LIVING_HINGE
100
AcDbLine
10
200
20
26
30
0
11
228
21
26
31
0
0
LINE
100
AcDbEntity
8
LIVING_HINGE
100
AcDbLine
10
232
20
26
30
0
11
260
21
26
31
0
0
LINE
100
AcDbEntity
8
LIVING_HINGE
100
AcDbLine
10
264
20
26
30
0
11
292
21
26
31
0
0
LINE
100
AcDbEntity
8
LIVING_HINGE
100
AcDbLine
10
296
20
26
30
0
11
304
21
26
31
0
0
LINE
100
AcDbEntity
8
LIVING_HINGE
100
AcDbLine
10
18
20
30
30
0
11
30
21
30
31
0
0
LINE
100
AcDbEntity
8
LIVING_HINGE
100
AcDbLine
10
34
20
30
30
0
11
62
21
30
31
0
0
LINE
100
AcDbEntity
8
LIVING_HINGE
100
AcDbLine
10
66
20
30
30
0
11
94
21
30
31
0
0
LINE
100
AcDbEntity
8
LIVING_HINGE
100
AcDbLine
10
98
20
30
30
0
11
126
21
30
31
0
0
LINE
100
AcDbEntity
8
LIVING_HINGE
100
AcDbLine
10
130
20
30
30
0
11
154
21
30
31
0
0
LINE
100
AcDbEntity
8
LIVING_HINGE
100
AcDbLine
10
168
20
30
30
0
11
180
21
30
31
0
0
LINE
100
AcDbEntity
8
LIVING_HINGE
100
AcDbLine
10
184
20
30
30
0
11
212
21
30
31
0
0
LINE
100
AcDbEntity
8
LIVING_HINGE
100
AcDbLine
10
216
20
30
30
0
11
244
21
30
31
0
0
LINE
100
AcDbEntity
8
LIVING_HINGE
100
AcDbLine
10
248
20
30
30
0
11
276
21
30
31
0
0
LINE
100
AcDbEntity
8
LIVING_HINGE
100
AcDbLine
10
280
20
30
30
0
11
304
21
30
31
0
0
LINE
100
AcDbEntity
8
LIVING_HINGE
100
AcDbLine
10
18
20
34
30
0
11
46
21
34
31
0
0
LINE
100
AcDbEntity
8
LIVING_HINGE
100
AcDbLine
10
50
20
34
30
0
11
78
21
34
31
0
0
LINE
100
AcDbEntity
8
LIVING_HINGE
100
AcDbLine
10
82
20
34
30
0
11
110
21
34
31
0
0
LINE
100
AcDbEntity
8
LIVING_HINGE
100
AcDbLine
10
114
20
34
30
0
11
142
21
34
31
0
0
LINE
100
AcDbEntity
8
LIVING_HINGE
100
AcDbLine
10
146
20
34
30
0
11
154
21
34
31
0
0
LINE
100
AcDbEntity
8
LIVING_HINGE
100
AcDbLine
10
168
20
34
30
0
11
196
21
34
31
0
0
LINE
100
AcDbEntity
8
LIVING_HINGE
100
AcDbLine
10
200
20
34
30
0
11
228
21
34
31
0
0
LINE
100
AcDbEntity
8
LIVING_HINGE
100
AcDbLine
10
232
20
34
30
0
11
260
21
34
31
0
0
LINE
100
AcDbEntity
8
LIVING_HINGE
100
AcDbLine
10
264
20
34
30
0
11
292
21
34
31
0
0
LINE
100
AcDbEntity
8
LIVING_HINGE
100
AcDbLine
10
296
20
34
30
0
11
304
21
34
31
0
0
LINE
100
AcDbEntity
8
LIVING_HINGE
100
AcDbLine
10
18
20
38
30
0
11
30
21
38
31
0
0
LINE
100
AcDbEntity
8
LIVING_HINGE
100
AcDbLine
10
34
20
38
30
0
11
62
21
38
31
0
0
LINE
100
AcDbEntity
8
LIVING_HINGE
100
AcDbLine
10
66
20
38
30
0
11
94
21
38
31
0
0
LINE
100
AcDbEntity
8
LIVING_HINGE
100
AcDbLine
10
98
20
38
30
0
11
126
21
38
31
0
0
LINE
100
AcDbEntity
8
LIVING_HINGE
100
AcDbLine
10
130
20
38
30
0
11
154
21
38
31
0
0
LINE
100
AcDbEntity
8
LIVING_HINGE
100
AcDbLine
10
168
20
38
30
0
11
180
21
38
31
0
0
LINE
100
AcDbEntity
8
LIVING_HINGE
100
AcDbLine
10
184
20
38
30
0
11
212
21
38
31
0
0
LINE
100
AcDbEntity
8
LIVING_HINGE
100
AcDbLine
10
216
20
38
30
0
11
244
21
38
31
0
0
LINE
100
AcDbEntity
8
LIVING_HINGE
100
AcDbLine
10
248
20
38
30
0
11
276
21
38
31
0
0
LINE
100
AcDbEntity
8
LIVING_HINGE
100
AcDbLine
10
280
20
38
30
0
11
304
21
38
31
0
0
LINE
100
AcDbEntity
8
LIVING_HINGE
100
AcDbLine
10
18
20
42
30
0
11
46
21
42
31
0
0
LINE
100
AcDbEntity
8
LIVING_HINGE
100
AcDbLine
10
50
20
42
30
0
11
78
21
42
31
0
0
LINE
100
AcDbEntity
8
LIVING_HINGE
100
AcDbLine
10
82
20
42
30
0
11
110
21
42
31
0
0
LINE
100
AcDbEntity
8
LIVING_HINGE
100
AcDbLine
10
114
20
42
30
0
11
142
21
42
31
0
0
LINE
100
AcDbEntity
8
LIVING_HINGE
100
AcDbLine
10
146
20
42
30
0
11
154
21
42
31
0
0
LINE
100
AcDbEntity
8
LIVING_HINGE
100
AcDbLine
10
168
20
42
30
0
11
196
21
42
31
0
0
LINE
100
AcDbEntity
8
LIVING_HINGE
100
AcDbLine
10
200
20
42
30
0
11
228
21
42
31
0
0
LINE
100
AcDbEntity
8
LIVING_HINGE
100
AcDbLine
10
232
20
42
30
0
11
260
21
42
31
0
0
LINE
100
AcDbEntity
8
LIVING_HINGE
100
AcDbLine
10
264
20
42
30
0
11
292
21
42
31
0
0
LINE
100
AcDbEntity
8
LIVING_HINGE
100
AcDbLine
10
296
20
42
30
0
11
304
21
42
31
0
0
LINE
100
AcDbEntity
8
LIVING_HINGE
100
AcDbLine
10
18
20
46
30
0
11
30
21
46
31
0
0
LINE
100
AcDbEntity
8
LIVING_HINGE
100
AcDbLine
10
34
20
46
30
0
11
62
21
46
31
0
0
LINE
100
AcDbEntity
8
LIVING_HINGE
100
AcDbLine
10
66
20
46
30
0
11
94
21
46
31
0
0
LINE
100
AcDbEntity
8
LIVING_HINGE
100
AcDbLine
10
98
20
46
30
0
11
126
21
46
31
0
0
LINE
100
AcDbEntity
8
LIVING_HINGE
100
AcDbLine
10
130
20
46
30
0
11
154
21
46
31
0
0
LINE
100
AcDbEntity
8
LIVING_HINGE
100
AcDbLine
10
168
20
46
30
0
11
180
21
46
31
0
0
LINE
100
AcDbEntity
8
LIVING_HINGE
100
AcDbLine
10
184
20
46
30
0
11
212
21
46
31
0
0
LINE
100
AcDbEntity
8
LIVING_HINGE
100
AcDbLine
10
216
20
46
30
0
11
244
21
46
31
0
0
LINE
100
AcDbEntity
8
LIVING_HINGE
100
AcDbLine
10
248
20
46
30
0
11
276
21
46
31
0
0
LINE
100
AcDbEntity
8
LIVING_HINGE
100
AcDbLine
10
280
20
46
30
0
11
304
21
46
31
0
0
LINE
100
AcDbEntity
8
LIVING_HINGE
100
AcDbLine
10
18
20
50
30
0
11
46
21
50
31
0
0
LINE
100
AcDbEntity
8
LIVING_HINGE
100
AcDbLine
10
50
20
50
30
0
11
78
21
50
31
0
0
LINE
100
AcDbEntity
8
LIVING_HINGE
100
AcDbLine
10
82
20
50
30
0
11
110
21
50
31
0
0
LINE
100
AcDbEntity
8
LIVING_HINGE
100
AcDbLine
10
114
20
50
30
0
11
142
21
50
31
0
0
LINE
100
AcDbEntity
8
LIVING_HINGE
100
AcDbLine
10
146
20
50
30
0
11
154
21
50
31
0
0
LINE
100
AcDbEntity
8
LIVING_HINGE
100
AcDbLine
10
168
20
50
30
0
11
196
21
50
31
0
0
LINE
100
AcDbEntity
8
LIVING_HINGE
100
AcDbLine
10
200
20
50
30
0
11
228
21
50
31
0
0
LINE
100
AcDbEntity
8
LIVING_HINGE
100
AcDbLine
10
232
20
50
30
0
11
260
21
50
31
0
0
LINE
100
AcDbEntity
8
LIVING_HINGE
100
AcDbLine
10
264
20
50
30
0
11
292
21
50
31
0
0
LINE
100
AcDbEntity
8
LIVING_HINGE
100
AcDbLine
10
296
20
50
30
0
11
304
21
50
31
0
0
LINE
100
AcDbEntity
8
LIVING_HINGE
100
AcDbLine
10
18
20
54
30
0
11
30
21
54
31
0
0
LINE
100
AcDbEntity
8
LIVING_HINGE
100
AcDbLine
10
34
20
54
30
0
11
62
21
54
31
0
0
LINE
100
AcDbEntity
8
LIVING_HINGE
100
AcDbLine
10
66
20
54
30
0
11
94
21
54
31
0
0
LINE
100
AcDbEntity
8
LIVING_HINGE
100
AcDbLine
10
98
20
54
30
0
11
126
21
54
31
0
0
LINE
100
AcDbEntity
8
LIVING_HINGE
100
AcDbLine
10
130
20
54
30
0
11
154
21
54
31
0
0
LINE
100
AcDbEntity
8
LIVING_HINGE
100
AcDbLine
10
168
20
54
30
0
11
180
21
54
31
0
0
LINE
100
AcDbEntity
8
LIVING_HINGE
100
AcDbLine
10
184
20
54
30
0
11
212
21
54
31
0
0
LINE
100
AcDbEntity
8
LIVING_HINGE
100
AcDbLine
10
216
20
54
30
0
11
244
21
54
31
0
0
LINE
100
AcDbEntity
8
LIVING_HINGE
100
AcDbLine
10
248
20
54
30
0
11
276
21
54
31
0
0
LINE
100
AcDbEntity
8
LIVING_HINGE
100
AcDbLine
10
280
20
54
30
0
11
304
21
54
31
0
0
LINE
100
AcDbEntity
8
LIVING_HINGE
100
AcDbLine
10
18
20
58
30
0
11
46
21
58
31
0
0
LINE
100
AcDbEntity
8
LIVING_HINGE
100
AcDbLine
10
50
20
58
30
0
11
78
21
58
31
0
0
LINE
100
AcDbEntity
8
LIVING_HINGE
100
AcDbLine
10
82
20
58
30
0
11
110
21
58
31
0
0
LINE
100
AcDbEntity
8
LIVING_HINGE
100
AcDbLine
10
114
20
58
30
0
11
142
21
58
31
0
0
LINE
100
AcDbEntity
8
LIVING_HINGE
100
AcDbLine
10
146
20
58
30
0
11
154
21
58
31
0
0
LINE
100
AcDbEntity
8
LIVING_HINGE
100
AcDbLine
10
168
20
58
30
0
11
196
21
58
31
0
0
LINE
100
AcDbEntity
8
LIVING_HINGE
100
AcDbLine
10
200
20
58
30
0
11
228
21
58
31
0
0
LINE
100
AcDbEntity
8
LIVING_HINGE
100
AcDbLine
10
232
20
58
30
0
11
260
21
58
31
0
0
LINE
100
AcDbEntity
8
LIVING_HINGE
100
AcDbLine
10
264
20
58
30
0
11
292
21
58
31
0
0
LINE
100
AcDbEntity
8
LIVING_HINGE
100
AcDbLine
10
296
20
58
30
0
11
304
21
58
31
0
0
LINE
100
AcDbEntity
8
LIVING_HINGE
100
AcDbLine
10
18
20
62
30
0
11
30
21
62
31
0
0
LINE
100
AcDbEntity
8
LIVING_HINGE
100
AcDbLine
10
34
20
62
30
0
11
62
21
62
31
0
0
LINE
100
AcDbEntity
8
LIVING_HINGE
100
AcDbLine
10
66
20
62
30
0
11
94
21
62
31
0
0
LINE
100
AcDbEntity
8
LIVING_HINGE
100
AcDbLine
10
98
20
62
30
0
11
126
21
62
31
0
0
LINE
100
AcDbEntity
8
LIVING_HINGE
100
AcDbLine
10
130
20
62
30
0
11
154
21
62
31
0
0
LINE
100
AcDbEntity
8
LIVING_HINGE
100
AcDbLine
10
168
20
62
30
0
11
180
21
62
31
0
0
LINE
100
AcDbEntity
8
LIVING_HINGE
100
AcDbLine
10
184
20
62
30
0
11
212
21
62
31
0
0
LINE
100
AcDbEntity
8
LIVING_HINGE
100
AcDbLine
10
216
20
62
30
0
11
244
21
62
31
0
0
LINE
100
AcDbEntity
8
LIVING_HINGE
100
AcDbLine
10
248
20
62
30
0
11
276
21
62
31
0
0
LINE
100
AcDbEntity
8
LIVING_HINGE
100
AcDbLine
10
280
20
62
30
0
11
304
21
62
31
0
0
LINE
100
AcDbEntity
8
LIVING_HINGE
100
AcDbLine
10
18
20
66
30
0
11
46
21
66
31
0
0
LINE
100
AcDbEntity
8
LIVING_HINGE
100
AcDbLine
10
50
20
66
30
0
11
78
21
66
31
0
0
LINE
100
AcDbEntity
8
LIVING_HINGE
100
AcDbLine
10
82
20
66
30
0
11
110
21
66
31
0
0
LINE
100
AcDbEntity
8
LIVING_HINGE
100
AcDbLine
10
114
20
66
30
0
11
142
21
66
31
0
0
LINE
100
AcDbEntity
8
LIVING_HINGE
100
AcDbLine
10
146
20
66
30
0
11
154
21
66
31
0
0
LINE
100
AcDbEntity
8
LIVING_HINGE
100
AcDbLine
10
168
20
66
30
0
11
196
21
66
31
0
0
LINE
100
AcDbEntity
8
LIVING_HINGE
100
AcDbLine
10
200
20
66
30
0
11
228
21
66
31
0
0
LINE
100
AcDbEntity
8
LIVING_HINGE
100
AcDbLine
10
232
20
66
30
0
11
260
21
66
31
0
0
LINE
100
AcDbEntity
8
LIVING_HINGE
100
AcDbLine
10
264
20
66
30
0
11
292
21
66
31
0
0
LINE
100
AcDbEntity
8
LIVING_HINGE
100
AcDbLine
10
296
20
66
30
0
11
304
21
66
31
0
0
LINE
100
AcDbEntity
8
LIVING_HINGE
100
AcDbLine
10
18
20
70
30
0
11
30
21
70
31
0
0
LINE
100
AcDbEntity
8
LIVING_HINGE
100
AcDbLine
10
34
20
70
30
0
11
62
21
70
31
0
0
LINE
100
AcDbEntity
8
LIVING_HINGE
100
AcDbLine
10
66
20
70
30
0
11
94
21
70
31
0
0
LINE
100
AcDbEntity
8
LIVING_HINGE
100
AcDbLine
10
98
20
70
30
0
11
126
21
70
31
0
0
LINE
100
AcDbEntity
8
LIVING_HINGE
100
AcDbLine
10
130
20
70
30
0
11
154
21
70
31
0
0
LINE
100
AcDbEntity
8
LIVING_HINGE
100
AcDbLine
10
168
20
70
30
0
11
180
21
70
31
0
0
LINE
100
AcDbEntity
8
LIVING_HINGE
100
AcDbLine
10
184
20
70
30
0
11
212
21
70
31
0
0
LINE
100
AcDbEntity
8
LIVING_HINGE
100
AcDbLine
10
216
20
70
30
0
11
244
21
70
31
0
0
LINE
100
AcDbEntity
8
LIVING_HINGE
100
AcDbLine
10
248
20
70
30
0
11
276
21
70
31
0
0
LINE
100
AcDbEntity
8
LIVING_HINGE
100
AcDbLine
10
280
20
70
30
0
11
304
21
70
31
0
0
LINE
100
AcDbEntity
8
LIVING_HINGE
100
AcDbLine
10
18
20
74
30
0
11
46
21
74
31
0
0
LINE
100
AcDbEntity
8
LIVING_HINGE
100
AcDbLine
10
50
20
74
30
0
11
78
21
74
31
0
0
LINE
100
AcDbEntity
8
LIVING_HINGE
100
AcDbLine
10
82
20
74
30
0
11
110
21
74
31
0
0
LINE
100
AcDbEntity
8
LIVING_HINGE
100
AcDbLine
10
114
20
74
30
0
11
142
21
74
31
0
0
LINE
100
AcDbEntity
8
LIVING_HINGE
100
AcDbLine
10
146
20
74
30
0
11
154
21
74
31
0
0
LINE
100
AcDbEntity
8
LIVING_HINGE
100
AcDbLine
10
168
20
74
30
0
11
196
21
74
31
0
0
LINE
100
AcDbEntity
8
LIVING_HINGE
100
AcDbLine
10
200
20
74
30
0
11
228
21
74
31
0
0
LINE
100
AcDbEntity
8
LIVING_HINGE
100
AcDbLine
10
232
20
74
30
0
11
260
21
74
31
0
0
LINE
100
AcDbEntity
8
LIVING_HINGE
100
AcDbLine
10
264
20
74
30
0
11
292
21
74
31
0
0
LINE
100
AcDbEntity
8
LIVING_HINGE
100
AcDbLine
10
296
20
74
30
0
11
304
21
74
31
0
0
LINE
100
AcDbEntity
8
LIVING_HINGE
100
AcDbLine
10
18
20
78
30
0
11
30
21
78
31
0
0
LINE
100
AcDbEntity
8
LIVING_HINGE
100
AcDbLine
10
34
20
78
30
0
11
62
21
78
31
0
0
LINE
100
AcDbEntity
8
LIVING_HINGE
100
AcDbLine
10
66
20
78
30
0
11
94
21
78
31
0
0
LINE
100
AcDbEntity
8
LIVING_HINGE
100
AcDbLine
10
98
20
78
30
0
11
126
21
78
31
0
0
LINE
100
AcDbEntity
8
LIVING_HINGE
100
AcDbLine
10
130
20
78
30
0
11
154
21
78
31
0
0
LINE
100
AcDbEntity
8
LIVING_HINGE
100
AcDbLine
10
168
20
78
30
0
11
180
21
78
31
0
0
LINE
100
AcDbEntity
8
LIVING_HINGE
100
AcDbLine
10
184
20
78
30
0
11
212
21
78
31
0
0
LINE
100
AcDbEntity
8
LIVING_HINGE
100
AcDbLine
10
216
20
78
30
0
11
244
21
78
31
0
0
LINE
100
AcDbEntity
8
LIVING_HINGE
100
AcDbLine
10
248
20
78
30
0
11
276
21
78
31
0
0
LINE
100
AcDbEntity
8
LIVING_HINGE
100
AcDbLine
10
280
20
78
30
0
11
304
21
78
31
0
0
LINE
100
AcDbEntity
8
LIVING_HINGE
100
AcDbLine
10
18
20
82
30
0
11
46
21
82
31
0
0
LINE
100
AcDbEntity
8
LIVING_HINGE
100
AcDbLine
10
50
20
82
30
0
11
78
21
82
31
0
0
LINE
100
AcDbEntity
8
LIVING_HINGE
100
AcDbLine
10
82
20
82
30
0
11
110
21
82
31
0
0
LINE
100
AcDbEntity
8
LIVING_HINGE
100
AcDbLine
10
114
20
82
30
0
11
142
21
82
31
0
0
LINE
100
AcDbEntity
8
LIVING_HINGE
100
AcDbLine
10
146
20
82
30
0
11
154
21
82
31
0
0
LINE
100
AcDbEntity
8
LIVING_HINGE
100
AcDbLine
10
168
20
82
30
0
11
196
21
82
31
0
0
LINE
100
AcDbEntity
8
LIVING_HINGE
100
AcDbLine
10
200
20
82
30
0
11
228
21
82
31
0
0
LINE
100
AcDbEntity
8
LIVING_HINGE
100
AcDbLine
10
232
20
82
30
0
11
260
21
82
31
0
0
LINE
100
AcDbEntity
8
LIVING_HINGE
100
AcDbLine
10
264
20
82
30
0
11
292
21
82
31
0
0
LINE
100
AcDbEntity
8
LIVING_HINGE
100
AcDbLine
10
296
20
82
30
0
11
304
21
82
31
0
0
ENDSEC
0
EOF