0
SECTION
2
HEADER
9
$ACADVER
1
AC1024
9
$INSUNITS
70
4
0
ENDSEC
0
SECTION
2
TABLES
0
TABLE
2
LAYER
70
1
0
LAYER
2
CUT
70
0
62
7
6
CONTINUOUS
0
ENDTAB
0
ENDSEC
0
SECTION
2
ENTITIES
0
LWPOLYLINE
100
AcDbEntity
8
CUT
100
AcDbPolyline
90
330
70
1
10
0.13696393553
20
0.262675087561
10
0.275720005519
20
0.524407917564
10
0.416261727961
20
0.785186263126
10
0.558582537429
20
1.04499794195
10
0.702675785386
20
1.3038308169
10
0.848534740498
20
1.56167279656
10
0.996152588943
20
1.8185118358
10
1.14552243473
20
2.07433593637
10
1.29663730004
20
2.32913314739
10
1.4494901255
20
2.58289156599
10
1.60407377058
20
2.8355993378
10
1.76038101389
20
3.08724465754
10
1.91840455351
20
3.33781576958
10
2.07813700735
20
3.58730096844
10
2.23957091349
20
3.8356885994
10
2.40269873051
20
4.08296705898
10
2.56751283788
20
4.32912479555
10
2.73400553629
20
4.5741503098
10
2.90216904801
20
4.81803215535
10
3.07199551725
20
5.06075893921
10
3.24347701056
20
5.30231932238
10
3.41660551714
20
5.54270202032
10
3.59137294928
20
5.78189580352
10
3.7677711427
20
6.01988949802
10
3.94579185691
20
6.25667198591
10
4.12542677568
20
6.49223220586
10
4.30666750732
20
6.72655915364
10
4.48950558515
20
6.95964188263
10
4.67393246786
20
7.19146950436
10
4.85993953993
20
7.42203118895
10
5.04751811201
20
7.65131616568
10
5.23665942134
20
7.87931372349
10
5.42735463216
20
8.10601321142
10
5.61959483612
20
8.33140403919
10
5.8133710527
20
8.55547567763
10
6.00867422959
20
8.7782176592
10
6.20549524321
20
8.99961957848
10
6.40382489901
20
9.21967109265
10
6.60365393201
20
9.43836192197
10
6.80497300717
20
9.65568185028
10
7.00777271984
20
9.87162072543
10
7.21204359619
20
10.0861684598
10
7.4177760937
20
10.2993150308
10
7.62496060153
20
10.5110504813
10
7.83358744104
20
10.7213649199
10
8.04364686619
20
10.9302485219
10
8.25512906403
20
11.1376915291
10
8.46802415514
20
11.3436842509
10
8.6823221941
20
11.5482170643
10
8.89801316994
20
11.7512804146
10
9.11508700664
20
11.9528648154
10
9.33353356355
20
12.15296085
10
9.55334263591
20
12.3515591706
10
9.77450395532
20
12.5486504999
10
9.9970071902
20
12.7442256305
10
10.2208419463
20
12.9382754263
10
10.4459977671
20
13.1307908221
10
10.6724641344
20
13.3217628246
10
10.9002304689
20
13.5111825124
10
11.1292861303
20
13.6990410369
10
11.3596204184
20
13.8853296221
10
11.5912225731
20
14.0700395656
10
11.8240817749
20
14.2531622387
10
12.0581871459
20
14.4346890866
10
12.2935277498
20
14.6146116295
10
12.5300925926
20
14.7929214621
10
12.7678706231
20
14.9696102547
10
13.0068507336
20
15.1446697533
10
13.2470217601
20
15.3180917799
10
13.4883724829
20
15.4898682331
10
13.7308916272
20
15.6599910884
10
13.9745678639
20
15.8284523984
10
14.2193898094
20
15.9952442934
10
14.465346027
20
16.1603589817
10
14.7124250267
20
16.32378875
10
14.9606152662
20
16.4855259637
10
15.2099051512
20
16.6455630671
10
15.4602830362
20
16.803892584
10
15.7117372248
20
16.9605071183
10
15.9642559701
20
17.1153993534
10
16.2178274758
20
17.2685620537
10
16.4724398963
20
17.4199880641
10
16.7280813372
20
17.5696703107
10
16.9847398562
20
17.7176018011
10
17.2424034636
20
17.8637756247
10
17.5010601225
20
18.0081849529
10
17.7606977497
20
18.1508230396
10
18.0213042163
20
18.2916832216
10
18.2828673479
20
18.4307589183
10
18.5453749256
20
18.5680436331
10
18.8088146864
20
18.7035309524
10
19.0731743236
20
18.8372145472
10
19.3384414875
20
18.9690881722
10
19.6046037863
20
19.099145667
10
19.8716487861
20
19.227380956
10
20.1395640119
20
19.3537880486
10
20.408336948
20
19.4783610397
10
20.6779550385
20
19.6010941098
10
20.9484056883
20
19.7219815255
10
21.2196762633
20
19.8410176395
10
21.4917540909
20
19.958196891
10
21.764626461
20
20.073513806
10
22.0382806264
20
20.1869629973
10
22.3127038033
20
20.2985391653
10
22.5878831719
20
20.4082370976
10
22.8638058772
20
20.5160516697
10
23.1404590295
20
20.621977845
10
23.4178297048
20
20.7260106751
10
23.6959049457
20
20.8281453001
10
23.974671762
20
20.9283769488
10
24.2541171309
20
21.0267009389
10
24.5342279983
20
21.1231126772
10
24.8149912785
20
21.2176076597
10
25.0963938558
20
21.3101814721
10
25.3784225844
20
21.4008297898
10
25.6610642893
20
21.4895483782
10
25.9443057668
20
21.5763330927
10
26.2281337853
20
21.6611798793
10
26.5125350857
20
21.7440847742
10
26.7974963821
20
21.8250439046
10
27.0830043626
20
21.9040534884
10
27.3690456896
20
21.9811098347
10
27.6556070007
20
22.0562093439
10
27.942674909
20
22.1293485075
10
28.2302360042
20
22.200523909
10
28.5182768529
20
22.2697322233
10
28.8067839991
20
22.3369702174
10
29.0957439652
20
22.4022347502
10
29.3851432524
20
22.4655227729
10
29.6749683414
20
22.526831329
10
29.965205693
20
22.5861575544
10
30.2558417486
20
22.6434986778
10
30.5468629312
20
22.6988520203
10
30.8382556457
20
22.7522149963
10
31.1300062796
20
22.8035851128
10
31.4221012038
20
22.85295997
10
31.714526773
20
22.9003372614
10
32.0072693265
20
22.9457147738
10
32.3003151888
20
22.9890903874
10
32.5936506702
20
23.0304620758
10
32.8872620675
20
23.0698279064
10
33.1811356647
20
23.1071860401
10
33.4752577333
20
23.1425347319
10
33.7696145335
20
23.1758723303
10
34.0641923142
20
23.2071972781
10
34.3589773143
20
23.2365081118
10
34.6539557629
20
23.2638034622
10
34.9491138799
20
23.2890820542
10
35.244437877
20
23.3123427069
10
35.5399139582
20
23.3335843337
10
35.8355283202
20
23.3528059423
10
36.1312671534
20
23.3700066347
10
36.4271166422
20
23.3851856074
10
36.7230629661
20
23.3983421513
10
37.0190922998
20
23.4094756518
10
37.3151908144
20
23.4185855888
10
37.6113446774
20
23.4256715367
10
37.9075400541
20
23.4307331646
10
38.2037631077
20
23.4337702358
10
38.5
20
23.4347826087
10
38.7962368923
20
23.4337702358
10
39.0924599459
20
23.4307331646
10
39.3886553226
20
23.4256715367
10
39.6848091856
20
23.4185855888
10
39.9809077002
20
23.4094756518
10
40.2769370339
20
23.3983421513
10
40.5728833578
20
23.3851856074
10
40.8687328466
20
23.3700066347
10
41.1644716798
20
23.3528059423
10
41.4600860418
20
23.3335843337
10
41.755562123
20
23.3123427069
10
42.0508861201
20
23.2890820542
10
42.3460442371
20
23.2638034622
10
42.6410226857
20
23.2365081118
10
42.9358076858
20
23.2071972781
10
43.2303854665
20
23.1758723303
10
43.5247422667
20
23.1425347319
10
43.8188643353
20
23.1071860401
10
44.1127379325
20
23.0698279064
10
44.4063493298
20
23.0304620758
10
44.6996848112
20
22.9890903874
10
44.9927306735
20
22.9457147738
10
45.285473227
20
22.9003372614
10
45.5778987962
20
22.85295997
10
45.8699937204
20
22.8035851128
10
46.1617443543
20
22.7522149963
10
46.4531370688
20
22.6988520203
10
46.7441582514
20
22.6434986778
10
47.034794307
20
22.5861575544
10
47.3250316586
20
22.526831329
10
47.6148567476
20
22.4655227729
10
47.9042560348
20
22.4022347502
10
48.1932160009
20
22.3369702174
10
48.4817231471
20
22.2697322233
10
48.7697639958
20
22.200523909
10
49.057325091
20
22.1293485075
10
49.3443929993
20
22.0562093439
10
49.6309543104
20
21.9811098347
10
49.9169956374
20
21.9040534884
10
50.2025036179
20
21.8250439046
10
50.4874649143
20
21.7440847742
10
50.7718662147
20
21.6611798793
10
51.0556942332
20
21.5763330927
10
51.3389357107
20
21.4895483782
10
51.6215774156
20
21.4008297898
10
51.9036061442
20
21.3101814721
10
52.1850087215
20
21.2176076597
10
52.4657720017
20
21.1231126772
10
52.7458828691
20
21.0267009389
10
53.025328238
20
20.9283769488
10
53.3040950543
20
20.8281453001
10
53.5821702952
20
20.7260106751
10
53.8595409705
20
20.621977845
10
54.1361941228
20
20.5160516697
10
54.4121168281
20
20.4082370976
10
54.6872961967
20
20.2985391653
10
54.9617193736
20
20.1869629973
10
55.235373539
20
20.073513806
10
55.5082459091
20
19.958196891
10
55.7803237367
20
19.8410176395
10
56.0515943117
20
19.7219815255
10
56.3220449615
20
19.6010941098
10
56.591663052
20
19.4783610397
10
56.8604359881
20
19.3537880486
10
57.1283512139
20
19.227380956
10
57.3953962137
20
19.099145667
10
57.6615585125
20
18.9690881722
10
57.9268256764
20
18.8372145472
10
58.1911853136
20
18.7035309524
10
58.4546250744
20
18.5680436331
10
58.7171326521
20
18.4307589183
10
58.9786957837
20
18.2916832216
10
59.2393022503
20
18.1508230396
10
59.4989398775
20
18.0081849529
10
59.7575965364
20
17.8637756247
10
60.0152601438
20
17.7176018011
10
60.2719186628
20
17.5696703107
10
60.5275601037
20
17.4199880641
10
60.7821725242
20
17.2685620537
10
61.0357440299
20
17.1153993534
10
61.2882627752
20
16.9605071183
10
61.5397169638
20
16.803892584
10
61.7900948488
20
16.6455630671
10
62.0393847338
20
16.4855259637
10
62.2875749733
20
16.32378875
10
62.534653973
20
16.1603589817
10
62.7806101906
20
15.9952442934
10
63.0254321361
20
15.8284523984
10
63.2691083728
20
15.6599910884
10
63.5116275171
20
15.4898682331
10
63.7529782399
20
15.3180917799
10
63.9931492664
20
15.1446697533
10
64.2321293769
20
14.9696102547
10
64.4699074074
20
14.7929214621
10
64.7064722502
20
14.6146116295
10
64.9418128541
20
14.4346890866
10
65.1759182251
20
14.2531622387
10
65.4087774269
20
14.0700395656
10
65.6403795816
20
13.8853296221
10
65.8707138697
20
13.6990410369
10
66.0997695311
20
13.5111825124
10
66.3275358656
20
13.3217628246
10
66.5540022329
20
13.1307908221
10
66.7791580537
20
12.9382754263
10
67.0029928098
20
12.7442256305
10
67.2254960447
20
12.5486504999
10
67.4466573641
20
12.3515591706
10
67.6664664365
20
12.15296085
10
67.8849129934
20
11.9528648154
10
68.1019868301
20
11.7512804146
10
68.3176778059
20
11.5482170643
10
68.5319758449
20
11.3436842509
10
68.744870936
20
11.1376915291
10
68.9563531338
20
10.9302485219
10
69.166412559
20
10.7213649199
10
69.3750393985
20
10.5110504813
10
69.5822239063
20
10.2993150308
10
69.7879564038
20
10.0861684598
10
69.9922272802
20
9.87162072543
10
70.1950269928
20
9.65568185028
10
70.396346068
20
9.43836192197
10
70.596175101
20
9.21967109265
10
70.7945047568
20
8.99961957848
10
70.9913257704
20
8.7782176592
10
71.1866289473
20
8.55547567763
10
71.3804051639
20
8.33140403919
10
71.5726453678
20
8.10601321142
10
71.7633405787
20
7.87931372349
10
71.952481888
20
7.65131616568
10
72.1400604601
20
7.42203118895
10
72.3260675321
20
7.19146950436
10
72.5104944149
20
6.95964188263
10
72.6933324927
20
6.72655915364
10
72.8745732243
20
6.49223220586
10
73.0542081431
20
6.25667198591
10
73.2322288573
20
6.01988949802
10
73.4086270507
20
5.78189580352
10
73.5833944829
20
5.54270202032
10
73.7565229894
20
5.30231932238
10
73.9280044827
20
5.06075893921
10
74.097830952
20
4.81803215535
10
74.2659944637
20
4.5741503098
10
74.4324871621
20
4.32912479555
10
74.5973012695
20
4.08296705898
10
74.7604290865
20
3.8356885994
10
74.9218629926
20
3.58730096844
10
75.0815954465
20
3.33781576958
10
75.2396189861
20
3.08724465754
10
75.3959262294
20
2.8355993378
10
75.5505098745
20
2.58289156599
10
75.7033627
20
2.32913314739
10
75.8544775653
20
2.07433593637
10
76.0038474111
20
1.8185118358
10
76.1514652595
20
1.56167279656
10
76.2973242146
20
1.3038308169
10
76.4414174626
20
1.04499794195
10
76.583738272
20
0.785186263126
10
76.7242799945
20
0.524407917564
10
76.8630360645
20
0.262675087561
10
77
20
0
10
69
20
0
10
69
20
5
10
63
20
5
10
63
20
0
10
14
20
0
10
14
20
5
10
8
20
5
10
8
20
0
10
0
20
0
10
0.13696393553
20
0.262675087561
0
ENDSEC
0
EOF