0
SECTION
2
HEADER
9
$ACADVER
1
AC1024
9
$INSUNITS
70
4
0
ENDSEC
0
SECTION
2
TABLES
0
TABLE
2
LAYER
70
1
0
LAYER
2
CUT
70
0
62
7
6
CONTINUOUS
0
ENDTAB
0
ENDSEC
0
SECTION
2
ENTITIES
0
LWPOLYLINE
100
AcDbEntity
8
CUT
100
AcDbPolyline
90
579
70
1
10
19.2702378823
20
3.7471960339
10
19.1504623789
20
3.61285149668
10
19.0285047997
20
3.48048467775
10
18.9043977956
20
3.35013101489
10
18.7781745931
20
3.22182540695
10
18.6498689851
20
3.09560220442
10
18.5195153223
20
2.97149520032
10
18.3871485033
20
2.8495376211
10
18.2528039661
20
2.72976211773
10
18.1165176779
20
2.61220075703
10
17.9783261258
20
2.49688501301
10
17.8382663071
20
2.38384575848
10
17.6963757191
20
2.2731132568
10
17.5526923494
20
2.16471715371
10
17.4072546655
20
2.05868646949
10
17.2601016047
20
1.95504959111
10
17.1112725632
20
1.85383426467
10
16.9608073863
20
1.75506758796
10
16.8087463572
20
1.65877600321
10
16.6551301861
20
1.56498529
10
16.5
20
1.47372055837
10
16.3433973309
20
1.38500624211
10
16.1853641051
20
1.29886609217
10
16.0259426319
20
1.21532317036
10
15.8651755924
20
1.13439984314
10
15.7031060277
20
1.05611777564
10
15.5397773278
20
0.980497925867
10
15.3752332198
20
0.907560539078
10
15.209517756
20
0.837325142376
10
15.0426753025
20
0.769810539476
10
14.8747505271
20
0.705034805669
10
14.7057883873
20
0.643015282987
10
14.5358341183
20
0.583768575554
10
14.3649332211
20
0.527310545147
10
14.1931314498
20
0.473656306946
10
14.0204748
20
0.422820225487
10
13.8470094961
20
0.37481591082
10
13.6727819789
20
0.32965621486
10
13.4978388934
20
0.287353227949
10
13.3222270759
20
0.247918275621
10
13.1459935422
20
0.211361915564
10
12.969185474
20
0.177693934802
10
12.7918502073
20
0.146923347066
10
12.614035219
20
0.119058390387
10
12.4357881144
20
0.0941065248881
10
12.2571566146
20
0.0720744307861
10
12.0781885436
20
0.0529680066058
10
11.8989318155
20
0.036792367599
10
11.7194344215
20
0.0235518443754
10
11.5397444176
20
0.0132499817431
10
11.359909911
20
0.00588953775998
10
11.1799790479
20
0.00147248299482
10
11
20
0
10
10.8200209521
20
0.00147248299482
10
10.640090089
20
0.00588953775998
10
10.4602555824
20
0.0132499817431
10
10.2805655785
20
0.0235518443754
10
10.1010681845
20
0.036792367599
10
9.92181145637
20
0.0529680066058
10
9.74284338536
20
0.0720744307861
10
9.56421188558
20
0.0941065248881
10
9.38596478099
20
0.119058390387
10
9.20814979266
20
0.146923347066
10
9.03081452596
20
0.177693934802
10
8.85400645782
20
0.211361915564
10
8.67777292405
20
0.247918275621
10
8.50216110662
20
0.287353227949
10
8.32721802106
20
0.32965621486
10
8.15299050387
20
0.37481591082
10
7.97952519997
20
0.422820225487
10
7.8068685502
20
0.473656306946
10
7.63506677894
20
0.527310545147
10
7.46416588167
20
0.583768575554
10
7.29421161269
20
0.643015282987
10
7.12524947287
20
0.705034805669
10
6.95732469746
20
0.769810539476
10
6.79048224398
20
0.837325142376
10
6.6247667802
20
0.907560539078
10
6.46022267215
20
0.980497925867
10
6.29689397227
20
1.05611777564
10
6.13482440759
20
1.13439984314
10
5.97405736807
20
1.21532317036
10
5.81463589491
20
1.29886609217
10
5.65660266912
20
1.38500624211
10
5.5
20
1.47372055837
10
5.34486981387
20
1.56498529
10
5.19125364285
20
1.65877600321
10
5.03919261368
20
1.75506758796
10
4.88872743678
20
1.85383426467
10
4.73989839533
20
1.95504959111
10
4.59274533445
20
2.05868646949
10
4.44730765058
20
2.16471715371
10
4.3036242809
20
2.2731132568
10
4.16173369293
20
2.38384575848
10
4.0216738742
20
2.49688501301
10
3.88348232212
20
2.61220075703
10
3.7471960339
20
2.72976211773
10
3.61285149668
20
2.8495376211
10
3.48048467775
20
2.97149520032
10
3.35013101489
20
3.09560220442
10
3.22182540695
20
3.22182540695
10
3.09560220442
20
3.35013101489
10
2.97149520032
20
3.48048467775
10
2.8495376211
20
3.61285149668
10
2.72976211773
20
3.7471960339
10
2.61220075703
20
3.88348232212
10
2.49688501301
20
4.0216738742
10
2.38384575848
20
4.16173369293
10
2.2731132568
20
4.3036242809
10
2.16471715371
20
4.44730765058
10
2.05868646949
20
4.59274533445
10
1.95504959111
20
4.73989839533
10
1.85383426467
20
4.88872743678
10
1.75506758796
20
5.03919261368
10
1.65877600321
20
5.19125364285
10
1.56498529
20
5.34486981387
10
1.47372055837
20
5.5
10
1.38500624211
20
5.65660266912
10
1.29886609217
20
5.81463589491
10
1.21532317036
20
5.97405736807
10
1.13439984314
20
6.13482440759
10
1.05611777564
20
6.29689397227
10
0.980497925867
20
6.46022267215
10
0.907560539078
20
6.6247667802
10
0.837325142376
20
6.79048224398
10
0.769810539476
20
6.95732469746
10
0.705034805669
20
7.12524947287
10
0.643015282987
20
7.29421161269
10
0.583768575554
20
7.46416588167
10
0.527310545147
20
7.63506677894
10
0.473656306946
20
7.8068685502
10
0.422820225487
20
7.97952519997
10
0.37481591082
20
8.15299050387
10
0.32965621486
20
8.32721802106
10
0.287353227949
20
8.50216110662
10
0.247918275621
20
8.67777292405
10
0.211361915564
20
8.85400645782
10
0.177693934802
20
9.03081452596
10
0.146923347066
20
9.20814979266
10
0.119058390387
20
9.38596478099
10
0.0941065248881
20
9.56421188558
10
0.0720744307861
20
9.74284338536
10
0.0529680066058
20
9.92181145637
10
0.036792367599
20
10.1010681845
10
0.0235518443754
20
10.2805655785
10
0.0132499817431
20
10.4602555824
10
0.00588953775998
20
10.640090089
10
0.00147248299482
20
10.8200209521
10
0
20
11
10
0.00147248299482
20
11.1799790479
10
0.00588953775998
20
11.359909911
10
0.0132499817431
20
11.5397444176
10
0.0235518443754
20
11.7194344215
10
0.036792367599
20
11.8989318155
10
0.0529680066058
20
12.0781885436
10
0.0720744307861
20
12.2571566146
10
0.0941065248881
20
12.4357881144
10
0.119058390387
20
12.614035219
10
0.146923347066
20
12.7918502073
10
0.177693934802
20
12.969185474
10
0.211361915564
20
13.1459935422
10
0.247918275621
20
13.3222270759
10
0.287353227949
20
13.4978388934
10
0.32965621486
20
13.6727819789
10
0.37481591082
20
13.8470094961
10
0.422820225487
20
14.0204748
10
0.473656306946
20
14.1931314498
10
0.527310545147
20
14.3649332211
10
0.583768575554
20
14.5358341183
10
0.643015282987
20
14.7057883873
10
0.705034805669
20
14.8747505271
10
0.769810539476
20
15.0426753025
10
0.837325142376
20
15.209517756
10
0.907560539078
20
15.3752332198
10
0.980497925867
20
15.5397773278
10
1.05611777564
20
15.7031060277
10
1.13439984314
20
15.8651755924
10
1.21532317036
20
16.0259426319
10
1.29886609217
20
16.1853641051
10
1.38500624211
20
16.3433973309
10
1.47372055837
20
16.5
10
1.56498529
20
16.6551301861
10
1.65877600321
20
16.8087463572
10
1.75506758796
20
16.9608073863
10
1.85383426467
20
17.1112725632
10
1.95504959111
20
17.2601016047
10
2.05868646949
20
17.4072546655
10
2.16471715371
20
17.5526923494
10
2.2731132568
20
17.6963757191
10
2.38384575848
20
17.8382663071
10
2.49688501301
20
17.9783261258
10
2.61220075703
20
18.1165176779
10
2.72976211773
20
18.2528039661
10
2.8495376211
20
18.3871485033
10
2.97149520032
20
18.5195153223
10
3.09560220442
20
18.6498689851
10
3.22182540695
20
18.7781745931
10
3.35013101489
20
18.9043977956
10
3.48048467775
20
19.0285047997
10
3.61285149668
20
19.1504623789
10
3.7471960339
20
19.2702378823
10
3.88348232212
20
19.387799243
10
4.0216738742
20
19.503114987
10
4.16173369293
20
19.6161542415
10
4.3036242809
20
19.7268867432
10
4.44730765058
20
19.8352828463
10
4.59274533445
20
19.9413135305
10
4.73989839533
20
20.0449504089
10
4.88872743678
20
20.1461657353
10
5.03919261368
20
20.244932412
10
5.19125364285
20
20.3412239968
10
5.34486981387
20
20.43501471
10
5.5
20
20.5262794416
10
5.65660266912
20
20.6149937579
10
5.81463589491
20
20.7011339078
10
5.97405736807
20
20.7846768296
10
6.13482440759
20
20.8656001569
10
6.29689397227
20
20.9438822244
10
6.46022267215
20
21.0195020741
10
6.6247667802
20
21.0924394609
10
6.79048224398
20
21.1626748576
10
6.95732469746
20
21.2301894605
10
7.12524947287
20
21.2949651943
10
7.29421161269
20
21.356984717
10
7.46416588167
20
21.4162314244
10
7.63506677894
20
21.4726894549
10
7.8068685502
20
21.5263436931
10
7.97952519997
20
21.5771797745
10
8.15299050387
20
21.6251840892
10
8.32721802106
20
21.6703437851
10
8.50216110662
20
21.7126467721
10
8.67777292405
20
21.7520817244
10
8.85400645782
20
21.7886380844
10
9.03081452596
20
21.8223060652
10
9.20814979266
20
21.8530766529
10
9.38596478099
20
21.8809416096
10
9.56421188558
20
21.9058934751
10
9.74284338536
20
21.9279255692
10
9.92181145637
20
21.9470319934
10
10.1010681845
20
21.9632076324
10
10.2805655785
20
21.9764481556
10
10.4602555824
20
21.9867500183
10
10.640090089
20
21.9941104622
10
10.8200209521
20
21.998527517
10
11
20
22
10
11.1799790479
20
21.998527517
10
11.359909911
20
21.9941104622
10
11.5397444176
20
21.9867500183
10
11.7194344215
20
21.9764481556
10
11.8989318155
20
21.9632076324
10
12.0781885436
20
21.9470319934
10
12.2571566146
20
21.9279255692
10
12.4357881144
20
21.9058934751
10
12.614035219
20
21.8809416096
10
12.7918502073
20
21.8530766529
10
12.969185474
20
21.8223060652
10
13.1459935422
20
21.7886380844
10
13.3222270759
20
21.7520817244
10
13.4978388934
20
21.7126467721
10
13.6727819789
20
21.6703437851
10
13.8470094961
20
21.6251840892
10
14.0204748
20
21.5771797745
10
14.1931314498
20
21.5263436931
10
14.3649332211
20
21.4726894549
10
14.5358341183
20
21.4162314244
10
14.7057883873
20
21.356984717
10
14.8747505271
20
21.2949651943
10
15.0426753025
20
21.2301894605
10
15.209517756
20
21.1626748576
10
15.3752332198
20
21.0924394609
10
15.5397773278
20
21.0195020741
10
15.7031060277
20
20.9438822244
10
15.8651755924
20
20.8656001569
10
16.0259426319
20
20.7846768296
10
16.1853641051
20
20.7011339078
10
16.3433973309
20
20.6149937579
10
16.5
20
20.5262794416
10
16.6551301861
20
20.43501471
10
16.8087463572
20
20.3412239968
10
16.9608073863
20
20.244932412
10
17.1112725632
20
20.1461657353
10
17.2601016047
20
20.0449504089
10
17.4072546655
20
19.9413135305
10
17.5526923494
20
19.8352828463
10
17.6963757191
20
19.7268867432
10
17.8382663071
20
19.6161542415
10
17.9783261258
20
19.503114987
10
18.1165176779
20
19.387799243
10
18.2528039661
20
19.2702378823
10
18.3871485033
20
19.1504623789
10
18.5195153223
20
19.0285047997
10
18.6498689851
20
18.9043977956
10
18.7781745931
20
18.7781745931
10
18.9043977956
20
18.6498689851
10
19.0285047997
20
18.5195153223
10
19.1504623789
20
18.3871485033
10
19.2702378823
20
18.2528039661
10
19.387799243
20
18.1165176779
10
19.503114987
20
17.9783261258
10
19.6161542415
20
17.8382663071
10
19.7268867432
20
17.6963757191
10
19.8352828463
20
17.5526923494
10
19.9413135305
20
17.4072546655
10
20.0449504089
20
17.2601016047
10
20.1461657353
20
17.1112725632
10
20.244932412
20
16.9608073863
10
20.3412239968
20
16.8087463572
10
20.43501471
20
16.6551301861
10
20.5
20
16.5446693328
10
20.5
20
17
10
29
20
17
10
29.2930317418
20
17
10
29.4459977671
20
17.1307908221
10
29.6724641344
20
17.3217628246
10
29.9002304689
20
17.5111825124
10
30.1292861303
20
17.6990410369
10
30.3596204184
20
17.8853296221
10
30.5912225731
20
18.0700395656
10
30.8240817749
20
18.2531622387
10
31.0581871459
20
18.4346890866
10
31.2935277498
20
18.6146116295
10
31.5300925926
20
18.7929214621
10
31.7678706231
20
18.9696102547
10
32.0068507336
20
19.1446697533
10
32.2470217601
20
19.3180917799
10
32.4883724829
20
19.4898682331
10
32.7308916272
20
19.6599910884
10
32.9745678639
20
19.8284523984
10
33.2193898094
20
19.9952442934
10
33.465346027
20
20.1603589817
10
33.7124250267
20
20.32378875
10
33.9606152662
20
20.4855259637
10
34.2099051512
20
20.6455630671
10
34.4602830362
20
20.803892584
10
34.7117372248
20
20.9605071183
10
34.9642559701
20
21.1153993534
10
35.2178274758
20
21.2685620537
10
35.4724398963
20
21.4199880641
10
35.7280813372
20
21.5696703107
10
35.9847398562
20
21.7176018011
10
36.2424034636
20
21.8637756247
10
36.5010601225
20
22.0081849529
10
36.7606977497
20
22.1508230396
10
37.0213042163
20
22.2916832216
10
37.2828673479
20
22.4307589183
10
37.5453749256
20
22.5680436331
10
37.8088146864
20
22.7035309524
10
38.0731743236
20
22.8372145472
10
38.3384414875
20
22.9690881722
10
38.6046037863
20
23.099145667
10
38.8716487861
20
23.227380956
10
39.1395640119
20
23.3537880486
10
39.408336948
20
23.4783610397
10
39.6779550385
20
23.6010941098
10
39.9484056883
20
23.7219815255
10
40.2196762633
20
23.8410176395
10
40.4917540909
20
23.958196891
10
40.764626461
20
24.073513806
10
41.0382806264
20
24.1869629973
10
41.3127038033
20
24.2985391653
10
41.5878831719
20
24.4082370976
10
41.8638058772
20
24.5160516697
10
42.1404590295
20
24.621977845
10
42.4178297048
20
24.7260106751
10
42.6959049457
20
24.8281453001
10
42.974671762
20
24.9283769488
10
43.2541171309
20
25.0267009389
10
43.5342279983
20
25.1231126772
10
43.8149912785
20
25.2176076597
10
44.0963938558
20
25.3101814721
10
44.3784225844
20
25.4008297898
10
44.6610642893
20
25.4895483782
10
44.9443057668
20
25.5763330927
10
45.2281337853
20
25.6611798793
10
45.5125350857
20
25.7440847742
10
45.7974963821
20
25.8250439046
10
46.0830043626
20
25.9040534884
10
46.3690456896
20
25.9811098347
10
46.6556070007
20
26.0562093439
10
46.942674909
20
26.1293485075
10
47.2302360042
20
26.200523909
10
47.5182768529
20
26.2697322233
10
47.8067839991
20
26.3369702174
10
48.0957439652
20
26.4022347502
10
48.3851432524
20
26.4655227729
10
48.6749683414
20
26.526831329
10
48.965205693
20
26.5861575544
10
49.2558417486
20
26.6434986778
10
49.5468629312
20
26.6988520203
10
49.8382556457
20
26.7522149963
10
50.1300062796
20
26.8035851128
10
50.4221012038
20
26.85295997
10
50.714526773
20
26.9003372614
10
51.0072693265
20
26.9457147738
10
51.3003151888
20
26.9890903874
10
51.5936506702
20
27.0304620758
10
51.8872620675
20
27.0698279064
10
52.1811356647
20
27.1071860401
10
52.4752577333
20
27.1425347319
10
52.7696145335
20
27.1758723303
10
53.0641923142
20
27.2071972781
10
53.3589773143
20
27.2365081118
10
53.6539557629
20
27.2638034622
10
53.9491138799
20
27.2890820542
10
54.244437877
20
27.3123427069
10
54.5399139582
20
27.3335843337
10
54.8355283202
20
27.3528059423
10
55.1312671534
20
27.3700066347
10
55.4271166422
20
27.3851856074
10
55.7230629661
20
27.3983421513
10
56.0190922998
20
27.4094756518
10
56.3151908144
20
27.4185855888
10
56.6113446774
20
27.4256715367
10
56.9075400541
20
27.4307331646
10
57.2037631077
20
27.4337702358
10
57.5
20
27.4347826087
10
57.7962368923
20
27.4337702358
10
58.0924599459
20
27.4307331646
10
58.3886553226
20
27.4256715367
10
58.6848091856
20
27.4185855888
10
58.9809077002
20
27.4094756518
10
59.2769370339
20
27.3983421513
10
59.5728833578
20
27.3851856074
10
59.8687328466
20
27.3700066347
10
60.1644716798
20
27.3528059423
10
60.4600860418
20
27.3335843337
10
60.755562123
20
27.3123427069
10
61.0508861201
20
27.2890820542
10
61.3460442371
20
27.2638034622
10
61.6410226857
20
27.2365081118
10
61.9358076858
20
27.2071972781
10
62.2303854665
20
27.1758723303
10
62.5247422667
20
27.1425347319
10
62.8188643353
20
27.1071860401
10
63.1127379325
20
27.0698279064
10
63.4063493298
20
27.0304620758
10
63.6996848112
20
26.9890903874
10
63.9927306735
20
26.9457147738
10
64.285473227
20
26.9003372614
10
64.5778987962
20
26.85295997
10
64.8699937204
20
26.8035851128
10
65.1617443543
20
26.7522149963
10
65.4531370688
20
26.6988520203
10
65.7441582514
20
26.6434986778
10
66.034794307
20
26.5861575544
10
66.3250316586
20
26.526831329
10
66.6148567476
20
26.4655227729
10
66.9042560348
20
26.4022347502
10
67.1932160009
20
26.3369702174
10
67.4817231471
20
26.2697322233
10
67.7697639958
20
26.200523909
10
68.057325091
20
26.1293485075
10
68.3443929993
20
26.0562093439
10
68.6309543104
20
25.9811098347
10
68.9169956374
20
25.9040534884
10
69.2025036179
20
25.8250439046
10
69.4874649143
20
25.7440847742
10
69.7718662147
20
25.6611798793
10
70.0556942332
20
25.5763330927
10
70.3389357107
20
25.4895483782
10
70.6215774156
20
25.4008297898
10
70.9036061442
20
25.3101814721
10
71.1850087215
20
25.2176076597
10
71.4657720017
20
25.1231126772
10
71.7458828691
20
25.0267009389
10
72.025328238
20
24.9283769488
10
72.3040950543
20
24.8281453001
10
72.5821702952
20
24.7260106751
10
72.8595409705
20
24.621977845
10
73.1361941228
20
24.5160516697
10
73.4121168281
20
24.4082370976
10
73.6872961967
20
24.2985391653
10
73.9617193736
20
24.1869629973
10
74.235373539
20
24.073513806
10
74.5082459091
20
23.958196891
10
74.7803237367
20
23.8410176395
10
75.0515943117
20
23.7219815255
10
75.3220449615
20
23.6010941098
10
75.591663052
20
23.4783610397
10
75.8604359881
20
23.3537880486
10
76.1283512139
20
23.227380956
10
76.3953962137
20
23.099145667
10
76.6615585125
20
22.9690881722
10
76.9268256764
20
22.8372145472
10
77.1911853136
20
22.7035309524
10
77.4546250744
20
22.5680436331
10
77.7171326521
20
22.4307589183
10
77.9786957837
20
22.2916832216
10
78.2393022503
20
22.1508230396
10
78.4989398775
20
22.0081849529
10
78.7575965364
20
21.8637756247
10
79.0152601438
20
21.7176018011
10
79.2719186628
20
21.5696703107
10
79.5275601037
20
21.4199880641
10
79.7821725242
20
21.2685620537
10
80.0357440299
20
21.1153993534
10
80.2882627752
20
20.9605071183
10
80.5397169638
20
20.803892584
10
80.7900948488
20
20.6455630671
10
81.0393847338
20
20.4855259637
10
81.2875749733
20
20.32378875
10
81.534653973
20
20.1603589817
10
81.7806101906
20
19.9952442934
10
82.0254321361
20
19.8284523984
10
82.2691083728
20
19.6599910884
10
82.5116275171
20
19.4898682331
10
82.7529782399
20
19.3180917799
10
82.9931492664
20
19.1446697533
10
83.2321293769
20
18.9696102547
10
83.4699074074
20
18.7929214621
10
83.7064722502
20
18.6146116295
10
83.9418128541
20
18.4346890866
10
84.1759182251
20
18.2531622387
10
84.4087774269
20
18.0700395656
10
84.6403795816
20
17.8853296221
10
84.8707138697
20
17.6990410369
10
85.0997695311
20
17.5111825124
10
85.3275358656
20
17.3217628246
10
85.5540022329
20
17.1307908221
10
85.7791580537
20
16.9382754263
10
86.0029928098
20
16.7442256305
10
86.2254960447
20
16.5486504999
10
86.4466573641
20
16.3515591706
10
86.6664664365
20
16.15296085
10
86.8849129934
20
15.9528648154
10
87.1019868301
20
15.7512804146
10
87.3176778059
20
15.5482170643
10
87.5319758449
20
15.3436842509
10
87.744870936
20
15.1376915291
10
87.9563531338
20
14.9302485219
10
88.166412559
20
14.7213649199
10
88.3750393985
20
14.5110504813
10
88.5822239063
20
14.2993150308
10
88.7879564038
20
14.0861684598
10
88.9922272802
20
13.8716207254
10
89.1950269928
20
13.6556818503
10
89.396346068
20
13.438361922
10
89.596175101
20
13.2196710926
10
89.7945047568
20
12.9996195785
10
89.9913257704
20
12.7782176592
10
90.1866289473
20
12.5554756776
10
90.3804051639
20
12.3314040392
10
90.5726453678
20
12.1060132114
10
90.7633405787
20
11.8793137235
10
90.952481888
20
11.6513161657
10
91.1400604601
20
11.4220311889
10
91.3260675321
20
11.1914695044
10
91.5104944149
20
10.9596418826
10
91.6933324927
20
10.7265591536
10
91.8745732243
20
10.4922322059
10
92.0542081431
20
10.2566719859
10
92.2322288573
20
10.019889498
10
92.4086270507
20
9.78189580352
10
92.5833944829
20
9.54270202032
10
92.7565229894
20
9.30231932238
10
92.9280044827
20
9.06075893921
10
93.097830952
20
8.81803215535
10
93.2659944637
20
8.5741503098
10
93.4324871621
20
8.32912479555
10
93.5973012695
20
8.08296705898
10
93.7604290865
20
7.8356885994
10
93.9218629926
20
7.58730096844
10
94.0815954465
20
7.33781576958
10
94.2396189861
20
7.08724465754
10
94.3959262294
20
6.8355993378
10
94.5505098745
20
6.58289156599
10
94.7033627
20
6.32913314739
10
94.8544775653
20
6.07433593637
10
95.0038474111
20
5.8185118358
10
95.1514652595
20
5.56167279656
10
95.2973242146
20
5.3038308169
10
95.4414174626
20
5.04499794195
10
95.583738272
20
4.78518626313
10
95.7242799945
20
4.52440791756
10
95.8630360645
20
4.26267508756
10
96
20
4
10
19.4850289398
20
4
10
19.387799243
20
3.88348232212
10
19.2702378823
20
3.7471960339
0
LWPOLYLINE
100
AcDbEntity
8
CUT
100
AcDbPolyline
90
5
70
1
10
27
20
6
10
33
20
6
10
33
20
12
10
27
20
12
10
27
20
6
0
LWPOLYLINE
100
AcDbEntity
8
CUT
100
AcDbPolyline
90
5
70
1
10
82
20
6
10
88
20
6
10
88
20
12
10
82
20
12
10
82
20
6
0
LWPOLYLINE
100
AcDbEntity
8
CUT
100
AcDbPolyline
90
147
70
1
10
34.0100907605
20
20.3984317059
10
33.8683343701
20
20.3063221221
10
36.1089558103
20
16.8727211608
10
36.2372716581
20
16.9560974326
10
36.365912479
20
17.0389714255
10
36.4948763069
20
17.1213418729
10
36.6241611707
20
17.2032075159
10
36.7537650944
20
17.2845671033
10
36.8836860973
20
17.3654193915
10
37.0139221937
20
17.4457631449
10
37.144471393
20
17.5255971356
10
37.2753317
20
17.6049201433
10
37.4065011147
20
17.6837309557
10
37.5379776323
20
17.7620283683
10
37.6697592434
20
17.8398111844
10
37.8018439339
20
17.9170782152
10
37.934229685
20
17.9938282798
10
38.0669144733
20
18.0700602052
10
38.199896271
20
18.1457728262
10
38.3331730456
20
18.2209649857
10
38.4667427602
20
18.2956355345
10
38.6006033733
20
18.3697833313
10
38.734752839
20
18.4434072429
10
38.869189107
20
18.516506144
10
39.0039101227
20
18.5890789174
10
39.138913827
20
18.661124454
10
39.2741981565
20
18.7326416525
10
39.4097610436
20
18.80362942
10
39.5456004165
20
18.8740866716
10
39.6817141989
20
18.9440123302
10
39.8181003106
20
19.0134053274
10
39.954756667
20
19.0822646023
10
40.0916811796
20
19.1505891027
10
40.2288717557
20
19.2183777843
10
40.3663262984
20
19.285629611
10
40.5040427069
20
19.352343555
10
40.6420188765
20
19.4185185965
10
40.7802526984
20
19.4841537243
10
40.9187420598
20
19.5492479352
10
41.057484844
20
19.6138002343
10
41.1964789307
20
19.677809635
10
41.3357221954
20
19.741275159
10
41.4752125101
20
19.8041958363
10
41.6149477427
20
19.8665707052
10
41.7549257576
20
19.9283988125
10
41.8951444154
20
19.9896792131
10
42.0356015731
20
20.0504109706
10
42.1762950839
20
20.1105931566
10
42.3172227976
20
20.1702248513
10
42.4583825602
20
20.2293051435
10
42.5997722143
20
20.2878331301
10
42.741389599
20
20.3458079165
10
42.8832325498
20
20.4032286168
10
43.0252988988
20
20.4600943533
10
43.1675864747
20
20.5164042568
10
43.3100931029
20
20.5721574669
10
43.4528166053
20
20.6273531313
10
43.5957548006
20
20.6819904065
10
43.7389055041
20
20.7360684574
10
43.882266528
20
20.7895864575
10
44.0258356812
20
20.8425435888
10
44.1696107694
20
20.894939042
10
44.3135895952
20
20.9467720163
10
44.4577699581
20
20.9980417194
10
44.6021496545
20
21.0487473678
10
44.7467264777
20
21.0988881865
10
44.891498218
20
21.1484634092
10
45.0364626629
20
21.1974722781
10
45.1816175966
20
21.2459140443
10
45.3269608008
20
21.2937879673
10
45.472490054
20
21.3410933156
10
45.618203132
20
21.387829366
10
45.7640978077
20
21.4339954043
10
45.9101718514
20
21.4795907249
10
46.0564230305
20
21.5246146309
10
44.857756725
20
25.4454817656
10
44.6961863532
20
25.3957417958
10
44.534811671
20
25.3453705581
10
44.3736351448
20
25.2943688225
10
44.2126592379
20
25.2427373684
10
44.0518864108
20
25.1904769849
10
43.8913191204
20
25.1375884708
10
43.7309598211
20
25.0840726345
10
43.5708109635
20
25.0299302937
10
43.4108749954
20
24.975162276
10
43.2511543613
20
24.9197694186
10
43.0916515021
20
24.8637525679
10
42.9323688558
20
24.8071125801
10
42.7733088567
20
24.749850321
10
42.6144739358
20
24.6919666656
10
42.4558665208
20
24.6334624986
10
42.2974890358
20
24.5743387143
10
42.1393439013
20
24.5145962162
10
41.9814335344
20
24.4542359174
10
41.8237603486
20
24.3932587405
10
41.6663267536
20
24.3316656174
10
41.5091351557
20
24.2694574895
10
41.3521879573
20
24.2066353076
10
41.1954875571
20
24.1432000317
10
41.0390363501
20
24.0791526315
10
40.8828367275
20
24.0144940858
10
40.7268910765
20
23.9492253828
10
40.5712017807
20
23.8833475201
10
40.4157712194
20
23.8168615046
10
40.2606017683
20
23.7497683523
10
40.1056957989
20
23.6820690888
10
39.9510556787
20
23.6137647487
10
39.7966837713
20
23.5448563759
10
39.6425824359
20
23.4753450237
10
39.4887540279
20
23.4052317544
10
39.3352008983
20
23.3345176396
10
39.181925394
20
23.2632037601
10
39.0289298575
20
23.1912912059
10
38.8762166273
20
23.1187810759
10
38.7237880373
20
23.0456744785
10
38.5716464171
20
22.971972531
10
38.4197940922
20
22.8976763598
10
38.2682333834
20
22.8227871004
10
38.116966607
20
22.7473058975
10
37.965996075
20
22.6712339046
10
37.8153240947
20
22.5945722844
10
37.6649529691
20
22.5173222086
10
37.5148849962
20
22.4394848579
10
37.3651224698
20
22.3610614219
10
37.2156676787
20
22.2820530991
10
37.0665229072
20
22.2024610972
10
36.9176904347
20
22.1222866326
10
36.769172536
20
22.0415309306
10
36.6209714809
20
21.9601952256
10
36.4730895346
20
21.8782807606
10
36.3255289571
20
21.7957887875
10
36.1782920038
20
21.7127205672
10
36.031380925
20
21.6290773692
10
35.8847979661
20
21.544860472
10
35.7385453673
20
21.4600711626
10
35.592625364
20
21.3747107369
10
35.4470401863
20
21.2887804997
10
35.3017920593
20
21.2022817642
10
35.156883203
20
21.1152158524
10
35.012315832
20
21.027584095
10
34.868092156
20
20.9393878313
10
34.7242143792
20
20.8506284094
10
34.5806847006
20
20.7613071858
10
34.4375053137
20
20.6714255257
10
34.2946784071
20
20.5809848027
10
34.1522061635
20
20.4899863992
10
34.0100907605
20
20.3984317059
0
LWPOLYLINE
100
AcDbEntity
8
CUT
100
AcDbPolyline
90
147
70
1
10
70.465188329
20
25.3453705581
10
70.3038136468
20
25.3957417958
10
70.142243275
20
25.4454817656
10
68.9435769695
20
21.5246146309
10
69.0898281486
20
21.4795907249
10
69.2359021923
20
21.4339954043
10
69.381796868
20
21.387829366
10
69.527509946
20
21.3410933156
10
69.6730391992
20
21.2937879673
10
69.8183824034
20
21.2459140443
10
69.9635373371
20
21.1974722781
10
70.108501782
20
21.1484634092
10
70.2532735223
20
21.0988881865
10
70.3978503455
20
21.0487473678
10
70.5422300419
20
20.9980417194
10
70.6864104048
20
20.9467720163
10
70.8303892306
20
20.894939042
10
70.9741643188
20
20.8425435888
10
71.117733472
20
20.7895864575
10
71.2610944959
20
20.7360684574
10
71.4042451994
20
20.6819904065
10
71.5471833947
20
20.6273531313
10
71.6899068971
20
20.5721574669
10
71.8324135253
20
20.5164042568
10
71.9747011012
20
20.4600943533
10
72.1167674502
20
20.4032286168
10
72.258610401
20
20.3458079165
10
72.4002277857
20
20.2878331301
10
72.5416174398
20
20.2293051435
10
72.6827772024
20
20.1702248513
10
72.8237049161
20
20.1105931566
10
72.9643984269
20
20.0504109706
10
73.1048555846
20
19.9896792131
10
73.2450742424
20
19.9283988125
10
73.3850522573
20
19.8665707052
10
73.5247874899
20
19.8041958363
10
73.6642778046
20
19.741275159
10
73.8035210693
20
19.677809635
10
73.942515156
20
19.6138002343
10
74.0812579402
20
19.5492479352
10
74.2197473016
20
19.4841537243
10
74.3579811235
20
19.4185185965
10
74.4959572931
20
19.352343555
10
74.6336737016
20
19.285629611
10
74.7711282443
20
19.2183777843
10
74.9083188204
20
19.1505891027
10
75.045243333
20
19.0822646023
10
75.1818996894
20
19.0134053274
10
75.3182858011
20
18.9440123302
10
75.4543995835
20
18.8740866716
10
75.5902389564
20
18.80362942
10
75.7258018435
20
18.7326416525
10
75.861086173
20
18.661124454
10
75.9960898773
20
18.5890789174
10
76.130810893
20
18.516506144
10
76.265247161
20
18.4434072429
10
76.3993966267
20
18.3697833313
10
76.5332572398
20
18.2956355345
10
76.6668269544
20
18.2209649857
10
76.800103729
20
18.1457728262
10
76.9330855267
20
18.0700602052
10
77.065770315
20
17.9938282798
10
77.1981560661
20
17.9170782152
10
77.3302407566
20
17.8398111844
10
77.4620223677
20
17.7620283683
10
77.5934988853
20
17.6837309557
10
77.7246683
20
17.6049201433
10
77.855528607
20
17.5255971356
10
77.9860778063
20
17.4457631449
10
78.1163139027
20
17.3654193915
10
78.2462349056
20
17.2845671033
10
78.3758388293
20
17.2032075159
10
78.5051236931
20
17.1213418729
10
78.634087521
20
17.0389714255
10
78.7627283419
20
16.9560974326
10
78.8910441897
20
16.8727211608
10
81.1316656299
20
20.3063221221
10
80.9899092395
20
20.3984317059
10
80.8477938365
20
20.4899863992
10
80.7053215929
20
20.5809848027
10
80.5624946863
20
20.6714255257
10
80.4193152994
20
20.7613071858
10
80.2757856208
20
20.8506284094
10
80.131907844
20
20.9393878313
10
79.987684168
20
21.027584095
10
79.843116797
20
21.1152158524
10
79.6982079407
20
21.2022817642
10
79.5529598137
20
21.2887804997
10
79.407374636
20
21.3747107369
10
79.2614546327
20
21.4600711626
10
79.1152020339
20
21.544860472
10
78.968619075
20
21.6290773692
10
78.8217079962
20
21.7127205672
10
78.6744710429
20
21.7957887875
10
78.5269104654
20
21.8782807606
10
78.3790285191
20
21.9601952256
10
78.230827464
20
22.0415309306
10
78.0823095653
20
22.1222866326
10
77.9334770928
20
22.2024610972
10
77.7843323213
20
22.2820530991
10
77.6348775302
20
22.3610614219
10
77.4851150038
20
22.4394848579
10
77.3350470309
20
22.5173222086
10
77.1846759053
20
22.5945722844
10
77.034003925
20
22.6712339046
10
76.883033393
20
22.7473058975
10
76.7317666166
20
22.8227871004
10
76.5802059078
20
22.8976763598
10
76.4283535829
20
22.971972531
10
76.2762119627
20
23.0456744785
10
76.1237833727
20
23.1187810759
10
75.9710701425
20
23.1912912059
10
75.818074606
20
23.2632037601
10
75.6647991017
20
23.3345176396
10
75.5112459721
20
23.4052317544
10
75.3574175641
20
23.4753450237
10
75.2033162287
20
23.5448563759
10
75.0489443213
20
23.6137647487
10
74.8943042011
20
23.6820690888
10
74.7393982317
20
23.7497683523
10
74.5842287806
20
23.8168615046
10
74.4287982193
20
23.8833475201
10
74.2731089235
20
23.9492253828
10
74.1171632725
20
24.0144940858
10
73.9609636499
20
24.0791526315
10
73.8045124429
20
24.1432000317
10
73.6478120427
20
24.2066353076
10
73.4908648443
20
24.2694574895
10
73.3336732464
20
24.3316656174
10
73.1762396514
20
24.3932587405
10
73.0185664656
20
24.4542359174
10
72.8606560987
20
24.5145962162
10
72.7025109642
20
24.5743387143
10
72.5441334792
20
24.6334624986
10
72.3855260642
20
24.6919666656
10
72.2266911433
20
24.749850321
10
72.0676311442
20
24.8071125801
10
71.9083484979
20
24.8637525679
10
71.7488456387
20
24.9197694186
10
71.5891250046
20
24.975162276
10
71.4291890365
20
25.0299302937
10
71.2690401789
20
25.0840726345
10
71.1086808796
20
25.1375884708
10
70.9481135892
20
25.1904769849
10
70.7873407621
20
25.2427373684
10
70.6263648552
20
25.2943688225
10
70.465188329
20
25.3453705581
0
LWPOLYLINE
100
AcDbEntity
8
CUT
100
AcDbPolyline
90
147
70
1
10
51.7690914234
20
26.9533419775
10
51.6015733634
20
26.9306098589
10
51.4341454531
20
26.9072230141
10
52.009275618
20
22.8477618068
10
52.1608289568
20
22.8689312427
10
52.3124638978
20
22.8895080298
10
52.4641781235
20
22.9094918536
10
52.6159693153
20
22.9288824086
10
52.767835153
20
22.9476793986
10
52.9197733157
20
22.9658825361
10
53.0717814812
20
22.983491543
10
53.2238573263
20
23.0005061502
10
53.3759985266
20
23.0169260976
10
53.5282027569
20
23.0327511343
10
53.6804676909
20
23.0479810183
10
53.8327910015
20
23.062615517
10
53.9851703606
20
23.0766544066
10
54.1376034393
20
23.0900974727
10
54.2900879079
20
23.1029445096
10
54.4426214357
20
23.1151953212
10
54.5952016916
20
23.1268497201
10
54.7478263436
20
23.1379075282
10
54.9004930589
20
23.1483685765
10
55.0531995044
20
23.1582327052
10
55.2059433459
20
23.1674997634
10
55.3587222492
20
23.1761696096
10
55.511533879
20
23.1842421112
10
55.6643759
20
23.1917171449
10
55.8172459761
20
23.1985945964
10
55.9701417709
20
23.2048743605
10
56.1230609476
20
23.2105563414
10
56.276001169
20
23.2156404522
10
56.4289600976
20
23.2201266151
10
56.5819353957
20
23.2240147617
10
56.7349247252
20
23.2273048324
10
56.8879257479
20
23.229996777
10
57.0409361253
20
23.2320905544
10
57.1939535189
20
23.2335861325
10
57.3469755901
20
23.2344834885
10
57.5
20
23.2347826087
10
57.6530244099
20
23.2344834885
10
57.8060464811
20
23.2335861325
10
57.9590638747
20
23.2320905544
10
58.1120742521
20
23.229996777
10
58.2650752748
20
23.2273048324
10
58.4180646043
20
23.2240147617
10
58.5710399024
20
23.2201266151
10
58.723998831
20
23.2156404522
10
58.8769390524
20
23.2105563414
10
59.0298582291
20
23.2048743605
10
59.1827540239
20
23.1985945964
10
59.3356241
20
23.1917171449
10
59.488466121
20
23.1842421112
10
59.6412777508
20
23.1761696096
10
59.7940566541
20
23.1674997634
10
59.9468004956
20
23.1582327052
10
60.0995069411
20
23.1483685765
10
60.2521736564
20
23.1379075282
10
60.4047983084
20
23.1268497201
10
60.5573785643
20
23.1151953212
10
60.7099120921
20
23.1029445096
10
60.8623965607
20
23.0900974727
10
61.0148296394
20
23.0766544066
10
61.1672089985
20
23.062615517
10
61.3195323091
20
23.0479810183
10
61.4717972431
20
23.0327511343
10
61.6240014734
20
23.0169260976
10
61.7761426737
20
23.0005061502
10
61.9282185188
20
22.983491543
10
62.0802266843
20
22.9658825361
10
62.232164847
20
22.9476793986
10
62.3840306847
20
22.9288824086
10
62.5358218765
20
22.9094918536
10
62.6875361022
20
22.8895080298
10
62.8391710432
20
22.8689312427
10
62.990724382
20
22.8477618068
10
63.5658545469
20
26.9072230141
10
63.3984266366
20
26.9306098589
10
63.2309085766
20
26.9533419775
10
63.0633029272
20
26.9754190223
10
62.8956122499
20
26.996840656
10
62.7278391077
20
27.0176065511
10
62.5599860648
20
27.0377163903
10
62.3920556867
20
27.0571698663
10
62.2240505398
20
27.0759666816
10
62.055973192
20
27.0941065491
10
61.8878262121
20
27.1115891915
10
61.7196121699
20
27.1284143415
10
61.5513336366
20
27.144581742
10
61.3829931838
20
27.160091146
10
61.2145933846
20
27.1749423164
10
61.0461368127
20
27.1891350262
10
60.8776260427
20
27.2026690584
10
60.70906365
20
27.2155442063
10
60.5404522111
20
27.2277602731
10
60.3717943027
20
27.239317072
10
60.2030925028
20
27.2502144265
10
60.0343493896
20
27.2604521699
10
59.8655675422
20
27.2700301458
10
59.6967495402
20
27.2789482078
10
59.5278979637
20
27.2872062197
10
59.3590153934
20
27.2948040551
10
59.1901044105
20
27.301741598
10
59.0211675966
20
27.3080187424
10
58.8522075336
20
27.3136353922
10
58.6832268039
20
27.3185914618
10
58.5142279901
20
27.3228868752
10
58.3452136752
20
27.3265215669
10
58.1761864423
20
27.3294954814
10
58.0071488747
20
27.3318085731
10
57.838103556
20
27.3334608067
10
57.6690530699
20
27.3344521569
10
57.5
20
27.3347826087
10
57.3309469301
20
27.3344521569
10
57.161896444
20
27.3334608067
10
56.9928511253
20
27.3318085731
10
56.8238135577
20
27.3294954814
10
56.6547863248
20
27.3265215669
10
56.4857720099
20
27.3228868752
10
56.3167731961
20
27.3185914618
10
56.1477924664
20
27.3136353922
10
55.9788324034
20
27.3080187424
10
55.8098955895
20
27.301741598
10
55.6409846066
20
27.2948040551
10
55.4721020363
20
27.2872062197
10
55.3032504598
20
27.2789482078
10
55.1344324578
20
27.2700301458
10
54.9656506104
20
27.2604521699
10
54.7969074972
20
27.2502144265
10
54.6282056973
20
27.239317072
10
54.4595477889
20
27.2277602731
10
54.29093635
20
27.2155442063
10
54.1223739573
20
27.2026690584
10
53.9538631873
20
27.1891350262
10
53.7854066154
20
27.1749423164
10
53.6170068162
20
27.160091146
10
53.4486663634
20
27.144581742
10
53.2803878301
20
27.1284143415
10
53.1121737879
20
27.1115891915
10
52.944026808
20
27.0941065491
10
52.7759494602
20
27.0759666816
10
52.6079443133
20
27.0571698663
10
52.4400139352
20
27.0377163903
10
52.2721608923
20
27.0176065511
10
52.1043877501
20
26.996840656
10
51.9366970728
20
26.9754190223
10
51.7690914234
20
26.9533419775
0
ENDSEC
0
EOF