0
SECTION
2
HEADER
9
$ACADVER
1
AC1024
9
$INSUNITS
70
4
0
ENDSEC
0
SECTION
2
TABLES
0
TABLE
2
LAYER
70
1
0
LAYER
2
CUT
70
0
62
7
6
CONTINUOUS
0
ENDTAB
0
ENDSEC
0
SECTION
2
ENTITIES
0
LWPOLYLINE
100
AcDbEntity
8
CUT
100
AcDbPolyline
90
385
70
1
10
22
20
11
10
21.998527517
20
10.8200209521
10
21.9941104622
20
10.640090089
10
21.9867500183
20
10.4602555824
10
21.9764481556
20
10.2805655785
10
21.9632076324
20
10.1010681845
10
21.9470319934
20
9.92181145637
10
21.9279255692
20
9.74284338536
10
21.9058934751
20
9.56421188558
10
21.8809416096
20
9.38596478099
10
21.8530766529
20
9.20814979266
10
21.8223060652
20
9.03081452596
10
21.7886380844
20
8.85400645782
10
21.7520817244
20
8.67777292405
10
21.7126467721
20
8.50216110662
10
21.6703437851
20
8.32721802106
10
21.6251840892
20
8.15299050387
10
21.5771797745
20
7.97952519997
10
21.5263436931
20
7.8068685502
10
21.4726894549
20
7.63506677894
10
21.4162314244
20
7.46416588167
10
21.356984717
20
7.29421161269
10
21.2949651943
20
7.12524947287
10
21.2301894605
20
6.95732469746
10
21.1626748576
20
6.79048224398
10
21.0924394609
20
6.6247667802
10
21.0195020741
20
6.46022267215
10
20.9438822244
20
6.29689397227
10
20.8656001569
20
6.13482440759
10
20.7846768296
20
5.97405736807
10
20.7011339078
20
5.81463589491
10
20.6149937579
20
5.65660266912
10
20.5262794416
20
5.5
10
20.43501471
20
5.34486981387
10
20.3412239968
20
5.19125364285
10
20.244932412
20
5.03919261368
10
20.1461657353
20
4.88872743678
10
20.0449504089
20
4.73989839533
10
19.9413135305
20
4.59274533445
10
19.8352828463
20
4.44730765058
10
19.7268867432
20
4.3036242809
10
19.6161542415
20
4.16173369293
10
19.503114987
20
4.0216738742
10
19.387799243
20
3.88348232212
10
19.2702378823
20
3.7471960339
10
19.1504623789
20
3.61285149668
10
19.0285047997
20
3.48048467775
10
18.9043977956
20
3.35013101489
10
18.7781745931
20
3.22182540695
10
18.6498689851
20
3.09560220442
10
18.5195153223
20
2.97149520032
10
18.3871485033
20
2.8495376211
10
18.2528039661
20
2.72976211773
10
18.1165176779
20
2.61220075703
10
17.9783261258
20
2.49688501301
10
17.8382663071
20
2.38384575848
10
17.6963757191
20
2.2731132568
10
17.5526923494
20
2.16471715371
10
17.4072546655
20
2.05868646949
10
17.2601016047
20
1.95504959111
10
17.1112725632
20
1.85383426467
10
16.9608073863
20
1.75506758796
10
16.8087463572
20
1.65877600321
10
16.6551301861
20
1.56498529
10
16.5
20
1.47372055837
10
16.3433973309
20
1.38500624211
10
16.1853641051
20
1.29886609217
10
16.0259426319
20
1.21532317036
10
15.8651755924
20
1.13439984314
10
15.7031060277
20
1.05611777564
10
15.5397773278
20
0.980497925867
10
15.3752332198
20
0.907560539078
10
15.209517756
20
0.837325142376
10
15.0426753025
20
0.769810539476
10
14.8747505271
20
0.705034805669
10
14.7057883873
20
0.643015282987
10
14.5358341183
20
0.583768575554
10
14.3649332211
20
0.527310545147
10
14.1931314498
20
0.473656306946
10
14.0204748
20
0.422820225487
10
13.8470094961
20
0.37481591082
10
13.6727819789
20
0.32965621486
10
13.4978388934
20
0.287353227949
10
13.3222270759
20
0.247918275621
10
13.1459935422
20
0.211361915564
10
12.969185474
20
0.177693934802
10
12.7918502073
20
0.146923347066
10
12.614035219
20
0.119058390387
10
12.4357881144
20
0.0941065248881
10
12.2571566146
20
0.0720744307861
10
12.0781885436
20
0.0529680066058
10
11.8989318155
20
0.036792367599
10
11.7194344215
20
0.0235518443754
10
11.5397444176
20
0.0132499817431
10
11.359909911
20
0.00588953775998
10
11.1799790479
20
0.00147248299482
10
11
20
0
10
10.8200209521
20
0.00147248299482
10
10.640090089
20
0.00588953775998
10
10.4602555824
20
0.0132499817431
10
10.2805655785
20
0.0235518443754
10
10.1010681845
20
0.036792367599
10
9.92181145637
20
0.0529680066058
10
9.74284338536
20
0.0720744307861
10
9.56421188558
20
0.0941065248881
10
9.38596478099
20
0.119058390387
10
9.20814979266
20
0.146923347066
10
9.03081452596
20
0.177693934802
10
8.85400645782
20
0.211361915564
10
8.67777292405
20
0.247918275621
10
8.50216110662
20
0.287353227949
10
8.32721802106
20
0.32965621486
10
8.15299050387
20
0.37481591082
10
7.97952519997
20
0.422820225487
10
7.8068685502
20
0.473656306946
10
7.63506677894
20
0.527310545147
10
7.46416588167
20
0.583768575554
10
7.29421161269
20
0.643015282987
10
7.12524947287
20
0.705034805669
10
6.95732469746
20
0.769810539476
10
6.79048224398
20
0.837325142376
10
6.6247667802
20
0.907560539078
10
6.46022267215
20
0.980497925867
10
6.29689397227
20
1.05611777564
10
6.13482440759
20
1.13439984314
10
5.97405736807
20
1.21532317036
10
5.81463589491
20
1.29886609217
10
5.65660266912
20
1.38500624211
10
5.5
20
1.47372055837
10
5.34486981387
20
1.56498529
10
5.19125364285
20
1.65877600321
10
5.03919261368
20
1.75506758796
10
4.88872743678
20
1.85383426467
10
4.73989839533
20
1.95504959111
10
4.59274533445
20
2.05868646949
10
4.44730765058
20
2.16471715371
10
4.3036242809
20
2.2731132568
10
4.16173369293
20
2.38384575848
10
4.0216738742
20
2.49688501301
10
3.88348232212
20
2.61220075703
10
3.7471960339
20
2.72976211773
10
3.61285149668
20
2.8495376211
10
3.48048467775
20
2.97149520032
10
3.35013101489
20
3.09560220442
10
3.22182540695
20
3.22182540695
10
3.09560220442
20
3.35013101489
10
2.97149520032
20
3.48048467775
10
2.8495376211
20
3.61285149668
10
2.72976211773
20
3.7471960339
10
2.61220075703
20
3.88348232212
10
2.49688501301
20
4.0216738742
10
2.38384575848
20
4.16173369293
10
2.2731132568
20
4.3036242809
10
2.16471715371
20
4.44730765058
10
2.05868646949
20
4.59274533445
10
1.95504959111
20
4.73989839533
10
1.85383426467
20
4.88872743678
10
1.75506758796
20
5.03919261368
10
1.65877600321
20
5.19125364285
10
1.56498529
20
5.34486981387
10
1.47372055837
20
5.5
10
1.38500624211
20
5.65660266912
10
1.29886609217
20
5.81463589491
10
1.21532317036
20
5.97405736807
10
1.13439984314
20
6.13482440759
10
1.05611777564
20
6.29689397227
10
0.980497925867
20
6.46022267215
10
0.907560539078
20
6.6247667802
10
0.837325142376
20
6.79048224398
10
0.769810539476
20
6.95732469746
10
0.705034805669
20
7.12524947287
10
0.643015282987
20
7.29421161269
10
0.583768575554
20
7.46416588167
10
0.527310545147
20
7.63506677894
10
0.473656306946
20
7.8068685502
10
0.422820225487
20
7.97952519997
10
0.37481591082
20
8.15299050387
10
0.32965621486
20
8.32721802106
10
0.287353227949
20
8.50216110662
10
0.247918275621
20
8.67777292405
10
0.211361915564
20
8.85400645782
10
0.177693934802
20
9.03081452596
10
0.146923347066
20
9.20814979266
10
0.119058390387
20
9.38596478099
10
0.0941065248881
20
9.56421188558
10
0.0720744307861
20
9.74284338536
10
0.0529680066058
20
9.92181145637
10
0.036792367599
20
10.1010681845
10
0.0235518443754
20
10.2805655785
10
0.0132499817431
20
10.4602555824
10
0.00588953775998
20
10.640090089
10
0.00147248299482
20
10.8200209521
10
0
20
11
10
0.00147248299482
20
11.1799790479
10
0.00588953775998
20
11.359909911
10
0.0132499817431
20
11.5397444176
10
0.0235518443754
20
11.7194344215
10
0.036792367599
20
11.8989318155
10
0.0529680066058
20
12.0781885436
10
0.0720744307861
20
12.2571566146
10
0.0941065248881
20
12.4357881144
10
0.119058390387
20
12.614035219
10
0.146923347066
20
12.7918502073
10
0.177693934802
20
12.969185474
10
0.211361915564
20
13.1459935422
10
0.247918275621
20
13.3222270759
10
0.287353227949
20
13.4978388934
10
0.32965621486
20
13.6727819789
10
0.37481591082
20
13.8470094961
10
0.422820225487
20
14.0204748
10
0.473656306946
20
14.1931314498
10
0.527310545147
20
14.3649332211
10
0.583768575554
20
14.5358341183
10
0.643015282987
20
14.7057883873
10
0.705034805669
20
14.8747505271
10
0.769810539476
20
15.0426753025
10
0.837325142376
20
15.209517756
10
0.907560539078
20
15.3752332198
10
0.980497925867
20
15.5397773278
10
1.05611777564
20
15.7031060277
10
1.13439984314
20
15.8651755924
10
1.21532317036
20
16.0259426319
10
1.29886609217
20
16.1853641051
10
1.38500624211
20
16.3433973309
10
1.47372055837
20
16.5
10
1.56498529
20
16.6551301861
10
1.65877600321
20
16.8087463572
10
1.75506758796
20
16.9608073863
10
1.85383426467
20
17.1112725632
10
1.95504959111
20
17.2601016047
10
2.05868646949
20
17.4072546655
10
2.16471715371
20
17.5526923494
10
2.2731132568
20
17.6963757191
10
2.38384575848
20
17.8382663071
10
2.49688501301
20
17.9783261258
10
2.61220075703
20
18.1165176779
10
2.72976211773
20
18.2528039661
10
2.8495376211
20
18.3871485033
10
2.97149520032
20
18.5195153223
10
3.09560220442
20
18.6498689851
10
3.22182540695
20
18.7781745931
10
3.35013101489
20
18.9043977956
10
3.48048467775
20
19.0285047997
10
3.61285149668
20
19.1504623789
10
3.7471960339
20
19.2702378823
10
3.88348232212
20
19.387799243
10
4.0216738742
20
19.503114987
10
4.16173369293
20
19.6161542415
10
4.3036242809
20
19.7268867432
10
4.44730765058
20
19.8352828463
10
4.59274533445
20
19.9413135305
10
4.73989839533
20
20.0449504089
10
4.88872743678
20
20.1461657353
10
5.03919261368
20
20.244932412
10
5.19125364285
20
20.3412239968
10
5.34486981387
20
20.43501471
10
5.5
20
20.5262794416
10
5.65660266912
20
20.6149937579
10
5.81463589491
20
20.7011339078
10
5.97405736807
20
20.7846768296
10
6.13482440759
20
20.8656001569
10
6.29689397227
20
20.9438822244
10
6.46022267215
20
21.0195020741
10
6.6247667802
20
21.0924394609
10
6.79048224398
20
21.1626748576
10
6.95732469746
20
21.2301894605
10
7.12524947287
20
21.2949651943
10
7.29421161269
20
21.356984717
10
7.46416588167
20
21.4162314244
10
7.63506677894
20
21.4726894549
10
7.8068685502
20
21.5263436931
10
7.97952519997
20
21.5771797745
10
8.15299050387
20
21.6251840892
10
8.32721802106
20
21.6703437851
10
8.50216110662
20
21.7126467721
10
8.67777292405
20
21.7520817244
10
8.85400645782
20
21.7886380844
10
9.03081452596
20
21.8223060652
10
9.20814979266
20
21.8530766529
10
9.38596478099
20
21.8809416096
10
9.56421188558
20
21.9058934751
10
9.74284338536
20
21.9279255692
10
9.92181145637
20
21.9470319934
10
10.1010681845
20
21.9632076324
10
10.2805655785
20
21.9764481556
10
10.4602555824
20
21.9867500183
10
10.640090089
20
21.9941104622
10
10.8200209521
20
21.998527517
10
11
20
22
10
11.1799790479
20
21.998527517
10
11.359909911
20
21.9941104622
10
11.5397444176
20
21.9867500183
10
11.7194344215
20
21.9764481556
10
11.8989318155
20
21.9632076324
10
12.0781885436
20
21.9470319934
10
12.2571566146
20
21.9279255692
10
12.4357881144
20
21.9058934751
10
12.614035219
20
21.8809416096
10
12.7918502073
20
21.8530766529
10
12.969185474
20
21.8223060652
10
13.1459935422
20
21.7886380844
10
13.3222270759
20
21.7520817244
10
13.4978388934
20
21.7126467721
10
13.6727819789
20
21.6703437851
10
13.8470094961
20
21.6251840892
10
14.0204748
20
21.5771797745
10
14.1931314498
20
21.5263436931
10
14.3649332211
20
21.4726894549
10
14.5358341183
20
21.4162314244
10
14.7057883873
20
21.356984717
10
14.8747505271
20
21.2949651943
10
15.0426753025
20
21.2301894605
10
15.209517756
20
21.1626748576
10
15.3752332198
20
21.0924394609
10
15.5397773278
20
21.0195020741
10
15.7031060277
20
20.9438822244
10
15.8651755924
20
20.8656001569
10
16.0259426319
20
20.7846768296
10
16.1853641051
20
20.7011339078
10
16.3433973309
20
20.6149937579
10
16.5
20
20.5262794416
10
16.6551301861
20
20.43501471
10
16.8087463572
20
20.3412239968
10
16.9608073863
20
20.244932412
10
17.1112725632
20
20.1461657353
10
17.2601016047
20
20.0449504089
10
17.4072546655
20
19.9413135305
10
17.5526923494
20
19.8352828463
10
17.6963757191
20
19.7268867432
10
17.8382663071
20
19.6161542415
10
17.9783261258
20
19.503114987
10
18.1165176779
20
19.387799243
10
18.2528039661
20
19.2702378823
10
18.3871485033
20
19.1504623789
10
18.5195153223
20
19.0285047997
10
18.6498689851
20
18.9043977956
10
18.7781745931
20
18.7781745931
10
18.9043977956
20
18.6498689851
10
19.0285047997
20
18.5195153223
10
19.1504623789
20
18.3871485033
10
19.2702378823
20
18.2528039661
10
19.387799243
20
18.1165176779
10
19.503114987
20
17.9783261258
10
19.6161542415
20
17.8382663071
10
19.7268867432
20
17.6963757191
10
19.8352828463
20
17.5526923494
10
19.9413135305
20
17.4072546655
10
20.0449504089
20
17.2601016047
10
20.1461657353
20
17.1112725632
10
20.244932412
20
16.9608073863
10
20.3412239968
20
16.8087463572
10
20.43501471
20
16.6551301861
10
20.5262794416
20
16.5
10
20.6149937579
20
16.3433973309
10
20.7011339078
20
16.1853641051
10
20.7846768296
20
16.0259426319
10
20.8656001569
20
15.8651755924
10
20.9438822244
20
15.7031060277
10
21.0195020741
20
15.5397773278
10
21.0924394609
20
15.3752332198
10
21.1626748576
20
15.209517756
10
21.2301894605
20
15.0426753025
10
21.2949651943
20
14.8747505271
10
21.356984717
20
14.7057883873
10
21.4162314244
20
14.5358341183
10
21.4726894549
20
14.3649332211
10
21.5263436931
20
14.1931314498
10
21.5771797745
20
14.0204748
10
21.6251840892
20
13.8470094961
10
21.6703437851
20
13.6727819789
10
21.7126467721
20
13.4978388934
10
21.7520817244
20
13.3222270759
10
21.7886380844
20
13.1459935422
10
21.8223060652
20
12.969185474
10
21.8530766529
20
12.7918502073
10
21.8809416096
20
12.614035219
10
21.9058934751
20
12.4357881144
10
21.9279255692
20
12.2571566146
10
21.9470319934
20
12.0781885436
10
21.9632076324
20
11.8989318155
10
21.9764481556
20
11.7194344215
10
21.9867500183
20
11.5397444176
10
21.9941104622
20
11.359909911
10
21.998527517
20
11.1799790479
10
22
20
11
0
ENDSEC
0
EOF