0
SECTION
2
HEADER
9
$ACADVER
1
AC1024
9
$INSUNITS
70
4
0
ENDSEC
0
SECTION
2
TABLES
0
TABLE
2
LAYER
70
1
0
LAYER
2
CUT
70
0
62
7
6
CONTINUOUS
0
ENDTAB
0
ENDSEC
0
SECTION
2
ENTITIES
0
LWPOLYLINE
100
AcDbEntity
8
CUT
100
AcDbPolyline
90
385
70
1
10
14
20
7
10
13.9990629654
20
6.88546787861
10
13.9962521123
20
6.77096642025
10
13.9915681934
20
6.65652627971
10
13.9850124627
20
6.54217809539
10
13.9765866752
20
6.42795248106
10
13.9662930867
20
6.31388001769
10
13.9541344531
20
6.19999124523
10
13.9401140296
20
6.08631665446
10
13.9242355698
20
5.97288667881
10
13.9065033246
20
5.85973168624
10
13.8869220415
20
5.74688197106
10
13.8654969628
20
5.63436774589
10
13.8422338246
20
5.52221913349
10
13.8171388549
20
5.41046615876
10
13.7902187724
20
5.29913874068
10
13.761480784
20
5.18826668428
10
13.7309325838
20
5.07787967271
10
13.6985823501
20
4.96800725922
10
13.664438744
20
4.85867885932
10
13.6285109065
20
4.74992374288
10
13.5908084563
20
4.64177102625
10
13.5513414873
20
4.53424966455
10
13.5101205658
20
4.42738844384
10
13.4671567276
20
4.32121597344
10
13.4224614751
20
4.21576067831
10
13.3760467744
20
4.11105079137
10
13.3279250519
20
4.00711434599
10
13.2781091907
20
3.90397916847
10
13.226612528
20
3.80167287059
10
13.1734488504
20
3.70022284222
10
13.1186323914
20
3.59965624399
10
13.0621778265
20
3.5
10
13.00410027
20
3.40128079065
10
12.9444152707
20
3.30352504545
10
12.8831388077
20
3.20675893598
10
12.8202872861
20
3.11100836886
10
12.7558775329
20
3.01629897885
10
12.6899267921
20
2.92265612193
10
12.6224527204
20
2.83010486855
10
12.553473382
20
2.73866999694
10
12.4830072446
20
2.64837598641
10
12.4110731735
20
2.55924701085
10
12.3376904273
20
2.47130693226
10
12.2628786524
20
2.3845792943
10
12.1866578775
20
2.29908731607
10
12.1090485089
20
2.21485388584
10
12.0300713245
20
2.13190155493
10
11.9497474683
20
2.05025253169
10
11.8680984451
20
1.96992867554
10
11.7851461142
20
1.89095149112
10
11.7009126839
20
1.81334212252
10
11.6154207057
20
1.73712134765
10
11.5286930677
20
1.66230957266
10
11.4407529891
20
1.58892682646
10
11.3516240136
20
1.5169927554
10
11.2613300031
20
1.44652661796
10
11.1698951314
20
1.37754727964
10
11.0773438781
20
1.31007320786
10
10.9837010212
20
1.24412246707
10
10.8889916311
20
1.17971271388
10
10.793241064
20
1.11686119234
10
10.6964749546
20
1.05558472931
10
10.5987192094
20
0.995899729998
10
10.5
20
0.937822173509
10
10.400343756
20
0.881367608613
10
10.2997771578
20
0.826551149562
10
10.1983271294
20
0.773387472047
10
10.0960208315
20
0.721890809271
10
9.99288565401
20
0.672074948136
10
9.88894920863
20
0.623953225552
10
9.78423932169
20
0.577538524868
10
9.67878402656
20
0.532843272421
10
9.57261155616
20
0.489879434212
10
9.46575033545
20
0.448658512699
10
9.35822897375
20
0.409191543719
10
9.25007625712
20
0.371489093534
10
9.14132114068
20
0.335561256003
10
9.03199274078
20
0.301417649875
10
8.92212032729
20
0.269067416219
10
8.81173331572
20
0.238519215977
10
8.70086125932
20
0.209781227638
10
8.58953384124
20
0.182861145059
10
8.47778086651
20
0.157766175395
10
8.36563225411
20
0.134503037177
10
8.25311802894
20
0.11307795851
10
8.14026831376
20
0.0934966754058
10
8.02711332119
20
0.0757644302465
10
7.91368334554
20
0.0598859703833
10
7.80000875477
20
0.0458655468639
10
7.68611998231
20
0.0337069132946
10
7.57204751894
20
0.0234133248357
10
7.45782190461
20
0.0149875373298
10
7.34347372029
20
0.00843180656379
10
7.22903357975
20
0.00374788766544
10
7.11453212139
20
0.000937034633067
10
7
20
0
10
6.88546787861
20
0.000937034633067
10
6.77096642025
20
0.00374788766544
10
6.65652627971
20
0.00843180656379
10
6.54217809539
20
0.0149875373298
10
6.42795248106
20
0.0234133248357
10
6.31388001769
20
0.0337069132946
10
6.19999124523
20
0.0458655468639
10
6.08631665446
20
0.0598859703833
10
5.97288667881
20
0.0757644302465
10
5.85973168624
20
0.0934966754058
10
5.74688197106
20
0.11307795851
10
5.63436774589
20
0.134503037177
10
5.52221913349
20
0.157766175395
10
5.41046615876
20
0.182861145059
10
5.29913874068
20
0.209781227638
10
5.18826668428
20
0.238519215977
10
5.07787967271
20
0.269067416219
10
4.96800725922
20
0.301417649875
10
4.85867885932
20
0.335561256003
10
4.74992374288
20
0.371489093534
10
4.64177102625
20
0.409191543719
10
4.53424966455
20
0.448658512699
10
4.42738844384
20
0.489879434212
10
4.32121597344
20
0.532843272421
10
4.21576067831
20
0.577538524868
10
4.11105079137
20
0.623953225552
10
4.00711434599
20
0.672074948136
10
3.90397916847
20
0.721890809271
10
3.80167287059
20
0.773387472047
10
3.70022284222
20
0.826551149562
10
3.59965624399
20
0.881367608613
10
3.5
20
0.937822173509
10
3.40128079065
20
0.995899729998
10
3.30352504545
20
1.05558472931
10
3.20675893598
20
1.11686119234
10
3.11100836886
20
1.17971271388
10
3.01629897885
20
1.24412246707
10
2.92265612193
20
1.31007320786
10
2.83010486855
20
1.37754727964
10
2.73866999694
20
1.44652661796
10
2.64837598641
20
1.5169927554
10
2.55924701085
20
1.58892682646
10
2.47130693226
20
1.66230957266
10
2.3845792943
20
1.73712134765
10
2.29908731607
20
1.81334212252
10
2.21485388584
20
1.89095149112
10
2.13190155493
20
1.96992867554
10
2.05025253169
20
2.05025253169
10
1.96992867554
20
2.13190155493
10
1.89095149112
20
2.21485388584
10
1.81334212252
20
2.29908731607
10
1.73712134765
20
2.3845792943
10
1.66230957266
20
2.47130693226
10
1.58892682646
20
2.55924701085
10
1.5169927554
20
2.64837598641
10
1.44652661796
20
2.73866999694
10
1.37754727964
20
2.83010486855
10
1.31007320786
20
2.92265612193
10
1.24412246707
20
3.01629897885
10
1.17971271388
20
3.11100836886
10
1.11686119234
20
3.20675893598
10
1.05558472931
20
3.30352504545
10
0.995899729998
20
3.40128079065
10
0.937822173509
20
3.5
10
0.881367608613
20
3.59965624399
10
0.826551149562
20
3.70022284222
10
0.773387472047
20
3.80167287059
10
0.721890809271
20
3.90397916847
10
0.672074948136
20
4.00711434599
10
0.623953225552
20
4.11105079137
10
0.577538524868
20
4.21576067831
10
0.532843272421
20
4.32121597344
10
0.489879434212
20
4.42738844384
10
0.448658512699
20
4.53424966455
10
0.409191543719
20
4.64177102625
10
0.371489093534
20
4.74992374288
10
0.335561256003
20
4.85867885932
10
0.301417649875
20
4.96800725922
10
0.269067416219
20
5.07787967271
10
0.238519215977
20
5.18826668428
10
0.209781227638
20
5.29913874068
10
0.182861145059
20
5.41046615876
10
0.157766175395
20
5.52221913349
10
0.134503037177
20
5.63436774589
10
0.11307795851
20
5.74688197106
10
0.0934966754058
20
5.85973168624
10
0.0757644302465
20
5.97288667881
10
0.0598859703833
20
6.08631665446
10
0.0458655468639
20
6.19999124523
10
0.0337069132946
20
6.31388001769
10
0.0234133248357
20
6.42795248106
10
0.0149875373298
20
6.54217809539
10
0.00843180656379
20
6.65652627971
10
0.00374788766544
20
6.77096642025
10
0.000937034633067
20
6.88546787861
10
0
20
7
10
0.000937034633067
20
7.11453212139
10
0.00374788766544
20
7.22903357975
10
0.00843180656379
20
7.34347372029
10
0.0149875373298
20
7.45782190461
10
0.0234133248357
20
7.57204751894
10
0.0337069132946
20
7.68611998231
10
0.0458655468639
20
7.80000875477
10
0.0598859703833
20
7.91368334554
10
0.0757644302465
20
8.02711332119
10
0.0934966754058
20
8.14026831376
10
0.11307795851
20
8.25311802894
10
0.134503037177
20
8.36563225411
10
0.157766175395
20
8.47778086651
10
0.182861145059
20
8.58953384124
10
0.209781227638
20
8.70086125932
10
0.238519215977
20
8.81173331572
10
0.269067416219
20
8.92212032729
10
0.301417649875
20
9.03199274078
10
0.335561256003
20
9.14132114068
10
0.371489093534
20
9.25007625712
10
0.409191543719
20
9.35822897375
10
0.448658512699
20
9.46575033545
10
0.489879434212
20
9.57261155616
10
0.532843272421
20
9.67878402656
10
0.577538524868
20
9.78423932169
10
0.623953225552
20
9.88894920863
10
0.672074948136
20
9.99288565401
10
0.721890809271
20
10.0960208315
10
0.773387472047
20
10.1983271294
10
0.826551149562
20
10.2997771578
10
0.881367608613
20
10.400343756
10
0.937822173509
20
10.5
10
0.995899729998
20
10.5987192094
10
1.05558472931
20
10.6964749546
10
1.11686119234
20
10.793241064
10
1.17971271388
20
10.8889916311
10
1.24412246707
20
10.9837010212
10
1.31007320786
20
11.0773438781
10
1.37754727964
20
11.1698951314
10
1.44652661796
20
11.2613300031
10
1.5169927554
20
11.3516240136
10
1.58892682646
20
11.4407529891
10
1.66230957266
20
11.5286930677
10
1.73712134765
20
11.6154207057
10
1.81334212252
20
11.7009126839
10
1.89095149112
20
11.7851461142
10
1.96992867554
20
11.8680984451
10
2.05025253169
20
11.9497474683
10
2.13190155493
20
12.0300713245
10
2.21485388584
20
12.1090485089
10
2.29908731607
20
12.1866578775
10
2.3845792943
20
12.2628786524
10
2.47130693226
20
12.3376904273
10
2.55924701085
20
12.4110731735
10
2.64837598641
20
12.4830072446
10
2.73866999694
20
12.553473382
10
2.83010486855
20
12.6224527204
10
2.92265612193
20
12.6899267921
10
3.01629897885
20
12.7558775329
10
3.11100836886
20
12.8202872861
10
3.20675893598
20
12.8831388077
10
3.30352504545
20
12.9444152707
10
3.40128079065
20
13.00410027
10
3.5
20
13.0621778265
10
3.59965624399
20
13.1186323914
10
3.70022284222
20
13.1734488504
10
3.80167287059
20
13.226612528
10
3.90397916847
20
13.2781091907
10
4.00711434599
20
13.3279250519
10
4.11105079137
20
13.3760467744
10
4.21576067831
20
13.4224614751
10
4.32121597344
20
13.4671567276
10
4.42738844384
20
13.5101205658
10
4.53424966455
20
13.5513414873
10
4.64177102625
20
13.5908084563
10
4.74992374288
20
13.6285109065
10
4.85867885932
20
13.664438744
10
4.96800725922
20
13.6985823501
10
5.07787967271
20
13.7309325838
10
5.18826668428
20
13.761480784
10
5.29913874068
20
13.7902187724
10
5.41046615876
20
13.8171388549
10
5.52221913349
20
13.8422338246
10
5.63436774589
20
13.8654969628
10
5.74688197106
20
13.8869220415
10
5.85973168624
20
13.9065033246
10
5.97288667881
20
13.9242355698
10
6.08631665446
20
13.9401140296
10
6.19999124523
20
13.9541344531
10
6.31388001769
20
13.9662930867
10
6.42795248106
20
13.9765866752
10
6.54217809539
20
13.9850124627
10
6.65652627971
20
13.9915681934
10
6.77096642025
20
13.9962521123
10
6.88546787861
20
13.9990629654
10
7
20
14
10
7.11453212139
20
13.9990629654
10
7.22903357975
20
13.9962521123
10
7.34347372029
20
13.9915681934
10
7.45782190461
20
13.9850124627
10
7.57204751894
20
13.9765866752
10
7.68611998231
20
13.9662930867
10
7.80000875477
20
13.9541344531
10
7.91368334554
20
13.9401140296
10
8.02711332119
20
13.9242355698
10
8.14026831376
20
13.9065033246
10
8.25311802894
20
13.8869220415
10
8.36563225411
20
13.8654969628
10
8.47778086651
20
13.8422338246
10
8.58953384124
20
13.8171388549
10
8.70086125932
20
13.7902187724
10
8.81173331572
20
13.761480784
10
8.92212032729
20
13.7309325838
10
9.03199274078
20
13.6985823501
10
9.14132114068
20
13.664438744
10
9.25007625712
20
13.6285109065
10
9.35822897375
20
13.5908084563
10
9.46575033545
20
13.5513414873
10
9.57261155616
20
13.5101205658
10
9.67878402656
20
13.4671567276
10
9.78423932169
20
13.4224614751
10
9.88894920863
20
13.3760467744
10
9.99288565401
20
13.3279250519
10
10.0960208315
20
13.2781091907
10
10.1983271294
20
13.226612528
10
10.2997771578
20
13.1734488504
10
10.400343756
20
13.1186323914
10
10.5
20
13.0621778265
10
10.5987192094
20
13.00410027
10
10.6964749546
20
12.9444152707
10
10.793241064
20
12.8831388077
10
10.8889916311
20
12.8202872861
10
10.9837010212
20
12.7558775329
10
11.0773438781
20
12.6899267921
10
11.1698951314
20
12.6224527204
10
11.2613300031
20
12.553473382
10
11.3516240136
20
12.4830072446
10
11.4407529891
20
12.4110731735
10
11.5286930677
20
12.3376904273
10
11.6154207057
20
12.2628786524
10
11.7009126839
20
12.1866578775
10
11.7851461142
20
12.1090485089
10
11.8680984451
20
12.0300713245
10
11.9497474683
20
11.9497474683
10
12.0300713245
20
11.8680984451
10
12.1090485089
20
11.7851461142
10
12.1866578775
20
11.7009126839
10
12.2628786524
20
11.6154207057
10
12.3376904273
20
11.5286930677
10
12.4110731735
20
11.4407529891
10
12.4830072446
20
11.3516240136
10
12.553473382
20
11.2613300031
10
12.6224527204
20
11.1698951314
10
12.6899267921
20
11.0773438781
10
12.7558775329
20
10.9837010212
10
12.8202872861
20
10.8889916311
10
12.8831388077
20
10.793241064
10
12.9444152707
20
10.6964749546
10
13.00410027
20
10.5987192094
10
13.0621778265
20
10.5
10
13.1186323914
20
10.400343756
10
13.1734488504
20
10.2997771578
10
13.226612528
20
10.1983271294
10
13.2781091907
20
10.0960208315
10
13.3279250519
20
9.99288565401
10
13.3760467744
20
9.88894920863
10
13.4224614751
20
9.78423932169
10
13.4671567276
20
9.67878402656
10
13.5101205658
20
9.57261155616
10
13.5513414873
20
9.46575033545
10
13.5908084563
20
9.35822897375
10
13.6285109065
20
9.25007625712
10
13.664438744
20
9.14132114068
10
13.6985823501
20
9.03199274078
10
13.7309325838
20
8.92212032729
10
13.761480784
20
8.81173331572
10
13.7902187724
20
8.70086125932
10
13.8171388549
20
8.58953384124
10
13.8422338246
20
8.47778086651
10
13.8654969628
20
8.36563225411
10
13.8869220415
20
8.25311802894
10
13.9065033246
20
8.14026831376
10
13.9242355698
20
8.02711332119
10
13.9401140296
20
7.91368334554
10
13.9541344531
20
7.80000875477
10
13.9662930867
20
7.68611998231
10
13.9765866752
20
7.57204751894
10
13.9850124627
20
7.45782190461
10
13.9915681934
20
7.34347372029
10
13.9962521123
20
7.22903357975
10
13.9990629654
20
7.11453212139
10
14
20
7
0
ENDSEC
0
EOF