0
SECTION
2
HEADER
9
$ACADVER
1
AC1024
9
$INSUNITS
70
4
0
ENDSEC
0
SECTION
2
TABLES
0
TABLE
2
LAYER
70
1
0
LAYER
2
CUT
70
0
62
7
6
CONTINUOUS
0
ENDTAB
0
ENDSEC
0
SECTION
2
ENTITIES
0
LWPOLYLINE
100
AcDbEntity
8
CUT
100
AcDbPolyline
90
289
70
1
10
33.9961924333
20
17.6509618394
10
33.9847715453
20
17.3020898022
10
33.9657427718
20
16.9535499323
10
33.9391151695
20
16.605508116
10
33.9049014116
20
16.2581300024
10
33.863117782
20
15.9115809245
10
33.8137841675
20
15.566025821
10
33.7569240482
20
15.2216291573
10
33.6925644865
20
14.8785548477
10
33.6207361139
20
14.536966177
10
33.541473117
20
14.1970257228
10
33.4548132206
20
13.8588952784
10
33.3607976702
20
13.5227357755
10
33.259471212
20
13.1887072079
10
33.1508820719
20
12.8569685551
10
33.0350819326
20
12.5276777068
10
32.9121259085
20
12.2009913875
10
32.7820725202
20
11.8770650822
10
32.6449836659
20
11.5560529623
10
32.5009245926
20
11.2381078121
10
32.3499638645
20
10.9233809565
10
32.1921733309
20
10.6120221882
10
32.0276280913
20
10.3041796973
10
31.8564064606
20
10
10
31.6785899308
20
9.69962786943
10
31.494263133
20
9.40320626645
10
31.3035137968
20
9.11087627169
10
31.1064327086
20
8.82277701838
10
30.9031136683
20
8.53904562618
10
30.6936534447
20
8.25981713586
10
30.4781517295
20
7.98522444506
10
30.2567110899
20
7.71539824502
10
30.0294369197
20
7.4504669584
10
29.796437389
20
7.19055667815
10
29.557823393
20
6.93579110748
10
29.313708499
20
6.68629150102
10
29.0642088925
20
6.44217660704
10
28.8094433219
20
6.20356261104
10
28.5495330416
20
5.97056308034
10
28.284601755
20
5.7432889101
10
28.0147755549
20
5.52184827051
10
27.7401828641
20
5.30634655534
10
27.4609543738
20
5.09688633172
10
27.1772229816
20
4.89356729138
10
26.8891237283
20
4.69648620316
10
26.5967937335
20
4.50573686699
10
26.3003721306
20
4.32141006923
10
26
20
4.14359353945
10
25.6958203027
20
3.97237190868
10
25.3879778118
20
3.80782666915
10
25.0766190435
20
3.65003613548
10
24.7618921879
20
3.49907540741
10
24.4439470377
20
3.35501633409
10
24.1229349178
20
3.21792747982
10
23.7990086125
20
3.08787409148
10
23.4723222932
20
2.96491806743
10
23.1430314449
20
2.84911792808
10
22.8112927921
20
2.74052878803
10
22.4772642245
20
2.63920232983
10
22.1411047216
20
2.54518677937
10
21.8029742772
20
2.45852688299
10
21.463033823
20
2.37926388608
10
21.1214451523
20
2.30743551355
10
20.7783708427
20
2.2430759518
10
20.433974179
20
2.18621583252
10
20.0884190755
20
2.13688221802
10
19.7418699976
20
2.09509858844
10
19.394491884
20
2.06088483053
10
19.0464500677
20
2.03425722818
10
18.6979101978
20
2.01522845469
10
18.3490381606
20
2.00380756672
10
18
20
2
10
17.6509618394
20
2.00380756672
10
17.3020898022
20
2.01522845469
10
16.9535499323
20
2.03425722818
10
16.605508116
20
2.06088483053
10
16.2581300024
20
2.09509858844
10
15.9115809245
20
2.13688221802
10
15.566025821
20
2.18621583252
10
15.2216291573
20
2.2430759518
10
14.8785548477
20
2.30743551355
10
14.536966177
20
2.37926388608
10
14.1970257228
20
2.45852688299
10
13.8588952784
20
2.54518677937
10
13.5227357755
20
2.63920232983
10
13.1887072079
20
2.74052878803
10
12.8569685551
20
2.84911792808
10
12.5276777068
20
2.96491806743
10
12.2009913875
20
3.08787409148
10
11.8770650822
20
3.21792747982
10
11.5560529623
20
3.35501633409
10
11.2381078121
20
3.49907540741
10
10.9233809565
20
3.65003613548
10
10.6120221882
20
3.80782666915
10
10.3041796973
20
3.97237190868
10
10
20
4.14359353945
10
9.69962786943
20
4.32141006923
10
9.40320626645
20
4.50573686699
10
9.11087627169
20
4.69648620316
10
8.82277701838
20
4.89356729138
10
8.53904562618
20
5.09688633172
10
8.25981713586
20
5.30634655534
10
7.98522444506
20
5.52184827051
10
7.71539824502
20
5.7432889101
10
7.4504669584
20
5.97056308034
10
7.19055667815
20
6.20356261104
10
6.93579110748
20
6.44217660704
10
6.68629150102
20
6.68629150102
10
6.44217660704
20
6.93579110748
10
6.20356261104
20
7.19055667815
10
5.97056308034
20
7.4504669584
10
5.7432889101
20
7.71539824502
10
5.52184827051
20
7.98522444506
10
5.30634655534
20
8.25981713586
10
5.09688633172
20
8.53904562618
10
4.89356729138
20
8.82277701838
10
4.69648620316
20
9.11087627169
10
4.50573686699
20
9.40320626645
10
4.32141006923
20
9.69962786943
10
4.14359353945
20
10
10
3.97237190868
20
10.3041796973
10
3.80782666915
20
10.6120221882
10
3.65003613548
20
10.9233809565
10
3.49907540741
20
11.2381078121
10
3.35501633409
20
11.5560529623
10
3.21792747982
20
11.8770650822
10
3.08787409148
20
12.2009913875
10
2.96491806743
20
12.5276777068
10
2.84911792808
20
12.8569685551
10
2.74052878803
20
13.1887072079
10
2.63920232983
20
13.5227357755
10
2.54518677937
20
13.8588952784
10
2.45852688299
20
14.1970257228
10
2.37926388608
20
14.536966177
10
2.30743551355
20
14.8785548477
10
2.2430759518
20
15.2216291573
10
2.18621583252
20
15.566025821
10
2.13688221802
20
15.9115809245
10
2.09509858844
20
16.2581300024
10
2.06088483053
20
16.605508116
10
2.03425722818
20
16.9535499323
10
2.01522845469
20
17.3020898022
10
2.00380756672
20
17.6509618394
10
2
20
18
10
2.00380756672
20
18.3490381606
10
2.01522845469
20
18.6979101978
10
2.03425722818
20
19.0464500677
10
2.06088483053
20
19.394491884
10
2.09509858844
20
19.7418699976
10
2.13688221802
20
20.0884190755
10
2.18621583252
20
20.433974179
10
2.2430759518
20
20.7783708427
10
2.30743551355
20
21.1214451523
10
2.37926388608
20
21.463033823
10
2.45852688299
20
21.8029742772
10
2.54518677937
20
22.1411047216
10
2.63920232983
20
22.4772642245
10
2.74052878803
20
22.8112927921
10
2.84911792808
20
23.1430314449
10
2.96491806743
20
23.4723222932
10
3.08787409148
20
23.7990086125
10
3.21792747982
20
24.1229349178
10
3.35501633409
20
24.4439470377
10
3.49907540741
20
24.7618921879
10
3.65003613548
20
25.0766190435
10
3.80782666915
20
25.3879778118
10
3.97237190868
20
25.6958203027
10
4.14359353945
20
26
10
4.32141006923
20
26.3003721306
10
4.50573686699
20
26.5967937335
10
4.69648620316
20
26.8891237283
10
4.89356729138
20
27.1772229816
10
5.09688633172
20
27.4609543738
10
5.30634655534
20
27.7401828641
10
5.52184827051
20
28.0147755549
10
5.7432889101
20
28.284601755
10
5.97056308034
20
28.5495330416
10
6.20356261104
20
28.8094433219
10
6.44217660704
20
29.0642088925
10
6.68629150102
20
29.313708499
10
6.93579110748
20
29.557823393
10
7.19055667815
20
29.796437389
10
7.4504669584
20
30.0294369197
10
7.71539824502
20
30.2567110899
10
7.98522444506
20
30.4781517295
10
8.25981713586
20
30.6936534447
10
8.53904562618
20
30.9031136683
10
8.82277701838
20
31.1064327086
10
9.11087627169
20
31.3035137968
10
9.40320626645
20
31.494263133
10
9.69962786943
20
31.6785899308
10
10
20
31.8564064606
10
10.3041796973
20
32.0276280913
10
10.6120221882
20
32.1921733309
10
10.9233809565
20
32.3499638645
10
11.2381078121
20
32.5009245926
10
11.5560529623
20
32.6449836659
10
11.8770650822
20
32.7820725202
10
12.2009913875
20
32.9121259085
10
12.5276777068
20
33.0350819326
10
12.8569685551
20
33.1508820719
10
13.1887072079
20
33.259471212
10
13.5227357755
20
33.3607976702
10
13.8588952784
20
33.4548132206
10
14.1970257228
20
33.541473117
10
14.536966177
20
33.6207361139
10
14.8785548477
20
33.6925644865
10
15.2216291573
20
33.7569240482
10
15.566025821
20
33.8137841675
10
15.9115809245
20
33.863117782
10
16.2581300024
20
33.9049014116
10
16.605508116
20
33.9391151695
10
16.9535499323
20
33.9657427718
10
17.3020898022
20
33.9847715453
10
17.6509618394
20
33.9961924333
10
18
20
34
10
18.3490381606
20
33.9961924333
10
18.6979101978
20
33.9847715453
10
19.0464500677
20
33.9657427718
10
19.394491884
20
33.9391151695
10
19.7418699976
20
33.9049014116
10
20.0884190755
20
33.863117782
10
20.433974179
20
33.8137841675
10
20.7783708427
20
33.7569240482
10
21.1214451523
20
33.6925644865
10
21.463033823
20
33.6207361139
10
21.8029742772
20
33.541473117
10
22.1411047216
20
33.4548132206
10
22.4772642245
20
33.3607976702
10
22.8112927921
20
33.259471212
10
23.1430314449
20
33.1508820719
10
23.4723222932
20
33.0350819326
10
23.7990086125
20
32.9121259085
10
24.1229349178
20
32.7820725202
10
24.4439470377
20
32.6449836659
10
24.7618921879
20
32.5009245926
10
25.0766190435
20
32.3499638645
10
25.3879778118
20
32.1921733309
10
25.6958203027
20
32.0276280913
10
26
20
31.8564064606
10
26.3003721306
20
31.6785899308
10
26.5967937335
20
31.494263133
10
26.8891237283
20
31.3035137968
10
27.1772229816
20
31.1064327086
10
27.4609543738
20
30.9031136683
10
27.7401828641
20
30.6936534447
10
28.0147755549
20
30.4781517295
10
28.284601755
20
30.2567110899
10
28.5495330416
20
30.0294369197
10
28.8094433219
20
29.796437389
10
29.0642088925
20
29.557823393
10
29.313708499
20
29.313708499
10
29.557823393
20
29.0642088925
10
29.796437389
20
28.8094433219
10
30.0294369197
20
28.5495330416
10
30.2567110899
20
28.284601755
10
30.4781517295
20
28.0147755549
10
30.6936534447
20
27.7401828641
10
30.9031136683
20
27.4609543738
10
31.1064327086
20
27.1772229816
10
31.3035137968
20
26.8891237283
10
31.494263133
20
26.5967937335
10
31.6785899308
20
26.3003721306
10
31.8564064606
20
26
10
32.0276280913
20
25.6958203027
10
32.1921733309
20
25.3879778118
10
32.3499638645
20
25.0766190435
10
32.5009245926
20
24.7618921879
10
32.6449836659
20
24.4439470377
10
32.7820725202
20
24.1229349178
10
32.9121259085
20
23.7990086125
10
33.0350819326
20
23.4723222932
10
33.1508820719
20
23.1430314449
10
33.259471212
20
22.8112927921
10
33.3607976702
20
22.4772642245
10
33.4548132206
20
22.1411047216
10
33.541473117
20
21.8029742772
10
33.6207361139
20
21.463033823
10
33.6925644865
20
21.1214451523
10
33.7569240482
20
20.7783708427
10
33.8137841675
20
20.433974179
10
33.863117782
20
20.0884190755
10
33.9049014116
20
19.7418699976
10
33.9391151695
20
19.394491884
10
33.9657427718
20
19.0464500677
10
33.9847715453
20
18.6979101978
10
33.9961924333
20
18.3490381606
10
34
20
18
10
33.9961924333
20
17.6509618394
0
LWPOLYLINE
100
AcDbEntity
8
CUT
100
AcDbPolyline
90
289
70
1
10
25.0983103923
20
18.1548856837
10
25.0932423732
20
18.3096976503
10
25.084798355
20
18.4643622175
10
25.0729823565
20
18.6188057735
10
25.0578000014
20
18.7729548114
10
25.0392585158
20
18.9267359648
10
25.0173667243
20
19.0800760419
10
24.9921350464
20
19.2329020614
10
24.9635754909
20
19.3851412863
10
24.9317016506
20
19.536721259
10
24.8965286957
20
19.6875698355
10
24.8580733667
20
19.8376152202
10
24.8163539661
20
19.9867859996
10
24.7713903503
20
20.1350111765
10
24.7232039194
20
20.2822202037
10
24.6718176076
20
20.4283430176
10
24.6172558719
20
20.5733100718
10
24.5595446808
20
20.7170523698
10
24.4987115017
20
20.859501498
10
24.434785288
20
21.0005896584
10
24.3677964649
20
21.1402497006
10
24.2977769156
20
21.278415154
10
24.2247599655
20
21.4150202593
10
24.1487803669
20
21.55
10
24.0698742818
20
21.6832901329
10
23.9880792653
20
21.8148272193
10
23.9034342473
20
21.9445486544
10
23.8159795145
20
22.0723926981
10
23.7257566903
20
22.1982985034
10
23.6328087161
20
22.322206146
10
23.53717983
20
22.4440566525
10
23.4389155461
20
22.5637920288
10
23.3380626331
20
22.6813552872
10
23.2346690914
20
22.7966904741
10
23.1287841306
20
22.9097426961
10
23.0204581464
20
23.0204581464
10
22.9097426961
20
23.1287841306
10
22.7966904741
20
23.2346690914
10
22.6813552872
20
23.3380626331
10
22.5637920288
20
23.4389155461
10
22.4440566525
20
23.53717983
10
22.322206146
20
23.6328087161
10
22.1982985034
20
23.7257566903
10
22.0723926981
20
23.8159795145
10
21.9445486544
20
23.9034342473
10
21.8148272193
20
23.9880792653
10
21.6832901329
20
24.0698742818
10
21.55
20
24.1487803669
10
21.4150202593
20
24.2247599655
10
21.278415154
20
24.2977769156
10
21.1402497006
20
24.3677964649
10
21.0005896584
20
24.434785288
10
20.859501498
20
24.4987115017
10
20.7170523698
20
24.5595446808
10
20.5733100718
20
24.6172558719
10
20.4283430176
20
24.6718176076
10
20.2822202037
20
24.7232039194
10
20.1350111765
20
24.7713903503
10
19.9867859996
20
24.8163539661
10
19.8376152202
20
24.8580733667
10
19.6875698355
20
24.8965286957
10
19.536721259
20
24.9317016506
10
19.3851412863
20
24.9635754909
10
19.2329020614
20
24.9921350464
10
19.0800760419
20
25.0173667243
10
18.9267359648
20
25.0392585158
10
18.7729548114
20
25.0578000014
10
18.6188057735
20
25.0729823565
10
18.4643622175
20
25.084798355
10
18.3096976503
20
25.0932423732
10
18.1548856837
20
25.0983103923
10
18
20
25.1
10
17.8451143163
20
25.0983103923
10
17.6903023497
20
25.0932423732
10
17.5356377825
20
25.084798355
10
17.3811942265
20
25.0729823565
10
17.2270451886
20
25.0578000014
10
17.0732640352
20
25.0392585158
10
16.9199239581
20
25.0173667243
10
16.7670979386
20
24.9921350464
10
16.6148587137
20
24.9635754909
10
16.463278741
20
24.9317016506
10
16.3124301645
20
24.8965286957
10
16.1623847798
20
24.8580733667
10
16.0132140004
20
24.8163539661
10
15.8649888235
20
24.7713903503
10
15.7177797963
20
24.7232039194
10
15.5716569824
20
24.6718176076
10
15.4266899282
20
24.6172558719
10
15.2829476302
20
24.5595446808
10
15.140498502
20
24.4987115017
10
14.9994103416
20
24.434785288
10
14.8597502994
20
24.3677964649
10
14.721584846
20
24.2977769156
10
14.5849797407
20
24.2247599655
10
14.45
20
24.1487803669
10
14.3167098671
20
24.0698742818
10
14.1851727807
20
23.9880792653
10
14.0554513456
20
23.9034342473
10
13.9276073019
20
23.8159795145
10
13.8017014966
20
23.7257566903
10
13.677793854
20
23.6328087161
10
13.5559433475
20
23.53717983
10
13.4362079712
20
23.4389155461
10
13.3186447128
20
23.3380626331
10
13.2033095259
20
23.2346690914
10
13.0902573039
20
23.1287841306
10
12.9795418536
20
23.0204581464
10
12.8712158694
20
22.9097426961
10
12.7653309086
20
22.7966904741
10
12.6619373669
20
22.6813552872
10
12.5610844539
20
22.5637920288
10
12.46282017
20
22.4440566525
10
12.3671912839
20
22.322206146
10
12.2742433097
20
22.1982985034
10
12.1840204855
20
22.0723926981
10
12.0965657527
20
21.9445486544
10
12.0119207347
20
21.8148272193
10
11.9301257182
20
21.6832901329
10
11.8512196331
20
21.55
10
11.7752400345
20
21.4150202593
10
11.7022230844
20
21.278415154
10
11.6322035351
20
21.1402497006
10
11.565214712
20
21.0005896584
10
11.5012884983
20
20.859501498
10
11.4404553192
20
20.7170523698
10
11.3827441281
20
20.5733100718
10
11.3281823924
20
20.4283430176
10
11.2767960806
20
20.2822202037
10
11.2286096497
20
20.1350111765
10
11.1836460339
20
19.9867859996
10
11.1419266333
20
19.8376152202
10
11.1034713043
20
19.6875698355
10
11.0682983494
20
19.536721259
10
11.0364245091
20
19.3851412863
10
11.0078649536
20
19.2329020614
10
10.9826332757
20
19.0800760419
10
10.9607414842
20
18.9267359648
10
10.9421999986
20
18.7729548114
10
10.9270176435
20
18.6188057735
10
10.915201645
20
18.4643622175
10
10.9067576268
20
18.3096976503
10
10.9016896077
20
18.1548856837
10
10.9
20
18
10
10.9016896077
20
17.8451143163
10
10.9067576268
20
17.6903023497
10
10.915201645
20
17.5356377825
10
10.9270176435
20
17.3811942265
10
10.9421999986
20
17.2270451886
10
10.9607414842
20
17.0732640352
10
10.9826332757
20
16.9199239581
10
11.0078649536
20
16.7670979386
10
11.0364245091
20
16.6148587137
10
11.0682983494
20
16.463278741
10
11.1034713043
20
16.3124301645
10
11.1419266333
20
16.1623847798
10
11.1836460339
20
16.0132140004
10
11.2286096497
20
15.8649888235
10
11.2767960806
20
15.7177797963
10
11.3281823924
20
15.5716569824
10
11.3827441281
20
15.4266899282
10
11.4404553192
20
15.2829476302
10
11.5012884983
20
15.140498502
10
11.565214712
20
14.9994103416
10
11.6322035351
20
14.8597502994
10
11.7022230844
20
14.721584846
10
11.7752400345
20
14.5849797407
10
11.8512196331
20
14.45
10
11.9301257182
20
14.3167098671
10
12.0119207347
20
14.1851727807
10
12.0965657527
20
14.0554513456
10
12.1840204855
20
13.9276073019
10
12.2742433097
20
13.8017014966
10
12.3671912839
20
13.677793854
10
12.46282017
20
13.5559433475
10
12.5610844539
20
13.4362079712
10
12.6619373669
20
13.3186447128
10
12.7653309086
20
13.2033095259
10
12.8712158694
20
13.0902573039
10
12.9795418536
20
12.9795418536
10
13.0902573039
20
12.8712158694
10
13.2033095259
20
12.7653309086
10
13.3186447128
20
12.6619373669
10
13.4362079712
20
12.5610844539
10
13.5559433475
20
12.46282017
10
13.677793854
20
12.3671912839
10
13.8017014966
20
12.2742433097
10
13.9276073019
20
12.1840204855
10
14.0554513456
20
12.0965657527
10
14.1851727807
20
12.0119207347
10
14.3167098671
20
11.9301257182
10
14.45
20
11.8512196331
10
14.5849797407
20
11.7752400345
10
14.721584846
20
11.7022230844
10
14.8597502994
20
11.6322035351
10
14.9994103416
20
11.565214712
10
15.140498502
20
11.5012884983
10
15.2829476302
20
11.4404553192
10
15.4266899282
20
11.3827441281
10
15.5716569824
20
11.3281823924
10
15.7177797963
20
11.2767960806
10
15.8649888235
20
11.2286096497
10
16.0132140004
20
11.1836460339
10
16.1623847798
20
11.1419266333
10
16.3124301645
20
11.1034713043
10
16.463278741
20
11.0682983494
10
16.6148587137
20
11.0364245091
10
16.7670979386
20
11.0078649536
10
16.9199239581
20
10.9826332757
10
17.0732640352
20
10.9607414842
10
17.2270451886
20
10.9421999986
10
17.3811942265
20
10.9270176435
10
17.5356377825
20
10.915201645
10
17.6903023497
20
10.9067576268
10
17.8451143163
20
10.9016896077
10
18
20
10.9
10
18.1548856837
20
10.9016896077
10
18.3096976503
20
10.9067576268
10
18.4643622175
20
10.915201645
10
18.6188057735
20
10.9270176435
10
18.7729548114
20
10.9421999986
10
18.9267359648
20
10.9607414842
10
19.0800760419
20
10.9826332757
10
19.2329020614
20
11.0078649536
10
19.3851412863
20
11.0364245091
10
19.536721259
20
11.0682983494
10
19.6875698355
20
11.1034713043
10
19.8376152202
20
11.1419266333
10
19.9867859996
20
11.1836460339
10
20.1350111765
20
11.2286096497
10
20.2822202037
20
11.2767960806
10
20.4283430176
20
11.3281823924
10
20.5733100718
20
11.3827441281
10
20.7170523698
20
11.4404553192
10
20.859501498
20
11.5012884983
10
21.0005896584
20
11.565214712
10
21.1402497006
20
11.6322035351
10
21.278415154
20
11.7022230844
10
21.4150202593
20
11.7752400345
10
21.55
20
11.8512196331
10
21.6832901329
20
11.9301257182
10
21.8148272193
20
12.0119207347
10
21.9445486544
20
12.0965657527
10
22.0723926981
20
12.1840204855
10
22.1982985034
20
12.2742433097
10
22.322206146
20
12.3671912839
10
22.4440566525
20
12.46282017
10
22.5637920288
20
12.5610844539
10
22.6813552872
20
12.6619373669
10
22.7966904741
20
12.7653309086
10
22.9097426961
20
12.8712158694
10
23.0204581464
20
12.9795418536
10
23.1287841306
20
13.0902573039
10
23.2346690914
20
13.2033095259
10
23.3380626331
20
13.3186447128
10
23.4389155461
20
13.4362079712
10
23.53717983
20
13.5559433475
10
23.6328087161
20
13.677793854
10
23.7257566903
20
13.8017014966
10
23.8159795145
20
13.9276073019
10
23.9034342473
20
14.0554513456
10
23.9880792653
20
14.1851727807
10
24.0698742818
20
14.3167098671
10
24.1487803669
20
14.45
10
24.2247599655
20
14.5849797407
10
24.2977769156
20
14.721584846
10
24.3677964649
20
14.8597502994
10
24.434785288
20
14.9994103416
10
24.4987115017
20
15.140498502
10
24.5595446808
20
15.2829476302
10
24.6172558719
20
15.4266899282
10
24.6718176076
20
15.5716569824
10
24.7232039194
20
15.7177797963
10
24.7713903503
20
15.8649888235
10
24.8163539661
20
16.0132140004
10
24.8580733667
20
16.1623847798
10
24.8965286957
20
16.3124301645
10
24.9317016506
20
16.463278741
10
24.9635754909
20
16.6148587137
10
24.9921350464
20
16.7670979386
10
25.0173667243
20
16.9199239581
10
25.0392585158
20
17.0732640352
10
25.0578000014
20
17.2270451886
10
25.0729823565
20
17.3811942265
10
25.084798355
20
17.5356377825
10
25.0932423732
20
17.6903023497
10
25.0983103923
20
17.8451143163
10
25.1
20
18
10
25.0983103923
20
18.1548856837
0
LWPOLYLINE
100
AcDbEntity
8
CUT
100
AcDbPolyline
90
289
70
1
10
25
20
56
10
24.9983341896
20
55.8472958048
10
24.9933375511
20
55.6946642884
10
24.9850124627
20
55.5421780954
10
24.9733628866
20
55.3899098008
10
24.9583943676
20
55.237931876
10
24.9401140296
20
55.0863166545
10
24.9185305733
20
54.9351362967
10
24.8936542711
20
54.7844627563
10
24.8654969628
20
54.6343677459
10
24.8340720498
20
54.4849227024
10
24.7993944887
20
54.3361987537
10
24.761480784
20
54.1882666843
10
24.7203489807
20
54.0411969018
10
24.6760186552
20
53.8950594035
10
24.6285109065
20
53.7499237429
10
24.5778483455
20
53.6058589967
10
24.524055085
20
53.462933732
10
24.4671567276
20
53.3212159734
10
24.4071803538
20
53.180773171
10
24.3441545093
20
53.0416721678
10
24.2781091907
20
52.9039791685
10
24.2090758322
20
52.7677597074
10
24.13708729
20
52.6330786176
10
24.0621778265
20
52.5
10
23.9843830947
20
52.3685871929
10
23.9037401207
20
52.2389027416
10
23.8202872861
20
52.1110083689
10
23.73406431
20
51.9849649455
10
23.6451122299
20
51.8608324615
10
23.553473382
20
51.7386699969
10
23.4591913817
20
51.6185356947
10
23.3623111018
20
51.5004867322
10
23.2628786524
20
51.3845792943
10
23.1609413577
20
51.2708685467
10
23.0565477344
20
51.1594086095
10
22.9497474683
20
51.0502525317
10
22.8405913905
20
50.9434522656
10
22.7291314533
20
50.8390586423
10
22.6154207057
20
50.7371213476
10
22.4995132678
20
50.6376888982
10
22.3814643053
20
50.5408086183
10
22.2613300031
20
50.446526618
10
22.1391675385
20
50.3548877701
10
22.0150350545
20
50.26593569
10
21.8889916311
20
50.1797127139
10
21.7610972584
20
50.0962598793
10
21.6314128071
20
50.0156169053
10
21.5
20
49.9378221735
10
21.3669213824
20
49.86291271
10
21.2322402926
20
49.7909241678
10
21.0960208315
20
49.7218908093
10
20.9583278322
20
49.6558454907
10
20.819226829
20
49.5928196462
10
20.6787840266
20
49.5328432724
10
20.537066268
20
49.475944915
10
20.3941410033
20
49.4221516545
10
20.2500762571
20
49.3714890935
10
20.1049405965
20
49.3239813448
10
19.9588030982
20
49.2796510193
10
19.8117333157
20
49.238519216
10
19.6638012463
20
49.2006055113
10
19.5150772976
20
49.1659279502
10
19.3656322541
20
49.1345030372
10
19.2155372437
20
49.1063457289
10
19.0648637033
20
49.0814694267
10
18.9136833455
20
49.0598859704
10
18.762068124
20
49.0416056324
10
18.6100901992
20
49.0266371134
10
18.4578219046
20
49.0149875373
10
18.3053357116
20
49.0066624489
10
18.1527041952
20
49.0016658104
10
18
20
49
10
17.8472958048
20
49.0016658104
10
17.6946642884
20
49.0066624489
10
17.5421780954
20
49.0149875373
10
17.3899098008
20
49.0266371134
10
17.237931876
20
49.0416056324
10
17.0863166545
20
49.0598859704
10
16.9351362967
20
49.0814694267
10
16.7844627563
20
49.1063457289
10
16.6343677459
20
49.1345030372
10
16.4849227024
20
49.1659279502
10
16.3361987537
20
49.2006055113
10
16.1882666843
20
49.238519216
10
16.0411969018
20
49.2796510193
10
15.8950594035
20
49.3239813448
10
15.7499237429
20
49.3714890935
10
15.6058589967
20
49.4221516545
10
15.462933732
20
49.475944915
10
15.3212159734
20
49.5328432724
10
15.180773171
20
49.5928196462
10
15.0416721678
20
49.6558454907
10
14.9039791685
20
49.7218908093
10
14.7677597074
20
49.7909241678
10
14.6330786176
20
49.86291271
10
14.5
20
49.9378221735
10
14.3685871929
20
50.0156169053
10
14.2389027416
20
50.0962598793
10
14.1110083689
20
50.1797127139
10
13.9849649455
20
50.26593569
10
13.8608324615
20
50.3548877701
10
13.7386699969
20
50.446526618
10
13.6185356947
20
50.5408086183
10
13.5004867322
20
50.6376888982
10
13.3845792943
20
50.7371213476
10
13.2708685467
20
50.8390586423
10
13.1594086095
20
50.9434522656
10
13.0502525317
20
51.0502525317
10
12.9434522656
20
51.1594086095
10
12.8390586423
20
51.2708685467
10
12.7371213476
20
51.3845792943
10
12.6376888982
20
51.5004867322
10
12.5408086183
20
51.6185356947
10
12.446526618
20
51.7386699969
10
12.3548877701
20
51.8608324615
10
12.26593569
20
51.9849649455
10
12.1797127139
20
52.1110083689
10
12.0962598793
20
52.2389027416
10
12.0156169053
20
52.3685871929
10
11.9378221735
20
52.5
10
11.86291271
20
52.6330786176
10
11.7909241678
20
52.7677597074
10
11.7218908093
20
52.9039791685
10
11.6558454907
20
53.0416721678
10
11.5928196462
20
53.180773171
10
11.5328432724
20
53.3212159734
10
11.475944915
20
53.462933732
10
11.4221516545
20
53.6058589967
10
11.3714890935
20
53.7499237429
10
11.3239813448
20
53.8950594035
10
11.2796510193
20
54.0411969018
10
11.238519216
20
54.1882666843
10
11.2006055113
20
54.3361987537
10
11.1659279502
20
54.4849227024
10
11.1345030372
20
54.6343677459
10
11.1063457289
20
54.7844627563
10
11.0814694267
20
54.9351362967
10
11.0598859704
20
55.0863166545
10
11.0416056324
20
55.237931876
10
11.0266371134
20
55.3899098008
10
11.0149875373
20
55.5421780954
10
11.0066624489
20
55.6946642884
10
11.0016658104
20
55.8472958048
10
11
20
56
10
11.0016658104
20
56.1527041952
10
11.0066624489
20
56.3053357116
10
11.0149875373
20
56.4578219046
10
11.0266371134
20
56.6100901992
10
11.0416056324
20
56.762068124
10
11.0598859704
20
56.9136833455
10
11.0814694267
20
57.0648637033
10
11.1063457289
20
57.2155372437
10
11.1345030372
20
57.3656322541
10
11.1659279502
20
57.5150772976
10
11.2006055113
20
57.6638012463
10
11.238519216
20
57.8117333157
10
11.2796510193
20
57.9588030982
10
11.3239813448
20
58.1049405965
10
11.3714890935
20
58.2500762571
10
11.4221516545
20
58.3941410033
10
11.475944915
20
58.537066268
10
11.5328432724
20
58.6787840266
10
11.5928196462
20
58.819226829
10
11.6558454907
20
58.9583278322
10
11.7218908093
20
59.0960208315
10
11.7909241678
20
59.2322402926
10
11.86291271
20
59.3669213824
10
11.9378221735
20
59.5
10
12.0156169053
20
59.6314128071
10
12.0962598793
20
59.7610972584
10
12.1797127139
20
59.8889916311
10
12.26593569
20
60.0150350545
10
12.3548877701
20
60.1391675385
10
12.446526618
20
60.2613300031
10
12.5408086183
20
60.3814643053
10
12.6376888982
20
60.4995132678
10
12.7371213476
20
60.6154207057
10
12.8390586423
20
60.7291314533
10
12.9434522656
20
60.8405913905
10
13.0502525317
20
60.9497474683
10
13.1594086095
20
61.0565477344
10
13.2708685467
20
61.1609413577
10
13.3845792943
20
61.2628786524
10
13.5004867322
20
61.3623111018
10
13.6185356947
20
61.4591913817
10
13.7386699969
20
61.553473382
10
13.8608324615
20
61.6451122299
10
13.9849649455
20
61.73406431
10
14.1110083689
20
61.8202872861
10
14.2389027416
20
61.9037401207
10
14.3685871929
20
61.9843830947
10
14.5
20
62.0621778265
10
14.6330786176
20
62.13708729
10
14.7677597074
20
62.2090758322
10
14.9039791685
20
62.2781091907
10
15.0416721678
20
62.3441545093
10
15.180773171
20
62.4071803538
10
15.3212159734
20
62.4671567276
10
15.462933732
20
62.524055085
10
15.6058589967
20
62.5778483455
10
15.7499237429
20
62.6285109065
10
15.8950594035
20
62.6760186552
10
16.0411969018
20
62.7203489807
10
16.1882666843
20
62.761480784
10
16.3361987537
20
62.7993944887
10
16.4849227024
20
62.8340720498
10
16.6343677459
20
62.8654969628
10
16.7844627563
20
62.8936542711
10
16.9351362967
20
62.9185305733
10
17.0863166545
20
62.9401140296
10
17.237931876
20
62.9583943676
10
17.3899098008
20
62.9733628866
10
17.5421780954
20
62.9850124627
10
17.6946642884
20
62.9933375511
10
17.8472958048
20
62.9983341896
10
18
20
63
10
18.1527041952
20
62.9983341896
10
18.3053357116
20
62.9933375511
10
18.4578219046
20
62.9850124627
10
18.6100901992
20
62.9733628866
10
18.762068124
20
62.9583943676
10
18.9136833455
20
62.9401140296
10
19.0648637033
20
62.9185305733
10
19.2155372437
20
62.8936542711
10
19.3656322541
20
62.8654969628
10
19.5150772976
20
62.8340720498
10
19.6638012463
20
62.7993944887
10
19.8117333157
20
62.761480784
10
19.9588030982
20
62.7203489807
10
20.1049405965
20
62.6760186552
10
20.2500762571
20
62.6285109065
10
20.3941410033
20
62.5778483455
10
20.537066268
20
62.524055085
10
20.6787840266
20
62.4671567276
10
20.819226829
20
62.4071803538
10
20.9583278322
20
62.3441545093
10
21.0960208315
20
62.2781091907
10
21.2322402926
20
62.2090758322
10
21.3669213824
20
62.13708729
10
21.5
20
62.0621778265
10
21.6314128071
20
61.9843830947
10
21.7610972584
20
61.9037401207
10
21.8889916311
20
61.8202872861
10
22.0150350545
20
61.73406431
10
22.1391675385
20
61.6451122299
10
22.2613300031
20
61.553473382
10
22.3814643053
20
61.4591913817
10
22.4995132678
20
61.3623111018
10
22.6154207057
20
61.2628786524
10
22.7291314533
20
61.1609413577
10
22.8405913905
20
61.0565477344
10
22.9497474683
20
60.9497474683
10
23.0565477344
20
60.8405913905
10
23.1609413577
20
60.7291314533
10
23.2628786524
20
60.6154207057
10
23.3623111018
20
60.4995132678
10
23.4591913817
20
60.3814643053
10
23.553473382
20
60.2613300031
10
23.6451122299
20
60.1391675385
10
23.73406431
20
60.0150350545
10
23.8202872861
20
59.8889916311
10
23.9037401207
20
59.7610972584
10
23.9843830947
20
59.6314128071
10
24.0621778265
20
59.5
10
24.13708729
20
59.3669213824
10
24.2090758322
20
59.2322402926
10
24.2781091907
20
59.0960208315
10
24.3441545093
20
58.9583278322
10
24.4071803538
20
58.819226829
10
24.4671567276
20
58.6787840266
10
24.524055085
20
58.537066268
10
24.5778483455
20
58.3941410033
10
24.6285109065
20
58.2500762571
10
24.6760186552
20
58.1049405965
10
24.7203489807
20
57.9588030982
10
24.761480784
20
57.8117333157
10
24.7993944887
20
57.6638012463
10
24.8340720498
20
57.5150772976
10
24.8654969628
20
57.3656322541
10
24.8936542711
20
57.2155372437
10
24.9185305733
20
57.0648637033
10
24.9401140296
20
56.9136833455
10
24.9583943676
20
56.762068124
10
24.9733628866
20
56.6100901992
10
24.9850124627
20
56.4578219046
10
24.9933375511
20
56.3053357116
10
24.9983341896
20
56.1527041952
10
25
20
56
0
LWPOLYLINE
100
AcDbEntity
8
CUT
100
AcDbPolyline
90
289
70
1
10
78.9961924333
20
17.6509618394
10
78.9847715453
20
17.3020898022
10
78.9657427718
20
16.9535499323
10
78.9391151695
20
16.605508116
10
78.9049014116
20
16.2581300024
10
78.863117782
20
15.9115809245
10
78.8137841675
20
15.566025821
10
78.7569240482
20
15.2216291573
10
78.6925644865
20
14.8785548477
10
78.6207361139
20
14.536966177
10
78.541473117
20
14.1970257228
10
78.4548132206
20
13.8588952784
10
78.3607976702
20
13.5227357755
10
78.259471212
20
13.1887072079
10
78.1508820719
20
12.8569685551
10
78.0350819326
20
12.5276777068
10
77.9121259085
20
12.2009913875
10
77.7820725202
20
11.8770650822
10
77.6449836659
20
11.5560529623
10
77.5009245926
20
11.2381078121
10
77.3499638645
20
10.9233809565
10
77.1921733309
20
10.6120221882
10
77.0276280913
20
10.3041796973
10
76.8564064606
20
10
10
76.6785899308
20
9.69962786943
10
76.494263133
20
9.40320626645
10
76.3035137968
20
9.11087627169
10
76.1064327086
20
8.82277701838
10
75.9031136683
20
8.53904562618
10
75.6936534447
20
8.25981713586
10
75.4781517295
20
7.98522444506
10
75.2567110899
20
7.71539824502
10
75.0294369197
20
7.4504669584
10
74.796437389
20
7.19055667815
10
74.557823393
20
6.93579110748
10
74.313708499
20
6.68629150102
10
74.0642088925
20
6.44217660704
10
73.8094433219
20
6.20356261104
10
73.5495330416
20
5.97056308034
10
73.284601755
20
5.7432889101
10
73.0147755549
20
5.52184827051
10
72.7401828641
20
5.30634655534
10
72.4609543738
20
5.09688633172
10
72.1772229816
20
4.89356729138
10
71.8891237283
20
4.69648620316
10
71.5967937335
20
4.50573686699
10
71.3003721306
20
4.32141006923
10
71
20
4.14359353945
10
70.6958203027
20
3.97237190868
10
70.3879778118
20
3.80782666915
10
70.0766190435
20
3.65003613548
10
69.7618921879
20
3.49907540741
10
69.4439470377
20
3.35501633409
10
69.1229349178
20
3.21792747982
10
68.7990086125
20
3.08787409148
10
68.4723222932
20
2.96491806743
10
68.1430314449
20
2.84911792808
10
67.8112927921
20
2.74052878803
10
67.4772642245
20
2.63920232983
10
67.1411047216
20
2.54518677937
10
66.8029742772
20
2.45852688299
10
66.463033823
20
2.37926388608
10
66.1214451523
20
2.30743551355
10
65.7783708427
20
2.2430759518
10
65.433974179
20
2.18621583252
10
65.0884190755
20
2.13688221802
10
64.7418699976
20
2.09509858844
10
64.394491884
20
2.06088483053
10
64.0464500677
20
2.03425722818
10
63.6979101978
20
2.01522845469
10
63.3490381606
20
2.00380756672
10
63
20
2
10
62.6509618394
20
2.00380756672
10
62.3020898022
20
2.01522845469
10
61.9535499323
20
2.03425722818
10
61.605508116
20
2.06088483053
10
61.2581300024
20
2.09509858844
10
60.9115809245
20
2.13688221802
10
60.566025821
20
2.18621583252
10
60.2216291573
20
2.2430759518
10
59.8785548477
20
2.30743551355
10
59.536966177
20
2.37926388608
10
59.1970257228
20
2.45852688299
10
58.8588952784
20
2.54518677937
10
58.5227357755
20
2.63920232983
10
58.1887072079
20
2.74052878803
10
57.8569685551
20
2.84911792808
10
57.5276777068
20
2.96491806743
10
57.2009913875
20
3.08787409148
10
56.8770650822
20
3.21792747982
10
56.5560529623
20
3.35501633409
10
56.2381078121
20
3.49907540741
10
55.9233809565
20
3.65003613548
10
55.6120221882
20
3.80782666915
10
55.3041796973
20
3.97237190868
10
55
20
4.14359353945
10
54.6996278694
20
4.32141006923
10
54.4032062665
20
4.50573686699
10
54.1108762717
20
4.69648620316
10
53.8227770184
20
4.89356729138
10
53.5390456262
20
5.09688633172
10
53.2598171359
20
5.30634655534
10
52.9852244451
20
5.52184827051
10
52.715398245
20
5.7432889101
10
52.4504669584
20
5.97056308034
10
52.1905566781
20
6.20356261104
10
51.9357911075
20
6.44217660704
10
51.686291501
20
6.68629150102
10
51.442176607
20
6.93579110748
10
51.203562611
20
7.19055667815
10
50.9705630803
20
7.4504669584
10
50.7432889101
20
7.71539824502
10
50.5218482705
20
7.98522444506
10
50.3063465553
20
8.25981713586
10
50.0968863317
20
8.53904562618
10
49.8935672914
20
8.82277701838
10
49.6964862032
20
9.11087627169
10
49.505736867
20
9.40320626645
10
49.3214100692
20
9.69962786943
10
49.1435935394
20
10
10
48.9723719087
20
10.3041796973
10
48.8078266691
20
10.6120221882
10
48.6500361355
20
10.9233809565
10
48.4990754074
20
11.2381078121
10
48.3550163341
20
11.5560529623
10
48.2179274798
20
11.8770650822
10
48.0878740915
20
12.2009913875
10
47.9649180674
20
12.5276777068
10
47.8491179281
20
12.8569685551
10
47.740528788
20
13.1887072079
10
47.6392023298
20
13.5227357755
10
47.5451867794
20
13.8588952784
10
47.458526883
20
14.1970257228
10
47.3792638861
20
14.536966177
10
47.3074355135
20
14.8785548477
10
47.2430759518
20
15.2216291573
10
47.1862158325
20
15.566025821
10
47.136882218
20
15.9115809245
10
47.0950985884
20
16.2581300024
10
47.0608848305
20
16.605508116
10
47.0342572282
20
16.9535499323
10
47.0152284547
20
17.3020898022
10
47.0038075667
20
17.6509618394
10
47
20
18
10
47.0038075667
20
18.3490381606
10
47.0152284547
20
18.6979101978
10
47.0342572282
20
19.0464500677
10
47.0608848305
20
19.394491884
10
47.0950985884
20
19.7418699976
10
47.136882218
20
20.0884190755
10
47.1862158325
20
20.433974179
10
47.2430759518
20
20.7783708427
10
47.3074355135
20
21.1214451523
10
47.3792638861
20
21.463033823
10
47.458526883
20
21.8029742772
10
47.5451867794
20
22.1411047216
10
47.6392023298
20
22.4772642245
10
47.740528788
20
22.8112927921
10
47.8491179281
20
23.1430314449
10
47.9649180674
20
23.4723222932
10
48.0878740915
20
23.7990086125
10
48.2179274798
20
24.1229349178
10
48.3550163341
20
24.4439470377
10
48.4990754074
20
24.7618921879
10
48.6500361355
20
25.0766190435
10
48.8078266691
20
25.3879778118
10
48.9723719087
20
25.6958203027
10
49.1435935394
20
26
10
49.3214100692
20
26.3003721306
10
49.505736867
20
26.5967937335
10
49.6964862032
20
26.8891237283
10
49.8935672914
20
27.1772229816
10
50.0968863317
20
27.4609543738
10
50.3063465553
20
27.7401828641
10
50.5218482705
20
28.0147755549
10
50.7432889101
20
28.284601755
10
50.9705630803
20
28.5495330416
10
51.203562611
20
28.8094433219
10
51.442176607
20
29.0642088925
10
51.686291501
20
29.313708499
10
51.9357911075
20
29.557823393
10
52.1905566781
20
29.796437389
10
52.4504669584
20
30.0294369197
10
52.715398245
20
30.2567110899
10
52.9852244451
20
30.4781517295
10
53.2598171359
20
30.6936534447
10
53.5390456262
20
30.9031136683
10
53.8227770184
20
31.1064327086
10
54.1108762717
20
31.3035137968
10
54.4032062665
20
31.494263133
10
54.6996278694
20
31.6785899308
10
55
20
31.8564064606
10
55.3041796973
20
32.0276280913
10
55.6120221882
20
32.1921733309
10
55.9233809565
20
32.3499638645
10
56.2381078121
20
32.5009245926
10
56.5560529623
20
32.6449836659
10
56.8770650822
20
32.7820725202
10
57.2009913875
20
32.9121259085
10
57.5276777068
20
33.0350819326
10
57.8569685551
20
33.1508820719
10
58.1887072079
20
33.259471212
10
58.5227357755
20
33.3607976702
10
58.8588952784
20
33.4548132206
10
59.1970257228
20
33.541473117
10
59.536966177
20
33.6207361139
10
59.8785548477
20
33.6925644865
10
60.2216291573
20
33.7569240482
10
60.566025821
20
33.8137841675
10
60.9115809245
20
33.863117782
10
61.2581300024
20
33.9049014116
10
61.605508116
20
33.9391151695
10
61.9535499323
20
33.9657427718
10
62.3020898022
20
33.9847715453
10
62.6509618394
20
33.9961924333
10
63
20
34
10
63.3490381606
20
33.9961924333
10
63.6979101978
20
33.9847715453
10
64.0464500677
20
33.9657427718
10
64.394491884
20
33.9391151695
10
64.7418699976
20
33.9049014116
10
65.0884190755
20
33.863117782
10
65.433974179
20
33.8137841675
10
65.7783708427
20
33.7569240482
10
66.1214451523
20
33.6925644865
10
66.463033823
20
33.6207361139
10
66.8029742772
20
33.541473117
10
67.1411047216
20
33.4548132206
10
67.4772642245
20
33.3607976702
10
67.8112927921
20
33.259471212
10
68.1430314449
20
33.1508820719
10
68.4723222932
20
33.0350819326
10
68.7990086125
20
32.9121259085
10
69.1229349178
20
32.7820725202
10
69.4439470377
20
32.6449836659
10
69.7618921879
20
32.5009245926
10
70.0766190435
20
32.3499638645
10
70.3879778118
20
32.1921733309
10
70.6958203027
20
32.0276280913
10
71
20
31.8564064606
10
71.3003721306
20
31.6785899308
10
71.5967937335
20
31.494263133
10
71.8891237283
20
31.3035137968
10
72.1772229816
20
31.1064327086
10
72.4609543738
20
30.9031136683
10
72.7401828641
20
30.6936534447
10
73.0147755549
20
30.4781517295
10
73.284601755
20
30.2567110899
10
73.5495330416
20
30.0294369197
10
73.8094433219
20
29.796437389
10
74.0642088925
20
29.557823393
10
74.313708499
20
29.313708499
10
74.557823393
20
29.0642088925
10
74.796437389
20
28.8094433219
10
75.0294369197
20
28.5495330416
10
75.2567110899
20
28.284601755
10
75.4781517295
20
28.0147755549
10
75.6936534447
20
27.7401828641
10
75.9031136683
20
27.4609543738
10
76.1064327086
20
27.1772229816
10
76.3035137968
20
26.8891237283
10
76.494263133
20
26.5967937335
10
76.6785899308
20
26.3003721306
10
76.8564064606
20
26
10
77.0276280913
20
25.6958203027
10
77.1921733309
20
25.3879778118
10
77.3499638645
20
25.0766190435
10
77.5009245926
20
24.7618921879
10
77.6449836659
20
24.4439470377
10
77.7820725202
20
24.1229349178
10
77.9121259085
20
23.7990086125
10
78.0350819326
20
23.4723222932
10
78.1508820719
20
23.1430314449
10
78.259471212
20
22.8112927921
10
78.3607976702
20
22.4772642245
10
78.4548132206
20
22.1411047216
10
78.541473117
20
21.8029742772
10
78.6207361139
20
21.463033823
10
78.6925644865
20
21.1214451523
10
78.7569240482
20
20.7783708427
10
78.8137841675
20
20.433974179
10
78.863117782
20
20.0884190755
10
78.9049014116
20
19.7418699976
10
78.9391151695
20
19.394491884
10
78.9657427718
20
19.0464500677
10
78.9847715453
20
18.6979101978
10
78.9961924333
20
18.3490381606
10
79
20
18
10
78.9961924333
20
17.6509618394
0
LWPOLYLINE
100
AcDbEntity
8
CUT
100
AcDbPolyline
90
289
70
1
10
70.198286595
20
18.1570671722
10
70.1931471954
20
18.314059589
10
70.1845842473
20
18.4709025305
10
70.1726018263
20
18.6275213478
10
70.1572056352
20
18.7838414989
10
70.1384030019
20
18.939788584
10
70.1162028754
20
19.0952883806
10
70.0906158217
20
19.2502668792
10
70.0616540189
20
19.4046503185
10
70.0293312513
20
19.5583652204
10
69.9936629027
20
19.7113384247
10
69.9546659493
20
19.8634971247
10
69.9123589516
20
20.014768901
10
69.8667620454
20
20.1650817564
10
69.8178969324
20
20.3143641502
10
69.7657868697
20
20.4625450319
10
69.7104566588
20
20.6095538756
10
69.6519326341
20
20.755320713
10
69.5902426497
20
20.899776167
10
69.5254160667
20
21.0428514845
10
69.457483739
20
21.1844785696
10
69.3864779989
20
21.3245900153
10
69.3124326411
20
21.4631191362
10
69.2353829072
20
21.6
10
69.1553654688
20
21.7351674588
10
69.0724184099
20
21.8685571801
10
68.9865812086
20
22.0001056777
10
68.8978947189
20
22.1297503417
10
68.8064011507
20
22.2574294682
10
68.7121440501
20
22.3830822889
10
68.6151682783
20
22.5066489997
10
68.5155199905
20
22.6280707897
10
68.4132466138
20
22.7472898687
10
68.308396825
20
22.8642494948
10
68.2010205268
20
22.9788940016
10
68.0911688245
20
23.0911688245
10
67.9788940016
20
23.2010205268
10
67.8642494948
20
23.308396825
10
67.7472898687
20
23.4132466138
10
67.6280707897
20
23.5155199905
10
67.5066489997
20
23.6151682783
10
67.3830822889
20
23.7121440501
10
67.2574294682
20
23.8064011507
10
67.1297503417
20
23.8978947189
10
67.0001056777
20
23.9865812086
10
66.8685571801
20
24.0724184099
10
66.7351674588
20
24.1553654688
10
66.6
20
24.2353829072
10
66.4631191362
20
24.3124326411
10
66.3245900153
20
24.3864779989
10
66.1844785696
20
24.457483739
10
66.0428514845
20
24.5254160667
10
65.899776167
20
24.5902426497
10
65.755320713
20
24.6519326341
10
65.6095538756
20
24.7104566588
10
65.4625450319
20
24.7657868697
10
65.3143641502
20
24.8178969324
10
65.1650817564
20
24.8667620454
10
65.014768901
20
24.9123589516
10
64.8634971247
20
24.9546659493
10
64.7113384247
20
24.9936629027
10
64.5583652204
20
25.0293312513
10
64.4046503185
20
25.0616540189
10
64.2502668792
20
25.0906158217
10
64.0952883806
20
25.1162028754
10
63.939788584
20
25.1384030019
10
63.7838414989
20
25.1572056352
10
63.6275213478
20
25.1726018263
10
63.4709025305
20
25.1845842473
10
63.314059589
20
25.1931471954
10
63.1570671722
20
25.198286595
10
63
20
25.2
10
62.8429328278
20
25.198286595
10
62.685940411
20
25.1931471954
10
62.5290974695
20
25.1845842473
10
62.3724786522
20
25.1726018263
10
62.2161585011
20
25.1572056352
10
62.060211416
20
25.1384030019
10
61.9047116194
20
25.1162028754
10
61.7497331208
20
25.0906158217
10
61.5953496815
20
25.0616540189
10
61.4416347796
20
25.0293312513
10
61.2886615753
20
24.9936629027
10
61.1365028753
20
24.9546659493
10
60.985231099
20
24.9123589516
10
60.8349182436
20
24.8667620454
10
60.6856358498
20
24.8178969324
10
60.5374549681
20
24.7657868697
10
60.3904461244
20
24.7104566588
10
60.244679287
20
24.6519326341
10
60.100223833
20
24.5902426497
10
59.9571485155
20
24.5254160667
10
59.8155214304
20
24.457483739
10
59.6754099847
20
24.3864779989
10
59.5368808638
20
24.3124326411
10
59.4
20
24.2353829072
10
59.2648325412
20
24.1553654688
10
59.1314428199
20
24.0724184099
10
58.9998943223
20
23.9865812086
10
58.8702496583
20
23.8978947189
10
58.7425705318
20
23.8064011507
10
58.6169177111
20
23.7121440501
10
58.4933510003
20
23.6151682783
10
58.3719292103
20
23.5155199905
10
58.2527101313
20
23.4132466138
10
58.1357505052
20
23.308396825
10
58.0211059984
20
23.2010205268
10
57.9088311755
20
23.0911688245
10
57.7989794732
20
22.9788940016
10
57.691603175
20
22.8642494948
10
57.5867533862
20
22.7472898687
10
57.4844800095
20
22.6280707897
10
57.3848317217
20
22.5066489997
10
57.2878559499
20
22.3830822889
10
57.1935988493
20
22.2574294682
10
57.1021052811
20
22.1297503417
10
57.0134187914
20
22.0001056777
10
56.9275815901
20
21.8685571801
10
56.8446345312
20
21.7351674588
10
56.7646170928
20
21.6
10
56.6875673589
20
21.4631191362
10
56.6135220011
20
21.3245900153
10
56.542516261
20
21.1844785696
10
56.4745839333
20
21.0428514845
10
56.4097573503
20
20.899776167
10
56.3480673659
20
20.755320713
10
56.2895433412
20
20.6095538756
10
56.2342131303
20
20.4625450319
10
56.1821030676
20
20.3143641502
10
56.1332379546
20
20.1650817564
10
56.0876410484
20
20.014768901
10
56.0453340507
20
19.8634971247
10
56.0063370973
20
19.7113384247
10
55.9706687487
20
19.5583652204
10
55.9383459811
20
19.4046503185
10
55.9093841783
20
19.2502668792
10
55.8837971246
20
19.0952883806
10
55.8615969981
20
18.939788584
10
55.8427943648
20
18.7838414989
10
55.8273981737
20
18.6275213478
10
55.8154157527
20
18.4709025305
10
55.8068528046
20
18.314059589
10
55.801713405
20
18.1570671722
10
55.8
20
18
10
55.801713405
20
17.8429328278
10
55.8068528046
20
17.685940411
10
55.8154157527
20
17.5290974695
10
55.8273981737
20
17.3724786522
10
55.8427943648
20
17.2161585011
10
55.8615969981
20
17.060211416
10
55.8837971246
20
16.9047116194
10
55.9093841783
20
16.7497331208
10
55.9383459811
20
16.5953496815
10
55.9706687487
20
16.4416347796
10
56.0063370973
20
16.2886615753
10
56.0453340507
20
16.1365028753
10
56.0876410484
20
15.985231099
10
56.1332379546
20
15.8349182436
10
56.1821030676
20
15.6856358498
10
56.2342131303
20
15.5374549681
10
56.2895433412
20
15.3904461244
10
56.3480673659
20
15.244679287
10
56.4097573503
20
15.100223833
10
56.4745839333
20
14.9571485155
10
56.542516261
20
14.8155214304
10
56.6135220011
20
14.6754099847
10
56.6875673589
20
14.5368808638
10
56.7646170928
20
14.4
10
56.8446345312
20
14.2648325412
10
56.9275815901
20
14.1314428199
10
57.0134187914
20
13.9998943223
10
57.1021052811
20
13.8702496583
10
57.1935988493
20
13.7425705318
10
57.2878559499
20
13.6169177111
10
57.3848317217
20
13.4933510003
10
57.4844800095
20
13.3719292103
10
57.5867533862
20
13.2527101313
10
57.691603175
20
13.1357505052
10
57.7989794732
20
13.0211059984
10
57.9088311755
20
12.9088311755
10
58.0211059984
20
12.7989794732
10
58.1357505052
20
12.691603175
10
58.2527101313
20
12.5867533862
10
58.3719292103
20
12.4844800095
10
58.4933510003
20
12.3848317217
10
58.6169177111
20
12.2878559499
10
58.7425705318
20
12.1935988493
10
58.8702496583
20
12.1021052811
10
58.9998943223
20
12.0134187914
10
59.1314428199
20
11.9275815901
10
59.2648325412
20
11.8446345312
10
59.4
20
11.7646170928
10
59.5368808638
20
11.6875673589
10
59.6754099847
20
11.6135220011
10
59.8155214304
20
11.542516261
10
59.9571485155
20
11.4745839333
10
60.100223833
20
11.4097573503
10
60.244679287
20
11.3480673659
10
60.3904461244
20
11.2895433412
10
60.5374549681
20
11.2342131303
10
60.6856358498
20
11.1821030676
10
60.8349182436
20
11.1332379546
10
60.985231099
20
11.0876410484
10
61.1365028753
20
11.0453340507
10
61.2886615753
20
11.0063370973
10
61.4416347796
20
10.9706687487
10
61.5953496815
20
10.9383459811
10
61.7497331208
20
10.9093841783
10
61.9047116194
20
10.8837971246
10
62.060211416
20
10.8615969981
10
62.2161585011
20
10.8427943648
10
62.3724786522
20
10.8273981737
10
62.5290974695
20
10.8154157527
10
62.685940411
20
10.8068528046
10
62.8429328278
20
10.801713405
10
63
20
10.8
10
63.1570671722
20
10.801713405
10
63.314059589
20
10.8068528046
10
63.4709025305
20
10.8154157527
10
63.6275213478
20
10.8273981737
10
63.7838414989
20
10.8427943648
10
63.939788584
20
10.8615969981
10
64.0952883806
20
10.8837971246
10
64.2502668792
20
10.9093841783
10
64.4046503185
20
10.9383459811
10
64.5583652204
20
10.9706687487
10
64.7113384247
20
11.0063370973
10
64.8634971247
20
11.0453340507
10
65.014768901
20
11.0876410484
10
65.1650817564
20
11.1332379546
10
65.3143641502
20
11.1821030676
10
65.4625450319
20
11.2342131303
10
65.6095538756
20
11.2895433412
10
65.755320713
20
11.3480673659
10
65.899776167
20
11.4097573503
10
66.0428514845
20
11.4745839333
10
66.1844785696
20
11.542516261
10
66.3245900153
20
11.6135220011
10
66.4631191362
20
11.6875673589
10
66.6
20
11.7646170928
10
66.7351674588
20
11.8446345312
10
66.8685571801
20
11.9275815901
10
67.0001056777
20
12.0134187914
10
67.1297503417
20
12.1021052811
10
67.2574294682
20
12.1935988493
10
67.3830822889
20
12.2878559499
10
67.5066489997
20
12.3848317217
10
67.6280707897
20
12.4844800095
10
67.7472898687
20
12.5867533862
10
67.8642494948
20
12.691603175
10
67.9788940016
20
12.7989794732
10
68.0911688245
20
12.9088311755
10
68.2010205268
20
13.0211059984
10
68.308396825
20
13.1357505052
10
68.4132466138
20
13.2527101313
10
68.5155199905
20
13.3719292103
10
68.6151682783
20
13.4933510003
10
68.7121440501
20
13.6169177111
10
68.8064011507
20
13.7425705318
10
68.8978947189
20
13.8702496583
10
68.9865812086
20
13.9998943223
10
69.0724184099
20
14.1314428199
10
69.1553654688
20
14.2648325412
10
69.2353829072
20
14.4
10
69.3124326411
20
14.5368808638
10
69.3864779989
20
14.6754099847
10
69.457483739
20
14.8155214304
10
69.5254160667
20
14.9571485155
10
69.5902426497
20
15.100223833
10
69.6519326341
20
15.244679287
10
69.7104566588
20
15.3904461244
10
69.7657868697
20
15.5374549681
10
69.8178969324
20
15.6856358498
10
69.8667620454
20
15.8349182436
10
69.9123589516
20
15.985231099
10
69.9546659493
20
16.1365028753
10
69.9936629027
20
16.2886615753
10
70.0293312513
20
16.4416347796
10
70.0616540189
20
16.5953496815
10
70.0906158217
20
16.7497331208
10
70.1162028754
20
16.9047116194
10
70.1384030019
20
17.060211416
10
70.1572056352
20
17.2161585011
10
70.1726018263
20
17.3724786522
10
70.1845842473
20
17.5290974695
10
70.1931471954
20
17.685940411
10
70.198286595
20
17.8429328278
10
70.2
20
18
10
70.198286595
20
18.1570671722
0
LWPOLYLINE
100
AcDbEntity
8
CUT
100
AcDbPolyline
90
289
70
1
10
70
20
56
10
69.9983341896
20
55.8472958048
10
69.9933375511
20
55.6946642884
10
69.9850124627
20
55.5421780954
10
69.9733628866
20
55.3899098008
10
69.9583943676
20
55.237931876
10
69.9401140296
20
55.0863166545
10
69.9185305733
20
54.9351362967
10
69.8936542711
20
54.7844627563
10
69.8654969628
20
54.6343677459
10
69.8340720498
20
54.4849227024
10
69.7993944887
20
54.3361987537
10
69.761480784
20
54.1882666843
10
69.7203489807
20
54.0411969018
10
69.6760186552
20
53.8950594035
10
69.6285109065
20
53.7499237429
10
69.5778483455
20
53.6058589967
10
69.524055085
20
53.462933732
10
69.4671567276
20
53.3212159734
10
69.4071803538
20
53.180773171
10
69.3441545093
20
53.0416721678
10
69.2781091907
20
52.9039791685
10
69.2090758322
20
52.7677597074
10
69.13708729
20
52.6330786176
10
69.0621778265
20
52.5
10
68.9843830947
20
52.3685871929
10
68.9037401207
20
52.2389027416
10
68.8202872861
20
52.1110083689
10
68.73406431
20
51.9849649455
10
68.6451122299
20
51.8608324615
10
68.553473382
20
51.7386699969
10
68.4591913817
20
51.6185356947
10
68.3623111018
20
51.5004867322
10
68.2628786524
20
51.3845792943
10
68.1609413577
20
51.2708685467
10
68.0565477344
20
51.1594086095
10
67.9497474683
20
51.0502525317
10
67.8405913905
20
50.9434522656
10
67.7291314533
20
50.8390586423
10
67.6154207057
20
50.7371213476
10
67.4995132678
20
50.6376888982
10
67.3814643053
20
50.5408086183
10
67.2613300031
20
50.446526618
10
67.1391675385
20
50.3548877701
10
67.0150350545
20
50.26593569
10
66.8889916311
20
50.1797127139
10
66.7610972584
20
50.0962598793
10
66.6314128071
20
50.0156169053
10
66.5
20
49.9378221735
10
66.3669213824
20
49.86291271
10
66.2322402926
20
49.7909241678
10
66.0960208315
20
49.7218908093
10
65.9583278322
20
49.6558454907
10
65.819226829
20
49.5928196462
10
65.6787840266
20
49.5328432724
10
65.537066268
20
49.475944915
10
65.3941410033
20
49.4221516545
10
65.2500762571
20
49.3714890935
10
65.1049405965
20
49.3239813448
10
64.9588030982
20
49.2796510193
10
64.8117333157
20
49.238519216
10
64.6638012463
20
49.2006055113
10
64.5150772976
20
49.1659279502
10
64.3656322541
20
49.1345030372
10
64.2155372437
20
49.1063457289
10
64.0648637033
20
49.0814694267
10
63.9136833455
20
49.0598859704
10
63.762068124
20
49.0416056324
10
63.6100901992
20
49.0266371134
10
63.4578219046
20
49.0149875373
10
63.3053357116
20
49.0066624489
10
63.1527041952
20
49.0016658104
10
63
20
49
10
62.8472958048
20
49.0016658104
10
62.6946642884
20
49.0066624489
10
62.5421780954
20
49.0149875373
10
62.3899098008
20
49.0266371134
10
62.237931876
20
49.0416056324
10
62.0863166545
20
49.0598859704
10
61.9351362967
20
49.0814694267
10
61.7844627563
20
49.1063457289
10
61.6343677459
20
49.1345030372
10
61.4849227024
20
49.1659279502
10
61.3361987537
20
49.2006055113
10
61.1882666843
20
49.238519216
10
61.0411969018
20
49.2796510193
10
60.8950594035
20
49.3239813448
10
60.7499237429
20
49.3714890935
10
60.6058589967
20
49.4221516545
10
60.462933732
20
49.475944915
10
60.3212159734
20
49.5328432724
10
60.180773171
20
49.5928196462
10
60.0416721678
20
49.6558454907
10
59.9039791685
20
49.7218908093
10
59.7677597074
20
49.7909241678
10
59.6330786176
20
49.86291271
10
59.5
20
49.9378221735
10
59.3685871929
20
50.0156169053
10
59.2389027416
20
50.0962598793
10
59.1110083689
20
50.1797127139
10
58.9849649455
20
50.26593569
10
58.8608324615
20
50.3548877701
10
58.7386699969
20
50.446526618
10
58.6185356947
20
50.5408086183
10
58.5004867322
20
50.6376888982
10
58.3845792943
20
50.7371213476
10
58.2708685467
20
50.8390586423
10
58.1594086095
20
50.9434522656
10
58.0502525317
20
51.0502525317
10
57.9434522656
20
51.1594086095
10
57.8390586423
20
51.2708685467
10
57.7371213476
20
51.3845792943
10
57.6376888982
20
51.5004867322
10
57.5408086183
20
51.6185356947
10
57.446526618
20
51.7386699969
10
57.3548877701
20
51.8608324615
10
57.26593569
20
51.9849649455
10
57.1797127139
20
52.1110083689
10
57.0962598793
20
52.2389027416
10
57.0156169053
20
52.3685871929
10
56.9378221735
20
52.5
10
56.86291271
20
52.6330786176
10
56.7909241678
20
52.7677597074
10
56.7218908093
20
52.9039791685
10
56.6558454907
20
53.0416721678
10
56.5928196462
20
53.180773171
10
56.5328432724
20
53.3212159734
10
56.475944915
20
53.462933732
10
56.4221516545
20
53.6058589967
10
56.3714890935
20
53.7499237429
10
56.3239813448
20
53.8950594035
10
56.2796510193
20
54.0411969018
10
56.238519216
20
54.1882666843
10
56.2006055113
20
54.3361987537
10
56.1659279502
20
54.4849227024
10
56.1345030372
20
54.6343677459
10
56.1063457289
20
54.7844627563
10
56.0814694267
20
54.9351362967
10
56.0598859704
20
55.0863166545
10
56.0416056324
20
55.237931876
10
56.0266371134
20
55.3899098008
10
56.0149875373
20
55.5421780954
10
56.0066624489
20
55.6946642884
10
56.0016658104
20
55.8472958048
10
56
20
56
10
56.0016658104
20
56.1527041952
10
56.0066624489
20
56.3053357116
10
56.0149875373
20
56.4578219046
10
56.0266371134
20
56.6100901992
10
56.0416056324
20
56.762068124
10
56.0598859704
20
56.9136833455
10
56.0814694267
20
57.0648637033
10
56.1063457289
20
57.2155372437
10
56.1345030372
20
57.3656322541
10
56.1659279502
20
57.5150772976
10
56.2006055113
20
57.6638012463
10
56.238519216
20
57.8117333157
10
56.2796510193
20
57.9588030982
10
56.3239813448
20
58.1049405965
10
56.3714890935
20
58.2500762571
10
56.4221516545
20
58.3941410033
10
56.475944915
20
58.537066268
10
56.5328432724
20
58.6787840266
10
56.5928196462
20
58.819226829
10
56.6558454907
20
58.9583278322
10
56.7218908093
20
59.0960208315
10
56.7909241678
20
59.2322402926
10
56.86291271
20
59.3669213824
10
56.9378221735
20
59.5
10
57.0156169053
20
59.6314128071
10
57.0962598793
20
59.7610972584
10
57.1797127139
20
59.8889916311
10
57.26593569
20
60.0150350545
10
57.3548877701
20
60.1391675385
10
57.446526618
20
60.2613300031
10
57.5408086183
20
60.3814643053
10
57.6376888982
20
60.4995132678
10
57.7371213476
20
60.6154207057
10
57.8390586423
20
60.7291314533
10
57.9434522656
20
60.8405913905
10
58.0502525317
20
60.9497474683
10
58.1594086095
20
61.0565477344
10
58.2708685467
20
61.1609413577
10
58.3845792943
20
61.2628786524
10
58.5004867322
20
61.3623111018
10
58.6185356947
20
61.4591913817
10
58.7386699969
20
61.553473382
10
58.8608324615
20
61.6451122299
10
58.9849649455
20
61.73406431
10
59.1110083689
20
61.8202872861
10
59.2389027416
20
61.9037401207
10
59.3685871929
20
61.9843830947
10
59.5
20
62.0621778265
10
59.6330786176
20
62.13708729
10
59.7677597074
20
62.2090758322
10
59.9039791685
20
62.2781091907
10
60.0416721678
20
62.3441545093
10
60.180773171
20
62.4071803538
10
60.3212159734
20
62.4671567276
10
60.462933732
20
62.524055085
10
60.6058589967
20
62.5778483455
10
60.7499237429
20
62.6285109065
10
60.8950594035
20
62.6760186552
10
61.0411969018
20
62.7203489807
10
61.1882666843
20
62.761480784
10
61.3361987537
20
62.7993944887
10
61.4849227024
20
62.8340720498
10
61.6343677459
20
62.8654969628
10
61.7844627563
20
62.8936542711
10
61.9351362967
20
62.9185305733
10
62.0863166545
20
62.9401140296
10
62.237931876
20
62.9583943676
10
62.3899098008
20
62.9733628866
10
62.5421780954
20
62.9850124627
10
62.6946642884
20
62.9933375511
10
62.8472958048
20
62.9983341896
10
63
20
63
10
63.1527041952
20
62.9983341896
10
63.3053357116
20
62.9933375511
10
63.4578219046
20
62.9850124627
10
63.6100901992
20
62.9733628866
10
63.762068124
20
62.9583943676
10
63.9136833455
20
62.9401140296
10
64.0648637033
20
62.9185305733
10
64.2155372437
20
62.8936542711
10
64.3656322541
20
62.8654969628
10
64.5150772976
20
62.8340720498
10
64.6638012463
20
62.7993944887
10
64.8117333157
20
62.761480784
10
64.9588030982
20
62.7203489807
10
65.1049405965
20
62.6760186552
10
65.2500762571
20
62.6285109065
10
65.3941410033
20
62.5778483455
10
65.537066268
20
62.524055085
10
65.6787840266
20
62.4671567276
10
65.819226829
20
62.4071803538
10
65.9583278322
20
62.3441545093
10
66.0960208315
20
62.2781091907
10
66.2322402926
20
62.2090758322
10
66.3669213824
20
62.13708729
10
66.5
20
62.0621778265
10
66.6314128071
20
61.9843830947
10
66.7610972584
20
61.9037401207
10
66.8889916311
20
61.8202872861
10
67.0150350545
20
61.73406431
10
67.1391675385
20
61.6451122299
10
67.2613300031
20
61.553473382
10
67.3814643053
20
61.4591913817
10
67.4995132678
20
61.3623111018
10
67.6154207057
20
61.2628786524
10
67.7291314533
20
61.1609413577
10
67.8405913905
20
61.0565477344
10
67.9497474683
20
60.9497474683
10
68.0565477344
20
60.8405913905
10
68.1609413577
20
60.7291314533
10
68.2628786524
20
60.6154207057
10
68.3623111018
20
60.4995132678
10
68.4591913817
20
60.3814643053
10
68.553473382
20
60.2613300031
10
68.6451122299
20
60.1391675385
10
68.73406431
20
60.0150350545
10
68.8202872861
20
59.8889916311
10
68.9037401207
20
59.7610972584
10
68.9843830947
20
59.6314128071
10
69.0621778265
20
59.5
10
69.13708729
20
59.3669213824
10
69.2090758322
20
59.2322402926
10
69.2781091907
20
59.0960208315
10
69.3441545093
20
58.9583278322
10
69.4071803538
20
58.819226829
10
69.4671567276
20
58.6787840266
10
69.524055085
20
58.537066268
10
69.5778483455
20
58.3941410033
10
69.6285109065
20
58.2500762571
10
69.6760186552
20
58.1049405965
10
69.7203489807
20
57.9588030982
10
69.761480784
20
57.8117333157
10
69.7993944887
20
57.6638012463
10
69.8340720498
20
57.5150772976
10
69.8654969628
20
57.3656322541
10
69.8936542711
20
57.2155372437
10
69.9185305733
20
57.0648637033
10
69.9401140296
20
56.9136833455
10
69.9583943676
20
56.762068124
10
69.9733628866
20
56.6100901992
10
69.9850124627
20
56.4578219046
10
69.9933375511
20
56.3053357116
10
69.9983341896
20
56.1527041952
10
70
20
56
0
LWPOLYLINE
100
AcDbEntity
8
CUT
100
AcDbPolyline
90
289
70
1
10
123.996192433
20
17.6509618394
10
123.984771545
20
17.3020898022
10
123.965742772
20
16.9535499323
10
123.939115169
20
16.605508116
10
123.904901412
20
16.2581300024
10
123.863117782
20
15.9115809245
10
123.813784167
20
15.566025821
10
123.756924048
20
15.2216291573
10
123.692564486
20
14.8785548477
10
123.620736114
20
14.536966177
10
123.541473117
20
14.1970257228
10
123.454813221
20
13.8588952784
10
123.36079767
20
13.5227357755
10
123.259471212
20
13.1887072079
10
123.150882072
20
12.8569685551
10
123.035081933
20
12.5276777068
10
122.912125909
20
12.2009913875
10
122.78207252
20
11.8770650822
10
122.644983666
20
11.5560529623
10
122.500924593
20
11.2381078121
10
122.349963865
20
10.9233809565
10
122.192173331
20
10.6120221882
10
122.027628091
20
10.3041796973
10
121.856406461
20
10
10
121.678589931
20
9.69962786943
10
121.494263133
20
9.40320626645
10
121.303513797
20
9.11087627169
10
121.106432709
20
8.82277701838
10
120.903113668
20
8.53904562618
10
120.693653445
20
8.25981713586
10
120.478151729
20
7.98522444506
10
120.25671109
20
7.71539824502
10
120.02943692
20
7.4504669584
10
119.796437389
20
7.19055667815
10
119.557823393
20
6.93579110748
10
119.313708499
20
6.68629150102
10
119.064208893
20
6.44217660704
10
118.809443322
20
6.20356261104
10
118.549533042
20
5.97056308034
10
118.284601755
20
5.7432889101
10
118.014775555
20
5.52184827051
10
117.740182864
20
5.30634655534
10
117.460954374
20
5.09688633172
10
117.177222982
20
4.89356729138
10
116.889123728
20
4.69648620316
10
116.596793734
20
4.50573686699
10
116.300372131
20
4.32141006923
10
116
20
4.14359353945
10
115.695820303
20
3.97237190868
10
115.387977812
20
3.80782666915
10
115.076619044
20
3.65003613548
10
114.761892188
20
3.49907540741
10
114.443947038
20
3.35501633409
10
114.122934918
20
3.21792747982
10
113.799008613
20
3.08787409148
10
113.472322293
20
2.96491806743
10
113.143031445
20
2.84911792808
10
112.811292792
20
2.74052878803
10
112.477264224
20
2.63920232983
10
112.141104722
20
2.54518677937
10
111.802974277
20
2.45852688299
10
111.463033823
20
2.37926388608
10
111.121445152
20
2.30743551355
10
110.778370843
20
2.2430759518
10
110.433974179
20
2.18621583252
10
110.088419076
20
2.13688221802
10
109.741869998
20
2.09509858844
10
109.394491884
20
2.06088483053
10
109.046450068
20
2.03425722818
10
108.697910198
20
2.01522845469
10
108.349038161
20
2.00380756672
10
108
20
2
10
107.650961839
20
2.00380756672
10
107.302089802
20
2.01522845469
10
106.953549932
20
2.03425722818
10
106.605508116
20
2.06088483053
10
106.258130002
20
2.09509858844
10
105.911580924
20
2.13688221802
10
105.566025821
20
2.18621583252
10
105.221629157
20
2.2430759518
10
104.878554848
20
2.30743551355
10
104.536966177
20
2.37926388608
10
104.197025723
20
2.45852688299
10
103.858895278
20
2.54518677937
10
103.522735776
20
2.63920232983
10
103.188707208
20
2.74052878803
10
102.856968555
20
2.84911792808
10
102.527677707
20
2.96491806743
10
102.200991387
20
3.08787409148
10
101.877065082
20
3.21792747982
10
101.556052962
20
3.35501633409
10
101.238107812
20
3.49907540741
10
100.923380956
20
3.65003613548
10
100.612022188
20
3.80782666915
10
100.304179697
20
3.97237190868
10
100
20
4.14359353945
10
99.6996278694
20
4.32141006923
10
99.4032062665
20
4.50573686699
10
99.1108762717
20
4.69648620316
10
98.8227770184
20
4.89356729138
10
98.5390456262
20
5.09688633172
10
98.2598171359
20
5.30634655534
10
97.9852244451
20
5.52184827051
10
97.715398245
20
5.7432889101
10
97.4504669584
20
5.97056308034
10
97.1905566781
20
6.20356261104
10
96.9357911075
20
6.44217660704
10
96.686291501
20
6.68629150102
10
96.442176607
20
6.93579110748
10
96.203562611
20
7.19055667815
10
95.9705630803
20
7.4504669584
10
95.7432889101
20
7.71539824502
10
95.5218482705
20
7.98522444506
10
95.3063465553
20
8.25981713586
10
95.0968863317
20
8.53904562618
10
94.8935672914
20
8.82277701838
10
94.6964862032
20
9.11087627169
10
94.505736867
20
9.40320626645
10
94.3214100692
20
9.69962786943
10
94.1435935394
20
10
10
93.9723719087
20
10.3041796973
10
93.8078266691
20
10.6120221882
10
93.6500361355
20
10.9233809565
10
93.4990754074
20
11.2381078121
10
93.3550163341
20
11.5560529623
10
93.2179274798
20
11.8770650822
10
93.0878740915
20
12.2009913875
10
92.9649180674
20
12.5276777068
10
92.8491179281
20
12.8569685551
10
92.740528788
20
13.1887072079
10
92.6392023298
20
13.5227357755
10
92.5451867794
20
13.8588952784
10
92.458526883
20
14.1970257228
10
92.3792638861
20
14.536966177
10
92.3074355135
20
14.8785548477
10
92.2430759518
20
15.2216291573
10
92.1862158325
20
15.566025821
10
92.136882218
20
15.9115809245
10
92.0950985884
20
16.2581300024
10
92.0608848305
20
16.605508116
10
92.0342572282
20
16.9535499323
10
92.0152284547
20
17.3020898022
10
92.0038075667
20
17.6509618394
10
92
20
18
10
92.0038075667
20
18.3490381606
10
92.0152284547
20
18.6979101978
10
92.0342572282
20
19.0464500677
10
92.0608848305
20
19.394491884
10
92.0950985884
20
19.7418699976
10
92.136882218
20
20.0884190755
10
92.1862158325
20
20.433974179
10
92.2430759518
20
20.7783708427
10
92.3074355135
20
21.1214451523
10
92.3792638861
20
21.463033823
10
92.458526883
20
21.8029742772
10
92.5451867794
20
22.1411047216
10
92.6392023298
20
22.4772642245
10
92.740528788
20
22.8112927921
10
92.8491179281
20
23.1430314449
10
92.9649180674
20
23.4723222932
10
93.0878740915
20
23.7990086125
10
93.2179274798
20
24.1229349178
10
93.3550163341
20
24.4439470377
10
93.4990754074
20
24.7618921879
10
93.6500361355
20
25.0766190435
10
93.8078266691
20
25.3879778118
10
93.9723719087
20
25.6958203027
10
94.1435935394
20
26
10
94.3214100692
20
26.3003721306
10
94.505736867
20
26.5967937335
10
94.6964862032
20
26.8891237283
10
94.8935672914
20
27.1772229816
10
95.0968863317
20
27.4609543738
10
95.3063465553
20
27.7401828641
10
95.5218482705
20
28.0147755549
10
95.7432889101
20
28.284601755
10
95.9705630803
20
28.5495330416
10
96.203562611
20
28.8094433219
10
96.442176607
20
29.0642088925
10
96.686291501
20
29.313708499
10
96.9357911075
20
29.557823393
10
97.1905566781
20
29.796437389
10
97.4504669584
20
30.0294369197
10
97.715398245
20
30.2567110899
10
97.9852244451
20
30.4781517295
10
98.2598171359
20
30.6936534447
10
98.5390456262
20
30.9031136683
10
98.8227770184
20
31.1064327086
10
99.1108762717
20
31.3035137968
10
99.4032062665
20
31.494263133
10
99.6996278694
20
31.6785899308
10
100
20
31.8564064606
10
100.304179697
20
32.0276280913
10
100.612022188
20
32.1921733309
10
100.923380956
20
32.3499638645
10
101.238107812
20
32.5009245926
10
101.556052962
20
32.6449836659
10
101.877065082
20
32.7820725202
10
102.200991387
20
32.9121259085
10
102.527677707
20
33.0350819326
10
102.856968555
20
33.1508820719
10
103.188707208
20
33.259471212
10
103.522735776
20
33.3607976702
10
103.858895278
20
33.4548132206
10
104.197025723
20
33.541473117
10
104.536966177
20
33.6207361139
10
104.878554848
20
33.6925644865
10
105.221629157
20
33.7569240482
10
105.566025821
20
33.8137841675
10
105.911580924
20
33.863117782
10
106.258130002
20
33.9049014116
10
106.605508116
20
33.9391151695
10
106.953549932
20
33.9657427718
10
107.302089802
20
33.9847715453
10
107.650961839
20
33.9961924333
10
108
20
34
10
108.349038161
20
33.9961924333
10
108.697910198
20
33.9847715453
10
109.046450068
20
33.9657427718
10
109.394491884
20
33.9391151695
10
109.741869998
20
33.9049014116
10
110.088419076
20
33.863117782
10
110.433974179
20
33.8137841675
10
110.778370843
20
33.7569240482
10
111.121445152
20
33.6925644865
10
111.463033823
20
33.6207361139
10
111.802974277
20
33.541473117
10
112.141104722
20
33.4548132206
10
112.477264224
20
33.3607976702
10
112.811292792
20
33.259471212
10
113.143031445
20
33.1508820719
10
113.472322293
20
33.0350819326
10
113.799008613
20
32.9121259085
10
114.122934918
20
32.7820725202
10
114.443947038
20
32.6449836659
10
114.761892188
20
32.5009245926
10
115.076619044
20
32.3499638645
10
115.387977812
20
32.1921733309
10
115.695820303
20
32.0276280913
10
116
20
31.8564064606
10
116.300372131
20
31.6785899308
10
116.596793734
20
31.494263133
10
116.889123728
20
31.3035137968
10
117.177222982
20
31.1064327086
10
117.460954374
20
30.9031136683
10
117.740182864
20
30.6936534447
10
118.014775555
20
30.4781517295
10
118.284601755
20
30.2567110899
10
118.549533042
20
30.0294369197
10
118.809443322
20
29.796437389
10
119.064208893
20
29.557823393
10
119.313708499
20
29.313708499
10
119.557823393
20
29.0642088925
10
119.796437389
20
28.8094433219
10
120.02943692
20
28.5495330416
10
120.25671109
20
28.284601755
10
120.478151729
20
28.0147755549
10
120.693653445
20
27.7401828641
10
120.903113668
20
27.4609543738
10
121.106432709
20
27.1772229816
10
121.303513797
20
26.8891237283
10
121.494263133
20
26.5967937335
10
121.678589931
20
26.3003721306
10
121.856406461
20
26
10
122.027628091
20
25.6958203027
10
122.192173331
20
25.3879778118
10
122.349963865
20
25.0766190435
10
122.500924593
20
24.7618921879
10
122.644983666
20
24.4439470377
10
122.78207252
20
24.1229349178
10
122.912125909
20
23.7990086125
10
123.035081933
20
23.4723222932
10
123.150882072
20
23.1430314449
10
123.259471212
20
22.8112927921
10
123.36079767
20
22.4772642245
10
123.454813221
20
22.1411047216
10
123.541473117
20
21.8029742772
10
123.620736114
20
21.463033823
10
123.692564486
20
21.1214451523
10
123.756924048
20
20.7783708427
10
123.813784167
20
20.433974179
10
123.863117782
20
20.0884190755
10
123.904901412
20
19.7418699976
10
123.939115169
20
19.394491884
10
123.965742772
20
19.0464500677
10
123.984771545
20
18.6979101978
10
123.996192433
20
18.3490381606
10
124
20
18
10
123.996192433
20
17.6509618394
0
LWPOLYLINE
100
AcDbEntity
8
CUT
100
AcDbPolyline
90
289
70
1
10
115.298262798
20
18.1592486608
10
115.293052018
20
18.3184215278
10
115.28437014
20
18.4774428434
10
115.272221296
20
18.6362369221
10
115.256611269
20
18.7947281864
10
115.237547488
20
18.9528412032
10
115.215039026
20
19.1105007192
10
115.189096597
20
19.267631697
10
115.159732547
20
19.4241593507
10
115.126960852
20
19.5800091817
10
115.09079711
20
19.735107014
10
115.051258532
20
19.8893790292
10
115.008363937
20
20.0427518024
10
114.96213374
20
20.1951523364
10
114.912589945
20
20.3465080967
10
114.859756132
20
20.4967470463
10
114.803657446
20
20.6457976795
10
114.744320587
20
20.7935890563
10
114.681773798
20
20.940050836
10
114.616046845
20
21.0851133107
10
114.547171013
20
21.2287074386
10
114.475179082
20
21.3707648766
10
114.400105317
20
21.5112180131
10
114.321985448
20
21.65
10
114.240856656
20
21.7870447846
10
114.156757554
20
21.9222871409
10
114.06972817
20
22.055662701
10
113.979809923
20
22.1871079854
10
113.887045611
20
22.3165604331
10
113.791479384
20
22.4439584318
10
113.693156727
20
22.5692413469
10
113.592124435
20
22.6923495507
10
113.488430595
20
22.8132244502
10
113.382124559
20
22.9318085156
10
113.273256923
20
23.0480453072
10
113.161879503
20
23.1618795027
10
113.048045307
20
23.273256923
10
112.931808516
20
23.3821245587
10
112.81322445
20
23.4884305946
10
112.692349551
20
23.5921244348
10
112.569241347
20
23.6931567266
10
112.443958432
20
23.7914793841
10
112.316560433
20
23.8870456112
10
112.187107985
20
23.9798099233
10
112.055662701
20
24.0697281698
10
111.922287141
20
24.1567575544
10
111.787044785
20
24.2408566559
10
111.65
20
24.3219854476
10
111.511218013
20
24.4001053167
10
111.370764877
20
24.4751790822
10
111.228707439
20
24.5471710132
10
111.085113311
20
24.6160468454
10
110.940050836
20
24.6817737976
10
110.793589056
20
24.7443205873
10
110.645797679
20
24.8036574458
10
110.496747046
20
24.8597561317
10
110.346508097
20
24.9125899453
10
110.195152336
20
24.9621337405
10
110.042751802
20
25.008363937
10
109.889379029
20
25.0512585319
10
109.735107014
20
25.0907971096
10
109.580009182
20
25.126960852
10
109.424159351
20
25.1597325469
10
109.267631697
20
25.189096597
10
109.110500719
20
25.2150390264
10
108.952841203
20
25.237547488
10
108.794728186
20
25.256611269
10
108.636236922
20
25.2722212961
10
108.477442843
20
25.2843701396
10
108.318421528
20
25.2930520175
10
108.159248661
20
25.2982627977
10
108
20
25.3
10
107.840751339
20
25.2982627977
10
107.681578472
20
25.2930520175
10
107.522557157
20
25.2843701396
10
107.363763078
20
25.2722212961
10
107.205271814
20
25.256611269
10
107.047158797
20
25.237547488
10
106.889499281
20
25.2150390264
10
106.732368303
20
25.189096597
10
106.575840649
20
25.1597325469
10
106.419990818
20
25.126960852
10
106.264892986
20
25.0907971096
10
106.110620971
20
25.0512585319
10
105.957248198
20
25.008363937
10
105.804847664
20
24.9621337405
10
105.653491903
20
24.9125899453
10
105.503252954
20
24.8597561317
10
105.354202321
20
24.8036574458
10
105.206410944
20
24.7443205873
10
105.059949164
20
24.6817737976
10
104.914886689
20
24.6160468454
10
104.771292561
20
24.5471710132
10
104.629235123
20
24.4751790822
10
104.488781987
20
24.4001053167
10
104.35
20
24.3219854476
10
104.212955215
20
24.2408566559
10
104.077712859
20
24.1567575544
10
103.944337299
20
24.0697281698
10
103.812892015
20
23.9798099233
10
103.683439567
20
23.8870456112
10
103.556041568
20
23.7914793841
10
103.430758653
20
23.6931567266
10
103.307650449
20
23.5921244348
10
103.18677555
20
23.4884305946
10
103.068191484
20
23.3821245587
10
102.951954693
20
23.273256923
10
102.838120497
20
23.1618795027
10
102.726743077
20
23.0480453072
10
102.617875441
20
22.9318085156
10
102.511569405
20
22.8132244502
10
102.407875565
20
22.6923495507
10
102.306843273
20
22.5692413469
10
102.208520616
20
22.4439584318
10
102.112954389
20
22.3165604331
10
102.020190077
20
22.1871079854
10
101.93027183
20
22.055662701
10
101.843242446
20
21.9222871409
10
101.759143344
20
21.7870447846
10
101.678014552
20
21.65
10
101.599894683
20
21.5112180131
10
101.524820918
20
21.3707648766
10
101.452828987
20
21.2287074386
10
101.383953155
20
21.0851133107
10
101.318226202
20
20.940050836
10
101.255679413
20
20.7935890563
10
101.196342554
20
20.6457976795
10
101.140243868
20
20.4967470463
10
101.087410055
20
20.3465080967
10
101.03786626
20
20.1951523364
10
100.991636063
20
20.0427518024
10
100.948741468
20
19.8893790292
10
100.90920289
20
19.735107014
10
100.873039148
20
19.5800091817
10
100.840267453
20
19.4241593507
10
100.810903403
20
19.267631697
10
100.784960974
20
19.1105007192
10
100.762452512
20
18.9528412032
10
100.743388731
20
18.7947281864
10
100.727778704
20
18.6362369221
10
100.71562986
20
18.4774428434
10
100.706947982
20
18.3184215278
10
100.701737202
20
18.1592486608
10
100.7
20
18
10
100.701737202
20
17.8407513392
10
100.706947982
20
17.6815784722
10
100.71562986
20
17.5225571566
10
100.727778704
20
17.3637630779
10
100.743388731
20
17.2052718136
10
100.762452512
20
17.0471587968
10
100.784960974
20
16.8894992808
10
100.810903403
20
16.732368303
10
100.840267453
20
16.5758406493
10
100.873039148
20
16.4199908183
10
100.90920289
20
16.264892986
10
100.948741468
20
16.1106209708
10
100.991636063
20
15.9572481976
10
101.03786626
20
15.8048476636
10
101.087410055
20
15.6534919033
10
101.140243868
20
15.5032529537
10
101.196342554
20
15.3542023205
10
101.255679413
20
15.2064109437
10
101.318226202
20
15.059949164
10
101.383953155
20
14.9148866893
10
101.452828987
20
14.7712925614
10
101.524820918
20
14.6292351234
10
101.599894683
20
14.4887819869
10
101.678014552
20
14.35
10
101.759143344
20
14.2129552154
10
101.843242446
20
14.0777128591
10
101.93027183
20
13.944337299
10
102.020190077
20
13.8128920146
10
102.112954389
20
13.6834395669
10
102.208520616
20
13.5560415682
10
102.306843273
20
13.4307586531
10
102.407875565
20
13.3076504493
10
102.511569405
20
13.1867755498
10
102.617875441
20
13.0681914844
10
102.726743077
20
12.9519546928
10
102.838120497
20
12.8381204973
10
102.951954693
20
12.726743077
10
103.068191484
20
12.6178754413
10
103.18677555
20
12.5115694054
10
103.307650449
20
12.4078755652
10
103.430758653
20
12.3068432734
10
103.556041568
20
12.2085206159
10
103.683439567
20
12.1129543888
10
103.812892015
20
12.0201900767
10
103.944337299
20
11.9302718302
10
104.077712859
20
11.8432424456
10
104.212955215
20
11.7591433441
10
104.35
20
11.6780145524
10
104.488781987
20
11.5998946833
10
104.629235123
20
11.5248209178
10
104.771292561
20
11.4528289868
10
104.914886689
20
11.3839531546
10
105.059949164
20
11.3182262024
10
105.206410944
20
11.2556794127
10
105.354202321
20
11.1963425542
10
105.503252954
20
11.1402438683
10
105.653491903
20
11.0874100547
10
105.804847664
20
11.0378662595
10
105.957248198
20
10.991636063
10
106.110620971
20
10.9487414681
10
106.264892986
20
10.9092028904
10
106.419990818
20
10.873039148
10
106.575840649
20
10.8402674531
10
106.732368303
20
10.810903403
10
106.889499281
20
10.7849609736
10
107.047158797
20
10.762452512
10
107.205271814
20
10.743388731
10
107.363763078
20
10.7277787039
10
107.522557157
20
10.7156298604
10
107.681578472
20
10.7069479825
10
107.840751339
20
10.7017372023
10
108
20
10.7
10
108.159248661
20
10.7017372023
10
108.318421528
20
10.7069479825
10
108.477442843
20
10.7156298604
10
108.636236922
20
10.7277787039
10
108.794728186
20
10.743388731
10
108.952841203
20
10.762452512
10
109.110500719
20
10.7849609736
10
109.267631697
20
10.810903403
10
109.424159351
20
10.8402674531
10
109.580009182
20
10.873039148
10
109.735107014
20
10.9092028904
10
109.889379029
20
10.9487414681
10
110.042751802
20
10.991636063
10
110.195152336
20
11.0378662595
10
110.346508097
20
11.0874100547
10
110.496747046
20
11.1402438683
10
110.645797679
20
11.1963425542
10
110.793589056
20
11.2556794127
10
110.940050836
20
11.3182262024
10
111.085113311
20
11.3839531546
10
111.228707439
20
11.4528289868
10
111.370764877
20
11.5248209178
10
111.511218013
20
11.5998946833
10
111.65
20
11.6780145524
10
111.787044785
20
11.7591433441
10
111.922287141
20
11.8432424456
10
112.055662701
20
11.9302718302
10
112.187107985
20
12.0201900767
10
112.316560433
20
12.1129543888
10
112.443958432
20
12.2085206159
10
112.569241347
20
12.3068432734
10
112.692349551
20
12.4078755652
10
112.81322445
20
12.5115694054
10
112.931808516
20
12.6178754413
10
113.048045307
20
12.726743077
10
113.161879503
20
12.8381204973
10
113.273256923
20
12.9519546928
10
113.382124559
20
13.0681914844
10
113.488430595
20
13.1867755498
10
113.592124435
20
13.3076504493
10
113.693156727
20
13.4307586531
10
113.791479384
20
13.5560415682
10
113.887045611
20
13.6834395669
10
113.979809923
20
13.8128920146
10
114.06972817
20
13.944337299
10
114.156757554
20
14.0777128591
10
114.240856656
20
14.2129552154
10
114.321985448
20
14.35
10
114.400105317
20
14.4887819869
10
114.475179082
20
14.6292351234
10
114.547171013
20
14.7712925614
10
114.616046845
20
14.9148866893
10
114.681773798
20
15.059949164
10
114.744320587
20
15.2064109437
10
114.803657446
20
15.3542023205
10
114.859756132
20
15.5032529537
10
114.912589945
20
15.6534919033
10
114.96213374
20
15.8048476636
10
115.008363937
20
15.9572481976
10
115.051258532
20
16.1106209708
10
115.09079711
20
16.264892986
10
115.126960852
20
16.4199908183
10
115.159732547
20
16.5758406493
10
115.189096597
20
16.732368303
10
115.215039026
20
16.8894992808
10
115.237547488
20
17.0471587968
10
115.256611269
20
17.2052718136
10
115.272221296
20
17.3637630779
10
115.28437014
20
17.5225571566
10
115.293052018
20
17.6815784722
10
115.298262798
20
17.8407513392
10
115.3
20
18
10
115.298262798
20
18.1592486608
0
LWPOLYLINE
100
AcDbEntity
8
CUT
100
AcDbPolyline
90
289
70
1
10
115
20
56
10
114.99833419
20
55.8472958048
10
114.993337551
20
55.6946642884
10
114.985012463
20
55.5421780954
10
114.973362887
20
55.3899098008
10
114.958394368
20
55.237931876
10
114.94011403
20
55.0863166545
10
114.918530573
20
54.9351362967
10
114.893654271
20
54.7844627563
10
114.865496963
20
54.6343677459
10
114.83407205
20
54.4849227024
10
114.799394489
20
54.3361987537
10
114.761480784
20
54.1882666843
10
114.720348981
20
54.0411969018
10
114.676018655
20
53.8950594035
10
114.628510906
20
53.7499237429
10
114.577848346
20
53.6058589967
10
114.524055085
20
53.462933732
10
114.467156728
20
53.3212159734
10
114.407180354
20
53.180773171
10
114.344154509
20
53.0416721678
10
114.278109191
20
52.9039791685
10
114.209075832
20
52.7677597074
10
114.13708729
20
52.6330786176
10
114.062177826
20
52.5
10
113.984383095
20
52.3685871929
10
113.903740121
20
52.2389027416
10
113.820287286
20
52.1110083689
10
113.73406431
20
51.9849649455
10
113.64511223
20
51.8608324615
10
113.553473382
20
51.7386699969
10
113.459191382
20
51.6185356947
10
113.362311102
20
51.5004867322
10
113.262878652
20
51.3845792943
10
113.160941358
20
51.2708685467
10
113.056547734
20
51.1594086095
10
112.949747468
20
51.0502525317
10
112.84059139
20
50.9434522656
10
112.729131453
20
50.8390586423
10
112.615420706
20
50.7371213476
10
112.499513268
20
50.6376888982
10
112.381464305
20
50.5408086183
10
112.261330003
20
50.446526618
10
112.139167539
20
50.3548877701
10
112.015035054
20
50.26593569
10
111.888991631
20
50.1797127139
10
111.761097258
20
50.0962598793
10
111.631412807
20
50.0156169053
10
111.5
20
49.9378221735
10
111.366921382
20
49.86291271
10
111.232240293
20
49.7909241678
10
111.096020832
20
49.7218908093
10
110.958327832
20
49.6558454907
10
110.819226829
20
49.5928196462
10
110.678784027
20
49.5328432724
10
110.537066268
20
49.475944915
10
110.394141003
20
49.4221516545
10
110.250076257
20
49.3714890935
10
110.104940597
20
49.3239813448
10
109.958803098
20
49.2796510193
10
109.811733316
20
49.238519216
10
109.663801246
20
49.2006055113
10
109.515077298
20
49.1659279502
10
109.365632254
20
49.1345030372
10
109.215537244
20
49.1063457289
10
109.064863703
20
49.0814694267
10
108.913683346
20
49.0598859704
10
108.762068124
20
49.0416056324
10
108.610090199
20
49.0266371134
10
108.457821905
20
49.0149875373
10
108.305335712
20
49.0066624489
10
108.152704195
20
49.0016658104
10
108
20
49
10
107.847295805
20
49.0016658104
10
107.694664288
20
49.0066624489
10
107.542178095
20
49.0149875373
10
107.389909801
20
49.0266371134
10
107.237931876
20
49.0416056324
10
107.086316654
20
49.0598859704
10
106.935136297
20
49.0814694267
10
106.784462756
20
49.1063457289
10
106.634367746
20
49.1345030372
10
106.484922702
20
49.1659279502
10
106.336198754
20
49.2006055113
10
106.188266684
20
49.238519216
10
106.041196902
20
49.2796510193
10
105.895059403
20
49.3239813448
10
105.749923743
20
49.3714890935
10
105.605858997
20
49.4221516545
10
105.462933732
20
49.475944915
10
105.321215973
20
49.5328432724
10
105.180773171
20
49.5928196462
10
105.041672168
20
49.6558454907
10
104.903979168
20
49.7218908093
10
104.767759707
20
49.7909241678
10
104.633078618
20
49.86291271
10
104.5
20
49.9378221735
10
104.368587193
20
50.0156169053
10
104.238902742
20
50.0962598793
10
104.111008369
20
50.1797127139
10
103.984964946
20
50.26593569
10
103.860832461
20
50.3548877701
10
103.738669997
20
50.446526618
10
103.618535695
20
50.5408086183
10
103.500486732
20
50.6376888982
10
103.384579294
20
50.7371213476
10
103.270868547
20
50.8390586423
10
103.15940861
20
50.9434522656
10
103.050252532
20
51.0502525317
10
102.943452266
20
51.1594086095
10
102.839058642
20
51.2708685467
10
102.737121348
20
51.3845792943
10
102.637688898
20
51.5004867322
10
102.540808618
20
51.6185356947
10
102.446526618
20
51.7386699969
10
102.35488777
20
51.8608324615
10
102.26593569
20
51.9849649455
10
102.179712714
20
52.1110083689
10
102.096259879
20
52.2389027416
10
102.015616905
20
52.3685871929
10
101.937822174
20
52.5
10
101.86291271
20
52.6330786176
10
101.790924168
20
52.7677597074
10
101.721890809
20
52.9039791685
10
101.655845491
20
53.0416721678
10
101.592819646
20
53.180773171
10
101.532843272
20
53.3212159734
10
101.475944915
20
53.462933732
10
101.422151654
20
53.6058589967
10
101.371489094
20
53.7499237429
10
101.323981345
20
53.8950594035
10
101.279651019
20
54.0411969018
10
101.238519216
20
54.1882666843
10
101.200605511
20
54.3361987537
10
101.16592795
20
54.4849227024
10
101.134503037
20
54.6343677459
10
101.106345729
20
54.7844627563
10
101.081469427
20
54.9351362967
10
101.05988597
20
55.0863166545
10
101.041605632
20
55.237931876
10
101.026637113
20
55.3899098008
10
101.014987537
20
55.5421780954
10
101.006662449
20
55.6946642884
10
101.00166581
20
55.8472958048
10
101
20
56
10
101.00166581
20
56.1527041952
10
101.006662449
20
56.3053357116
10
101.014987537
20
56.4578219046
10
101.026637113
20
56.6100901992
10
101.041605632
20
56.762068124
10
101.05988597
20
56.9136833455
10
101.081469427
20
57.0648637033
10
101.106345729
20
57.2155372437
10
101.134503037
20
57.3656322541
10
101.16592795
20
57.5150772976
10
101.200605511
20
57.6638012463
10
101.238519216
20
57.8117333157
10
101.279651019
20
57.9588030982
10
101.323981345
20
58.1049405965
10
101.371489094
20
58.2500762571
10
101.422151654
20
58.3941410033
10
101.475944915
20
58.537066268
10
101.532843272
20
58.6787840266
10
101.592819646
20
58.819226829
10
101.655845491
20
58.9583278322
10
101.721890809
20
59.0960208315
10
101.790924168
20
59.2322402926
10
101.86291271
20
59.3669213824
10
101.937822174
20
59.5
10
102.015616905
20
59.6314128071
10
102.096259879
20
59.7610972584
10
102.179712714
20
59.8889916311
10
102.26593569
20
60.0150350545
10
102.35488777
20
60.1391675385
10
102.446526618
20
60.2613300031
10
102.540808618
20
60.3814643053
10
102.637688898
20
60.4995132678
10
102.737121348
20
60.6154207057
10
102.839058642
20
60.7291314533
10
102.943452266
20
60.8405913905
10
103.050252532
20
60.9497474683
10
103.15940861
20
61.0565477344
10
103.270868547
20
61.1609413577
10
103.384579294
20
61.2628786524
10
103.500486732
20
61.3623111018
10
103.618535695
20
61.4591913817
10
103.738669997
20
61.553473382
10
103.860832461
20
61.6451122299
10
103.984964946
20
61.73406431
10
104.111008369
20
61.8202872861
10
104.238902742
20
61.9037401207
10
104.368587193
20
61.9843830947
10
104.5
20
62.0621778265
10
104.633078618
20
62.13708729
10
104.767759707
20
62.2090758322
10
104.903979168
20
62.2781091907
10
105.041672168
20
62.3441545093
10
105.180773171
20
62.4071803538
10
105.321215973
20
62.4671567276
10
105.462933732
20
62.524055085
10
105.605858997
20
62.5778483455
10
105.749923743
20
62.6285109065
10
105.895059403
20
62.6760186552
10
106.041196902
20
62.7203489807
10
106.188266684
20
62.761480784
10
106.336198754
20
62.7993944887
10
106.484922702
20
62.8340720498
10
106.634367746
20
62.8654969628
10
106.784462756
20
62.8936542711
10
106.935136297
20
62.9185305733
10
107.086316654
20
62.9401140296
10
107.237931876
20
62.9583943676
10
107.389909801
20
62.9733628866
10
107.542178095
20
62.9850124627
10
107.694664288
20
62.9933375511
10
107.847295805
20
62.9983341896
10
108
20
63
10
108.152704195
20
62.9983341896
10
108.305335712
20
62.9933375511
10
108.457821905
20
62.9850124627
10
108.610090199
20
62.9733628866
10
108.762068124
20
62.9583943676
10
108.913683346
20
62.9401140296
10
109.064863703
20
62.9185305733
10
109.215537244
20
62.8936542711
10
109.365632254
20
62.8654969628
10
109.515077298
20
62.8340720498
10
109.663801246
20
62.7993944887
10
109.811733316
20
62.761480784
10
109.958803098
20
62.7203489807
10
110.104940597
20
62.6760186552
10
110.250076257
20
62.6285109065
10
110.394141003
20
62.5778483455
10
110.537066268
20
62.524055085
10
110.678784027
20
62.4671567276
10
110.819226829
20
62.4071803538
10
110.958327832
20
62.3441545093
10
111.096020832
20
62.2781091907
10
111.232240293
20
62.2090758322
10
111.366921382
20
62.13708729
10
111.5
20
62.0621778265
10
111.631412807
20
61.9843830947
10
111.761097258
20
61.9037401207
10
111.888991631
20
61.8202872861
10
112.015035054
20
61.73406431
10
112.139167539
20
61.6451122299
10
112.261330003
20
61.553473382
10
112.381464305
20
61.4591913817
10
112.499513268
20
61.3623111018
10
112.615420706
20
61.2628786524
10
112.729131453
20
61.1609413577
10
112.84059139
20
61.0565477344
10
112.949747468
20
60.9497474683
10
113.056547734
20
60.8405913905
10
113.160941358
20
60.7291314533
10
113.262878652
20
60.6154207057
10
113.362311102
20
60.4995132678
10
113.459191382
20
60.3814643053
10
113.553473382
20
60.2613300031
10
113.64511223
20
60.1391675385
10
113.73406431
20
60.0150350545
10
113.820287286
20
59.8889916311
10
113.903740121
20
59.7610972584
10
113.984383095
20
59.6314128071
10
114.062177826
20
59.5
10
114.13708729
20
59.3669213824
10
114.209075832
20
59.2322402926
10
114.278109191
20
59.0960208315
10
114.344154509
20
58.9583278322
10
114.407180354
20
58.819226829
10
114.467156728
20
58.6787840266
10
114.524055085
20
58.537066268
10
114.577848346
20
58.3941410033
10
114.628510906
20
58.2500762571
10
114.676018655
20
58.1049405965
10
114.720348981
20
57.9588030982
10
114.761480784
20
57.8117333157
10
114.799394489
20
57.6638012463
10
114.83407205
20
57.5150772976
10
114.865496963
20
57.3656322541
10
114.893654271
20
57.2155372437
10
114.918530573
20
57.0648637033
10
114.94011403
20
56.9136833455
10
114.958394368
20
56.762068124
10
114.973362887
20
56.6100901992
10
114.985012463
20
56.4578219046
10
114.993337551
20
56.3053357116
10
114.99833419
20
56.1527041952
10
115
20
56
0
LWPOLYLINE
100
AcDbEntity
8
CUT
100
AcDbPolyline
90
289
70
1
10
168.996192433
20
17.6509618394
10
168.984771545
20
17.3020898022
10
168.965742772
20
16.9535499323
10
168.939115169
20
16.605508116
10
168.904901412
20
16.2581300024
10
168.863117782
20
15.9115809245
10
168.813784167
20
15.566025821
10
168.756924048
20
15.2216291573
10
168.692564486
20
14.8785548477
10
168.620736114
20
14.536966177
10
168.541473117
20
14.1970257228
10
168.454813221
20
13.8588952784
10
168.36079767
20
13.5227357755
10
168.259471212
20
13.1887072079
10
168.150882072
20
12.8569685551
10
168.035081933
20
12.5276777068
10
167.912125909
20
12.2009913875
10
167.78207252
20
11.8770650822
10
167.644983666
20
11.5560529623
10
167.500924593
20
11.2381078121
10
167.349963865
20
10.9233809565
10
167.192173331
20
10.6120221882
10
167.027628091
20
10.3041796973
10
166.856406461
20
10
10
166.678589931
20
9.69962786943
10
166.494263133
20
9.40320626645
10
166.303513797
20
9.11087627169
10
166.106432709
20
8.82277701838
10
165.903113668
20
8.53904562618
10
165.693653445
20
8.25981713586
10
165.478151729
20
7.98522444506
10
165.25671109
20
7.71539824502
10
165.02943692
20
7.4504669584
10
164.796437389
20
7.19055667815
10
164.557823393
20
6.93579110748
10
164.313708499
20
6.68629150102
10
164.064208893
20
6.44217660704
10
163.809443322
20
6.20356261104
10
163.549533042
20
5.97056308034
10
163.284601755
20
5.7432889101
10
163.014775555
20
5.52184827051
10
162.740182864
20
5.30634655534
10
162.460954374
20
5.09688633172
10
162.177222982
20
4.89356729138
10
161.889123728
20
4.69648620316
10
161.596793734
20
4.50573686699
10
161.300372131
20
4.32141006923
10
161
20
4.14359353945
10
160.695820303
20
3.97237190868
10
160.387977812
20
3.80782666915
10
160.076619044
20
3.65003613548
10
159.761892188
20
3.49907540741
10
159.443947038
20
3.35501633409
10
159.122934918
20
3.21792747982
10
158.799008613
20
3.08787409148
10
158.472322293
20
2.96491806743
10
158.143031445
20
2.84911792808
10
157.811292792
20
2.74052878803
10
157.477264224
20
2.63920232983
10
157.141104722
20
2.54518677937
10
156.802974277
20
2.45852688299
10
156.463033823
20
2.37926388608
10
156.121445152
20
2.30743551355
10
155.778370843
20
2.2430759518
10
155.433974179
20
2.18621583252
10
155.088419076
20
2.13688221802
10
154.741869998
20
2.09509858844
10
154.394491884
20
2.06088483053
10
154.046450068
20
2.03425722818
10
153.697910198
20
2.01522845469
10
153.349038161
20
2.00380756672
10
153
20
2
10
152.650961839
20
2.00380756672
10
152.302089802
20
2.01522845469
10
151.953549932
20
2.03425722818
10
151.605508116
20
2.06088483053
10
151.258130002
20
2.09509858844
10
150.911580924
20
2.13688221802
10
150.566025821
20
2.18621583252
10
150.221629157
20
2.2430759518
10
149.878554848
20
2.30743551355
10
149.536966177
20
2.37926388608
10
149.197025723
20
2.45852688299
10
148.858895278
20
2.54518677937
10
148.522735776
20
2.63920232983
10
148.188707208
20
2.74052878803
10
147.856968555
20
2.84911792808
10
147.527677707
20
2.96491806743
10
147.200991387
20
3.08787409148
10
146.877065082
20
3.21792747982
10
146.556052962
20
3.35501633409
10
146.238107812
20
3.49907540741
10
145.923380956
20
3.65003613548
10
145.612022188
20
3.80782666915
10
145.304179697
20
3.97237190868
10
145
20
4.14359353945
10
144.699627869
20
4.32141006923
10
144.403206266
20
4.50573686699
10
144.110876272
20
4.69648620316
10
143.822777018
20
4.89356729138
10
143.539045626
20
5.09688633172
10
143.259817136
20
5.30634655534
10
142.985224445
20
5.52184827051
10
142.715398245
20
5.7432889101
10
142.450466958
20
5.97056308034
10
142.190556678
20
6.20356261104
10
141.935791107
20
6.44217660704
10
141.686291501
20
6.68629150102
10
141.442176607
20
6.93579110748
10
141.203562611
20
7.19055667815
10
140.97056308
20
7.4504669584
10
140.74328891
20
7.71539824502
10
140.521848271
20
7.98522444506
10
140.306346555
20
8.25981713586
10
140.096886332
20
8.53904562618
10
139.893567291
20
8.82277701838
10
139.696486203
20
9.11087627169
10
139.505736867
20
9.40320626645
10
139.321410069
20
9.69962786943
10
139.143593539
20
10
10
138.972371909
20
10.3041796973
10
138.807826669
20
10.6120221882
10
138.650036135
20
10.9233809565
10
138.499075407
20
11.2381078121
10
138.355016334
20
11.5560529623
10
138.21792748
20
11.8770650822
10
138.087874091
20
12.2009913875
10
137.964918067
20
12.5276777068
10
137.849117928
20
12.8569685551
10
137.740528788
20
13.1887072079
10
137.63920233
20
13.5227357755
10
137.545186779
20
13.8588952784
10
137.458526883
20
14.1970257228
10
137.379263886
20
14.536966177
10
137.307435514
20
14.8785548477
10
137.243075952
20
15.2216291573
10
137.186215833
20
15.566025821
10
137.136882218
20
15.9115809245
10
137.095098588
20
16.2581300024
10
137.060884831
20
16.605508116
10
137.034257228
20
16.9535499323
10
137.015228455
20
17.3020898022
10
137.003807567
20
17.6509618394
10
137
20
18
10
137.003807567
20
18.3490381606
10
137.015228455
20
18.6979101978
10
137.034257228
20
19.0464500677
10
137.060884831
20
19.394491884
10
137.095098588
20
19.7418699976
10
137.136882218
20
20.0884190755
10
137.186215833
20
20.433974179
10
137.243075952
20
20.7783708427
10
137.307435514
20
21.1214451523
10
137.379263886
20
21.463033823
10
137.458526883
20
21.8029742772
10
137.545186779
20
22.1411047216
10
137.63920233
20
22.4772642245
10
137.740528788
20
22.8112927921
10
137.849117928
20
23.1430314449
10
137.964918067
20
23.4723222932
10
138.087874091
20
23.7990086125
10
138.21792748
20
24.1229349178
10
138.355016334
20
24.4439470377
10
138.499075407
20
24.7618921879
10
138.650036135
20
25.0766190435
10
138.807826669
20
25.3879778118
10
138.972371909
20
25.6958203027
10
139.143593539
20
26
10
139.321410069
20
26.3003721306
10
139.505736867
20
26.5967937335
10
139.696486203
20
26.8891237283
10
139.893567291
20
27.1772229816
10
140.096886332
20
27.4609543738
10
140.306346555
20
27.7401828641
10
140.521848271
20
28.0147755549
10
140.74328891
20
28.284601755
10
140.97056308
20
28.5495330416
10
141.203562611
20
28.8094433219
10
141.442176607
20
29.0642088925
10
141.686291501
20
29.313708499
10
141.935791107
20
29.557823393
10
142.190556678
20
29.796437389
10
142.450466958
20
30.0294369197
10
142.715398245
20
30.2567110899
10
142.985224445
20
30.4781517295
10
143.259817136
20
30.6936534447
10
143.539045626
20
30.9031136683
10
143.822777018
20
31.1064327086
10
144.110876272
20
31.3035137968
10
144.403206266
20
31.494263133
10
144.699627869
20
31.6785899308
10
145
20
31.8564064606
10
145.304179697
20
32.0276280913
10
145.612022188
20
32.1921733309
10
145.923380956
20
32.3499638645
10
146.238107812
20
32.5009245926
10
146.556052962
20
32.6449836659
10
146.877065082
20
32.7820725202
10
147.200991387
20
32.9121259085
10
147.527677707
20
33.0350819326
10
147.856968555
20
33.1508820719
10
148.188707208
20
33.259471212
10
148.522735776
20
33.3607976702
10
148.858895278
20
33.4548132206
10
149.197025723
20
33.541473117
10
149.536966177
20
33.6207361139
10
149.878554848
20
33.6925644865
10
150.221629157
20
33.7569240482
10
150.566025821
20
33.8137841675
10
150.911580924
20
33.863117782
10
151.258130002
20
33.9049014116
10
151.605508116
20
33.9391151695
10
151.953549932
20
33.9657427718
10
152.302089802
20
33.9847715453
10
152.650961839
20
33.9961924333
10
153
20
34
10
153.349038161
20
33.9961924333
10
153.697910198
20
33.9847715453
10
154.046450068
20
33.9657427718
10
154.394491884
20
33.9391151695
10
154.741869998
20
33.9049014116
10
155.088419076
20
33.863117782
10
155.433974179
20
33.8137841675
10
155.778370843
20
33.7569240482
10
156.121445152
20
33.6925644865
10
156.463033823
20
33.6207361139
10
156.802974277
20
33.541473117
10
157.141104722
20
33.4548132206
10
157.477264224
20
33.3607976702
10
157.811292792
20
33.259471212
10
158.143031445
20
33.1508820719
10
158.472322293
20
33.0350819326
10
158.799008613
20
32.9121259085
10
159.122934918
20
32.7820725202
10
159.443947038
20
32.6449836659
10
159.761892188
20
32.5009245926
10
160.076619044
20
32.3499638645
10
160.387977812
20
32.1921733309
10
160.695820303
20
32.0276280913
10
161
20
31.8564064606
10
161.300372131
20
31.6785899308
10
161.596793734
20
31.494263133
10
161.889123728
20
31.3035137968
10
162.177222982
20
31.1064327086
10
162.460954374
20
30.9031136683
10
162.740182864
20
30.6936534447
10
163.014775555
20
30.4781517295
10
163.284601755
20
30.2567110899
10
163.549533042
20
30.0294369197
10
163.809443322
20
29.796437389
10
164.064208893
20
29.557823393
10
164.313708499
20
29.313708499
10
164.557823393
20
29.0642088925
10
164.796437389
20
28.8094433219
10
165.02943692
20
28.5495330416
10
165.25671109
20
28.284601755
10
165.478151729
20
28.0147755549
10
165.693653445
20
27.7401828641
10
165.903113668
20
27.4609543738
10
166.106432709
20
27.1772229816
10
166.303513797
20
26.8891237283
10
166.494263133
20
26.5967937335
10
166.678589931
20
26.3003721306
10
166.856406461
20
26
10
167.027628091
20
25.6958203027
10
167.192173331
20
25.3879778118
10
167.349963865
20
25.0766190435
10
167.500924593
20
24.7618921879
10
167.644983666
20
24.4439470377
10
167.78207252
20
24.1229349178
10
167.912125909
20
23.7990086125
10
168.035081933
20
23.4723222932
10
168.150882072
20
23.1430314449
10
168.259471212
20
22.8112927921
10
168.36079767
20
22.4772642245
10
168.454813221
20
22.1411047216
10
168.541473117
20
21.8029742772
10
168.620736114
20
21.463033823
10
168.692564486
20
21.1214451523
10
168.756924048
20
20.7783708427
10
168.813784167
20
20.433974179
10
168.863117782
20
20.0884190755
10
168.904901412
20
19.7418699976
10
168.939115169
20
19.394491884
10
168.965742772
20
19.0464500677
10
168.984771545
20
18.6979101978
10
168.996192433
20
18.3490381606
10
169
20
18
10
168.996192433
20
17.6509618394
0
LWPOLYLINE
100
AcDbEntity
8
CUT
100
AcDbPolyline
90
289
70
1
10
160.398239
20
18.1614301493
10
160.39295684
20
18.3227834665
10
160.384156032
20
18.4839831563
10
160.371840766
20
18.6449524963
10
160.356016903
20
18.8056148739
10
160.336691974
20
18.9658938224
10
160.313875177
20
19.1257130578
10
160.287577372
20
19.2849965147
10
160.257811075
20
19.4436683829
10
160.224590453
20
19.6016531431
10
160.187931317
20
19.7588756032
10
160.147851115
20
19.9152609338
10
160.104368922
20
20.0707347038
10
160.057505436
20
20.2252229163
10
160.007282958
20
20.3786520432
10
159.953725394
20
20.5309490606
10
159.896858233
20
20.6820414833
10
159.836708541
20
20.8318573995
10
159.773304945
20
20.980325505
10
159.706677624
20
21.1273751369
10
159.636858287
20
21.2729363076
10
159.563880166
20
21.4169397379
10
159.487777992
20
21.55931689
10
159.408587988
20
21.7
10
159.326347843
20
21.8389221104
10
159.241096699
20
21.9760171018
10
159.152875131
20
22.1112197243
10
159.061725128
20
22.244465629
10
158.967690072
20
22.3756913979
10
158.870814718
20
22.5048345747
10
158.771145175
20
22.6318336942
10
158.668728879
20
22.7566283117
10
158.563614575
20
22.8791590317
10
158.455852292
20
22.9993675364
10
158.345493319
20
23.1171966128
10
158.232590181
20
23.2325901808
10
158.117196613
20
23.3454933192
10
157.999367536
20
23.4558522924
10
157.879159032
20
23.5636145753
10
157.756628312
20
23.6687288791
10
157.631833694
20
23.7711451749
10
157.504834575
20
23.8708147182
10
157.375691398
20
23.9676900716
10
157.244465629
20
24.0617251277
10
157.111219724
20
24.152875131
10
156.976017102
20
24.241096699
10
156.83892211
20
24.326347843
10
156.7
20
24.408587988
10
156.55931689
20
24.4877779922
10
156.416939738
20
24.5638801655
10
156.272936308
20
24.6368582873
10
156.127375137
20
24.7066776241
10
155.980325505
20
24.7733049455
10
155.8318574
20
24.8367085406
10
155.682041483
20
24.8968582327
10
155.530949061
20
24.9537253938
10
155.378652043
20
25.0072829583
10
155.225222916
20
25.0575054355
10
155.070734704
20
25.1043689225
10
154.915260934
20
25.1478511145
10
154.758875603
20
25.1879313166
10
154.601653143
20
25.2245904527
10
154.443668383
20
25.257811075
10
154.284996515
20
25.2875773723
10
154.125713058
20
25.3138751775
10
153.965893822
20
25.3366919742
10
153.805614874
20
25.3560169028
10
153.644952496
20
25.3718407659
10
153.483983156
20
25.384156032
10
153.322783467
20
25.3929568397
10
153.161430149
20
25.3982390004
10
153
20
25.4
10
152.838569851
20
25.3982390004
10
152.677216533
20
25.3929568397
10
152.516016844
20
25.384156032
10
152.355047504
20
25.3718407659
10
152.194385126
20
25.3560169028
10
152.034106178
20
25.3366919742
10
151.874286942
20
25.3138751775
10
151.715003485
20
25.2875773723
10
151.556331617
20
25.257811075
10
151.398346857
20
25.2245904527
10
151.241124397
20
25.1879313166
10
151.084739066
20
25.1478511145
10
150.929265296
20
25.1043689225
10
150.774777084
20
25.0575054355
10
150.621347957
20
25.0072829583
10
150.469050939
20
24.9537253938
10
150.317958517
20
24.8968582327
10
150.1681426
20
24.8367085406
10
150.019674495
20
24.7733049455
10
149.872624863
20
24.7066776241
10
149.727063692
20
24.6368582873
10
149.583060262
20
24.5638801655
10
149.44068311
20
24.4877779922
10
149.3
20
24.408587988
10
149.16107789
20
24.326347843
10
149.023982898
20
24.241096699
10
148.888780276
20
24.152875131
10
148.755534371
20
24.0617251277
10
148.624308602
20
23.9676900716
10
148.495165425
20
23.8708147182
10
148.368166306
20
23.7711451749
10
148.243371688
20
23.6687288791
10
148.120840968
20
23.5636145753
10
148.000632464
20
23.4558522924
10
147.882803387
20
23.3454933192
10
147.767409819
20
23.2325901808
10
147.654506681
20
23.1171966128
10
147.544147708
20
22.9993675364
10
147.436385425
20
22.8791590317
10
147.331271121
20
22.7566283117
10
147.228854825
20
22.6318336942
10
147.129185282
20
22.5048345747
10
147.032309928
20
22.3756913979
10
146.938274872
20
22.244465629
10
146.847124869
20
22.1112197243
10
146.758903301
20
21.9760171018
10
146.673652157
20
21.8389221104
10
146.591412012
20
21.7
10
146.512222008
20
21.55931689
10
146.436119834
20
21.4169397379
10
146.363141713
20
21.2729363076
10
146.293322376
20
21.1273751369
10
146.226695055
20
20.980325505
10
146.163291459
20
20.8318573995
10
146.103141767
20
20.6820414833
10
146.046274606
20
20.5309490606
10
145.992717042
20
20.3786520432
10
145.942494564
20
20.2252229163
10
145.895631078
20
20.0707347038
10
145.852148885
20
19.9152609338
10
145.812068683
20
19.7588756032
10
145.775409547
20
19.6016531431
10
145.742188925
20
19.4436683829
10
145.712422628
20
19.2849965147
10
145.686124823
20
19.1257130578
10
145.663308026
20
18.9658938224
10
145.643983097
20
18.8056148739
10
145.628159234
20
18.6449524963
10
145.615843968
20
18.4839831563
10
145.60704316
20
18.3227834665
10
145.601761
20
18.1614301493
10
145.6
20
18
10
145.601761
20
17.8385698507
10
145.60704316
20
17.6772165335
10
145.615843968
20
17.5160168437
10
145.628159234
20
17.3550475037
10
145.643983097
20
17.1943851261
10
145.663308026
20
17.0341061776
10
145.686124823
20
16.8742869422
10
145.712422628
20
16.7150034853
10
145.742188925
20
16.5563316171
10
145.775409547
20
16.3983468569
10
145.812068683
20
16.2411243968
10
145.852148885
20
16.0847390662
10
145.895631078
20
15.9292652962
10
145.942494564
20
15.7747770837
10
145.992717042
20
15.6213479568
10
146.046274606
20
15.4690509394
10
146.103141767
20
15.3179585167
10
146.163291459
20
15.1681426005
10
146.226695055
20
15.019674495
10
146.293322376
20
14.8726248631
10
146.363141713
20
14.7270636924
10
146.436119834
20
14.5830602621
10
146.512222008
20
14.44068311
10
146.591412012
20
14.3
10
146.673652157
20
14.1610778896
10
146.758903301
20
14.0239828982
10
146.847124869
20
13.8887802757
10
146.938274872
20
13.755534371
10
147.032309928
20
13.6243086021
10
147.129185282
20
13.4951654253
10
147.228854825
20
13.3681663058
10
147.331271121
20
13.2433716883
10
147.436385425
20
13.1208409683
10
147.544147708
20
13.0006324636
10
147.654506681
20
12.8828033872
10
147.767409819
20
12.7674098192
10
147.882803387
20
12.6545066808
10
148.000632464
20
12.5441477076
10
148.120840968
20
12.4363854247
10
148.243371688
20
12.3312711209
10
148.368166306
20
12.2288548251
10
148.495165425
20
12.1291852818
10
148.624308602
20
12.0323099284
10
148.755534371
20
11.9382748723
10
148.888780276
20
11.847124869
10
149.023982898
20
11.758903301
10
149.16107789
20
11.673652157
10
149.3
20
11.591412012
10
149.44068311
20
11.5122220078
10
149.583060262
20
11.4361198345
10
149.727063692
20
11.3631417127
10
149.872624863
20
11.2933223759
10
150.019674495
20
11.2266950545
10
150.1681426
20
11.1632914594
10
150.317958517
20
11.1031417673
10
150.469050939
20
11.0462746062
10
150.621347957
20
10.9927170417
10
150.774777084
20
10.9424945645
10
150.929265296
20
10.8956310775
10
151.084739066
20
10.8521488855
10
151.241124397
20
10.8120686834
10
151.398346857
20
10.7754095473
10
151.556331617
20
10.742188925
10
151.715003485
20
10.7124226277
10
151.874286942
20
10.6861248225
10
152.034106178
20
10.6633080258
10
152.194385126
20
10.6439830972
10
152.355047504
20
10.6281592341
10
152.516016844
20
10.615843968
10
152.677216533
20
10.6070431603
10
152.838569851
20
10.6017609996
10
153
20
10.6
10
153.161430149
20
10.6017609996
10
153.322783467
20
10.6070431603
10
153.483983156
20
10.615843968
10
153.644952496
20
10.6281592341
10
153.805614874
20
10.6439830972
10
153.965893822
20
10.6633080258
10
154.125713058
20
10.6861248225
10
154.284996515
20
10.7124226277
10
154.443668383
20
10.742188925
10
154.601653143
20
10.7754095473
10
154.758875603
20
10.8120686834
10
154.915260934
20
10.8521488855
10
155.070734704
20
10.8956310775
10
155.225222916
20
10.9424945645
10
155.378652043
20
10.9927170417
10
155.530949061
20
11.0462746062
10
155.682041483
20
11.1031417673
10
155.8318574
20
11.1632914594
10
155.980325505
20
11.2266950545
10
156.127375137
20
11.2933223759
10
156.272936308
20
11.3631417127
10
156.416939738
20
11.4361198345
10
156.55931689
20
11.5122220078
10
156.7
20
11.591412012
10
156.83892211
20
11.673652157
10
156.976017102
20
11.758903301
10
157.111219724
20
11.847124869
10
157.244465629
20
11.9382748723
10
157.375691398
20
12.0323099284
10
157.504834575
20
12.1291852818
10
157.631833694
20
12.2288548251
10
157.756628312
20
12.3312711209
10
157.879159032
20
12.4363854247
10
157.999367536
20
12.5441477076
10
158.117196613
20
12.6545066808
10
158.232590181
20
12.7674098192
10
158.345493319
20
12.8828033872
10
158.455852292
20
13.0006324636
10
158.563614575
20
13.1208409683
10
158.668728879
20
13.2433716883
10
158.771145175
20
13.3681663058
10
158.870814718
20
13.4951654253
10
158.967690072
20
13.6243086021
10
159.061725128
20
13.755534371
10
159.152875131
20
13.8887802757
10
159.241096699
20
14.0239828982
10
159.326347843
20
14.1610778896
10
159.408587988
20
14.3
10
159.487777992
20
14.44068311
10
159.563880166
20
14.5830602621
10
159.636858287
20
14.7270636924
10
159.706677624
20
14.8726248631
10
159.773304945
20
15.019674495
10
159.836708541
20
15.1681426005
10
159.896858233
20
15.3179585167
10
159.953725394
20
15.4690509394
10
160.007282958
20
15.6213479568
10
160.057505436
20
15.7747770837
10
160.104368922
20
15.9292652962
10
160.147851115
20
16.0847390662
10
160.187931317
20
16.2411243968
10
160.224590453
20
16.3983468569
10
160.257811075
20
16.5563316171
10
160.287577372
20
16.7150034853
10
160.313875177
20
16.8742869422
10
160.336691974
20
17.0341061776
10
160.356016903
20
17.1943851261
10
160.371840766
20
17.3550475037
10
160.384156032
20
17.5160168437
10
160.39295684
20
17.6772165335
10
160.398239
20
17.8385698507
10
160.4
20
18
10
160.398239
20
18.1614301493
0
LWPOLYLINE
100
AcDbEntity
8
CUT
100
AcDbPolyline
90
289
70
1
10
160
20
56
10
159.99833419
20
55.8472958048
10
159.993337551
20
55.6946642884
10
159.985012463
20
55.5421780954
10
159.973362887
20
55.3899098008
10
159.958394368
20
55.237931876
10
159.94011403
20
55.0863166545
10
159.918530573
20
54.9351362967
10
159.893654271
20
54.7844627563
10
159.865496963
20
54.6343677459
10
159.83407205
20
54.4849227024
10
159.799394489
20
54.3361987537
10
159.761480784
20
54.1882666843
10
159.720348981
20
54.0411969018
10
159.676018655
20
53.8950594035
10
159.628510906
20
53.7499237429
10
159.577848346
20
53.6058589967
10
159.524055085
20
53.462933732
10
159.467156728
20
53.3212159734
10
159.407180354
20
53.180773171
10
159.344154509
20
53.0416721678
10
159.278109191
20
52.9039791685
10
159.209075832
20
52.7677597074
10
159.13708729
20
52.6330786176
10
159.062177826
20
52.5
10
158.984383095
20
52.3685871929
10
158.903740121
20
52.2389027416
10
158.820287286
20
52.1110083689
10
158.73406431
20
51.9849649455
10
158.64511223
20
51.8608324615
10
158.553473382
20
51.7386699969
10
158.459191382
20
51.6185356947
10
158.362311102
20
51.5004867322
10
158.262878652
20
51.3845792943
10
158.160941358
20
51.2708685467
10
158.056547734
20
51.1594086095
10
157.949747468
20
51.0502525317
10
157.84059139
20
50.9434522656
10
157.729131453
20
50.8390586423
10
157.615420706
20
50.7371213476
10
157.499513268
20
50.6376888982
10
157.381464305
20
50.5408086183
10
157.261330003
20
50.446526618
10
157.139167539
20
50.3548877701
10
157.015035054
20
50.26593569
10
156.888991631
20
50.1797127139
10
156.761097258
20
50.0962598793
10
156.631412807
20
50.0156169053
10
156.5
20
49.9378221735
10
156.366921382
20
49.86291271
10
156.232240293
20
49.7909241678
10
156.096020832
20
49.7218908093
10
155.958327832
20
49.6558454907
10
155.819226829
20
49.5928196462
10
155.678784027
20
49.5328432724
10
155.537066268
20
49.475944915
10
155.394141003
20
49.4221516545
10
155.250076257
20
49.3714890935
10
155.104940597
20
49.3239813448
10
154.958803098
20
49.2796510193
10
154.811733316
20
49.238519216
10
154.663801246
20
49.2006055113
10
154.515077298
20
49.1659279502
10
154.365632254
20
49.1345030372
10
154.215537244
20
49.1063457289
10
154.064863703
20
49.0814694267
10
153.913683346
20
49.0598859704
10
153.762068124
20
49.0416056324
10
153.610090199
20
49.0266371134
10
153.457821905
20
49.0149875373
10
153.305335712
20
49.0066624489
10
153.152704195
20
49.0016658104
10
153
20
49
10
152.847295805
20
49.0016658104
10
152.694664288
20
49.0066624489
10
152.542178095
20
49.0149875373
10
152.389909801
20
49.0266371134
10
152.237931876
20
49.0416056324
10
152.086316654
20
49.0598859704
10
151.935136297
20
49.0814694267
10
151.784462756
20
49.1063457289
10
151.634367746
20
49.1345030372
10
151.484922702
20
49.1659279502
10
151.336198754
20
49.2006055113
10
151.188266684
20
49.238519216
10
151.041196902
20
49.2796510193
10
150.895059403
20
49.3239813448
10
150.749923743
20
49.3714890935
10
150.605858997
20
49.4221516545
10
150.462933732
20
49.475944915
10
150.321215973
20
49.5328432724
10
150.180773171
20
49.5928196462
10
150.041672168
20
49.6558454907
10
149.903979168
20
49.7218908093
10
149.767759707
20
49.7909241678
10
149.633078618
20
49.86291271
10
149.5
20
49.9378221735
10
149.368587193
20
50.0156169053
10
149.238902742
20
50.0962598793
10
149.111008369
20
50.1797127139
10
148.984964946
20
50.26593569
10
148.860832461
20
50.3548877701
10
148.738669997
20
50.446526618
10
148.618535695
20
50.5408086183
10
148.500486732
20
50.6376888982
10
148.384579294
20
50.7371213476
10
148.270868547
20
50.8390586423
10
148.15940861
20
50.9434522656
10
148.050252532
20
51.0502525317
10
147.943452266
20
51.1594086095
10
147.839058642
20
51.2708685467
10
147.737121348
20
51.3845792943
10
147.637688898
20
51.5004867322
10
147.540808618
20
51.6185356947
10
147.446526618
20
51.7386699969
10
147.35488777
20
51.8608324615
10
147.26593569
20
51.9849649455
10
147.179712714
20
52.1110083689
10
147.096259879
20
52.2389027416
10
147.015616905
20
52.3685871929
10
146.937822174
20
52.5
10
146.86291271
20
52.6330786176
10
146.790924168
20
52.7677597074
10
146.721890809
20
52.9039791685
10
146.655845491
20
53.0416721678
10
146.592819646
20
53.180773171
10
146.532843272
20
53.3212159734
10
146.475944915
20
53.462933732
10
146.422151654
20
53.6058589967
10
146.371489094
20
53.7499237429
10
146.323981345
20
53.8950594035
10
146.279651019
20
54.0411969018
10
146.238519216
20
54.1882666843
10
146.200605511
20
54.3361987537
10
146.16592795
20
54.4849227024
10
146.134503037
20
54.6343677459
10
146.106345729
20
54.7844627563
10
146.081469427
20
54.9351362967
10
146.05988597
20
55.0863166545
10
146.041605632
20
55.237931876
10
146.026637113
20
55.3899098008
10
146.014987537
20
55.5421780954
10
146.006662449
20
55.6946642884
10
146.00166581
20
55.8472958048
10
146
20
56
10
146.00166581
20
56.1527041952
10
146.006662449
20
56.3053357116
10
146.014987537
20
56.4578219046
10
146.026637113
20
56.6100901992
10
146.041605632
20
56.762068124
10
146.05988597
20
56.9136833455
10
146.081469427
20
57.0648637033
10
146.106345729
20
57.2155372437
10
146.134503037
20
57.3656322541
10
146.16592795
20
57.5150772976
10
146.200605511
20
57.6638012463
10
146.238519216
20
57.8117333157
10
146.279651019
20
57.9588030982
10
146.323981345
20
58.1049405965
10
146.371489094
20
58.2500762571
10
146.422151654
20
58.3941410033
10
146.475944915
20
58.537066268
10
146.532843272
20
58.6787840266
10
146.592819646
20
58.819226829
10
146.655845491
20
58.9583278322
10
146.721890809
20
59.0960208315
10
146.790924168
20
59.2322402926
10
146.86291271
20
59.3669213824
10
146.937822174
20
59.5
10
147.015616905
20
59.6314128071
10
147.096259879
20
59.7610972584
10
147.179712714
20
59.8889916311
10
147.26593569
20
60.0150350545
10
147.35488777
20
60.1391675385
10
147.446526618
20
60.2613300031
10
147.540808618
20
60.3814643053
10
147.637688898
20
60.4995132678
10
147.737121348
20
60.6154207057
10
147.839058642
20
60.7291314533
10
147.943452266
20
60.8405913905
10
148.050252532
20
60.9497474683
10
148.15940861
20
61.0565477344
10
148.270868547
20
61.1609413577
10
148.384579294
20
61.2628786524
10
148.500486732
20
61.3623111018
10
148.618535695
20
61.4591913817
10
148.738669997
20
61.553473382
10
148.860832461
20
61.6451122299
10
148.984964946
20
61.73406431
10
149.111008369
20
61.8202872861
10
149.238902742
20
61.9037401207
10
149.368587193
20
61.9843830947
10
149.5
20
62.0621778265
10
149.633078618
20
62.13708729
10
149.767759707
20
62.2090758322
10
149.903979168
20
62.2781091907
10
150.041672168
20
62.3441545093
10
150.180773171
20
62.4071803538
10
150.321215973
20
62.4671567276
10
150.462933732
20
62.524055085
10
150.605858997
20
62.5778483455
10
150.749923743
20
62.6285109065
10
150.895059403
20
62.6760186552
10
151.041196902
20
62.7203489807
10
151.188266684
20
62.761480784
10
151.336198754
20
62.7993944887
10
151.484922702
20
62.8340720498
10
151.634367746
20
62.8654969628
10
151.784462756
20
62.8936542711
10
151.935136297
20
62.9185305733
10
152.086316654
20
62.9401140296
10
152.237931876
20
62.9583943676
10
152.389909801
20
62.9733628866
10
152.542178095
20
62.9850124627
10
152.694664288
20
62.9933375511
10
152.847295805
20
62.9983341896
10
153
20
63
10
153.152704195
20
62.9983341896
10
153.305335712
20
62.9933375511
10
153.457821905
20
62.9850124627
10
153.610090199
20
62.9733628866
10
153.762068124
20
62.9583943676
10
153.913683346
20
62.9401140296
10
154.064863703
20
62.9185305733
10
154.215537244
20
62.8936542711
10
154.365632254
20
62.8654969628
10
154.515077298
20
62.8340720498
10
154.663801246
20
62.7993944887
10
154.811733316
20
62.761480784
10
154.958803098
20
62.7203489807
10
155.104940597
20
62.6760186552
10
155.250076257
20
62.6285109065
10
155.394141003
20
62.5778483455
10
155.537066268
20
62.524055085
10
155.678784027
20
62.4671567276
10
155.819226829
20
62.4071803538
10
155.958327832
20
62.3441545093
10
156.096020832
20
62.2781091907
10
156.232240293
20
62.2090758322
10
156.366921382
20
62.13708729
10
156.5
20
62.0621778265
10
156.631412807
20
61.9843830947
10
156.761097258
20
61.9037401207
10
156.888991631
20
61.8202872861
10
157.015035054
20
61.73406431
10
157.139167539
20
61.6451122299
10
157.261330003
20
61.553473382
10
157.381464305
20
61.4591913817
10
157.499513268
20
61.3623111018
10
157.615420706
20
61.2628786524
10
157.729131453
20
61.1609413577
10
157.84059139
20
61.0565477344
10
157.949747468
20
60.9497474683
10
158.056547734
20
60.8405913905
10
158.160941358
20
60.7291314533
10
158.262878652
20
60.6154207057
10
158.362311102
20
60.4995132678
10
158.459191382
20
60.3814643053
10
158.553473382
20
60.2613300031
10
158.64511223
20
60.1391675385
10
158.73406431
20
60.0150350545
10
158.820287286
20
59.8889916311
10
158.903740121
20
59.7610972584
10
158.984383095
20
59.6314128071
10
159.062177826
20
59.5
10
159.13708729
20
59.3669213824
10
159.209075832
20
59.2322402926
10
159.278109191
20
59.0960208315
10
159.344154509
20
58.9583278322
10
159.407180354
20
58.819226829
10
159.467156728
20
58.6787840266
10
159.524055085
20
58.537066268
10
159.577848346
20
58.3941410033
10
159.628510906
20
58.2500762571
10
159.676018655
20
58.1049405965
10
159.720348981
20
57.9588030982
10
159.761480784
20
57.8117333157
10
159.799394489
20
57.6638012463
10
159.83407205
20
57.5150772976
10
159.865496963
20
57.3656322541
10
159.893654271
20
57.2155372437
10
159.918530573
20
57.0648637033
10
159.94011403
20
56.9136833455
10
159.958394368
20
56.762068124
10
159.973362887
20
56.6100901992
10
159.985012463
20
56.4578219046
10
159.993337551
20
56.3053357116
10
159.99833419
20
56.1527041952
10
160
20
56
0
ENDSEC
0
EOF